<?xml version="1.0" encoding="utf-8" standalone="no"?>
<!DOCTYPE svg PUBLIC "-//W3C//DTD SVG 1.1//EN"
  "http://www.w3.org/Graphics/SVG/1.1/DTD/svg11.dtd">
<!-- Created with matplotlib (https://matplotlib.org/) -->
<svg height="345.6pt" version="1.1" viewBox="0 0 875.52 345.6" width="875.52pt" xmlns="http://www.w3.org/2000/svg" xmlns:xlink="http://www.w3.org/1999/xlink">
 <metadata>
  <rdf:RDF xmlns:cc="http://creativecommons.org/ns#" xmlns:dc="http://purl.org/dc/elements/1.1/" xmlns:rdf="http://www.w3.org/1999/02/22-rdf-syntax-ns#">
   <cc:Work>
    <dc:type rdf:resource="http://purl.org/dc/dcmitype/StillImage"/>
    <dc:date>2020-12-21T17:55:46.273033</dc:date>
    <dc:format>image/svg+xml</dc:format>
    <dc:creator>
     <cc:Agent>
      <dc:title>Matplotlib v3.3.3, https://matplotlib.org/</dc:title>
     </cc:Agent>
    </dc:creator>
   </cc:Work>
  </rdf:RDF>
 </metadata>
 <defs>
  <style type="text/css">*{stroke-linecap:butt;stroke-linejoin:round;}</style>
 </defs>
 <g id="figure_1">
  <g id="patch_1">
   <path d="M 0 345.6 
L 875.52 345.6 
L 875.52 0 
L 0 0 
z
" style="fill:none;"/>
  </g>
  <g id="axes_1">
   <g id="patch_2">
    <path d="M 64.21 301.64 
L 800.935 301.64 
L 800.935 31.96 
L 64.21 31.96 
z
" style="fill:none;"/>
   </g>
   <g id="matplotlib.axis_1">
    <g id="xtick_1">
     <g id="line2d_1">
      <defs>
       <path d="M 0 0 
L 0 3.5 
" id="m8d66156c75" style="stroke:#000000;stroke-width:0.8;"/>
      </defs>
      <g>
       <use style="stroke:#000000;stroke-width:0.8;" x="97.6975" xlink:href="#m8d66156c75" y="301.64"/>
      </g>
     </g>
     <g id="text_1">
      <!-- 0.0 -->
      <g transform="translate(88.950781 316.998281)scale(0.11 -0.11)">
       <defs>
        <path d="M 31.78125 66.40625 
Q 24.171875 66.40625 20.328125 58.90625 
Q 16.5 51.421875 16.5 36.375 
Q 16.5 21.390625 20.328125 13.890625 
Q 24.171875 6.390625 31.78125 6.390625 
Q 39.453125 6.390625 43.28125 13.890625 
Q 47.125 21.390625 47.125 36.375 
Q 47.125 51.421875 43.28125 58.90625 
Q 39.453125 66.40625 31.78125 66.40625 
z
M 31.78125 74.21875 
Q 44.046875 74.21875 50.515625 64.515625 
Q 56.984375 54.828125 56.984375 36.375 
Q 56.984375 17.96875 50.515625 8.265625 
Q 44.046875 -1.421875 31.78125 -1.421875 
Q 19.53125 -1.421875 13.0625 8.265625 
Q 6.59375 17.96875 6.59375 36.375 
Q 6.59375 54.828125 13.0625 64.515625 
Q 19.53125 74.21875 31.78125 74.21875 
z
" id="DejaVuSans-48"/>
        <path d="M 10.6875 12.40625 
L 21 12.40625 
L 21 0 
L 10.6875 0 
z
" id="DejaVuSans-46"/>
       </defs>
       <use xlink:href="#DejaVuSans-48"/>
       <use x="63.623047" xlink:href="#DejaVuSans-46"/>
       <use x="95.410156" xlink:href="#DejaVuSans-48"/>
      </g>
     </g>
    </g>
    <g id="xtick_2">
     <g id="line2d_2">
      <g>
       <use style="stroke:#000000;stroke-width:0.8;" x="231.6475" xlink:href="#m8d66156c75" y="301.64"/>
      </g>
     </g>
     <g id="text_2">
      <!-- 0.2 -->
      <g transform="translate(222.900781 316.998281)scale(0.11 -0.11)">
       <defs>
        <path d="M 19.1875 8.296875 
L 53.609375 8.296875 
L 53.609375 0 
L 7.328125 0 
L 7.328125 8.296875 
Q 12.9375 14.109375 22.625 23.890625 
Q 32.328125 33.6875 34.8125 36.53125 
Q 39.546875 41.84375 41.421875 45.53125 
Q 43.3125 49.21875 43.3125 52.78125 
Q 43.3125 58.59375 39.234375 62.25 
Q 35.15625 65.921875 28.609375 65.921875 
Q 23.96875 65.921875 18.8125 64.3125 
Q 13.671875 62.703125 7.8125 59.421875 
L 7.8125 69.390625 
Q 13.765625 71.78125 18.9375 73 
Q 24.125 74.21875 28.421875 74.21875 
Q 39.75 74.21875 46.484375 68.546875 
Q 53.21875 62.890625 53.21875 53.421875 
Q 53.21875 48.921875 51.53125 44.890625 
Q 49.859375 40.875 45.40625 35.40625 
Q 44.1875 33.984375 37.640625 27.21875 
Q 31.109375 20.453125 19.1875 8.296875 
z
" id="DejaVuSans-50"/>
       </defs>
       <use xlink:href="#DejaVuSans-48"/>
       <use x="63.623047" xlink:href="#DejaVuSans-46"/>
       <use x="95.410156" xlink:href="#DejaVuSans-50"/>
      </g>
     </g>
    </g>
    <g id="xtick_3">
     <g id="line2d_3">
      <g>
       <use style="stroke:#000000;stroke-width:0.8;" x="365.5975" xlink:href="#m8d66156c75" y="301.64"/>
      </g>
     </g>
     <g id="text_3">
      <!-- 0.4 -->
      <g transform="translate(356.850781 316.998281)scale(0.11 -0.11)">
       <defs>
        <path d="M 37.796875 64.3125 
L 12.890625 25.390625 
L 37.796875 25.390625 
z
M 35.203125 72.90625 
L 47.609375 72.90625 
L 47.609375 25.390625 
L 58.015625 25.390625 
L 58.015625 17.1875 
L 47.609375 17.1875 
L 47.609375 0 
L 37.796875 0 
L 37.796875 17.1875 
L 4.890625 17.1875 
L 4.890625 26.703125 
z
" id="DejaVuSans-52"/>
       </defs>
       <use xlink:href="#DejaVuSans-48"/>
       <use x="63.623047" xlink:href="#DejaVuSans-46"/>
       <use x="95.410156" xlink:href="#DejaVuSans-52"/>
      </g>
     </g>
    </g>
    <g id="xtick_4">
     <g id="line2d_4">
      <g>
       <use style="stroke:#000000;stroke-width:0.8;" x="499.5475" xlink:href="#m8d66156c75" y="301.64"/>
      </g>
     </g>
     <g id="text_4">
      <!-- 0.6 -->
      <g transform="translate(490.800781 316.998281)scale(0.11 -0.11)">
       <defs>
        <path d="M 33.015625 40.375 
Q 26.375 40.375 22.484375 35.828125 
Q 18.609375 31.296875 18.609375 23.390625 
Q 18.609375 15.53125 22.484375 10.953125 
Q 26.375 6.390625 33.015625 6.390625 
Q 39.65625 6.390625 43.53125 10.953125 
Q 47.40625 15.53125 47.40625 23.390625 
Q 47.40625 31.296875 43.53125 35.828125 
Q 39.65625 40.375 33.015625 40.375 
z
M 52.59375 71.296875 
L 52.59375 62.3125 
Q 48.875 64.0625 45.09375 64.984375 
Q 41.3125 65.921875 37.59375 65.921875 
Q 27.828125 65.921875 22.671875 59.328125 
Q 17.53125 52.734375 16.796875 39.40625 
Q 19.671875 43.65625 24.015625 45.921875 
Q 28.375 48.1875 33.59375 48.1875 
Q 44.578125 48.1875 50.953125 41.515625 
Q 57.328125 34.859375 57.328125 23.390625 
Q 57.328125 12.15625 50.6875 5.359375 
Q 44.046875 -1.421875 33.015625 -1.421875 
Q 20.359375 -1.421875 13.671875 8.265625 
Q 6.984375 17.96875 6.984375 36.375 
Q 6.984375 53.65625 15.1875 63.9375 
Q 23.390625 74.21875 37.203125 74.21875 
Q 40.921875 74.21875 44.703125 73.484375 
Q 48.484375 72.75 52.59375 71.296875 
z
" id="DejaVuSans-54"/>
       </defs>
       <use xlink:href="#DejaVuSans-48"/>
       <use x="63.623047" xlink:href="#DejaVuSans-46"/>
       <use x="95.410156" xlink:href="#DejaVuSans-54"/>
      </g>
     </g>
    </g>
    <g id="xtick_5">
     <g id="line2d_5">
      <g>
       <use style="stroke:#000000;stroke-width:0.8;" x="633.4975" xlink:href="#m8d66156c75" y="301.64"/>
      </g>
     </g>
     <g id="text_5">
      <!-- 0.8 -->
      <g transform="translate(624.750781 316.998281)scale(0.11 -0.11)">
       <defs>
        <path d="M 31.78125 34.625 
Q 24.75 34.625 20.71875 30.859375 
Q 16.703125 27.09375 16.703125 20.515625 
Q 16.703125 13.921875 20.71875 10.15625 
Q 24.75 6.390625 31.78125 6.390625 
Q 38.8125 6.390625 42.859375 10.171875 
Q 46.921875 13.96875 46.921875 20.515625 
Q 46.921875 27.09375 42.890625 30.859375 
Q 38.875 34.625 31.78125 34.625 
z
M 21.921875 38.8125 
Q 15.578125 40.375 12.03125 44.71875 
Q 8.5 49.078125 8.5 55.328125 
Q 8.5 64.0625 14.71875 69.140625 
Q 20.953125 74.21875 31.78125 74.21875 
Q 42.671875 74.21875 48.875 69.140625 
Q 55.078125 64.0625 55.078125 55.328125 
Q 55.078125 49.078125 51.53125 44.71875 
Q 48 40.375 41.703125 38.8125 
Q 48.828125 37.15625 52.796875 32.3125 
Q 56.78125 27.484375 56.78125 20.515625 
Q 56.78125 9.90625 50.3125 4.234375 
Q 43.84375 -1.421875 31.78125 -1.421875 
Q 19.734375 -1.421875 13.25 4.234375 
Q 6.78125 9.90625 6.78125 20.515625 
Q 6.78125 27.484375 10.78125 32.3125 
Q 14.796875 37.15625 21.921875 38.8125 
z
M 18.3125 54.390625 
Q 18.3125 48.734375 21.84375 45.5625 
Q 25.390625 42.390625 31.78125 42.390625 
Q 38.140625 42.390625 41.71875 45.5625 
Q 45.3125 48.734375 45.3125 54.390625 
Q 45.3125 60.0625 41.71875 63.234375 
Q 38.140625 66.40625 31.78125 66.40625 
Q 25.390625 66.40625 21.84375 63.234375 
Q 18.3125 60.0625 18.3125 54.390625 
z
" id="DejaVuSans-56"/>
       </defs>
       <use xlink:href="#DejaVuSans-48"/>
       <use x="63.623047" xlink:href="#DejaVuSans-46"/>
       <use x="95.410156" xlink:href="#DejaVuSans-56"/>
      </g>
     </g>
    </g>
    <g id="xtick_6">
     <g id="line2d_6">
      <g>
       <use style="stroke:#000000;stroke-width:0.8;" x="767.4475" xlink:href="#m8d66156c75" y="301.64"/>
      </g>
     </g>
     <g id="text_6">
      <!-- 1.0 -->
      <g transform="translate(758.700781 316.998281)scale(0.11 -0.11)">
       <defs>
        <path d="M 12.40625 8.296875 
L 28.515625 8.296875 
L 28.515625 63.921875 
L 10.984375 60.40625 
L 10.984375 69.390625 
L 28.421875 72.90625 
L 38.28125 72.90625 
L 38.28125 8.296875 
L 54.390625 8.296875 
L 54.390625 0 
L 12.40625 0 
z
" id="DejaVuSans-49"/>
       </defs>
       <use xlink:href="#DejaVuSans-49"/>
       <use x="63.623047" xlink:href="#DejaVuSans-46"/>
       <use x="95.410156" xlink:href="#DejaVuSans-48"/>
      </g>
     </g>
    </g>
    <g id="text_7">
     <!-- Tiempo (s) -->
     <g transform="translate(403.35375 331.644219)scale(0.11 -0.11)">
      <defs>
       <path d="M -0.296875 72.90625 
L 61.375 72.90625 
L 61.375 64.59375 
L 35.5 64.59375 
L 35.5 0 
L 25.59375 0 
L 25.59375 64.59375 
L -0.296875 64.59375 
z
" id="DejaVuSans-84"/>
       <path d="M 9.421875 54.6875 
L 18.40625 54.6875 
L 18.40625 0 
L 9.421875 0 
z
M 9.421875 75.984375 
L 18.40625 75.984375 
L 18.40625 64.59375 
L 9.421875 64.59375 
z
" id="DejaVuSans-105"/>
       <path d="M 56.203125 29.59375 
L 56.203125 25.203125 
L 14.890625 25.203125 
Q 15.484375 15.921875 20.484375 11.0625 
Q 25.484375 6.203125 34.421875 6.203125 
Q 39.59375 6.203125 44.453125 7.46875 
Q 49.3125 8.734375 54.109375 11.28125 
L 54.109375 2.78125 
Q 49.265625 0.734375 44.1875 -0.34375 
Q 39.109375 -1.421875 33.890625 -1.421875 
Q 20.796875 -1.421875 13.15625 6.1875 
Q 5.515625 13.8125 5.515625 26.8125 
Q 5.515625 40.234375 12.765625 48.109375 
Q 20.015625 56 32.328125 56 
Q 43.359375 56 49.78125 48.890625 
Q 56.203125 41.796875 56.203125 29.59375 
z
M 47.21875 32.234375 
Q 47.125 39.59375 43.09375 43.984375 
Q 39.0625 48.390625 32.421875 48.390625 
Q 24.90625 48.390625 20.390625 44.140625 
Q 15.875 39.890625 15.1875 32.171875 
z
" id="DejaVuSans-101"/>
       <path d="M 52 44.1875 
Q 55.375 50.25 60.0625 53.125 
Q 64.75 56 71.09375 56 
Q 79.640625 56 84.28125 50.015625 
Q 88.921875 44.046875 88.921875 33.015625 
L 88.921875 0 
L 79.890625 0 
L 79.890625 32.71875 
Q 79.890625 40.578125 77.09375 44.375 
Q 74.3125 48.1875 68.609375 48.1875 
Q 61.625 48.1875 57.5625 43.546875 
Q 53.515625 38.921875 53.515625 30.90625 
L 53.515625 0 
L 44.484375 0 
L 44.484375 32.71875 
Q 44.484375 40.625 41.703125 44.40625 
Q 38.921875 48.1875 33.109375 48.1875 
Q 26.21875 48.1875 22.15625 43.53125 
Q 18.109375 38.875 18.109375 30.90625 
L 18.109375 0 
L 9.078125 0 
L 9.078125 54.6875 
L 18.109375 54.6875 
L 18.109375 46.1875 
Q 21.1875 51.21875 25.484375 53.609375 
Q 29.78125 56 35.6875 56 
Q 41.65625 56 45.828125 52.96875 
Q 50 49.953125 52 44.1875 
z
" id="DejaVuSans-109"/>
       <path d="M 18.109375 8.203125 
L 18.109375 -20.796875 
L 9.078125 -20.796875 
L 9.078125 54.6875 
L 18.109375 54.6875 
L 18.109375 46.390625 
Q 20.953125 51.265625 25.265625 53.625 
Q 29.59375 56 35.59375 56 
Q 45.5625 56 51.78125 48.09375 
Q 58.015625 40.1875 58.015625 27.296875 
Q 58.015625 14.40625 51.78125 6.484375 
Q 45.5625 -1.421875 35.59375 -1.421875 
Q 29.59375 -1.421875 25.265625 0.953125 
Q 20.953125 3.328125 18.109375 8.203125 
z
M 48.6875 27.296875 
Q 48.6875 37.203125 44.609375 42.84375 
Q 40.53125 48.484375 33.40625 48.484375 
Q 26.265625 48.484375 22.1875 42.84375 
Q 18.109375 37.203125 18.109375 27.296875 
Q 18.109375 17.390625 22.1875 11.75 
Q 26.265625 6.109375 33.40625 6.109375 
Q 40.53125 6.109375 44.609375 11.75 
Q 48.6875 17.390625 48.6875 27.296875 
z
" id="DejaVuSans-112"/>
       <path d="M 30.609375 48.390625 
Q 23.390625 48.390625 19.1875 42.75 
Q 14.984375 37.109375 14.984375 27.296875 
Q 14.984375 17.484375 19.15625 11.84375 
Q 23.34375 6.203125 30.609375 6.203125 
Q 37.796875 6.203125 41.984375 11.859375 
Q 46.1875 17.53125 46.1875 27.296875 
Q 46.1875 37.015625 41.984375 42.703125 
Q 37.796875 48.390625 30.609375 48.390625 
z
M 30.609375 56 
Q 42.328125 56 49.015625 48.375 
Q 55.71875 40.765625 55.71875 27.296875 
Q 55.71875 13.875 49.015625 6.21875 
Q 42.328125 -1.421875 30.609375 -1.421875 
Q 18.84375 -1.421875 12.171875 6.21875 
Q 5.515625 13.875 5.515625 27.296875 
Q 5.515625 40.765625 12.171875 48.375 
Q 18.84375 56 30.609375 56 
z
" id="DejaVuSans-111"/>
       <path id="DejaVuSans-32"/>
       <path d="M 31 75.875 
Q 24.46875 64.65625 21.28125 53.65625 
Q 18.109375 42.671875 18.109375 31.390625 
Q 18.109375 20.125 21.3125 9.0625 
Q 24.515625 -2 31 -13.1875 
L 23.1875 -13.1875 
Q 15.875 -1.703125 12.234375 9.375 
Q 8.59375 20.453125 8.59375 31.390625 
Q 8.59375 42.28125 12.203125 53.3125 
Q 15.828125 64.359375 23.1875 75.875 
z
" id="DejaVuSans-40"/>
       <path d="M 44.28125 53.078125 
L 44.28125 44.578125 
Q 40.484375 46.53125 36.375 47.5 
Q 32.28125 48.484375 27.875 48.484375 
Q 21.1875 48.484375 17.84375 46.4375 
Q 14.5 44.390625 14.5 40.28125 
Q 14.5 37.15625 16.890625 35.375 
Q 19.28125 33.59375 26.515625 31.984375 
L 29.59375 31.296875 
Q 39.15625 29.25 43.1875 25.515625 
Q 47.21875 21.78125 47.21875 15.09375 
Q 47.21875 7.46875 41.1875 3.015625 
Q 35.15625 -1.421875 24.609375 -1.421875 
Q 20.21875 -1.421875 15.453125 -0.5625 
Q 10.6875 0.296875 5.421875 2 
L 5.421875 11.28125 
Q 10.40625 8.6875 15.234375 7.390625 
Q 20.0625 6.109375 24.8125 6.109375 
Q 31.15625 6.109375 34.5625 8.28125 
Q 37.984375 10.453125 37.984375 14.40625 
Q 37.984375 18.0625 35.515625 20.015625 
Q 33.0625 21.96875 24.703125 23.78125 
L 21.578125 24.515625 
Q 13.234375 26.265625 9.515625 29.90625 
Q 5.8125 33.546875 5.8125 39.890625 
Q 5.8125 47.609375 11.28125 51.796875 
Q 16.75 56 26.8125 56 
Q 31.78125 56 36.171875 55.265625 
Q 40.578125 54.546875 44.28125 53.078125 
z
" id="DejaVuSans-115"/>
       <path d="M 8.015625 75.875 
L 15.828125 75.875 
Q 23.140625 64.359375 26.78125 53.3125 
Q 30.421875 42.28125 30.421875 31.390625 
Q 30.421875 20.453125 26.78125 9.375 
Q 23.140625 -1.703125 15.828125 -13.1875 
L 8.015625 -13.1875 
Q 14.5 -2 17.703125 9.0625 
Q 20.90625 20.125 20.90625 31.390625 
Q 20.90625 42.671875 17.703125 53.65625 
Q 14.5 64.65625 8.015625 75.875 
z
" id="DejaVuSans-41"/>
      </defs>
      <use xlink:href="#DejaVuSans-84"/>
      <use x="57.958984" xlink:href="#DejaVuSans-105"/>
      <use x="85.742188" xlink:href="#DejaVuSans-101"/>
      <use x="147.265625" xlink:href="#DejaVuSans-109"/>
      <use x="244.677734" xlink:href="#DejaVuSans-112"/>
      <use x="308.154297" xlink:href="#DejaVuSans-111"/>
      <use x="369.335938" xlink:href="#DejaVuSans-32"/>
      <use x="401.123047" xlink:href="#DejaVuSans-40"/>
      <use x="440.136719" xlink:href="#DejaVuSans-115"/>
      <use x="492.236328" xlink:href="#DejaVuSans-41"/>
     </g>
    </g>
   </g>
   <g id="matplotlib.axis_2">
    <g id="ytick_1">
     <g id="line2d_7">
      <defs>
       <path d="M 0 0 
L -3.5 0 
" id="m40de14ea87" style="stroke:#000000;stroke-width:0.8;"/>
      </defs>
      <g>
       <use style="stroke:#000000;stroke-width:0.8;" x="64.21" xlink:href="#m40de14ea87" y="268.95155"/>
      </g>
     </g>
     <g id="text_8">
      <!-- −100 -->
      <g style="fill:#2ca02c;" transform="translate(26.996094 273.130691)scale(0.11 -0.11)">
       <defs>
        <path d="M 10.59375 35.5 
L 73.1875 35.5 
L 73.1875 27.203125 
L 10.59375 27.203125 
z
" id="DejaVuSans-8722"/>
       </defs>
       <use xlink:href="#DejaVuSans-8722"/>
       <use x="83.789062" xlink:href="#DejaVuSans-49"/>
       <use x="147.412109" xlink:href="#DejaVuSans-48"/>
       <use x="211.035156" xlink:href="#DejaVuSans-48"/>
      </g>
     </g>
    </g>
    <g id="ytick_2">
     <g id="line2d_8">
      <g>
       <use style="stroke:#000000;stroke-width:0.8;" x="64.21" xlink:href="#m40de14ea87" y="217.87472"/>
      </g>
     </g>
     <g id="text_9">
      <!-- −50 -->
      <g style="fill:#2ca02c;" transform="translate(33.994844 222.053861)scale(0.11 -0.11)">
       <defs>
        <path d="M 10.796875 72.90625 
L 49.515625 72.90625 
L 49.515625 64.59375 
L 19.828125 64.59375 
L 19.828125 46.734375 
Q 21.96875 47.46875 24.109375 47.828125 
Q 26.265625 48.1875 28.421875 48.1875 
Q 40.625 48.1875 47.75 41.5 
Q 54.890625 34.8125 54.890625 23.390625 
Q 54.890625 11.625 47.5625 5.09375 
Q 40.234375 -1.421875 26.90625 -1.421875 
Q 22.3125 -1.421875 17.546875 -0.640625 
Q 12.796875 0.140625 7.71875 1.703125 
L 7.71875 11.625 
Q 12.109375 9.234375 16.796875 8.0625 
Q 21.484375 6.890625 26.703125 6.890625 
Q 35.15625 6.890625 40.078125 11.328125 
Q 45.015625 15.765625 45.015625 23.390625 
Q 45.015625 31 40.078125 35.4375 
Q 35.15625 39.890625 26.703125 39.890625 
Q 22.75 39.890625 18.8125 39.015625 
Q 14.890625 38.140625 10.796875 36.28125 
z
" id="DejaVuSans-53"/>
       </defs>
       <use xlink:href="#DejaVuSans-8722"/>
       <use x="83.789062" xlink:href="#DejaVuSans-53"/>
       <use x="147.412109" xlink:href="#DejaVuSans-48"/>
      </g>
     </g>
    </g>
    <g id="ytick_3">
     <g id="line2d_9">
      <g>
       <use style="stroke:#000000;stroke-width:0.8;" x="64.21" xlink:href="#m40de14ea87" y="166.79789"/>
      </g>
     </g>
     <g id="text_10">
      <!-- 0 -->
      <g style="fill:#2ca02c;" transform="translate(50.21125 170.97703)scale(0.11 -0.11)">
       <use xlink:href="#DejaVuSans-48"/>
      </g>
     </g>
    </g>
    <g id="ytick_4">
     <g id="line2d_10">
      <g>
       <use style="stroke:#000000;stroke-width:0.8;" x="64.21" xlink:href="#m40de14ea87" y="115.72106"/>
      </g>
     </g>
     <g id="text_11">
      <!-- 50 -->
      <g style="fill:#2ca02c;" transform="translate(43.2125 119.9002)scale(0.11 -0.11)">
       <use xlink:href="#DejaVuSans-53"/>
       <use x="63.623047" xlink:href="#DejaVuSans-48"/>
      </g>
     </g>
    </g>
    <g id="ytick_5">
     <g id="line2d_11">
      <g>
       <use style="stroke:#000000;stroke-width:0.8;" x="64.21" xlink:href="#m40de14ea87" y="64.644229"/>
      </g>
     </g>
     <g id="text_12">
      <!-- 100 -->
      <g style="fill:#2ca02c;" transform="translate(36.21375 68.82337)scale(0.11 -0.11)">
       <use xlink:href="#DejaVuSans-49"/>
       <use x="63.623047" xlink:href="#DejaVuSans-48"/>
       <use x="127.246094" xlink:href="#DejaVuSans-48"/>
      </g>
     </g>
    </g>
    <g id="text_13">
     <!-- Voltaje (V) -->
     <g style="fill:#2ca02c;" transform="translate(20.708438 195.270234)rotate(-90)scale(0.11 -0.11)">
      <defs>
       <path d="M 28.609375 0 
L 0.78125 72.90625 
L 11.078125 72.90625 
L 34.1875 11.53125 
L 57.328125 72.90625 
L 67.578125 72.90625 
L 39.796875 0 
z
" id="DejaVuSans-86"/>
       <path d="M 9.421875 75.984375 
L 18.40625 75.984375 
L 18.40625 0 
L 9.421875 0 
z
" id="DejaVuSans-108"/>
       <path d="M 18.3125 70.21875 
L 18.3125 54.6875 
L 36.8125 54.6875 
L 36.8125 47.703125 
L 18.3125 47.703125 
L 18.3125 18.015625 
Q 18.3125 11.328125 20.140625 9.421875 
Q 21.96875 7.515625 27.59375 7.515625 
L 36.8125 7.515625 
L 36.8125 0 
L 27.59375 0 
Q 17.1875 0 13.234375 3.875 
Q 9.28125 7.765625 9.28125 18.015625 
L 9.28125 47.703125 
L 2.6875 47.703125 
L 2.6875 54.6875 
L 9.28125 54.6875 
L 9.28125 70.21875 
z
" id="DejaVuSans-116"/>
       <path d="M 34.28125 27.484375 
Q 23.390625 27.484375 19.1875 25 
Q 14.984375 22.515625 14.984375 16.5 
Q 14.984375 11.71875 18.140625 8.90625 
Q 21.296875 6.109375 26.703125 6.109375 
Q 34.1875 6.109375 38.703125 11.40625 
Q 43.21875 16.703125 43.21875 25.484375 
L 43.21875 27.484375 
z
M 52.203125 31.203125 
L 52.203125 0 
L 43.21875 0 
L 43.21875 8.296875 
Q 40.140625 3.328125 35.546875 0.953125 
Q 30.953125 -1.421875 24.3125 -1.421875 
Q 15.921875 -1.421875 10.953125 3.296875 
Q 6 8.015625 6 15.921875 
Q 6 25.140625 12.171875 29.828125 
Q 18.359375 34.515625 30.609375 34.515625 
L 43.21875 34.515625 
L 43.21875 35.40625 
Q 43.21875 41.609375 39.140625 45 
Q 35.0625 48.390625 27.6875 48.390625 
Q 23 48.390625 18.546875 47.265625 
Q 14.109375 46.140625 10.015625 43.890625 
L 10.015625 52.203125 
Q 14.9375 54.109375 19.578125 55.046875 
Q 24.21875 56 28.609375 56 
Q 40.484375 56 46.34375 49.84375 
Q 52.203125 43.703125 52.203125 31.203125 
z
" id="DejaVuSans-97"/>
       <path d="M 9.421875 54.6875 
L 18.40625 54.6875 
L 18.40625 -0.984375 
Q 18.40625 -11.421875 14.421875 -16.109375 
Q 10.453125 -20.796875 1.609375 -20.796875 
L -1.8125 -20.796875 
L -1.8125 -13.1875 
L 0.59375 -13.1875 
Q 5.71875 -13.1875 7.5625 -10.8125 
Q 9.421875 -8.453125 9.421875 -0.984375 
z
M 9.421875 75.984375 
L 18.40625 75.984375 
L 18.40625 64.59375 
L 9.421875 64.59375 
z
" id="DejaVuSans-106"/>
      </defs>
      <use xlink:href="#DejaVuSans-86"/>
      <use x="60.658203" xlink:href="#DejaVuSans-111"/>
      <use x="121.839844" xlink:href="#DejaVuSans-108"/>
      <use x="149.623047" xlink:href="#DejaVuSans-116"/>
      <use x="188.832031" xlink:href="#DejaVuSans-97"/>
      <use x="250.111328" xlink:href="#DejaVuSans-106"/>
      <use x="277.894531" xlink:href="#DejaVuSans-101"/>
      <use x="339.417969" xlink:href="#DejaVuSans-32"/>
      <use x="371.205078" xlink:href="#DejaVuSans-40"/>
      <use x="410.21875" xlink:href="#DejaVuSans-86"/>
      <use x="478.626953" xlink:href="#DejaVuSans-41"/>
     </g>
    </g>
   </g>
   <g id="line2d_12">
    <path clip-path="url(#p17762df382)" d="M 97.6975 166.79789 
L 98.399784 119.592037 
L 99.053836 82.040015 
L 99.962054 49.548751 
L 100.341638 44.629979 
L 100.601012 44.460887 
L 100.83933 46.601028 
L 101.226002 54.635653 
L 101.843846 78.207614 
L 102.497899 114.636694 
L 104.460057 242.433727 
L 105.11411 272.084082 
L 105.676588 286.398373 
L 106.029652 289.351641 
L 106.222046 288.929918 
L 106.485292 286.038251 
L 106.911677 275.860723 
L 107.56573 248.410718 
L 108.873835 165.843276 
L 110.18194 83.770417 
L 111.104188 49.96651 
L 111.485743 44.741062 
L 111.719746 44.306268 
L 111.930603 45.732611 
L 112.273228 51.664513 
L 112.823901 69.988544 
L 113.477953 103.539201 
L 116.094164 265.093137 
L 116.786686 285.553541 
L 117.159167 289.279636 
L 117.372276 288.999674 
L 117.627838 286.350124 
L 118.042011 276.856091 
L 118.696064 250.053315 
L 120.004169 168.062698 
L 121.312275 85.416786 
L 122.254633 50.221039 
L 122.637391 44.812733 
L 122.839833 44.22735 
L 123.024051 45.076461 
L 123.323706 49.241323 
L 123.807553 62.92117 
L 124.461606 93.306818 
L 125.769711 178.232696 
L 127.077817 257.234226 
L 127.895953 284.589517 
L 128.272982 289.096219 
L 128.516634 289.092128 
L 128.760828 286.783693 
L 129.156885 278.263536 
L 129.788847 253.519147 
L 130.4429 216.527168 
L 132.405058 89.076017 
L 133.059111 60.167404 
L 133.593795 47.03389 
L 133.776108 44.985726 
L 133.960094 44.218182 
L 134.13729 44.720689 
L 134.406164 47.795618 
L 134.841477 58.486503 
L 135.49553 86.404682 
L 136.803635 169.377293 
L 138.111741 251.013522 
L 139.022894 283.886592 
L 139.403234 288.924154 
L 139.639875 289.248525 
L 139.859444 287.608745 
L 140.216073 281.039989 
L 140.788258 261.096306 
L 141.442311 226.589 
L 143.404469 98.093311 
L 144.058522 66.15993 
L 144.709798 47.759079 
L 144.880777 45.497372 
L 145.092953 44.253122 
L 145.28877 44.65394 
L 145.550747 47.504989 
L 145.975117 57.568284 
L 146.62917 84.912069 
L 147.937276 167.386158 
L 149.245381 249.555466 
L 150.170951 283.587678 
L 150.552702 288.843202 
L 150.76217 289.346718 
L 150.956494 288.29202 
L 151.272476 283.489225 
L 151.781851 268.105941 
L 152.435903 236.478003 
L 155.052114 73.258952 
L 155.822721 48.622122 
L 156.197941 44.418203 
L 156.429861 44.537699 
L 156.678428 46.974934 
L 157.081461 55.864375 
L 157.723868 81.491025 
L 158.37792 118.889559 
L 160.340079 246.044678 
L 160.994131 274.393668 
L 161.508151 286.679937 
L 161.861108 289.373907 
L 162.041594 288.887219 
L 162.30925 285.85236 
L 162.742633 275.273434 
L 163.396686 247.456111 
L 164.704791 164.569905 
L 166.012897 82.838014 
L 166.925432 49.785265 
L 167.306131 44.691824 
L 167.541986 44.334249 
L 167.758957 45.909114 
L 168.111413 52.284978 
L 168.677202 71.740958 
L 169.331254 105.967153 
L 171.293413 234.510248 
L 171.947465 266.749251 
L 172.611045 285.753802 
L 172.780798 288.035617 
L 172.991493 289.32798 
L 173.192152 288.958436 
L 173.452334 286.164428 
L 173.873853 276.26185 
L 174.527906 249.068809 
L 175.836012 166.728096 
L 177.144117 84.423543 
L 178.074386 50.067248 
L 178.456417 44.769086 
L 178.66392 44.241976 
L 178.855417 45.237516 
L 179.166835 49.857836 
L 179.66909 64.7571 
L 180.323143 96.04257 
L 182.939354 259.483669 
L 183.723274 284.868574 
L 184.098989 289.156317 
L 184.334171 289.067733 
L 184.581523 286.666597 
L 184.982618 277.880458 
L 185.622128 252.499794 
L 186.276181 215.213182 
L 188.238339 87.972507 
L 188.892392 59.467356 
L 189.412152 46.948343 
L 189.764962 44.223916 
L 189.946953 44.703057 
L 190.214052 47.719649 
L 190.646551 58.247485 
L 191.300603 86.018558 
L 192.608709 168.864975 
L 193.916814 250.640441 
L 194.829984 283.77553 
L 195.210848 288.894572 
L 195.446343 289.267258 
L 195.662125 287.721728 
L 196.012672 281.433255 
L 196.575529 262.199045 
L 197.229582 228.10262 
L 199.19174 99.541894 
L 199.845793 67.164004 
L 200.515 47.880329 
L 200.68419 45.589475 
L 200.894205 44.275309 
L 201.097086 44.629832 
L 201.356444 47.397824 
L 201.776653 57.226989 
L 202.430706 84.350658 
L 203.738812 166.629642 
L 205.046917 248.995796 
L 205.979344 283.501265 
L 206.361504 288.819031 
L 206.568104 289.356794 
L 206.758303 288.387988 
L 207.067625 283.85041 
L 207.566605 269.171464 
L 208.220657 238.044563 
L 210.836868 74.507706 
L 211.626897 48.776065 
L 212.002842 44.44961 
L 212.239528 44.523648 
L 212.48632 46.908227 
L 212.886521 55.646933 
L 213.524694 80.914441 
L 214.178747 118.149199 
L 216.140905 245.428452 
L 216.794958 274.005404 
L 217.317365 286.632381 
L 217.500847 288.655672 
L 217.689481 289.381817 
L 217.859994 288.849996 
L 218.131342 285.692949 
L 218.570573 274.773108 
L 219.224626 246.650788 
L 220.532732 163.504774 
L 221.840837 82.064916 
L 222.749189 49.556092 
L 223.128808 44.631856 
L 223.388388 44.460347 
L 223.62663 46.598309 
L 224.013178 54.626627 
L 224.630835 78.183261 
L 225.284888 114.604807 
L 227.247046 242.405992 
L 227.901099 272.066029 
L 228.463944 286.396183 
L 228.816832 289.351146 
L 229.009427 288.930621 
L 229.272598 286.041344 
L 229.698865 275.87053 
L 230.352918 248.426747 
L 231.661024 165.86476 
L 232.969129 83.786225 
L 233.891572 49.968944 
L 234.273138 44.741734 
L 234.507117 44.30592 
L 234.717892 45.730326 
L 235.060386 51.656411 
L 235.610857 69.965522 
L 236.264909 103.507051 
L 238.88112 265.070703 
L 239.574028 285.550824 
L 239.946521 289.279224 
L 240.159721 288.99997 
L 240.415249 286.351471 
L 240.829369 276.860419 
L 241.483421 250.060528 
L 242.791527 168.072524 
L 244.099632 85.424136 
L 245.042079 50.22218 
L 245.424843 44.81306 
L 245.627248 44.227261 
L 245.811412 45.075325 
L 246.110981 49.236911 
L 246.594692 62.907924 
L 247.248744 93.286849 
L 248.55685 178.207853 
L 249.864955 257.217381 
L 250.683343 284.587415 
L 251.060382 289.095747 
L 251.304096 289.092305 
L 251.548267 286.784552 
L 251.944287 278.266354 
L 252.576193 253.526666 
L 253.230245 216.536892 
L 255.192404 89.084245 
L 255.846456 60.172653 
L 256.381252 47.03453 
L 256.563554 44.986144 
L 256.747498 44.21824 
L 256.924754 44.720466 
L 257.193606 47.794657 
L 257.628883 58.483485 
L 258.282936 86.399815 
L 259.591042 169.370848 
L 260.899147 251.008837 
L 261.810325 283.885201 
L 262.190672 288.923788 
L 262.427299 289.248769 
L 262.64682 287.610191 
L 263.003373 281.044997 
L 263.575441 261.110299 
L 264.229493 226.608121 
L 266.191652 98.111452 
L 266.845704 66.172438 
L 267.497207 47.760589 
L 267.668163 45.498508 
L 267.880311 44.25337 
L 268.076217 44.653633 
L 268.338161 47.503634 
L 268.76248 57.563976 
L 269.416533 84.905006 
L 270.724638 167.376666 
L 272.032743 249.548464 
L 272.958399 283.586598 
L 273.340156 288.842902 
L 273.549588 289.346855 
L 273.74386 288.293251 
L 274.059759 283.493824 
L 274.569003 268.119452 
L 275.223056 236.497748 
L 277.839267 73.274466 
L 278.610117 48.624029 
L 278.985346 44.418582 
L 279.217325 44.537522 
L 279.46587 46.974095 
L 279.868868 55.861645 
L 280.511222 81.483798 
L 281.165274 118.880296 
L 283.127433 246.036999 
L 283.781485 274.388845 
L 284.29561 286.679345 
L 284.648504 289.373823 
L 284.829055 288.887459 
L 285.096687 285.853396 
L 285.530031 275.276696 
L 286.184084 247.461383 
L 287.49219 164.576906 
L 288.800295 82.843116 
L 289.712858 49.786785 
L 290.093564 44.69223 
L 290.329403 44.333997 
L 290.546323 45.90758 
L 290.898696 52.27963 
L 291.464357 71.72594 
L 292.11841 105.946503 
L 294.080568 234.490418 
L 294.734621 266.735478 
L 295.398445 285.752138 
L 295.568174 288.034349 
L 295.77884 289.327663 
L 295.979595 288.958764 
L 296.239741 286.16589 
L 296.661203 276.266508 
L 297.315256 249.07648 
L 298.623362 166.738444 
L 299.931467 84.431207 
L 300.86183 50.068432 
L 301.243867 44.769418 
L 301.45133 44.241842 
L 301.642771 45.236215 
L 301.954098 49.852924 
L 302.456211 64.742585 
L 303.110263 96.021179 
L 305.726474 259.466522 
L 306.51066 284.866458 
L 306.886385 289.155881 
L 307.121633 289.067924 
L 307.36896 286.667509 
L 307.770016 277.883432 
L 308.409468 252.507684 
L 309.063521 215.22332 
L 311.025679 87.980959 
L 311.679732 59.472688 
L 312.199607 46.948995 
L 312.552468 44.223911 
L 312.734455 44.703071 
L 313.001556 47.719711 
L 313.434057 58.247681 
L 314.08811 86.018874 
L 315.396215 168.865396 
L 316.70432 250.640748 
L 317.617488 283.775621 
L 317.998352 288.894597 
L 318.233848 289.267243 
L 318.449633 287.721636 
L 318.800185 281.432936 
L 319.36305 262.198147 
L 320.017103 228.101381 
L 321.979261 99.540698 
L 322.633314 67.163171 
L 323.302506 47.880228 
L 323.471697 45.589398 
L 323.681715 44.275288 
L 323.88459 44.629851 
L 324.14395 47.397911 
L 324.564162 57.227268 
L 325.218215 84.351119 
L 326.526321 166.630266 
L 327.834426 248.996258 
L 328.766847 283.501337 
L 329.149007 288.819051 
L 329.355609 289.356786 
L 329.545812 288.387911 
L 329.855139 283.850117 
L 330.354128 269.170596 
L 331.00818 238.043279 
L 333.624391 74.506667 
L 334.414404 48.775937 
L 334.790348 44.449583 
L 335.02703 44.523659 
L 335.273823 46.908281 
L 335.674028 55.647112 
L 336.312204 80.914917 
L 336.966257 118.149811 
L 338.928415 245.428964 
L 339.582468 274.005728 
L 340.104868 286.63242 
L 340.28835 288.655697 
L 340.476987 289.381818 
L 340.647496 288.849981 
L 340.918845 285.692888 
L 341.358079 274.772918 
L 342.012132 246.650482 
L 343.320237 163.504371 
L 344.628343 82.064625 
L 345.536694 49.556006 
L 345.916312 44.631834 
L 346.17589 44.460353 
L 346.414132 46.598341 
L 346.800681 54.626732 
L 347.418341 78.183546 
L 348.072394 114.60518 
L 350.034552 242.406316 
L 350.688605 272.06624 
L 351.251445 286.396209 
L 351.604336 289.351152 
L 351.796929 288.930613 
L 352.060101 286.041308 
L 352.486369 275.870415 
L 353.140422 248.42656 
L 354.448527 165.864509 
L 355.756633 83.78604 
L 356.679073 49.968916 
L 357.060639 44.741726 
L 357.294618 44.305924 
L 357.505394 45.730353 
L 357.84789 51.656505 
L 358.398363 69.965791 
L 359.052416 103.507426 
L 361.668627 265.070965 
L 362.36153 285.550856 
L 362.734023 289.279229 
L 362.947222 288.999966 
L 363.20275 286.351455 
L 363.61687 276.860368 
L 364.270923 250.060443 
L 365.579029 168.072409 
L 366.887134 85.42405 
L 367.82958 50.222167 
L 368.212344 44.813056 
L 368.414749 44.227262 
L 368.598914 45.075338 
L 368.898483 49.236962 
L 369.382196 62.908079 
L 370.036249 93.287083 
L 371.344354 178.208144 
L 372.652459 257.217578 
L 373.470844 284.58744 
L 373.847883 289.095753 
L 374.091597 289.092303 
L 374.335768 286.784542 
L 374.731788 278.266321 
L 375.363695 253.526578 
L 376.017747 216.536779 
L 377.979905 89.084149 
L 378.633958 60.172592 
L 379.168752 47.034523 
L 379.351054 44.986139 
L 379.534999 44.218239 
L 379.712254 44.720468 
L 379.981107 47.794668 
L 380.416384 58.48352 
L 381.070437 86.399872 
L 382.378543 169.370924 
L 383.686648 251.008892 
L 384.597826 283.885218 
L 384.978173 288.923792 
L 385.2148 289.248766 
L 385.434322 287.610174 
L 385.790875 281.044939 
L 386.362944 261.110136 
L 387.016997 226.607897 
L 388.979155 98.11124 
L 389.633208 66.172292 
L 390.284708 47.760571 
L 390.455665 45.498495 
L 390.667813 44.253367 
L 390.863718 44.653637 
L 391.125662 47.50365 
L 391.549981 57.564027 
L 392.204034 84.905088 
L 393.51214 167.376777 
L 394.820245 249.548545 
L 395.7459 283.586611 
L 396.127656 288.842906 
L 396.337089 289.346853 
L 396.531362 288.293236 
L 396.847261 283.49377 
L 397.356507 268.119294 
L 398.01056 236.497517 
L 400.626771 73.274284 
L 401.397618 48.624007 
L 401.772847 44.418577 
L 402.004826 44.537524 
L 402.253371 46.974104 
L 402.656369 55.861677 
L 403.298723 81.483882 
L 403.952776 118.880404 
L 405.914934 246.037089 
L 406.568987 274.388901 
L 407.083111 286.679352 
L 407.436005 289.373824 
L 407.616555 288.887456 
L 407.884188 285.853384 
L 408.317533 275.276658 
L 408.971585 247.461322 
L 410.279691 164.576824 
L 411.587796 82.843056 
L 412.500359 49.786767 
L 412.881065 44.692226 
L 413.116904 44.334 
L 413.333824 45.907598 
L 413.686198 52.279692 
L 414.251861 71.726116 
L 414.905914 105.946744 
L 416.868072 234.49065 
L 417.522125 266.735639 
L 418.185947 285.752158 
L 418.355675 288.034364 
L 418.566341 289.327667 
L 418.767096 288.95876 
L 419.027242 286.165872 
L 419.448705 276.266453 
L 420.102758 249.076391 
L 421.410863 166.738323 
L 422.718969 84.431117 
L 423.649331 50.068418 
L 424.031367 44.769414 
L 424.238831 44.241844 
L 424.430273 45.23623 
L 424.741601 49.852982 
L 425.243715 64.742754 
L 425.897768 96.021429 
L 428.513979 259.466722 
L 429.298161 284.866483 
L 429.673886 289.155886 
L 429.909133 289.067922 
L 430.156461 286.667498 
L 430.557518 277.883397 
L 431.19697 252.507592 
L 431.851023 215.223202 
L 433.813181 87.98086 
L 434.467234 59.472626 
L 434.987108 46.948988 
L 435.339968 44.223911 
L 435.521955 44.703071 
L 435.789056 47.719711 
L 436.221557 58.247678 
L 436.875609 86.018871 
L 438.183715 168.865392 
L 439.49182 250.640744 
L 440.404988 283.77562 
L 440.785852 288.894597 
L 441.021347 289.267243 
L 441.237133 287.721638 
L 441.587684 281.432939 
L 442.15055 262.198157 
L 442.804602 228.101396 
L 444.766761 99.540712 
L 445.420813 67.163181 
L 446.090006 47.880229 
L 446.259197 45.589399 
L 446.469214 44.275289 
L 446.67209 44.629851 
L 446.93145 47.39791 
L 447.351662 57.227265 
L 448.005715 84.351114 
L 449.313821 166.630259 
L 450.621926 248.996253 
L 451.554347 283.501336 
L 451.936507 288.81905 
L 452.143109 289.356787 
L 452.333312 288.387912 
L 452.642639 283.850121 
L 453.141627 269.170606 
L 453.79568 238.043294 
L 456.411891 74.506679 
L 457.201904 48.775938 
L 457.577848 44.449584 
L 457.81453 44.523659 
L 458.061323 46.908281 
L 458.461528 55.64711 
L 459.099704 80.914911 
L 459.753757 118.149804 
L 461.715915 245.428958 
L 462.369968 274.005724 
L 462.892368 286.63242 
L 463.07585 288.655697 
L 463.264487 289.381818 
L 463.434996 288.849982 
L 463.706345 285.692889 
L 464.145579 274.77292 
L 464.799632 246.650485 
L 466.107737 163.504376 
L 467.415843 82.064628 
L 468.324194 49.556007 
L 468.703812 44.631834 
L 468.96339 44.460353 
L 469.201632 46.598341 
L 469.588181 54.626731 
L 470.205841 78.183542 
L 470.859894 114.605175 
L 472.822052 242.406313 
L 473.476105 272.066238 
L 474.038945 286.396209 
L 474.391836 289.351152 
L 474.584429 288.930613 
L 474.847601 286.041308 
L 475.273869 275.870417 
L 475.927922 248.426562 
L 477.236027 165.864512 
L 478.544133 83.786042 
L 479.466573 49.968916 
L 479.848139 44.741727 
L 480.082118 44.305924 
L 480.292894 45.730352 
L 480.63539 51.656504 
L 481.185863 69.965788 
L 481.839916 103.507422 
L 484.456127 265.070962 
L 485.14903 285.550855 
L 485.521523 289.279229 
L 485.734722 288.999966 
L 485.99025 286.351455 
L 486.40437 276.860369 
L 487.058423 250.060444 
L 488.366529 168.072411 
L 489.674634 85.424051 
L 490.61708 50.222167 
L 490.999844 44.813056 
L 491.202249 44.227262 
L 491.386414 45.075338 
L 491.685983 49.236962 
L 492.169696 62.908077 
L 492.823748 93.28708 
L 494.131854 178.20814 
L 495.439959 257.217575 
L 496.258344 284.58744 
L 496.635383 289.095753 
L 496.879097 289.092303 
L 497.123268 286.784542 
L 497.519288 278.266321 
L 498.151195 253.526579 
L 498.805247 216.53678 
L 500.767405 89.08415 
L 501.421458 60.172592 
L 501.956252 47.034523 
L 502.138554 44.986139 
L 502.322499 44.218239 
L 502.499754 44.720468 
L 502.768607 47.794668 
L 503.203884 58.483519 
L 503.857937 86.399872 
L 505.166043 169.370923 
L 506.474148 251.008891 
L 507.385326 283.885217 
L 507.765673 288.923792 
L 508.0023 289.248767 
L 508.221822 287.610174 
L 508.578375 281.04494 
L 509.150444 261.110138 
L 509.804497 226.6079 
L 511.766655 98.111243 
L 512.420708 66.172294 
L 513.072208 47.760572 
L 513.243165 45.498495 
L 513.455313 44.253367 
L 513.651218 44.653637 
L 513.913162 47.50365 
L 514.337481 57.564026 
L 514.991534 84.905087 
L 516.29964 167.376776 
L 517.607745 249.548544 
L 518.5334 283.58661 
L 518.915156 288.842906 
L 519.124589 289.346853 
L 519.318862 288.293236 
L 519.634761 283.493771 
L 520.144007 268.119296 
L 520.79806 236.497519 
L 523.414271 73.274286 
L 524.185118 48.624007 
L 524.560347 44.418577 
L 524.792326 44.537524 
L 525.040871 46.974104 
L 525.443869 55.861676 
L 526.086223 81.483881 
L 526.740276 118.880403 
L 528.702434 246.037088 
L 529.356487 274.3889 
L 529.870611 286.679352 
L 530.223505 289.373824 
L 530.404055 288.887456 
L 530.671688 285.853384 
L 531.105033 275.276658 
L 531.759085 247.461322 
L 533.067191 164.576825 
L 534.375296 82.843057 
L 535.287859 49.786767 
L 535.668565 44.692226 
L 535.904404 44.334 
L 536.121324 45.907598 
L 536.473698 52.279691 
L 537.039361 71.726114 
L 537.693414 105.946741 
L 539.655572 234.490647 
L 540.309625 266.735637 
L 540.973447 285.752158 
L 541.143175 288.034364 
L 541.353841 289.327667 
L 541.554596 288.95876 
L 541.814742 286.165873 
L 542.236205 276.266454 
L 542.890258 249.076392 
L 544.198363 166.738325 
L 545.506469 84.431118 
L 546.436831 50.068418 
L 546.818867 44.769414 
L 547.026331 44.241844 
L 547.217773 45.23623 
L 547.529101 49.852981 
L 548.031215 64.742753 
L 548.685268 96.021426 
L 551.301479 259.46672 
L 552.085661 284.866482 
L 552.461386 289.155886 
L 552.696633 289.067922 
L 552.943961 286.667498 
L 553.345018 277.883398 
L 553.98447 252.507593 
L 554.638523 215.223203 
L 556.600681 87.980861 
L 557.254734 59.472627 
L 557.774608 46.948988 
L 558.127468 44.223911 
L 558.309455 44.703071 
L 558.576556 47.719711 
L 559.009057 58.247678 
L 559.663109 86.018871 
L 560.971215 168.865392 
L 562.27932 250.640744 
L 563.192488 283.77562 
L 563.573352 288.894597 
L 563.808847 289.267243 
L 564.024633 287.721637 
L 564.375184 281.432939 
L 564.93805 262.198157 
L 565.592102 228.101396 
L 567.554261 99.540712 
L 568.208313 67.16318 
L 568.877506 47.880229 
L 569.046697 45.589399 
L 569.256714 44.275289 
L 569.45959 44.629851 
L 569.71895 47.39791 
L 570.139162 57.227265 
L 570.793215 84.351114 
L 572.101321 166.630259 
L 573.409426 248.996253 
L 574.341847 283.501336 
L 574.724007 288.81905 
L 574.930609 289.356787 
L 575.120812 288.387912 
L 575.430139 283.850121 
L 575.929127 269.170606 
L 576.58318 238.043293 
L 579.199391 74.506679 
L 579.989404 48.775938 
L 580.365348 44.449584 
L 580.60203 44.523659 
L 580.848823 46.908281 
L 581.249028 55.64711 
L 581.887204 80.914911 
L 582.541257 118.149804 
L 584.503415 245.428958 
L 585.157468 274.005724 
L 585.679868 286.63242 
L 585.86335 288.655697 
L 586.051987 289.381818 
L 586.222496 288.849982 
L 586.493845 285.692889 
L 586.933079 274.77292 
L 587.587132 246.650485 
L 588.895237 163.504376 
L 590.203343 82.064628 
L 591.111694 49.556007 
L 591.491312 44.631834 
L 591.75089 44.460353 
L 591.989132 46.598341 
L 592.375681 54.626731 
L 592.993341 78.183542 
L 593.647394 114.605175 
L 595.609552 242.406313 
L 596.263605 272.066238 
L 596.826445 286.396209 
L 597.179336 289.351152 
L 597.371929 288.930613 
L 597.635101 286.041308 
L 598.061369 275.870417 
L 598.715422 248.426562 
L 600.023527 165.864512 
L 601.331633 83.786042 
L 602.254073 49.968916 
L 602.635639 44.741727 
L 602.869618 44.305924 
L 603.080394 45.730352 
L 603.42289 51.656504 
L 603.973363 69.965788 
L 604.627416 103.507422 
L 607.243627 265.070962 
L 607.93653 285.550855 
L 608.309023 289.279229 
L 608.522222 288.999966 
L 608.77775 286.351455 
L 609.19187 276.860369 
L 609.845923 250.060444 
L 611.154029 168.072411 
L 612.462134 85.424051 
L 613.40458 50.222167 
L 613.787344 44.813056 
L 613.989749 44.227262 
L 614.173914 45.075338 
L 614.473483 49.236962 
L 614.957196 62.908077 
L 615.611248 93.28708 
L 616.919354 178.20814 
L 618.227459 257.217575 
L 619.045844 284.58744 
L 619.422883 289.095753 
L 619.666597 289.092303 
L 619.910768 286.784542 
L 620.306788 278.266321 
L 620.938695 253.526579 
L 621.592747 216.53678 
L 623.554905 89.08415 
L 624.208958 60.172592 
L 624.743752 47.034523 
L 624.926054 44.986139 
L 625.109999 44.218239 
L 625.287254 44.720468 
L 625.556107 47.794668 
L 625.991384 58.483519 
L 626.645437 86.399872 
L 627.953543 169.370923 
L 629.261648 251.008891 
L 630.172826 283.885217 
L 630.553173 288.923792 
L 630.7898 289.248767 
L 631.009322 287.610174 
L 631.365875 281.04494 
L 631.937944 261.110138 
L 632.591997 226.6079 
L 634.554155 98.111243 
L 635.208208 66.172294 
L 635.859708 47.760572 
L 636.030665 45.498495 
L 636.242813 44.253367 
L 636.438718 44.653637 
L 636.700662 47.50365 
L 637.124981 57.564026 
L 637.779034 84.905087 
L 639.08714 167.376776 
L 640.395245 249.548544 
L 641.3209 283.58661 
L 641.702656 288.842906 
L 641.912089 289.346853 
L 642.106362 288.293236 
L 642.422261 283.493771 
L 642.931507 268.119296 
L 643.58556 236.497519 
L 646.201771 73.274286 
L 646.972618 48.624007 
L 647.347847 44.418577 
L 647.579826 44.537524 
L 647.828371 46.974104 
L 648.231369 55.861676 
L 648.873723 81.483881 
L 649.527776 118.880403 
L 651.489934 246.037088 
L 652.143987 274.3889 
L 652.658111 286.679352 
L 653.011005 289.373824 
L 653.191555 288.887456 
L 653.459188 285.853384 
L 653.892533 275.276658 
L 654.546585 247.461322 
L 655.854691 164.576825 
L 657.162796 82.843057 
L 658.075359 49.786767 
L 658.456065 44.692226 
L 658.691904 44.334 
L 658.908824 45.907598 
L 659.261198 52.279691 
L 659.826861 71.726114 
L 660.480914 105.946741 
L 662.443072 234.490647 
L 663.097125 266.735637 
L 663.760947 285.752158 
L 663.930675 288.034364 
L 664.141341 289.327667 
L 664.342096 288.95876 
L 664.602242 286.165873 
L 665.023705 276.266454 
L 665.677758 249.076392 
L 666.985863 166.738325 
L 668.293969 84.431118 
L 669.224331 50.068418 
L 669.606367 44.769414 
L 669.813831 44.241844 
L 670.005273 45.23623 
L 670.316601 49.852981 
L 670.818715 64.742753 
L 671.472768 96.021426 
L 674.088979 259.46672 
L 674.873161 284.866482 
L 675.248886 289.155886 
L 675.484133 289.067922 
L 675.731461 286.667498 
L 676.132518 277.883398 
L 676.77197 252.507593 
L 677.426023 215.223203 
L 679.388181 87.980861 
L 680.042234 59.472627 
L 680.562108 46.948988 
L 680.914968 44.223911 
L 681.096955 44.703071 
L 681.364056 47.719711 
L 681.796557 58.247678 
L 682.450609 86.018871 
L 683.758715 168.865392 
L 685.06682 250.640744 
L 685.979988 283.77562 
L 686.360852 288.894597 
L 686.596347 289.267243 
L 686.812133 287.721637 
L 687.162684 281.432939 
L 687.72555 262.198157 
L 688.379602 228.101396 
L 690.341761 99.540712 
L 690.995813 67.16318 
L 691.665006 47.880229 
L 691.834197 45.589399 
L 692.044214 44.275289 
L 692.24709 44.629851 
L 692.50645 47.39791 
L 692.926662 57.227265 
L 693.580715 84.351114 
L 694.888821 166.630259 
L 696.196926 248.996253 
L 697.129347 283.501336 
L 697.511507 288.81905 
L 697.718109 289.356787 
L 697.908312 288.387912 
L 698.217639 283.850121 
L 698.716627 269.170606 
L 699.37068 238.043293 
L 701.986891 74.506679 
L 702.776904 48.775938 
L 703.152848 44.449584 
L 703.38953 44.523659 
L 703.636323 46.908281 
L 704.036528 55.64711 
L 704.674704 80.914911 
L 705.328757 118.149804 
L 707.290915 245.428958 
L 707.944968 274.005724 
L 708.467368 286.63242 
L 708.65085 288.655697 
L 708.839487 289.381818 
L 709.009996 288.849982 
L 709.281345 285.692889 
L 709.720579 274.77292 
L 710.374632 246.650485 
L 711.682737 163.504376 
L 712.990843 82.064628 
L 713.899194 49.556007 
L 714.278812 44.631834 
L 714.53839 44.460353 
L 714.776632 46.598341 
L 715.163181 54.626731 
L 715.780841 78.183542 
L 716.434894 114.605175 
L 718.397052 242.406313 
L 719.051105 272.066238 
L 719.613945 286.396209 
L 719.966836 289.351152 
L 720.159429 288.930613 
L 720.422601 286.041308 
L 720.848869 275.870417 
L 721.502922 248.426562 
L 722.811027 165.864512 
L 724.119133 83.786042 
L 725.041573 49.968916 
L 725.423139 44.741727 
L 725.657118 44.305924 
L 725.867894 45.730352 
L 726.21039 51.656504 
L 726.760863 69.965788 
L 727.414916 103.507422 
L 730.031127 265.070962 
L 730.72403 285.550855 
L 731.096523 289.279229 
L 731.309722 288.999966 
L 731.56525 286.351455 
L 731.97937 276.860369 
L 732.633423 250.060444 
L 733.941529 168.072411 
L 735.249634 85.424051 
L 736.19208 50.222167 
L 736.574844 44.813056 
L 736.777249 44.227262 
L 736.961414 45.075338 
L 737.260983 49.236962 
L 737.744696 62.908077 
L 738.398748 93.28708 
L 739.706854 178.20814 
L 741.014959 257.217575 
L 741.833344 284.58744 
L 742.210383 289.095753 
L 742.454097 289.092303 
L 742.698268 286.784542 
L 743.094288 278.266321 
L 743.726195 253.526579 
L 744.380247 216.53678 
L 746.342405 89.08415 
L 746.996458 60.172592 
L 747.531252 47.034523 
L 747.713554 44.986139 
L 747.897499 44.218239 
L 748.074754 44.720468 
L 748.343607 47.794668 
L 748.778884 58.483519 
L 749.432937 86.399872 
L 750.741043 169.370923 
L 752.049148 251.008891 
L 752.960326 283.885217 
L 753.340673 288.923792 
L 753.5773 289.248767 
L 753.796822 287.610174 
L 754.153375 281.04494 
L 754.725444 261.110138 
L 755.379497 226.6079 
L 757.341655 98.111243 
L 757.995708 66.172294 
L 758.647208 47.760572 
L 758.818165 45.498495 
L 759.030313 44.253367 
L 759.226218 44.653637 
L 759.488162 47.50365 
L 759.912481 57.564026 
L 760.566534 84.905087 
L 761.87464 167.376776 
L 763.182745 249.548544 
L 764.1084 283.58661 
L 764.490156 288.842906 
L 764.699589 289.346853 
L 764.893862 288.293236 
L 765.209761 283.493771 
L 765.719007 268.119296 
L 766.37306 236.497519 
L 767.4475 166.79789 
L 767.4475 166.79789 
" style="fill:none;stroke:#2ca02c;stroke-linecap:square;stroke-width:1.5;"/>
   </g>
   <g id="patch_3">
    <path d="M 64.21 301.64 
L 64.21 31.96 
" style="fill:none;stroke:#000000;stroke-linecap:square;stroke-linejoin:miter;stroke-width:0.8;"/>
   </g>
   <g id="patch_4">
    <path d="M 800.935 301.64 
L 800.935 31.96 
" style="fill:none;stroke:#000000;stroke-linecap:square;stroke-linejoin:miter;stroke-width:0.8;"/>
   </g>
   <g id="patch_5">
    <path d="M 64.21 301.64 
L 800.935 301.64 
" style="fill:none;stroke:#000000;stroke-linecap:square;stroke-linejoin:miter;stroke-width:0.8;"/>
   </g>
   <g id="patch_6">
    <path d="M 64.21 31.96 
L 800.935 31.96 
" style="fill:none;stroke:#000000;stroke-linecap:square;stroke-linejoin:miter;stroke-width:0.8;"/>
   </g>
   <g id="text_14">
    <!-- Circuito Corriente Alterna - ($\mathrm{10v}$) - VAC:$\mathrm{120v}$-$\mathrm{60Hz}$ R:$\mathrm{10k\Omega}$ - LTspice -->
    <g transform="translate(187.9885 25.96)scale(0.144 -0.144)">
     <defs>
      <path d="M 64.40625 67.28125 
L 64.40625 56.890625 
Q 59.421875 61.53125 53.78125 63.8125 
Q 48.140625 66.109375 41.796875 66.109375 
Q 29.296875 66.109375 22.65625 58.46875 
Q 16.015625 50.828125 16.015625 36.375 
Q 16.015625 21.96875 22.65625 14.328125 
Q 29.296875 6.6875 41.796875 6.6875 
Q 48.140625 6.6875 53.78125 8.984375 
Q 59.421875 11.28125 64.40625 15.921875 
L 64.40625 5.609375 
Q 59.234375 2.09375 53.4375 0.328125 
Q 47.65625 -1.421875 41.21875 -1.421875 
Q 24.65625 -1.421875 15.125 8.703125 
Q 5.609375 18.84375 5.609375 36.375 
Q 5.609375 53.953125 15.125 64.078125 
Q 24.65625 74.21875 41.21875 74.21875 
Q 47.75 74.21875 53.53125 72.484375 
Q 59.328125 70.75 64.40625 67.28125 
z
" id="DejaVuSans-67"/>
      <path d="M 41.109375 46.296875 
Q 39.59375 47.171875 37.8125 47.578125 
Q 36.03125 48 33.890625 48 
Q 26.265625 48 22.1875 43.046875 
Q 18.109375 38.09375 18.109375 28.8125 
L 18.109375 0 
L 9.078125 0 
L 9.078125 54.6875 
L 18.109375 54.6875 
L 18.109375 46.1875 
Q 20.953125 51.171875 25.484375 53.578125 
Q 30.03125 56 36.53125 56 
Q 37.453125 56 38.578125 55.875 
Q 39.703125 55.765625 41.0625 55.515625 
z
" id="DejaVuSans-114"/>
      <path d="M 48.78125 52.59375 
L 48.78125 44.1875 
Q 44.96875 46.296875 41.140625 47.34375 
Q 37.3125 48.390625 33.40625 48.390625 
Q 24.65625 48.390625 19.8125 42.84375 
Q 14.984375 37.3125 14.984375 27.296875 
Q 14.984375 17.28125 19.8125 11.734375 
Q 24.65625 6.203125 33.40625 6.203125 
Q 37.3125 6.203125 41.140625 7.25 
Q 44.96875 8.296875 48.78125 10.40625 
L 48.78125 2.09375 
Q 45.015625 0.34375 40.984375 -0.53125 
Q 36.96875 -1.421875 32.421875 -1.421875 
Q 20.0625 -1.421875 12.78125 6.34375 
Q 5.515625 14.109375 5.515625 27.296875 
Q 5.515625 40.671875 12.859375 48.328125 
Q 20.21875 56 33.015625 56 
Q 37.15625 56 41.109375 55.140625 
Q 45.0625 54.296875 48.78125 52.59375 
z
" id="DejaVuSans-99"/>
      <path d="M 8.5 21.578125 
L 8.5 54.6875 
L 17.484375 54.6875 
L 17.484375 21.921875 
Q 17.484375 14.15625 20.5 10.265625 
Q 23.53125 6.390625 29.59375 6.390625 
Q 36.859375 6.390625 41.078125 11.03125 
Q 45.3125 15.671875 45.3125 23.6875 
L 45.3125 54.6875 
L 54.296875 54.6875 
L 54.296875 0 
L 45.3125 0 
L 45.3125 8.40625 
Q 42.046875 3.421875 37.71875 1 
Q 33.40625 -1.421875 27.6875 -1.421875 
Q 18.265625 -1.421875 13.375 4.4375 
Q 8.5 10.296875 8.5 21.578125 
z
M 31.109375 56 
z
" id="DejaVuSans-117"/>
      <path d="M 54.890625 33.015625 
L 54.890625 0 
L 45.90625 0 
L 45.90625 32.71875 
Q 45.90625 40.484375 42.875 44.328125 
Q 39.84375 48.1875 33.796875 48.1875 
Q 26.515625 48.1875 22.3125 43.546875 
Q 18.109375 38.921875 18.109375 30.90625 
L 18.109375 0 
L 9.078125 0 
L 9.078125 54.6875 
L 18.109375 54.6875 
L 18.109375 46.1875 
Q 21.34375 51.125 25.703125 53.5625 
Q 30.078125 56 35.796875 56 
Q 45.21875 56 50.046875 50.171875 
Q 54.890625 44.34375 54.890625 33.015625 
z
" id="DejaVuSans-110"/>
      <path d="M 34.1875 63.1875 
L 20.796875 26.90625 
L 47.609375 26.90625 
z
M 28.609375 72.90625 
L 39.796875 72.90625 
L 67.578125 0 
L 57.328125 0 
L 50.6875 18.703125 
L 17.828125 18.703125 
L 11.1875 0 
L 0.78125 0 
z
" id="DejaVuSans-65"/>
      <path d="M 4.890625 31.390625 
L 31.203125 31.390625 
L 31.203125 23.390625 
L 4.890625 23.390625 
z
" id="DejaVuSans-45"/>
      <path d="M 2.984375 54.6875 
L 12.5 54.6875 
L 29.59375 8.796875 
L 46.6875 54.6875 
L 56.203125 54.6875 
L 35.6875 0 
L 23.484375 0 
z
" id="DejaVuSans-118"/>
      <path d="M 11.71875 12.40625 
L 22.015625 12.40625 
L 22.015625 0 
L 11.71875 0 
z
M 11.71875 51.703125 
L 22.015625 51.703125 
L 22.015625 39.3125 
L 11.71875 39.3125 
z
" id="DejaVuSans-58"/>
      <path d="M 9.8125 72.90625 
L 19.671875 72.90625 
L 19.671875 43.015625 
L 55.515625 43.015625 
L 55.515625 72.90625 
L 65.375 72.90625 
L 65.375 0 
L 55.515625 0 
L 55.515625 34.71875 
L 19.671875 34.71875 
L 19.671875 0 
L 9.8125 0 
z
" id="DejaVuSans-72"/>
      <path d="M 5.515625 54.6875 
L 48.1875 54.6875 
L 48.1875 46.484375 
L 14.40625 7.171875 
L 48.1875 7.171875 
L 48.1875 0 
L 4.296875 0 
L 4.296875 8.203125 
L 38.09375 47.515625 
L 5.515625 47.515625 
z
" id="DejaVuSans-122"/>
      <path d="M 44.390625 34.1875 
Q 47.5625 33.109375 50.5625 29.59375 
Q 53.5625 26.078125 56.59375 19.921875 
L 66.609375 0 
L 56 0 
L 46.6875 18.703125 
Q 43.0625 26.03125 39.671875 28.421875 
Q 36.28125 30.8125 30.421875 30.8125 
L 19.671875 30.8125 
L 19.671875 0 
L 9.8125 0 
L 9.8125 72.90625 
L 32.078125 72.90625 
Q 44.578125 72.90625 50.734375 67.671875 
Q 56.890625 62.453125 56.890625 51.90625 
Q 56.890625 45.015625 53.6875 40.46875 
Q 50.484375 35.9375 44.390625 34.1875 
z
M 19.671875 64.796875 
L 19.671875 38.921875 
L 32.078125 38.921875 
Q 39.203125 38.921875 42.84375 42.21875 
Q 46.484375 45.515625 46.484375 51.90625 
Q 46.484375 58.296875 42.84375 61.546875 
Q 39.203125 64.796875 32.078125 64.796875 
z
" id="DejaVuSans-82"/>
      <path d="M 9.078125 75.984375 
L 18.109375 75.984375 
L 18.109375 31.109375 
L 44.921875 54.6875 
L 56.390625 54.6875 
L 27.390625 29.109375 
L 57.625 0 
L 45.90625 0 
L 18.109375 26.703125 
L 18.109375 0 
L 9.078125 0 
z
" id="DejaVuSans-107"/>
      <path d="M 72.609375 8.6875 
L 72.609375 0 
L 43.3125 0 
L 43.3125 8.6875 
Q 51.953125 13.421875 56.78125 21.53125 
Q 61.625 29.640625 61.625 39.5 
Q 61.625 51.21875 55.171875 58.296875 
Q 48.734375 65.375 38.1875 65.375 
Q 27.640625 65.375 21.171875 58.265625 
Q 14.703125 51.171875 14.703125 39.5 
Q 14.703125 29.640625 19.53125 21.53125 
Q 24.421875 13.421875 33.109375 8.6875 
L 33.109375 0 
L 3.8125 0 
L 3.8125 8.6875 
L 19.390625 8.6875 
Q 11.671875 15.484375 8.109375 22.75 
Q 4.59375 30.03125 4.59375 39.015625 
Q 4.59375 54.546875 13.96875 64.15625 
Q 23.296875 73.78125 38.1875 73.78125 
Q 52.984375 73.78125 62.40625 64.15625 
Q 71.78125 54.59375 71.78125 39.5 
Q 71.78125 30.03125 68.3125 22.796875 
Q 64.84375 15.578125 56.984375 8.6875 
z
" id="DejaVuSans-937"/>
      <path d="M 9.8125 72.90625 
L 19.671875 72.90625 
L 19.671875 8.296875 
L 55.171875 8.296875 
L 55.171875 0 
L 9.8125 0 
z
" id="DejaVuSans-76"/>
     </defs>
     <use transform="translate(0 0.015625)" xlink:href="#DejaVuSans-67"/>
     <use transform="translate(69.824219 0.015625)" xlink:href="#DejaVuSans-105"/>
     <use transform="translate(97.607422 0.015625)" xlink:href="#DejaVuSans-114"/>
     <use transform="translate(138.720703 0.015625)" xlink:href="#DejaVuSans-99"/>
     <use transform="translate(193.701172 0.015625)" xlink:href="#DejaVuSans-117"/>
     <use transform="translate(257.080078 0.015625)" xlink:href="#DejaVuSans-105"/>
     <use transform="translate(284.863281 0.015625)" xlink:href="#DejaVuSans-116"/>
     <use transform="translate(324.072266 0.015625)" xlink:href="#DejaVuSans-111"/>
     <use transform="translate(385.253906 0.015625)" xlink:href="#DejaVuSans-32"/>
     <use transform="translate(417.041016 0.015625)" xlink:href="#DejaVuSans-67"/>
     <use transform="translate(486.865234 0.015625)" xlink:href="#DejaVuSans-111"/>
     <use transform="translate(548.046875 0.015625)" xlink:href="#DejaVuSans-114"/>
     <use transform="translate(589.160156 0.015625)" xlink:href="#DejaVuSans-114"/>
     <use transform="translate(630.273438 0.015625)" xlink:href="#DejaVuSans-105"/>
     <use transform="translate(658.056641 0.015625)" xlink:href="#DejaVuSans-101"/>
     <use transform="translate(719.580078 0.015625)" xlink:href="#DejaVuSans-110"/>
     <use transform="translate(782.958984 0.015625)" xlink:href="#DejaVuSans-116"/>
     <use transform="translate(822.167969 0.015625)" xlink:href="#DejaVuSans-101"/>
     <use transform="translate(883.691406 0.015625)" xlink:href="#DejaVuSans-32"/>
     <use transform="translate(915.478516 0.015625)" xlink:href="#DejaVuSans-65"/>
     <use transform="translate(983.886719 0.015625)" xlink:href="#DejaVuSans-108"/>
     <use transform="translate(1011.669922 0.015625)" xlink:href="#DejaVuSans-116"/>
     <use transform="translate(1050.878906 0.015625)" xlink:href="#DejaVuSans-101"/>
     <use transform="translate(1112.402344 0.015625)" xlink:href="#DejaVuSans-114"/>
     <use transform="translate(1153.515625 0.015625)" xlink:href="#DejaVuSans-110"/>
     <use transform="translate(1216.894531 0.015625)" xlink:href="#DejaVuSans-97"/>
     <use transform="translate(1278.173828 0.015625)" xlink:href="#DejaVuSans-32"/>
     <use transform="translate(1309.960938 0.015625)" xlink:href="#DejaVuSans-45"/>
     <use transform="translate(1346.044922 0.015625)" xlink:href="#DejaVuSans-32"/>
     <use transform="translate(1377.832031 0.015625)" xlink:href="#DejaVuSans-40"/>
     <use transform="translate(1416.845703 0.015625)" xlink:href="#DejaVuSans-49"/>
     <use transform="translate(1480.46875 0.015625)" xlink:href="#DejaVuSans-48"/>
     <use transform="translate(1544.091797 0.015625)" xlink:href="#DejaVuSans-118"/>
     <use transform="translate(1603.271484 0.015625)" xlink:href="#DejaVuSans-41"/>
     <use transform="translate(1642.285156 0.015625)" xlink:href="#DejaVuSans-32"/>
     <use transform="translate(1674.072266 0.015625)" xlink:href="#DejaVuSans-45"/>
     <use transform="translate(1710.15625 0.015625)" xlink:href="#DejaVuSans-32"/>
     <use transform="translate(1741.943359 0.015625)" xlink:href="#DejaVuSans-86"/>
     <use transform="translate(1810.351562 0.015625)" xlink:href="#DejaVuSans-65"/>
     <use transform="translate(1878.759766 0.015625)" xlink:href="#DejaVuSans-67"/>
     <use transform="translate(1948.583984 0.015625)" xlink:href="#DejaVuSans-58"/>
     <use transform="translate(1982.275391 0.015625)" xlink:href="#DejaVuSans-49"/>
     <use transform="translate(2045.898438 0.015625)" xlink:href="#DejaVuSans-50"/>
     <use transform="translate(2109.521484 0.015625)" xlink:href="#DejaVuSans-48"/>
     <use transform="translate(2173.144531 0.015625)" xlink:href="#DejaVuSans-118"/>
     <use transform="translate(2232.324219 0.015625)" xlink:href="#DejaVuSans-45"/>
     <use transform="translate(2268.408203 0.015625)" xlink:href="#DejaVuSans-54"/>
     <use transform="translate(2332.03125 0.015625)" xlink:href="#DejaVuSans-48"/>
     <use transform="translate(2395.654297 0.015625)" xlink:href="#DejaVuSans-72"/>
     <use transform="translate(2470.849609 0.015625)" xlink:href="#DejaVuSans-122"/>
     <use transform="translate(2523.339844 0.015625)" xlink:href="#DejaVuSans-32"/>
     <use transform="translate(2555.126953 0.015625)" xlink:href="#DejaVuSans-82"/>
     <use transform="translate(2624.609375 0.015625)" xlink:href="#DejaVuSans-58"/>
     <use transform="translate(2658.300781 0.015625)" xlink:href="#DejaVuSans-49"/>
     <use transform="translate(2721.923828 0.015625)" xlink:href="#DejaVuSans-48"/>
     <use transform="translate(2785.546875 0.015625)" xlink:href="#DejaVuSans-107"/>
     <use transform="translate(2843.457031 0.015625)" xlink:href="#DejaVuSans-937"/>
     <use transform="translate(2919.873047 0.015625)" xlink:href="#DejaVuSans-32"/>
     <use transform="translate(2951.660156 0.015625)" xlink:href="#DejaVuSans-45"/>
     <use transform="translate(2987.744141 0.015625)" xlink:href="#DejaVuSans-32"/>
     <use transform="translate(3019.53125 0.015625)" xlink:href="#DejaVuSans-76"/>
     <use transform="translate(3075.244141 0.015625)" xlink:href="#DejaVuSans-84"/>
     <use transform="translate(3136.328125 0.015625)" xlink:href="#DejaVuSans-115"/>
     <use transform="translate(3188.427734 0.015625)" xlink:href="#DejaVuSans-112"/>
     <use transform="translate(3251.904297 0.015625)" xlink:href="#DejaVuSans-105"/>
     <use transform="translate(3279.6875 0.015625)" xlink:href="#DejaVuSans-99"/>
     <use transform="translate(3334.667969 0.015625)" xlink:href="#DejaVuSans-101"/>
    </g>
   </g>
  </g>
  <g id="axes_2">
   <g id="matplotlib.axis_3">
    <g id="ytick_6">
     <g id="line2d_13">
      <path clip-path="url(#p17762df382)" d="M 64.21 268.955771 
L 800.935 268.955771 
" style="fill:none;stroke:#b0b0b0;stroke-linecap:square;stroke-width:0.8;"/>
     </g>
     <g id="line2d_14">
      <defs>
       <path d="M 0 0 
L 3.5 0 
" id="mf40d37070f" style="stroke:#000000;stroke-width:0.8;"/>
      </defs>
      <g>
       <use style="stroke:#000000;stroke-width:0.8;" x="800.935" xlink:href="#mf40d37070f" y="268.955771"/>
      </g>
     </g>
     <g id="text_15">
      <!-- −0.010 -->
      <g style="fill:#d62728;" transform="translate(807.935 273.134911)scale(0.11 -0.11)">
       <use xlink:href="#DejaVuSans-8722"/>
       <use x="83.789062" xlink:href="#DejaVuSans-48"/>
       <use x="147.412109" xlink:href="#DejaVuSans-46"/>
       <use x="179.199219" xlink:href="#DejaVuSans-48"/>
       <use x="242.822266" xlink:href="#DejaVuSans-49"/>
       <use x="306.445312" xlink:href="#DejaVuSans-48"/>
      </g>
     </g>
    </g>
    <g id="ytick_7">
     <g id="line2d_15">
      <path clip-path="url(#p17762df382)" d="M 64.21 217.87894 
L 800.935 217.87894 
" style="fill:none;stroke:#b0b0b0;stroke-linecap:square;stroke-width:0.8;"/>
     </g>
     <g id="line2d_16">
      <g>
       <use style="stroke:#000000;stroke-width:0.8;" x="800.935" xlink:href="#mf40d37070f" y="217.87894"/>
      </g>
     </g>
     <g id="text_16">
      <!-- −0.005 -->
      <g style="fill:#d62728;" transform="translate(807.935 222.058081)scale(0.11 -0.11)">
       <use xlink:href="#DejaVuSans-8722"/>
       <use x="83.789062" xlink:href="#DejaVuSans-48"/>
       <use x="147.412109" xlink:href="#DejaVuSans-46"/>
       <use x="179.199219" xlink:href="#DejaVuSans-48"/>
       <use x="242.822266" xlink:href="#DejaVuSans-48"/>
       <use x="306.445312" xlink:href="#DejaVuSans-53"/>
      </g>
     </g>
    </g>
    <g id="ytick_8">
     <g id="line2d_17">
      <path clip-path="url(#p17762df382)" d="M 64.21 166.80211 
L 800.935 166.80211 
" style="fill:none;stroke:#b0b0b0;stroke-linecap:square;stroke-width:0.8;"/>
     </g>
     <g id="line2d_18">
      <g>
       <use style="stroke:#000000;stroke-width:0.8;" x="800.935" xlink:href="#mf40d37070f" y="166.80211"/>
      </g>
     </g>
     <g id="text_17">
      <!-- 0.000 -->
      <g style="fill:#d62728;" transform="translate(807.935 170.981251)scale(0.11 -0.11)">
       <use xlink:href="#DejaVuSans-48"/>
       <use x="63.623047" xlink:href="#DejaVuSans-46"/>
       <use x="95.410156" xlink:href="#DejaVuSans-48"/>
       <use x="159.033203" xlink:href="#DejaVuSans-48"/>
       <use x="222.65625" xlink:href="#DejaVuSans-48"/>
      </g>
     </g>
    </g>
    <g id="ytick_9">
     <g id="line2d_19">
      <path clip-path="url(#p17762df382)" d="M 64.21 115.72528 
L 800.935 115.72528 
" style="fill:none;stroke:#b0b0b0;stroke-linecap:square;stroke-width:0.8;"/>
     </g>
     <g id="line2d_20">
      <g>
       <use style="stroke:#000000;stroke-width:0.8;" x="800.935" xlink:href="#mf40d37070f" y="115.72528"/>
      </g>
     </g>
     <g id="text_18">
      <!-- 0.005 -->
      <g style="fill:#d62728;" transform="translate(807.935 119.904421)scale(0.11 -0.11)">
       <use xlink:href="#DejaVuSans-48"/>
       <use x="63.623047" xlink:href="#DejaVuSans-46"/>
       <use x="95.410156" xlink:href="#DejaVuSans-48"/>
       <use x="159.033203" xlink:href="#DejaVuSans-48"/>
       <use x="222.65625" xlink:href="#DejaVuSans-53"/>
      </g>
     </g>
    </g>
    <g id="ytick_10">
     <g id="line2d_21">
      <path clip-path="url(#p17762df382)" d="M 64.21 64.64845 
L 800.935 64.64845 
" style="fill:none;stroke:#b0b0b0;stroke-linecap:square;stroke-width:0.8;"/>
     </g>
     <g id="line2d_22">
      <g>
       <use style="stroke:#000000;stroke-width:0.8;" x="800.935" xlink:href="#mf40d37070f" y="64.64845"/>
      </g>
     </g>
     <g id="text_19">
      <!-- 0.010 -->
      <g style="fill:#d62728;" transform="translate(807.935 68.827591)scale(0.11 -0.11)">
       <use xlink:href="#DejaVuSans-48"/>
       <use x="63.623047" xlink:href="#DejaVuSans-46"/>
       <use x="95.410156" xlink:href="#DejaVuSans-48"/>
       <use x="159.033203" xlink:href="#DejaVuSans-49"/>
       <use x="222.65625" xlink:href="#DejaVuSans-48"/>
      </g>
     </g>
    </g>
    <g id="text_20">
     <!-- Corriente (A) -->
     <g style="fill:#d62728;" transform="translate(861.001875 202.171875)rotate(-90)scale(0.11 -0.11)">
      <use xlink:href="#DejaVuSans-67"/>
      <use x="69.824219" xlink:href="#DejaVuSans-111"/>
      <use x="131.005859" xlink:href="#DejaVuSans-114"/>
      <use x="170.369141" xlink:href="#DejaVuSans-114"/>
      <use x="211.482422" xlink:href="#DejaVuSans-105"/>
      <use x="239.265625" xlink:href="#DejaVuSans-101"/>
      <use x="300.789062" xlink:href="#DejaVuSans-110"/>
      <use x="364.167969" xlink:href="#DejaVuSans-116"/>
      <use x="403.376953" xlink:href="#DejaVuSans-101"/>
      <use x="464.900391" xlink:href="#DejaVuSans-32"/>
      <use x="496.6875" xlink:href="#DejaVuSans-40"/>
      <use x="535.701172" xlink:href="#DejaVuSans-65"/>
      <use x="604.109375" xlink:href="#DejaVuSans-41"/>
     </g>
    </g>
   </g>
   <g id="line2d_23">
    <path clip-path="url(#p17762df382)" d="M 97.6975 166.80211 
L 98.399784 214.007963 
L 99.053836 251.559985 
L 99.962054 284.051249 
L 100.341638 288.970021 
L 100.601012 289.139113 
L 100.83933 286.998972 
L 101.226002 278.964347 
L 101.843846 255.392386 
L 102.497899 218.963306 
L 104.460057 91.166273 
L 105.11411 61.515918 
L 105.676588 47.201627 
L 106.029652 44.248359 
L 106.222046 44.670082 
L 106.485292 47.561749 
L 106.911677 57.739277 
L 107.56573 85.189282 
L 108.873835 167.756724 
L 110.18194 249.829583 
L 111.104188 283.63349 
L 111.485743 288.858938 
L 111.719746 289.293732 
L 111.930603 287.867389 
L 112.273228 281.935487 
L 112.823901 263.611456 
L 113.477953 230.060799 
L 116.094164 68.506863 
L 116.786686 48.046459 
L 117.159167 44.320364 
L 117.372276 44.600326 
L 117.627838 47.249876 
L 118.042011 56.743909 
L 118.696064 83.546685 
L 120.004169 165.537302 
L 121.312275 248.183214 
L 122.254633 283.378961 
L 122.637391 288.787267 
L 122.839833 289.37265 
L 123.024051 288.523539 
L 123.323706 284.358677 
L 123.807553 270.67883 
L 124.461606 240.293182 
L 125.769711 155.367304 
L 127.077817 76.365774 
L 127.895953 49.010483 
L 128.272982 44.503781 
L 128.516634 44.507872 
L 128.760828 46.816307 
L 129.156885 55.336464 
L 129.788847 80.080853 
L 130.4429 117.072832 
L 132.405058 244.523983 
L 133.059111 273.432596 
L 133.593795 286.56611 
L 133.776108 288.614274 
L 133.960094 289.381818 
L 134.13729 288.879311 
L 134.406164 285.804382 
L 134.841477 275.113497 
L 135.49553 247.195318 
L 136.803635 164.222707 
L 138.111741 82.586478 
L 139.022894 49.713408 
L 139.403234 44.675846 
L 139.639875 44.351475 
L 139.859444 45.991255 
L 140.216073 52.560011 
L 140.788258 72.503694 
L 141.442311 107.011 
L 143.404469 235.506689 
L 144.058522 267.44007 
L 144.709798 285.840921 
L 144.880777 288.102628 
L 145.092953 289.346878 
L 145.28877 288.94606 
L 145.550747 286.095011 
L 145.975117 276.031716 
L 146.62917 248.687931 
L 147.937276 166.213842 
L 149.245381 84.044534 
L 150.170951 50.012322 
L 150.552702 44.756798 
L 150.76217 44.253282 
L 150.956494 45.30798 
L 151.272476 50.110775 
L 151.781851 65.494059 
L 152.435903 97.121997 
L 155.052114 260.341048 
L 155.822721 284.977878 
L 156.197941 289.181797 
L 156.429861 289.062301 
L 156.678428 286.625066 
L 157.081461 277.735625 
L 157.723868 252.108975 
L 158.37792 214.710441 
L 160.340079 87.555322 
L 160.994131 59.206332 
L 161.508151 46.920063 
L 161.861108 44.226093 
L 162.041594 44.712781 
L 162.30925 47.74764 
L 162.742633 58.326566 
L 163.396686 86.143889 
L 164.704791 169.030095 
L 166.012897 250.761986 
L 166.925432 283.814735 
L 167.306131 288.908176 
L 167.541986 289.265751 
L 167.758957 287.690886 
L 168.111413 281.315022 
L 168.677202 261.859042 
L 169.331254 227.632847 
L 171.293413 99.089752 
L 171.947465 66.850749 
L 172.611045 47.846198 
L 172.780798 45.564383 
L 172.991493 44.27202 
L 173.192152 44.641564 
L 173.452334 47.435572 
L 173.873853 57.33815 
L 174.527906 84.531191 
L 175.836012 166.871904 
L 177.144117 249.176457 
L 178.074386 283.532752 
L 178.456417 288.830914 
L 178.66392 289.358024 
L 178.855417 288.362484 
L 179.166835 283.742164 
L 179.66909 268.8429 
L 180.323143 237.55743 
L 182.939354 74.116331 
L 183.723274 48.731426 
L 184.098989 44.443683 
L 184.334171 44.532267 
L 184.581523 46.933403 
L 184.982618 55.719542 
L 185.622128 81.100206 
L 186.276181 118.386818 
L 188.238339 245.627493 
L 188.892392 274.132644 
L 189.412152 286.651657 
L 189.764962 289.376084 
L 189.946953 288.896943 
L 190.214052 285.880351 
L 190.646551 275.352515 
L 191.300603 247.581442 
L 192.608709 164.735025 
L 193.916814 82.959559 
L 194.829984 49.82447 
L 195.210848 44.705428 
L 195.446343 44.332742 
L 195.662125 45.878272 
L 196.012672 52.166745 
L 196.575529 71.400955 
L 197.229582 105.49738 
L 199.19174 234.058106 
L 199.845793 266.435996 
L 200.515 285.719671 
L 200.68419 288.010525 
L 200.894205 289.324691 
L 201.097086 288.970168 
L 201.356444 286.202176 
L 201.776653 276.373011 
L 202.430706 249.249342 
L 203.738812 166.970358 
L 205.046917 84.604204 
L 205.979344 50.098735 
L 206.361504 44.780969 
L 206.568104 44.243206 
L 206.758303 45.212012 
L 207.067625 49.74959 
L 207.566605 64.428536 
L 208.220657 95.555437 
L 210.836868 259.092294 
L 211.626897 284.823935 
L 212.002842 289.15039 
L 212.239528 289.076352 
L 212.48632 286.691773 
L 212.886521 277.953067 
L 213.524694 252.685559 
L 214.178747 215.450801 
L 216.140905 88.171548 
L 216.794958 59.594596 
L 217.317365 46.967619 
L 217.500847 44.944328 
L 217.689481 44.218183 
L 217.859994 44.750004 
L 218.131342 47.907051 
L 218.570573 58.826892 
L 219.224626 86.949212 
L 220.532732 170.095226 
L 221.840837 251.535084 
L 222.749189 284.043908 
L 223.128808 288.968144 
L 223.388388 289.139653 
L 223.62663 287.001691 
L 224.013178 278.973373 
L 224.630835 255.416739 
L 225.284888 218.995193 
L 227.247046 91.194008 
L 227.901099 61.533971 
L 228.463944 47.203817 
L 228.816832 44.248854 
L 229.009427 44.669379 
L 229.272598 47.558656 
L 229.698865 57.72947 
L 230.352918 85.173253 
L 231.661024 167.73524 
L 232.969129 249.813775 
L 233.891572 283.631056 
L 234.273138 288.858266 
L 234.507117 289.29408 
L 234.717892 287.869674 
L 235.060386 281.943589 
L 235.610857 263.634478 
L 236.264909 230.092949 
L 238.88112 68.529297 
L 239.574028 48.049176 
L 239.946521 44.320776 
L 240.159721 44.60003 
L 240.415249 47.248529 
L 240.829369 56.739581 
L 241.483421 83.539472 
L 242.791527 165.527476 
L 244.099632 248.175864 
L 245.042079 283.37782 
L 245.424843 288.78694 
L 245.627248 289.372739 
L 245.811412 288.524675 
L 246.110981 284.363089 
L 246.594692 270.692076 
L 247.248744 240.313151 
L 248.55685 155.392147 
L 249.864955 76.382619 
L 250.683343 49.012585 
L 251.060382 44.504253 
L 251.304096 44.507695 
L 251.548267 46.815448 
L 251.944287 55.333646 
L 252.576193 80.073334 
L 253.230245 117.063108 
L 255.192404 244.515755 
L 255.846456 273.427347 
L 256.381252 286.56547 
L 256.563554 288.613856 
L 256.747498 289.38176 
L 256.924754 288.879534 
L 257.193606 285.805343 
L 257.628883 275.116515 
L 258.282936 247.200185 
L 259.591042 164.229152 
L 260.899147 82.591163 
L 261.810325 49.714799 
L 262.190672 44.676212 
L 262.427299 44.351231 
L 262.64682 45.989809 
L 263.003373 52.555003 
L 263.575441 72.489701 
L 264.229493 106.991879 
L 266.191652 235.488548 
L 266.845704 267.427562 
L 267.497207 285.839411 
L 267.668163 288.101492 
L 267.880311 289.34663 
L 268.076217 288.946367 
L 268.338161 286.096366 
L 268.76248 276.036024 
L 269.416533 248.694994 
L 270.724638 166.223334 
L 272.032743 84.051536 
L 272.958399 50.013402 
L 273.340156 44.757098 
L 273.549588 44.253145 
L 273.74386 45.306749 
L 274.059759 50.106176 
L 274.569003 65.480548 
L 275.223056 97.102252 
L 277.839267 260.325534 
L 278.610117 284.975971 
L 278.985346 289.181418 
L 279.217325 289.062478 
L 279.46587 286.625905 
L 279.868868 277.738355 
L 280.511222 252.116202 
L 281.165274 214.719704 
L 283.127433 87.563001 
L 283.781485 59.211155 
L 284.29561 46.920655 
L 284.648504 44.226177 
L 284.829055 44.712541 
L 285.096687 47.746604 
L 285.530031 58.323304 
L 286.184084 86.138617 
L 287.49219 169.023094 
L 288.800295 250.756884 
L 289.712858 283.813215 
L 290.093564 288.90777 
L 290.329403 289.266003 
L 290.546323 287.69242 
L 290.898696 281.32037 
L 291.464357 261.87406 
L 292.11841 227.653497 
L 294.080568 99.109582 
L 294.734621 66.864522 
L 295.398445 47.847862 
L 295.568174 45.565651 
L 295.77884 44.272337 
L 295.979595 44.641236 
L 296.239741 47.43411 
L 296.661203 57.333492 
L 297.315256 84.52352 
L 298.623362 166.861556 
L 299.931467 249.168793 
L 300.86183 283.531568 
L 301.243867 288.830582 
L 301.45133 289.358158 
L 301.642771 288.363785 
L 301.954098 283.747076 
L 302.456211 268.857415 
L 303.110263 237.578821 
L 305.726474 74.133478 
L 306.51066 48.733542 
L 306.886385 44.444119 
L 307.121633 44.532076 
L 307.36896 46.932491 
L 307.770016 55.716568 
L 308.409468 81.092316 
L 309.063521 118.37668 
L 311.025679 245.619041 
L 311.679732 274.127312 
L 312.199607 286.651005 
L 312.552468 289.376089 
L 312.734455 288.896929 
L 313.001556 285.880289 
L 313.434057 275.352319 
L 314.08811 247.581126 
L 315.396215 164.734604 
L 316.70432 82.959252 
L 317.617488 49.824379 
L 317.998352 44.705403 
L 318.233848 44.332757 
L 318.449633 45.878364 
L 318.800185 52.167064 
L 319.36305 71.401853 
L 320.017103 105.498619 
L 321.979261 234.059302 
L 322.633314 266.436829 
L 323.302506 285.719772 
L 323.471697 288.010602 
L 323.681715 289.324712 
L 323.88459 288.970149 
L 324.14395 286.202089 
L 324.564162 276.372732 
L 325.218215 249.248881 
L 326.526321 166.969734 
L 327.834426 84.603742 
L 328.766847 50.098663 
L 329.149007 44.780949 
L 329.355609 44.243214 
L 329.545812 45.212089 
L 329.855139 49.749883 
L 330.354128 64.429404 
L 331.00818 95.556721 
L 333.624391 259.093333 
L 334.414404 284.824063 
L 334.790348 289.150417 
L 335.02703 289.076341 
L 335.273823 286.691719 
L 335.674028 277.952888 
L 336.312204 252.685083 
L 336.966257 215.450189 
L 338.928415 88.171036 
L 339.582468 59.594272 
L 340.104868 46.96758 
L 340.28835 44.944303 
L 340.476987 44.218182 
L 340.647496 44.750019 
L 340.918845 47.907112 
L 341.358079 58.827082 
L 342.012132 86.949518 
L 343.320237 170.095629 
L 344.628343 251.535375 
L 345.536694 284.043994 
L 345.916312 288.968166 
L 346.17589 289.139647 
L 346.414132 287.001659 
L 346.800681 278.973268 
L 347.418341 255.416454 
L 348.072394 218.99482 
L 350.034552 91.193684 
L 350.688605 61.53376 
L 351.251445 47.203791 
L 351.604336 44.248848 
L 351.796929 44.669387 
L 352.060101 47.558692 
L 352.486369 57.729585 
L 353.140422 85.17344 
L 354.448527 167.735491 
L 355.756633 249.81396 
L 356.679073 283.631084 
L 357.060639 288.858274 
L 357.294618 289.294076 
L 357.505394 287.869647 
L 357.84789 281.943495 
L 358.398363 263.634209 
L 359.052416 230.092574 
L 361.668627 68.529035 
L 362.36153 48.049144 
L 362.734023 44.320771 
L 362.947222 44.600034 
L 363.20275 47.248545 
L 363.61687 56.739632 
L 364.270923 83.539557 
L 365.579029 165.527591 
L 366.887134 248.17595 
L 367.82958 283.377833 
L 368.212344 288.786944 
L 368.414749 289.372738 
L 368.598914 288.524662 
L 368.898483 284.363038 
L 369.382196 270.691921 
L 370.036249 240.312917 
L 371.344354 155.391856 
L 372.652459 76.382422 
L 373.470844 49.01256 
L 373.847883 44.504247 
L 374.091597 44.507697 
L 374.335768 46.815458 
L 374.731788 55.333679 
L 375.363695 80.073422 
L 376.017747 117.063221 
L 377.979905 244.515851 
L 378.633958 273.427408 
L 379.168752 286.565477 
L 379.351054 288.613861 
L 379.534999 289.381761 
L 379.712254 288.879532 
L 379.981107 285.805332 
L 380.416384 275.11648 
L 381.070437 247.200128 
L 382.378543 164.229076 
L 383.686648 82.591108 
L 384.597826 49.714782 
L 384.978173 44.676208 
L 385.2148 44.351234 
L 385.434322 45.989826 
L 385.790875 52.555061 
L 386.362944 72.489864 
L 387.016997 106.992103 
L 388.979155 235.48876 
L 389.633208 267.427708 
L 390.284708 285.839429 
L 390.455665 288.101505 
L 390.667813 289.346633 
L 390.863718 288.946363 
L 391.125662 286.09635 
L 391.549981 276.035973 
L 392.204034 248.694912 
L 393.51214 166.223223 
L 394.820245 84.051455 
L 395.7459 50.013389 
L 396.127656 44.757094 
L 396.337089 44.253147 
L 396.531362 45.306764 
L 396.847261 50.10623 
L 397.356507 65.480706 
L 398.01056 97.102483 
L 400.626771 260.325716 
L 401.397618 284.975993 
L 401.772847 289.181423 
L 402.004826 289.062476 
L 402.253371 286.625896 
L 402.656369 277.738323 
L 403.298723 252.116118 
L 403.952776 214.719596 
L 405.914934 87.562911 
L 406.568987 59.211099 
L 407.083111 46.920648 
L 407.436005 44.226176 
L 407.616555 44.712544 
L 407.884188 47.746616 
L 408.317533 58.323342 
L 408.971585 86.138678 
L 410.279691 169.023176 
L 411.587796 250.756944 
L 412.500359 283.813233 
L 412.881065 288.907774 
L 413.116904 289.266 
L 413.333824 287.692402 
L 413.686198 281.320308 
L 414.251861 261.873884 
L 414.905914 227.653256 
L 416.868072 99.10935 
L 417.522125 66.864361 
L 418.185947 47.847842 
L 418.355675 45.565636 
L 418.566341 44.272333 
L 418.767096 44.64124 
L 419.027242 47.434128 
L 419.448705 57.333547 
L 420.102758 84.523609 
L 421.410863 166.861677 
L 422.718969 249.168883 
L 423.649331 283.531582 
L 424.031367 288.830586 
L 424.238831 289.358156 
L 424.430273 288.36377 
L 424.741601 283.747018 
L 425.243715 268.857246 
L 425.897768 237.578571 
L 428.513979 74.133278 
L 429.298161 48.733517 
L 429.673886 44.444114 
L 429.909133 44.532078 
L 430.156461 46.932502 
L 430.557518 55.716603 
L 431.19697 81.092408 
L 431.851023 118.376798 
L 433.813181 245.61914 
L 434.467234 274.127374 
L 434.987108 286.651012 
L 435.339968 289.376089 
L 435.521955 288.896929 
L 435.789056 285.880289 
L 436.221557 275.352322 
L 436.875609 247.581129 
L 438.183715 164.734608 
L 439.49182 82.959256 
L 440.404988 49.82438 
L 440.785852 44.705403 
L 441.021347 44.332757 
L 441.237133 45.878362 
L 441.587684 52.167061 
L 442.15055 71.401843 
L 442.804602 105.498604 
L 444.766761 234.059288 
L 445.420813 266.436819 
L 446.090006 285.719771 
L 446.259197 288.010601 
L 446.469214 289.324711 
L 446.67209 288.970149 
L 446.93145 286.20209 
L 447.351662 276.372735 
L 448.005715 249.248886 
L 449.313821 166.969741 
L 450.621926 84.603747 
L 451.554347 50.098664 
L 451.936507 44.78095 
L 452.143109 44.243213 
L 452.333312 45.212088 
L 452.642639 49.749879 
L 453.141627 64.429394 
L 453.79568 95.556706 
L 456.411891 259.093321 
L 457.201904 284.824062 
L 457.577848 289.150416 
L 457.81453 289.076341 
L 458.061323 286.691719 
L 458.461528 277.95289 
L 459.099704 252.685089 
L 459.753757 215.450196 
L 461.715915 88.171042 
L 462.369968 59.594276 
L 462.892368 46.96758 
L 463.07585 44.944303 
L 463.264487 44.218182 
L 463.434996 44.750018 
L 463.706345 47.907111 
L 464.145579 58.82708 
L 464.799632 86.949515 
L 466.107737 170.095624 
L 467.415843 251.535372 
L 468.324194 284.043993 
L 468.703812 288.968166 
L 468.96339 289.139647 
L 469.201632 287.001659 
L 469.588181 278.973269 
L 470.205841 255.416458 
L 470.859894 218.994825 
L 472.822052 91.193687 
L 473.476105 61.533762 
L 474.038945 47.203791 
L 474.391836 44.248848 
L 474.584429 44.669387 
L 474.847601 47.558692 
L 475.273869 57.729583 
L 475.927922 85.173438 
L 477.236027 167.735488 
L 478.544133 249.813958 
L 479.466573 283.631084 
L 479.848139 288.858273 
L 480.082118 289.294076 
L 480.292894 287.869648 
L 480.63539 281.943496 
L 481.185863 263.634212 
L 481.839916 230.092578 
L 484.456127 68.529038 
L 485.14903 48.049145 
L 485.521523 44.320771 
L 485.734722 44.600034 
L 485.99025 47.248545 
L 486.40437 56.739631 
L 487.058423 83.539556 
L 488.366529 165.527589 
L 489.674634 248.175949 
L 490.61708 283.377833 
L 490.999844 288.786944 
L 491.202249 289.372738 
L 491.386414 288.524662 
L 491.685983 284.363038 
L 492.169696 270.691923 
L 492.823748 240.31292 
L 494.131854 155.39186 
L 495.439959 76.382425 
L 496.258344 49.01256 
L 496.635383 44.504247 
L 496.879097 44.507697 
L 497.123268 46.815458 
L 497.519288 55.333679 
L 498.151195 80.073421 
L 498.805247 117.06322 
L 500.767405 244.51585 
L 501.421458 273.427408 
L 501.956252 286.565477 
L 502.138554 288.613861 
L 502.322499 289.381761 
L 502.499754 288.879532 
L 502.768607 285.805332 
L 503.203884 275.116481 
L 503.857937 247.200128 
L 505.166043 164.229077 
L 506.474148 82.591109 
L 507.385326 49.714783 
L 507.765673 44.676208 
L 508.0023 44.351233 
L 508.221822 45.989826 
L 508.578375 52.55506 
L 509.150444 72.489862 
L 509.804497 106.9921 
L 511.766655 235.488757 
L 512.420708 267.427706 
L 513.072208 285.839428 
L 513.243165 288.101505 
L 513.455313 289.346633 
L 513.651218 288.946363 
L 513.913162 286.09635 
L 514.337481 276.035974 
L 514.991534 248.694913 
L 516.29964 166.223224 
L 517.607745 84.051456 
L 518.5334 50.01339 
L 518.915156 44.757094 
L 519.124589 44.253147 
L 519.318862 45.306764 
L 519.634761 50.106229 
L 520.144007 65.480704 
L 520.79806 97.102481 
L 523.414271 260.325714 
L 524.185118 284.975993 
L 524.560347 289.181423 
L 524.792326 289.062476 
L 525.040871 286.625896 
L 525.443869 277.738324 
L 526.086223 252.116119 
L 526.740276 214.719597 
L 528.702434 87.562912 
L 529.356487 59.2111 
L 529.870611 46.920648 
L 530.223505 44.226176 
L 530.404055 44.712544 
L 530.671688 47.746616 
L 531.105033 58.323342 
L 531.759085 86.138678 
L 533.067191 169.023175 
L 534.375296 250.756943 
L 535.287859 283.813233 
L 535.668565 288.907774 
L 535.904404 289.266 
L 536.121324 287.692402 
L 536.473698 281.320309 
L 537.039361 261.873886 
L 537.693414 227.653259 
L 539.655572 99.109353 
L 540.309625 66.864363 
L 540.973447 47.847842 
L 541.143175 45.565636 
L 541.353841 44.272333 
L 541.554596 44.64124 
L 541.814742 47.434127 
L 542.236205 57.333546 
L 542.890258 84.523608 
L 544.198363 166.861675 
L 545.506469 249.168882 
L 546.436831 283.531582 
L 546.818867 288.830586 
L 547.026331 289.358156 
L 547.217773 288.36377 
L 547.529101 283.747019 
L 548.031215 268.857247 
L 548.685268 237.578574 
L 551.301479 74.13328 
L 552.085661 48.733518 
L 552.461386 44.444114 
L 552.696633 44.532078 
L 552.943961 46.932502 
L 553.345018 55.716602 
L 553.98447 81.092407 
L 554.638523 118.376797 
L 556.600681 245.619139 
L 557.254734 274.127373 
L 557.774608 286.651012 
L 558.127468 289.376089 
L 558.309455 288.896929 
L 558.576556 285.880289 
L 559.009057 275.352322 
L 559.663109 247.581129 
L 560.971215 164.734608 
L 562.27932 82.959256 
L 563.192488 49.82438 
L 563.573352 44.705403 
L 563.808847 44.332757 
L 564.024633 45.878363 
L 564.375184 52.167061 
L 564.93805 71.401843 
L 565.592102 105.498604 
L 567.554261 234.059288 
L 568.208313 266.43682 
L 568.877506 285.719771 
L 569.046697 288.010601 
L 569.256714 289.324711 
L 569.45959 288.970149 
L 569.71895 286.20209 
L 570.139162 276.372735 
L 570.793215 249.248886 
L 572.101321 166.969741 
L 573.409426 84.603747 
L 574.341847 50.098664 
L 574.724007 44.78095 
L 574.930609 44.243213 
L 575.120812 45.212088 
L 575.430139 49.749879 
L 575.929127 64.429394 
L 576.58318 95.556707 
L 579.199391 259.093321 
L 579.989404 284.824062 
L 580.365348 289.150416 
L 580.60203 289.076341 
L 580.848823 286.691719 
L 581.249028 277.95289 
L 581.887204 252.685089 
L 582.541257 215.450196 
L 584.503415 88.171042 
L 585.157468 59.594276 
L 585.679868 46.96758 
L 585.86335 44.944303 
L 586.051987 44.218182 
L 586.222496 44.750018 
L 586.493845 47.907111 
L 586.933079 58.82708 
L 587.587132 86.949515 
L 588.895237 170.095624 
L 590.203343 251.535372 
L 591.111694 284.043993 
L 591.491312 288.968166 
L 591.75089 289.139647 
L 591.989132 287.001659 
L 592.375681 278.973269 
L 592.993341 255.416458 
L 593.647394 218.994825 
L 595.609552 91.193687 
L 596.263605 61.533762 
L 596.826445 47.203791 
L 597.179336 44.248848 
L 597.371929 44.669387 
L 597.635101 47.558692 
L 598.061369 57.729583 
L 598.715422 85.173438 
L 600.023527 167.735488 
L 601.331633 249.813958 
L 602.254073 283.631084 
L 602.635639 288.858273 
L 602.869618 289.294076 
L 603.080394 287.869648 
L 603.42289 281.943496 
L 603.973363 263.634212 
L 604.627416 230.092578 
L 607.243627 68.529038 
L 607.93653 48.049145 
L 608.309023 44.320771 
L 608.522222 44.600034 
L 608.77775 47.248545 
L 609.19187 56.739631 
L 609.845923 83.539556 
L 611.154029 165.527589 
L 612.462134 248.175949 
L 613.40458 283.377833 
L 613.787344 288.786944 
L 613.989749 289.372738 
L 614.173914 288.524662 
L 614.473483 284.363038 
L 614.957196 270.691923 
L 615.611248 240.31292 
L 616.919354 155.39186 
L 618.227459 76.382425 
L 619.045844 49.01256 
L 619.422883 44.504247 
L 619.666597 44.507697 
L 619.910768 46.815458 
L 620.306788 55.333679 
L 620.938695 80.073421 
L 621.592747 117.06322 
L 623.554905 244.51585 
L 624.208958 273.427408 
L 624.743752 286.565477 
L 624.926054 288.613861 
L 625.109999 289.381761 
L 625.287254 288.879532 
L 625.556107 285.805332 
L 625.991384 275.116481 
L 626.645437 247.200128 
L 627.953543 164.229077 
L 629.261648 82.591109 
L 630.172826 49.714783 
L 630.553173 44.676208 
L 630.7898 44.351233 
L 631.009322 45.989826 
L 631.365875 52.55506 
L 631.937944 72.489862 
L 632.591997 106.9921 
L 634.554155 235.488757 
L 635.208208 267.427706 
L 635.859708 285.839428 
L 636.030665 288.101505 
L 636.242813 289.346633 
L 636.438718 288.946363 
L 636.700662 286.09635 
L 637.124981 276.035974 
L 637.779034 248.694913 
L 639.08714 166.223224 
L 640.395245 84.051456 
L 641.3209 50.01339 
L 641.702656 44.757094 
L 641.912089 44.253147 
L 642.106362 45.306764 
L 642.422261 50.106229 
L 642.931507 65.480704 
L 643.58556 97.102481 
L 646.201771 260.325714 
L 646.972618 284.975993 
L 647.347847 289.181423 
L 647.579826 289.062476 
L 647.828371 286.625896 
L 648.231369 277.738324 
L 648.873723 252.116119 
L 649.527776 214.719597 
L 651.489934 87.562912 
L 652.143987 59.2111 
L 652.658111 46.920648 
L 653.011005 44.226176 
L 653.191555 44.712544 
L 653.459188 47.746616 
L 653.892533 58.323342 
L 654.546585 86.138678 
L 655.854691 169.023175 
L 657.162796 250.756943 
L 658.075359 283.813233 
L 658.456065 288.907774 
L 658.691904 289.266 
L 658.908824 287.692402 
L 659.261198 281.320309 
L 659.826861 261.873886 
L 660.480914 227.653259 
L 662.443072 99.109353 
L 663.097125 66.864363 
L 663.760947 47.847842 
L 663.930675 45.565636 
L 664.141341 44.272333 
L 664.342096 44.64124 
L 664.602242 47.434127 
L 665.023705 57.333546 
L 665.677758 84.523608 
L 666.985863 166.861675 
L 668.293969 249.168882 
L 669.224331 283.531582 
L 669.606367 288.830586 
L 669.813831 289.358156 
L 670.005273 288.36377 
L 670.316601 283.747019 
L 670.818715 268.857247 
L 671.472768 237.578574 
L 674.088979 74.13328 
L 674.873161 48.733518 
L 675.248886 44.444114 
L 675.484133 44.532078 
L 675.731461 46.932502 
L 676.132518 55.716602 
L 676.77197 81.092407 
L 677.426023 118.376797 
L 679.388181 245.619139 
L 680.042234 274.127373 
L 680.562108 286.651012 
L 680.914968 289.376089 
L 681.096955 288.896929 
L 681.364056 285.880289 
L 681.796557 275.352322 
L 682.450609 247.581129 
L 683.758715 164.734608 
L 685.06682 82.959256 
L 685.979988 49.82438 
L 686.360852 44.705403 
L 686.596347 44.332757 
L 686.812133 45.878363 
L 687.162684 52.167061 
L 687.72555 71.401843 
L 688.379602 105.498604 
L 690.341761 234.059288 
L 690.995813 266.43682 
L 691.665006 285.719771 
L 691.834197 288.010601 
L 692.044214 289.324711 
L 692.24709 288.970149 
L 692.50645 286.20209 
L 692.926662 276.372735 
L 693.580715 249.248886 
L 694.888821 166.969741 
L 696.196926 84.603747 
L 697.129347 50.098664 
L 697.511507 44.78095 
L 697.718109 44.243213 
L 697.908312 45.212088 
L 698.217639 49.749879 
L 698.716627 64.429394 
L 699.37068 95.556707 
L 701.986891 259.093321 
L 702.776904 284.824062 
L 703.152848 289.150416 
L 703.38953 289.076341 
L 703.636323 286.691719 
L 704.036528 277.95289 
L 704.674704 252.685089 
L 705.328757 215.450196 
L 707.290915 88.171042 
L 707.944968 59.594276 
L 708.467368 46.96758 
L 708.65085 44.944303 
L 708.839487 44.218182 
L 709.009996 44.750018 
L 709.281345 47.907111 
L 709.720579 58.82708 
L 710.374632 86.949515 
L 711.682737 170.095624 
L 712.990843 251.535372 
L 713.899194 284.043993 
L 714.278812 288.968166 
L 714.53839 289.139647 
L 714.776632 287.001659 
L 715.163181 278.973269 
L 715.780841 255.416458 
L 716.434894 218.994825 
L 718.397052 91.193687 
L 719.051105 61.533762 
L 719.613945 47.203791 
L 719.966836 44.248848 
L 720.159429 44.669387 
L 720.422601 47.558692 
L 720.848869 57.729583 
L 721.502922 85.173438 
L 722.811027 167.735488 
L 724.119133 249.813958 
L 725.041573 283.631084 
L 725.423139 288.858273 
L 725.657118 289.294076 
L 725.867894 287.869648 
L 726.21039 281.943496 
L 726.760863 263.634212 
L 727.414916 230.092578 
L 730.031127 68.529038 
L 730.72403 48.049145 
L 731.096523 44.320771 
L 731.309722 44.600034 
L 731.56525 47.248545 
L 731.97937 56.739631 
L 732.633423 83.539556 
L 733.941529 165.527589 
L 735.249634 248.175949 
L 736.19208 283.377833 
L 736.574844 288.786944 
L 736.777249 289.372738 
L 736.961414 288.524662 
L 737.260983 284.363038 
L 737.744696 270.691923 
L 738.398748 240.31292 
L 739.706854 155.39186 
L 741.014959 76.382425 
L 741.833344 49.01256 
L 742.210383 44.504247 
L 742.454097 44.507697 
L 742.698268 46.815458 
L 743.094288 55.333679 
L 743.726195 80.073421 
L 744.380247 117.06322 
L 746.342405 244.51585 
L 746.996458 273.427408 
L 747.531252 286.565477 
L 747.713554 288.613861 
L 747.897499 289.381761 
L 748.074754 288.879532 
L 748.343607 285.805332 
L 748.778884 275.116481 
L 749.432937 247.200128 
L 750.741043 164.229077 
L 752.049148 82.591109 
L 752.960326 49.714783 
L 753.340673 44.676208 
L 753.5773 44.351233 
L 753.796822 45.989826 
L 754.153375 52.55506 
L 754.725444 72.489862 
L 755.379497 106.9921 
L 757.341655 235.488757 
L 757.995708 267.427706 
L 758.647208 285.839428 
L 758.818165 288.101505 
L 759.030313 289.346633 
L 759.226218 288.946363 
L 759.488162 286.09635 
L 759.912481 276.035974 
L 760.566534 248.694913 
L 761.87464 166.223224 
L 763.182745 84.051456 
L 764.1084 50.01339 
L 764.490156 44.757094 
L 764.699589 44.253147 
L 764.893862 45.306764 
L 765.209761 50.106229 
L 765.719007 65.480704 
L 766.37306 97.102481 
L 767.4475 166.80211 
L 767.4475 166.80211 
" style="fill:none;stroke:#d62728;stroke-linecap:square;stroke-width:1.5;"/>
   </g>
   <g id="patch_7">
    <path d="M 64.21 301.64 
L 64.21 31.96 
" style="fill:none;stroke:#000000;stroke-linecap:square;stroke-linejoin:miter;stroke-width:0.8;"/>
   </g>
   <g id="patch_8">
    <path d="M 800.935 301.64 
L 800.935 31.96 
" style="fill:none;stroke:#000000;stroke-linecap:square;stroke-linejoin:miter;stroke-width:0.8;"/>
   </g>
   <g id="patch_9">
    <path d="M 64.21 301.64 
L 800.935 301.64 
" style="fill:none;stroke:#000000;stroke-linecap:square;stroke-linejoin:miter;stroke-width:0.8;"/>
   </g>
   <g id="patch_10">
    <path d="M 64.21 31.96 
L 800.935 31.96 
" style="fill:none;stroke:#000000;stroke-linecap:square;stroke-linejoin:miter;stroke-width:0.8;"/>
   </g>
  </g>
 </g>
 <defs>
  <clipPath id="p17762df382">
   <rect height="269.68" width="736.725" x="64.21" y="31.96"/>
  </clipPath>
 </defs>
</svg>
