<?xml version="1.0" encoding="utf-8" standalone="no"?>
<!DOCTYPE svg PUBLIC "-//W3C//DTD SVG 1.1//EN"
  "http://www.w3.org/Graphics/SVG/1.1/DTD/svg11.dtd">
<!-- Created with matplotlib (https://matplotlib.org/) -->
<svg height="316.035875pt" version="1.1" viewBox="0 0 705.276062 316.035875" width="705.276062pt" xmlns="http://www.w3.org/2000/svg" xmlns:xlink="http://www.w3.org/1999/xlink">
 <metadata>
  <rdf:RDF xmlns:cc="http://creativecommons.org/ns#" xmlns:dc="http://purl.org/dc/elements/1.1/" xmlns:rdf="http://www.w3.org/1999/02/22-rdf-syntax-ns#">
   <cc:Work>
    <dc:type rdf:resource="http://purl.org/dc/dcmitype/StillImage"/>
    <dc:date>2021-01-02T20:45:11.653837</dc:date>
    <dc:format>image/svg+xml</dc:format>
    <dc:creator>
     <cc:Agent>
      <dc:title>Matplotlib v3.3.3, https://matplotlib.org/</dc:title>
     </cc:Agent>
    </dc:creator>
   </cc:Work>
  </rdf:RDF>
 </metadata>
 <defs>
  <style type="text/css">*{stroke-linecap:butt;stroke-linejoin:round;}</style>
 </defs>
 <g id="figure_1">
  <g id="patch_1">
   <path d="M 0 316.035875 
L 705.276062 316.035875 
L 705.276062 0 
L 0 0 
z
" style="fill:none;"/>
  </g>
  <g id="axes_1">
   <g id="patch_2">
    <path d="M 67.335625 276.544 
L 662.432625 276.544 
L 662.432625 24.144 
L 67.335625 24.144 
z
" style="fill:#ffffff;"/>
   </g>
   <g id="matplotlib.axis_1">
    <g id="xtick_1">
     <g id="line2d_1">
      <path clip-path="url(#pf29254de78)" d="M 94.331459 276.544 
L 94.331459 24.144 
" style="fill:none;stroke:#b0b0b0;stroke-linecap:square;stroke-width:0.8;"/>
     </g>
     <g id="line2d_2">
      <defs>
       <path d="M 0 0 
L 0 3.5 
" id="me0b1e340e1" style="stroke:#000000;stroke-width:0.8;"/>
      </defs>
      <g>
       <use style="stroke:#000000;stroke-width:0.8;" x="94.331459" xlink:href="#me0b1e340e1" y="276.544"/>
      </g>
     </g>
     <g id="text_1">
      <!-- 6.5 -->
      <g transform="translate(85.584741 291.902281)scale(0.11 -0.11)">
       <defs>
        <path d="M 33.015625 40.375 
Q 26.375 40.375 22.484375 35.828125 
Q 18.609375 31.296875 18.609375 23.390625 
Q 18.609375 15.53125 22.484375 10.953125 
Q 26.375 6.390625 33.015625 6.390625 
Q 39.65625 6.390625 43.53125 10.953125 
Q 47.40625 15.53125 47.40625 23.390625 
Q 47.40625 31.296875 43.53125 35.828125 
Q 39.65625 40.375 33.015625 40.375 
z
M 52.59375 71.296875 
L 52.59375 62.3125 
Q 48.875 64.0625 45.09375 64.984375 
Q 41.3125 65.921875 37.59375 65.921875 
Q 27.828125 65.921875 22.671875 59.328125 
Q 17.53125 52.734375 16.796875 39.40625 
Q 19.671875 43.65625 24.015625 45.921875 
Q 28.375 48.1875 33.59375 48.1875 
Q 44.578125 48.1875 50.953125 41.515625 
Q 57.328125 34.859375 57.328125 23.390625 
Q 57.328125 12.15625 50.6875 5.359375 
Q 44.046875 -1.421875 33.015625 -1.421875 
Q 20.359375 -1.421875 13.671875 8.265625 
Q 6.984375 17.96875 6.984375 36.375 
Q 6.984375 53.65625 15.1875 63.9375 
Q 23.390625 74.21875 37.203125 74.21875 
Q 40.921875 74.21875 44.703125 73.484375 
Q 48.484375 72.75 52.59375 71.296875 
z
" id="DejaVuSans-54"/>
        <path d="M 10.6875 12.40625 
L 21 12.40625 
L 21 0 
L 10.6875 0 
z
" id="DejaVuSans-46"/>
        <path d="M 10.796875 72.90625 
L 49.515625 72.90625 
L 49.515625 64.59375 
L 19.828125 64.59375 
L 19.828125 46.734375 
Q 21.96875 47.46875 24.109375 47.828125 
Q 26.265625 48.1875 28.421875 48.1875 
Q 40.625 48.1875 47.75 41.5 
Q 54.890625 34.8125 54.890625 23.390625 
Q 54.890625 11.625 47.5625 5.09375 
Q 40.234375 -1.421875 26.90625 -1.421875 
Q 22.3125 -1.421875 17.546875 -0.640625 
Q 12.796875 0.140625 7.71875 1.703125 
L 7.71875 11.625 
Q 12.109375 9.234375 16.796875 8.0625 
Q 21.484375 6.890625 26.703125 6.890625 
Q 35.15625 6.890625 40.078125 11.328125 
Q 45.015625 15.765625 45.015625 23.390625 
Q 45.015625 31 40.078125 35.4375 
Q 35.15625 39.890625 26.703125 39.890625 
Q 22.75 39.890625 18.8125 39.015625 
Q 14.890625 38.140625 10.796875 36.28125 
z
" id="DejaVuSans-53"/>
       </defs>
       <use xlink:href="#DejaVuSans-54"/>
       <use x="63.623047" xlink:href="#DejaVuSans-46"/>
       <use x="95.410156" xlink:href="#DejaVuSans-53"/>
      </g>
     </g>
    </g>
    <g id="xtick_2">
     <g id="line2d_3">
      <path clip-path="url(#pf29254de78)" d="M 202.379328 276.544 
L 202.379328 24.144 
" style="fill:none;stroke:#b0b0b0;stroke-linecap:square;stroke-width:0.8;"/>
     </g>
     <g id="line2d_4">
      <g>
       <use style="stroke:#000000;stroke-width:0.8;" x="202.379328" xlink:href="#me0b1e340e1" y="276.544"/>
      </g>
     </g>
     <g id="text_2">
      <!-- 7.0 -->
      <g transform="translate(193.632609 291.902281)scale(0.11 -0.11)">
       <defs>
        <path d="M 8.203125 72.90625 
L 55.078125 72.90625 
L 55.078125 68.703125 
L 28.609375 0 
L 18.3125 0 
L 43.21875 64.59375 
L 8.203125 64.59375 
z
" id="DejaVuSans-55"/>
        <path d="M 31.78125 66.40625 
Q 24.171875 66.40625 20.328125 58.90625 
Q 16.5 51.421875 16.5 36.375 
Q 16.5 21.390625 20.328125 13.890625 
Q 24.171875 6.390625 31.78125 6.390625 
Q 39.453125 6.390625 43.28125 13.890625 
Q 47.125 21.390625 47.125 36.375 
Q 47.125 51.421875 43.28125 58.90625 
Q 39.453125 66.40625 31.78125 66.40625 
z
M 31.78125 74.21875 
Q 44.046875 74.21875 50.515625 64.515625 
Q 56.984375 54.828125 56.984375 36.375 
Q 56.984375 17.96875 50.515625 8.265625 
Q 44.046875 -1.421875 31.78125 -1.421875 
Q 19.53125 -1.421875 13.0625 8.265625 
Q 6.59375 17.96875 6.59375 36.375 
Q 6.59375 54.828125 13.0625 64.515625 
Q 19.53125 74.21875 31.78125 74.21875 
z
" id="DejaVuSans-48"/>
       </defs>
       <use xlink:href="#DejaVuSans-55"/>
       <use x="63.623047" xlink:href="#DejaVuSans-46"/>
       <use x="95.410156" xlink:href="#DejaVuSans-48"/>
      </g>
     </g>
    </g>
    <g id="xtick_3">
     <g id="line2d_5">
      <path clip-path="url(#pf29254de78)" d="M 310.427196 276.544 
L 310.427196 24.144 
" style="fill:none;stroke:#b0b0b0;stroke-linecap:square;stroke-width:0.8;"/>
     </g>
     <g id="line2d_6">
      <g>
       <use style="stroke:#000000;stroke-width:0.8;" x="310.427196" xlink:href="#me0b1e340e1" y="276.544"/>
      </g>
     </g>
     <g id="text_3">
      <!-- 7.5 -->
      <g transform="translate(301.680478 291.902281)scale(0.11 -0.11)">
       <use xlink:href="#DejaVuSans-55"/>
       <use x="63.623047" xlink:href="#DejaVuSans-46"/>
       <use x="95.410156" xlink:href="#DejaVuSans-53"/>
      </g>
     </g>
    </g>
    <g id="xtick_4">
     <g id="line2d_7">
      <path clip-path="url(#pf29254de78)" d="M 418.475065 276.544 
L 418.475065 24.144 
" style="fill:none;stroke:#b0b0b0;stroke-linecap:square;stroke-width:0.8;"/>
     </g>
     <g id="line2d_8">
      <g>
       <use style="stroke:#000000;stroke-width:0.8;" x="418.475065" xlink:href="#me0b1e340e1" y="276.544"/>
      </g>
     </g>
     <g id="text_4">
      <!-- 8.0 -->
      <g transform="translate(409.728346 291.902281)scale(0.11 -0.11)">
       <defs>
        <path d="M 31.78125 34.625 
Q 24.75 34.625 20.71875 30.859375 
Q 16.703125 27.09375 16.703125 20.515625 
Q 16.703125 13.921875 20.71875 10.15625 
Q 24.75 6.390625 31.78125 6.390625 
Q 38.8125 6.390625 42.859375 10.171875 
Q 46.921875 13.96875 46.921875 20.515625 
Q 46.921875 27.09375 42.890625 30.859375 
Q 38.875 34.625 31.78125 34.625 
z
M 21.921875 38.8125 
Q 15.578125 40.375 12.03125 44.71875 
Q 8.5 49.078125 8.5 55.328125 
Q 8.5 64.0625 14.71875 69.140625 
Q 20.953125 74.21875 31.78125 74.21875 
Q 42.671875 74.21875 48.875 69.140625 
Q 55.078125 64.0625 55.078125 55.328125 
Q 55.078125 49.078125 51.53125 44.71875 
Q 48 40.375 41.703125 38.8125 
Q 48.828125 37.15625 52.796875 32.3125 
Q 56.78125 27.484375 56.78125 20.515625 
Q 56.78125 9.90625 50.3125 4.234375 
Q 43.84375 -1.421875 31.78125 -1.421875 
Q 19.734375 -1.421875 13.25 4.234375 
Q 6.78125 9.90625 6.78125 20.515625 
Q 6.78125 27.484375 10.78125 32.3125 
Q 14.796875 37.15625 21.921875 38.8125 
z
M 18.3125 54.390625 
Q 18.3125 48.734375 21.84375 45.5625 
Q 25.390625 42.390625 31.78125 42.390625 
Q 38.140625 42.390625 41.71875 45.5625 
Q 45.3125 48.734375 45.3125 54.390625 
Q 45.3125 60.0625 41.71875 63.234375 
Q 38.140625 66.40625 31.78125 66.40625 
Q 25.390625 66.40625 21.84375 63.234375 
Q 18.3125 60.0625 18.3125 54.390625 
z
" id="DejaVuSans-56"/>
       </defs>
       <use xlink:href="#DejaVuSans-56"/>
       <use x="63.623047" xlink:href="#DejaVuSans-46"/>
       <use x="95.410156" xlink:href="#DejaVuSans-48"/>
      </g>
     </g>
    </g>
    <g id="xtick_5">
     <g id="line2d_9">
      <path clip-path="url(#pf29254de78)" d="M 526.522933 276.544 
L 526.522933 24.144 
" style="fill:none;stroke:#b0b0b0;stroke-linecap:square;stroke-width:0.8;"/>
     </g>
     <g id="line2d_10">
      <g>
       <use style="stroke:#000000;stroke-width:0.8;" x="526.522933" xlink:href="#me0b1e340e1" y="276.544"/>
      </g>
     </g>
     <g id="text_5">
      <!-- 8.5 -->
      <g transform="translate(517.776215 291.902281)scale(0.11 -0.11)">
       <use xlink:href="#DejaVuSans-56"/>
       <use x="63.623047" xlink:href="#DejaVuSans-46"/>
       <use x="95.410156" xlink:href="#DejaVuSans-53"/>
      </g>
     </g>
    </g>
    <g id="xtick_6">
     <g id="line2d_11">
      <path clip-path="url(#pf29254de78)" d="M 634.570802 276.544 
L 634.570802 24.144 
" style="fill:none;stroke:#b0b0b0;stroke-linecap:square;stroke-width:0.8;"/>
     </g>
     <g id="line2d_12">
      <g>
       <use style="stroke:#000000;stroke-width:0.8;" x="634.570802" xlink:href="#me0b1e340e1" y="276.544"/>
      </g>
     </g>
     <g id="text_6">
      <!-- 9.0 -->
      <g transform="translate(625.824083 291.902281)scale(0.11 -0.11)">
       <defs>
        <path d="M 10.984375 1.515625 
L 10.984375 10.5 
Q 14.703125 8.734375 18.5 7.8125 
Q 22.3125 6.890625 25.984375 6.890625 
Q 35.75 6.890625 40.890625 13.453125 
Q 46.046875 20.015625 46.78125 33.40625 
Q 43.953125 29.203125 39.59375 26.953125 
Q 35.25 24.703125 29.984375 24.703125 
Q 19.046875 24.703125 12.671875 31.3125 
Q 6.296875 37.9375 6.296875 49.421875 
Q 6.296875 60.640625 12.9375 67.421875 
Q 19.578125 74.21875 30.609375 74.21875 
Q 43.265625 74.21875 49.921875 64.515625 
Q 56.59375 54.828125 56.59375 36.375 
Q 56.59375 19.140625 48.40625 8.859375 
Q 40.234375 -1.421875 26.421875 -1.421875 
Q 22.703125 -1.421875 18.890625 -0.6875 
Q 15.09375 0.046875 10.984375 1.515625 
z
M 30.609375 32.421875 
Q 37.25 32.421875 41.125 36.953125 
Q 45.015625 41.5 45.015625 49.421875 
Q 45.015625 57.28125 41.125 61.84375 
Q 37.25 66.40625 30.609375 66.40625 
Q 23.96875 66.40625 20.09375 61.84375 
Q 16.21875 57.28125 16.21875 49.421875 
Q 16.21875 41.5 20.09375 36.953125 
Q 23.96875 32.421875 30.609375 32.421875 
z
" id="DejaVuSans-57"/>
       </defs>
       <use xlink:href="#DejaVuSans-57"/>
       <use x="63.623047" xlink:href="#DejaVuSans-46"/>
       <use x="95.410156" xlink:href="#DejaVuSans-48"/>
      </g>
     </g>
    </g>
    <g id="text_7">
     <!-- Tiempo (s) -->
     <g transform="translate(335.665375 306.548219)scale(0.11 -0.11)">
      <defs>
       <path d="M -0.296875 72.90625 
L 61.375 72.90625 
L 61.375 64.59375 
L 35.5 64.59375 
L 35.5 0 
L 25.59375 0 
L 25.59375 64.59375 
L -0.296875 64.59375 
z
" id="DejaVuSans-84"/>
       <path d="M 9.421875 54.6875 
L 18.40625 54.6875 
L 18.40625 0 
L 9.421875 0 
z
M 9.421875 75.984375 
L 18.40625 75.984375 
L 18.40625 64.59375 
L 9.421875 64.59375 
z
" id="DejaVuSans-105"/>
       <path d="M 56.203125 29.59375 
L 56.203125 25.203125 
L 14.890625 25.203125 
Q 15.484375 15.921875 20.484375 11.0625 
Q 25.484375 6.203125 34.421875 6.203125 
Q 39.59375 6.203125 44.453125 7.46875 
Q 49.3125 8.734375 54.109375 11.28125 
L 54.109375 2.78125 
Q 49.265625 0.734375 44.1875 -0.34375 
Q 39.109375 -1.421875 33.890625 -1.421875 
Q 20.796875 -1.421875 13.15625 6.1875 
Q 5.515625 13.8125 5.515625 26.8125 
Q 5.515625 40.234375 12.765625 48.109375 
Q 20.015625 56 32.328125 56 
Q 43.359375 56 49.78125 48.890625 
Q 56.203125 41.796875 56.203125 29.59375 
z
M 47.21875 32.234375 
Q 47.125 39.59375 43.09375 43.984375 
Q 39.0625 48.390625 32.421875 48.390625 
Q 24.90625 48.390625 20.390625 44.140625 
Q 15.875 39.890625 15.1875 32.171875 
z
" id="DejaVuSans-101"/>
       <path d="M 52 44.1875 
Q 55.375 50.25 60.0625 53.125 
Q 64.75 56 71.09375 56 
Q 79.640625 56 84.28125 50.015625 
Q 88.921875 44.046875 88.921875 33.015625 
L 88.921875 0 
L 79.890625 0 
L 79.890625 32.71875 
Q 79.890625 40.578125 77.09375 44.375 
Q 74.3125 48.1875 68.609375 48.1875 
Q 61.625 48.1875 57.5625 43.546875 
Q 53.515625 38.921875 53.515625 30.90625 
L 53.515625 0 
L 44.484375 0 
L 44.484375 32.71875 
Q 44.484375 40.625 41.703125 44.40625 
Q 38.921875 48.1875 33.109375 48.1875 
Q 26.21875 48.1875 22.15625 43.53125 
Q 18.109375 38.875 18.109375 30.90625 
L 18.109375 0 
L 9.078125 0 
L 9.078125 54.6875 
L 18.109375 54.6875 
L 18.109375 46.1875 
Q 21.1875 51.21875 25.484375 53.609375 
Q 29.78125 56 35.6875 56 
Q 41.65625 56 45.828125 52.96875 
Q 50 49.953125 52 44.1875 
z
" id="DejaVuSans-109"/>
       <path d="M 18.109375 8.203125 
L 18.109375 -20.796875 
L 9.078125 -20.796875 
L 9.078125 54.6875 
L 18.109375 54.6875 
L 18.109375 46.390625 
Q 20.953125 51.265625 25.265625 53.625 
Q 29.59375 56 35.59375 56 
Q 45.5625 56 51.78125 48.09375 
Q 58.015625 40.1875 58.015625 27.296875 
Q 58.015625 14.40625 51.78125 6.484375 
Q 45.5625 -1.421875 35.59375 -1.421875 
Q 29.59375 -1.421875 25.265625 0.953125 
Q 20.953125 3.328125 18.109375 8.203125 
z
M 48.6875 27.296875 
Q 48.6875 37.203125 44.609375 42.84375 
Q 40.53125 48.484375 33.40625 48.484375 
Q 26.265625 48.484375 22.1875 42.84375 
Q 18.109375 37.203125 18.109375 27.296875 
Q 18.109375 17.390625 22.1875 11.75 
Q 26.265625 6.109375 33.40625 6.109375 
Q 40.53125 6.109375 44.609375 11.75 
Q 48.6875 17.390625 48.6875 27.296875 
z
" id="DejaVuSans-112"/>
       <path d="M 30.609375 48.390625 
Q 23.390625 48.390625 19.1875 42.75 
Q 14.984375 37.109375 14.984375 27.296875 
Q 14.984375 17.484375 19.15625 11.84375 
Q 23.34375 6.203125 30.609375 6.203125 
Q 37.796875 6.203125 41.984375 11.859375 
Q 46.1875 17.53125 46.1875 27.296875 
Q 46.1875 37.015625 41.984375 42.703125 
Q 37.796875 48.390625 30.609375 48.390625 
z
M 30.609375 56 
Q 42.328125 56 49.015625 48.375 
Q 55.71875 40.765625 55.71875 27.296875 
Q 55.71875 13.875 49.015625 6.21875 
Q 42.328125 -1.421875 30.609375 -1.421875 
Q 18.84375 -1.421875 12.171875 6.21875 
Q 5.515625 13.875 5.515625 27.296875 
Q 5.515625 40.765625 12.171875 48.375 
Q 18.84375 56 30.609375 56 
z
" id="DejaVuSans-111"/>
       <path id="DejaVuSans-32"/>
       <path d="M 31 75.875 
Q 24.46875 64.65625 21.28125 53.65625 
Q 18.109375 42.671875 18.109375 31.390625 
Q 18.109375 20.125 21.3125 9.0625 
Q 24.515625 -2 31 -13.1875 
L 23.1875 -13.1875 
Q 15.875 -1.703125 12.234375 9.375 
Q 8.59375 20.453125 8.59375 31.390625 
Q 8.59375 42.28125 12.203125 53.3125 
Q 15.828125 64.359375 23.1875 75.875 
z
" id="DejaVuSans-40"/>
       <path d="M 44.28125 53.078125 
L 44.28125 44.578125 
Q 40.484375 46.53125 36.375 47.5 
Q 32.28125 48.484375 27.875 48.484375 
Q 21.1875 48.484375 17.84375 46.4375 
Q 14.5 44.390625 14.5 40.28125 
Q 14.5 37.15625 16.890625 35.375 
Q 19.28125 33.59375 26.515625 31.984375 
L 29.59375 31.296875 
Q 39.15625 29.25 43.1875 25.515625 
Q 47.21875 21.78125 47.21875 15.09375 
Q 47.21875 7.46875 41.1875 3.015625 
Q 35.15625 -1.421875 24.609375 -1.421875 
Q 20.21875 -1.421875 15.453125 -0.5625 
Q 10.6875 0.296875 5.421875 2 
L 5.421875 11.28125 
Q 10.40625 8.6875 15.234375 7.390625 
Q 20.0625 6.109375 24.8125 6.109375 
Q 31.15625 6.109375 34.5625 8.28125 
Q 37.984375 10.453125 37.984375 14.40625 
Q 37.984375 18.0625 35.515625 20.015625 
Q 33.0625 21.96875 24.703125 23.78125 
L 21.578125 24.515625 
Q 13.234375 26.265625 9.515625 29.90625 
Q 5.8125 33.546875 5.8125 39.890625 
Q 5.8125 47.609375 11.28125 51.796875 
Q 16.75 56 26.8125 56 
Q 31.78125 56 36.171875 55.265625 
Q 40.578125 54.546875 44.28125 53.078125 
z
" id="DejaVuSans-115"/>
       <path d="M 8.015625 75.875 
L 15.828125 75.875 
Q 23.140625 64.359375 26.78125 53.3125 
Q 30.421875 42.28125 30.421875 31.390625 
Q 30.421875 20.453125 26.78125 9.375 
Q 23.140625 -1.703125 15.828125 -13.1875 
L 8.015625 -13.1875 
Q 14.5 -2 17.703125 9.0625 
Q 20.90625 20.125 20.90625 31.390625 
Q 20.90625 42.671875 17.703125 53.65625 
Q 14.5 64.65625 8.015625 75.875 
z
" id="DejaVuSans-41"/>
      </defs>
      <use xlink:href="#DejaVuSans-84"/>
      <use x="57.958984" xlink:href="#DejaVuSans-105"/>
      <use x="85.742188" xlink:href="#DejaVuSans-101"/>
      <use x="147.265625" xlink:href="#DejaVuSans-109"/>
      <use x="244.677734" xlink:href="#DejaVuSans-112"/>
      <use x="308.154297" xlink:href="#DejaVuSans-111"/>
      <use x="369.335938" xlink:href="#DejaVuSans-32"/>
      <use x="401.123047" xlink:href="#DejaVuSans-40"/>
      <use x="440.136719" xlink:href="#DejaVuSans-115"/>
      <use x="492.236328" xlink:href="#DejaVuSans-41"/>
     </g>
    </g>
   </g>
   <g id="matplotlib.axis_2">
    <g id="ytick_1">
     <g id="line2d_13">
      <path clip-path="url(#pf29254de78)" d="M 67.335625 265.0725 
L 662.432625 265.0725 
" style="fill:none;stroke:#b0b0b0;stroke-linecap:square;stroke-width:0.8;"/>
     </g>
     <g id="line2d_14">
      <defs>
       <path d="M 0 0 
L -3.5 0 
" id="mfc18259b5e" style="stroke:#000000;stroke-width:0.8;"/>
      </defs>
      <g>
       <use style="stroke:#000000;stroke-width:0.8;" x="67.335625" xlink:href="#mfc18259b5e" y="265.0725"/>
      </g>
     </g>
     <g id="text_8">
      <!-- 0.0000 -->
      <g transform="translate(21.845938 269.25164)scale(0.11 -0.11)">
       <use xlink:href="#DejaVuSans-48"/>
       <use x="63.623047" xlink:href="#DejaVuSans-46"/>
       <use x="95.410156" xlink:href="#DejaVuSans-48"/>
       <use x="159.033203" xlink:href="#DejaVuSans-48"/>
       <use x="222.65625" xlink:href="#DejaVuSans-48"/>
       <use x="286.279297" xlink:href="#DejaVuSans-48"/>
      </g>
     </g>
    </g>
    <g id="ytick_2">
     <g id="line2d_15">
      <path clip-path="url(#pf29254de78)" d="M 67.335625 227.170725 
L 662.432625 227.170725 
" style="fill:none;stroke:#b0b0b0;stroke-linecap:square;stroke-width:0.8;"/>
     </g>
     <g id="line2d_16">
      <g>
       <use style="stroke:#000000;stroke-width:0.8;" x="67.335625" xlink:href="#mfc18259b5e" y="227.170725"/>
      </g>
     </g>
     <g id="text_9">
      <!-- 0.0005 -->
      <g transform="translate(21.845938 231.349866)scale(0.11 -0.11)">
       <use xlink:href="#DejaVuSans-48"/>
       <use x="63.623047" xlink:href="#DejaVuSans-46"/>
       <use x="95.410156" xlink:href="#DejaVuSans-48"/>
       <use x="159.033203" xlink:href="#DejaVuSans-48"/>
       <use x="222.65625" xlink:href="#DejaVuSans-48"/>
       <use x="286.279297" xlink:href="#DejaVuSans-53"/>
      </g>
     </g>
    </g>
    <g id="ytick_3">
     <g id="line2d_17">
      <path clip-path="url(#pf29254de78)" d="M 67.335625 189.268951 
L 662.432625 189.268951 
" style="fill:none;stroke:#b0b0b0;stroke-linecap:square;stroke-width:0.8;"/>
     </g>
     <g id="line2d_18">
      <g>
       <use style="stroke:#000000;stroke-width:0.8;" x="67.335625" xlink:href="#mfc18259b5e" y="189.268951"/>
      </g>
     </g>
     <g id="text_10">
      <!-- 0.0010 -->
      <g transform="translate(21.845938 193.448092)scale(0.11 -0.11)">
       <defs>
        <path d="M 12.40625 8.296875 
L 28.515625 8.296875 
L 28.515625 63.921875 
L 10.984375 60.40625 
L 10.984375 69.390625 
L 28.421875 72.90625 
L 38.28125 72.90625 
L 38.28125 8.296875 
L 54.390625 8.296875 
L 54.390625 0 
L 12.40625 0 
z
" id="DejaVuSans-49"/>
       </defs>
       <use xlink:href="#DejaVuSans-48"/>
       <use x="63.623047" xlink:href="#DejaVuSans-46"/>
       <use x="95.410156" xlink:href="#DejaVuSans-48"/>
       <use x="159.033203" xlink:href="#DejaVuSans-48"/>
       <use x="222.65625" xlink:href="#DejaVuSans-49"/>
       <use x="286.279297" xlink:href="#DejaVuSans-48"/>
      </g>
     </g>
    </g>
    <g id="ytick_4">
     <g id="line2d_19">
      <path clip-path="url(#pf29254de78)" d="M 67.335625 151.367177 
L 662.432625 151.367177 
" style="fill:none;stroke:#b0b0b0;stroke-linecap:square;stroke-width:0.8;"/>
     </g>
     <g id="line2d_20">
      <g>
       <use style="stroke:#000000;stroke-width:0.8;" x="67.335625" xlink:href="#mfc18259b5e" y="151.367177"/>
      </g>
     </g>
     <g id="text_11">
      <!-- 0.0015 -->
      <g transform="translate(21.845938 155.546318)scale(0.11 -0.11)">
       <use xlink:href="#DejaVuSans-48"/>
       <use x="63.623047" xlink:href="#DejaVuSans-46"/>
       <use x="95.410156" xlink:href="#DejaVuSans-48"/>
       <use x="159.033203" xlink:href="#DejaVuSans-48"/>
       <use x="222.65625" xlink:href="#DejaVuSans-49"/>
       <use x="286.279297" xlink:href="#DejaVuSans-53"/>
      </g>
     </g>
    </g>
    <g id="ytick_5">
     <g id="line2d_21">
      <path clip-path="url(#pf29254de78)" d="M 67.335625 113.465403 
L 662.432625 113.465403 
" style="fill:none;stroke:#b0b0b0;stroke-linecap:square;stroke-width:0.8;"/>
     </g>
     <g id="line2d_22">
      <g>
       <use style="stroke:#000000;stroke-width:0.8;" x="67.335625" xlink:href="#mfc18259b5e" y="113.465403"/>
      </g>
     </g>
     <g id="text_12">
      <!-- 0.0020 -->
      <g transform="translate(21.845938 117.644544)scale(0.11 -0.11)">
       <defs>
        <path d="M 19.1875 8.296875 
L 53.609375 8.296875 
L 53.609375 0 
L 7.328125 0 
L 7.328125 8.296875 
Q 12.9375 14.109375 22.625 23.890625 
Q 32.328125 33.6875 34.8125 36.53125 
Q 39.546875 41.84375 41.421875 45.53125 
Q 43.3125 49.21875 43.3125 52.78125 
Q 43.3125 58.59375 39.234375 62.25 
Q 35.15625 65.921875 28.609375 65.921875 
Q 23.96875 65.921875 18.8125 64.3125 
Q 13.671875 62.703125 7.8125 59.421875 
L 7.8125 69.390625 
Q 13.765625 71.78125 18.9375 73 
Q 24.125 74.21875 28.421875 74.21875 
Q 39.75 74.21875 46.484375 68.546875 
Q 53.21875 62.890625 53.21875 53.421875 
Q 53.21875 48.921875 51.53125 44.890625 
Q 49.859375 40.875 45.40625 35.40625 
Q 44.1875 33.984375 37.640625 27.21875 
Q 31.109375 20.453125 19.1875 8.296875 
z
" id="DejaVuSans-50"/>
       </defs>
       <use xlink:href="#DejaVuSans-48"/>
       <use x="63.623047" xlink:href="#DejaVuSans-46"/>
       <use x="95.410156" xlink:href="#DejaVuSans-48"/>
       <use x="159.033203" xlink:href="#DejaVuSans-48"/>
       <use x="222.65625" xlink:href="#DejaVuSans-50"/>
       <use x="286.279297" xlink:href="#DejaVuSans-48"/>
      </g>
     </g>
    </g>
    <g id="ytick_6">
     <g id="line2d_23">
      <path clip-path="url(#pf29254de78)" d="M 67.335625 75.563629 
L 662.432625 75.563629 
" style="fill:none;stroke:#b0b0b0;stroke-linecap:square;stroke-width:0.8;"/>
     </g>
     <g id="line2d_24">
      <g>
       <use style="stroke:#000000;stroke-width:0.8;" x="67.335625" xlink:href="#mfc18259b5e" y="75.563629"/>
      </g>
     </g>
     <g id="text_13">
      <!-- 0.0025 -->
      <g transform="translate(21.845938 79.742769)scale(0.11 -0.11)">
       <use xlink:href="#DejaVuSans-48"/>
       <use x="63.623047" xlink:href="#DejaVuSans-46"/>
       <use x="95.410156" xlink:href="#DejaVuSans-48"/>
       <use x="159.033203" xlink:href="#DejaVuSans-48"/>
       <use x="222.65625" xlink:href="#DejaVuSans-50"/>
       <use x="286.279297" xlink:href="#DejaVuSans-53"/>
      </g>
     </g>
    </g>
    <g id="ytick_7">
     <g id="line2d_25">
      <path clip-path="url(#pf29254de78)" d="M 67.335625 37.661855 
L 662.432625 37.661855 
" style="fill:none;stroke:#b0b0b0;stroke-linecap:square;stroke-width:0.8;"/>
     </g>
     <g id="line2d_26">
      <g>
       <use style="stroke:#000000;stroke-width:0.8;" x="67.335625" xlink:href="#mfc18259b5e" y="37.661855"/>
      </g>
     </g>
     <g id="text_14">
      <!-- 0.0030 -->
      <g transform="translate(21.845938 41.840995)scale(0.11 -0.11)">
       <defs>
        <path d="M 40.578125 39.3125 
Q 47.65625 37.796875 51.625 33 
Q 55.609375 28.21875 55.609375 21.1875 
Q 55.609375 10.40625 48.1875 4.484375 
Q 40.765625 -1.421875 27.09375 -1.421875 
Q 22.515625 -1.421875 17.65625 -0.515625 
Q 12.796875 0.390625 7.625 2.203125 
L 7.625 11.71875 
Q 11.71875 9.328125 16.59375 8.109375 
Q 21.484375 6.890625 26.8125 6.890625 
Q 36.078125 6.890625 40.9375 10.546875 
Q 45.796875 14.203125 45.796875 21.1875 
Q 45.796875 27.640625 41.28125 31.265625 
Q 36.765625 34.90625 28.71875 34.90625 
L 20.21875 34.90625 
L 20.21875 43.015625 
L 29.109375 43.015625 
Q 36.375 43.015625 40.234375 45.921875 
Q 44.09375 48.828125 44.09375 54.296875 
Q 44.09375 59.90625 40.109375 62.90625 
Q 36.140625 65.921875 28.71875 65.921875 
Q 24.65625 65.921875 20.015625 65.03125 
Q 15.375 64.15625 9.8125 62.3125 
L 9.8125 71.09375 
Q 15.4375 72.65625 20.34375 73.4375 
Q 25.25 74.21875 29.59375 74.21875 
Q 40.828125 74.21875 47.359375 69.109375 
Q 53.90625 64.015625 53.90625 55.328125 
Q 53.90625 49.265625 50.4375 45.09375 
Q 46.96875 40.921875 40.578125 39.3125 
z
" id="DejaVuSans-51"/>
       </defs>
       <use xlink:href="#DejaVuSans-48"/>
       <use x="63.623047" xlink:href="#DejaVuSans-46"/>
       <use x="95.410156" xlink:href="#DejaVuSans-48"/>
       <use x="159.033203" xlink:href="#DejaVuSans-48"/>
       <use x="222.65625" xlink:href="#DejaVuSans-51"/>
       <use x="286.279297" xlink:href="#DejaVuSans-48"/>
      </g>
     </g>
    </g>
    <g id="text_15">
     <!-- Corriente (A) -->
     <g transform="translate(15.558281 185.715875)rotate(-90)scale(0.11 -0.11)">
      <defs>
       <path d="M 64.40625 67.28125 
L 64.40625 56.890625 
Q 59.421875 61.53125 53.78125 63.8125 
Q 48.140625 66.109375 41.796875 66.109375 
Q 29.296875 66.109375 22.65625 58.46875 
Q 16.015625 50.828125 16.015625 36.375 
Q 16.015625 21.96875 22.65625 14.328125 
Q 29.296875 6.6875 41.796875 6.6875 
Q 48.140625 6.6875 53.78125 8.984375 
Q 59.421875 11.28125 64.40625 15.921875 
L 64.40625 5.609375 
Q 59.234375 2.09375 53.4375 0.328125 
Q 47.65625 -1.421875 41.21875 -1.421875 
Q 24.65625 -1.421875 15.125 8.703125 
Q 5.609375 18.84375 5.609375 36.375 
Q 5.609375 53.953125 15.125 64.078125 
Q 24.65625 74.21875 41.21875 74.21875 
Q 47.75 74.21875 53.53125 72.484375 
Q 59.328125 70.75 64.40625 67.28125 
z
" id="DejaVuSans-67"/>
       <path d="M 41.109375 46.296875 
Q 39.59375 47.171875 37.8125 47.578125 
Q 36.03125 48 33.890625 48 
Q 26.265625 48 22.1875 43.046875 
Q 18.109375 38.09375 18.109375 28.8125 
L 18.109375 0 
L 9.078125 0 
L 9.078125 54.6875 
L 18.109375 54.6875 
L 18.109375 46.1875 
Q 20.953125 51.171875 25.484375 53.578125 
Q 30.03125 56 36.53125 56 
Q 37.453125 56 38.578125 55.875 
Q 39.703125 55.765625 41.0625 55.515625 
z
" id="DejaVuSans-114"/>
       <path d="M 54.890625 33.015625 
L 54.890625 0 
L 45.90625 0 
L 45.90625 32.71875 
Q 45.90625 40.484375 42.875 44.328125 
Q 39.84375 48.1875 33.796875 48.1875 
Q 26.515625 48.1875 22.3125 43.546875 
Q 18.109375 38.921875 18.109375 30.90625 
L 18.109375 0 
L 9.078125 0 
L 9.078125 54.6875 
L 18.109375 54.6875 
L 18.109375 46.1875 
Q 21.34375 51.125 25.703125 53.5625 
Q 30.078125 56 35.796875 56 
Q 45.21875 56 50.046875 50.171875 
Q 54.890625 44.34375 54.890625 33.015625 
z
" id="DejaVuSans-110"/>
       <path d="M 18.3125 70.21875 
L 18.3125 54.6875 
L 36.8125 54.6875 
L 36.8125 47.703125 
L 18.3125 47.703125 
L 18.3125 18.015625 
Q 18.3125 11.328125 20.140625 9.421875 
Q 21.96875 7.515625 27.59375 7.515625 
L 36.8125 7.515625 
L 36.8125 0 
L 27.59375 0 
Q 17.1875 0 13.234375 3.875 
Q 9.28125 7.765625 9.28125 18.015625 
L 9.28125 47.703125 
L 2.6875 47.703125 
L 2.6875 54.6875 
L 9.28125 54.6875 
L 9.28125 70.21875 
z
" id="DejaVuSans-116"/>
       <path d="M 34.1875 63.1875 
L 20.796875 26.90625 
L 47.609375 26.90625 
z
M 28.609375 72.90625 
L 39.796875 72.90625 
L 67.578125 0 
L 57.328125 0 
L 50.6875 18.703125 
L 17.828125 18.703125 
L 11.1875 0 
L 0.78125 0 
z
" id="DejaVuSans-65"/>
      </defs>
      <use xlink:href="#DejaVuSans-67"/>
      <use x="69.824219" xlink:href="#DejaVuSans-111"/>
      <use x="131.005859" xlink:href="#DejaVuSans-114"/>
      <use x="170.369141" xlink:href="#DejaVuSans-114"/>
      <use x="211.482422" xlink:href="#DejaVuSans-105"/>
      <use x="239.265625" xlink:href="#DejaVuSans-101"/>
      <use x="300.789062" xlink:href="#DejaVuSans-110"/>
      <use x="364.167969" xlink:href="#DejaVuSans-116"/>
      <use x="403.376953" xlink:href="#DejaVuSans-101"/>
      <use x="464.900391" xlink:href="#DejaVuSans-32"/>
      <use x="496.6875" xlink:href="#DejaVuSans-40"/>
      <use x="535.701172" xlink:href="#DejaVuSans-65"/>
      <use x="604.109375" xlink:href="#DejaVuSans-41"/>
     </g>
    </g>
   </g>
   <g id="line2d_27">
    <path clip-path="url(#pf29254de78)" d="M 94.385489 108.77654 
L 97.304376 117.778868 
L 101.626291 130.166384 
L 105.948206 141.5121 
L 110.27012 151.903631 
L 114.592035 161.421227 
L 118.91395 170.138384 
L 123.235865 178.122422 
L 127.557779 185.434995 
L 131.879694 192.132575 
L 136.201609 198.266883 
L 140.523524 203.88529 
L 144.845438 209.031185 
L 149.167353 213.744306 
L 153.489268 218.061049 
L 157.811182 222.014751 
L 162.133097 225.635943 
L 166.455012 228.95259 
L 170.776927 231.990304 
L 175.098841 234.772544 
L 179.420756 237.320795 
L 183.742671 239.654737 
L 188.064586 241.792391 
L 192.3865 243.750268 
L 198.869373 246.382721 
L 205.352245 248.69017 
L 211.835117 250.71274 
L 218.317989 252.485603 
L 224.800861 254.039587 
L 231.283733 255.401715 
L 239.927563 256.959956 
L 248.571392 258.26712 
L 257.215222 259.363662 
L 268.020008 260.48932 
L 278.824795 261.393023 
L 291.790539 262.245478 
L 306.917241 262.99378 
L 324.2049 263.609694 
L 345.814474 264.129687 
L 371.745962 264.51594 
L 406.32128 264.796891 
L 458.184257 264.976456 
L 559.749253 265.060312 
L 635.382761 265.069879 
L 635.382761 265.069879 
" style="fill:none;stroke:#1f77b4;stroke-linecap:square;stroke-width:1.5;"/>
   </g>
   <g id="line2d_28">
    <path clip-path="url(#pf29254de78)" d="M 94.385489 191.912688 
L 97.304376 196.126544 
L 101.626291 201.924956 
L 105.948206 207.235716 
L 110.27012 212.099838 
L 114.592035 216.554882 
L 118.91395 220.635254 
L 123.235865 224.372463 
L 127.557779 227.795369 
L 131.879694 230.930407 
L 136.201609 233.801785 
L 140.523524 236.431678 
L 144.845438 238.840395 
L 149.167353 241.046536 
L 153.489268 243.067139 
L 159.97214 245.783932 
L 166.455012 248.165308 
L 172.937884 250.252677 
L 179.420756 252.08234 
L 185.903628 253.686111 
L 192.3865 255.09188 
L 201.03033 256.700044 
L 209.674159 258.049087 
L 218.317989 259.18076 
L 229.122776 260.342482 
L 239.927563 261.275139 
L 252.893307 262.154905 
L 268.020008 262.927181 
L 285.307667 263.562828 
L 304.756284 264.05579 
L 330.687772 264.472317 
L 365.26309 264.775288 
L 414.96511 264.964278 
L 507.886276 265.056129 
L 635.382761 265.071273 
L 635.382761 265.071273 
" style="fill:none;stroke:#ff7f0e;stroke-linecap:square;stroke-width:1.5;"/>
   </g>
   <g id="line2d_29">
    <path clip-path="url(#pf29254de78)" d="M 94.385489 35.616727 
L 97.304376 48.832912 
L 101.626291 67.01884 
L 105.948206 83.675316 
L 110.27012 98.930969 
L 114.592035 112.903608 
L 118.91395 125.701138 
L 123.235865 137.422384 
L 127.557779 148.157864 
L 131.879694 157.990481 
L 136.201609 166.996167 
L 140.523524 175.244468 
L 144.845438 182.799079 
L 149.167353 189.718342 
L 153.489268 196.055688 
L 157.811182 201.860059 
L 162.133097 207.176277 
L 166.455012 212.045397 
L 170.776927 216.50502 
L 175.098841 220.589585 
L 179.420756 224.330635 
L 183.742671 227.757059 
L 188.064586 230.895318 
L 192.3865 233.769647 
L 196.708415 236.402243 
L 201.03033 238.813435 
L 205.352245 241.021844 
L 209.674159 243.044524 
L 216.157031 245.764108 
L 222.639904 248.147931 
L 229.122776 250.237446 
L 235.605648 252.068989 
L 242.08852 253.674408 
L 248.571392 255.081622 
L 257.215222 256.691438 
L 265.859051 258.041868 
L 274.50288 259.174704 
L 285.307667 260.33762 
L 296.112454 261.271235 
L 309.078198 262.151905 
L 324.2049 262.924975 
L 341.492559 263.561275 
L 360.941175 264.054743 
L 386.872664 264.471699 
L 421.447982 264.774981 
L 471.150001 264.964165 
L 564.071168 265.056111 
L 635.382761 265.068652 
L 635.382761 265.068652 
" style="fill:none;stroke:#2ca02c;stroke-linecap:square;stroke-width:1.5;"/>
   </g>
   <g id="patch_3">
    <path d="M 67.335625 276.544 
L 67.335625 24.144 
" style="fill:none;stroke:#000000;stroke-linecap:square;stroke-linejoin:miter;stroke-width:0.8;"/>
   </g>
   <g id="patch_4">
    <path d="M 662.432625 276.544 
L 662.432625 24.144 
" style="fill:none;stroke:#000000;stroke-linecap:square;stroke-linejoin:miter;stroke-width:0.8;"/>
   </g>
   <g id="patch_5">
    <path d="M 67.335625 276.544 
L 662.432625 276.544 
" style="fill:none;stroke:#000000;stroke-linecap:square;stroke-linejoin:miter;stroke-width:0.8;"/>
   </g>
   <g id="patch_6">
    <path d="M 67.335625 24.144 
L 662.432625 24.144 
" style="fill:none;stroke:#000000;stroke-linecap:square;stroke-linejoin:miter;stroke-width:0.8;"/>
   </g>
  </g>
  <g id="axes_2">
   <g id="matplotlib.axis_3">
    <g id="ytick_8">
     <g id="line2d_30">
      <defs>
       <path d="M 0 0 
L 3.5 0 
" id="mab8861542e" style="stroke:#000000;stroke-width:0.8;"/>
      </defs>
      <g>
       <use style="stroke:#000000;stroke-width:0.8;" x="662.432625" xlink:href="#mab8861542e" y="265.075114"/>
      </g>
     </g>
     <g id="text_16">
      <!-- 0 -->
      <g transform="translate(669.432625 269.254255)scale(0.11 -0.11)">
       <use xlink:href="#DejaVuSans-48"/>
      </g>
     </g>
    </g>
    <g id="ytick_9">
     <g id="line2d_31">
      <g>
       <use style="stroke:#000000;stroke-width:0.8;" x="662.432625" xlink:href="#mab8861542e" y="219.182669"/>
      </g>
     </g>
     <g id="text_17">
      <!-- 2 -->
      <g transform="translate(669.432625 223.361809)scale(0.11 -0.11)">
       <use xlink:href="#DejaVuSans-50"/>
      </g>
     </g>
    </g>
    <g id="ytick_10">
     <g id="line2d_32">
      <g>
       <use style="stroke:#000000;stroke-width:0.8;" x="662.432625" xlink:href="#mab8861542e" y="173.290223"/>
      </g>
     </g>
     <g id="text_18">
      <!-- 4 -->
      <g transform="translate(669.432625 177.469363)scale(0.11 -0.11)">
       <defs>
        <path d="M 37.796875 64.3125 
L 12.890625 25.390625 
L 37.796875 25.390625 
z
M 35.203125 72.90625 
L 47.609375 72.90625 
L 47.609375 25.390625 
L 58.015625 25.390625 
L 58.015625 17.1875 
L 47.609375 17.1875 
L 47.609375 0 
L 37.796875 0 
L 37.796875 17.1875 
L 4.890625 17.1875 
L 4.890625 26.703125 
z
" id="DejaVuSans-52"/>
       </defs>
       <use xlink:href="#DejaVuSans-52"/>
      </g>
     </g>
    </g>
    <g id="ytick_11">
     <g id="line2d_33">
      <g>
       <use style="stroke:#000000;stroke-width:0.8;" x="662.432625" xlink:href="#mab8861542e" y="127.397777"/>
      </g>
     </g>
     <g id="text_19">
      <!-- 6 -->
      <g transform="translate(669.432625 131.576918)scale(0.11 -0.11)">
       <use xlink:href="#DejaVuSans-54"/>
      </g>
     </g>
    </g>
    <g id="ytick_12">
     <g id="line2d_34">
      <g>
       <use style="stroke:#000000;stroke-width:0.8;" x="662.432625" xlink:href="#mab8861542e" y="81.505331"/>
      </g>
     </g>
     <g id="text_20">
      <!-- 8 -->
      <g transform="translate(669.432625 85.684472)scale(0.11 -0.11)">
       <use xlink:href="#DejaVuSans-56"/>
      </g>
     </g>
    </g>
    <g id="ytick_13">
     <g id="line2d_35">
      <g>
       <use style="stroke:#000000;stroke-width:0.8;" x="662.432625" xlink:href="#mab8861542e" y="35.612886"/>
      </g>
     </g>
     <g id="text_21">
      <!-- 10 -->
      <g transform="translate(669.432625 39.792026)scale(0.11 -0.11)">
       <use xlink:href="#DejaVuSans-49"/>
       <use x="63.623047" xlink:href="#DejaVuSans-48"/>
      </g>
     </g>
    </g>
    <g id="text_22">
     <!-- Voltios (V) -->
     <g transform="translate(695.788406 178.290016)rotate(-90)scale(0.11 -0.11)">
      <defs>
       <path d="M 28.609375 0 
L 0.78125 72.90625 
L 11.078125 72.90625 
L 34.1875 11.53125 
L 57.328125 72.90625 
L 67.578125 72.90625 
L 39.796875 0 
z
" id="DejaVuSans-86"/>
       <path d="M 9.421875 75.984375 
L 18.40625 75.984375 
L 18.40625 0 
L 9.421875 0 
z
" id="DejaVuSans-108"/>
      </defs>
      <use xlink:href="#DejaVuSans-86"/>
      <use x="60.658203" xlink:href="#DejaVuSans-111"/>
      <use x="121.839844" xlink:href="#DejaVuSans-108"/>
      <use x="149.623047" xlink:href="#DejaVuSans-116"/>
      <use x="188.832031" xlink:href="#DejaVuSans-105"/>
      <use x="216.615234" xlink:href="#DejaVuSans-111"/>
      <use x="277.796875" xlink:href="#DejaVuSans-115"/>
      <use x="329.896484" xlink:href="#DejaVuSans-32"/>
      <use x="361.683594" xlink:href="#DejaVuSans-40"/>
      <use x="400.697266" xlink:href="#DejaVuSans-86"/>
      <use x="469.105469" xlink:href="#DejaVuSans-41"/>
     </g>
    </g>
   </g>
   <g id="line2d_36">
    <path clip-path="url(#pf29254de78)" d="M 94.385489 264.823431 
L 97.304376 251.62137 
L 101.626291 233.454878 
L 105.948206 216.816203 
L 110.27012 201.576855 
L 114.592035 187.619148 
L 118.91395 174.835296 
L 123.235865 163.126576 
L 127.557779 152.402569 
L 131.879694 142.580461 
L 136.201609 133.584399 
L 140.523524 125.344914 
L 144.845438 117.798376 
L 149.167353 110.886509 
L 153.489268 104.555935 
L 157.811182 98.757767 
L 162.133097 93.447231 
L 166.455012 88.583314 
L 170.776927 84.128458 
L 175.098841 80.048258 
L 179.420756 76.311206 
L 183.742671 72.888444 
L 188.064586 69.753539 
L 192.3865 66.882282 
L 196.708415 64.2525 
L 201.03033 61.843885 
L 205.352245 59.637836 
L 209.674159 57.617318 
L 216.157031 54.90064 
L 222.639904 52.519365 
L 229.122776 50.432083 
L 235.605648 48.602497 
L 242.08852 46.998794 
L 248.571392 45.593084 
L 257.215222 43.984988 
L 265.859051 42.636002 
L 274.50288 41.504376 
L 285.307667 40.342703 
L 296.112454 39.410086 
L 309.078198 38.530356 
L 324.2049 37.758113 
L 341.492559 37.122493 
L 360.941175 36.629552 
L 386.872664 36.213042 
L 421.447982 35.910084 
L 471.150001 35.721102 
L 564.071168 35.629255 
L 635.382761 35.616727 
L 635.382761 35.616727 
" style="fill:none;stroke:#17becf;stroke-linecap:square;stroke-width:1.5;"/>
   </g>
   <g id="line2d_37">
    <path clip-path="url(#pf29254de78)" d="M 94.385489 264.823431 
L 97.304376 251.62137 
L 101.626291 233.454878 
L 105.948206 216.816203 
L 110.27012 201.576855 
L 114.592035 187.619148 
L 118.91395 174.835296 
L 123.235865 163.126576 
L 127.557779 152.402569 
L 131.879694 142.580461 
L 136.201609 133.584399 
L 140.523524 125.344914 
L 144.845438 117.798376 
L 149.167353 110.886509 
L 153.489268 104.555935 
L 157.811182 98.757767 
L 162.133097 93.447231 
L 166.455012 88.583314 
L 170.776927 84.128458 
L 175.098841 80.048258 
L 179.420756 76.311206 
L 183.742671 72.888444 
L 188.064586 69.753539 
L 192.3865 66.882282 
L 196.708415 64.2525 
L 201.03033 61.843885 
L 205.352245 59.637836 
L 209.674159 57.617318 
L 216.157031 54.90064 
L 222.639904 52.519365 
L 229.122776 50.432083 
L 235.605648 48.602497 
L 242.08852 46.998794 
L 248.571392 45.593084 
L 257.215222 43.984988 
L 265.859051 42.636002 
L 274.50288 41.504376 
L 285.307667 40.342703 
L 296.112454 39.410086 
L 309.078198 38.530356 
L 324.2049 37.758113 
L 341.492559 37.122493 
L 360.941175 36.629552 
L 386.872664 36.213042 
L 421.447982 35.910084 
L 471.150001 35.721102 
L 564.071168 35.629255 
L 635.382761 35.616727 
L 635.382761 35.616727 
" style="fill:none;stroke:#9467bd;stroke-linecap:square;stroke-width:1.5;"/>
   </g>
   <g id="line2d_38">
    <path clip-path="url(#pf29254de78)" d="M 94.385489 35.864569 
L 97.304376 49.06663 
L 101.626291 67.233122 
L 105.948206 83.871797 
L 110.27012 99.111145 
L 114.592035 113.068852 
L 118.91395 125.852704 
L 123.235865 137.561424 
L 127.557779 148.285431 
L 131.879694 158.107539 
L 136.201609 167.103601 
L 140.523524 175.343086 
L 144.845438 182.889624 
L 149.167353 189.801491 
L 153.489268 196.132065 
L 157.811182 201.930233 
L 162.133097 207.240769 
L 166.455012 212.104686 
L 170.776927 216.559542 
L 175.098841 220.639742 
L 179.420756 224.376794 
L 183.742671 227.799556 
L 188.064586 230.934461 
L 192.3865 233.805718 
L 196.708415 236.4355 
L 201.03033 238.844115 
L 205.352245 241.050164 
L 209.674159 243.070682 
L 216.157031 245.78736 
L 222.639904 248.168635 
L 229.122776 250.255917 
L 235.605648 252.085503 
L 242.08852 253.689206 
L 248.571392 255.094916 
L 257.215222 256.703012 
L 265.859051 258.051998 
L 274.50288 259.183624 
L 285.307667 260.345297 
L 296.112454 261.277914 
L 309.078198 262.157644 
L 324.2049 262.929887 
L 341.492559 263.565507 
L 360.941175 264.058448 
L 386.872664 264.474958 
L 421.447982 264.777916 
L 471.150001 264.966898 
L 564.071168 265.058745 
L 635.382761 265.071273 
L 635.382761 265.071273 
" style="fill:none;stroke:#d62728;stroke-linecap:square;stroke-width:1.5;"/>
   </g>
   <g id="patch_7">
    <path d="M 67.335625 276.544 
L 67.335625 24.144 
" style="fill:none;stroke:#000000;stroke-linecap:square;stroke-linejoin:miter;stroke-width:0.8;"/>
   </g>
   <g id="patch_8">
    <path d="M 662.432625 276.544 
L 662.432625 24.144 
" style="fill:none;stroke:#000000;stroke-linecap:square;stroke-linejoin:miter;stroke-width:0.8;"/>
   </g>
   <g id="patch_9">
    <path d="M 67.335625 276.544 
L 662.432625 276.544 
" style="fill:none;stroke:#000000;stroke-linecap:square;stroke-linejoin:miter;stroke-width:0.8;"/>
   </g>
   <g id="patch_10">
    <path d="M 67.335625 24.144 
L 662.432625 24.144 
" style="fill:none;stroke:#000000;stroke-linecap:square;stroke-linejoin:miter;stroke-width:0.8;"/>
   </g>
   <g id="text_23">
    <!-- Circuito carrera condensadores - ($\mathrm{10v}$) - C1:$\mathrm{47\mu\Omega}$ - C2:$\mathrm{22\mu\Omega}$ -->
    <g transform="translate(148.524125 18.144)scale(0.144 -0.144)">
     <defs>
      <path d="M 48.78125 52.59375 
L 48.78125 44.1875 
Q 44.96875 46.296875 41.140625 47.34375 
Q 37.3125 48.390625 33.40625 48.390625 
Q 24.65625 48.390625 19.8125 42.84375 
Q 14.984375 37.3125 14.984375 27.296875 
Q 14.984375 17.28125 19.8125 11.734375 
Q 24.65625 6.203125 33.40625 6.203125 
Q 37.3125 6.203125 41.140625 7.25 
Q 44.96875 8.296875 48.78125 10.40625 
L 48.78125 2.09375 
Q 45.015625 0.34375 40.984375 -0.53125 
Q 36.96875 -1.421875 32.421875 -1.421875 
Q 20.0625 -1.421875 12.78125 6.34375 
Q 5.515625 14.109375 5.515625 27.296875 
Q 5.515625 40.671875 12.859375 48.328125 
Q 20.21875 56 33.015625 56 
Q 37.15625 56 41.109375 55.140625 
Q 45.0625 54.296875 48.78125 52.59375 
z
" id="DejaVuSans-99"/>
      <path d="M 8.5 21.578125 
L 8.5 54.6875 
L 17.484375 54.6875 
L 17.484375 21.921875 
Q 17.484375 14.15625 20.5 10.265625 
Q 23.53125 6.390625 29.59375 6.390625 
Q 36.859375 6.390625 41.078125 11.03125 
Q 45.3125 15.671875 45.3125 23.6875 
L 45.3125 54.6875 
L 54.296875 54.6875 
L 54.296875 0 
L 45.3125 0 
L 45.3125 8.40625 
Q 42.046875 3.421875 37.71875 1 
Q 33.40625 -1.421875 27.6875 -1.421875 
Q 18.265625 -1.421875 13.375 4.4375 
Q 8.5 10.296875 8.5 21.578125 
z
M 31.109375 56 
z
" id="DejaVuSans-117"/>
      <path d="M 34.28125 27.484375 
Q 23.390625 27.484375 19.1875 25 
Q 14.984375 22.515625 14.984375 16.5 
Q 14.984375 11.71875 18.140625 8.90625 
Q 21.296875 6.109375 26.703125 6.109375 
Q 34.1875 6.109375 38.703125 11.40625 
Q 43.21875 16.703125 43.21875 25.484375 
L 43.21875 27.484375 
z
M 52.203125 31.203125 
L 52.203125 0 
L 43.21875 0 
L 43.21875 8.296875 
Q 40.140625 3.328125 35.546875 0.953125 
Q 30.953125 -1.421875 24.3125 -1.421875 
Q 15.921875 -1.421875 10.953125 3.296875 
Q 6 8.015625 6 15.921875 
Q 6 25.140625 12.171875 29.828125 
Q 18.359375 34.515625 30.609375 34.515625 
L 43.21875 34.515625 
L 43.21875 35.40625 
Q 43.21875 41.609375 39.140625 45 
Q 35.0625 48.390625 27.6875 48.390625 
Q 23 48.390625 18.546875 47.265625 
Q 14.109375 46.140625 10.015625 43.890625 
L 10.015625 52.203125 
Q 14.9375 54.109375 19.578125 55.046875 
Q 24.21875 56 28.609375 56 
Q 40.484375 56 46.34375 49.84375 
Q 52.203125 43.703125 52.203125 31.203125 
z
" id="DejaVuSans-97"/>
      <path d="M 45.40625 46.390625 
L 45.40625 75.984375 
L 54.390625 75.984375 
L 54.390625 0 
L 45.40625 0 
L 45.40625 8.203125 
Q 42.578125 3.328125 38.25 0.953125 
Q 33.9375 -1.421875 27.875 -1.421875 
Q 17.96875 -1.421875 11.734375 6.484375 
Q 5.515625 14.40625 5.515625 27.296875 
Q 5.515625 40.1875 11.734375 48.09375 
Q 17.96875 56 27.875 56 
Q 33.9375 56 38.25 53.625 
Q 42.578125 51.265625 45.40625 46.390625 
z
M 14.796875 27.296875 
Q 14.796875 17.390625 18.875 11.75 
Q 22.953125 6.109375 30.078125 6.109375 
Q 37.203125 6.109375 41.296875 11.75 
Q 45.40625 17.390625 45.40625 27.296875 
Q 45.40625 37.203125 41.296875 42.84375 
Q 37.203125 48.484375 30.078125 48.484375 
Q 22.953125 48.484375 18.875 42.84375 
Q 14.796875 37.203125 14.796875 27.296875 
z
" id="DejaVuSans-100"/>
      <path d="M 4.890625 31.390625 
L 31.203125 31.390625 
L 31.203125 23.390625 
L 4.890625 23.390625 
z
" id="DejaVuSans-45"/>
      <path d="M 2.984375 54.6875 
L 12.5 54.6875 
L 29.59375 8.796875 
L 46.6875 54.6875 
L 56.203125 54.6875 
L 35.6875 0 
L 23.484375 0 
z
" id="DejaVuSans-118"/>
      <path d="M 11.71875 12.40625 
L 22.015625 12.40625 
L 22.015625 0 
L 11.71875 0 
z
M 11.71875 51.703125 
L 22.015625 51.703125 
L 22.015625 39.3125 
L 11.71875 39.3125 
z
" id="DejaVuSans-58"/>
      <path d="M 8.5 -20.796875 
L 8.5 54.6875 
L 17.484375 54.6875 
L 17.484375 20.703125 
Q 17.484375 13.625 20.84375 10 
Q 24.21875 6.390625 30.8125 6.390625 
Q 38.03125 6.390625 41.671875 10.484375 
Q 45.3125 14.59375 45.3125 22.796875 
L 45.3125 54.6875 
L 54.296875 54.6875 
L 54.296875 12.59375 
Q 54.296875 9.671875 55.140625 8.28125 
Q 56 6.890625 57.8125 6.890625 
Q 58.25 6.890625 59.03125 7.15625 
Q 59.8125 7.421875 61.1875 8.015625 
L 61.1875 0.78125 
Q 59.1875 -0.34375 57.390625 -0.875 
Q 55.609375 -1.421875 53.90625 -1.421875 
Q 50.53125 -1.421875 48.53125 0.484375 
Q 46.53125 2.390625 45.796875 6.296875 
Q 43.359375 2.4375 39.8125 0.5 
Q 36.28125 -1.421875 31.5 -1.421875 
Q 26.515625 -1.421875 23.015625 0.484375 
Q 19.53125 2.390625 17.484375 6.203125 
L 17.484375 -20.796875 
z
" id="DejaVuSans-956"/>
      <path d="M 72.609375 8.6875 
L 72.609375 0 
L 43.3125 0 
L 43.3125 8.6875 
Q 51.953125 13.421875 56.78125 21.53125 
Q 61.625 29.640625 61.625 39.5 
Q 61.625 51.21875 55.171875 58.296875 
Q 48.734375 65.375 38.1875 65.375 
Q 27.640625 65.375 21.171875 58.265625 
Q 14.703125 51.171875 14.703125 39.5 
Q 14.703125 29.640625 19.53125 21.53125 
Q 24.421875 13.421875 33.109375 8.6875 
L 33.109375 0 
L 3.8125 0 
L 3.8125 8.6875 
L 19.390625 8.6875 
Q 11.671875 15.484375 8.109375 22.75 
Q 4.59375 30.03125 4.59375 39.015625 
Q 4.59375 54.546875 13.96875 64.15625 
Q 23.296875 73.78125 38.1875 73.78125 
Q 52.984375 73.78125 62.40625 64.15625 
Q 71.78125 54.59375 71.78125 39.5 
Q 71.78125 30.03125 68.3125 22.796875 
Q 64.84375 15.578125 56.984375 8.6875 
z
" id="DejaVuSans-937"/>
     </defs>
     <use transform="translate(0 0.015625)" xlink:href="#DejaVuSans-67"/>
     <use transform="translate(69.824219 0.015625)" xlink:href="#DejaVuSans-105"/>
     <use transform="translate(97.607422 0.015625)" xlink:href="#DejaVuSans-114"/>
     <use transform="translate(138.720703 0.015625)" xlink:href="#DejaVuSans-99"/>
     <use transform="translate(193.701172 0.015625)" xlink:href="#DejaVuSans-117"/>
     <use transform="translate(257.080078 0.015625)" xlink:href="#DejaVuSans-105"/>
     <use transform="translate(284.863281 0.015625)" xlink:href="#DejaVuSans-116"/>
     <use transform="translate(324.072266 0.015625)" xlink:href="#DejaVuSans-111"/>
     <use transform="translate(385.253906 0.015625)" xlink:href="#DejaVuSans-32"/>
     <use transform="translate(417.041016 0.015625)" xlink:href="#DejaVuSans-99"/>
     <use transform="translate(472.021484 0.015625)" xlink:href="#DejaVuSans-97"/>
     <use transform="translate(533.300781 0.015625)" xlink:href="#DejaVuSans-114"/>
     <use transform="translate(574.414062 0.015625)" xlink:href="#DejaVuSans-114"/>
     <use transform="translate(615.527344 0.015625)" xlink:href="#DejaVuSans-101"/>
     <use transform="translate(677.050781 0.015625)" xlink:href="#DejaVuSans-114"/>
     <use transform="translate(718.164062 0.015625)" xlink:href="#DejaVuSans-97"/>
     <use transform="translate(779.443359 0.015625)" xlink:href="#DejaVuSans-32"/>
     <use transform="translate(811.230469 0.015625)" xlink:href="#DejaVuSans-99"/>
     <use transform="translate(866.210938 0.015625)" xlink:href="#DejaVuSans-111"/>
     <use transform="translate(927.392578 0.015625)" xlink:href="#DejaVuSans-110"/>
     <use transform="translate(990.771484 0.015625)" xlink:href="#DejaVuSans-100"/>
     <use transform="translate(1054.248047 0.015625)" xlink:href="#DejaVuSans-101"/>
     <use transform="translate(1115.771484 0.015625)" xlink:href="#DejaVuSans-110"/>
     <use transform="translate(1179.150391 0.015625)" xlink:href="#DejaVuSans-115"/>
     <use transform="translate(1231.25 0.015625)" xlink:href="#DejaVuSans-97"/>
     <use transform="translate(1292.529297 0.015625)" xlink:href="#DejaVuSans-100"/>
     <use transform="translate(1356.005859 0.015625)" xlink:href="#DejaVuSans-111"/>
     <use transform="translate(1417.1875 0.015625)" xlink:href="#DejaVuSans-114"/>
     <use transform="translate(1458.300781 0.015625)" xlink:href="#DejaVuSans-101"/>
     <use transform="translate(1519.824219 0.015625)" xlink:href="#DejaVuSans-115"/>
     <use transform="translate(1571.923828 0.015625)" xlink:href="#DejaVuSans-32"/>
     <use transform="translate(1603.710938 0.015625)" xlink:href="#DejaVuSans-45"/>
     <use transform="translate(1639.794922 0.015625)" xlink:href="#DejaVuSans-32"/>
     <use transform="translate(1671.582031 0.015625)" xlink:href="#DejaVuSans-40"/>
     <use transform="translate(1710.595703 0.015625)" xlink:href="#DejaVuSans-49"/>
     <use transform="translate(1774.21875 0.015625)" xlink:href="#DejaVuSans-48"/>
     <use transform="translate(1837.841797 0.015625)" xlink:href="#DejaVuSans-118"/>
     <use transform="translate(1897.021484 0.015625)" xlink:href="#DejaVuSans-41"/>
     <use transform="translate(1936.035156 0.015625)" xlink:href="#DejaVuSans-32"/>
     <use transform="translate(1967.822266 0.015625)" xlink:href="#DejaVuSans-45"/>
     <use transform="translate(2003.90625 0.015625)" xlink:href="#DejaVuSans-32"/>
     <use transform="translate(2035.693359 0.015625)" xlink:href="#DejaVuSans-67"/>
     <use transform="translate(2105.517578 0.015625)" xlink:href="#DejaVuSans-49"/>
     <use transform="translate(2169.140625 0.015625)" xlink:href="#DejaVuSans-58"/>
     <use transform="translate(2202.832031 0.015625)" xlink:href="#DejaVuSans-52"/>
     <use transform="translate(2266.455078 0.015625)" xlink:href="#DejaVuSans-55"/>
     <use transform="translate(2330.078125 0.015625)" xlink:href="#DejaVuSans-956"/>
     <use transform="translate(2393.701172 0.015625)" xlink:href="#DejaVuSans-937"/>
     <use transform="translate(2470.117188 0.015625)" xlink:href="#DejaVuSans-32"/>
     <use transform="translate(2501.904297 0.015625)" xlink:href="#DejaVuSans-45"/>
     <use transform="translate(2537.988281 0.015625)" xlink:href="#DejaVuSans-32"/>
     <use transform="translate(2569.775391 0.015625)" xlink:href="#DejaVuSans-67"/>
     <use transform="translate(2639.599609 0.015625)" xlink:href="#DejaVuSans-50"/>
     <use transform="translate(2703.222656 0.015625)" xlink:href="#DejaVuSans-58"/>
     <use transform="translate(2736.914062 0.015625)" xlink:href="#DejaVuSans-50"/>
     <use transform="translate(2800.537109 0.015625)" xlink:href="#DejaVuSans-50"/>
     <use transform="translate(2864.160156 0.015625)" xlink:href="#DejaVuSans-956"/>
     <use transform="translate(2927.783203 0.015625)" xlink:href="#DejaVuSans-937"/>
    </g>
   </g>
   <g id="legend_1">
    <g id="patch_11">
     <path d="M 550.217156 200.431812 
L 654.732625 200.431812 
Q 656.932625 200.431812 656.932625 198.231812 
L 656.932625 102.456187 
Q 656.932625 100.256187 654.732625 100.256187 
L 550.217156 100.256187 
Q 548.017156 100.256187 548.017156 102.456187 
L 548.017156 198.231812 
Q 548.017156 200.431812 550.217156 200.431812 
z
" style="fill:#ffffff;opacity:0.8;stroke:#cccccc;stroke-linejoin:miter;"/>
    </g>
    <g id="line2d_39">
     <path d="M 552.417156 109.164469 
L 574.417156 109.164469 
" style="fill:none;stroke:#1f77b4;stroke-linecap:square;stroke-width:1.5;"/>
    </g>
    <g id="line2d_40"/>
    <g id="text_24">
     <!-- Corriente C1 -->
     <g transform="translate(583.217156 113.014469)scale(0.11 -0.11)">
      <use xlink:href="#DejaVuSans-67"/>
      <use x="69.824219" xlink:href="#DejaVuSans-111"/>
      <use x="131.005859" xlink:href="#DejaVuSans-114"/>
      <use x="170.369141" xlink:href="#DejaVuSans-114"/>
      <use x="211.482422" xlink:href="#DejaVuSans-105"/>
      <use x="239.265625" xlink:href="#DejaVuSans-101"/>
      <use x="300.789062" xlink:href="#DejaVuSans-110"/>
      <use x="364.167969" xlink:href="#DejaVuSans-116"/>
      <use x="403.376953" xlink:href="#DejaVuSans-101"/>
      <use x="464.900391" xlink:href="#DejaVuSans-32"/>
      <use x="496.6875" xlink:href="#DejaVuSans-67"/>
      <use x="566.511719" xlink:href="#DejaVuSans-49"/>
     </g>
    </g>
    <g id="line2d_41">
     <path d="M 552.417156 125.310406 
L 574.417156 125.310406 
" style="fill:none;stroke:#ff7f0e;stroke-linecap:square;stroke-width:1.5;"/>
    </g>
    <g id="line2d_42"/>
    <g id="text_25">
     <!-- Corriente C2 -->
     <g transform="translate(583.217156 129.160406)scale(0.11 -0.11)">
      <use xlink:href="#DejaVuSans-67"/>
      <use x="69.824219" xlink:href="#DejaVuSans-111"/>
      <use x="131.005859" xlink:href="#DejaVuSans-114"/>
      <use x="170.369141" xlink:href="#DejaVuSans-114"/>
      <use x="211.482422" xlink:href="#DejaVuSans-105"/>
      <use x="239.265625" xlink:href="#DejaVuSans-101"/>
      <use x="300.789062" xlink:href="#DejaVuSans-110"/>
      <use x="364.167969" xlink:href="#DejaVuSans-116"/>
      <use x="403.376953" xlink:href="#DejaVuSans-101"/>
      <use x="464.900391" xlink:href="#DejaVuSans-32"/>
      <use x="496.6875" xlink:href="#DejaVuSans-67"/>
      <use x="566.511719" xlink:href="#DejaVuSans-50"/>
     </g>
    </g>
    <g id="line2d_43">
     <path d="M 552.417156 141.456344 
L 574.417156 141.456344 
" style="fill:none;stroke:#2ca02c;stroke-linecap:square;stroke-width:1.5;"/>
    </g>
    <g id="line2d_44"/>
    <g id="text_26">
     <!-- Corriente R1 -->
     <g transform="translate(583.217156 145.306344)scale(0.11 -0.11)">
      <defs>
       <path d="M 44.390625 34.1875 
Q 47.5625 33.109375 50.5625 29.59375 
Q 53.5625 26.078125 56.59375 19.921875 
L 66.609375 0 
L 56 0 
L 46.6875 18.703125 
Q 43.0625 26.03125 39.671875 28.421875 
Q 36.28125 30.8125 30.421875 30.8125 
L 19.671875 30.8125 
L 19.671875 0 
L 9.8125 0 
L 9.8125 72.90625 
L 32.078125 72.90625 
Q 44.578125 72.90625 50.734375 67.671875 
Q 56.890625 62.453125 56.890625 51.90625 
Q 56.890625 45.015625 53.6875 40.46875 
Q 50.484375 35.9375 44.390625 34.1875 
z
M 19.671875 64.796875 
L 19.671875 38.921875 
L 32.078125 38.921875 
Q 39.203125 38.921875 42.84375 42.21875 
Q 46.484375 45.515625 46.484375 51.90625 
Q 46.484375 58.296875 42.84375 61.546875 
Q 39.203125 64.796875 32.078125 64.796875 
z
" id="DejaVuSans-82"/>
      </defs>
      <use xlink:href="#DejaVuSans-67"/>
      <use x="69.824219" xlink:href="#DejaVuSans-111"/>
      <use x="131.005859" xlink:href="#DejaVuSans-114"/>
      <use x="170.369141" xlink:href="#DejaVuSans-114"/>
      <use x="211.482422" xlink:href="#DejaVuSans-105"/>
      <use x="239.265625" xlink:href="#DejaVuSans-101"/>
      <use x="300.789062" xlink:href="#DejaVuSans-110"/>
      <use x="364.167969" xlink:href="#DejaVuSans-116"/>
      <use x="403.376953" xlink:href="#DejaVuSans-101"/>
      <use x="464.900391" xlink:href="#DejaVuSans-32"/>
      <use x="496.6875" xlink:href="#DejaVuSans-82"/>
      <use x="566.169922" xlink:href="#DejaVuSans-49"/>
     </g>
    </g>
    <g id="line2d_45">
     <path d="M 552.417156 157.602281 
L 574.417156 157.602281 
" style="fill:none;stroke:#17becf;stroke-linecap:square;stroke-width:1.5;"/>
    </g>
    <g id="line2d_46"/>
    <g id="text_27">
     <!-- Voltios C1 -->
     <g transform="translate(583.217156 161.452281)scale(0.11 -0.11)">
      <use xlink:href="#DejaVuSans-86"/>
      <use x="60.658203" xlink:href="#DejaVuSans-111"/>
      <use x="121.839844" xlink:href="#DejaVuSans-108"/>
      <use x="149.623047" xlink:href="#DejaVuSans-116"/>
      <use x="188.832031" xlink:href="#DejaVuSans-105"/>
      <use x="216.615234" xlink:href="#DejaVuSans-111"/>
      <use x="277.796875" xlink:href="#DejaVuSans-115"/>
      <use x="329.896484" xlink:href="#DejaVuSans-32"/>
      <use x="361.683594" xlink:href="#DejaVuSans-67"/>
      <use x="431.507812" xlink:href="#DejaVuSans-49"/>
     </g>
    </g>
    <g id="line2d_47">
     <path d="M 552.417156 173.748219 
L 574.417156 173.748219 
" style="fill:none;stroke:#9467bd;stroke-linecap:square;stroke-width:1.5;"/>
    </g>
    <g id="line2d_48"/>
    <g id="text_28">
     <!-- Voltios C2 -->
     <g transform="translate(583.217156 177.598219)scale(0.11 -0.11)">
      <use xlink:href="#DejaVuSans-86"/>
      <use x="60.658203" xlink:href="#DejaVuSans-111"/>
      <use x="121.839844" xlink:href="#DejaVuSans-108"/>
      <use x="149.623047" xlink:href="#DejaVuSans-116"/>
      <use x="188.832031" xlink:href="#DejaVuSans-105"/>
      <use x="216.615234" xlink:href="#DejaVuSans-111"/>
      <use x="277.796875" xlink:href="#DejaVuSans-115"/>
      <use x="329.896484" xlink:href="#DejaVuSans-32"/>
      <use x="361.683594" xlink:href="#DejaVuSans-67"/>
      <use x="431.507812" xlink:href="#DejaVuSans-50"/>
     </g>
    </g>
    <g id="line2d_49">
     <path d="M 552.417156 189.894156 
L 574.417156 189.894156 
" style="fill:none;stroke:#d62728;stroke-linecap:square;stroke-width:1.5;"/>
    </g>
    <g id="line2d_50"/>
    <g id="text_29">
     <!-- Voltios R1 -->
     <g transform="translate(583.217156 193.744156)scale(0.11 -0.11)">
      <use xlink:href="#DejaVuSans-86"/>
      <use x="60.658203" xlink:href="#DejaVuSans-111"/>
      <use x="121.839844" xlink:href="#DejaVuSans-108"/>
      <use x="149.623047" xlink:href="#DejaVuSans-116"/>
      <use x="188.832031" xlink:href="#DejaVuSans-105"/>
      <use x="216.615234" xlink:href="#DejaVuSans-111"/>
      <use x="277.796875" xlink:href="#DejaVuSans-115"/>
      <use x="329.896484" xlink:href="#DejaVuSans-32"/>
      <use x="361.683594" xlink:href="#DejaVuSans-82"/>
      <use x="431.166016" xlink:href="#DejaVuSans-49"/>
     </g>
    </g>
   </g>
  </g>
 </g>
 <defs>
  <clipPath id="pf29254de78">
   <rect height="252.4" width="595.097" x="67.335625" y="24.144"/>
  </clipPath>
 </defs>
</svg>
