<?xml version="1.0" encoding="utf-8" standalone="no"?>
<!DOCTYPE svg PUBLIC "-//W3C//DTD SVG 1.1//EN"
  "http://www.w3.org/Graphics/SVG/1.1/DTD/svg11.dtd">
<!-- Created with matplotlib (https://matplotlib.org/) -->
<svg height="316.035875pt" version="1.1" viewBox="0 0 922.939375 316.035875" width="922.939375pt" xmlns="http://www.w3.org/2000/svg" xmlns:xlink="http://www.w3.org/1999/xlink">
 <metadata>
  <rdf:RDF xmlns:cc="http://creativecommons.org/ns#" xmlns:dc="http://purl.org/dc/elements/1.1/" xmlns:rdf="http://www.w3.org/1999/02/22-rdf-syntax-ns#">
   <cc:Work>
    <dc:type rdf:resource="http://purl.org/dc/dcmitype/StillImage"/>
    <dc:date>2021-01-02T20:45:15.643837</dc:date>
    <dc:format>image/svg+xml</dc:format>
    <dc:creator>
     <cc:Agent>
      <dc:title>Matplotlib v3.3.3, https://matplotlib.org/</dc:title>
     </cc:Agent>
    </dc:creator>
   </cc:Work>
  </rdf:RDF>
 </metadata>
 <defs>
  <style type="text/css">*{stroke-linecap:butt;stroke-linejoin:round;}</style>
 </defs>
 <g id="figure_1">
  <g id="patch_1">
   <path d="M 0 316.035875 
L 922.939375 316.035875 
L 922.939375 0 
L 0 0 
z
" style="fill:none;"/>
  </g>
  <g id="axes_1">
   <g id="patch_2">
    <path d="M 59.059844 276.544 
L 853.384844 276.544 
L 853.384844 24.144 
L 59.059844 24.144 
z
" style="fill:#ffffff;"/>
   </g>
   <g id="matplotlib.axis_1">
    <g id="xtick_1">
     <g id="line2d_1">
      <defs>
       <path d="M 0 0 
L 0 3.5 
" id="m71c1c1b402" style="stroke:#000000;stroke-width:0.8;"/>
      </defs>
      <g>
       <use style="stroke:#000000;stroke-width:0.8;" x="95.165526" xlink:href="#m71c1c1b402" y="276.544"/>
      </g>
     </g>
     <g id="text_1">
      <!-- 0.0 -->
      <g transform="translate(86.418807 291.902281)scale(0.11 -0.11)">
       <defs>
        <path d="M 31.78125 66.40625 
Q 24.171875 66.40625 20.328125 58.90625 
Q 16.5 51.421875 16.5 36.375 
Q 16.5 21.390625 20.328125 13.890625 
Q 24.171875 6.390625 31.78125 6.390625 
Q 39.453125 6.390625 43.28125 13.890625 
Q 47.125 21.390625 47.125 36.375 
Q 47.125 51.421875 43.28125 58.90625 
Q 39.453125 66.40625 31.78125 66.40625 
z
M 31.78125 74.21875 
Q 44.046875 74.21875 50.515625 64.515625 
Q 56.984375 54.828125 56.984375 36.375 
Q 56.984375 17.96875 50.515625 8.265625 
Q 44.046875 -1.421875 31.78125 -1.421875 
Q 19.53125 -1.421875 13.0625 8.265625 
Q 6.59375 17.96875 6.59375 36.375 
Q 6.59375 54.828125 13.0625 64.515625 
Q 19.53125 74.21875 31.78125 74.21875 
z
" id="DejaVuSans-48"/>
        <path d="M 10.6875 12.40625 
L 21 12.40625 
L 21 0 
L 10.6875 0 
z
" id="DejaVuSans-46"/>
       </defs>
       <use xlink:href="#DejaVuSans-48"/>
       <use x="63.623047" xlink:href="#DejaVuSans-46"/>
       <use x="95.410156" xlink:href="#DejaVuSans-48"/>
      </g>
     </g>
    </g>
    <g id="xtick_2">
     <g id="line2d_2">
      <g>
       <use style="stroke:#000000;stroke-width:0.8;" x="239.588253" xlink:href="#m71c1c1b402" y="276.544"/>
      </g>
     </g>
     <g id="text_2">
      <!-- 0.2 -->
      <g transform="translate(230.841534 291.902281)scale(0.11 -0.11)">
       <defs>
        <path d="M 19.1875 8.296875 
L 53.609375 8.296875 
L 53.609375 0 
L 7.328125 0 
L 7.328125 8.296875 
Q 12.9375 14.109375 22.625 23.890625 
Q 32.328125 33.6875 34.8125 36.53125 
Q 39.546875 41.84375 41.421875 45.53125 
Q 43.3125 49.21875 43.3125 52.78125 
Q 43.3125 58.59375 39.234375 62.25 
Q 35.15625 65.921875 28.609375 65.921875 
Q 23.96875 65.921875 18.8125 64.3125 
Q 13.671875 62.703125 7.8125 59.421875 
L 7.8125 69.390625 
Q 13.765625 71.78125 18.9375 73 
Q 24.125 74.21875 28.421875 74.21875 
Q 39.75 74.21875 46.484375 68.546875 
Q 53.21875 62.890625 53.21875 53.421875 
Q 53.21875 48.921875 51.53125 44.890625 
Q 49.859375 40.875 45.40625 35.40625 
Q 44.1875 33.984375 37.640625 27.21875 
Q 31.109375 20.453125 19.1875 8.296875 
z
" id="DejaVuSans-50"/>
       </defs>
       <use xlink:href="#DejaVuSans-48"/>
       <use x="63.623047" xlink:href="#DejaVuSans-46"/>
       <use x="95.410156" xlink:href="#DejaVuSans-50"/>
      </g>
     </g>
    </g>
    <g id="xtick_3">
     <g id="line2d_3">
      <g>
       <use style="stroke:#000000;stroke-width:0.8;" x="384.01098" xlink:href="#m71c1c1b402" y="276.544"/>
      </g>
     </g>
     <g id="text_3">
      <!-- 0.4 -->
      <g transform="translate(375.264261 291.902281)scale(0.11 -0.11)">
       <defs>
        <path d="M 37.796875 64.3125 
L 12.890625 25.390625 
L 37.796875 25.390625 
z
M 35.203125 72.90625 
L 47.609375 72.90625 
L 47.609375 25.390625 
L 58.015625 25.390625 
L 58.015625 17.1875 
L 47.609375 17.1875 
L 47.609375 0 
L 37.796875 0 
L 37.796875 17.1875 
L 4.890625 17.1875 
L 4.890625 26.703125 
z
" id="DejaVuSans-52"/>
       </defs>
       <use xlink:href="#DejaVuSans-48"/>
       <use x="63.623047" xlink:href="#DejaVuSans-46"/>
       <use x="95.410156" xlink:href="#DejaVuSans-52"/>
      </g>
     </g>
    </g>
    <g id="xtick_4">
     <g id="line2d_4">
      <g>
       <use style="stroke:#000000;stroke-width:0.8;" x="528.433707" xlink:href="#m71c1c1b402" y="276.544"/>
      </g>
     </g>
     <g id="text_4">
      <!-- 0.6 -->
      <g transform="translate(519.686989 291.902281)scale(0.11 -0.11)">
       <defs>
        <path d="M 33.015625 40.375 
Q 26.375 40.375 22.484375 35.828125 
Q 18.609375 31.296875 18.609375 23.390625 
Q 18.609375 15.53125 22.484375 10.953125 
Q 26.375 6.390625 33.015625 6.390625 
Q 39.65625 6.390625 43.53125 10.953125 
Q 47.40625 15.53125 47.40625 23.390625 
Q 47.40625 31.296875 43.53125 35.828125 
Q 39.65625 40.375 33.015625 40.375 
z
M 52.59375 71.296875 
L 52.59375 62.3125 
Q 48.875 64.0625 45.09375 64.984375 
Q 41.3125 65.921875 37.59375 65.921875 
Q 27.828125 65.921875 22.671875 59.328125 
Q 17.53125 52.734375 16.796875 39.40625 
Q 19.671875 43.65625 24.015625 45.921875 
Q 28.375 48.1875 33.59375 48.1875 
Q 44.578125 48.1875 50.953125 41.515625 
Q 57.328125 34.859375 57.328125 23.390625 
Q 57.328125 12.15625 50.6875 5.359375 
Q 44.046875 -1.421875 33.015625 -1.421875 
Q 20.359375 -1.421875 13.671875 8.265625 
Q 6.984375 17.96875 6.984375 36.375 
Q 6.984375 53.65625 15.1875 63.9375 
Q 23.390625 74.21875 37.203125 74.21875 
Q 40.921875 74.21875 44.703125 73.484375 
Q 48.484375 72.75 52.59375 71.296875 
z
" id="DejaVuSans-54"/>
       </defs>
       <use xlink:href="#DejaVuSans-48"/>
       <use x="63.623047" xlink:href="#DejaVuSans-46"/>
       <use x="95.410156" xlink:href="#DejaVuSans-54"/>
      </g>
     </g>
    </g>
    <g id="xtick_5">
     <g id="line2d_5">
      <g>
       <use style="stroke:#000000;stroke-width:0.8;" x="672.856435" xlink:href="#m71c1c1b402" y="276.544"/>
      </g>
     </g>
     <g id="text_5">
      <!-- 0.8 -->
      <g transform="translate(664.109716 291.902281)scale(0.11 -0.11)">
       <defs>
        <path d="M 31.78125 34.625 
Q 24.75 34.625 20.71875 30.859375 
Q 16.703125 27.09375 16.703125 20.515625 
Q 16.703125 13.921875 20.71875 10.15625 
Q 24.75 6.390625 31.78125 6.390625 
Q 38.8125 6.390625 42.859375 10.171875 
Q 46.921875 13.96875 46.921875 20.515625 
Q 46.921875 27.09375 42.890625 30.859375 
Q 38.875 34.625 31.78125 34.625 
z
M 21.921875 38.8125 
Q 15.578125 40.375 12.03125 44.71875 
Q 8.5 49.078125 8.5 55.328125 
Q 8.5 64.0625 14.71875 69.140625 
Q 20.953125 74.21875 31.78125 74.21875 
Q 42.671875 74.21875 48.875 69.140625 
Q 55.078125 64.0625 55.078125 55.328125 
Q 55.078125 49.078125 51.53125 44.71875 
Q 48 40.375 41.703125 38.8125 
Q 48.828125 37.15625 52.796875 32.3125 
Q 56.78125 27.484375 56.78125 20.515625 
Q 56.78125 9.90625 50.3125 4.234375 
Q 43.84375 -1.421875 31.78125 -1.421875 
Q 19.734375 -1.421875 13.25 4.234375 
Q 6.78125 9.90625 6.78125 20.515625 
Q 6.78125 27.484375 10.78125 32.3125 
Q 14.796875 37.15625 21.921875 38.8125 
z
M 18.3125 54.390625 
Q 18.3125 48.734375 21.84375 45.5625 
Q 25.390625 42.390625 31.78125 42.390625 
Q 38.140625 42.390625 41.71875 45.5625 
Q 45.3125 48.734375 45.3125 54.390625 
Q 45.3125 60.0625 41.71875 63.234375 
Q 38.140625 66.40625 31.78125 66.40625 
Q 25.390625 66.40625 21.84375 63.234375 
Q 18.3125 60.0625 18.3125 54.390625 
z
" id="DejaVuSans-56"/>
       </defs>
       <use xlink:href="#DejaVuSans-48"/>
       <use x="63.623047" xlink:href="#DejaVuSans-46"/>
       <use x="95.410156" xlink:href="#DejaVuSans-56"/>
      </g>
     </g>
    </g>
    <g id="xtick_6">
     <g id="line2d_6">
      <g>
       <use style="stroke:#000000;stroke-width:0.8;" x="817.279162" xlink:href="#m71c1c1b402" y="276.544"/>
      </g>
     </g>
     <g id="text_6">
      <!-- 1.0 -->
      <g transform="translate(808.532443 291.902281)scale(0.11 -0.11)">
       <defs>
        <path d="M 12.40625 8.296875 
L 28.515625 8.296875 
L 28.515625 63.921875 
L 10.984375 60.40625 
L 10.984375 69.390625 
L 28.421875 72.90625 
L 38.28125 72.90625 
L 38.28125 8.296875 
L 54.390625 8.296875 
L 54.390625 0 
L 12.40625 0 
z
" id="DejaVuSans-49"/>
       </defs>
       <use xlink:href="#DejaVuSans-49"/>
       <use x="63.623047" xlink:href="#DejaVuSans-46"/>
       <use x="95.410156" xlink:href="#DejaVuSans-48"/>
      </g>
     </g>
    </g>
    <g id="text_7">
     <!-- Tiempo (s) -->
     <g transform="translate(427.003594 306.548219)scale(0.11 -0.11)">
      <defs>
       <path d="M -0.296875 72.90625 
L 61.375 72.90625 
L 61.375 64.59375 
L 35.5 64.59375 
L 35.5 0 
L 25.59375 0 
L 25.59375 64.59375 
L -0.296875 64.59375 
z
" id="DejaVuSans-84"/>
       <path d="M 9.421875 54.6875 
L 18.40625 54.6875 
L 18.40625 0 
L 9.421875 0 
z
M 9.421875 75.984375 
L 18.40625 75.984375 
L 18.40625 64.59375 
L 9.421875 64.59375 
z
" id="DejaVuSans-105"/>
       <path d="M 56.203125 29.59375 
L 56.203125 25.203125 
L 14.890625 25.203125 
Q 15.484375 15.921875 20.484375 11.0625 
Q 25.484375 6.203125 34.421875 6.203125 
Q 39.59375 6.203125 44.453125 7.46875 
Q 49.3125 8.734375 54.109375 11.28125 
L 54.109375 2.78125 
Q 49.265625 0.734375 44.1875 -0.34375 
Q 39.109375 -1.421875 33.890625 -1.421875 
Q 20.796875 -1.421875 13.15625 6.1875 
Q 5.515625 13.8125 5.515625 26.8125 
Q 5.515625 40.234375 12.765625 48.109375 
Q 20.015625 56 32.328125 56 
Q 43.359375 56 49.78125 48.890625 
Q 56.203125 41.796875 56.203125 29.59375 
z
M 47.21875 32.234375 
Q 47.125 39.59375 43.09375 43.984375 
Q 39.0625 48.390625 32.421875 48.390625 
Q 24.90625 48.390625 20.390625 44.140625 
Q 15.875 39.890625 15.1875 32.171875 
z
" id="DejaVuSans-101"/>
       <path d="M 52 44.1875 
Q 55.375 50.25 60.0625 53.125 
Q 64.75 56 71.09375 56 
Q 79.640625 56 84.28125 50.015625 
Q 88.921875 44.046875 88.921875 33.015625 
L 88.921875 0 
L 79.890625 0 
L 79.890625 32.71875 
Q 79.890625 40.578125 77.09375 44.375 
Q 74.3125 48.1875 68.609375 48.1875 
Q 61.625 48.1875 57.5625 43.546875 
Q 53.515625 38.921875 53.515625 30.90625 
L 53.515625 0 
L 44.484375 0 
L 44.484375 32.71875 
Q 44.484375 40.625 41.703125 44.40625 
Q 38.921875 48.1875 33.109375 48.1875 
Q 26.21875 48.1875 22.15625 43.53125 
Q 18.109375 38.875 18.109375 30.90625 
L 18.109375 0 
L 9.078125 0 
L 9.078125 54.6875 
L 18.109375 54.6875 
L 18.109375 46.1875 
Q 21.1875 51.21875 25.484375 53.609375 
Q 29.78125 56 35.6875 56 
Q 41.65625 56 45.828125 52.96875 
Q 50 49.953125 52 44.1875 
z
" id="DejaVuSans-109"/>
       <path d="M 18.109375 8.203125 
L 18.109375 -20.796875 
L 9.078125 -20.796875 
L 9.078125 54.6875 
L 18.109375 54.6875 
L 18.109375 46.390625 
Q 20.953125 51.265625 25.265625 53.625 
Q 29.59375 56 35.59375 56 
Q 45.5625 56 51.78125 48.09375 
Q 58.015625 40.1875 58.015625 27.296875 
Q 58.015625 14.40625 51.78125 6.484375 
Q 45.5625 -1.421875 35.59375 -1.421875 
Q 29.59375 -1.421875 25.265625 0.953125 
Q 20.953125 3.328125 18.109375 8.203125 
z
M 48.6875 27.296875 
Q 48.6875 37.203125 44.609375 42.84375 
Q 40.53125 48.484375 33.40625 48.484375 
Q 26.265625 48.484375 22.1875 42.84375 
Q 18.109375 37.203125 18.109375 27.296875 
Q 18.109375 17.390625 22.1875 11.75 
Q 26.265625 6.109375 33.40625 6.109375 
Q 40.53125 6.109375 44.609375 11.75 
Q 48.6875 17.390625 48.6875 27.296875 
z
" id="DejaVuSans-112"/>
       <path d="M 30.609375 48.390625 
Q 23.390625 48.390625 19.1875 42.75 
Q 14.984375 37.109375 14.984375 27.296875 
Q 14.984375 17.484375 19.15625 11.84375 
Q 23.34375 6.203125 30.609375 6.203125 
Q 37.796875 6.203125 41.984375 11.859375 
Q 46.1875 17.53125 46.1875 27.296875 
Q 46.1875 37.015625 41.984375 42.703125 
Q 37.796875 48.390625 30.609375 48.390625 
z
M 30.609375 56 
Q 42.328125 56 49.015625 48.375 
Q 55.71875 40.765625 55.71875 27.296875 
Q 55.71875 13.875 49.015625 6.21875 
Q 42.328125 -1.421875 30.609375 -1.421875 
Q 18.84375 -1.421875 12.171875 6.21875 
Q 5.515625 13.875 5.515625 27.296875 
Q 5.515625 40.765625 12.171875 48.375 
Q 18.84375 56 30.609375 56 
z
" id="DejaVuSans-111"/>
       <path id="DejaVuSans-32"/>
       <path d="M 31 75.875 
Q 24.46875 64.65625 21.28125 53.65625 
Q 18.109375 42.671875 18.109375 31.390625 
Q 18.109375 20.125 21.3125 9.0625 
Q 24.515625 -2 31 -13.1875 
L 23.1875 -13.1875 
Q 15.875 -1.703125 12.234375 9.375 
Q 8.59375 20.453125 8.59375 31.390625 
Q 8.59375 42.28125 12.203125 53.3125 
Q 15.828125 64.359375 23.1875 75.875 
z
" id="DejaVuSans-40"/>
       <path d="M 44.28125 53.078125 
L 44.28125 44.578125 
Q 40.484375 46.53125 36.375 47.5 
Q 32.28125 48.484375 27.875 48.484375 
Q 21.1875 48.484375 17.84375 46.4375 
Q 14.5 44.390625 14.5 40.28125 
Q 14.5 37.15625 16.890625 35.375 
Q 19.28125 33.59375 26.515625 31.984375 
L 29.59375 31.296875 
Q 39.15625 29.25 43.1875 25.515625 
Q 47.21875 21.78125 47.21875 15.09375 
Q 47.21875 7.46875 41.1875 3.015625 
Q 35.15625 -1.421875 24.609375 -1.421875 
Q 20.21875 -1.421875 15.453125 -0.5625 
Q 10.6875 0.296875 5.421875 2 
L 5.421875 11.28125 
Q 10.40625 8.6875 15.234375 7.390625 
Q 20.0625 6.109375 24.8125 6.109375 
Q 31.15625 6.109375 34.5625 8.28125 
Q 37.984375 10.453125 37.984375 14.40625 
Q 37.984375 18.0625 35.515625 20.015625 
Q 33.0625 21.96875 24.703125 23.78125 
L 21.578125 24.515625 
Q 13.234375 26.265625 9.515625 29.90625 
Q 5.8125 33.546875 5.8125 39.890625 
Q 5.8125 47.609375 11.28125 51.796875 
Q 16.75 56 26.8125 56 
Q 31.78125 56 36.171875 55.265625 
Q 40.578125 54.546875 44.28125 53.078125 
z
" id="DejaVuSans-115"/>
       <path d="M 8.015625 75.875 
L 15.828125 75.875 
Q 23.140625 64.359375 26.78125 53.3125 
Q 30.421875 42.28125 30.421875 31.390625 
Q 30.421875 20.453125 26.78125 9.375 
Q 23.140625 -1.703125 15.828125 -13.1875 
L 8.015625 -13.1875 
Q 14.5 -2 17.703125 9.0625 
Q 20.90625 20.125 20.90625 31.390625 
Q 20.90625 42.671875 17.703125 53.65625 
Q 14.5 64.65625 8.015625 75.875 
z
" id="DejaVuSans-41"/>
      </defs>
      <use xlink:href="#DejaVuSans-84"/>
      <use x="57.958984" xlink:href="#DejaVuSans-105"/>
      <use x="85.742188" xlink:href="#DejaVuSans-101"/>
      <use x="147.265625" xlink:href="#DejaVuSans-109"/>
      <use x="244.677734" xlink:href="#DejaVuSans-112"/>
      <use x="308.154297" xlink:href="#DejaVuSans-111"/>
      <use x="369.335938" xlink:href="#DejaVuSans-32"/>
      <use x="401.123047" xlink:href="#DejaVuSans-40"/>
      <use x="440.136719" xlink:href="#DejaVuSans-115"/>
      <use x="492.236328" xlink:href="#DejaVuSans-41"/>
     </g>
    </g>
   </g>
   <g id="matplotlib.axis_2">
    <g id="ytick_1">
     <g id="line2d_7">
      <defs>
       <path d="M 0 0 
L -3.5 0 
" id="m7b8f63067f" style="stroke:#000000;stroke-width:0.8;"/>
      </defs>
      <g>
       <use style="stroke:#000000;stroke-width:0.8;" x="59.059844" xlink:href="#m7b8f63067f" y="245.950093"/>
      </g>
     </g>
     <g id="text_8">
      <!-- −100 -->
      <g style="fill:#2ca02c;" transform="translate(21.845938 250.129234)scale(0.11 -0.11)">
       <defs>
        <path d="M 10.59375 35.5 
L 73.1875 35.5 
L 73.1875 27.203125 
L 10.59375 27.203125 
z
" id="DejaVuSans-8722"/>
       </defs>
       <use xlink:href="#DejaVuSans-8722"/>
       <use x="83.789062" xlink:href="#DejaVuSans-49"/>
       <use x="147.412109" xlink:href="#DejaVuSans-48"/>
       <use x="211.035156" xlink:href="#DejaVuSans-48"/>
      </g>
     </g>
    </g>
    <g id="ytick_2">
     <g id="line2d_8">
      <g>
       <use style="stroke:#000000;stroke-width:0.8;" x="59.059844" xlink:href="#m7b8f63067f" y="198.146059"/>
      </g>
     </g>
     <g id="text_9">
      <!-- −50 -->
      <g style="fill:#2ca02c;" transform="translate(28.844688 202.3252)scale(0.11 -0.11)">
       <defs>
        <path d="M 10.796875 72.90625 
L 49.515625 72.90625 
L 49.515625 64.59375 
L 19.828125 64.59375 
L 19.828125 46.734375 
Q 21.96875 47.46875 24.109375 47.828125 
Q 26.265625 48.1875 28.421875 48.1875 
Q 40.625 48.1875 47.75 41.5 
Q 54.890625 34.8125 54.890625 23.390625 
Q 54.890625 11.625 47.5625 5.09375 
Q 40.234375 -1.421875 26.90625 -1.421875 
Q 22.3125 -1.421875 17.546875 -0.640625 
Q 12.796875 0.140625 7.71875 1.703125 
L 7.71875 11.625 
Q 12.109375 9.234375 16.796875 8.0625 
Q 21.484375 6.890625 26.703125 6.890625 
Q 35.15625 6.890625 40.078125 11.328125 
Q 45.015625 15.765625 45.015625 23.390625 
Q 45.015625 31 40.078125 35.4375 
Q 35.15625 39.890625 26.703125 39.890625 
Q 22.75 39.890625 18.8125 39.015625 
Q 14.890625 38.140625 10.796875 36.28125 
z
" id="DejaVuSans-53"/>
       </defs>
       <use xlink:href="#DejaVuSans-8722"/>
       <use x="83.789062" xlink:href="#DejaVuSans-53"/>
       <use x="147.412109" xlink:href="#DejaVuSans-48"/>
      </g>
     </g>
    </g>
    <g id="ytick_3">
     <g id="line2d_9">
      <g>
       <use style="stroke:#000000;stroke-width:0.8;" x="59.059844" xlink:href="#m7b8f63067f" y="150.342025"/>
      </g>
     </g>
     <g id="text_10">
      <!-- 0 -->
      <g style="fill:#2ca02c;" transform="translate(45.061094 154.521166)scale(0.11 -0.11)">
       <use xlink:href="#DejaVuSans-48"/>
      </g>
     </g>
    </g>
    <g id="ytick_4">
     <g id="line2d_10">
      <g>
       <use style="stroke:#000000;stroke-width:0.8;" x="59.059844" xlink:href="#m7b8f63067f" y="102.537991"/>
      </g>
     </g>
     <g id="text_11">
      <!-- 50 -->
      <g style="fill:#2ca02c;" transform="translate(38.062344 106.717131)scale(0.11 -0.11)">
       <use xlink:href="#DejaVuSans-53"/>
       <use x="63.623047" xlink:href="#DejaVuSans-48"/>
      </g>
     </g>
    </g>
    <g id="ytick_5">
     <g id="line2d_11">
      <g>
       <use style="stroke:#000000;stroke-width:0.8;" x="59.059844" xlink:href="#m7b8f63067f" y="54.733957"/>
      </g>
     </g>
     <g id="text_12">
      <!-- 100 -->
      <g style="fill:#2ca02c;" transform="translate(31.063594 58.913097)scale(0.11 -0.11)">
       <use xlink:href="#DejaVuSans-49"/>
       <use x="63.623047" xlink:href="#DejaVuSans-48"/>
       <use x="127.246094" xlink:href="#DejaVuSans-48"/>
      </g>
     </g>
    </g>
    <g id="text_13">
     <!-- Voltaje (V) -->
     <g style="fill:#2ca02c;" transform="translate(15.558281 178.814234)rotate(-90)scale(0.11 -0.11)">
      <defs>
       <path d="M 28.609375 0 
L 0.78125 72.90625 
L 11.078125 72.90625 
L 34.1875 11.53125 
L 57.328125 72.90625 
L 67.578125 72.90625 
L 39.796875 0 
z
" id="DejaVuSans-86"/>
       <path d="M 9.421875 75.984375 
L 18.40625 75.984375 
L 18.40625 0 
L 9.421875 0 
z
" id="DejaVuSans-108"/>
       <path d="M 18.3125 70.21875 
L 18.3125 54.6875 
L 36.8125 54.6875 
L 36.8125 47.703125 
L 18.3125 47.703125 
L 18.3125 18.015625 
Q 18.3125 11.328125 20.140625 9.421875 
Q 21.96875 7.515625 27.59375 7.515625 
L 36.8125 7.515625 
L 36.8125 0 
L 27.59375 0 
Q 17.1875 0 13.234375 3.875 
Q 9.28125 7.765625 9.28125 18.015625 
L 9.28125 47.703125 
L 2.6875 47.703125 
L 2.6875 54.6875 
L 9.28125 54.6875 
L 9.28125 70.21875 
z
" id="DejaVuSans-116"/>
       <path d="M 34.28125 27.484375 
Q 23.390625 27.484375 19.1875 25 
Q 14.984375 22.515625 14.984375 16.5 
Q 14.984375 11.71875 18.140625 8.90625 
Q 21.296875 6.109375 26.703125 6.109375 
Q 34.1875 6.109375 38.703125 11.40625 
Q 43.21875 16.703125 43.21875 25.484375 
L 43.21875 27.484375 
z
M 52.203125 31.203125 
L 52.203125 0 
L 43.21875 0 
L 43.21875 8.296875 
Q 40.140625 3.328125 35.546875 0.953125 
Q 30.953125 -1.421875 24.3125 -1.421875 
Q 15.921875 -1.421875 10.953125 3.296875 
Q 6 8.015625 6 15.921875 
Q 6 25.140625 12.171875 29.828125 
Q 18.359375 34.515625 30.609375 34.515625 
L 43.21875 34.515625 
L 43.21875 35.40625 
Q 43.21875 41.609375 39.140625 45 
Q 35.0625 48.390625 27.6875 48.390625 
Q 23 48.390625 18.546875 47.265625 
Q 14.109375 46.140625 10.015625 43.890625 
L 10.015625 52.203125 
Q 14.9375 54.109375 19.578125 55.046875 
Q 24.21875 56 28.609375 56 
Q 40.484375 56 46.34375 49.84375 
Q 52.203125 43.703125 52.203125 31.203125 
z
" id="DejaVuSans-97"/>
       <path d="M 9.421875 54.6875 
L 18.40625 54.6875 
L 18.40625 -0.984375 
Q 18.40625 -11.421875 14.421875 -16.109375 
Q 10.453125 -20.796875 1.609375 -20.796875 
L -1.8125 -20.796875 
L -1.8125 -13.1875 
L 0.59375 -13.1875 
Q 5.71875 -13.1875 7.5625 -10.8125 
Q 9.421875 -8.453125 9.421875 -0.984375 
z
M 9.421875 75.984375 
L 18.40625 75.984375 
L 18.40625 64.59375 
L 9.421875 64.59375 
z
" id="DejaVuSans-106"/>
      </defs>
      <use xlink:href="#DejaVuSans-86"/>
      <use x="60.658203" xlink:href="#DejaVuSans-111"/>
      <use x="121.839844" xlink:href="#DejaVuSans-108"/>
      <use x="149.623047" xlink:href="#DejaVuSans-116"/>
      <use x="188.832031" xlink:href="#DejaVuSans-97"/>
      <use x="250.111328" xlink:href="#DejaVuSans-106"/>
      <use x="277.894531" xlink:href="#DejaVuSans-101"/>
      <use x="339.417969" xlink:href="#DejaVuSans-32"/>
      <use x="371.205078" xlink:href="#DejaVuSans-40"/>
      <use x="410.21875" xlink:href="#DejaVuSans-86"/>
      <use x="478.626953" xlink:href="#DejaVuSans-41"/>
     </g>
    </g>
   </g>
   <g id="line2d_12">
    <path clip-path="url(#pf9fda2371c)" d="M 95.165526 150.342025 
L 95.922717 106.160932 
L 96.627906 71.015091 
L 97.607131 40.605735 
L 98.016392 36.002138 
L 98.296045 35.843881 
L 98.552996 37.84689 
L 98.969899 45.366689 
L 99.636049 67.428254 
L 100.341238 101.523107 
L 102.456805 221.131424 
L 103.161994 248.881905 
L 103.76845 262.278995 
L 104.149117 265.043029 
L 104.356554 264.648328 
L 104.640381 261.941948 
L 105.100102 252.416554 
L 105.805291 226.725434 
L 107.215669 149.448579 
L 108.626048 72.634616 
L 109.6204 40.996726 
L 110.031787 36.106104 
L 110.284085 35.699169 
L 110.511427 37.034118 
L 110.880841 42.585928 
L 111.474566 59.73583 
L 112.179756 91.136696 
L 115.000512 242.338912 
L 115.747178 261.488296 
L 115.92835 263.678403 
L 116.148781 264.975638 
L 116.378551 264.713615 
L 116.654094 262.233837 
L 117.100649 253.348144 
L 117.805838 228.26278 
L 118.511027 192.734914 
L 120.626594 74.175492 
L 121.331784 48.400374 
L 121.854246 37.988776 
L 122.055314 36.173182 
L 122.273583 35.625308 
L 122.472204 36.420011 
L 122.795287 40.318006 
L 123.316963 53.121304 
L 124.022152 81.559963 
L 125.432531 161.044135 
L 126.13772 201.437625 
L 126.842909 234.983568 
L 127.72501 260.586043 
L 128.131516 264.803974 
L 128.394218 264.800145 
L 128.657504 262.639625 
L 129.084527 254.665405 
L 129.765898 231.506536 
L 130.471087 196.884853 
L 132.586654 77.600254 
L 133.291843 50.543988 
L 133.868331 38.252016 
L 134.064898 36.33509 
L 134.263269 35.616727 
L 134.454318 36.087036 
L 134.744214 38.964936 
L 135.213562 48.970793 
L 135.918751 75.100088 
L 137.329129 152.756151 
L 138.739507 229.161461 
L 139.721898 259.928159 
L 140.131974 264.642934 
L 140.387117 264.94652 
L 140.623853 263.411811 
L 141.008365 257.263954 
L 141.625285 238.598181 
L 142.330474 206.301964 
L 144.446042 86.039757 
L 145.151231 56.152538 
L 145.853427 38.930738 
L 146.037773 36.813952 
L 146.266537 35.649429 
L 146.477664 36.024564 
L 146.760123 38.69293 
L 147.217673 48.111409 
L 147.922862 73.703115 
L 149.33324 150.892599 
L 150.743619 227.796832 
L 151.741553 259.648397 
L 152.153151 264.567169 
L 152.378996 265.038421 
L 152.588513 264.051304 
L 152.9292 259.556253 
L 153.478399 245.158667 
L 154.183588 215.557319 
L 157.004345 62.796683 
L 157.8352 39.738481 
L 158.239756 35.803932 
L 158.489809 35.915771 
L 158.75781 38.196838 
L 159.192353 46.516679 
L 159.884986 70.501278 
L 160.590175 105.503466 
L 162.705742 224.511 
L 163.410931 251.043502 
L 163.96514 262.542517 
L 164.163703 264.419239 
L 164.345692 265.063869 
L 164.540288 264.608366 
L 164.828871 261.767968 
L 165.296138 251.866897 
L 166.001327 225.831994 
L 167.411705 148.256801 
L 168.822083 71.761957 
L 169.805964 40.827094 
L 170.216428 36.06002 
L 170.470722 35.725357 
L 170.704657 37.199311 
L 171.08467 43.166636 
L 171.694694 61.375955 
L 172.399883 93.409075 
L 174.51545 213.71565 
L 175.220639 243.888909 
L 175.936101 261.675725 
L 176.119125 263.811331 
L 176.346294 265.020884 
L 176.562641 264.675019 
L 176.843165 262.06004 
L 177.29764 252.791979 
L 178.002829 227.341357 
L 179.413207 150.276703 
L 180.823585 73.245892 
L 181.826587 41.091009 
L 182.238486 36.132332 
L 182.462213 35.638996 
L 182.668682 36.570746 
L 183.004448 40.895016 
L 183.545971 54.839595 
L 184.25116 84.120419 
L 187.071916 237.088876 
L 187.917126 260.847219 
L 188.322216 264.860221 
L 188.575786 264.777313 
L 188.842477 262.530032 
L 189.274931 254.306873 
L 189.96444 230.552499 
L 190.669629 195.655062 
L 192.785196 76.567452 
L 193.490385 49.888797 
L 194.050783 38.17195 
L 194.24886 36.283512 
L 194.431176 35.622094 
L 194.627396 36.070534 
L 194.915378 38.893835 
L 195.381691 48.74709 
L 196.08688 74.738705 
L 197.497259 152.27666 
L 198.907637 228.812286 
L 199.892201 259.824213 
L 200.302843 264.615248 
L 200.556749 264.964053 
L 200.789403 263.517554 
L 201.167356 257.632021 
L 201.77422 239.630261 
L 202.479409 207.718597 
L 204.594977 87.39552 
L 205.300166 57.092274 
L 206.021694 39.044219 
L 206.204112 36.900154 
L 206.430547 35.670194 
L 206.64929 36.002 
L 206.928925 38.592631 
L 207.381988 47.791983 
L 208.087177 73.177677 
L 209.497556 150.184558 
L 210.907934 227.273023 
L 211.613123 252.75047 
L 212.123254 262.753177 
L 212.3253 264.544546 
L 212.548053 265.047852 
L 212.753123 264.141124 
L 213.086628 259.894295 
L 213.62462 246.155916 
L 214.329809 217.023501 
L 217.150566 63.965422 
L 218.002362 39.88256 
L 218.4077 35.833327 
L 218.662891 35.90262 
L 218.928978 38.134405 
L 219.360469 46.313171 
L 220.048536 69.961639 
L 220.753726 104.810545 
L 222.869293 223.93426 
L 223.574482 250.680117 
L 224.137733 262.498008 
L 224.33556 264.391655 
L 224.538942 265.071272 
L 224.722786 264.573527 
L 225.015349 261.618771 
L 225.488922 251.39863 
L 226.194111 225.078273 
L 227.604489 147.259918 
L 229.014867 71.038396 
L 229.994238 40.612606 
L 230.403536 36.003895 
L 230.683412 35.843375 
L 230.94028 37.844346 
L 231.35705 45.358241 
L 232.022998 67.405462 
L 232.728187 101.493263 
L 234.843755 221.105467 
L 235.548944 248.865009 
L 236.155794 262.276945 
L 236.536273 265.042566 
L 236.743925 264.648987 
L 237.027672 261.944843 
L 237.487266 252.425733 
L 238.192456 226.740437 
L 239.602834 149.468686 
L 241.013212 72.649411 
L 242.007775 40.999004 
L 242.419173 36.106733 
L 242.671445 35.698844 
L 242.8987 37.031979 
L 243.267972 42.578345 
L 243.86148 59.714282 
L 244.566669 91.106606 
L 247.387425 242.317915 
L 248.134507 261.485753 
L 248.315721 263.677201 
L 248.536124 264.975252 
L 248.765992 264.713892 
L 249.041499 262.235098 
L 249.487995 253.352194 
L 250.193185 228.269531 
L 250.898374 192.74346 
L 253.013941 74.182371 
L 253.71913 48.404594 
L 254.241703 37.989298 
L 254.442762 36.173488 
L 254.660991 35.625225 
L 254.859554 36.418948 
L 255.182544 40.313876 
L 255.704073 53.108906 
L 256.409263 81.541274 
L 257.819641 161.020884 
L 258.52483 201.416715 
L 259.230019 234.967802 
L 260.112391 260.584076 
L 260.518908 264.803532 
L 260.781677 264.80031 
L 261.044938 262.640429 
L 261.471921 254.668042 
L 262.153231 231.513573 
L 262.858421 196.893954 
L 264.973988 77.607955 
L 265.679177 50.548901 
L 266.255784 38.252616 
L 266.45234 36.335481 
L 266.650665 35.616782 
L 266.84178 36.086827 
L 267.131652 38.964037 
L 267.600961 48.967967 
L 268.30615 75.095533 
L 269.716528 152.750119 
L 271.126906 229.157077 
L 272.109324 259.926857 
L 272.519408 264.642591 
L 272.774535 264.946749 
L 273.011219 263.413164 
L 273.395649 257.268642 
L 274.012443 238.611278 
L 274.717632 206.319859 
L 276.833199 86.056736 
L 277.538388 56.164244 
L 278.240828 38.932151 
L 278.42515 36.815016 
L 278.653885 35.649661 
L 278.865108 36.024277 
L 279.147531 38.691661 
L 279.605025 48.107377 
L 280.310214 73.696505 
L 281.720592 150.883716 
L 283.13097 227.790278 
L 284.128997 259.647387 
L 284.540601 264.566889 
L 284.766408 265.03855 
L 284.975869 264.052456 
L 285.316465 259.560557 
L 285.865524 245.171312 
L 286.570713 215.575799 
L 289.39147 62.811202 
L 290.222588 39.740266 
L 290.627154 35.804286 
L 290.87727 35.915605 
L 291.145248 38.196052 
L 291.579753 46.514124 
L 292.272329 70.494514 
L 292.977518 105.494796 
L 295.093085 224.503814 
L 295.798274 251.038988 
L 296.352595 262.541963 
L 296.55115 264.4189 
L 296.73308 265.06379 
L 296.927747 264.60859 
L 297.216303 261.768938 
L 297.683528 251.869949 
L 298.388717 225.836929 
L 299.799096 148.263353 
L 301.209474 71.766732 
L 302.193384 40.828517 
L 302.603856 36.060401 
L 302.858134 35.725121 
L 303.092012 37.197876 
L 303.471935 43.16163 
L 304.081822 61.3619 
L 304.787011 93.389748 
L 306.902579 213.697091 
L 307.607768 243.876018 
L 308.323493 261.674168 
L 308.506491 263.810144 
L 308.733628 265.020588 
L 308.950079 264.675326 
L 309.230564 262.061408 
L 309.684978 252.796338 
L 310.390167 227.348537 
L 311.800545 150.286389 
L 313.210924 73.253065 
L 314.214026 41.092117 
L 314.625932 36.132642 
L 314.849616 35.638872 
L 315.056024 36.569529 
L 315.391692 40.890418 
L 315.933061 54.82601 
L 316.63825 84.100398 
L 319.459007 237.072827 
L 320.304503 260.845238 
L 320.709603 264.859813 
L 320.963244 264.777492 
L 321.229909 262.530885 
L 321.662321 254.309657 
L 322.351767 230.559883 
L 323.056956 195.66455 
L 325.172524 76.575363 
L 325.877713 49.893787 
L 326.438234 38.172561 
L 326.636302 36.283889 
L 326.818683 35.622089 
L 327.014899 36.070547 
L 327.302882 38.893893 
L 327.769198 48.747273 
L 328.474387 74.739001 
L 329.884765 152.277054 
L 331.295143 228.812573 
L 332.279706 259.824298 
L 332.690347 264.615271 
L 332.944255 264.964039 
L 333.176911 263.517469 
L 333.55487 257.631722 
L 334.161743 239.629421 
L 334.866932 207.717438 
L 336.982499 87.394401 
L 337.687688 57.091494 
L 338.4092 39.044125 
L 338.59162 36.900082 
L 338.818057 35.670175 
L 339.036794 36.002019 
L 339.316431 38.592712 
L 339.769498 47.792244 
L 340.474687 73.178109 
L 341.885065 150.185142 
L 343.295444 227.273455 
L 344.000633 252.750733 
L 344.510757 262.753209 
L 344.712803 264.544565 
L 344.935559 265.047845 
L 345.140632 264.141051 
L 345.474144 259.894021 
L 346.012145 246.155103 
L 346.717334 217.022298 
L 349.538091 63.964449 
L 350.389869 39.88244 
L 350.795207 35.833301 
L 351.050393 35.902631 
L 351.316482 38.134456 
L 351.747975 46.313338 
L 352.436047 69.962085 
L 353.141236 104.811117 
L 355.256803 223.934739 
L 355.961992 250.68042 
L 356.525236 262.498045 
L 356.723063 264.391679 
L 356.926449 265.071273 
L 357.110288 264.573514 
L 357.402853 261.618714 
L 357.876428 251.398451 
L 358.581617 225.077987 
L 359.991995 147.259542 
L 361.402373 71.038124 
L 362.381743 40.612526 
L 362.791041 36.003874 
L 363.070914 35.843381 
L 363.327782 37.844376 
L 363.744554 45.35834 
L 364.410505 67.405729 
L 365.115694 101.493612 
L 367.231261 221.105771 
L 367.93645 248.865207 
L 368.543296 262.276969 
L 368.923777 265.042571 
L 369.131427 264.648979 
L 369.415175 261.944809 
L 369.87477 252.425626 
L 370.57996 226.740261 
L 371.990338 149.468451 
L 373.400716 72.649238 
L 374.395276 40.998978 
L 374.806675 36.106725 
L 375.058947 35.698847 
L 375.286202 37.032004 
L 375.655476 42.578433 
L 376.248987 59.714534 
L 376.954176 91.106958 
L 379.774932 242.318161 
L 380.522009 261.485783 
L 380.703222 263.677215 
L 380.923626 264.975257 
L 381.153493 264.713888 
L 381.429 262.235083 
L 381.875497 253.352146 
L 382.580686 228.269452 
L 383.285875 192.74336 
L 385.401443 74.18229 
L 386.106632 48.404544 
L 386.629203 37.989292 
L 386.830263 36.173485 
L 387.048492 35.625226 
L 387.247056 36.418961 
L 387.570047 40.313925 
L 388.091578 53.109051 
L 388.796767 81.541492 
L 390.207145 161.021156 
L 390.912334 201.41696 
L 391.617524 234.967986 
L 392.499893 260.584099 
L 392.90641 264.803537 
L 393.169178 264.800308 
L 393.432439 262.640419 
L 393.859422 254.668011 
L 394.540733 231.513491 
L 395.245922 196.893848 
L 397.36149 77.607865 
L 398.066679 50.548843 
L 398.643285 38.252609 
L 398.83984 36.335477 
L 399.038166 35.616781 
L 399.22928 36.086829 
L 399.519152 38.964047 
L 399.988462 48.968 
L 400.693651 75.095586 
L 402.104029 152.750189 
L 403.514408 229.157128 
L 404.496825 259.926872 
L 404.906909 264.642595 
L 405.162036 264.946746 
L 405.398721 263.413148 
L 405.783151 257.268587 
L 406.399947 238.611125 
L 407.105136 206.31965 
L 409.220703 86.056537 
L 409.925892 56.164107 
L 410.628329 38.932135 
L 410.812652 36.815003 
L 411.041387 35.649658 
L 411.252608 36.02428 
L 411.535033 38.691676 
L 411.992527 48.107425 
L 412.697716 73.696582 
L 414.108094 150.883819 
L 415.518472 227.790354 
L 416.516498 259.647398 
L 416.928102 264.566892 
L 417.153909 265.038548 
L 417.36337 264.052443 
L 417.703968 259.560507 
L 418.253029 245.171165 
L 418.958218 215.575583 
L 421.778974 62.811032 
L 422.610089 39.740245 
L 423.014655 35.804282 
L 423.264771 35.915607 
L 423.532748 38.196062 
L 423.967254 46.514154 
L 424.659831 70.494593 
L 425.36502 105.494897 
L 427.480587 224.503898 
L 428.185776 251.039041 
L 428.740096 262.54197 
L 428.93865 264.418904 
L 429.120581 265.063791 
L 429.315247 264.608588 
L 429.603804 261.768927 
L 430.071029 251.869914 
L 430.776219 225.836871 
L 432.186597 148.263277 
L 433.596975 71.766677 
L 434.580885 40.8285 
L 434.991357 36.060396 
L 435.245635 35.725124 
L 435.479514 37.197892 
L 435.859438 43.161689 
L 436.469327 61.362064 
L 437.174516 93.389974 
L 439.290083 213.697308 
L 439.995272 243.876169 
L 440.710994 261.674186 
L 440.893993 263.810158 
L 441.12113 265.020591 
L 441.33758 264.675323 
L 441.618066 262.061392 
L 442.07248 252.796287 
L 442.777669 227.348453 
L 444.188047 150.286275 
L 445.598425 73.252981 
L 446.601527 41.092104 
L 447.013433 36.132639 
L 447.237117 35.638873 
L 447.443526 36.569543 
L 447.779195 40.890472 
L 448.320566 54.826169 
L 449.025755 84.100633 
L 451.846512 237.073015 
L 452.692004 260.845262 
L 453.097105 264.859817 
L 453.350745 264.77749 
L 453.617409 262.530875 
L 454.049822 254.309624 
L 454.739269 230.559797 
L 455.444458 195.664439 
L 457.560026 76.57527 
L 458.265215 49.893728 
L 458.825735 38.172554 
L 459.023802 36.283885 
L 459.206183 35.622089 
L 459.402399 36.070547 
L 459.690382 38.893892 
L 460.156698 48.747271 
L 460.861887 74.738998 
L 462.272265 152.27705 
L 463.682643 228.81257 
L 464.667206 259.824297 
L 465.077847 264.615271 
L 465.331755 264.964039 
L 465.564411 263.51747 
L 465.94237 257.631726 
L 466.549242 239.629431 
L 467.254431 207.717451 
L 469.369999 87.394414 
L 470.075188 57.091504 
L 470.7967 39.044126 
L 470.97912 36.900083 
L 471.205557 35.670175 
L 471.424294 36.002018 
L 471.703931 38.592712 
L 472.156998 47.792241 
L 472.862187 73.178104 
L 474.272565 150.185135 
L 475.682944 227.27345 
L 476.388133 252.75073 
L 476.898257 262.753209 
L 477.100303 264.544565 
L 477.323059 265.047845 
L 477.528132 264.141052 
L 477.861643 259.894024 
L 478.399645 246.155113 
L 479.104834 217.022312 
L 481.92559 63.964461 
L 482.777369 39.882441 
L 483.182706 35.833302 
L 483.437893 35.902631 
L 483.703982 38.134456 
L 484.135475 46.313336 
L 484.823547 69.962079 
L 485.528736 104.811111 
L 487.644303 223.934733 
L 488.349492 250.680416 
L 488.912736 262.498044 
L 489.110563 264.391678 
L 489.313949 265.071273 
L 489.497788 264.573514 
L 489.790353 261.618715 
L 490.263928 251.398453 
L 490.969117 225.07799 
L 492.379495 147.259546 
L 493.789873 71.038127 
L 494.769243 40.612527 
L 495.178541 36.003875 
L 495.458413 35.843381 
L 495.715282 37.844375 
L 496.132054 45.358339 
L 496.798005 67.405725 
L 497.503194 101.493608 
L 499.618761 221.105767 
L 500.32395 248.865204 
L 500.930796 262.276969 
L 501.311277 265.042571 
L 501.518927 264.648979 
L 501.802675 261.944809 
L 502.26227 252.425627 
L 502.967459 226.740263 
L 504.377838 149.468454 
L 505.788216 72.64924 
L 506.782776 40.998978 
L 507.194175 36.106725 
L 507.446447 35.698847 
L 507.673702 37.032004 
L 508.042976 42.578432 
L 508.636487 59.714531 
L 509.341676 91.106953 
L 512.162432 242.318158 
L 512.909509 261.485782 
L 513.090722 263.677215 
L 513.311126 264.975257 
L 513.540993 264.713889 
L 513.8165 262.235083 
L 514.262997 253.352147 
L 514.968186 228.269453 
L 515.673375 192.743361 
L 517.788943 74.182291 
L 518.494132 48.404545 
L 519.016703 37.989292 
L 519.217763 36.173485 
L 519.435992 35.625226 
L 519.634556 36.418961 
L 519.957547 40.313924 
L 520.479078 53.10905 
L 521.184267 81.54149 
L 522.594645 161.021153 
L 523.299834 201.416957 
L 524.005023 234.967984 
L 524.887393 260.584099 
L 525.29391 264.803537 
L 525.556678 264.800308 
L 525.819939 262.64042 
L 526.246922 254.668012 
L 526.928233 231.513492 
L 527.633422 196.893849 
L 529.74899 77.607866 
L 530.454179 50.548844 
L 531.030785 38.252609 
L 531.22734 36.335477 
L 531.425666 35.616781 
L 531.61678 36.086829 
L 531.906652 38.964047 
L 532.375962 48.968 
L 533.081151 75.095586 
L 534.491529 152.750189 
L 535.901908 229.157127 
L 536.884325 259.926872 
L 537.294409 264.642595 
L 537.549536 264.946746 
L 537.786221 263.413148 
L 538.170651 257.268587 
L 538.787447 238.611127 
L 539.492636 206.319652 
L 541.608203 86.05654 
L 542.313392 56.164109 
L 543.015829 38.932135 
L 543.200152 36.815004 
L 543.428887 35.649658 
L 543.640108 36.02428 
L 543.922532 38.691676 
L 544.380027 48.107424 
L 545.085216 73.696581 
L 546.495594 150.883818 
L 547.905972 227.790354 
L 548.903998 259.647398 
L 549.315602 264.566892 
L 549.541409 265.038548 
L 549.75087 264.052443 
L 550.091468 259.560508 
L 550.640529 245.171166 
L 551.345718 215.575585 
L 554.166474 62.811034 
L 554.997589 39.740245 
L 555.402155 35.804282 
L 555.652271 35.915607 
L 555.920248 38.196061 
L 556.354754 46.514154 
L 557.047331 70.494592 
L 557.75252 105.494896 
L 559.868087 224.503897 
L 560.573276 251.03904 
L 561.127596 262.54197 
L 561.32615 264.418904 
L 561.508081 265.063791 
L 561.702747 264.608588 
L 561.991304 261.768927 
L 562.458529 251.869914 
L 563.163719 225.836872 
L 564.574097 148.263277 
L 565.984475 71.766677 
L 566.968385 40.8285 
L 567.378857 36.060396 
L 567.633135 35.725124 
L 567.867014 37.197892 
L 568.246938 43.161688 
L 568.856826 61.362062 
L 569.562016 93.389971 
L 571.677583 213.697305 
L 572.382772 243.876167 
L 573.098494 261.674186 
L 573.281493 263.810158 
L 573.50863 265.020591 
L 573.72508 264.675323 
L 574.005566 262.061392 
L 574.45998 252.796288 
L 575.165169 227.348454 
L 576.575547 150.286277 
L 577.985925 73.252982 
L 578.989027 41.092104 
L 579.400933 36.132639 
L 579.624617 35.638873 
L 579.831026 36.569543 
L 580.166695 40.890471 
L 580.708066 54.826167 
L 581.413255 84.10063 
L 584.234011 237.073013 
L 585.079504 260.845261 
L 585.484605 264.859817 
L 585.738245 264.77749 
L 586.004909 262.530875 
L 586.437322 254.309624 
L 587.126769 230.559798 
L 587.831958 195.664441 
L 589.947526 76.575271 
L 590.652715 49.893729 
L 591.213235 38.172554 
L 591.411302 36.283885 
L 591.593683 35.622089 
L 591.789899 36.070547 
L 592.077882 38.893892 
L 592.544198 48.747271 
L 593.249387 74.738998 
L 594.659765 152.27705 
L 596.070143 228.81257 
L 597.054706 259.824297 
L 597.465347 264.615271 
L 597.719255 264.964039 
L 597.951911 263.51747 
L 598.32987 257.631726 
L 598.936742 239.62943 
L 599.641931 207.717451 
L 601.757499 87.394414 
L 602.462688 57.091503 
L 603.1842 39.044126 
L 603.36662 36.900083 
L 603.593057 35.670175 
L 603.811794 36.002018 
L 604.091431 38.592712 
L 604.544498 47.792241 
L 605.249687 73.178104 
L 606.660065 150.185135 
L 608.070444 227.27345 
L 608.775633 252.75073 
L 609.285757 262.753209 
L 609.487803 264.544565 
L 609.710559 265.047845 
L 609.915632 264.141052 
L 610.249143 259.894024 
L 610.787145 246.155113 
L 611.492334 217.022312 
L 614.31309 63.964461 
L 615.164869 39.882441 
L 615.570206 35.833302 
L 615.825393 35.902631 
L 616.091482 38.134456 
L 616.522975 46.313336 
L 617.211047 69.962079 
L 617.916236 104.811111 
L 620.031803 223.934733 
L 620.736992 250.680416 
L 621.300236 262.498044 
L 621.498063 264.391678 
L 621.701449 265.071273 
L 621.885288 264.573514 
L 622.177853 261.618715 
L 622.651428 251.398453 
L 623.356617 225.07799 
L 624.766995 147.259546 
L 626.177373 71.038127 
L 627.156743 40.612527 
L 627.566041 36.003875 
L 627.845913 35.843381 
L 628.102782 37.844375 
L 628.519554 45.358339 
L 629.185505 67.405725 
L 629.890694 101.493608 
L 632.006261 221.105767 
L 632.71145 248.865205 
L 633.318296 262.276969 
L 633.698777 265.042571 
L 633.906427 264.648979 
L 634.190175 261.944809 
L 634.64977 252.425627 
L 635.354959 226.740263 
L 636.765338 149.468454 
L 638.175716 72.64924 
L 639.170276 40.998978 
L 639.581675 36.106725 
L 639.833947 35.698847 
L 640.061202 37.032004 
L 640.430476 42.578432 
L 641.023987 59.714531 
L 641.729176 91.106954 
L 644.549932 242.318158 
L 645.297009 261.485782 
L 645.478222 263.677215 
L 645.698626 264.975257 
L 645.928493 264.713889 
L 646.204 262.235083 
L 646.650497 253.352147 
L 647.355686 228.269453 
L 648.060875 192.743361 
L 650.176443 74.182291 
L 650.881632 48.404545 
L 651.404203 37.989292 
L 651.605263 36.173485 
L 651.823492 35.625226 
L 652.022056 36.418961 
L 652.345047 40.313924 
L 652.866578 53.10905 
L 653.571767 81.54149 
L 654.982145 161.021153 
L 655.687334 201.416957 
L 656.392523 234.967984 
L 657.274893 260.584099 
L 657.68141 264.803537 
L 657.944178 264.800308 
L 658.207439 262.64042 
L 658.634422 254.668012 
L 659.315733 231.513492 
L 660.020922 196.893849 
L 662.13649 77.607866 
L 662.841679 50.548844 
L 663.418285 38.252609 
L 663.61484 36.335477 
L 663.813166 35.616781 
L 664.00428 36.086829 
L 664.294152 38.964047 
L 664.763462 48.968 
L 665.468651 75.095586 
L 666.879029 152.750189 
L 668.289408 229.157127 
L 669.271825 259.926872 
L 669.681909 264.642595 
L 669.937036 264.946746 
L 670.173721 263.413148 
L 670.558151 257.268587 
L 671.174947 238.611127 
L 671.880136 206.319652 
L 673.995703 86.05654 
L 674.700892 56.164109 
L 675.403329 38.932135 
L 675.587652 36.815004 
L 675.816387 35.649658 
L 676.027608 36.02428 
L 676.310032 38.691676 
L 676.767527 48.107424 
L 677.472716 73.696581 
L 678.883094 150.883818 
L 680.293472 227.790354 
L 681.291498 259.647398 
L 681.703102 264.566892 
L 681.928909 265.038548 
L 682.13837 264.052443 
L 682.478968 259.560508 
L 683.028029 245.171166 
L 683.733218 215.575585 
L 686.553974 62.811034 
L 687.385089 39.740245 
L 687.789655 35.804282 
L 688.039771 35.915607 
L 688.307748 38.196061 
L 688.742254 46.514154 
L 689.434831 70.494592 
L 690.14002 105.494896 
L 692.255587 224.503897 
L 692.960776 251.03904 
L 693.515096 262.54197 
L 693.71365 264.418904 
L 693.895581 265.063791 
L 694.090247 264.608588 
L 694.378804 261.768927 
L 694.846029 251.869914 
L 695.551219 225.836872 
L 696.961597 148.263277 
L 698.371975 71.766677 
L 699.355885 40.8285 
L 699.766357 36.060396 
L 700.020635 35.725124 
L 700.254514 37.197892 
L 700.634438 43.161688 
L 701.244326 61.362062 
L 701.949516 93.389971 
L 704.065083 213.697305 
L 704.770272 243.876167 
L 705.485994 261.674186 
L 705.668993 263.810158 
L 705.89613 265.020591 
L 706.11258 264.675323 
L 706.393066 262.061392 
L 706.84748 252.796288 
L 707.552669 227.348454 
L 708.963047 150.286277 
L 710.373425 73.252982 
L 711.376527 41.092104 
L 711.788433 36.132639 
L 712.012117 35.638873 
L 712.218526 36.569543 
L 712.554195 40.890471 
L 713.095566 54.826167 
L 713.800755 84.10063 
L 716.621511 237.073013 
L 717.467004 260.845261 
L 717.872105 264.859817 
L 718.125745 264.77749 
L 718.392409 262.530875 
L 718.824822 254.309624 
L 719.514269 230.559798 
L 720.219458 195.664441 
L 722.335026 76.575271 
L 723.040215 49.893729 
L 723.600735 38.172554 
L 723.798802 36.283885 
L 723.981183 35.622089 
L 724.177399 36.070547 
L 724.465382 38.893892 
L 724.931698 48.747271 
L 725.636887 74.738998 
L 727.047265 152.27705 
L 728.457643 228.81257 
L 729.442206 259.824297 
L 729.852847 264.615271 
L 730.106755 264.964039 
L 730.339411 263.51747 
L 730.71737 257.631726 
L 731.324242 239.62943 
L 732.029431 207.717451 
L 734.144999 87.394414 
L 734.850188 57.091503 
L 735.5717 39.044126 
L 735.75412 36.900083 
L 735.980557 35.670175 
L 736.199294 36.002018 
L 736.478931 38.592712 
L 736.931998 47.792241 
L 737.637187 73.178104 
L 739.047565 150.185135 
L 740.457944 227.27345 
L 741.163133 252.75073 
L 741.673257 262.753209 
L 741.875303 264.544565 
L 742.098059 265.047845 
L 742.303132 264.141052 
L 742.636643 259.894024 
L 743.174645 246.155113 
L 743.879834 217.022312 
L 746.70059 63.964461 
L 747.552369 39.882441 
L 747.957706 35.833302 
L 748.212893 35.902631 
L 748.478982 38.134456 
L 748.910475 46.313336 
L 749.598547 69.962079 
L 750.303736 104.811111 
L 752.419303 223.934733 
L 753.124492 250.680416 
L 753.687736 262.498044 
L 753.885563 264.391678 
L 754.088949 265.071273 
L 754.272788 264.573514 
L 754.565353 261.618715 
L 755.038928 251.398453 
L 755.744117 225.07799 
L 757.154495 147.259546 
L 758.564873 71.038127 
L 759.544243 40.612527 
L 759.953541 36.003875 
L 760.233413 35.843381 
L 760.490282 37.844375 
L 760.907054 45.358339 
L 761.573005 67.405725 
L 762.278194 101.493608 
L 764.393761 221.105767 
L 765.09895 248.865205 
L 765.705796 262.276969 
L 766.086277 265.042571 
L 766.293927 264.648979 
L 766.577675 261.944809 
L 767.03727 252.425627 
L 767.742459 226.740263 
L 769.152838 149.468454 
L 770.563216 72.64924 
L 771.557776 40.998978 
L 771.969175 36.106725 
L 772.221447 35.698847 
L 772.448702 37.032004 
L 772.817976 42.578432 
L 773.411487 59.714531 
L 774.116676 91.106954 
L 776.937432 242.318158 
L 777.684509 261.485782 
L 777.865722 263.677215 
L 778.086126 264.975257 
L 778.315993 264.713889 
L 778.5915 262.235083 
L 779.037997 253.352147 
L 779.743186 228.269453 
L 780.448375 192.743361 
L 782.563943 74.182291 
L 783.269132 48.404545 
L 783.791703 37.989292 
L 783.992763 36.173485 
L 784.210992 35.625226 
L 784.409556 36.418961 
L 784.732547 40.313924 
L 785.254078 53.10905 
L 785.959267 81.54149 
L 787.369645 161.021153 
L 788.074834 201.416957 
L 788.780023 234.967984 
L 789.662393 260.584099 
L 790.06891 264.803537 
L 790.331678 264.800308 
L 790.594939 262.64042 
L 791.021922 254.668012 
L 791.703233 231.513492 
L 792.408422 196.893849 
L 794.52399 77.607866 
L 795.229179 50.548844 
L 795.805785 38.252609 
L 796.00234 36.335477 
L 796.200666 35.616781 
L 796.39178 36.086829 
L 796.681652 38.964047 
L 797.150962 48.968 
L 797.856151 75.095586 
L 799.266529 152.750189 
L 800.676908 229.157127 
L 801.659325 259.926872 
L 802.069409 264.642595 
L 802.324536 264.946746 
L 802.561221 263.413148 
L 802.945651 257.268587 
L 803.562447 238.611127 
L 804.267636 206.319652 
L 806.383203 86.05654 
L 807.088392 56.164109 
L 807.790829 38.932135 
L 807.975152 36.815004 
L 808.203887 35.649658 
L 808.415108 36.02428 
L 808.697532 38.691676 
L 809.155027 48.107424 
L 809.860216 73.696581 
L 811.270594 150.883818 
L 812.680972 227.790354 
L 813.678998 259.647398 
L 814.090602 264.566892 
L 814.316409 265.038548 
L 814.52587 264.052443 
L 814.866468 259.560508 
L 815.415529 245.171166 
L 816.120718 215.575585 
L 817.279162 150.342025 
L 817.279162 150.342025 
" style="fill:none;stroke:#2ca02c;stroke-linecap:square;stroke-width:1.5;"/>
   </g>
   <g id="patch_3">
    <path d="M 59.059844 276.544 
L 59.059844 24.144 
" style="fill:none;stroke:#000000;stroke-linecap:square;stroke-linejoin:miter;stroke-width:0.8;"/>
   </g>
   <g id="patch_4">
    <path d="M 853.384844 276.544 
L 853.384844 24.144 
" style="fill:none;stroke:#000000;stroke-linecap:square;stroke-linejoin:miter;stroke-width:0.8;"/>
   </g>
   <g id="patch_5">
    <path d="M 59.059844 276.544 
L 853.384844 276.544 
" style="fill:none;stroke:#000000;stroke-linecap:square;stroke-linejoin:miter;stroke-width:0.8;"/>
   </g>
   <g id="patch_6">
    <path d="M 59.059844 24.144 
L 853.384844 24.144 
" style="fill:none;stroke:#000000;stroke-linecap:square;stroke-linejoin:miter;stroke-width:0.8;"/>
   </g>
   <g id="text_14">
    <!-- Circuito Corriente Alterna - ($\mathrm{10v}$) - VAC:$\mathrm{120v}$-$\mathrm{60Hz}$ R:$\mathrm{10k\Omega}$ - LTspice -->
    <g transform="translate(211.638344 18.144)scale(0.144 -0.144)">
     <defs>
      <path d="M 64.40625 67.28125 
L 64.40625 56.890625 
Q 59.421875 61.53125 53.78125 63.8125 
Q 48.140625 66.109375 41.796875 66.109375 
Q 29.296875 66.109375 22.65625 58.46875 
Q 16.015625 50.828125 16.015625 36.375 
Q 16.015625 21.96875 22.65625 14.328125 
Q 29.296875 6.6875 41.796875 6.6875 
Q 48.140625 6.6875 53.78125 8.984375 
Q 59.421875 11.28125 64.40625 15.921875 
L 64.40625 5.609375 
Q 59.234375 2.09375 53.4375 0.328125 
Q 47.65625 -1.421875 41.21875 -1.421875 
Q 24.65625 -1.421875 15.125 8.703125 
Q 5.609375 18.84375 5.609375 36.375 
Q 5.609375 53.953125 15.125 64.078125 
Q 24.65625 74.21875 41.21875 74.21875 
Q 47.75 74.21875 53.53125 72.484375 
Q 59.328125 70.75 64.40625 67.28125 
z
" id="DejaVuSans-67"/>
      <path d="M 41.109375 46.296875 
Q 39.59375 47.171875 37.8125 47.578125 
Q 36.03125 48 33.890625 48 
Q 26.265625 48 22.1875 43.046875 
Q 18.109375 38.09375 18.109375 28.8125 
L 18.109375 0 
L 9.078125 0 
L 9.078125 54.6875 
L 18.109375 54.6875 
L 18.109375 46.1875 
Q 20.953125 51.171875 25.484375 53.578125 
Q 30.03125 56 36.53125 56 
Q 37.453125 56 38.578125 55.875 
Q 39.703125 55.765625 41.0625 55.515625 
z
" id="DejaVuSans-114"/>
      <path d="M 48.78125 52.59375 
L 48.78125 44.1875 
Q 44.96875 46.296875 41.140625 47.34375 
Q 37.3125 48.390625 33.40625 48.390625 
Q 24.65625 48.390625 19.8125 42.84375 
Q 14.984375 37.3125 14.984375 27.296875 
Q 14.984375 17.28125 19.8125 11.734375 
Q 24.65625 6.203125 33.40625 6.203125 
Q 37.3125 6.203125 41.140625 7.25 
Q 44.96875 8.296875 48.78125 10.40625 
L 48.78125 2.09375 
Q 45.015625 0.34375 40.984375 -0.53125 
Q 36.96875 -1.421875 32.421875 -1.421875 
Q 20.0625 -1.421875 12.78125 6.34375 
Q 5.515625 14.109375 5.515625 27.296875 
Q 5.515625 40.671875 12.859375 48.328125 
Q 20.21875 56 33.015625 56 
Q 37.15625 56 41.109375 55.140625 
Q 45.0625 54.296875 48.78125 52.59375 
z
" id="DejaVuSans-99"/>
      <path d="M 8.5 21.578125 
L 8.5 54.6875 
L 17.484375 54.6875 
L 17.484375 21.921875 
Q 17.484375 14.15625 20.5 10.265625 
Q 23.53125 6.390625 29.59375 6.390625 
Q 36.859375 6.390625 41.078125 11.03125 
Q 45.3125 15.671875 45.3125 23.6875 
L 45.3125 54.6875 
L 54.296875 54.6875 
L 54.296875 0 
L 45.3125 0 
L 45.3125 8.40625 
Q 42.046875 3.421875 37.71875 1 
Q 33.40625 -1.421875 27.6875 -1.421875 
Q 18.265625 -1.421875 13.375 4.4375 
Q 8.5 10.296875 8.5 21.578125 
z
M 31.109375 56 
z
" id="DejaVuSans-117"/>
      <path d="M 54.890625 33.015625 
L 54.890625 0 
L 45.90625 0 
L 45.90625 32.71875 
Q 45.90625 40.484375 42.875 44.328125 
Q 39.84375 48.1875 33.796875 48.1875 
Q 26.515625 48.1875 22.3125 43.546875 
Q 18.109375 38.921875 18.109375 30.90625 
L 18.109375 0 
L 9.078125 0 
L 9.078125 54.6875 
L 18.109375 54.6875 
L 18.109375 46.1875 
Q 21.34375 51.125 25.703125 53.5625 
Q 30.078125 56 35.796875 56 
Q 45.21875 56 50.046875 50.171875 
Q 54.890625 44.34375 54.890625 33.015625 
z
" id="DejaVuSans-110"/>
      <path d="M 34.1875 63.1875 
L 20.796875 26.90625 
L 47.609375 26.90625 
z
M 28.609375 72.90625 
L 39.796875 72.90625 
L 67.578125 0 
L 57.328125 0 
L 50.6875 18.703125 
L 17.828125 18.703125 
L 11.1875 0 
L 0.78125 0 
z
" id="DejaVuSans-65"/>
      <path d="M 4.890625 31.390625 
L 31.203125 31.390625 
L 31.203125 23.390625 
L 4.890625 23.390625 
z
" id="DejaVuSans-45"/>
      <path d="M 2.984375 54.6875 
L 12.5 54.6875 
L 29.59375 8.796875 
L 46.6875 54.6875 
L 56.203125 54.6875 
L 35.6875 0 
L 23.484375 0 
z
" id="DejaVuSans-118"/>
      <path d="M 11.71875 12.40625 
L 22.015625 12.40625 
L 22.015625 0 
L 11.71875 0 
z
M 11.71875 51.703125 
L 22.015625 51.703125 
L 22.015625 39.3125 
L 11.71875 39.3125 
z
" id="DejaVuSans-58"/>
      <path d="M 9.8125 72.90625 
L 19.671875 72.90625 
L 19.671875 43.015625 
L 55.515625 43.015625 
L 55.515625 72.90625 
L 65.375 72.90625 
L 65.375 0 
L 55.515625 0 
L 55.515625 34.71875 
L 19.671875 34.71875 
L 19.671875 0 
L 9.8125 0 
z
" id="DejaVuSans-72"/>
      <path d="M 5.515625 54.6875 
L 48.1875 54.6875 
L 48.1875 46.484375 
L 14.40625 7.171875 
L 48.1875 7.171875 
L 48.1875 0 
L 4.296875 0 
L 4.296875 8.203125 
L 38.09375 47.515625 
L 5.515625 47.515625 
z
" id="DejaVuSans-122"/>
      <path d="M 44.390625 34.1875 
Q 47.5625 33.109375 50.5625 29.59375 
Q 53.5625 26.078125 56.59375 19.921875 
L 66.609375 0 
L 56 0 
L 46.6875 18.703125 
Q 43.0625 26.03125 39.671875 28.421875 
Q 36.28125 30.8125 30.421875 30.8125 
L 19.671875 30.8125 
L 19.671875 0 
L 9.8125 0 
L 9.8125 72.90625 
L 32.078125 72.90625 
Q 44.578125 72.90625 50.734375 67.671875 
Q 56.890625 62.453125 56.890625 51.90625 
Q 56.890625 45.015625 53.6875 40.46875 
Q 50.484375 35.9375 44.390625 34.1875 
z
M 19.671875 64.796875 
L 19.671875 38.921875 
L 32.078125 38.921875 
Q 39.203125 38.921875 42.84375 42.21875 
Q 46.484375 45.515625 46.484375 51.90625 
Q 46.484375 58.296875 42.84375 61.546875 
Q 39.203125 64.796875 32.078125 64.796875 
z
" id="DejaVuSans-82"/>
      <path d="M 9.078125 75.984375 
L 18.109375 75.984375 
L 18.109375 31.109375 
L 44.921875 54.6875 
L 56.390625 54.6875 
L 27.390625 29.109375 
L 57.625 0 
L 45.90625 0 
L 18.109375 26.703125 
L 18.109375 0 
L 9.078125 0 
z
" id="DejaVuSans-107"/>
      <path d="M 72.609375 8.6875 
L 72.609375 0 
L 43.3125 0 
L 43.3125 8.6875 
Q 51.953125 13.421875 56.78125 21.53125 
Q 61.625 29.640625 61.625 39.5 
Q 61.625 51.21875 55.171875 58.296875 
Q 48.734375 65.375 38.1875 65.375 
Q 27.640625 65.375 21.171875 58.265625 
Q 14.703125 51.171875 14.703125 39.5 
Q 14.703125 29.640625 19.53125 21.53125 
Q 24.421875 13.421875 33.109375 8.6875 
L 33.109375 0 
L 3.8125 0 
L 3.8125 8.6875 
L 19.390625 8.6875 
Q 11.671875 15.484375 8.109375 22.75 
Q 4.59375 30.03125 4.59375 39.015625 
Q 4.59375 54.546875 13.96875 64.15625 
Q 23.296875 73.78125 38.1875 73.78125 
Q 52.984375 73.78125 62.40625 64.15625 
Q 71.78125 54.59375 71.78125 39.5 
Q 71.78125 30.03125 68.3125 22.796875 
Q 64.84375 15.578125 56.984375 8.6875 
z
" id="DejaVuSans-937"/>
      <path d="M 9.8125 72.90625 
L 19.671875 72.90625 
L 19.671875 8.296875 
L 55.171875 8.296875 
L 55.171875 0 
L 9.8125 0 
z
" id="DejaVuSans-76"/>
     </defs>
     <use transform="translate(0 0.015625)" xlink:href="#DejaVuSans-67"/>
     <use transform="translate(69.824219 0.015625)" xlink:href="#DejaVuSans-105"/>
     <use transform="translate(97.607422 0.015625)" xlink:href="#DejaVuSans-114"/>
     <use transform="translate(138.720703 0.015625)" xlink:href="#DejaVuSans-99"/>
     <use transform="translate(193.701172 0.015625)" xlink:href="#DejaVuSans-117"/>
     <use transform="translate(257.080078 0.015625)" xlink:href="#DejaVuSans-105"/>
     <use transform="translate(284.863281 0.015625)" xlink:href="#DejaVuSans-116"/>
     <use transform="translate(324.072266 0.015625)" xlink:href="#DejaVuSans-111"/>
     <use transform="translate(385.253906 0.015625)" xlink:href="#DejaVuSans-32"/>
     <use transform="translate(417.041016 0.015625)" xlink:href="#DejaVuSans-67"/>
     <use transform="translate(486.865234 0.015625)" xlink:href="#DejaVuSans-111"/>
     <use transform="translate(548.046875 0.015625)" xlink:href="#DejaVuSans-114"/>
     <use transform="translate(589.160156 0.015625)" xlink:href="#DejaVuSans-114"/>
     <use transform="translate(630.273438 0.015625)" xlink:href="#DejaVuSans-105"/>
     <use transform="translate(658.056641 0.015625)" xlink:href="#DejaVuSans-101"/>
     <use transform="translate(719.580078 0.015625)" xlink:href="#DejaVuSans-110"/>
     <use transform="translate(782.958984 0.015625)" xlink:href="#DejaVuSans-116"/>
     <use transform="translate(822.167969 0.015625)" xlink:href="#DejaVuSans-101"/>
     <use transform="translate(883.691406 0.015625)" xlink:href="#DejaVuSans-32"/>
     <use transform="translate(915.478516 0.015625)" xlink:href="#DejaVuSans-65"/>
     <use transform="translate(983.886719 0.015625)" xlink:href="#DejaVuSans-108"/>
     <use transform="translate(1011.669922 0.015625)" xlink:href="#DejaVuSans-116"/>
     <use transform="translate(1050.878906 0.015625)" xlink:href="#DejaVuSans-101"/>
     <use transform="translate(1112.402344 0.015625)" xlink:href="#DejaVuSans-114"/>
     <use transform="translate(1153.515625 0.015625)" xlink:href="#DejaVuSans-110"/>
     <use transform="translate(1216.894531 0.015625)" xlink:href="#DejaVuSans-97"/>
     <use transform="translate(1278.173828 0.015625)" xlink:href="#DejaVuSans-32"/>
     <use transform="translate(1309.960938 0.015625)" xlink:href="#DejaVuSans-45"/>
     <use transform="translate(1346.044922 0.015625)" xlink:href="#DejaVuSans-32"/>
     <use transform="translate(1377.832031 0.015625)" xlink:href="#DejaVuSans-40"/>
     <use transform="translate(1416.845703 0.015625)" xlink:href="#DejaVuSans-49"/>
     <use transform="translate(1480.46875 0.015625)" xlink:href="#DejaVuSans-48"/>
     <use transform="translate(1544.091797 0.015625)" xlink:href="#DejaVuSans-118"/>
     <use transform="translate(1603.271484 0.015625)" xlink:href="#DejaVuSans-41"/>
     <use transform="translate(1642.285156 0.015625)" xlink:href="#DejaVuSans-32"/>
     <use transform="translate(1674.072266 0.015625)" xlink:href="#DejaVuSans-45"/>
     <use transform="translate(1710.15625 0.015625)" xlink:href="#DejaVuSans-32"/>
     <use transform="translate(1741.943359 0.015625)" xlink:href="#DejaVuSans-86"/>
     <use transform="translate(1810.351562 0.015625)" xlink:href="#DejaVuSans-65"/>
     <use transform="translate(1878.759766 0.015625)" xlink:href="#DejaVuSans-67"/>
     <use transform="translate(1948.583984 0.015625)" xlink:href="#DejaVuSans-58"/>
     <use transform="translate(1982.275391 0.015625)" xlink:href="#DejaVuSans-49"/>
     <use transform="translate(2045.898438 0.015625)" xlink:href="#DejaVuSans-50"/>
     <use transform="translate(2109.521484 0.015625)" xlink:href="#DejaVuSans-48"/>
     <use transform="translate(2173.144531 0.015625)" xlink:href="#DejaVuSans-118"/>
     <use transform="translate(2232.324219 0.015625)" xlink:href="#DejaVuSans-45"/>
     <use transform="translate(2268.408203 0.015625)" xlink:href="#DejaVuSans-54"/>
     <use transform="translate(2332.03125 0.015625)" xlink:href="#DejaVuSans-48"/>
     <use transform="translate(2395.654297 0.015625)" xlink:href="#DejaVuSans-72"/>
     <use transform="translate(2470.849609 0.015625)" xlink:href="#DejaVuSans-122"/>
     <use transform="translate(2523.339844 0.015625)" xlink:href="#DejaVuSans-32"/>
     <use transform="translate(2555.126953 0.015625)" xlink:href="#DejaVuSans-82"/>
     <use transform="translate(2624.609375 0.015625)" xlink:href="#DejaVuSans-58"/>
     <use transform="translate(2658.300781 0.015625)" xlink:href="#DejaVuSans-49"/>
     <use transform="translate(2721.923828 0.015625)" xlink:href="#DejaVuSans-48"/>
     <use transform="translate(2785.546875 0.015625)" xlink:href="#DejaVuSans-107"/>
     <use transform="translate(2843.457031 0.015625)" xlink:href="#DejaVuSans-937"/>
     <use transform="translate(2919.873047 0.015625)" xlink:href="#DejaVuSans-32"/>
     <use transform="translate(2951.660156 0.015625)" xlink:href="#DejaVuSans-45"/>
     <use transform="translate(2987.744141 0.015625)" xlink:href="#DejaVuSans-32"/>
     <use transform="translate(3019.53125 0.015625)" xlink:href="#DejaVuSans-76"/>
     <use transform="translate(3075.244141 0.015625)" xlink:href="#DejaVuSans-84"/>
     <use transform="translate(3136.328125 0.015625)" xlink:href="#DejaVuSans-115"/>
     <use transform="translate(3188.427734 0.015625)" xlink:href="#DejaVuSans-112"/>
     <use transform="translate(3251.904297 0.015625)" xlink:href="#DejaVuSans-105"/>
     <use transform="translate(3279.6875 0.015625)" xlink:href="#DejaVuSans-99"/>
     <use transform="translate(3334.667969 0.015625)" xlink:href="#DejaVuSans-101"/>
    </g>
   </g>
  </g>
  <g id="axes_2">
   <g id="matplotlib.axis_3">
    <g id="ytick_6">
     <g id="line2d_13">
      <path clip-path="url(#pf9fda2371c)" d="M 59.059844 245.954043 
L 853.384844 245.954043 
" style="fill:none;stroke:#b0b0b0;stroke-linecap:square;stroke-width:0.8;"/>
     </g>
     <g id="line2d_14">
      <defs>
       <path d="M 0 0 
L 3.5 0 
" id="mb65bc6a9e4" style="stroke:#000000;stroke-width:0.8;"/>
      </defs>
      <g>
       <use style="stroke:#000000;stroke-width:0.8;" x="853.384844" xlink:href="#mb65bc6a9e4" y="245.954043"/>
      </g>
     </g>
     <g id="text_15">
      <!-- −0.010 -->
      <g style="fill:#d62728;" transform="translate(860.384844 250.133184)scale(0.11 -0.11)">
       <use xlink:href="#DejaVuSans-8722"/>
       <use x="83.789062" xlink:href="#DejaVuSans-48"/>
       <use x="147.412109" xlink:href="#DejaVuSans-46"/>
       <use x="179.199219" xlink:href="#DejaVuSans-48"/>
       <use x="242.822266" xlink:href="#DejaVuSans-49"/>
       <use x="306.445312" xlink:href="#DejaVuSans-48"/>
      </g>
     </g>
    </g>
    <g id="ytick_7">
     <g id="line2d_15">
      <path clip-path="url(#pf9fda2371c)" d="M 59.059844 198.150009 
L 853.384844 198.150009 
" style="fill:none;stroke:#b0b0b0;stroke-linecap:square;stroke-width:0.8;"/>
     </g>
     <g id="line2d_16">
      <g>
       <use style="stroke:#000000;stroke-width:0.8;" x="853.384844" xlink:href="#mb65bc6a9e4" y="198.150009"/>
      </g>
     </g>
     <g id="text_16">
      <!-- −0.005 -->
      <g style="fill:#d62728;" transform="translate(860.384844 202.32915)scale(0.11 -0.11)">
       <use xlink:href="#DejaVuSans-8722"/>
       <use x="83.789062" xlink:href="#DejaVuSans-48"/>
       <use x="147.412109" xlink:href="#DejaVuSans-46"/>
       <use x="179.199219" xlink:href="#DejaVuSans-48"/>
       <use x="242.822266" xlink:href="#DejaVuSans-48"/>
       <use x="306.445312" xlink:href="#DejaVuSans-53"/>
      </g>
     </g>
    </g>
    <g id="ytick_8">
     <g id="line2d_17">
      <path clip-path="url(#pf9fda2371c)" d="M 59.059844 150.345975 
L 853.384844 150.345975 
" style="fill:none;stroke:#b0b0b0;stroke-linecap:square;stroke-width:0.8;"/>
     </g>
     <g id="line2d_18">
      <g>
       <use style="stroke:#000000;stroke-width:0.8;" x="853.384844" xlink:href="#mb65bc6a9e4" y="150.345975"/>
      </g>
     </g>
     <g id="text_17">
      <!-- 0.000 -->
      <g style="fill:#d62728;" transform="translate(860.384844 154.525116)scale(0.11 -0.11)">
       <use xlink:href="#DejaVuSans-48"/>
       <use x="63.623047" xlink:href="#DejaVuSans-46"/>
       <use x="95.410156" xlink:href="#DejaVuSans-48"/>
       <use x="159.033203" xlink:href="#DejaVuSans-48"/>
       <use x="222.65625" xlink:href="#DejaVuSans-48"/>
      </g>
     </g>
    </g>
    <g id="ytick_9">
     <g id="line2d_19">
      <path clip-path="url(#pf9fda2371c)" d="M 59.059844 102.541941 
L 853.384844 102.541941 
" style="fill:none;stroke:#b0b0b0;stroke-linecap:square;stroke-width:0.8;"/>
     </g>
     <g id="line2d_20">
      <g>
       <use style="stroke:#000000;stroke-width:0.8;" x="853.384844" xlink:href="#mb65bc6a9e4" y="102.541941"/>
      </g>
     </g>
     <g id="text_18">
      <!-- 0.005 -->
      <g style="fill:#d62728;" transform="translate(860.384844 106.721082)scale(0.11 -0.11)">
       <use xlink:href="#DejaVuSans-48"/>
       <use x="63.623047" xlink:href="#DejaVuSans-46"/>
       <use x="95.410156" xlink:href="#DejaVuSans-48"/>
       <use x="159.033203" xlink:href="#DejaVuSans-48"/>
       <use x="222.65625" xlink:href="#DejaVuSans-53"/>
      </g>
     </g>
    </g>
    <g id="ytick_10">
     <g id="line2d_21">
      <path clip-path="url(#pf9fda2371c)" d="M 59.059844 54.737907 
L 853.384844 54.737907 
" style="fill:none;stroke:#b0b0b0;stroke-linecap:square;stroke-width:0.8;"/>
     </g>
     <g id="line2d_22">
      <g>
       <use style="stroke:#000000;stroke-width:0.8;" x="853.384844" xlink:href="#mb65bc6a9e4" y="54.737907"/>
      </g>
     </g>
     <g id="text_19">
      <!-- 0.010 -->
      <g style="fill:#d62728;" transform="translate(860.384844 58.917047)scale(0.11 -0.11)">
       <use xlink:href="#DejaVuSans-48"/>
       <use x="63.623047" xlink:href="#DejaVuSans-46"/>
       <use x="95.410156" xlink:href="#DejaVuSans-48"/>
       <use x="159.033203" xlink:href="#DejaVuSans-49"/>
       <use x="222.65625" xlink:href="#DejaVuSans-48"/>
      </g>
     </g>
    </g>
    <g id="text_20">
     <!-- Corriente (A) -->
     <g style="fill:#d62728;" transform="translate(913.451719 185.715875)rotate(-90)scale(0.11 -0.11)">
      <use xlink:href="#DejaVuSans-67"/>
      <use x="69.824219" xlink:href="#DejaVuSans-111"/>
      <use x="131.005859" xlink:href="#DejaVuSans-114"/>
      <use x="170.369141" xlink:href="#DejaVuSans-114"/>
      <use x="211.482422" xlink:href="#DejaVuSans-105"/>
      <use x="239.265625" xlink:href="#DejaVuSans-101"/>
      <use x="300.789062" xlink:href="#DejaVuSans-110"/>
      <use x="364.167969" xlink:href="#DejaVuSans-116"/>
      <use x="403.376953" xlink:href="#DejaVuSans-101"/>
      <use x="464.900391" xlink:href="#DejaVuSans-32"/>
      <use x="496.6875" xlink:href="#DejaVuSans-40"/>
      <use x="535.701172" xlink:href="#DejaVuSans-65"/>
      <use x="604.109375" xlink:href="#DejaVuSans-41"/>
     </g>
    </g>
   </g>
   <g id="line2d_23">
    <path clip-path="url(#pf9fda2371c)" d="M 95.165526 150.345975 
L 95.922717 194.527068 
L 96.627906 229.672909 
L 97.607131 260.082265 
L 98.016392 264.685862 
L 98.296045 264.844119 
L 98.552996 262.84111 
L 98.969899 255.321311 
L 99.636049 233.259746 
L 100.341238 199.164893 
L 102.456805 79.556576 
L 103.161994 51.806095 
L 103.76845 38.409005 
L 104.149117 35.644971 
L 104.356554 36.039672 
L 104.640381 38.746052 
L 105.100102 48.271446 
L 105.805291 73.962566 
L 107.215669 151.239421 
L 108.626048 228.053384 
L 109.6204 259.691274 
L 110.031787 264.581896 
L 110.284085 264.988831 
L 110.511427 263.653882 
L 110.880841 258.102072 
L 111.474566 240.95217 
L 112.179756 209.551304 
L 115.000512 58.349088 
L 115.747178 39.199704 
L 115.92835 37.009597 
L 116.148781 35.712362 
L 116.378551 35.974385 
L 116.654094 38.454163 
L 117.100649 47.339856 
L 117.805838 72.42522 
L 118.511027 107.953086 
L 120.626594 226.512508 
L 121.331784 252.287626 
L 121.854246 262.699224 
L 122.055314 264.514818 
L 122.273583 265.062692 
L 122.472204 264.267989 
L 122.795287 260.369994 
L 123.316963 247.566696 
L 124.022152 219.128037 
L 125.432531 139.643865 
L 126.13772 99.250375 
L 126.842909 65.704432 
L 127.72501 40.101957 
L 128.131516 35.884026 
L 128.394218 35.887855 
L 128.657504 38.048375 
L 129.084527 46.022595 
L 129.765898 69.181464 
L 130.471087 103.803147 
L 132.586654 223.087746 
L 133.291843 250.144012 
L 133.868331 262.435984 
L 134.064898 264.35291 
L 134.263269 265.071273 
L 134.454318 264.600964 
L 134.744214 261.723064 
L 135.213562 251.717207 
L 135.918751 225.587912 
L 137.329129 147.931849 
L 138.739507 71.526539 
L 139.721898 40.759841 
L 140.131974 36.045066 
L 140.387117 35.74148 
L 140.623853 37.276189 
L 141.008365 43.424046 
L 141.625285 62.089819 
L 142.330474 94.386036 
L 144.446042 214.648243 
L 145.151231 244.535462 
L 145.853427 261.757262 
L 146.037773 263.874048 
L 146.266537 265.038571 
L 146.477664 264.663436 
L 146.760123 261.99507 
L 147.217673 252.576591 
L 147.922862 226.984885 
L 149.33324 149.795401 
L 150.743619 72.891168 
L 151.741553 41.039603 
L 152.153151 36.120831 
L 152.378996 35.649579 
L 152.588513 36.636696 
L 152.9292 41.131747 
L 153.478399 55.529333 
L 154.183588 85.130681 
L 157.004345 237.891317 
L 157.8352 260.949519 
L 158.239756 264.884068 
L 158.489809 264.772229 
L 158.75781 262.491162 
L 159.192353 254.171321 
L 159.884986 230.186722 
L 160.590175 195.184534 
L 162.705742 76.177 
L 163.410931 49.644498 
L 163.96514 38.145483 
L 164.163703 36.268761 
L 164.345692 35.624131 
L 164.540288 36.079634 
L 164.828871 38.920032 
L 165.296138 48.821103 
L 166.001327 74.856006 
L 167.411705 152.431199 
L 168.822083 228.926043 
L 169.805964 259.860906 
L 170.216428 264.62798 
L 170.470722 264.962643 
L 170.704657 263.488689 
L 171.08467 257.521364 
L 171.694694 239.312045 
L 172.399883 207.278925 
L 174.51545 86.97235 
L 175.220639 56.799091 
L 175.936101 39.012275 
L 176.119125 36.876669 
L 176.346294 35.667116 
L 176.562641 36.012981 
L 176.843165 38.62796 
L 177.29764 47.896021 
L 178.002829 73.346643 
L 179.413207 150.411297 
L 180.823585 227.442108 
L 181.826587 259.596991 
L 182.238486 264.555668 
L 182.462213 265.049004 
L 182.668682 264.117254 
L 183.004448 259.792984 
L 183.545971 245.848405 
L 184.25116 216.567581 
L 187.071916 63.599124 
L 187.917126 39.840781 
L 188.322216 35.827779 
L 188.575786 35.910687 
L 188.842477 38.157968 
L 189.274931 46.381127 
L 189.96444 70.135501 
L 190.669629 105.032938 
L 192.785196 224.120548 
L 193.490385 250.799203 
L 194.050783 262.51605 
L 194.24886 264.404488 
L 194.431176 265.065906 
L 194.627396 264.617466 
L 194.915378 261.794165 
L 195.381691 251.94091 
L 196.08688 225.949295 
L 197.497259 148.41134 
L 198.907637 71.875714 
L 199.892201 40.863787 
L 200.302843 36.072752 
L 200.556749 35.723947 
L 200.789403 37.170446 
L 201.167356 43.055979 
L 201.77422 61.057739 
L 202.479409 92.969403 
L 204.594977 213.29248 
L 205.300166 243.595726 
L 206.021694 261.643781 
L 206.204112 263.787846 
L 206.430547 265.017806 
L 206.64929 264.686 
L 206.928925 262.095369 
L 207.381988 252.896017 
L 208.087177 227.510323 
L 209.497556 150.503442 
L 210.907934 73.414977 
L 211.613123 47.93753 
L 212.123254 37.934823 
L 212.3253 36.143454 
L 212.548053 35.640148 
L 212.753123 36.546876 
L 213.086628 40.793705 
L 213.62462 54.532084 
L 214.329809 83.664499 
L 217.150566 236.722578 
L 218.002362 260.80544 
L 218.4077 264.854673 
L 218.662891 264.78538 
L 218.928978 262.553595 
L 219.360469 254.374829 
L 220.048536 230.726361 
L 220.753726 195.877455 
L 222.869293 76.75374 
L 223.574482 50.007883 
L 224.137733 38.189992 
L 224.33556 36.296345 
L 224.538942 35.616728 
L 224.722786 36.114473 
L 225.015349 39.069229 
L 225.488922 49.28937 
L 226.194111 75.609727 
L 227.604489 153.428082 
L 229.014867 229.649604 
L 229.994238 260.075394 
L 230.403536 264.684105 
L 230.683412 264.844625 
L 230.94028 262.843654 
L 231.35705 255.329759 
L 232.022998 233.282538 
L 232.728187 199.194737 
L 234.843755 79.582533 
L 235.548944 51.822991 
L 236.155794 38.411055 
L 236.536273 35.645434 
L 236.743925 36.039013 
L 237.027672 38.743157 
L 237.487266 48.262267 
L 238.192456 73.947563 
L 239.602834 151.219314 
L 241.013212 228.038589 
L 242.007775 259.688996 
L 242.419173 264.581267 
L 242.671445 264.989156 
L 242.8987 263.656021 
L 243.267972 258.109655 
L 243.86148 240.973718 
L 244.566669 209.581394 
L 247.387425 58.370085 
L 248.134507 39.202247 
L 248.315721 37.010799 
L 248.536124 35.712748 
L 248.765992 35.974108 
L 249.041499 38.452902 
L 249.487995 47.335806 
L 250.193185 72.418469 
L 250.898374 107.94454 
L 253.013941 226.505629 
L 253.71913 252.283406 
L 254.241703 262.698702 
L 254.442762 264.514512 
L 254.660991 265.062775 
L 254.859554 264.269052 
L 255.182544 260.374124 
L 255.704073 247.579094 
L 256.409263 219.146726 
L 257.819641 139.667116 
L 258.52483 99.271285 
L 259.230019 65.720198 
L 260.112391 40.103924 
L 260.518908 35.884468 
L 260.781677 35.88769 
L 261.044938 38.047571 
L 261.471921 46.019958 
L 262.153231 69.174427 
L 262.858421 103.794046 
L 264.973988 223.080045 
L 265.679177 250.139099 
L 266.255784 262.435384 
L 266.45234 264.352519 
L 266.650665 265.071218 
L 266.84178 264.601173 
L 267.131652 261.723963 
L 267.600961 251.720033 
L 268.30615 225.592467 
L 269.716528 147.937881 
L 271.126906 71.530923 
L 272.109324 40.761143 
L 272.519408 36.045409 
L 272.774535 35.741251 
L 273.011219 37.274836 
L 273.395649 43.419358 
L 274.012443 62.076722 
L 274.717632 94.368141 
L 276.833199 214.631264 
L 277.538388 244.523756 
L 278.240828 261.755849 
L 278.42515 263.872984 
L 278.653885 265.038339 
L 278.865108 264.663723 
L 279.147531 261.996339 
L 279.605025 252.580623 
L 280.310214 226.991495 
L 281.720592 149.804284 
L 283.13097 72.897722 
L 284.128997 41.040613 
L 284.540601 36.121111 
L 284.766408 35.64945 
L 284.975869 36.635544 
L 285.316465 41.127443 
L 285.865524 55.516688 
L 286.570713 85.112201 
L 289.39147 237.876798 
L 290.222588 260.947734 
L 290.627154 264.883714 
L 290.87727 264.772395 
L 291.145248 262.491948 
L 291.579753 254.173876 
L 292.272329 230.193486 
L 292.977518 195.193204 
L 295.093085 76.184186 
L 295.798274 49.649012 
L 296.352595 38.146037 
L 296.55115 36.2691 
L 296.73308 35.62421 
L 296.927747 36.07941 
L 297.216303 38.919062 
L 297.683528 48.818051 
L 298.388717 74.851071 
L 299.799096 152.424647 
L 301.209474 228.921268 
L 302.193384 259.859483 
L 302.603856 264.627599 
L 302.858134 264.962879 
L 303.092012 263.490124 
L 303.471935 257.52637 
L 304.081822 239.3261 
L 304.787011 207.298252 
L 306.902579 86.990909 
L 307.607768 56.811982 
L 308.323493 39.013832 
L 308.506491 36.877856 
L 308.733628 35.667412 
L 308.950079 36.012674 
L 309.230564 38.626592 
L 309.684978 47.891662 
L 310.390167 73.339463 
L 311.800545 150.401611 
L 313.210924 227.434935 
L 314.214026 259.595883 
L 314.625932 264.555358 
L 314.849616 265.049128 
L 315.056024 264.118471 
L 315.391692 259.797582 
L 315.933061 245.86199 
L 316.63825 216.587602 
L 319.459007 63.615173 
L 320.304503 39.842762 
L 320.709603 35.828187 
L 320.963244 35.910508 
L 321.229909 38.157115 
L 321.662321 46.378343 
L 322.351767 70.128117 
L 323.056956 105.02345 
L 325.172524 224.112637 
L 325.877713 250.794213 
L 326.438234 262.515439 
L 326.636302 264.404111 
L 326.818683 265.065911 
L 327.014899 264.617453 
L 327.302882 261.794107 
L 327.769198 251.940727 
L 328.474387 225.948999 
L 329.884765 148.410946 
L 331.295143 71.875427 
L 332.279706 40.863702 
L 332.690347 36.072729 
L 332.944255 35.723961 
L 333.176911 37.170531 
L 333.55487 43.056278 
L 334.161743 61.058579 
L 334.866932 92.970562 
L 336.982499 213.293599 
L 337.687688 243.596506 
L 338.4092 261.643875 
L 338.59162 263.787918 
L 338.818057 265.017825 
L 339.036794 264.685981 
L 339.316431 262.095288 
L 339.769498 252.895756 
L 340.474687 227.509891 
L 341.885065 150.502858 
L 343.295444 73.414545 
L 344.000633 47.937267 
L 344.510757 37.934791 
L 344.712803 36.143435 
L 344.935559 35.640155 
L 345.140632 36.546949 
L 345.474144 40.793979 
L 346.012145 54.532897 
L 346.717334 83.665702 
L 349.538091 236.723551 
L 350.389869 260.80556 
L 350.795207 264.854699 
L 351.050393 264.785369 
L 351.316482 262.553544 
L 351.747975 254.374662 
L 352.436047 230.725915 
L 353.141236 195.876883 
L 355.256803 76.753261 
L 355.961992 50.00758 
L 356.525236 38.189955 
L 356.723063 36.296321 
L 356.926449 35.616727 
L 357.110288 36.114486 
L 357.402853 39.069286 
L 357.876428 49.289549 
L 358.581617 75.610013 
L 359.991995 153.428458 
L 361.402373 229.649876 
L 362.381743 260.075474 
L 362.791041 264.684126 
L 363.070914 264.844619 
L 363.327782 262.843624 
L 363.744554 255.32966 
L 364.410505 233.282271 
L 365.115694 199.194388 
L 367.231261 79.582229 
L 367.93645 51.822793 
L 368.543296 38.411031 
L 368.923777 35.645429 
L 369.131427 36.039021 
L 369.415175 38.743191 
L 369.87477 48.262374 
L 370.57996 73.947739 
L 371.990338 151.219549 
L 373.400716 228.038762 
L 374.395276 259.689022 
L 374.806675 264.581275 
L 375.058947 264.989153 
L 375.286202 263.655996 
L 375.655476 258.109567 
L 376.248987 240.973466 
L 376.954176 209.581042 
L 379.774932 58.369839 
L 380.522009 39.202217 
L 380.703222 37.010785 
L 380.923626 35.712743 
L 381.153493 35.974112 
L 381.429 38.452917 
L 381.875497 47.335854 
L 382.580686 72.418548 
L 383.285875 107.94464 
L 385.401443 226.50571 
L 386.106632 252.283456 
L 386.629203 262.698708 
L 386.830263 264.514515 
L 387.048492 265.062774 
L 387.247056 264.269039 
L 387.570047 260.374075 
L 388.091578 247.578949 
L 388.796767 219.146508 
L 390.207145 139.666844 
L 390.912334 99.27104 
L 391.617524 65.720014 
L 392.499893 40.103901 
L 392.90641 35.884463 
L 393.169178 35.887692 
L 393.432439 38.047581 
L 393.859422 46.019989 
L 394.540733 69.174509 
L 395.245922 103.794152 
L 397.36149 223.080135 
L 398.066679 250.139157 
L 398.643285 262.435391 
L 398.83984 264.352523 
L 399.038166 265.071219 
L 399.22928 264.601171 
L 399.519152 261.723953 
L 399.988462 251.72 
L 400.693651 225.592414 
L 402.104029 147.937811 
L 403.514408 71.530872 
L 404.496825 40.761128 
L 404.906909 36.045405 
L 405.162036 35.741254 
L 405.398721 37.274852 
L 405.783151 43.419413 
L 406.399947 62.076875 
L 407.105136 94.36835 
L 409.220703 214.631463 
L 409.925892 244.523893 
L 410.628329 261.755865 
L 410.812652 263.872997 
L 411.041387 265.038342 
L 411.252608 264.66372 
L 411.535033 261.996324 
L 411.992527 252.580575 
L 412.697716 226.991418 
L 414.108094 149.804181 
L 415.518472 72.897646 
L 416.516498 41.040602 
L 416.928102 36.121108 
L 417.153909 35.649452 
L 417.36337 36.635557 
L 417.703968 41.127493 
L 418.253029 55.516835 
L 418.958218 85.112417 
L 421.778974 237.876968 
L 422.610089 260.947755 
L 423.014655 264.883718 
L 423.264771 264.772393 
L 423.532748 262.491938 
L 423.967254 254.173846 
L 424.659831 230.193407 
L 425.36502 195.193103 
L 427.480587 76.184102 
L 428.185776 49.648959 
L 428.740096 38.14603 
L 428.93865 36.269096 
L 429.120581 35.624209 
L 429.315247 36.079412 
L 429.603804 38.919073 
L 430.071029 48.818086 
L 430.776219 74.851129 
L 432.186597 152.424723 
L 433.596975 228.921323 
L 434.580885 259.8595 
L 434.991357 264.627604 
L 435.245635 264.962876 
L 435.479514 263.490108 
L 435.859438 257.526311 
L 436.469327 239.325936 
L 437.174516 207.298026 
L 439.290083 86.990692 
L 439.995272 56.811831 
L 440.710994 39.013814 
L 440.893993 36.877842 
L 441.12113 35.667409 
L 441.33758 36.012677 
L 441.618066 38.626608 
L 442.07248 47.891713 
L 442.777669 73.339547 
L 444.188047 150.401725 
L 445.598425 227.435019 
L 446.601527 259.595896 
L 447.013433 264.555361 
L 447.237117 265.049127 
L 447.443526 264.118457 
L 447.779195 259.797528 
L 448.320566 245.861831 
L 449.025755 216.587367 
L 451.846512 63.614985 
L 452.692004 39.842738 
L 453.097105 35.828183 
L 453.350745 35.91051 
L 453.617409 38.157125 
L 454.049822 46.378376 
L 454.739269 70.128203 
L 455.444458 105.023561 
L 457.560026 224.11273 
L 458.265215 250.794272 
L 458.825735 262.515446 
L 459.023802 264.404115 
L 459.206183 265.065911 
L 459.402399 264.617453 
L 459.690382 261.794108 
L 460.156698 251.940729 
L 460.861887 225.949002 
L 462.272265 148.41095 
L 463.682643 71.87543 
L 464.667206 40.863703 
L 465.077847 36.072729 
L 465.331755 35.723961 
L 465.564411 37.17053 
L 465.94237 43.056274 
L 466.549242 61.058569 
L 467.254431 92.970549 
L 469.369999 213.293586 
L 470.075188 243.596496 
L 470.7967 261.643874 
L 470.97912 263.787917 
L 471.205557 265.017825 
L 471.424294 264.685982 
L 471.703931 262.095288 
L 472.156998 252.895759 
L 472.862187 227.509896 
L 474.272565 150.502865 
L 475.682944 73.41455 
L 476.388133 47.93727 
L 476.898257 37.934791 
L 477.100303 36.143435 
L 477.323059 35.640155 
L 477.528132 36.546948 
L 477.861643 40.793976 
L 478.399645 54.532887 
L 479.104834 83.665688 
L 481.92559 236.723539 
L 482.777369 260.805559 
L 483.182706 264.854698 
L 483.437893 264.785369 
L 483.703982 262.553544 
L 484.135475 254.374664 
L 484.823547 230.725921 
L 485.528736 195.876889 
L 487.644303 76.753267 
L 488.349492 50.007584 
L 488.912736 38.189956 
L 489.110563 36.296322 
L 489.313949 35.616727 
L 489.497788 36.114486 
L 489.790353 39.069285 
L 490.263928 49.289547 
L 490.969117 75.61001 
L 492.379495 153.428454 
L 493.789873 229.649873 
L 494.769243 260.075473 
L 495.178541 264.684125 
L 495.458413 264.844619 
L 495.715282 262.843625 
L 496.132054 255.329661 
L 496.798005 233.282275 
L 497.503194 199.194392 
L 499.618761 79.582233 
L 500.32395 51.822796 
L 500.930796 38.411031 
L 501.311277 35.645429 
L 501.518927 36.039021 
L 501.802675 38.743191 
L 502.26227 48.262373 
L 502.967459 73.947737 
L 504.377838 151.219546 
L 505.788216 228.03876 
L 506.782776 259.689022 
L 507.194175 264.581275 
L 507.446447 264.989153 
L 507.673702 263.655996 
L 508.042976 258.109568 
L 508.636487 240.973469 
L 509.341676 209.581047 
L 512.162432 58.369842 
L 512.909509 39.202218 
L 513.090722 37.010785 
L 513.311126 35.712743 
L 513.540993 35.974111 
L 513.8165 38.452917 
L 514.262997 47.335853 
L 514.968186 72.418547 
L 515.673375 107.944639 
L 517.788943 226.505709 
L 518.494132 252.283455 
L 519.016703 262.698708 
L 519.217763 264.514515 
L 519.435992 265.062774 
L 519.634556 264.269039 
L 519.957547 260.374076 
L 520.479078 247.57895 
L 521.184267 219.14651 
L 522.594645 139.666847 
L 523.299834 99.271043 
L 524.005023 65.720016 
L 524.887393 40.103901 
L 525.29391 35.884463 
L 525.556678 35.887692 
L 525.819939 38.04758 
L 526.246922 46.019988 
L 526.928233 69.174508 
L 527.633422 103.794151 
L 529.74899 223.080134 
L 530.454179 250.139156 
L 531.030785 262.435391 
L 531.22734 264.352523 
L 531.425666 265.071219 
L 531.61678 264.601171 
L 531.906652 261.723953 
L 532.375962 251.72 
L 533.081151 225.592414 
L 534.491529 147.937811 
L 535.901908 71.530873 
L 536.884325 40.761128 
L 537.294409 36.045405 
L 537.549536 35.741254 
L 537.786221 37.274852 
L 538.170651 43.419413 
L 538.787447 62.076873 
L 539.492636 94.368348 
L 541.608203 214.63146 
L 542.313392 244.523891 
L 543.015829 261.755865 
L 543.200152 263.872996 
L 543.428887 265.038342 
L 543.640108 264.66372 
L 543.922532 261.996324 
L 544.380027 252.580576 
L 545.085216 226.991419 
L 546.495594 149.804182 
L 547.905972 72.897646 
L 548.903998 41.040602 
L 549.315602 36.121108 
L 549.541409 35.649452 
L 549.75087 36.635557 
L 550.091468 41.127492 
L 550.640529 55.516834 
L 551.345718 85.112415 
L 554.166474 237.876966 
L 554.997589 260.947755 
L 555.402155 264.883718 
L 555.652271 264.772393 
L 555.920248 262.491939 
L 556.354754 254.173846 
L 557.047331 230.193408 
L 557.75252 195.193104 
L 559.868087 76.184103 
L 560.573276 49.64896 
L 561.127596 38.14603 
L 561.32615 36.269096 
L 561.508081 35.624209 
L 561.702747 36.079412 
L 561.991304 38.919073 
L 562.458529 48.818086 
L 563.163719 74.851128 
L 564.574097 152.424723 
L 565.984475 228.921323 
L 566.968385 259.8595 
L 567.378857 264.627604 
L 567.633135 264.962876 
L 567.867014 263.490108 
L 568.246938 257.526312 
L 568.856826 239.325938 
L 569.562016 207.298029 
L 571.677583 86.990695 
L 572.382772 56.811833 
L 573.098494 39.013814 
L 573.281493 36.877842 
L 573.50863 35.667409 
L 573.72508 36.012677 
L 574.005566 38.626608 
L 574.45998 47.891712 
L 575.165169 73.339546 
L 576.575547 150.401723 
L 577.985925 227.435018 
L 578.989027 259.595896 
L 579.400933 264.555361 
L 579.624617 265.049127 
L 579.831026 264.118457 
L 580.166695 259.797529 
L 580.708066 245.861833 
L 581.413255 216.58737 
L 584.234011 63.614987 
L 585.079504 39.842739 
L 585.484605 35.828183 
L 585.738245 35.91051 
L 586.004909 38.157125 
L 586.437322 46.378376 
L 587.126769 70.128202 
L 587.831958 105.023559 
L 589.947526 224.112729 
L 590.652715 250.794271 
L 591.213235 262.515446 
L 591.411302 264.404115 
L 591.593683 265.065911 
L 591.789899 264.617453 
L 592.077882 261.794108 
L 592.544198 251.940729 
L 593.249387 225.949002 
L 594.659765 148.41095 
L 596.070143 71.87543 
L 597.054706 40.863703 
L 597.465347 36.072729 
L 597.719255 35.723961 
L 597.951911 37.17053 
L 598.32987 43.056274 
L 598.936742 61.05857 
L 599.641931 92.970549 
L 601.757499 213.293586 
L 602.462688 243.596497 
L 603.1842 261.643874 
L 603.36662 263.787917 
L 603.593057 265.017825 
L 603.811794 264.685982 
L 604.091431 262.095288 
L 604.544498 252.895759 
L 605.249687 227.509896 
L 606.660065 150.502865 
L 608.070444 73.41455 
L 608.775633 47.93727 
L 609.285757 37.934791 
L 609.487803 36.143435 
L 609.710559 35.640155 
L 609.915632 36.546948 
L 610.249143 40.793976 
L 610.787145 54.532887 
L 611.492334 83.665688 
L 614.31309 236.723539 
L 615.164869 260.805559 
L 615.570206 264.854698 
L 615.825393 264.785369 
L 616.091482 262.553544 
L 616.522975 254.374664 
L 617.211047 230.725921 
L 617.916236 195.876889 
L 620.031803 76.753267 
L 620.736992 50.007584 
L 621.300236 38.189956 
L 621.498063 36.296322 
L 621.701449 35.616727 
L 621.885288 36.114486 
L 622.177853 39.069285 
L 622.651428 49.289547 
L 623.356617 75.61001 
L 624.766995 153.428454 
L 626.177373 229.649873 
L 627.156743 260.075473 
L 627.566041 264.684125 
L 627.845913 264.844619 
L 628.102782 262.843625 
L 628.519554 255.329661 
L 629.185505 233.282275 
L 629.890694 199.194392 
L 632.006261 79.582233 
L 632.71145 51.822795 
L 633.318296 38.411031 
L 633.698777 35.645429 
L 633.906427 36.039021 
L 634.190175 38.743191 
L 634.64977 48.262373 
L 635.354959 73.947737 
L 636.765338 151.219546 
L 638.175716 228.03876 
L 639.170276 259.689022 
L 639.581675 264.581275 
L 639.833947 264.989153 
L 640.061202 263.655996 
L 640.430476 258.109568 
L 641.023987 240.973469 
L 641.729176 209.581046 
L 644.549932 58.369842 
L 645.297009 39.202218 
L 645.478222 37.010785 
L 645.698626 35.712743 
L 645.928493 35.974111 
L 646.204 38.452917 
L 646.650497 47.335853 
L 647.355686 72.418547 
L 648.060875 107.944639 
L 650.176443 226.505709 
L 650.881632 252.283455 
L 651.404203 262.698708 
L 651.605263 264.514515 
L 651.823492 265.062774 
L 652.022056 264.269039 
L 652.345047 260.374076 
L 652.866578 247.57895 
L 653.571767 219.14651 
L 654.982145 139.666847 
L 655.687334 99.271043 
L 656.392523 65.720016 
L 657.274893 40.103901 
L 657.68141 35.884463 
L 657.944178 35.887692 
L 658.207439 38.04758 
L 658.634422 46.019988 
L 659.315733 69.174508 
L 660.020922 103.794151 
L 662.13649 223.080134 
L 662.841679 250.139156 
L 663.418285 262.435391 
L 663.61484 264.352523 
L 663.813166 265.071219 
L 664.00428 264.601171 
L 664.294152 261.723953 
L 664.763462 251.72 
L 665.468651 225.592414 
L 666.879029 147.937811 
L 668.289408 71.530873 
L 669.271825 40.761128 
L 669.681909 36.045405 
L 669.937036 35.741254 
L 670.173721 37.274852 
L 670.558151 43.419413 
L 671.174947 62.076873 
L 671.880136 94.368348 
L 673.995703 214.63146 
L 674.700892 244.523891 
L 675.403329 261.755865 
L 675.587652 263.872996 
L 675.816387 265.038342 
L 676.027608 264.66372 
L 676.310032 261.996324 
L 676.767527 252.580576 
L 677.472716 226.991419 
L 678.883094 149.804182 
L 680.293472 72.897646 
L 681.291498 41.040602 
L 681.703102 36.121108 
L 681.928909 35.649452 
L 682.13837 36.635557 
L 682.478968 41.127492 
L 683.028029 55.516834 
L 683.733218 85.112415 
L 686.553974 237.876966 
L 687.385089 260.947755 
L 687.789655 264.883718 
L 688.039771 264.772393 
L 688.307748 262.491939 
L 688.742254 254.173846 
L 689.434831 230.193408 
L 690.14002 195.193104 
L 692.255587 76.184103 
L 692.960776 49.64896 
L 693.515096 38.14603 
L 693.71365 36.269096 
L 693.895581 35.624209 
L 694.090247 36.079412 
L 694.378804 38.919073 
L 694.846029 48.818086 
L 695.551219 74.851128 
L 696.961597 152.424723 
L 698.371975 228.921323 
L 699.355885 259.8595 
L 699.766357 264.627604 
L 700.020635 264.962876 
L 700.254514 263.490108 
L 700.634438 257.526312 
L 701.244326 239.325938 
L 701.949516 207.298029 
L 704.065083 86.990695 
L 704.770272 56.811833 
L 705.485994 39.013814 
L 705.668993 36.877842 
L 705.89613 35.667409 
L 706.11258 36.012677 
L 706.393066 38.626608 
L 706.84748 47.891712 
L 707.552669 73.339546 
L 708.963047 150.401723 
L 710.373425 227.435018 
L 711.376527 259.595896 
L 711.788433 264.555361 
L 712.012117 265.049127 
L 712.218526 264.118457 
L 712.554195 259.797529 
L 713.095566 245.861833 
L 713.800755 216.58737 
L 716.621511 63.614987 
L 717.467004 39.842739 
L 717.872105 35.828183 
L 718.125745 35.91051 
L 718.392409 38.157125 
L 718.824822 46.378376 
L 719.514269 70.128202 
L 720.219458 105.023559 
L 722.335026 224.112729 
L 723.040215 250.794271 
L 723.600735 262.515446 
L 723.798802 264.404115 
L 723.981183 265.065911 
L 724.177399 264.617453 
L 724.465382 261.794108 
L 724.931698 251.940729 
L 725.636887 225.949002 
L 727.047265 148.41095 
L 728.457643 71.87543 
L 729.442206 40.863703 
L 729.852847 36.072729 
L 730.106755 35.723961 
L 730.339411 37.17053 
L 730.71737 43.056274 
L 731.324242 61.05857 
L 732.029431 92.970549 
L 734.144999 213.293586 
L 734.850188 243.596497 
L 735.5717 261.643874 
L 735.75412 263.787917 
L 735.980557 265.017825 
L 736.199294 264.685982 
L 736.478931 262.095288 
L 736.931998 252.895759 
L 737.637187 227.509896 
L 739.047565 150.502865 
L 740.457944 73.41455 
L 741.163133 47.93727 
L 741.673257 37.934791 
L 741.875303 36.143435 
L 742.098059 35.640155 
L 742.303132 36.546948 
L 742.636643 40.793976 
L 743.174645 54.532887 
L 743.879834 83.665688 
L 746.70059 236.723539 
L 747.552369 260.805559 
L 747.957706 264.854698 
L 748.212893 264.785369 
L 748.478982 262.553544 
L 748.910475 254.374664 
L 749.598547 230.725921 
L 750.303736 195.876889 
L 752.419303 76.753267 
L 753.124492 50.007584 
L 753.687736 38.189956 
L 753.885563 36.296322 
L 754.088949 35.616727 
L 754.272788 36.114486 
L 754.565353 39.069285 
L 755.038928 49.289547 
L 755.744117 75.61001 
L 757.154495 153.428454 
L 758.564873 229.649873 
L 759.544243 260.075473 
L 759.953541 264.684125 
L 760.233413 264.844619 
L 760.490282 262.843625 
L 760.907054 255.329661 
L 761.573005 233.282275 
L 762.278194 199.194392 
L 764.393761 79.582233 
L 765.09895 51.822795 
L 765.705796 38.411031 
L 766.086277 35.645429 
L 766.293927 36.039021 
L 766.577675 38.743191 
L 767.03727 48.262373 
L 767.742459 73.947737 
L 769.152838 151.219546 
L 770.563216 228.03876 
L 771.557776 259.689022 
L 771.969175 264.581275 
L 772.221447 264.989153 
L 772.448702 263.655996 
L 772.817976 258.109568 
L 773.411487 240.973469 
L 774.116676 209.581046 
L 776.937432 58.369842 
L 777.684509 39.202218 
L 777.865722 37.010785 
L 778.086126 35.712743 
L 778.315993 35.974111 
L 778.5915 38.452917 
L 779.037997 47.335853 
L 779.743186 72.418547 
L 780.448375 107.944639 
L 782.563943 226.505709 
L 783.269132 252.283455 
L 783.791703 262.698708 
L 783.992763 264.514515 
L 784.210992 265.062774 
L 784.409556 264.269039 
L 784.732547 260.374076 
L 785.254078 247.57895 
L 785.959267 219.14651 
L 787.369645 139.666847 
L 788.074834 99.271043 
L 788.780023 65.720016 
L 789.662393 40.103901 
L 790.06891 35.884463 
L 790.331678 35.887692 
L 790.594939 38.04758 
L 791.021922 46.019988 
L 791.703233 69.174508 
L 792.408422 103.794151 
L 794.52399 223.080134 
L 795.229179 250.139156 
L 795.805785 262.435391 
L 796.00234 264.352523 
L 796.200666 265.071219 
L 796.39178 264.601171 
L 796.681652 261.723953 
L 797.150962 251.72 
L 797.856151 225.592414 
L 799.266529 147.937811 
L 800.676908 71.530873 
L 801.659325 40.761128 
L 802.069409 36.045405 
L 802.324536 35.741254 
L 802.561221 37.274852 
L 802.945651 43.419413 
L 803.562447 62.076873 
L 804.267636 94.368348 
L 806.383203 214.63146 
L 807.088392 244.523891 
L 807.790829 261.755865 
L 807.975152 263.872996 
L 808.203887 265.038342 
L 808.415108 264.66372 
L 808.697532 261.996324 
L 809.155027 252.580576 
L 809.860216 226.991419 
L 811.270594 149.804182 
L 812.680972 72.897646 
L 813.678998 41.040602 
L 814.090602 36.121108 
L 814.316409 35.649452 
L 814.52587 36.635557 
L 814.866468 41.127492 
L 815.415529 55.516834 
L 816.120718 85.112415 
L 817.279162 150.345975 
L 817.279162 150.345975 
" style="fill:none;stroke:#d62728;stroke-linecap:square;stroke-width:1.5;"/>
   </g>
   <g id="patch_7">
    <path d="M 59.059844 276.544 
L 59.059844 24.144 
" style="fill:none;stroke:#000000;stroke-linecap:square;stroke-linejoin:miter;stroke-width:0.8;"/>
   </g>
   <g id="patch_8">
    <path d="M 853.384844 276.544 
L 853.384844 24.144 
" style="fill:none;stroke:#000000;stroke-linecap:square;stroke-linejoin:miter;stroke-width:0.8;"/>
   </g>
   <g id="patch_9">
    <path d="M 59.059844 276.544 
L 853.384844 276.544 
" style="fill:none;stroke:#000000;stroke-linecap:square;stroke-linejoin:miter;stroke-width:0.8;"/>
   </g>
   <g id="patch_10">
    <path d="M 59.059844 24.144 
L 853.384844 24.144 
" style="fill:none;stroke:#000000;stroke-linecap:square;stroke-linejoin:miter;stroke-width:0.8;"/>
   </g>
  </g>
 </g>
 <defs>
  <clipPath id="pf9fda2371c">
   <rect height="252.4" width="794.325" x="59.059844" y="24.144"/>
  </clipPath>
 </defs>
</svg>
