<?xml version="1.0" encoding="utf-8" standalone="no"?>
<!DOCTYPE svg PUBLIC "-//W3C//DTD SVG 1.1//EN"
  "http://www.w3.org/Graphics/SVG/1.1/DTD/svg11.dtd">
<!-- Created with matplotlib (https://matplotlib.org/) -->
<svg height="345.6pt" version="1.1" viewBox="0 0 875.52 345.6" width="875.52pt" xmlns="http://www.w3.org/2000/svg" xmlns:xlink="http://www.w3.org/1999/xlink">
 <metadata>
  <rdf:RDF xmlns:cc="http://creativecommons.org/ns#" xmlns:dc="http://purl.org/dc/elements/1.1/" xmlns:rdf="http://www.w3.org/1999/02/22-rdf-syntax-ns#">
   <cc:Work>
    <dc:type rdf:resource="http://purl.org/dc/dcmitype/StillImage"/>
    <dc:date>2020-12-21T13:36:04.828899</dc:date>
    <dc:format>image/svg+xml</dc:format>
    <dc:creator>
     <cc:Agent>
      <dc:title>Matplotlib v3.3.3, https://matplotlib.org/</dc:title>
     </cc:Agent>
    </dc:creator>
   </cc:Work>
  </rdf:RDF>
 </metadata>
 <defs>
  <style type="text/css">*{stroke-linecap:butt;stroke-linejoin:round;}</style>
 </defs>
 <g id="figure_1">
  <g id="patch_1">
   <path d="M 0 345.6 
L 875.52 345.6 
L 875.52 0 
L 0 0 
z
" style="fill:none;"/>
  </g>
  <g id="axes_1">
   <g id="patch_2">
    <path d="M 64.21 301.64 
L 800.935 301.64 
L 800.935 31.46 
L 64.21 31.46 
z
" style="fill:none;"/>
   </g>
   <g id="matplotlib.axis_1">
    <g id="xtick_1">
     <g id="line2d_1">
      <defs>
       <path d="M 0 0 
L 0 3.5 
" id="ma3cc99170d" style="stroke:#000000;stroke-width:0.8;"/>
      </defs>
      <g>
       <use style="stroke:#000000;stroke-width:0.8;" x="97.6975" xlink:href="#ma3cc99170d" y="301.64"/>
      </g>
     </g>
     <g id="text_1">
      <!-- 0.0 -->
      <g transform="translate(88.950781 316.998281)scale(0.11 -0.11)">
       <defs>
        <path d="M 31.78125 66.40625 
Q 24.171875 66.40625 20.328125 58.90625 
Q 16.5 51.421875 16.5 36.375 
Q 16.5 21.390625 20.328125 13.890625 
Q 24.171875 6.390625 31.78125 6.390625 
Q 39.453125 6.390625 43.28125 13.890625 
Q 47.125 21.390625 47.125 36.375 
Q 47.125 51.421875 43.28125 58.90625 
Q 39.453125 66.40625 31.78125 66.40625 
z
M 31.78125 74.21875 
Q 44.046875 74.21875 50.515625 64.515625 
Q 56.984375 54.828125 56.984375 36.375 
Q 56.984375 17.96875 50.515625 8.265625 
Q 44.046875 -1.421875 31.78125 -1.421875 
Q 19.53125 -1.421875 13.0625 8.265625 
Q 6.59375 17.96875 6.59375 36.375 
Q 6.59375 54.828125 13.0625 64.515625 
Q 19.53125 74.21875 31.78125 74.21875 
z
" id="DejaVuSans-48"/>
        <path d="M 10.6875 12.40625 
L 21 12.40625 
L 21 0 
L 10.6875 0 
z
" id="DejaVuSans-46"/>
       </defs>
       <use xlink:href="#DejaVuSans-48"/>
       <use x="63.623047" xlink:href="#DejaVuSans-46"/>
       <use x="95.410156" xlink:href="#DejaVuSans-48"/>
      </g>
     </g>
    </g>
    <g id="xtick_2">
     <g id="line2d_2">
      <g>
       <use style="stroke:#000000;stroke-width:0.8;" x="231.6475" xlink:href="#ma3cc99170d" y="301.64"/>
      </g>
     </g>
     <g id="text_2">
      <!-- 0.2 -->
      <g transform="translate(222.900781 316.998281)scale(0.11 -0.11)">
       <defs>
        <path d="M 19.1875 8.296875 
L 53.609375 8.296875 
L 53.609375 0 
L 7.328125 0 
L 7.328125 8.296875 
Q 12.9375 14.109375 22.625 23.890625 
Q 32.328125 33.6875 34.8125 36.53125 
Q 39.546875 41.84375 41.421875 45.53125 
Q 43.3125 49.21875 43.3125 52.78125 
Q 43.3125 58.59375 39.234375 62.25 
Q 35.15625 65.921875 28.609375 65.921875 
Q 23.96875 65.921875 18.8125 64.3125 
Q 13.671875 62.703125 7.8125 59.421875 
L 7.8125 69.390625 
Q 13.765625 71.78125 18.9375 73 
Q 24.125 74.21875 28.421875 74.21875 
Q 39.75 74.21875 46.484375 68.546875 
Q 53.21875 62.890625 53.21875 53.421875 
Q 53.21875 48.921875 51.53125 44.890625 
Q 49.859375 40.875 45.40625 35.40625 
Q 44.1875 33.984375 37.640625 27.21875 
Q 31.109375 20.453125 19.1875 8.296875 
z
" id="DejaVuSans-50"/>
       </defs>
       <use xlink:href="#DejaVuSans-48"/>
       <use x="63.623047" xlink:href="#DejaVuSans-46"/>
       <use x="95.410156" xlink:href="#DejaVuSans-50"/>
      </g>
     </g>
    </g>
    <g id="xtick_3">
     <g id="line2d_3">
      <g>
       <use style="stroke:#000000;stroke-width:0.8;" x="365.5975" xlink:href="#ma3cc99170d" y="301.64"/>
      </g>
     </g>
     <g id="text_3">
      <!-- 0.4 -->
      <g transform="translate(356.850781 316.998281)scale(0.11 -0.11)">
       <defs>
        <path d="M 37.796875 64.3125 
L 12.890625 25.390625 
L 37.796875 25.390625 
z
M 35.203125 72.90625 
L 47.609375 72.90625 
L 47.609375 25.390625 
L 58.015625 25.390625 
L 58.015625 17.1875 
L 47.609375 17.1875 
L 47.609375 0 
L 37.796875 0 
L 37.796875 17.1875 
L 4.890625 17.1875 
L 4.890625 26.703125 
z
" id="DejaVuSans-52"/>
       </defs>
       <use xlink:href="#DejaVuSans-48"/>
       <use x="63.623047" xlink:href="#DejaVuSans-46"/>
       <use x="95.410156" xlink:href="#DejaVuSans-52"/>
      </g>
     </g>
    </g>
    <g id="xtick_4">
     <g id="line2d_4">
      <g>
       <use style="stroke:#000000;stroke-width:0.8;" x="499.5475" xlink:href="#ma3cc99170d" y="301.64"/>
      </g>
     </g>
     <g id="text_4">
      <!-- 0.6 -->
      <g transform="translate(490.800781 316.998281)scale(0.11 -0.11)">
       <defs>
        <path d="M 33.015625 40.375 
Q 26.375 40.375 22.484375 35.828125 
Q 18.609375 31.296875 18.609375 23.390625 
Q 18.609375 15.53125 22.484375 10.953125 
Q 26.375 6.390625 33.015625 6.390625 
Q 39.65625 6.390625 43.53125 10.953125 
Q 47.40625 15.53125 47.40625 23.390625 
Q 47.40625 31.296875 43.53125 35.828125 
Q 39.65625 40.375 33.015625 40.375 
z
M 52.59375 71.296875 
L 52.59375 62.3125 
Q 48.875 64.0625 45.09375 64.984375 
Q 41.3125 65.921875 37.59375 65.921875 
Q 27.828125 65.921875 22.671875 59.328125 
Q 17.53125 52.734375 16.796875 39.40625 
Q 19.671875 43.65625 24.015625 45.921875 
Q 28.375 48.1875 33.59375 48.1875 
Q 44.578125 48.1875 50.953125 41.515625 
Q 57.328125 34.859375 57.328125 23.390625 
Q 57.328125 12.15625 50.6875 5.359375 
Q 44.046875 -1.421875 33.015625 -1.421875 
Q 20.359375 -1.421875 13.671875 8.265625 
Q 6.984375 17.96875 6.984375 36.375 
Q 6.984375 53.65625 15.1875 63.9375 
Q 23.390625 74.21875 37.203125 74.21875 
Q 40.921875 74.21875 44.703125 73.484375 
Q 48.484375 72.75 52.59375 71.296875 
z
" id="DejaVuSans-54"/>
       </defs>
       <use xlink:href="#DejaVuSans-48"/>
       <use x="63.623047" xlink:href="#DejaVuSans-46"/>
       <use x="95.410156" xlink:href="#DejaVuSans-54"/>
      </g>
     </g>
    </g>
    <g id="xtick_5">
     <g id="line2d_5">
      <g>
       <use style="stroke:#000000;stroke-width:0.8;" x="633.4975" xlink:href="#ma3cc99170d" y="301.64"/>
      </g>
     </g>
     <g id="text_5">
      <!-- 0.8 -->
      <g transform="translate(624.750781 316.998281)scale(0.11 -0.11)">
       <defs>
        <path d="M 31.78125 34.625 
Q 24.75 34.625 20.71875 30.859375 
Q 16.703125 27.09375 16.703125 20.515625 
Q 16.703125 13.921875 20.71875 10.15625 
Q 24.75 6.390625 31.78125 6.390625 
Q 38.8125 6.390625 42.859375 10.171875 
Q 46.921875 13.96875 46.921875 20.515625 
Q 46.921875 27.09375 42.890625 30.859375 
Q 38.875 34.625 31.78125 34.625 
z
M 21.921875 38.8125 
Q 15.578125 40.375 12.03125 44.71875 
Q 8.5 49.078125 8.5 55.328125 
Q 8.5 64.0625 14.71875 69.140625 
Q 20.953125 74.21875 31.78125 74.21875 
Q 42.671875 74.21875 48.875 69.140625 
Q 55.078125 64.0625 55.078125 55.328125 
Q 55.078125 49.078125 51.53125 44.71875 
Q 48 40.375 41.703125 38.8125 
Q 48.828125 37.15625 52.796875 32.3125 
Q 56.78125 27.484375 56.78125 20.515625 
Q 56.78125 9.90625 50.3125 4.234375 
Q 43.84375 -1.421875 31.78125 -1.421875 
Q 19.734375 -1.421875 13.25 4.234375 
Q 6.78125 9.90625 6.78125 20.515625 
Q 6.78125 27.484375 10.78125 32.3125 
Q 14.796875 37.15625 21.921875 38.8125 
z
M 18.3125 54.390625 
Q 18.3125 48.734375 21.84375 45.5625 
Q 25.390625 42.390625 31.78125 42.390625 
Q 38.140625 42.390625 41.71875 45.5625 
Q 45.3125 48.734375 45.3125 54.390625 
Q 45.3125 60.0625 41.71875 63.234375 
Q 38.140625 66.40625 31.78125 66.40625 
Q 25.390625 66.40625 21.84375 63.234375 
Q 18.3125 60.0625 18.3125 54.390625 
z
" id="DejaVuSans-56"/>
       </defs>
       <use xlink:href="#DejaVuSans-48"/>
       <use x="63.623047" xlink:href="#DejaVuSans-46"/>
       <use x="95.410156" xlink:href="#DejaVuSans-56"/>
      </g>
     </g>
    </g>
    <g id="xtick_6">
     <g id="line2d_6">
      <g>
       <use style="stroke:#000000;stroke-width:0.8;" x="767.4475" xlink:href="#ma3cc99170d" y="301.64"/>
      </g>
     </g>
     <g id="text_6">
      <!-- 1.0 -->
      <g transform="translate(758.700781 316.998281)scale(0.11 -0.11)">
       <defs>
        <path d="M 12.40625 8.296875 
L 28.515625 8.296875 
L 28.515625 63.921875 
L 10.984375 60.40625 
L 10.984375 69.390625 
L 28.421875 72.90625 
L 38.28125 72.90625 
L 38.28125 8.296875 
L 54.390625 8.296875 
L 54.390625 0 
L 12.40625 0 
z
" id="DejaVuSans-49"/>
       </defs>
       <use xlink:href="#DejaVuSans-49"/>
       <use x="63.623047" xlink:href="#DejaVuSans-46"/>
       <use x="95.410156" xlink:href="#DejaVuSans-48"/>
      </g>
     </g>
    </g>
    <g id="text_7">
     <!-- Tiempo (s) -->
     <g transform="translate(403.35375 331.644219)scale(0.11 -0.11)">
      <defs>
       <path d="M -0.296875 72.90625 
L 61.375 72.90625 
L 61.375 64.59375 
L 35.5 64.59375 
L 35.5 0 
L 25.59375 0 
L 25.59375 64.59375 
L -0.296875 64.59375 
z
" id="DejaVuSans-84"/>
       <path d="M 9.421875 54.6875 
L 18.40625 54.6875 
L 18.40625 0 
L 9.421875 0 
z
M 9.421875 75.984375 
L 18.40625 75.984375 
L 18.40625 64.59375 
L 9.421875 64.59375 
z
" id="DejaVuSans-105"/>
       <path d="M 56.203125 29.59375 
L 56.203125 25.203125 
L 14.890625 25.203125 
Q 15.484375 15.921875 20.484375 11.0625 
Q 25.484375 6.203125 34.421875 6.203125 
Q 39.59375 6.203125 44.453125 7.46875 
Q 49.3125 8.734375 54.109375 11.28125 
L 54.109375 2.78125 
Q 49.265625 0.734375 44.1875 -0.34375 
Q 39.109375 -1.421875 33.890625 -1.421875 
Q 20.796875 -1.421875 13.15625 6.1875 
Q 5.515625 13.8125 5.515625 26.8125 
Q 5.515625 40.234375 12.765625 48.109375 
Q 20.015625 56 32.328125 56 
Q 43.359375 56 49.78125 48.890625 
Q 56.203125 41.796875 56.203125 29.59375 
z
M 47.21875 32.234375 
Q 47.125 39.59375 43.09375 43.984375 
Q 39.0625 48.390625 32.421875 48.390625 
Q 24.90625 48.390625 20.390625 44.140625 
Q 15.875 39.890625 15.1875 32.171875 
z
" id="DejaVuSans-101"/>
       <path d="M 52 44.1875 
Q 55.375 50.25 60.0625 53.125 
Q 64.75 56 71.09375 56 
Q 79.640625 56 84.28125 50.015625 
Q 88.921875 44.046875 88.921875 33.015625 
L 88.921875 0 
L 79.890625 0 
L 79.890625 32.71875 
Q 79.890625 40.578125 77.09375 44.375 
Q 74.3125 48.1875 68.609375 48.1875 
Q 61.625 48.1875 57.5625 43.546875 
Q 53.515625 38.921875 53.515625 30.90625 
L 53.515625 0 
L 44.484375 0 
L 44.484375 32.71875 
Q 44.484375 40.625 41.703125 44.40625 
Q 38.921875 48.1875 33.109375 48.1875 
Q 26.21875 48.1875 22.15625 43.53125 
Q 18.109375 38.875 18.109375 30.90625 
L 18.109375 0 
L 9.078125 0 
L 9.078125 54.6875 
L 18.109375 54.6875 
L 18.109375 46.1875 
Q 21.1875 51.21875 25.484375 53.609375 
Q 29.78125 56 35.6875 56 
Q 41.65625 56 45.828125 52.96875 
Q 50 49.953125 52 44.1875 
z
" id="DejaVuSans-109"/>
       <path d="M 18.109375 8.203125 
L 18.109375 -20.796875 
L 9.078125 -20.796875 
L 9.078125 54.6875 
L 18.109375 54.6875 
L 18.109375 46.390625 
Q 20.953125 51.265625 25.265625 53.625 
Q 29.59375 56 35.59375 56 
Q 45.5625 56 51.78125 48.09375 
Q 58.015625 40.1875 58.015625 27.296875 
Q 58.015625 14.40625 51.78125 6.484375 
Q 45.5625 -1.421875 35.59375 -1.421875 
Q 29.59375 -1.421875 25.265625 0.953125 
Q 20.953125 3.328125 18.109375 8.203125 
z
M 48.6875 27.296875 
Q 48.6875 37.203125 44.609375 42.84375 
Q 40.53125 48.484375 33.40625 48.484375 
Q 26.265625 48.484375 22.1875 42.84375 
Q 18.109375 37.203125 18.109375 27.296875 
Q 18.109375 17.390625 22.1875 11.75 
Q 26.265625 6.109375 33.40625 6.109375 
Q 40.53125 6.109375 44.609375 11.75 
Q 48.6875 17.390625 48.6875 27.296875 
z
" id="DejaVuSans-112"/>
       <path d="M 30.609375 48.390625 
Q 23.390625 48.390625 19.1875 42.75 
Q 14.984375 37.109375 14.984375 27.296875 
Q 14.984375 17.484375 19.15625 11.84375 
Q 23.34375 6.203125 30.609375 6.203125 
Q 37.796875 6.203125 41.984375 11.859375 
Q 46.1875 17.53125 46.1875 27.296875 
Q 46.1875 37.015625 41.984375 42.703125 
Q 37.796875 48.390625 30.609375 48.390625 
z
M 30.609375 56 
Q 42.328125 56 49.015625 48.375 
Q 55.71875 40.765625 55.71875 27.296875 
Q 55.71875 13.875 49.015625 6.21875 
Q 42.328125 -1.421875 30.609375 -1.421875 
Q 18.84375 -1.421875 12.171875 6.21875 
Q 5.515625 13.875 5.515625 27.296875 
Q 5.515625 40.765625 12.171875 48.375 
Q 18.84375 56 30.609375 56 
z
" id="DejaVuSans-111"/>
       <path id="DejaVuSans-32"/>
       <path d="M 31 75.875 
Q 24.46875 64.65625 21.28125 53.65625 
Q 18.109375 42.671875 18.109375 31.390625 
Q 18.109375 20.125 21.3125 9.0625 
Q 24.515625 -2 31 -13.1875 
L 23.1875 -13.1875 
Q 15.875 -1.703125 12.234375 9.375 
Q 8.59375 20.453125 8.59375 31.390625 
Q 8.59375 42.28125 12.203125 53.3125 
Q 15.828125 64.359375 23.1875 75.875 
z
" id="DejaVuSans-40"/>
       <path d="M 44.28125 53.078125 
L 44.28125 44.578125 
Q 40.484375 46.53125 36.375 47.5 
Q 32.28125 48.484375 27.875 48.484375 
Q 21.1875 48.484375 17.84375 46.4375 
Q 14.5 44.390625 14.5 40.28125 
Q 14.5 37.15625 16.890625 35.375 
Q 19.28125 33.59375 26.515625 31.984375 
L 29.59375 31.296875 
Q 39.15625 29.25 43.1875 25.515625 
Q 47.21875 21.78125 47.21875 15.09375 
Q 47.21875 7.46875 41.1875 3.015625 
Q 35.15625 -1.421875 24.609375 -1.421875 
Q 20.21875 -1.421875 15.453125 -0.5625 
Q 10.6875 0.296875 5.421875 2 
L 5.421875 11.28125 
Q 10.40625 8.6875 15.234375 7.390625 
Q 20.0625 6.109375 24.8125 6.109375 
Q 31.15625 6.109375 34.5625 8.28125 
Q 37.984375 10.453125 37.984375 14.40625 
Q 37.984375 18.0625 35.515625 20.015625 
Q 33.0625 21.96875 24.703125 23.78125 
L 21.578125 24.515625 
Q 13.234375 26.265625 9.515625 29.90625 
Q 5.8125 33.546875 5.8125 39.890625 
Q 5.8125 47.609375 11.28125 51.796875 
Q 16.75 56 26.8125 56 
Q 31.78125 56 36.171875 55.265625 
Q 40.578125 54.546875 44.28125 53.078125 
z
" id="DejaVuSans-115"/>
       <path d="M 8.015625 75.875 
L 15.828125 75.875 
Q 23.140625 64.359375 26.78125 53.3125 
Q 30.421875 42.28125 30.421875 31.390625 
Q 30.421875 20.453125 26.78125 9.375 
Q 23.140625 -1.703125 15.828125 -13.1875 
L 8.015625 -13.1875 
Q 14.5 -2 17.703125 9.0625 
Q 20.90625 20.125 20.90625 31.390625 
Q 20.90625 42.671875 17.703125 53.65625 
Q 14.5 64.65625 8.015625 75.875 
z
" id="DejaVuSans-41"/>
      </defs>
      <use xlink:href="#DejaVuSans-84"/>
      <use x="57.958984" xlink:href="#DejaVuSans-105"/>
      <use x="85.742188" xlink:href="#DejaVuSans-101"/>
      <use x="147.265625" xlink:href="#DejaVuSans-109"/>
      <use x="244.677734" xlink:href="#DejaVuSans-112"/>
      <use x="308.154297" xlink:href="#DejaVuSans-111"/>
      <use x="369.335938" xlink:href="#DejaVuSans-32"/>
      <use x="401.123047" xlink:href="#DejaVuSans-40"/>
      <use x="440.136719" xlink:href="#DejaVuSans-115"/>
      <use x="492.236328" xlink:href="#DejaVuSans-41"/>
     </g>
    </g>
   </g>
   <g id="matplotlib.axis_2">
    <g id="ytick_1">
     <g id="line2d_7">
      <defs>
       <path d="M 0 0 
L -3.5 0 
" id="m1789168c64" style="stroke:#000000;stroke-width:0.8;"/>
      </defs>
      <g>
       <use style="stroke:#000000;stroke-width:0.8;" x="64.21" xlink:href="#m1789168c64" y="268.890944"/>
      </g>
     </g>
     <g id="text_8">
      <!-- −100 -->
      <g style="fill:#2ca02c;" transform="translate(26.996094 273.070085)scale(0.11 -0.11)">
       <defs>
        <path d="M 10.59375 35.5 
L 73.1875 35.5 
L 73.1875 27.203125 
L 10.59375 27.203125 
z
" id="DejaVuSans-8722"/>
       </defs>
       <use xlink:href="#DejaVuSans-8722"/>
       <use x="83.789062" xlink:href="#DejaVuSans-49"/>
       <use x="147.412109" xlink:href="#DejaVuSans-48"/>
       <use x="211.035156" xlink:href="#DejaVuSans-48"/>
      </g>
     </g>
    </g>
    <g id="ytick_2">
     <g id="line2d_8">
      <g>
       <use style="stroke:#000000;stroke-width:0.8;" x="64.21" xlink:href="#m1789168c64" y="217.719415"/>
      </g>
     </g>
     <g id="text_9">
      <!-- −50 -->
      <g style="fill:#2ca02c;" transform="translate(33.994844 221.898556)scale(0.11 -0.11)">
       <defs>
        <path d="M 10.796875 72.90625 
L 49.515625 72.90625 
L 49.515625 64.59375 
L 19.828125 64.59375 
L 19.828125 46.734375 
Q 21.96875 47.46875 24.109375 47.828125 
Q 26.265625 48.1875 28.421875 48.1875 
Q 40.625 48.1875 47.75 41.5 
Q 54.890625 34.8125 54.890625 23.390625 
Q 54.890625 11.625 47.5625 5.09375 
Q 40.234375 -1.421875 26.90625 -1.421875 
Q 22.3125 -1.421875 17.546875 -0.640625 
Q 12.796875 0.140625 7.71875 1.703125 
L 7.71875 11.625 
Q 12.109375 9.234375 16.796875 8.0625 
Q 21.484375 6.890625 26.703125 6.890625 
Q 35.15625 6.890625 40.078125 11.328125 
Q 45.015625 15.765625 45.015625 23.390625 
Q 45.015625 31 40.078125 35.4375 
Q 35.15625 39.890625 26.703125 39.890625 
Q 22.75 39.890625 18.8125 39.015625 
Q 14.890625 38.140625 10.796875 36.28125 
z
" id="DejaVuSans-53"/>
       </defs>
       <use xlink:href="#DejaVuSans-8722"/>
       <use x="83.789062" xlink:href="#DejaVuSans-53"/>
       <use x="147.412109" xlink:href="#DejaVuSans-48"/>
      </g>
     </g>
    </g>
    <g id="ytick_3">
     <g id="line2d_9">
      <g>
       <use style="stroke:#000000;stroke-width:0.8;" x="64.21" xlink:href="#m1789168c64" y="166.547886"/>
      </g>
     </g>
     <g id="text_10">
      <!-- 0 -->
      <g style="fill:#2ca02c;" transform="translate(50.21125 170.727026)scale(0.11 -0.11)">
       <use xlink:href="#DejaVuSans-48"/>
      </g>
     </g>
    </g>
    <g id="ytick_4">
     <g id="line2d_10">
      <g>
       <use style="stroke:#000000;stroke-width:0.8;" x="64.21" xlink:href="#m1789168c64" y="115.376357"/>
      </g>
     </g>
     <g id="text_11">
      <!-- 50 -->
      <g style="fill:#2ca02c;" transform="translate(43.2125 119.555497)scale(0.11 -0.11)">
       <use xlink:href="#DejaVuSans-53"/>
       <use x="63.623047" xlink:href="#DejaVuSans-48"/>
      </g>
     </g>
    </g>
    <g id="ytick_5">
     <g id="line2d_11">
      <g>
       <use style="stroke:#000000;stroke-width:0.8;" x="64.21" xlink:href="#m1789168c64" y="64.204828"/>
      </g>
     </g>
     <g id="text_12">
      <!-- 100 -->
      <g style="fill:#2ca02c;" transform="translate(36.21375 68.383968)scale(0.11 -0.11)">
       <use xlink:href="#DejaVuSans-49"/>
       <use x="63.623047" xlink:href="#DejaVuSans-48"/>
       <use x="127.246094" xlink:href="#DejaVuSans-48"/>
      </g>
     </g>
    </g>
    <g id="text_13">
     <!-- Voltaje (V) -->
     <g style="fill:#2ca02c;" transform="translate(20.708438 195.020234)rotate(-90)scale(0.11 -0.11)">
      <defs>
       <path d="M 28.609375 0 
L 0.78125 72.90625 
L 11.078125 72.90625 
L 34.1875 11.53125 
L 57.328125 72.90625 
L 67.578125 72.90625 
L 39.796875 0 
z
" id="DejaVuSans-86"/>
       <path d="M 9.421875 75.984375 
L 18.40625 75.984375 
L 18.40625 0 
L 9.421875 0 
z
" id="DejaVuSans-108"/>
       <path d="M 18.3125 70.21875 
L 18.3125 54.6875 
L 36.8125 54.6875 
L 36.8125 47.703125 
L 18.3125 47.703125 
L 18.3125 18.015625 
Q 18.3125 11.328125 20.140625 9.421875 
Q 21.96875 7.515625 27.59375 7.515625 
L 36.8125 7.515625 
L 36.8125 0 
L 27.59375 0 
Q 17.1875 0 13.234375 3.875 
Q 9.28125 7.765625 9.28125 18.015625 
L 9.28125 47.703125 
L 2.6875 47.703125 
L 2.6875 54.6875 
L 9.28125 54.6875 
L 9.28125 70.21875 
z
" id="DejaVuSans-116"/>
       <path d="M 34.28125 27.484375 
Q 23.390625 27.484375 19.1875 25 
Q 14.984375 22.515625 14.984375 16.5 
Q 14.984375 11.71875 18.140625 8.90625 
Q 21.296875 6.109375 26.703125 6.109375 
Q 34.1875 6.109375 38.703125 11.40625 
Q 43.21875 16.703125 43.21875 25.484375 
L 43.21875 27.484375 
z
M 52.203125 31.203125 
L 52.203125 0 
L 43.21875 0 
L 43.21875 8.296875 
Q 40.140625 3.328125 35.546875 0.953125 
Q 30.953125 -1.421875 24.3125 -1.421875 
Q 15.921875 -1.421875 10.953125 3.296875 
Q 6 8.015625 6 15.921875 
Q 6 25.140625 12.171875 29.828125 
Q 18.359375 34.515625 30.609375 34.515625 
L 43.21875 34.515625 
L 43.21875 35.40625 
Q 43.21875 41.609375 39.140625 45 
Q 35.0625 48.390625 27.6875 48.390625 
Q 23 48.390625 18.546875 47.265625 
Q 14.109375 46.140625 10.015625 43.890625 
L 10.015625 52.203125 
Q 14.9375 54.109375 19.578125 55.046875 
Q 24.21875 56 28.609375 56 
Q 40.484375 56 46.34375 49.84375 
Q 52.203125 43.703125 52.203125 31.203125 
z
" id="DejaVuSans-97"/>
       <path d="M 9.421875 54.6875 
L 18.40625 54.6875 
L 18.40625 -0.984375 
Q 18.40625 -11.421875 14.421875 -16.109375 
Q 10.453125 -20.796875 1.609375 -20.796875 
L -1.8125 -20.796875 
L -1.8125 -13.1875 
L 0.59375 -13.1875 
Q 5.71875 -13.1875 7.5625 -10.8125 
Q 9.421875 -8.453125 9.421875 -0.984375 
z
M 9.421875 75.984375 
L 18.40625 75.984375 
L 18.40625 64.59375 
L 9.421875 64.59375 
z
" id="DejaVuSans-106"/>
      </defs>
      <use xlink:href="#DejaVuSans-86"/>
      <use x="60.658203" xlink:href="#DejaVuSans-111"/>
      <use x="121.839844" xlink:href="#DejaVuSans-108"/>
      <use x="149.623047" xlink:href="#DejaVuSans-116"/>
      <use x="188.832031" xlink:href="#DejaVuSans-97"/>
      <use x="250.111328" xlink:href="#DejaVuSans-106"/>
      <use x="277.894531" xlink:href="#DejaVuSans-101"/>
      <use x="339.417969" xlink:href="#DejaVuSans-32"/>
      <use x="371.205078" xlink:href="#DejaVuSans-40"/>
      <use x="410.21875" xlink:href="#DejaVuSans-86"/>
      <use x="478.626953" xlink:href="#DejaVuSans-41"/>
     </g>
    </g>
   </g>
   <g id="line2d_12">
    <path clip-path="url(#p5c1572f309)" d="M 97.6975 166.547886 
L 98.399784 119.254511 
L 99.053836 81.632866 
L 99.962054 49.081361 
L 100.341638 44.15347 
L 100.601012 43.984064 
L 100.83933 46.128173 
L 101.226002 54.177695 
L 101.843846 77.793359 
L 102.497899 114.289981 
L 104.460057 242.323955 
L 105.11411 272.029283 
L 105.676588 286.370115 
L 106.029652 289.328858 
L 106.222046 288.906352 
L 106.485292 286.009325 
L 106.911677 275.812927 
L 107.56573 248.312028 
L 108.873835 165.591502 
L 110.18194 83.366476 
L 111.104188 49.499895 
L 111.485743 44.264759 
L 111.719746 43.829158 
L 111.930603 45.258146 
L 112.273228 51.201046 
L 112.823901 69.559051 
L 113.477953 103.171912 
L 116.094164 265.025378 
L 116.786686 285.523716 
L 117.159167 289.256719 
L 117.372276 288.976238 
L 117.627838 286.321776 
L 118.042011 276.810141 
L 118.696064 249.957671 
L 120.004169 167.815039 
L 121.312275 85.015898 
L 122.254633 49.754896 
L 122.637391 44.336562 
L 122.839833 43.750094 
L 123.024051 44.600779 
L 123.323706 48.773364 
L 123.807553 62.478574 
L 124.461606 92.920558 
L 125.769711 178.003893 
L 127.077817 257.151896 
L 127.895953 284.557905 
L 128.272982 289.072962 
L 128.516634 289.068863 
L 128.760828 286.756149 
L 129.156885 278.220195 
L 129.788847 253.429928 
L 130.4429 216.369364 
L 132.405058 88.681913 
L 133.059111 59.719702 
L 133.593795 46.561838 
L 133.776108 44.509876 
L 133.960094 43.740909 
L 134.13729 44.244348 
L 134.406164 47.324978 
L 134.841477 58.035685 
L 135.49553 86.005625 
L 136.803635 169.132072 
L 138.111741 250.919658 
L 139.022894 283.853677 
L 139.403234 288.900579 
L 139.639875 289.22555 
L 139.859444 287.582731 
L 140.216073 281.001796 
L 140.788258 261.021136 
L 141.442311 226.449852 
L 143.404469 97.715926 
L 144.058522 65.723339 
L 144.709798 47.288372 
L 144.880777 45.022471 
L 145.092953 43.775914 
L 145.28877 44.177475 
L 145.550747 47.033811 
L 145.975117 57.115763 
L 146.62917 84.510245 
L 147.937276 167.137244 
L 149.245381 249.458899 
L 150.170951 283.554208 
L 150.552702 288.819477 
L 150.76217 289.323926 
L 150.956494 288.267272 
L 151.272476 283.455572 
L 151.781851 268.043767 
L 152.435903 236.35719 
L 155.052114 72.835522 
L 155.822721 48.153014 
L 156.197941 43.941301 
L 156.429861 44.061019 
L 156.678428 46.502772 
L 157.081461 55.408695 
L 157.723868 81.082858 
L 158.37792 118.550731 
L 160.340079 245.941601 
L 160.994131 274.343151 
L 161.508151 286.6522 
L 161.861108 289.351165 
L 162.041594 288.863575 
L 162.30925 285.823089 
L 162.742633 275.22455 
L 163.396686 247.355651 
L 164.704791 164.315771 
L 166.012897 82.432344 
L 166.925432 49.318313 
L 167.306131 44.215429 
L 167.541986 43.857191 
L 167.758957 45.434976 
L 168.111413 51.822661 
L 168.677202 71.314714 
L 169.331254 105.604366 
L 171.293413 234.385786 
L 171.947465 266.684562 
L 172.611045 285.724348 
L 172.780798 288.010394 
L 172.991493 289.305153 
L 173.192152 288.934924 
L 173.452334 286.135736 
L 173.873853 276.214798 
L 174.527906 248.971339 
L 175.836012 166.477962 
L 177.144117 84.020813 
L 178.074386 49.600819 
L 178.456417 44.292834 
L 178.66392 43.764747 
L 178.855417 44.762133 
L 179.166835 49.39102 
L 179.66909 64.317908 
L 180.323143 95.661383 
L 182.939354 259.405509 
L 183.723274 284.837479 
L 184.098989 289.133172 
L 184.334171 289.044423 
L 184.581523 286.638836 
L 184.982618 277.836407 
L 185.622128 252.408685 
L 186.276181 215.052942 
L 188.238339 87.576357 
L 188.892392 59.018356 
L 189.412152 46.476132 
L 189.764962 43.746654 
L 189.946953 44.226683 
L 190.214052 47.248868 
L 190.646551 57.796223 
L 191.300603 85.618785 
L 192.608709 168.618804 
L 193.916814 250.545885 
L 194.829984 283.742408 
L 195.210848 288.870942 
L 195.446343 289.244318 
L 195.662125 287.695923 
L 196.012672 281.39579 
L 196.575529 262.125919 
L 197.229582 227.966278 
L 199.19174 99.167194 
L 199.845793 66.729274 
L 200.515 47.409846 
L 200.68419 45.114745 
L 200.894205 43.798142 
L 201.097086 44.153322 
L 201.356444 46.926446 
L 201.776653 56.773835 
L 202.430706 83.947793 
L 203.738812 166.379327 
L 205.046917 248.898191 
L 205.979344 283.467635 
L 206.361504 288.79526 
L 206.568104 289.33402 
L 206.758303 288.363419 
L 207.067625 283.817427 
L 207.566605 269.111266 
L 208.220657 237.926654 
L 210.836868 74.086592 
L 211.626897 48.307243 
L 212.002842 43.972767 
L 212.239528 44.046942 
L 212.48632 46.435941 
L 212.886521 55.19085 
L 213.524694 80.505205 
L 214.178747 117.808998 
L 216.140905 245.324233 
L 216.794958 273.954168 
L 217.317365 286.604556 
L 217.500847 288.631598 
L 217.689481 289.35909 
L 217.859994 288.826282 
L 218.131342 285.663382 
L 218.570573 274.723296 
L 219.224626 246.548835 
L 220.532732 163.248664 
L 221.840837 81.657813 
L 222.749189 49.088716 
L 223.128808 44.15535 
L 223.388388 43.983523 
L 223.62663 46.12545 
L 224.013178 54.168652 
L 224.630835 77.768961 
L 225.284888 114.258034 
L 227.247046 242.29617 
L 227.901099 272.011198 
L 228.463944 286.36792 
L 228.816832 289.328362 
L 229.009427 288.907057 
L 229.272598 286.012423 
L 229.698865 275.822752 
L 230.352918 248.328087 
L 231.661024 165.613026 
L 232.969129 83.382313 
L 233.891572 49.502334 
L 234.273138 44.265432 
L 234.507117 43.82881 
L 234.717892 45.255857 
L 235.060386 51.192929 
L 235.610857 69.535986 
L 236.264909 103.139702 
L 238.88112 265.002902 
L 239.574028 285.520994 
L 239.946521 289.256306 
L 240.159721 288.976535 
L 240.415249 286.323125 
L 240.829369 276.814476 
L 241.483421 249.964897 
L 242.791527 167.824883 
L 244.099632 85.023261 
L 245.042079 49.756039 
L 245.424843 44.33689 
L 245.627248 43.750005 
L 245.811412 44.599642 
L 246.110981 48.768943 
L 246.594692 62.465303 
L 247.248744 92.900552 
L 248.55685 177.979004 
L 249.864955 257.135019 
L 250.683343 284.555799 
L 251.060382 289.07249 
L 251.304096 289.069041 
L 251.548267 286.757009 
L 251.944287 278.223018 
L 252.576193 253.437462 
L 253.230245 216.379107 
L 255.192404 88.690156 
L 255.846456 59.724961 
L 256.381252 46.562479 
L 256.563554 44.510295 
L 256.747498 43.740967 
L 256.924754 44.244124 
L 257.193606 47.324015 
L 257.628883 58.03266 
L 258.282936 86.00075 
L 259.591042 169.125615 
L 260.899147 250.914964 
L 261.810325 283.852283 
L 262.190672 288.900211 
L 262.427299 289.225795 
L 262.64682 287.584179 
L 263.003373 281.006813 
L 263.575441 261.035155 
L 264.229493 226.469008 
L 266.191652 97.734101 
L 266.845704 65.73587 
L 267.497207 47.289884 
L 267.668163 45.02361 
L 267.880311 43.776163 
L 268.076217 44.177168 
L 268.338161 47.032453 
L 268.76248 57.111447 
L 269.416533 84.503168 
L 270.724638 167.127735 
L 272.032743 249.451883 
L 272.958399 283.553126 
L 273.340156 288.819176 
L 273.549588 289.324063 
L 273.74386 288.268505 
L 274.059759 283.46018 
L 274.569003 268.057303 
L 275.223056 236.376971 
L 277.839267 72.851065 
L 278.610117 48.154925 
L 278.985346 43.941681 
L 279.217325 44.060841 
L 279.46587 46.501932 
L 279.868868 55.40596 
L 280.511222 81.075618 
L 281.165274 118.54145 
L 283.127433 245.933908 
L 283.781485 274.33832 
L 284.29561 286.651608 
L 284.648504 289.351081 
L 284.829055 288.863815 
L 285.096687 285.824127 
L 285.530031 275.227817 
L 286.184084 247.360933 
L 287.49219 164.322785 
L 288.800295 82.437456 
L 289.712858 49.319836 
L 290.093564 44.215837 
L 290.329403 43.856939 
L 290.546323 45.433439 
L 290.898696 51.817303 
L 291.464357 71.299668 
L 292.11841 105.583677 
L 294.080568 234.365919 
L 294.734621 266.670763 
L 295.398445 285.722682 
L 295.568174 288.009123 
L 295.77884 289.304836 
L 295.979595 288.935253 
L 296.239741 286.1372 
L 296.661203 276.219464 
L 297.315256 248.979025 
L 298.623362 166.48833 
L 299.931467 84.028491 
L 300.86183 49.602006 
L 301.243867 44.293167 
L 301.45133 43.764613 
L 301.642771 44.760829 
L 301.954098 49.386099 
L 302.456211 64.303365 
L 303.110263 95.639951 
L 305.726474 259.38833 
L 306.51066 284.835359 
L 306.886385 289.132735 
L 307.121633 289.044615 
L 307.36896 286.639749 
L 307.770016 277.839386 
L 308.409468 252.41659 
L 309.063521 215.063099 
L 311.025679 87.584824 
L 311.679732 59.023698 
L 312.199607 46.476786 
L 312.552468 43.746649 
L 312.734455 44.226698 
L 313.001556 47.248931 
L 313.434057 57.796419 
L 314.08811 85.619102 
L 315.396215 168.619226 
L 316.70432 250.546193 
L 317.617488 283.7425 
L 317.998352 288.870966 
L 318.233848 289.244303 
L 318.449633 287.695831 
L 318.800185 281.395471 
L 319.36305 262.12502 
L 320.017103 227.965037 
L 321.979261 99.165996 
L 322.633314 66.728439 
L 323.302506 47.409745 
L 323.471697 45.114668 
L 323.681715 43.798122 
L 323.88459 44.153342 
L 324.14395 46.926534 
L 324.564162 56.774115 
L 325.218215 83.948255 
L 326.526321 166.379951 
L 327.834426 248.898654 
L 328.766847 283.467707 
L 329.149007 288.79528 
L 329.355609 289.334013 
L 329.545812 288.363341 
L 329.855139 283.817134 
L 330.354128 269.110396 
L 331.00818 237.925367 
L 333.624391 74.085551 
L 334.414404 48.307115 
L 334.790348 43.97274 
L 335.02703 44.046953 
L 335.273823 46.435996 
L 335.674028 55.19103 
L 336.312204 80.505682 
L 336.966257 117.809611 
L 338.928415 245.324746 
L 339.582468 273.954492 
L 340.104868 286.604595 
L 340.28835 288.631624 
L 340.476987 289.359091 
L 340.647496 288.826268 
L 340.918845 285.663321 
L 341.358079 274.723105 
L 342.012132 246.548529 
L 343.320237 163.248261 
L 344.628343 81.657521 
L 345.536694 49.08863 
L 345.916312 44.155328 
L 346.17589 43.983529 
L 346.414132 46.125481 
L 346.800681 54.168758 
L 347.418341 77.769246 
L 348.072394 114.258408 
L 350.034552 242.296494 
L 350.688605 272.011409 
L 351.251445 286.367946 
L 351.604336 289.328368 
L 351.796929 288.907049 
L 352.060101 286.012387 
L 352.486369 275.822637 
L 353.140422 248.3279 
L 354.448527 165.612774 
L 355.756633 83.382128 
L 356.679073 49.502305 
L 357.060639 44.265424 
L 357.294618 43.828814 
L 357.505394 45.255884 
L 357.84789 51.193024 
L 358.398363 69.536255 
L 359.052416 103.140079 
L 361.668627 265.003165 
L 362.36153 285.521026 
L 362.734023 289.256311 
L 362.947222 288.976531 
L 363.20275 286.323109 
L 363.61687 276.814425 
L 364.270923 249.964812 
L 365.579029 167.824768 
L 366.887134 85.023175 
L 367.82958 49.756026 
L 368.212344 44.336887 
L 368.414749 43.750006 
L 368.598914 44.599655 
L 368.898483 48.768995 
L 369.382196 62.465458 
L 370.036249 92.900786 
L 371.344354 177.979295 
L 372.652459 257.135216 
L 373.470844 284.555824 
L 373.847883 289.072495 
L 374.091597 289.069039 
L 374.335768 286.756999 
L 374.731788 278.222985 
L 375.363695 253.437373 
L 376.017747 216.378993 
L 377.979905 88.69006 
L 378.633958 59.724899 
L 379.168752 46.562472 
L 379.351054 44.51029 
L 379.534999 43.740967 
L 379.712254 44.244127 
L 379.981107 47.324027 
L 380.416384 58.032696 
L 381.070437 86.000807 
L 382.378543 169.12569 
L 383.686648 250.915019 
L 384.597826 283.852299 
L 384.978173 288.900215 
L 385.2148 289.225793 
L 385.434322 287.584162 
L 385.790875 281.006755 
L 386.362944 261.034991 
L 387.016997 226.468784 
L 388.979155 97.733888 
L 389.633208 65.735723 
L 390.284708 47.289866 
L 390.455665 45.023596 
L 390.667813 43.77616 
L 390.863718 44.177171 
L 391.125662 47.032468 
L 391.549981 57.111498 
L 392.204034 84.503251 
L 393.51214 167.127846 
L 394.820245 249.451965 
L 395.7459 283.553139 
L 396.127656 288.81918 
L 396.337089 289.324061 
L 396.531362 288.268491 
L 396.847261 283.460126 
L 397.356507 268.057145 
L 398.01056 236.376739 
L 400.626771 72.850883 
L 401.397618 48.154903 
L 401.772847 43.941676 
L 402.004826 44.060843 
L 402.253371 46.501941 
L 402.656369 55.405991 
L 403.298723 81.075702 
L 403.952776 118.541559 
L 405.914934 245.933998 
L 406.568987 274.338376 
L 407.083111 286.651614 
L 407.436005 289.351082 
L 407.616555 288.863813 
L 407.884188 285.824115 
L 408.317533 275.227779 
L 408.971585 247.360872 
L 410.279691 164.322703 
L 411.587796 82.437396 
L 412.500359 49.319819 
L 412.881065 44.215832 
L 413.116904 43.856942 
L 413.333824 45.433457 
L 413.686198 51.817366 
L 414.251861 71.299844 
L 414.905914 105.583919 
L 416.868072 234.366152 
L 417.522125 266.670925 
L 418.185947 285.722701 
L 418.355675 288.009138 
L 418.566341 289.304839 
L 418.767096 288.935249 
L 419.027242 286.137183 
L 419.448705 276.219409 
L 420.102758 248.978935 
L 421.410863 166.488209 
L 422.718969 84.028401 
L 423.649331 49.601992 
L 424.031367 44.293163 
L 424.238831 43.764615 
L 424.430273 44.760845 
L 424.741601 49.386156 
L 425.243715 64.303535 
L 425.897768 95.640202 
L 428.513979 259.388531 
L 429.298161 284.835384 
L 429.673886 289.13274 
L 429.909133 289.044613 
L 430.156461 286.639738 
L 430.557518 277.839351 
L 431.19697 252.416498 
L 431.851023 215.062981 
L 433.813181 87.584725 
L 434.467234 59.023636 
L 434.987108 46.476778 
L 435.339968 43.746649 
L 435.521955 44.226697 
L 435.789056 47.24893 
L 436.221557 57.796417 
L 436.875609 85.619098 
L 438.183715 168.619221 
L 439.49182 250.546189 
L 440.404988 283.742499 
L 440.785852 288.870966 
L 441.021347 289.244304 
L 441.237133 287.695832 
L 441.587684 281.395474 
L 442.15055 262.12503 
L 442.804602 227.965052 
L 444.766761 99.16601 
L 445.420813 66.728449 
L 446.090006 47.409746 
L 446.259197 45.114669 
L 446.469214 43.798122 
L 446.67209 44.153341 
L 446.93145 46.926533 
L 447.351662 56.774112 
L 448.005715 83.948249 
L 449.313821 166.379944 
L 450.621926 248.898649 
L 451.554347 283.467706 
L 451.936507 288.79528 
L 452.143109 289.334013 
L 452.333312 288.363342 
L 452.642639 283.817137 
L 453.141627 269.110406 
L 453.79568 237.925382 
L 456.411891 74.085563 
L 457.201904 48.307116 
L 457.577848 43.97274 
L 457.81453 44.046953 
L 458.061323 46.435996 
L 458.461528 55.191027 
L 459.099704 80.505676 
L 459.753757 117.809604 
L 461.715915 245.32474 
L 462.369968 273.954488 
L 462.892368 286.604595 
L 463.07585 288.631623 
L 463.264487 289.359091 
L 463.434996 288.826268 
L 463.706345 285.663322 
L 464.145579 274.723107 
L 464.799632 246.548532 
L 466.107737 163.248265 
L 467.415843 81.657525 
L 468.324194 49.088631 
L 468.703812 44.155328 
L 468.96339 43.983529 
L 469.201632 46.125481 
L 469.588181 54.168756 
L 470.205841 77.769243 
L 470.859894 114.258403 
L 472.822052 242.296491 
L 473.476105 272.011407 
L 474.038945 286.367946 
L 474.391836 289.328367 
L 474.584429 288.907049 
L 474.847601 286.012388 
L 475.273869 275.822638 
L 475.927922 248.327902 
L 477.236027 165.612777 
L 478.544133 83.38213 
L 479.466573 49.502306 
L 479.848139 44.265424 
L 480.082118 43.828814 
L 480.292894 45.255883 
L 480.63539 51.193022 
L 481.185863 69.536252 
L 481.839916 103.140074 
L 484.456127 265.003162 
L 485.14903 285.521025 
L 485.521523 289.256311 
L 485.734722 288.976531 
L 485.99025 286.323109 
L 486.40437 276.814426 
L 487.058423 249.964813 
L 488.366529 167.82477 
L 489.674634 85.023176 
L 490.61708 49.756026 
L 490.999844 44.336887 
L 491.202249 43.750006 
L 491.386414 44.599655 
L 491.685983 48.768994 
L 492.169696 62.465456 
L 492.823748 92.900783 
L 494.131854 177.979291 
L 495.439959 257.135214 
L 496.258344 284.555823 
L 496.635383 289.072495 
L 496.879097 289.069039 
L 497.123268 286.756999 
L 497.519288 278.222985 
L 498.151195 253.437375 
L 498.805247 216.378994 
L 500.767405 88.690061 
L 501.421458 59.7249 
L 501.956252 46.562472 
L 502.138554 44.51029 
L 502.322499 43.740967 
L 502.499754 44.244127 
L 502.768607 47.324027 
L 503.203884 58.032695 
L 503.857937 86.000806 
L 505.166043 169.125689 
L 506.474148 250.915019 
L 507.385326 283.852299 
L 507.765673 288.900215 
L 508.0023 289.225793 
L 508.221822 287.584162 
L 508.578375 281.006755 
L 509.150444 261.034993 
L 509.804497 226.468787 
L 511.766655 97.733891 
L 512.420708 65.735725 
L 513.072208 47.289867 
L 513.243165 45.023596 
L 513.455313 43.77616 
L 513.651218 44.177171 
L 513.913162 47.032468 
L 514.337481 57.111497 
L 514.991534 84.50325 
L 516.29964 167.127845 
L 517.607745 249.451964 
L 518.5334 283.553139 
L 518.915156 288.81918 
L 519.124589 289.324061 
L 519.318862 288.268491 
L 519.634761 283.460127 
L 520.144007 268.057147 
L 520.79806 236.376742 
L 523.414271 72.850885 
L 524.185118 48.154903 
L 524.560347 43.941676 
L 524.792326 44.060843 
L 525.040871 46.501941 
L 525.443869 55.405991 
L 526.086223 81.075701 
L 526.740276 118.541557 
L 528.702434 245.933997 
L 529.356487 274.338376 
L 529.870611 286.651614 
L 530.223505 289.351082 
L 530.404055 288.863813 
L 530.671688 285.824115 
L 531.105033 275.227779 
L 531.759085 247.360872 
L 533.067191 164.322704 
L 534.375296 82.437397 
L 535.287859 49.319819 
L 535.668565 44.215832 
L 535.904404 43.856942 
L 536.121324 45.433457 
L 536.473698 51.817365 
L 537.039361 71.299842 
L 537.693414 105.583916 
L 539.655572 234.366149 
L 540.309625 266.670923 
L 540.973447 285.722701 
L 541.143175 288.009138 
L 541.353841 289.304839 
L 541.554596 288.935249 
L 541.814742 286.137183 
L 542.236205 276.21941 
L 542.890258 248.978936 
L 544.198363 166.48821 
L 545.506469 84.028402 
L 546.436831 49.601992 
L 546.818867 44.293163 
L 547.026331 43.764615 
L 547.217773 44.760844 
L 547.529101 49.386155 
L 548.031215 64.303533 
L 548.685268 95.640199 
L 551.301479 259.388529 
L 552.085661 284.835384 
L 552.461386 289.13274 
L 552.696633 289.044613 
L 552.943961 286.639738 
L 553.345018 277.839352 
L 553.98447 252.416499 
L 554.638523 215.062982 
L 556.600681 87.584726 
L 557.254734 59.023636 
L 557.774608 46.476778 
L 558.127468 43.746649 
L 558.309455 44.226697 
L 558.576556 47.24893 
L 559.009057 57.796417 
L 559.663109 85.619099 
L 560.971215 168.619221 
L 562.27932 250.546189 
L 563.192488 283.742499 
L 563.573352 288.870966 
L 563.808847 289.244304 
L 564.024633 287.695832 
L 564.375184 281.395474 
L 564.93805 262.12503 
L 565.592102 227.965052 
L 567.554261 99.16601 
L 568.208313 66.728449 
L 568.877506 47.409746 
L 569.046697 45.114669 
L 569.256714 43.798122 
L 569.45959 44.153341 
L 569.71895 46.926533 
L 570.139162 56.774112 
L 570.793215 83.948249 
L 572.101321 166.379944 
L 573.409426 248.898649 
L 574.341847 283.467706 
L 574.724007 288.79528 
L 574.930609 289.334013 
L 575.120812 288.363342 
L 575.430139 283.817137 
L 575.929127 269.110406 
L 576.58318 237.925382 
L 579.199391 74.085563 
L 579.989404 48.307116 
L 580.365348 43.97274 
L 580.60203 44.046953 
L 580.848823 46.435996 
L 581.249028 55.191027 
L 581.887204 80.505676 
L 582.541257 117.809604 
L 584.503415 245.32474 
L 585.157468 273.954488 
L 585.679868 286.604595 
L 585.86335 288.631623 
L 586.051987 289.359091 
L 586.222496 288.826268 
L 586.493845 285.663322 
L 586.933079 274.723107 
L 587.587132 246.548532 
L 588.895237 163.248265 
L 590.203343 81.657525 
L 591.111694 49.088631 
L 591.491312 44.155328 
L 591.75089 43.983529 
L 591.989132 46.125481 
L 592.375681 54.168756 
L 592.993341 77.769243 
L 593.647394 114.258403 
L 595.609552 242.296491 
L 596.263605 272.011407 
L 596.826445 286.367946 
L 597.179336 289.328367 
L 597.371929 288.907049 
L 597.635101 286.012388 
L 598.061369 275.822638 
L 598.715422 248.327902 
L 600.023527 165.612777 
L 601.331633 83.38213 
L 602.254073 49.502306 
L 602.635639 44.265424 
L 602.869618 43.828814 
L 603.080394 45.255883 
L 603.42289 51.193022 
L 603.973363 69.536252 
L 604.627416 103.140074 
L 607.243627 265.003162 
L 607.93653 285.521025 
L 608.309023 289.256311 
L 608.522222 288.976531 
L 608.77775 286.323109 
L 609.19187 276.814426 
L 609.845923 249.964813 
L 611.154029 167.82477 
L 612.462134 85.023176 
L 613.40458 49.756026 
L 613.787344 44.336887 
L 613.989749 43.750006 
L 614.173914 44.599655 
L 614.473483 48.768994 
L 614.957196 62.465456 
L 615.611248 92.900783 
L 616.919354 177.979291 
L 618.227459 257.135214 
L 619.045844 284.555823 
L 619.422883 289.072495 
L 619.666597 289.069039 
L 619.910768 286.756999 
L 620.306788 278.222985 
L 620.938695 253.437375 
L 621.592747 216.378994 
L 623.554905 88.690061 
L 624.208958 59.7249 
L 624.743752 46.562472 
L 624.926054 44.51029 
L 625.109999 43.740967 
L 625.287254 44.244127 
L 625.556107 47.324027 
L 625.991384 58.032695 
L 626.645437 86.000806 
L 627.953543 169.125689 
L 629.261648 250.915019 
L 630.172826 283.852299 
L 630.553173 288.900215 
L 630.7898 289.225793 
L 631.009322 287.584162 
L 631.365875 281.006755 
L 631.937944 261.034993 
L 632.591997 226.468787 
L 634.554155 97.73389 
L 635.208208 65.735725 
L 635.859708 47.289867 
L 636.030665 45.023596 
L 636.242813 43.77616 
L 636.438718 44.177171 
L 636.700662 47.032468 
L 637.124981 57.111497 
L 637.779034 84.50325 
L 639.08714 167.127845 
L 640.395245 249.451964 
L 641.3209 283.553139 
L 641.702656 288.81918 
L 641.912089 289.324061 
L 642.106362 288.268491 
L 642.422261 283.460127 
L 642.931507 268.057146 
L 643.58556 236.376742 
L 646.201771 72.850885 
L 646.972618 48.154903 
L 647.347847 43.941676 
L 647.579826 44.060843 
L 647.828371 46.501941 
L 648.231369 55.405991 
L 648.873723 81.075701 
L 649.527776 118.541557 
L 651.489934 245.933997 
L 652.143987 274.338376 
L 652.658111 286.651614 
L 653.011005 289.351082 
L 653.191555 288.863813 
L 653.459188 285.824115 
L 653.892533 275.227779 
L 654.546585 247.360872 
L 655.854691 164.322704 
L 657.162796 82.437397 
L 658.075359 49.319819 
L 658.456065 44.215832 
L 658.691904 43.856942 
L 658.908824 45.433457 
L 659.261198 51.817365 
L 659.826861 71.299842 
L 660.480914 105.583916 
L 662.443072 234.366149 
L 663.097125 266.670923 
L 663.760947 285.722701 
L 663.930675 288.009138 
L 664.141341 289.304839 
L 664.342096 288.935249 
L 664.602242 286.137183 
L 665.023705 276.21941 
L 665.677758 248.978936 
L 666.985863 166.48821 
L 668.293969 84.028402 
L 669.224331 49.601992 
L 669.606367 44.293163 
L 669.813831 43.764615 
L 670.005273 44.760844 
L 670.316601 49.386155 
L 670.818715 64.303533 
L 671.472768 95.640199 
L 674.088979 259.388529 
L 674.873161 284.835384 
L 675.248886 289.13274 
L 675.484133 289.044613 
L 675.731461 286.639738 
L 676.132518 277.839352 
L 676.77197 252.416499 
L 677.426023 215.062982 
L 679.388181 87.584726 
L 680.042234 59.023636 
L 680.562108 46.476778 
L 680.914968 43.746649 
L 681.096955 44.226697 
L 681.364056 47.24893 
L 681.796557 57.796417 
L 682.450609 85.619099 
L 683.758715 168.619221 
L 685.06682 250.546189 
L 685.979988 283.742499 
L 686.360852 288.870966 
L 686.596347 289.244304 
L 686.812133 287.695832 
L 687.162684 281.395474 
L 687.72555 262.12503 
L 688.379602 227.965052 
L 690.341761 99.16601 
L 690.995813 66.728449 
L 691.665006 47.409746 
L 691.834197 45.114669 
L 692.044214 43.798122 
L 692.24709 44.153341 
L 692.50645 46.926533 
L 692.926662 56.774112 
L 693.580715 83.948249 
L 694.888821 166.379944 
L 696.196926 248.898649 
L 697.129347 283.467706 
L 697.511507 288.79528 
L 697.718109 289.334013 
L 697.908312 288.363342 
L 698.217639 283.817137 
L 698.716627 269.110406 
L 699.37068 237.925382 
L 701.986891 74.085563 
L 702.776904 48.307116 
L 703.152848 43.97274 
L 703.38953 44.046953 
L 703.636323 46.435996 
L 704.036528 55.191027 
L 704.674704 80.505676 
L 705.328757 117.809604 
L 707.290915 245.32474 
L 707.944968 273.954488 
L 708.467368 286.604595 
L 708.65085 288.631623 
L 708.839487 289.359091 
L 709.009996 288.826268 
L 709.281345 285.663322 
L 709.720579 274.723107 
L 710.374632 246.548532 
L 711.682737 163.248265 
L 712.990843 81.657525 
L 713.899194 49.088631 
L 714.278812 44.155328 
L 714.53839 43.983529 
L 714.776632 46.125481 
L 715.163181 54.168756 
L 715.780841 77.769243 
L 716.434894 114.258403 
L 718.397052 242.296491 
L 719.051105 272.011407 
L 719.613945 286.367946 
L 719.966836 289.328367 
L 720.159429 288.907049 
L 720.422601 286.012388 
L 720.848869 275.822638 
L 721.502922 248.327902 
L 722.811027 165.612777 
L 724.119133 83.38213 
L 725.041573 49.502306 
L 725.423139 44.265424 
L 725.657118 43.828814 
L 725.867894 45.255883 
L 726.21039 51.193022 
L 726.760863 69.536252 
L 727.414916 103.140074 
L 730.031127 265.003162 
L 730.72403 285.521025 
L 731.096523 289.256311 
L 731.309722 288.976531 
L 731.56525 286.323109 
L 731.97937 276.814426 
L 732.633423 249.964813 
L 733.941529 167.82477 
L 735.249634 85.023176 
L 736.19208 49.756026 
L 736.574844 44.336887 
L 736.777249 43.750006 
L 736.961414 44.599655 
L 737.260983 48.768994 
L 737.744696 62.465456 
L 738.398748 92.900783 
L 739.706854 177.979291 
L 741.014959 257.135214 
L 741.833344 284.555823 
L 742.210383 289.072495 
L 742.454097 289.069039 
L 742.698268 286.756999 
L 743.094288 278.222985 
L 743.726195 253.437375 
L 744.380247 216.378994 
L 746.342405 88.690061 
L 746.996458 59.7249 
L 747.531252 46.562472 
L 747.713554 44.51029 
L 747.897499 43.740967 
L 748.074754 44.244127 
L 748.343607 47.324027 
L 748.778884 58.032695 
L 749.432937 86.000806 
L 750.741043 169.125689 
L 752.049148 250.915019 
L 752.960326 283.852299 
L 753.340673 288.900215 
L 753.5773 289.225793 
L 753.796822 287.584162 
L 754.153375 281.006755 
L 754.725444 261.034993 
L 755.379497 226.468787 
L 757.341655 97.73389 
L 757.995708 65.735725 
L 758.647208 47.289867 
L 758.818165 45.023596 
L 759.030313 43.77616 
L 759.226218 44.177171 
L 759.488162 47.032468 
L 759.912481 57.111497 
L 760.566534 84.50325 
L 761.87464 167.127845 
L 763.182745 249.451964 
L 764.1084 283.553139 
L 764.490156 288.81918 
L 764.699589 289.324061 
L 764.893862 288.268491 
L 765.209761 283.460127 
L 765.719007 268.057146 
L 766.37306 236.376742 
L 767.4475 166.547886 
L 767.4475 166.547886 
" style="fill:none;stroke:#2ca02c;stroke-linecap:square;stroke-width:1.5;"/>
   </g>
   <g id="patch_3">
    <path d="M 64.21 301.64 
L 64.21 31.46 
" style="fill:none;stroke:#000000;stroke-linecap:square;stroke-linejoin:miter;stroke-width:0.8;"/>
   </g>
   <g id="patch_4">
    <path d="M 800.935 301.64 
L 800.935 31.46 
" style="fill:none;stroke:#000000;stroke-linecap:square;stroke-linejoin:miter;stroke-width:0.8;"/>
   </g>
   <g id="patch_5">
    <path d="M 64.21 301.64 
L 800.935 301.64 
" style="fill:none;stroke:#000000;stroke-linecap:square;stroke-linejoin:miter;stroke-width:0.8;"/>
   </g>
   <g id="patch_6">
    <path d="M 64.21 31.46 
L 800.935 31.46 
" style="fill:none;stroke:#000000;stroke-linecap:square;stroke-linejoin:miter;stroke-width:0.8;"/>
   </g>
   <g id="text_14">
    <!-- Circuito Corriente Alterna - ($\mathrm{10v}$) - VAC:$\mathrm{120v}$-$\mathrm{60Hz}$ R:$\mathrm{10k\Omega}$ -->
    <g transform="translate(222.3325 25.46)scale(0.144 -0.144)">
     <defs>
      <path d="M 64.40625 67.28125 
L 64.40625 56.890625 
Q 59.421875 61.53125 53.78125 63.8125 
Q 48.140625 66.109375 41.796875 66.109375 
Q 29.296875 66.109375 22.65625 58.46875 
Q 16.015625 50.828125 16.015625 36.375 
Q 16.015625 21.96875 22.65625 14.328125 
Q 29.296875 6.6875 41.796875 6.6875 
Q 48.140625 6.6875 53.78125 8.984375 
Q 59.421875 11.28125 64.40625 15.921875 
L 64.40625 5.609375 
Q 59.234375 2.09375 53.4375 0.328125 
Q 47.65625 -1.421875 41.21875 -1.421875 
Q 24.65625 -1.421875 15.125 8.703125 
Q 5.609375 18.84375 5.609375 36.375 
Q 5.609375 53.953125 15.125 64.078125 
Q 24.65625 74.21875 41.21875 74.21875 
Q 47.75 74.21875 53.53125 72.484375 
Q 59.328125 70.75 64.40625 67.28125 
z
" id="DejaVuSans-67"/>
      <path d="M 41.109375 46.296875 
Q 39.59375 47.171875 37.8125 47.578125 
Q 36.03125 48 33.890625 48 
Q 26.265625 48 22.1875 43.046875 
Q 18.109375 38.09375 18.109375 28.8125 
L 18.109375 0 
L 9.078125 0 
L 9.078125 54.6875 
L 18.109375 54.6875 
L 18.109375 46.1875 
Q 20.953125 51.171875 25.484375 53.578125 
Q 30.03125 56 36.53125 56 
Q 37.453125 56 38.578125 55.875 
Q 39.703125 55.765625 41.0625 55.515625 
z
" id="DejaVuSans-114"/>
      <path d="M 48.78125 52.59375 
L 48.78125 44.1875 
Q 44.96875 46.296875 41.140625 47.34375 
Q 37.3125 48.390625 33.40625 48.390625 
Q 24.65625 48.390625 19.8125 42.84375 
Q 14.984375 37.3125 14.984375 27.296875 
Q 14.984375 17.28125 19.8125 11.734375 
Q 24.65625 6.203125 33.40625 6.203125 
Q 37.3125 6.203125 41.140625 7.25 
Q 44.96875 8.296875 48.78125 10.40625 
L 48.78125 2.09375 
Q 45.015625 0.34375 40.984375 -0.53125 
Q 36.96875 -1.421875 32.421875 -1.421875 
Q 20.0625 -1.421875 12.78125 6.34375 
Q 5.515625 14.109375 5.515625 27.296875 
Q 5.515625 40.671875 12.859375 48.328125 
Q 20.21875 56 33.015625 56 
Q 37.15625 56 41.109375 55.140625 
Q 45.0625 54.296875 48.78125 52.59375 
z
" id="DejaVuSans-99"/>
      <path d="M 8.5 21.578125 
L 8.5 54.6875 
L 17.484375 54.6875 
L 17.484375 21.921875 
Q 17.484375 14.15625 20.5 10.265625 
Q 23.53125 6.390625 29.59375 6.390625 
Q 36.859375 6.390625 41.078125 11.03125 
Q 45.3125 15.671875 45.3125 23.6875 
L 45.3125 54.6875 
L 54.296875 54.6875 
L 54.296875 0 
L 45.3125 0 
L 45.3125 8.40625 
Q 42.046875 3.421875 37.71875 1 
Q 33.40625 -1.421875 27.6875 -1.421875 
Q 18.265625 -1.421875 13.375 4.4375 
Q 8.5 10.296875 8.5 21.578125 
z
M 31.109375 56 
z
" id="DejaVuSans-117"/>
      <path d="M 54.890625 33.015625 
L 54.890625 0 
L 45.90625 0 
L 45.90625 32.71875 
Q 45.90625 40.484375 42.875 44.328125 
Q 39.84375 48.1875 33.796875 48.1875 
Q 26.515625 48.1875 22.3125 43.546875 
Q 18.109375 38.921875 18.109375 30.90625 
L 18.109375 0 
L 9.078125 0 
L 9.078125 54.6875 
L 18.109375 54.6875 
L 18.109375 46.1875 
Q 21.34375 51.125 25.703125 53.5625 
Q 30.078125 56 35.796875 56 
Q 45.21875 56 50.046875 50.171875 
Q 54.890625 44.34375 54.890625 33.015625 
z
" id="DejaVuSans-110"/>
      <path d="M 34.1875 63.1875 
L 20.796875 26.90625 
L 47.609375 26.90625 
z
M 28.609375 72.90625 
L 39.796875 72.90625 
L 67.578125 0 
L 57.328125 0 
L 50.6875 18.703125 
L 17.828125 18.703125 
L 11.1875 0 
L 0.78125 0 
z
" id="DejaVuSans-65"/>
      <path d="M 4.890625 31.390625 
L 31.203125 31.390625 
L 31.203125 23.390625 
L 4.890625 23.390625 
z
" id="DejaVuSans-45"/>
      <path d="M 2.984375 54.6875 
L 12.5 54.6875 
L 29.59375 8.796875 
L 46.6875 54.6875 
L 56.203125 54.6875 
L 35.6875 0 
L 23.484375 0 
z
" id="DejaVuSans-118"/>
      <path d="M 11.71875 12.40625 
L 22.015625 12.40625 
L 22.015625 0 
L 11.71875 0 
z
M 11.71875 51.703125 
L 22.015625 51.703125 
L 22.015625 39.3125 
L 11.71875 39.3125 
z
" id="DejaVuSans-58"/>
      <path d="M 9.8125 72.90625 
L 19.671875 72.90625 
L 19.671875 43.015625 
L 55.515625 43.015625 
L 55.515625 72.90625 
L 65.375 72.90625 
L 65.375 0 
L 55.515625 0 
L 55.515625 34.71875 
L 19.671875 34.71875 
L 19.671875 0 
L 9.8125 0 
z
" id="DejaVuSans-72"/>
      <path d="M 5.515625 54.6875 
L 48.1875 54.6875 
L 48.1875 46.484375 
L 14.40625 7.171875 
L 48.1875 7.171875 
L 48.1875 0 
L 4.296875 0 
L 4.296875 8.203125 
L 38.09375 47.515625 
L 5.515625 47.515625 
z
" id="DejaVuSans-122"/>
      <path d="M 44.390625 34.1875 
Q 47.5625 33.109375 50.5625 29.59375 
Q 53.5625 26.078125 56.59375 19.921875 
L 66.609375 0 
L 56 0 
L 46.6875 18.703125 
Q 43.0625 26.03125 39.671875 28.421875 
Q 36.28125 30.8125 30.421875 30.8125 
L 19.671875 30.8125 
L 19.671875 0 
L 9.8125 0 
L 9.8125 72.90625 
L 32.078125 72.90625 
Q 44.578125 72.90625 50.734375 67.671875 
Q 56.890625 62.453125 56.890625 51.90625 
Q 56.890625 45.015625 53.6875 40.46875 
Q 50.484375 35.9375 44.390625 34.1875 
z
M 19.671875 64.796875 
L 19.671875 38.921875 
L 32.078125 38.921875 
Q 39.203125 38.921875 42.84375 42.21875 
Q 46.484375 45.515625 46.484375 51.90625 
Q 46.484375 58.296875 42.84375 61.546875 
Q 39.203125 64.796875 32.078125 64.796875 
z
" id="DejaVuSans-82"/>
      <path d="M 9.078125 75.984375 
L 18.109375 75.984375 
L 18.109375 31.109375 
L 44.921875 54.6875 
L 56.390625 54.6875 
L 27.390625 29.109375 
L 57.625 0 
L 45.90625 0 
L 18.109375 26.703125 
L 18.109375 0 
L 9.078125 0 
z
" id="DejaVuSans-107"/>
      <path d="M 72.609375 8.6875 
L 72.609375 0 
L 43.3125 0 
L 43.3125 8.6875 
Q 51.953125 13.421875 56.78125 21.53125 
Q 61.625 29.640625 61.625 39.5 
Q 61.625 51.21875 55.171875 58.296875 
Q 48.734375 65.375 38.1875 65.375 
Q 27.640625 65.375 21.171875 58.265625 
Q 14.703125 51.171875 14.703125 39.5 
Q 14.703125 29.640625 19.53125 21.53125 
Q 24.421875 13.421875 33.109375 8.6875 
L 33.109375 0 
L 3.8125 0 
L 3.8125 8.6875 
L 19.390625 8.6875 
Q 11.671875 15.484375 8.109375 22.75 
Q 4.59375 30.03125 4.59375 39.015625 
Q 4.59375 54.546875 13.96875 64.15625 
Q 23.296875 73.78125 38.1875 73.78125 
Q 52.984375 73.78125 62.40625 64.15625 
Q 71.78125 54.59375 71.78125 39.5 
Q 71.78125 30.03125 68.3125 22.796875 
Q 64.84375 15.578125 56.984375 8.6875 
z
" id="DejaVuSans-937"/>
     </defs>
     <use transform="translate(0 0.015625)" xlink:href="#DejaVuSans-67"/>
     <use transform="translate(69.824219 0.015625)" xlink:href="#DejaVuSans-105"/>
     <use transform="translate(97.607422 0.015625)" xlink:href="#DejaVuSans-114"/>
     <use transform="translate(138.720703 0.015625)" xlink:href="#DejaVuSans-99"/>
     <use transform="translate(193.701172 0.015625)" xlink:href="#DejaVuSans-117"/>
     <use transform="translate(257.080078 0.015625)" xlink:href="#DejaVuSans-105"/>
     <use transform="translate(284.863281 0.015625)" xlink:href="#DejaVuSans-116"/>
     <use transform="translate(324.072266 0.015625)" xlink:href="#DejaVuSans-111"/>
     <use transform="translate(385.253906 0.015625)" xlink:href="#DejaVuSans-32"/>
     <use transform="translate(417.041016 0.015625)" xlink:href="#DejaVuSans-67"/>
     <use transform="translate(486.865234 0.015625)" xlink:href="#DejaVuSans-111"/>
     <use transform="translate(548.046875 0.015625)" xlink:href="#DejaVuSans-114"/>
     <use transform="translate(589.160156 0.015625)" xlink:href="#DejaVuSans-114"/>
     <use transform="translate(630.273438 0.015625)" xlink:href="#DejaVuSans-105"/>
     <use transform="translate(658.056641 0.015625)" xlink:href="#DejaVuSans-101"/>
     <use transform="translate(719.580078 0.015625)" xlink:href="#DejaVuSans-110"/>
     <use transform="translate(782.958984 0.015625)" xlink:href="#DejaVuSans-116"/>
     <use transform="translate(822.167969 0.015625)" xlink:href="#DejaVuSans-101"/>
     <use transform="translate(883.691406 0.015625)" xlink:href="#DejaVuSans-32"/>
     <use transform="translate(915.478516 0.015625)" xlink:href="#DejaVuSans-65"/>
     <use transform="translate(983.886719 0.015625)" xlink:href="#DejaVuSans-108"/>
     <use transform="translate(1011.669922 0.015625)" xlink:href="#DejaVuSans-116"/>
     <use transform="translate(1050.878906 0.015625)" xlink:href="#DejaVuSans-101"/>
     <use transform="translate(1112.402344 0.015625)" xlink:href="#DejaVuSans-114"/>
     <use transform="translate(1153.515625 0.015625)" xlink:href="#DejaVuSans-110"/>
     <use transform="translate(1216.894531 0.015625)" xlink:href="#DejaVuSans-97"/>
     <use transform="translate(1278.173828 0.015625)" xlink:href="#DejaVuSans-32"/>
     <use transform="translate(1309.960938 0.015625)" xlink:href="#DejaVuSans-45"/>
     <use transform="translate(1346.044922 0.015625)" xlink:href="#DejaVuSans-32"/>
     <use transform="translate(1377.832031 0.015625)" xlink:href="#DejaVuSans-40"/>
     <use transform="translate(1416.845703 0.015625)" xlink:href="#DejaVuSans-49"/>
     <use transform="translate(1480.46875 0.015625)" xlink:href="#DejaVuSans-48"/>
     <use transform="translate(1544.091797 0.015625)" xlink:href="#DejaVuSans-118"/>
     <use transform="translate(1603.271484 0.015625)" xlink:href="#DejaVuSans-41"/>
     <use transform="translate(1642.285156 0.015625)" xlink:href="#DejaVuSans-32"/>
     <use transform="translate(1674.072266 0.015625)" xlink:href="#DejaVuSans-45"/>
     <use transform="translate(1710.15625 0.015625)" xlink:href="#DejaVuSans-32"/>
     <use transform="translate(1741.943359 0.015625)" xlink:href="#DejaVuSans-86"/>
     <use transform="translate(1810.351562 0.015625)" xlink:href="#DejaVuSans-65"/>
     <use transform="translate(1878.759766 0.015625)" xlink:href="#DejaVuSans-67"/>
     <use transform="translate(1948.583984 0.015625)" xlink:href="#DejaVuSans-58"/>
     <use transform="translate(1982.275391 0.015625)" xlink:href="#DejaVuSans-49"/>
     <use transform="translate(2045.898438 0.015625)" xlink:href="#DejaVuSans-50"/>
     <use transform="translate(2109.521484 0.015625)" xlink:href="#DejaVuSans-48"/>
     <use transform="translate(2173.144531 0.015625)" xlink:href="#DejaVuSans-118"/>
     <use transform="translate(2232.324219 0.015625)" xlink:href="#DejaVuSans-45"/>
     <use transform="translate(2268.408203 0.015625)" xlink:href="#DejaVuSans-54"/>
     <use transform="translate(2332.03125 0.015625)" xlink:href="#DejaVuSans-48"/>
     <use transform="translate(2395.654297 0.015625)" xlink:href="#DejaVuSans-72"/>
     <use transform="translate(2470.849609 0.015625)" xlink:href="#DejaVuSans-122"/>
     <use transform="translate(2523.339844 0.015625)" xlink:href="#DejaVuSans-32"/>
     <use transform="translate(2555.126953 0.015625)" xlink:href="#DejaVuSans-82"/>
     <use transform="translate(2624.609375 0.015625)" xlink:href="#DejaVuSans-58"/>
     <use transform="translate(2658.300781 0.015625)" xlink:href="#DejaVuSans-49"/>
     <use transform="translate(2721.923828 0.015625)" xlink:href="#DejaVuSans-48"/>
     <use transform="translate(2785.546875 0.015625)" xlink:href="#DejaVuSans-107"/>
     <use transform="translate(2843.457031 0.015625)" xlink:href="#DejaVuSans-937"/>
    </g>
   </g>
  </g>
  <g id="axes_2">
   <g id="matplotlib.axis_3">
    <g id="ytick_6">
     <g id="line2d_13">
      <path clip-path="url(#p5c1572f309)" d="M 64.21 268.895172 
L 800.935 268.895172 
" style="fill:none;stroke:#b0b0b0;stroke-linecap:square;stroke-width:0.8;"/>
     </g>
     <g id="line2d_14">
      <defs>
       <path d="M 0 0 
L 3.5 0 
" id="m75dfccb27b" style="stroke:#000000;stroke-width:0.8;"/>
      </defs>
      <g>
       <use style="stroke:#000000;stroke-width:0.8;" x="800.935" xlink:href="#m75dfccb27b" y="268.895172"/>
      </g>
     </g>
     <g id="text_15">
      <!-- −0.010 -->
      <g style="fill:#d62728;" transform="translate(807.935 273.074313)scale(0.11 -0.11)">
       <use xlink:href="#DejaVuSans-8722"/>
       <use x="83.789062" xlink:href="#DejaVuSans-48"/>
       <use x="147.412109" xlink:href="#DejaVuSans-46"/>
       <use x="179.199219" xlink:href="#DejaVuSans-48"/>
       <use x="242.822266" xlink:href="#DejaVuSans-49"/>
       <use x="306.445312" xlink:href="#DejaVuSans-48"/>
      </g>
     </g>
    </g>
    <g id="ytick_7">
     <g id="line2d_15">
      <path clip-path="url(#p5c1572f309)" d="M 64.21 217.723643 
L 800.935 217.723643 
" style="fill:none;stroke:#b0b0b0;stroke-linecap:square;stroke-width:0.8;"/>
     </g>
     <g id="line2d_16">
      <g>
       <use style="stroke:#000000;stroke-width:0.8;" x="800.935" xlink:href="#m75dfccb27b" y="217.723643"/>
      </g>
     </g>
     <g id="text_16">
      <!-- −0.005 -->
      <g style="fill:#d62728;" transform="translate(807.935 221.902784)scale(0.11 -0.11)">
       <use xlink:href="#DejaVuSans-8722"/>
       <use x="83.789062" xlink:href="#DejaVuSans-48"/>
       <use x="147.412109" xlink:href="#DejaVuSans-46"/>
       <use x="179.199219" xlink:href="#DejaVuSans-48"/>
       <use x="242.822266" xlink:href="#DejaVuSans-48"/>
       <use x="306.445312" xlink:href="#DejaVuSans-53"/>
      </g>
     </g>
    </g>
    <g id="ytick_8">
     <g id="line2d_17">
      <path clip-path="url(#p5c1572f309)" d="M 64.21 166.552114 
L 800.935 166.552114 
" style="fill:none;stroke:#b0b0b0;stroke-linecap:square;stroke-width:0.8;"/>
     </g>
     <g id="line2d_18">
      <g>
       <use style="stroke:#000000;stroke-width:0.8;" x="800.935" xlink:href="#m75dfccb27b" y="166.552114"/>
      </g>
     </g>
     <g id="text_17">
      <!-- 0.000 -->
      <g style="fill:#d62728;" transform="translate(807.935 170.731255)scale(0.11 -0.11)">
       <use xlink:href="#DejaVuSans-48"/>
       <use x="63.623047" xlink:href="#DejaVuSans-46"/>
       <use x="95.410156" xlink:href="#DejaVuSans-48"/>
       <use x="159.033203" xlink:href="#DejaVuSans-48"/>
       <use x="222.65625" xlink:href="#DejaVuSans-48"/>
      </g>
     </g>
    </g>
    <g id="ytick_9">
     <g id="line2d_19">
      <path clip-path="url(#p5c1572f309)" d="M 64.21 115.380585 
L 800.935 115.380585 
" style="fill:none;stroke:#b0b0b0;stroke-linecap:square;stroke-width:0.8;"/>
     </g>
     <g id="line2d_20">
      <g>
       <use style="stroke:#000000;stroke-width:0.8;" x="800.935" xlink:href="#m75dfccb27b" y="115.380585"/>
      </g>
     </g>
     <g id="text_18">
      <!-- 0.005 -->
      <g style="fill:#d62728;" transform="translate(807.935 119.559726)scale(0.11 -0.11)">
       <use xlink:href="#DejaVuSans-48"/>
       <use x="63.623047" xlink:href="#DejaVuSans-46"/>
       <use x="95.410156" xlink:href="#DejaVuSans-48"/>
       <use x="159.033203" xlink:href="#DejaVuSans-48"/>
       <use x="222.65625" xlink:href="#DejaVuSans-53"/>
      </g>
     </g>
    </g>
    <g id="ytick_10">
     <g id="line2d_21">
      <path clip-path="url(#p5c1572f309)" d="M 64.21 64.209056 
L 800.935 64.209056 
" style="fill:none;stroke:#b0b0b0;stroke-linecap:square;stroke-width:0.8;"/>
     </g>
     <g id="line2d_22">
      <g>
       <use style="stroke:#000000;stroke-width:0.8;" x="800.935" xlink:href="#m75dfccb27b" y="64.209056"/>
      </g>
     </g>
     <g id="text_19">
      <!-- 0.010 -->
      <g style="fill:#d62728;" transform="translate(807.935 68.388197)scale(0.11 -0.11)">
       <use xlink:href="#DejaVuSans-48"/>
       <use x="63.623047" xlink:href="#DejaVuSans-46"/>
       <use x="95.410156" xlink:href="#DejaVuSans-48"/>
       <use x="159.033203" xlink:href="#DejaVuSans-49"/>
       <use x="222.65625" xlink:href="#DejaVuSans-48"/>
      </g>
     </g>
    </g>
    <g id="text_20">
     <!-- Corriente (A) -->
     <g style="fill:#d62728;" transform="translate(861.001875 201.921875)rotate(-90)scale(0.11 -0.11)">
      <use xlink:href="#DejaVuSans-67"/>
      <use x="69.824219" xlink:href="#DejaVuSans-111"/>
      <use x="131.005859" xlink:href="#DejaVuSans-114"/>
      <use x="170.369141" xlink:href="#DejaVuSans-114"/>
      <use x="211.482422" xlink:href="#DejaVuSans-105"/>
      <use x="239.265625" xlink:href="#DejaVuSans-101"/>
      <use x="300.789062" xlink:href="#DejaVuSans-110"/>
      <use x="364.167969" xlink:href="#DejaVuSans-116"/>
      <use x="403.376953" xlink:href="#DejaVuSans-101"/>
      <use x="464.900391" xlink:href="#DejaVuSans-32"/>
      <use x="496.6875" xlink:href="#DejaVuSans-40"/>
      <use x="535.701172" xlink:href="#DejaVuSans-65"/>
      <use x="604.109375" xlink:href="#DejaVuSans-41"/>
     </g>
    </g>
   </g>
   <g id="line2d_23">
    <path clip-path="url(#p5c1572f309)" d="M 97.6975 166.552114 
L 98.399784 213.845489 
L 99.053836 251.467134 
L 99.962054 284.018639 
L 100.341638 288.94653 
L 100.601012 289.115936 
L 100.83933 286.971827 
L 101.226002 278.922305 
L 101.843846 255.306641 
L 102.497899 218.810019 
L 104.460057 90.776045 
L 105.11411 61.070717 
L 105.676588 46.729885 
L 106.029652 43.771142 
L 106.222046 44.193648 
L 106.485292 47.090675 
L 106.911677 57.287073 
L 107.56573 84.787972 
L 108.873835 167.508498 
L 110.18194 249.733524 
L 111.104188 283.600105 
L 111.485743 288.835241 
L 111.719746 289.270842 
L 111.930603 287.841854 
L 112.273228 281.898954 
L 112.823901 263.540949 
L 113.477953 229.928088 
L 116.094164 68.074622 
L 116.786686 47.576284 
L 117.159167 43.843281 
L 117.372276 44.123762 
L 117.627838 46.778224 
L 118.042011 56.289859 
L 118.696064 83.142329 
L 120.004169 165.284961 
L 121.312275 248.084102 
L 122.254633 283.345104 
L 122.637391 288.763438 
L 122.839833 289.349906 
L 123.024051 288.499221 
L 123.323706 284.326636 
L 123.807553 270.621426 
L 124.461606 240.179442 
L 125.769711 155.096107 
L 127.077817 75.948104 
L 127.895953 48.542095 
L 128.272982 44.027038 
L 128.516634 44.031137 
L 128.760828 46.343851 
L 129.156885 54.879805 
L 129.788847 79.670072 
L 130.4429 116.730636 
L 132.405058 244.418087 
L 133.059111 273.380298 
L 133.593795 286.538162 
L 133.776108 288.590124 
L 133.960094 289.359091 
L 134.13729 288.855652 
L 134.406164 285.775022 
L 134.841477 275.064315 
L 135.49553 247.094375 
L 136.803635 163.967928 
L 138.111741 82.180342 
L 139.022894 49.246323 
L 139.403234 44.199421 
L 139.639875 43.87445 
L 139.859444 45.517269 
L 140.216073 52.098204 
L 140.788258 72.078864 
L 141.442311 106.650148 
L 143.404469 235.384074 
L 144.058522 267.376661 
L 144.709798 285.811628 
L 144.880777 288.077529 
L 145.092953 289.324086 
L 145.28877 288.922525 
L 145.550747 286.066189 
L 145.975117 275.984237 
L 146.62917 248.589755 
L 147.937276 165.962756 
L 149.245381 83.641101 
L 150.170951 49.545792 
L 150.552702 44.280523 
L 150.76217 43.776074 
L 150.956494 44.832728 
L 151.272476 49.644428 
L 151.781851 65.056233 
L 152.435903 96.74281 
L 155.052114 260.264478 
L 155.822721 284.946986 
L 156.197941 289.158699 
L 156.429861 289.038981 
L 156.678428 286.597228 
L 157.081461 277.691305 
L 157.723868 252.017142 
L 158.37792 214.549269 
L 160.340079 87.158399 
L 160.994131 58.756849 
L 161.508151 46.4478 
L 161.861108 43.748835 
L 162.041594 44.236425 
L 162.30925 47.276911 
L 162.742633 57.87545 
L 163.396686 85.744349 
L 164.704791 168.784229 
L 166.012897 250.667656 
L 166.925432 283.781687 
L 167.306131 288.884571 
L 167.541986 289.242809 
L 167.758957 287.665024 
L 168.111413 281.277339 
L 168.677202 261.785286 
L 169.331254 227.495634 
L 171.293413 98.714214 
L 171.947465 66.415438 
L 172.611045 47.375652 
L 172.780798 45.089606 
L 172.991493 43.794847 
L 173.192152 44.165076 
L 173.452334 46.964264 
L 173.873853 56.885202 
L 174.527906 84.128661 
L 175.836012 166.622038 
L 177.144117 249.079187 
L 178.074386 283.499181 
L 178.456417 288.807166 
L 178.66392 289.335253 
L 178.855417 288.337867 
L 179.166835 283.70898 
L 179.66909 268.782092 
L 180.323143 237.438617 
L 182.939354 73.694491 
L 183.723274 48.262521 
L 184.098989 43.966828 
L 184.334171 44.055577 
L 184.581523 46.461164 
L 184.982618 55.263593 
L 185.622128 80.691315 
L 186.276181 118.047058 
L 188.238339 245.523643 
L 188.892392 274.081644 
L 189.412152 286.623868 
L 189.764962 289.353346 
L 189.946953 288.873317 
L 190.214052 285.851132 
L 190.646551 275.303777 
L 191.300603 247.481215 
L 192.608709 164.481196 
L 193.916814 82.554115 
L 194.829984 49.357592 
L 195.210848 44.229058 
L 195.446343 43.855682 
L 195.662125 45.404077 
L 196.012672 51.70421 
L 196.575529 70.974081 
L 197.229582 105.133722 
L 199.19174 233.932806 
L 199.845793 266.370726 
L 200.515 285.690154 
L 200.68419 287.985255 
L 200.894205 289.301858 
L 201.097086 288.946678 
L 201.356444 286.173554 
L 201.776653 276.326165 
L 202.430706 249.152207 
L 203.738812 166.720673 
L 205.046917 84.201809 
L 205.979344 49.632365 
L 206.361504 44.30474 
L 206.568104 43.76598 
L 206.758303 44.736581 
L 207.067625 49.282573 
L 207.566605 63.988734 
L 208.220657 95.173346 
L 210.836868 259.013408 
L 211.626897 284.792757 
L 212.002842 289.127233 
L 212.239528 289.053058 
L 212.48632 286.664059 
L 212.886521 277.90915 
L 213.524694 252.594795 
L 214.178747 215.291002 
L 216.140905 87.775767 
L 216.794958 59.145832 
L 217.317365 46.495444 
L 217.500847 44.468402 
L 217.689481 43.74091 
L 217.859994 44.273718 
L 218.131342 47.436618 
L 218.570573 58.376704 
L 219.224626 86.551165 
L 220.532732 169.851336 
L 221.840837 251.442187 
L 222.749189 284.011284 
L 223.128808 288.94465 
L 223.388388 289.116477 
L 223.62663 286.97455 
L 224.013178 278.931348 
L 224.630835 255.331039 
L 225.284888 218.841966 
L 227.247046 90.80383 
L 227.901099 61.088802 
L 228.463944 46.73208 
L 228.816832 43.771638 
L 229.009427 44.192943 
L 229.272598 47.087577 
L 229.698865 57.277248 
L 230.352918 84.771913 
L 231.661024 167.486974 
L 232.969129 249.717687 
L 233.891572 283.597666 
L 234.273138 288.834568 
L 234.507117 289.27119 
L 234.717892 287.844143 
L 235.060386 281.907071 
L 235.610857 263.564014 
L 236.264909 229.960298 
L 238.88112 68.097098 
L 239.574028 47.579006 
L 239.946521 43.843694 
L 240.159721 44.123465 
L 240.415249 46.776875 
L 240.829369 56.285524 
L 241.483421 83.135103 
L 242.791527 165.275117 
L 244.099632 248.076739 
L 245.042079 283.343961 
L 245.424843 288.76311 
L 245.627248 289.349995 
L 245.811412 288.500358 
L 246.110981 284.331057 
L 246.594692 270.634697 
L 247.248744 240.199448 
L 248.55685 155.120996 
L 249.864955 75.964981 
L 250.683343 48.544201 
L 251.060382 44.02751 
L 251.304096 44.030959 
L 251.548267 46.342991 
L 251.944287 54.876982 
L 252.576193 79.662538 
L 253.230245 116.720893 
L 255.192404 244.409844 
L 255.846456 273.375039 
L 256.381252 286.537521 
L 256.563554 288.589705 
L 256.747498 289.359033 
L 256.924754 288.855876 
L 257.193606 285.775985 
L 257.628883 275.06734 
L 258.282936 247.09925 
L 259.591042 163.974385 
L 260.899147 82.185036 
L 261.810325 49.247717 
L 262.190672 44.199789 
L 262.427299 43.874205 
L 262.64682 45.515821 
L 263.003373 52.093187 
L 263.575441 72.064845 
L 264.229493 106.630992 
L 266.191652 235.365899 
L 266.845704 267.36413 
L 267.497207 285.810116 
L 267.668163 288.07639 
L 267.880311 289.323837 
L 268.076217 288.922832 
L 268.338161 286.067547 
L 268.76248 275.988553 
L 269.416533 248.596832 
L 270.724638 165.972265 
L 272.032743 83.648117 
L 272.958399 49.546874 
L 273.340156 44.280824 
L 273.549588 43.775937 
L 273.74386 44.831495 
L 274.059759 49.63982 
L 274.569003 65.042697 
L 275.223056 96.723029 
L 277.839267 260.248935 
L 278.610117 284.945075 
L 278.985346 289.158319 
L 279.217325 289.039159 
L 279.46587 286.598068 
L 279.868868 277.69404 
L 280.511222 252.024382 
L 281.165274 214.55855 
L 283.127433 87.166092 
L 283.781485 58.76168 
L 284.29561 46.448392 
L 284.648504 43.748919 
L 284.829055 44.236185 
L 285.096687 47.275873 
L 285.530031 57.872183 
L 286.184084 85.739067 
L 287.49219 168.777215 
L 288.800295 250.662544 
L 289.712858 283.780164 
L 290.093564 288.884163 
L 290.329403 289.243061 
L 290.546323 287.666561 
L 290.898696 281.282697 
L 291.464357 261.800332 
L 292.11841 227.516323 
L 294.080568 98.734081 
L 294.734621 66.429237 
L 295.398445 47.377318 
L 295.568174 45.090877 
L 295.77884 43.795164 
L 295.979595 44.164747 
L 296.239741 46.9628 
L 296.661203 56.880536 
L 297.315256 84.120975 
L 298.623362 166.61167 
L 299.931467 249.071509 
L 300.86183 283.497994 
L 301.243867 288.806833 
L 301.45133 289.335387 
L 301.642771 288.339171 
L 301.954098 283.713901 
L 302.456211 268.796635 
L 303.110263 237.460049 
L 305.726474 73.71167 
L 306.51066 48.264641 
L 306.886385 43.967265 
L 307.121633 44.055385 
L 307.36896 46.460251 
L 307.770016 55.260614 
L 308.409468 80.68341 
L 309.063521 118.036901 
L 311.025679 245.515176 
L 311.679732 274.076302 
L 312.199607 286.623214 
L 312.552468 289.353351 
L 312.734455 288.873302 
L 313.001556 285.851069 
L 313.434057 275.303581 
L 314.08811 247.480898 
L 315.396215 164.480774 
L 316.70432 82.553807 
L 317.617488 49.3575 
L 317.998352 44.229034 
L 318.233848 43.855697 
L 318.449633 45.404169 
L 318.800185 51.704529 
L 319.36305 70.97498 
L 320.017103 105.134963 
L 321.979261 233.934004 
L 322.633314 266.371561 
L 323.302506 285.690255 
L 323.471697 287.985332 
L 323.681715 289.301878 
L 323.88459 288.946658 
L 324.14395 286.173466 
L 324.564162 276.325885 
L 325.218215 249.151745 
L 326.526321 166.720049 
L 327.834426 84.201346 
L 328.766847 49.632293 
L 329.149007 44.30472 
L 329.355609 43.765987 
L 329.545812 44.736659 
L 329.855139 49.282866 
L 330.354128 63.989604 
L 331.00818 95.174633 
L 333.624391 259.014449 
L 334.414404 284.792885 
L 334.790348 289.12726 
L 335.02703 289.053047 
L 335.273823 286.664004 
L 335.674028 277.90897 
L 336.312204 252.594318 
L 336.966257 215.290389 
L 338.928415 87.775254 
L 339.582468 59.145508 
L 340.104868 46.495405 
L 340.28835 44.468376 
L 340.476987 43.740909 
L 340.647496 44.273732 
L 340.918845 47.436679 
L 341.358079 58.376895 
L 342.012132 86.551471 
L 343.320237 169.851739 
L 344.628343 251.442479 
L 345.536694 284.01137 
L 345.916312 288.944672 
L 346.17589 289.116471 
L 346.414132 286.974519 
L 346.800681 278.931242 
L 347.418341 255.330754 
L 348.072394 218.841592 
L 350.034552 90.803506 
L 350.688605 61.088591 
L 351.251445 46.732054 
L 351.604336 43.771632 
L 351.796929 44.192951 
L 352.060101 47.087613 
L 352.486369 57.277363 
L 353.140422 84.7721 
L 354.448527 167.487226 
L 355.756633 249.717872 
L 356.679073 283.597695 
L 357.060639 288.834576 
L 357.294618 289.271186 
L 357.505394 287.844116 
L 357.84789 281.906976 
L 358.398363 263.563745 
L 359.052416 229.959921 
L 361.668627 68.096835 
L 362.36153 47.578974 
L 362.734023 43.843689 
L 362.947222 44.123469 
L 363.20275 46.776891 
L 363.61687 56.285575 
L 364.270923 83.135188 
L 365.579029 165.275232 
L 366.887134 248.076825 
L 367.82958 283.343974 
L 368.212344 288.763113 
L 368.414749 289.349994 
L 368.598914 288.500345 
L 368.898483 284.331005 
L 369.382196 270.634542 
L 370.036249 240.199214 
L 371.344354 155.120705 
L 372.652459 75.964784 
L 373.470844 48.544176 
L 373.847883 44.027505 
L 374.091597 44.030961 
L 374.335768 46.343001 
L 374.731788 54.877015 
L 375.363695 79.662627 
L 376.017747 116.721007 
L 377.979905 244.40994 
L 378.633958 273.375101 
L 379.168752 286.537528 
L 379.351054 288.58971 
L 379.534999 289.359033 
L 379.712254 288.855873 
L 379.981107 285.775973 
L 380.416384 275.067304 
L 381.070437 247.099193 
L 382.378543 163.97431 
L 383.686648 82.184981 
L 384.597826 49.247701 
L 384.978173 44.199785 
L 385.2148 43.874207 
L 385.434322 45.515838 
L 385.790875 52.093245 
L 386.362944 72.065009 
L 387.016997 106.631216 
L 388.979155 235.366112 
L 389.633208 267.364277 
L 390.284708 285.810134 
L 390.455665 288.076404 
L 390.667813 289.32384 
L 390.863718 288.922829 
L 391.125662 286.067532 
L 391.549981 275.988502 
L 392.204034 248.596749 
L 393.51214 165.972154 
L 394.820245 83.648035 
L 395.7459 49.546861 
L 396.127656 44.28082 
L 396.337089 43.775939 
L 396.531362 44.831509 
L 396.847261 49.639874 
L 397.356507 65.042855 
L 398.01056 96.723261 
L 400.626771 260.249117 
L 401.397618 284.945097 
L 401.772847 289.158324 
L 402.004826 289.039157 
L 402.253371 286.598059 
L 402.656369 277.694009 
L 403.298723 252.024298 
L 403.952776 214.558441 
L 405.914934 87.166002 
L 406.568987 58.761624 
L 407.083111 46.448386 
L 407.436005 43.748918 
L 407.616555 44.236187 
L 407.884188 47.275885 
L 408.317533 57.872221 
L 408.971585 85.739128 
L 410.279691 168.777297 
L 411.587796 250.662604 
L 412.500359 283.780181 
L 412.881065 288.884168 
L 413.116904 289.243058 
L 413.333824 287.666543 
L 413.686198 281.282634 
L 414.251861 261.800156 
L 414.905914 227.516081 
L 416.868072 98.733848 
L 417.522125 66.429075 
L 418.185947 47.377299 
L 418.355675 45.090862 
L 418.566341 43.795161 
L 418.767096 44.164751 
L 419.027242 46.962817 
L 419.448705 56.880591 
L 420.102758 84.121065 
L 421.410863 166.611791 
L 422.718969 249.071599 
L 423.649331 283.498008 
L 424.031367 288.806837 
L 424.238831 289.335385 
L 424.430273 288.339155 
L 424.741601 283.713844 
L 425.243715 268.796465 
L 425.897768 237.459798 
L 428.513979 73.711469 
L 429.298161 48.264616 
L 429.673886 43.96726 
L 429.909133 44.055387 
L 430.156461 46.460262 
L 430.557518 55.260649 
L 431.19697 80.683502 
L 431.851023 118.037019 
L 433.813181 245.515275 
L 434.467234 274.076364 
L 434.987108 286.623222 
L 435.339968 289.353351 
L 435.521955 288.873303 
L 435.789056 285.85107 
L 436.221557 275.303583 
L 436.875609 247.480902 
L 438.183715 164.480779 
L 439.49182 82.553811 
L 440.404988 49.357501 
L 440.785852 44.229034 
L 441.021347 43.855696 
L 441.237133 45.404168 
L 441.587684 51.704526 
L 442.15055 70.97497 
L 442.804602 105.134948 
L 444.766761 233.93399 
L 445.420813 266.371551 
L 446.090006 285.690254 
L 446.259197 287.985331 
L 446.469214 289.301878 
L 446.67209 288.946659 
L 446.93145 286.173467 
L 447.351662 276.325888 
L 448.005715 249.151751 
L 449.313821 166.720056 
L 450.621926 84.201351 
L 451.554347 49.632294 
L 451.936507 44.30472 
L 452.143109 43.765987 
L 452.333312 44.736658 
L 452.642639 49.282863 
L 453.141627 63.989594 
L 453.79568 95.174618 
L 456.411891 259.014437 
L 457.201904 284.792884 
L 457.577848 289.12726 
L 457.81453 289.053047 
L 458.061323 286.664004 
L 458.461528 277.908973 
L 459.099704 252.594324 
L 459.753757 215.290396 
L 461.715915 87.77526 
L 462.369968 59.145512 
L 462.892368 46.495405 
L 463.07585 44.468377 
L 463.264487 43.740909 
L 463.434996 44.273732 
L 463.706345 47.436678 
L 464.145579 58.376893 
L 464.799632 86.551468 
L 466.107737 169.851735 
L 467.415843 251.442475 
L 468.324194 284.011369 
L 468.703812 288.944672 
L 468.96339 289.116471 
L 469.201632 286.974519 
L 469.588181 278.931244 
L 470.205841 255.330757 
L 470.859894 218.841597 
L 472.822052 90.803509 
L 473.476105 61.088593 
L 474.038945 46.732054 
L 474.391836 43.771633 
L 474.584429 44.192951 
L 474.847601 47.087612 
L 475.273869 57.277362 
L 475.927922 84.772098 
L 477.236027 167.487223 
L 478.544133 249.71787 
L 479.466573 283.597694 
L 479.848139 288.834576 
L 480.082118 289.271186 
L 480.292894 287.844117 
L 480.63539 281.906978 
L 481.185863 263.563748 
L 481.839916 229.959926 
L 484.456127 68.096838 
L 485.14903 47.578975 
L 485.521523 43.843689 
L 485.734722 44.123469 
L 485.99025 46.776891 
L 486.40437 56.285574 
L 487.058423 83.135187 
L 488.366529 165.27523 
L 489.674634 248.076824 
L 490.61708 283.343974 
L 490.999844 288.763113 
L 491.202249 289.349994 
L 491.386414 288.500345 
L 491.685983 284.331006 
L 492.169696 270.634544 
L 492.823748 240.199217 
L 494.131854 155.120709 
L 495.439959 75.964786 
L 496.258344 48.544177 
L 496.635383 44.027505 
L 496.879097 44.030961 
L 497.123268 46.343001 
L 497.519288 54.877015 
L 498.151195 79.662625 
L 498.805247 116.721006 
L 500.767405 244.409939 
L 501.421458 273.3751 
L 501.956252 286.537528 
L 502.138554 288.58971 
L 502.322499 289.359033 
L 502.499754 288.855873 
L 502.768607 285.775973 
L 503.203884 275.067305 
L 503.857937 247.099194 
L 505.166043 163.974311 
L 506.474148 82.184981 
L 507.385326 49.247701 
L 507.765673 44.199785 
L 508.0023 43.874207 
L 508.221822 45.515838 
L 508.578375 52.093245 
L 509.150444 72.065007 
L 509.804497 106.631213 
L 511.766655 235.366109 
L 512.420708 267.364275 
L 513.072208 285.810133 
L 513.243165 288.076404 
L 513.455313 289.32384 
L 513.651218 288.922829 
L 513.913162 286.067532 
L 514.337481 275.988503 
L 514.991534 248.59675 
L 516.29964 165.972155 
L 517.607745 83.648036 
L 518.5334 49.546861 
L 518.915156 44.28082 
L 519.124589 43.775939 
L 519.318862 44.831509 
L 519.634761 49.639873 
L 520.144007 65.042853 
L 520.79806 96.723258 
L 523.414271 260.249115 
L 524.185118 284.945097 
L 524.560347 289.158324 
L 524.792326 289.039157 
L 525.040871 286.598059 
L 525.443869 277.694009 
L 526.086223 252.024299 
L 526.740276 214.558443 
L 528.702434 87.166003 
L 529.356487 58.761624 
L 529.870611 46.448386 
L 530.223505 43.748918 
L 530.404055 44.236187 
L 530.671688 47.275885 
L 531.105033 57.872221 
L 531.759085 85.739128 
L 533.067191 168.777296 
L 534.375296 250.662603 
L 535.287859 283.780181 
L 535.668565 288.884168 
L 535.904404 289.243058 
L 536.121324 287.666543 
L 536.473698 281.282635 
L 537.039361 261.800158 
L 537.693414 227.516084 
L 539.655572 98.733851 
L 540.309625 66.429077 
L 540.973447 47.377299 
L 541.143175 45.090862 
L 541.353841 43.795161 
L 541.554596 44.164751 
L 541.814742 46.962817 
L 542.236205 56.88059 
L 542.890258 84.121064 
L 544.198363 166.61179 
L 545.506469 249.071598 
L 546.436831 283.498008 
L 546.818867 288.806837 
L 547.026331 289.335385 
L 547.217773 288.339156 
L 547.529101 283.713845 
L 548.031215 268.796467 
L 548.685268 237.459801 
L 551.301479 73.711471 
L 552.085661 48.264616 
L 552.461386 43.96726 
L 552.696633 44.055387 
L 552.943961 46.460262 
L 553.345018 55.260648 
L 553.98447 80.683501 
L 554.638523 118.037018 
L 556.600681 245.515274 
L 557.254734 274.076364 
L 557.774608 286.623222 
L 558.127468 289.353351 
L 558.309455 288.873303 
L 558.576556 285.85107 
L 559.009057 275.303583 
L 559.663109 247.480901 
L 560.971215 164.480779 
L 562.27932 82.553811 
L 563.192488 49.357501 
L 563.573352 44.229034 
L 563.808847 43.855696 
L 564.024633 45.404168 
L 564.375184 51.704526 
L 564.93805 70.97497 
L 565.592102 105.134948 
L 567.554261 233.93399 
L 568.208313 266.371551 
L 568.877506 285.690254 
L 569.046697 287.985331 
L 569.256714 289.301878 
L 569.45959 288.946659 
L 569.71895 286.173467 
L 570.139162 276.325888 
L 570.793215 249.151751 
L 572.101321 166.720056 
L 573.409426 84.201351 
L 574.341847 49.632294 
L 574.724007 44.30472 
L 574.930609 43.765987 
L 575.120812 44.736658 
L 575.430139 49.282863 
L 575.929127 63.989594 
L 576.58318 95.174618 
L 579.199391 259.014437 
L 579.989404 284.792884 
L 580.365348 289.12726 
L 580.60203 289.053047 
L 580.848823 286.664004 
L 581.249028 277.908973 
L 581.887204 252.594324 
L 582.541257 215.290396 
L 584.503415 87.77526 
L 585.157468 59.145512 
L 585.679868 46.495405 
L 585.86335 44.468377 
L 586.051987 43.740909 
L 586.222496 44.273732 
L 586.493845 47.436678 
L 586.933079 58.376893 
L 587.587132 86.551468 
L 588.895237 169.851735 
L 590.203343 251.442475 
L 591.111694 284.011369 
L 591.491312 288.944672 
L 591.75089 289.116471 
L 591.989132 286.974519 
L 592.375681 278.931244 
L 592.993341 255.330757 
L 593.647394 218.841597 
L 595.609552 90.803509 
L 596.263605 61.088593 
L 596.826445 46.732054 
L 597.179336 43.771633 
L 597.371929 44.192951 
L 597.635101 47.087612 
L 598.061369 57.277362 
L 598.715422 84.772098 
L 600.023527 167.487223 
L 601.331633 249.71787 
L 602.254073 283.597694 
L 602.635639 288.834576 
L 602.869618 289.271186 
L 603.080394 287.844117 
L 603.42289 281.906978 
L 603.973363 263.563748 
L 604.627416 229.959926 
L 607.243627 68.096838 
L 607.93653 47.578975 
L 608.309023 43.843689 
L 608.522222 44.123469 
L 608.77775 46.776891 
L 609.19187 56.285574 
L 609.845923 83.135187 
L 611.154029 165.27523 
L 612.462134 248.076824 
L 613.40458 283.343974 
L 613.787344 288.763113 
L 613.989749 289.349994 
L 614.173914 288.500345 
L 614.473483 284.331006 
L 614.957196 270.634544 
L 615.611248 240.199217 
L 616.919354 155.120709 
L 618.227459 75.964786 
L 619.045844 48.544177 
L 619.422883 44.027505 
L 619.666597 44.030961 
L 619.910768 46.343001 
L 620.306788 54.877015 
L 620.938695 79.662625 
L 621.592747 116.721006 
L 623.554905 244.409939 
L 624.208958 273.3751 
L 624.743752 286.537528 
L 624.926054 288.58971 
L 625.109999 289.359033 
L 625.287254 288.855873 
L 625.556107 285.775973 
L 625.991384 275.067305 
L 626.645437 247.099194 
L 627.953543 163.974311 
L 629.261648 82.184981 
L 630.172826 49.247701 
L 630.553173 44.199785 
L 630.7898 43.874207 
L 631.009322 45.515838 
L 631.365875 52.093245 
L 631.937944 72.065007 
L 632.591997 106.631213 
L 634.554155 235.36611 
L 635.208208 267.364275 
L 635.859708 285.810133 
L 636.030665 288.076404 
L 636.242813 289.32384 
L 636.438718 288.922829 
L 636.700662 286.067532 
L 637.124981 275.988503 
L 637.779034 248.59675 
L 639.08714 165.972155 
L 640.395245 83.648036 
L 641.3209 49.546861 
L 641.702656 44.28082 
L 641.912089 43.775939 
L 642.106362 44.831509 
L 642.422261 49.639873 
L 642.931507 65.042854 
L 643.58556 96.723258 
L 646.201771 260.249115 
L 646.972618 284.945097 
L 647.347847 289.158324 
L 647.579826 289.039157 
L 647.828371 286.598059 
L 648.231369 277.694009 
L 648.873723 252.024299 
L 649.527776 214.558443 
L 651.489934 87.166003 
L 652.143987 58.761624 
L 652.658111 46.448386 
L 653.011005 43.748918 
L 653.191555 44.236187 
L 653.459188 47.275885 
L 653.892533 57.872221 
L 654.546585 85.739128 
L 655.854691 168.777296 
L 657.162796 250.662603 
L 658.075359 283.780181 
L 658.456065 288.884168 
L 658.691904 289.243058 
L 658.908824 287.666543 
L 659.261198 281.282635 
L 659.826861 261.800158 
L 660.480914 227.516084 
L 662.443072 98.733851 
L 663.097125 66.429077 
L 663.760947 47.377299 
L 663.930675 45.090862 
L 664.141341 43.795161 
L 664.342096 44.164751 
L 664.602242 46.962817 
L 665.023705 56.88059 
L 665.677758 84.121064 
L 666.985863 166.61179 
L 668.293969 249.071598 
L 669.224331 283.498008 
L 669.606367 288.806837 
L 669.813831 289.335385 
L 670.005273 288.339156 
L 670.316601 283.713845 
L 670.818715 268.796467 
L 671.472768 237.459801 
L 674.088979 73.711471 
L 674.873161 48.264616 
L 675.248886 43.96726 
L 675.484133 44.055387 
L 675.731461 46.460262 
L 676.132518 55.260648 
L 676.77197 80.683501 
L 677.426023 118.037018 
L 679.388181 245.515274 
L 680.042234 274.076364 
L 680.562108 286.623222 
L 680.914968 289.353351 
L 681.096955 288.873303 
L 681.364056 285.85107 
L 681.796557 275.303583 
L 682.450609 247.480901 
L 683.758715 164.480779 
L 685.06682 82.553811 
L 685.979988 49.357501 
L 686.360852 44.229034 
L 686.596347 43.855696 
L 686.812133 45.404168 
L 687.162684 51.704526 
L 687.72555 70.97497 
L 688.379602 105.134948 
L 690.341761 233.93399 
L 690.995813 266.371551 
L 691.665006 285.690254 
L 691.834197 287.985331 
L 692.044214 289.301878 
L 692.24709 288.946659 
L 692.50645 286.173467 
L 692.926662 276.325888 
L 693.580715 249.151751 
L 694.888821 166.720056 
L 696.196926 84.201351 
L 697.129347 49.632294 
L 697.511507 44.30472 
L 697.718109 43.765987 
L 697.908312 44.736658 
L 698.217639 49.282863 
L 698.716627 63.989594 
L 699.37068 95.174618 
L 701.986891 259.014437 
L 702.776904 284.792884 
L 703.152848 289.12726 
L 703.38953 289.053047 
L 703.636323 286.664004 
L 704.036528 277.908973 
L 704.674704 252.594324 
L 705.328757 215.290396 
L 707.290915 87.77526 
L 707.944968 59.145512 
L 708.467368 46.495405 
L 708.65085 44.468377 
L 708.839487 43.740909 
L 709.009996 44.273732 
L 709.281345 47.436678 
L 709.720579 58.376893 
L 710.374632 86.551468 
L 711.682737 169.851735 
L 712.990843 251.442475 
L 713.899194 284.011369 
L 714.278812 288.944672 
L 714.53839 289.116471 
L 714.776632 286.974519 
L 715.163181 278.931244 
L 715.780841 255.330757 
L 716.434894 218.841597 
L 718.397052 90.803509 
L 719.051105 61.088593 
L 719.613945 46.732054 
L 719.966836 43.771633 
L 720.159429 44.192951 
L 720.422601 47.087612 
L 720.848869 57.277362 
L 721.502922 84.772098 
L 722.811027 167.487223 
L 724.119133 249.71787 
L 725.041573 283.597694 
L 725.423139 288.834576 
L 725.657118 289.271186 
L 725.867894 287.844117 
L 726.21039 281.906978 
L 726.760863 263.563748 
L 727.414916 229.959926 
L 730.031127 68.096838 
L 730.72403 47.578975 
L 731.096523 43.843689 
L 731.309722 44.123469 
L 731.56525 46.776891 
L 731.97937 56.285574 
L 732.633423 83.135187 
L 733.941529 165.27523 
L 735.249634 248.076824 
L 736.19208 283.343974 
L 736.574844 288.763113 
L 736.777249 289.349994 
L 736.961414 288.500345 
L 737.260983 284.331006 
L 737.744696 270.634544 
L 738.398748 240.199217 
L 739.706854 155.120709 
L 741.014959 75.964786 
L 741.833344 48.544177 
L 742.210383 44.027505 
L 742.454097 44.030961 
L 742.698268 46.343001 
L 743.094288 54.877015 
L 743.726195 79.662625 
L 744.380247 116.721006 
L 746.342405 244.409939 
L 746.996458 273.3751 
L 747.531252 286.537528 
L 747.713554 288.58971 
L 747.897499 289.359033 
L 748.074754 288.855873 
L 748.343607 285.775973 
L 748.778884 275.067305 
L 749.432937 247.099194 
L 750.741043 163.974311 
L 752.049148 82.184981 
L 752.960326 49.247701 
L 753.340673 44.199785 
L 753.5773 43.874207 
L 753.796822 45.515838 
L 754.153375 52.093245 
L 754.725444 72.065007 
L 755.379497 106.631213 
L 757.341655 235.36611 
L 757.995708 267.364275 
L 758.647208 285.810133 
L 758.818165 288.076404 
L 759.030313 289.32384 
L 759.226218 288.922829 
L 759.488162 286.067532 
L 759.912481 275.988503 
L 760.566534 248.59675 
L 761.87464 165.972155 
L 763.182745 83.648036 
L 764.1084 49.546861 
L 764.490156 44.28082 
L 764.699589 43.775939 
L 764.893862 44.831509 
L 765.209761 49.639873 
L 765.719007 65.042854 
L 766.37306 96.723258 
L 767.4475 166.552114 
L 767.4475 166.552114 
" style="fill:none;stroke:#d62728;stroke-linecap:square;stroke-width:1.5;"/>
   </g>
   <g id="patch_7">
    <path d="M 64.21 301.64 
L 64.21 31.46 
" style="fill:none;stroke:#000000;stroke-linecap:square;stroke-linejoin:miter;stroke-width:0.8;"/>
   </g>
   <g id="patch_8">
    <path d="M 800.935 301.64 
L 800.935 31.46 
" style="fill:none;stroke:#000000;stroke-linecap:square;stroke-linejoin:miter;stroke-width:0.8;"/>
   </g>
   <g id="patch_9">
    <path d="M 64.21 301.64 
L 800.935 301.64 
" style="fill:none;stroke:#000000;stroke-linecap:square;stroke-linejoin:miter;stroke-width:0.8;"/>
   </g>
   <g id="patch_10">
    <path d="M 64.21 31.46 
L 800.935 31.46 
" style="fill:none;stroke:#000000;stroke-linecap:square;stroke-linejoin:miter;stroke-width:0.8;"/>
   </g>
  </g>
 </g>
 <defs>
  <clipPath id="p5c1572f309">
   <rect height="270.18" width="736.725" x="64.21" y="31.46"/>
  </clipPath>
 </defs>
</svg>
