<?xml version="1.0" encoding="utf-8" standalone="no"?>
<!DOCTYPE svg PUBLIC "-//W3C//DTD SVG 1.1//EN"
  "http://www.w3.org/Graphics/SVG/1.1/DTD/svg11.dtd">
<!-- Created with matplotlib (https://matplotlib.org/) -->
<svg height="328.32pt" version="1.1" viewBox="0 0 933.12 328.32" width="933.12pt" xmlns="http://www.w3.org/2000/svg" xmlns:xlink="http://www.w3.org/1999/xlink">
 <metadata>
  <rdf:RDF xmlns:cc="http://creativecommons.org/ns#" xmlns:dc="http://purl.org/dc/elements/1.1/" xmlns:rdf="http://www.w3.org/1999/02/22-rdf-syntax-ns#">
   <cc:Work>
    <dc:type rdf:resource="http://purl.org/dc/dcmitype/StillImage"/>
    <dc:date>2021-01-05T12:32:12.107287</dc:date>
    <dc:format>image/svg+xml</dc:format>
    <dc:creator>
     <cc:Agent>
      <dc:title>Matplotlib v3.3.3, https://matplotlib.org/</dc:title>
     </cc:Agent>
    </dc:creator>
   </cc:Work>
  </rdf:RDF>
 </metadata>
 <defs>
  <style type="text/css">*{stroke-linecap:butt;stroke-linejoin:round;}</style>
 </defs>
 <g id="figure_1">
  <g id="patch_1">
   <path d="M 0 328.32 
L 933.12 328.32 
L 933.12 0 
L 0 0 
z
" style="fill:none;"/>
  </g>
  <g id="axes_1">
   <g id="patch_2">
    <path d="M 64.21 284.36 
L 858.535 284.36 
L 858.535 32.96 
L 64.21 32.96 
z
" style="fill:none;"/>
   </g>
   <g id="matplotlib.axis_1">
    <g id="xtick_1">
     <g id="line2d_1">
      <defs>
       <path d="M 0 0 
L 0 3.5 
" id="m095f11f960" style="stroke:#000000;stroke-width:0.8;"/>
      </defs>
      <g>
       <use style="stroke:#000000;stroke-width:0.8;" x="100.315682" xlink:href="#m095f11f960" y="284.36"/>
      </g>
     </g>
     <g id="text_1">
      <!-- 0.0 -->
      <g transform="translate(91.568963 299.718281)scale(0.11 -0.11)">
       <defs>
        <path d="M 31.78125 66.40625 
Q 24.171875 66.40625 20.328125 58.90625 
Q 16.5 51.421875 16.5 36.375 
Q 16.5 21.390625 20.328125 13.890625 
Q 24.171875 6.390625 31.78125 6.390625 
Q 39.453125 6.390625 43.28125 13.890625 
Q 47.125 21.390625 47.125 36.375 
Q 47.125 51.421875 43.28125 58.90625 
Q 39.453125 66.40625 31.78125 66.40625 
z
M 31.78125 74.21875 
Q 44.046875 74.21875 50.515625 64.515625 
Q 56.984375 54.828125 56.984375 36.375 
Q 56.984375 17.96875 50.515625 8.265625 
Q 44.046875 -1.421875 31.78125 -1.421875 
Q 19.53125 -1.421875 13.0625 8.265625 
Q 6.59375 17.96875 6.59375 36.375 
Q 6.59375 54.828125 13.0625 64.515625 
Q 19.53125 74.21875 31.78125 74.21875 
z
" id="DejaVuSans-48"/>
        <path d="M 10.6875 12.40625 
L 21 12.40625 
L 21 0 
L 10.6875 0 
z
" id="DejaVuSans-46"/>
       </defs>
       <use xlink:href="#DejaVuSans-48"/>
       <use x="63.623047" xlink:href="#DejaVuSans-46"/>
       <use x="95.410156" xlink:href="#DejaVuSans-48"/>
      </g>
     </g>
    </g>
    <g id="xtick_2">
     <g id="line2d_2">
      <g>
       <use style="stroke:#000000;stroke-width:0.8;" x="244.738409" xlink:href="#m095f11f960" y="284.36"/>
      </g>
     </g>
     <g id="text_2">
      <!-- 0.2 -->
      <g transform="translate(235.99169 299.718281)scale(0.11 -0.11)">
       <defs>
        <path d="M 19.1875 8.296875 
L 53.609375 8.296875 
L 53.609375 0 
L 7.328125 0 
L 7.328125 8.296875 
Q 12.9375 14.109375 22.625 23.890625 
Q 32.328125 33.6875 34.8125 36.53125 
Q 39.546875 41.84375 41.421875 45.53125 
Q 43.3125 49.21875 43.3125 52.78125 
Q 43.3125 58.59375 39.234375 62.25 
Q 35.15625 65.921875 28.609375 65.921875 
Q 23.96875 65.921875 18.8125 64.3125 
Q 13.671875 62.703125 7.8125 59.421875 
L 7.8125 69.390625 
Q 13.765625 71.78125 18.9375 73 
Q 24.125 74.21875 28.421875 74.21875 
Q 39.75 74.21875 46.484375 68.546875 
Q 53.21875 62.890625 53.21875 53.421875 
Q 53.21875 48.921875 51.53125 44.890625 
Q 49.859375 40.875 45.40625 35.40625 
Q 44.1875 33.984375 37.640625 27.21875 
Q 31.109375 20.453125 19.1875 8.296875 
z
" id="DejaVuSans-50"/>
       </defs>
       <use xlink:href="#DejaVuSans-48"/>
       <use x="63.623047" xlink:href="#DejaVuSans-46"/>
       <use x="95.410156" xlink:href="#DejaVuSans-50"/>
      </g>
     </g>
    </g>
    <g id="xtick_3">
     <g id="line2d_3">
      <g>
       <use style="stroke:#000000;stroke-width:0.8;" x="389.161136" xlink:href="#m095f11f960" y="284.36"/>
      </g>
     </g>
     <g id="text_3">
      <!-- 0.4 -->
      <g transform="translate(380.414418 299.718281)scale(0.11 -0.11)">
       <defs>
        <path d="M 37.796875 64.3125 
L 12.890625 25.390625 
L 37.796875 25.390625 
z
M 35.203125 72.90625 
L 47.609375 72.90625 
L 47.609375 25.390625 
L 58.015625 25.390625 
L 58.015625 17.1875 
L 47.609375 17.1875 
L 47.609375 0 
L 37.796875 0 
L 37.796875 17.1875 
L 4.890625 17.1875 
L 4.890625 26.703125 
z
" id="DejaVuSans-52"/>
       </defs>
       <use xlink:href="#DejaVuSans-48"/>
       <use x="63.623047" xlink:href="#DejaVuSans-46"/>
       <use x="95.410156" xlink:href="#DejaVuSans-52"/>
      </g>
     </g>
    </g>
    <g id="xtick_4">
     <g id="line2d_4">
      <g>
       <use style="stroke:#000000;stroke-width:0.8;" x="533.583864" xlink:href="#m095f11f960" y="284.36"/>
      </g>
     </g>
     <g id="text_4">
      <!-- 0.6 -->
      <g transform="translate(524.837145 299.718281)scale(0.11 -0.11)">
       <defs>
        <path d="M 33.015625 40.375 
Q 26.375 40.375 22.484375 35.828125 
Q 18.609375 31.296875 18.609375 23.390625 
Q 18.609375 15.53125 22.484375 10.953125 
Q 26.375 6.390625 33.015625 6.390625 
Q 39.65625 6.390625 43.53125 10.953125 
Q 47.40625 15.53125 47.40625 23.390625 
Q 47.40625 31.296875 43.53125 35.828125 
Q 39.65625 40.375 33.015625 40.375 
z
M 52.59375 71.296875 
L 52.59375 62.3125 
Q 48.875 64.0625 45.09375 64.984375 
Q 41.3125 65.921875 37.59375 65.921875 
Q 27.828125 65.921875 22.671875 59.328125 
Q 17.53125 52.734375 16.796875 39.40625 
Q 19.671875 43.65625 24.015625 45.921875 
Q 28.375 48.1875 33.59375 48.1875 
Q 44.578125 48.1875 50.953125 41.515625 
Q 57.328125 34.859375 57.328125 23.390625 
Q 57.328125 12.15625 50.6875 5.359375 
Q 44.046875 -1.421875 33.015625 -1.421875 
Q 20.359375 -1.421875 13.671875 8.265625 
Q 6.984375 17.96875 6.984375 36.375 
Q 6.984375 53.65625 15.1875 63.9375 
Q 23.390625 74.21875 37.203125 74.21875 
Q 40.921875 74.21875 44.703125 73.484375 
Q 48.484375 72.75 52.59375 71.296875 
z
" id="DejaVuSans-54"/>
       </defs>
       <use xlink:href="#DejaVuSans-48"/>
       <use x="63.623047" xlink:href="#DejaVuSans-46"/>
       <use x="95.410156" xlink:href="#DejaVuSans-54"/>
      </g>
     </g>
    </g>
    <g id="xtick_5">
     <g id="line2d_5">
      <g>
       <use style="stroke:#000000;stroke-width:0.8;" x="678.006591" xlink:href="#m095f11f960" y="284.36"/>
      </g>
     </g>
     <g id="text_5">
      <!-- 0.8 -->
      <g transform="translate(669.259872 299.718281)scale(0.11 -0.11)">
       <defs>
        <path d="M 31.78125 34.625 
Q 24.75 34.625 20.71875 30.859375 
Q 16.703125 27.09375 16.703125 20.515625 
Q 16.703125 13.921875 20.71875 10.15625 
Q 24.75 6.390625 31.78125 6.390625 
Q 38.8125 6.390625 42.859375 10.171875 
Q 46.921875 13.96875 46.921875 20.515625 
Q 46.921875 27.09375 42.890625 30.859375 
Q 38.875 34.625 31.78125 34.625 
z
M 21.921875 38.8125 
Q 15.578125 40.375 12.03125 44.71875 
Q 8.5 49.078125 8.5 55.328125 
Q 8.5 64.0625 14.71875 69.140625 
Q 20.953125 74.21875 31.78125 74.21875 
Q 42.671875 74.21875 48.875 69.140625 
Q 55.078125 64.0625 55.078125 55.328125 
Q 55.078125 49.078125 51.53125 44.71875 
Q 48 40.375 41.703125 38.8125 
Q 48.828125 37.15625 52.796875 32.3125 
Q 56.78125 27.484375 56.78125 20.515625 
Q 56.78125 9.90625 50.3125 4.234375 
Q 43.84375 -1.421875 31.78125 -1.421875 
Q 19.734375 -1.421875 13.25 4.234375 
Q 6.78125 9.90625 6.78125 20.515625 
Q 6.78125 27.484375 10.78125 32.3125 
Q 14.796875 37.15625 21.921875 38.8125 
z
M 18.3125 54.390625 
Q 18.3125 48.734375 21.84375 45.5625 
Q 25.390625 42.390625 31.78125 42.390625 
Q 38.140625 42.390625 41.71875 45.5625 
Q 45.3125 48.734375 45.3125 54.390625 
Q 45.3125 60.0625 41.71875 63.234375 
Q 38.140625 66.40625 31.78125 66.40625 
Q 25.390625 66.40625 21.84375 63.234375 
Q 18.3125 60.0625 18.3125 54.390625 
z
" id="DejaVuSans-56"/>
       </defs>
       <use xlink:href="#DejaVuSans-48"/>
       <use x="63.623047" xlink:href="#DejaVuSans-46"/>
       <use x="95.410156" xlink:href="#DejaVuSans-56"/>
      </g>
     </g>
    </g>
    <g id="xtick_6">
     <g id="line2d_6">
      <g>
       <use style="stroke:#000000;stroke-width:0.8;" x="822.429318" xlink:href="#m095f11f960" y="284.36"/>
      </g>
     </g>
     <g id="text_6">
      <!-- 1.0 -->
      <g transform="translate(813.682599 299.718281)scale(0.11 -0.11)">
       <defs>
        <path d="M 12.40625 8.296875 
L 28.515625 8.296875 
L 28.515625 63.921875 
L 10.984375 60.40625 
L 10.984375 69.390625 
L 28.421875 72.90625 
L 38.28125 72.90625 
L 38.28125 8.296875 
L 54.390625 8.296875 
L 54.390625 0 
L 12.40625 0 
z
" id="DejaVuSans-49"/>
       </defs>
       <use xlink:href="#DejaVuSans-49"/>
       <use x="63.623047" xlink:href="#DejaVuSans-46"/>
       <use x="95.410156" xlink:href="#DejaVuSans-48"/>
      </g>
     </g>
    </g>
    <g id="text_7">
     <!-- Tiempo (s) -->
     <g transform="translate(432.15375 314.364219)scale(0.11 -0.11)">
      <defs>
       <path d="M -0.296875 72.90625 
L 61.375 72.90625 
L 61.375 64.59375 
L 35.5 64.59375 
L 35.5 0 
L 25.59375 0 
L 25.59375 64.59375 
L -0.296875 64.59375 
z
" id="DejaVuSans-84"/>
       <path d="M 9.421875 54.6875 
L 18.40625 54.6875 
L 18.40625 0 
L 9.421875 0 
z
M 9.421875 75.984375 
L 18.40625 75.984375 
L 18.40625 64.59375 
L 9.421875 64.59375 
z
" id="DejaVuSans-105"/>
       <path d="M 56.203125 29.59375 
L 56.203125 25.203125 
L 14.890625 25.203125 
Q 15.484375 15.921875 20.484375 11.0625 
Q 25.484375 6.203125 34.421875 6.203125 
Q 39.59375 6.203125 44.453125 7.46875 
Q 49.3125 8.734375 54.109375 11.28125 
L 54.109375 2.78125 
Q 49.265625 0.734375 44.1875 -0.34375 
Q 39.109375 -1.421875 33.890625 -1.421875 
Q 20.796875 -1.421875 13.15625 6.1875 
Q 5.515625 13.8125 5.515625 26.8125 
Q 5.515625 40.234375 12.765625 48.109375 
Q 20.015625 56 32.328125 56 
Q 43.359375 56 49.78125 48.890625 
Q 56.203125 41.796875 56.203125 29.59375 
z
M 47.21875 32.234375 
Q 47.125 39.59375 43.09375 43.984375 
Q 39.0625 48.390625 32.421875 48.390625 
Q 24.90625 48.390625 20.390625 44.140625 
Q 15.875 39.890625 15.1875 32.171875 
z
" id="DejaVuSans-101"/>
       <path d="M 52 44.1875 
Q 55.375 50.25 60.0625 53.125 
Q 64.75 56 71.09375 56 
Q 79.640625 56 84.28125 50.015625 
Q 88.921875 44.046875 88.921875 33.015625 
L 88.921875 0 
L 79.890625 0 
L 79.890625 32.71875 
Q 79.890625 40.578125 77.09375 44.375 
Q 74.3125 48.1875 68.609375 48.1875 
Q 61.625 48.1875 57.5625 43.546875 
Q 53.515625 38.921875 53.515625 30.90625 
L 53.515625 0 
L 44.484375 0 
L 44.484375 32.71875 
Q 44.484375 40.625 41.703125 44.40625 
Q 38.921875 48.1875 33.109375 48.1875 
Q 26.21875 48.1875 22.15625 43.53125 
Q 18.109375 38.875 18.109375 30.90625 
L 18.109375 0 
L 9.078125 0 
L 9.078125 54.6875 
L 18.109375 54.6875 
L 18.109375 46.1875 
Q 21.1875 51.21875 25.484375 53.609375 
Q 29.78125 56 35.6875 56 
Q 41.65625 56 45.828125 52.96875 
Q 50 49.953125 52 44.1875 
z
" id="DejaVuSans-109"/>
       <path d="M 18.109375 8.203125 
L 18.109375 -20.796875 
L 9.078125 -20.796875 
L 9.078125 54.6875 
L 18.109375 54.6875 
L 18.109375 46.390625 
Q 20.953125 51.265625 25.265625 53.625 
Q 29.59375 56 35.59375 56 
Q 45.5625 56 51.78125 48.09375 
Q 58.015625 40.1875 58.015625 27.296875 
Q 58.015625 14.40625 51.78125 6.484375 
Q 45.5625 -1.421875 35.59375 -1.421875 
Q 29.59375 -1.421875 25.265625 0.953125 
Q 20.953125 3.328125 18.109375 8.203125 
z
M 48.6875 27.296875 
Q 48.6875 37.203125 44.609375 42.84375 
Q 40.53125 48.484375 33.40625 48.484375 
Q 26.265625 48.484375 22.1875 42.84375 
Q 18.109375 37.203125 18.109375 27.296875 
Q 18.109375 17.390625 22.1875 11.75 
Q 26.265625 6.109375 33.40625 6.109375 
Q 40.53125 6.109375 44.609375 11.75 
Q 48.6875 17.390625 48.6875 27.296875 
z
" id="DejaVuSans-112"/>
       <path d="M 30.609375 48.390625 
Q 23.390625 48.390625 19.1875 42.75 
Q 14.984375 37.109375 14.984375 27.296875 
Q 14.984375 17.484375 19.15625 11.84375 
Q 23.34375 6.203125 30.609375 6.203125 
Q 37.796875 6.203125 41.984375 11.859375 
Q 46.1875 17.53125 46.1875 27.296875 
Q 46.1875 37.015625 41.984375 42.703125 
Q 37.796875 48.390625 30.609375 48.390625 
z
M 30.609375 56 
Q 42.328125 56 49.015625 48.375 
Q 55.71875 40.765625 55.71875 27.296875 
Q 55.71875 13.875 49.015625 6.21875 
Q 42.328125 -1.421875 30.609375 -1.421875 
Q 18.84375 -1.421875 12.171875 6.21875 
Q 5.515625 13.875 5.515625 27.296875 
Q 5.515625 40.765625 12.171875 48.375 
Q 18.84375 56 30.609375 56 
z
" id="DejaVuSans-111"/>
       <path id="DejaVuSans-32"/>
       <path d="M 31 75.875 
Q 24.46875 64.65625 21.28125 53.65625 
Q 18.109375 42.671875 18.109375 31.390625 
Q 18.109375 20.125 21.3125 9.0625 
Q 24.515625 -2 31 -13.1875 
L 23.1875 -13.1875 
Q 15.875 -1.703125 12.234375 9.375 
Q 8.59375 20.453125 8.59375 31.390625 
Q 8.59375 42.28125 12.203125 53.3125 
Q 15.828125 64.359375 23.1875 75.875 
z
" id="DejaVuSans-40"/>
       <path d="M 44.28125 53.078125 
L 44.28125 44.578125 
Q 40.484375 46.53125 36.375 47.5 
Q 32.28125 48.484375 27.875 48.484375 
Q 21.1875 48.484375 17.84375 46.4375 
Q 14.5 44.390625 14.5 40.28125 
Q 14.5 37.15625 16.890625 35.375 
Q 19.28125 33.59375 26.515625 31.984375 
L 29.59375 31.296875 
Q 39.15625 29.25 43.1875 25.515625 
Q 47.21875 21.78125 47.21875 15.09375 
Q 47.21875 7.46875 41.1875 3.015625 
Q 35.15625 -1.421875 24.609375 -1.421875 
Q 20.21875 -1.421875 15.453125 -0.5625 
Q 10.6875 0.296875 5.421875 2 
L 5.421875 11.28125 
Q 10.40625 8.6875 15.234375 7.390625 
Q 20.0625 6.109375 24.8125 6.109375 
Q 31.15625 6.109375 34.5625 8.28125 
Q 37.984375 10.453125 37.984375 14.40625 
Q 37.984375 18.0625 35.515625 20.015625 
Q 33.0625 21.96875 24.703125 23.78125 
L 21.578125 24.515625 
Q 13.234375 26.265625 9.515625 29.90625 
Q 5.8125 33.546875 5.8125 39.890625 
Q 5.8125 47.609375 11.28125 51.796875 
Q 16.75 56 26.8125 56 
Q 31.78125 56 36.171875 55.265625 
Q 40.578125 54.546875 44.28125 53.078125 
z
" id="DejaVuSans-115"/>
       <path d="M 8.015625 75.875 
L 15.828125 75.875 
Q 23.140625 64.359375 26.78125 53.3125 
Q 30.421875 42.28125 30.421875 31.390625 
Q 30.421875 20.453125 26.78125 9.375 
Q 23.140625 -1.703125 15.828125 -13.1875 
L 8.015625 -13.1875 
Q 14.5 -2 17.703125 9.0625 
Q 20.90625 20.125 20.90625 31.390625 
Q 20.90625 42.671875 17.703125 53.65625 
Q 14.5 64.65625 8.015625 75.875 
z
" id="DejaVuSans-41"/>
      </defs>
      <use xlink:href="#DejaVuSans-84"/>
      <use x="57.958984" xlink:href="#DejaVuSans-105"/>
      <use x="85.742188" xlink:href="#DejaVuSans-101"/>
      <use x="147.265625" xlink:href="#DejaVuSans-109"/>
      <use x="244.677734" xlink:href="#DejaVuSans-112"/>
      <use x="308.154297" xlink:href="#DejaVuSans-111"/>
      <use x="369.335938" xlink:href="#DejaVuSans-32"/>
      <use x="401.123047" xlink:href="#DejaVuSans-40"/>
      <use x="440.136719" xlink:href="#DejaVuSans-115"/>
      <use x="492.236328" xlink:href="#DejaVuSans-41"/>
     </g>
    </g>
   </g>
   <g id="matplotlib.axis_2">
    <g id="ytick_1">
     <g id="line2d_7">
      <defs>
       <path d="M 0 0 
L -3.5 0 
" id="mf4f7c43130" style="stroke:#000000;stroke-width:0.8;"/>
      </defs>
      <g>
       <use style="stroke:#000000;stroke-width:0.8;" x="64.21" xlink:href="#mf4f7c43130" y="253.887305"/>
      </g>
     </g>
     <g id="text_8">
      <!-- −100 -->
      <g style="fill:#2ca02c;" transform="translate(26.996094 258.066446)scale(0.11 -0.11)">
       <defs>
        <path d="M 10.59375 35.5 
L 73.1875 35.5 
L 73.1875 27.203125 
L 10.59375 27.203125 
z
" id="DejaVuSans-8722"/>
       </defs>
       <use xlink:href="#DejaVuSans-8722"/>
       <use x="83.789062" xlink:href="#DejaVuSans-49"/>
       <use x="147.412109" xlink:href="#DejaVuSans-48"/>
       <use x="211.035156" xlink:href="#DejaVuSans-48"/>
      </g>
     </g>
    </g>
    <g id="ytick_2">
     <g id="line2d_8">
      <g>
       <use style="stroke:#000000;stroke-width:0.8;" x="64.21" xlink:href="#mf4f7c43130" y="206.272669"/>
      </g>
     </g>
     <g id="text_9">
      <!-- −50 -->
      <g style="fill:#2ca02c;" transform="translate(33.994844 210.45181)scale(0.11 -0.11)">
       <defs>
        <path d="M 10.796875 72.90625 
L 49.515625 72.90625 
L 49.515625 64.59375 
L 19.828125 64.59375 
L 19.828125 46.734375 
Q 21.96875 47.46875 24.109375 47.828125 
Q 26.265625 48.1875 28.421875 48.1875 
Q 40.625 48.1875 47.75 41.5 
Q 54.890625 34.8125 54.890625 23.390625 
Q 54.890625 11.625 47.5625 5.09375 
Q 40.234375 -1.421875 26.90625 -1.421875 
Q 22.3125 -1.421875 17.546875 -0.640625 
Q 12.796875 0.140625 7.71875 1.703125 
L 7.71875 11.625 
Q 12.109375 9.234375 16.796875 8.0625 
Q 21.484375 6.890625 26.703125 6.890625 
Q 35.15625 6.890625 40.078125 11.328125 
Q 45.015625 15.765625 45.015625 23.390625 
Q 45.015625 31 40.078125 35.4375 
Q 35.15625 39.890625 26.703125 39.890625 
Q 22.75 39.890625 18.8125 39.015625 
Q 14.890625 38.140625 10.796875 36.28125 
z
" id="DejaVuSans-53"/>
       </defs>
       <use xlink:href="#DejaVuSans-8722"/>
       <use x="83.789062" xlink:href="#DejaVuSans-53"/>
       <use x="147.412109" xlink:href="#DejaVuSans-48"/>
      </g>
     </g>
    </g>
    <g id="ytick_3">
     <g id="line2d_9">
      <g>
       <use style="stroke:#000000;stroke-width:0.8;" x="64.21" xlink:href="#mf4f7c43130" y="158.658033"/>
      </g>
     </g>
     <g id="text_10">
      <!-- 0 -->
      <g style="fill:#2ca02c;" transform="translate(50.21125 162.837173)scale(0.11 -0.11)">
       <use xlink:href="#DejaVuSans-48"/>
      </g>
     </g>
    </g>
    <g id="ytick_4">
     <g id="line2d_10">
      <g>
       <use style="stroke:#000000;stroke-width:0.8;" x="64.21" xlink:href="#mf4f7c43130" y="111.043397"/>
      </g>
     </g>
     <g id="text_11">
      <!-- 50 -->
      <g style="fill:#2ca02c;" transform="translate(43.2125 115.222537)scale(0.11 -0.11)">
       <use xlink:href="#DejaVuSans-53"/>
       <use x="63.623047" xlink:href="#DejaVuSans-48"/>
      </g>
     </g>
    </g>
    <g id="ytick_5">
     <g id="line2d_11">
      <g>
       <use style="stroke:#000000;stroke-width:0.8;" x="64.21" xlink:href="#mf4f7c43130" y="63.42876"/>
      </g>
     </g>
     <g id="text_12">
      <!-- 100 -->
      <g style="fill:#2ca02c;" transform="translate(36.21375 67.607901)scale(0.11 -0.11)">
       <use xlink:href="#DejaVuSans-49"/>
       <use x="63.623047" xlink:href="#DejaVuSans-48"/>
       <use x="127.246094" xlink:href="#DejaVuSans-48"/>
      </g>
     </g>
    </g>
    <g id="text_13">
     <!-- Voltaje (V) -->
     <g style="fill:#2ca02c;" transform="translate(20.708438 187.130234)rotate(-90)scale(0.11 -0.11)">
      <defs>
       <path d="M 28.609375 0 
L 0.78125 72.90625 
L 11.078125 72.90625 
L 34.1875 11.53125 
L 57.328125 72.90625 
L 67.578125 72.90625 
L 39.796875 0 
z
" id="DejaVuSans-86"/>
       <path d="M 9.421875 75.984375 
L 18.40625 75.984375 
L 18.40625 0 
L 9.421875 0 
z
" id="DejaVuSans-108"/>
       <path d="M 18.3125 70.21875 
L 18.3125 54.6875 
L 36.8125 54.6875 
L 36.8125 47.703125 
L 18.3125 47.703125 
L 18.3125 18.015625 
Q 18.3125 11.328125 20.140625 9.421875 
Q 21.96875 7.515625 27.59375 7.515625 
L 36.8125 7.515625 
L 36.8125 0 
L 27.59375 0 
Q 17.1875 0 13.234375 3.875 
Q 9.28125 7.765625 9.28125 18.015625 
L 9.28125 47.703125 
L 2.6875 47.703125 
L 2.6875 54.6875 
L 9.28125 54.6875 
L 9.28125 70.21875 
z
" id="DejaVuSans-116"/>
       <path d="M 34.28125 27.484375 
Q 23.390625 27.484375 19.1875 25 
Q 14.984375 22.515625 14.984375 16.5 
Q 14.984375 11.71875 18.140625 8.90625 
Q 21.296875 6.109375 26.703125 6.109375 
Q 34.1875 6.109375 38.703125 11.40625 
Q 43.21875 16.703125 43.21875 25.484375 
L 43.21875 27.484375 
z
M 52.203125 31.203125 
L 52.203125 0 
L 43.21875 0 
L 43.21875 8.296875 
Q 40.140625 3.328125 35.546875 0.953125 
Q 30.953125 -1.421875 24.3125 -1.421875 
Q 15.921875 -1.421875 10.953125 3.296875 
Q 6 8.015625 6 15.921875 
Q 6 25.140625 12.171875 29.828125 
Q 18.359375 34.515625 30.609375 34.515625 
L 43.21875 34.515625 
L 43.21875 35.40625 
Q 43.21875 41.609375 39.140625 45 
Q 35.0625 48.390625 27.6875 48.390625 
Q 23 48.390625 18.546875 47.265625 
Q 14.109375 46.140625 10.015625 43.890625 
L 10.015625 52.203125 
Q 14.9375 54.109375 19.578125 55.046875 
Q 24.21875 56 28.609375 56 
Q 40.484375 56 46.34375 49.84375 
Q 52.203125 43.703125 52.203125 31.203125 
z
" id="DejaVuSans-97"/>
       <path d="M 9.421875 54.6875 
L 18.40625 54.6875 
L 18.40625 -0.984375 
Q 18.40625 -11.421875 14.421875 -16.109375 
Q 10.453125 -20.796875 1.609375 -20.796875 
L -1.8125 -20.796875 
L -1.8125 -13.1875 
L 0.59375 -13.1875 
Q 5.71875 -13.1875 7.5625 -10.8125 
Q 9.421875 -8.453125 9.421875 -0.984375 
z
M 9.421875 75.984375 
L 18.40625 75.984375 
L 18.40625 64.59375 
L 9.421875 64.59375 
z
" id="DejaVuSans-106"/>
      </defs>
      <use xlink:href="#DejaVuSans-86"/>
      <use x="60.658203" xlink:href="#DejaVuSans-111"/>
      <use x="121.839844" xlink:href="#DejaVuSans-108"/>
      <use x="149.623047" xlink:href="#DejaVuSans-116"/>
      <use x="188.832031" xlink:href="#DejaVuSans-97"/>
      <use x="250.111328" xlink:href="#DejaVuSans-106"/>
      <use x="277.894531" xlink:href="#DejaVuSans-101"/>
      <use x="339.417969" xlink:href="#DejaVuSans-32"/>
      <use x="371.205078" xlink:href="#DejaVuSans-40"/>
      <use x="410.21875" xlink:href="#DejaVuSans-86"/>
      <use x="478.626953" xlink:href="#DejaVuSans-41"/>
     </g>
    </g>
   </g>
   <g id="line2d_12">
    <path clip-path="url(#pd476e2ba29)" d="M 100.315682 158.658033 
L 101.072873 114.651984 
L 101.778062 79.645389 
L 102.757287 49.356514 
L 103.166548 44.771157 
L 103.446201 44.613526 
L 103.703152 46.6086 
L 104.120056 54.098606 
L 104.786205 76.072763 
L 105.491394 110.032534 
L 107.606962 229.166967 
L 108.312151 256.807501 
L 108.918606 270.151513 
L 109.299274 272.904596 
L 109.50671 272.511458 
L 109.790537 269.815801 
L 110.250258 260.328146 
L 110.955448 234.738813 
L 112.365826 157.768126 
L 113.776204 81.258498 
L 114.770557 49.745956 
L 115.181943 44.87471 
L 115.434241 44.469388 
L 115.661584 45.799048 
L 116.030997 51.328862 
L 116.624723 68.410816 
L 117.329912 99.687274 
L 120.150668 250.290431 
L 120.897334 269.363946 
L 121.078506 271.545376 
L 121.298937 272.837471 
L 121.528707 272.576487 
L 121.80425 270.106534 
L 122.250805 261.256045 
L 122.955994 236.270069 
L 123.661183 200.882962 
L 125.776751 82.793269 
L 126.48194 57.120271 
L 127.004402 46.749923 
L 127.20547 44.941523 
L 127.423739 44.395819 
L 127.62236 45.187374 
L 127.945444 49.069925 
L 128.46712 61.822497 
L 129.172309 90.148483 
L 130.582687 169.317741 
L 131.287876 209.551194 
L 131.993065 242.964229 
L 132.875166 268.465268 
L 133.281673 272.666487 
L 133.544374 272.662673 
L 133.80766 270.510714 
L 134.234683 262.568087 
L 134.916054 239.500972 
L 135.621243 205.016459 
L 137.73681 86.204463 
L 138.441999 59.255392 
L 139.018488 47.012121 
L 139.215054 45.102789 
L 139.413425 44.387273 
L 139.604475 44.855718 
L 139.894371 47.722216 
L 140.363718 57.68843 
L 141.068907 83.714201 
L 142.479285 161.062594 
L 143.889663 237.165189 
L 144.872054 267.80999 
L 145.282131 272.506086 
L 145.537273 272.808469 
L 145.774009 271.27984 
L 146.158521 265.156341 
L 146.775442 246.564521 
L 147.480631 214.39626 
L 149.596198 94.610528 
L 150.301387 64.841721 
L 151.003583 47.688154 
L 151.18793 45.579754 
L 151.416694 44.419845 
L 151.62782 44.793493 
L 151.91028 47.451287 
L 152.367829 56.832451 
L 153.073018 82.322764 
L 154.483397 159.206425 
L 155.893775 235.805966 
L 156.891709 267.531337 
L 157.303307 272.430621 
L 157.529153 272.900006 
L 157.73867 271.9168 
L 158.079356 267.439557 
L 158.628556 253.099015 
L 159.333745 223.614947 
L 162.154501 71.459542 
L 162.985356 48.492696 
L 163.389912 44.573736 
L 163.639965 44.685132 
L 163.907966 46.957161 
L 164.342509 55.24404 
L 165.035142 79.133612 
L 165.740331 113.997123 
L 167.855899 232.533153 
L 168.561088 258.960534 
L 169.115296 270.41399 
L 169.313859 272.283277 
L 169.495848 272.925353 
L 169.690445 272.471654 
L 169.979028 269.64251 
L 170.446294 259.780667 
L 171.151483 233.848914 
L 172.561861 156.58107 
L 173.972239 80.389297 
L 174.95612 49.576996 
L 175.366584 44.828809 
L 175.620879 44.495472 
L 175.854813 45.963586 
L 176.234826 51.907269 
L 176.84485 70.044444 
L 177.550039 101.950649 
L 179.665606 221.780574 
L 180.370796 251.834287 
L 181.086257 269.550633 
L 181.269282 271.677777 
L 181.49645 272.882538 
L 181.712797 272.538044 
L 181.993321 269.933425 
L 182.447796 260.702084 
L 183.152985 235.352296 
L 184.563363 158.592969 
L 185.973742 81.867352 
L 186.976743 49.839865 
L 187.388643 44.900834 
L 187.612369 44.409454 
L 187.818838 45.337512 
L 188.154604 49.644649 
L 188.696127 63.53398 
L 189.401316 92.698795 
L 192.222072 245.061196 
L 193.067282 268.725409 
L 193.472372 272.722511 
L 193.725942 272.639932 
L 193.992633 270.401555 
L 194.425087 262.210976 
L 195.114596 238.550715 
L 195.819785 203.791541 
L 197.935352 85.175753 
L 198.640542 58.602797 
L 199.200939 46.932372 
L 199.399016 45.051416 
L 199.581333 44.392619 
L 199.777552 44.839281 
L 200.065534 47.651397 
L 200.531848 57.465613 
L 201.237037 83.35425 
L 202.647415 160.585003 
L 204.057793 236.817397 
L 205.042357 267.706456 
L 205.452999 272.478509 
L 205.706906 272.825932 
L 205.939559 271.385164 
L 206.317512 265.52295 
L 206.924376 247.592512 
L 207.629566 215.807281 
L 209.745133 95.96092 
L 210.450322 65.777734 
L 211.17185 47.801185 
L 211.354268 45.665615 
L 211.580703 44.440527 
L 211.799446 44.771019 
L 212.079082 47.351386 
L 212.532145 56.51429 
L 213.237334 81.799407 
L 214.647712 158.50119 
L 216.05809 235.284232 
L 216.763279 260.660739 
L 217.27341 270.623816 
L 217.475456 272.408088 
L 217.698209 272.909399 
L 217.903279 272.006263 
L 218.236784 267.776261 
L 218.774777 254.092313 
L 219.479966 225.075319 
L 222.300722 72.623651 
L 223.152518 48.636205 
L 223.557856 44.603014 
L 223.813047 44.672033 
L 224.079134 46.894975 
L 224.510625 55.041337 
L 225.198693 78.596112 
L 225.903882 113.306947 
L 228.019449 231.958698 
L 228.724638 258.598589 
L 229.287889 270.369658 
L 229.485716 272.255802 
L 229.689099 272.932726 
L 229.872942 272.436954 
L 230.165505 269.493905 
L 230.639078 259.314255 
L 231.344267 233.098179 
L 232.754645 155.588137 
L 234.165023 79.668602 
L 235.144394 49.363358 
L 235.553693 44.772906 
L 235.833568 44.613023 
L 236.090436 46.606066 
L 236.507206 54.090191 
L 237.173154 76.050062 
L 237.878344 110.002808 
L 239.993911 229.141113 
L 240.6991 256.790672 
L 241.30595 270.149471 
L 241.686429 272.904134 
L 241.894082 272.512114 
L 242.177829 269.818684 
L 242.637423 260.337289 
L 243.342612 234.753757 
L 244.75299 157.788154 
L 246.163368 81.273234 
L 247.157931 49.748225 
L 247.56933 44.875337 
L 247.821601 44.469064 
L 248.048856 45.796918 
L 248.418128 51.321308 
L 249.011636 68.389354 
L 249.716825 99.657302 
L 252.537582 250.269518 
L 253.284663 269.361413 
L 253.465877 271.544179 
L 253.68628 272.837087 
L 253.916149 272.576762 
L 254.191655 270.107789 
L 254.638152 261.260079 
L 255.343341 236.276793 
L 256.04853 200.891475 
L 258.164097 82.80012 
L 258.869286 57.124474 
L 259.391859 46.750443 
L 259.592918 44.941828 
L 259.811147 44.395737 
L 260.00971 45.186315 
L 260.3327 49.065812 
L 260.85423 61.810149 
L 261.559419 90.129868 
L 262.969797 169.294583 
L 263.674986 209.530367 
L 264.380175 242.948525 
L 265.262548 268.463308 
L 265.669065 272.666047 
L 265.931834 272.662838 
L 266.195095 270.511514 
L 266.622077 262.570714 
L 267.303388 239.507982 
L 268.008577 205.025525 
L 270.124144 86.212133 
L 270.829333 59.260286 
L 271.405941 47.012718 
L 271.602496 45.103179 
L 271.800821 44.387327 
L 271.991936 44.85551 
L 272.281808 47.72132 
L 272.751117 57.685616 
L 273.456306 83.709665 
L 274.866684 161.056586 
L 276.277063 237.160822 
L 277.259481 267.808693 
L 277.669564 272.505744 
L 277.924691 272.808697 
L 278.161376 271.281188 
L 278.545805 265.16101 
L 279.162599 246.577566 
L 279.867788 214.414085 
L 281.983356 94.62744 
L 282.688545 64.853381 
L 283.390984 47.689561 
L 283.575307 45.580814 
L 283.804041 44.420076 
L 284.015264 44.793208 
L 284.297688 47.450024 
L 284.755181 56.828435 
L 285.46037 82.316179 
L 286.870748 159.197577 
L 288.281127 235.799438 
L 289.279154 267.53033 
L 289.690757 272.430341 
L 289.916564 272.900134 
L 290.126025 271.917947 
L 290.466622 267.443845 
L 291.015681 253.11161 
L 291.72087 223.633353 
L 294.541626 71.474004 
L 295.372744 48.494474 
L 295.77731 44.574089 
L 296.027427 44.684966 
L 296.295404 46.956379 
L 296.729909 55.241495 
L 297.422485 79.126875 
L 298.127674 113.988487 
L 300.243241 232.525995 
L 300.94843 258.956038 
L 301.502752 270.413439 
L 301.701306 272.282939 
L 301.883236 272.925274 
L 302.077903 272.471878 
L 302.36646 269.643476 
L 302.833684 259.783707 
L 303.538874 233.853829 
L 304.949252 156.587597 
L 306.35963 80.394053 
L 307.343541 49.578413 
L 307.754012 44.829188 
L 308.00829 44.495237 
L 308.242169 45.962157 
L 308.622092 51.902283 
L 309.231978 70.030444 
L 309.937168 101.931399 
L 312.052735 221.762088 
L 312.757924 251.821447 
L 313.473649 269.549082 
L 313.656648 271.676595 
L 313.883784 272.882243 
L 314.100236 272.53835 
L 314.380721 269.934787 
L 314.835134 260.706426 
L 315.540323 235.359448 
L 316.950702 158.602617 
L 318.36108 81.874496 
L 319.364182 49.840969 
L 319.776088 44.901144 
L 319.999772 44.409329 
L 320.20618 45.336299 
L 320.541848 49.64007 
L 321.083218 63.520449 
L 321.788407 92.678853 
L 324.609163 245.045211 
L 325.454659 268.723436 
L 325.85976 272.722105 
L 326.1134 272.64011 
L 326.380065 270.402405 
L 326.812477 262.213748 
L 327.501924 238.558071 
L 328.207113 203.800992 
L 330.32268 85.183632 
L 331.027869 58.607767 
L 331.588391 46.932981 
L 331.786458 45.051791 
L 331.968839 44.392613 
L 332.165055 44.839294 
L 332.453038 47.651454 
L 332.919354 57.465795 
L 333.624543 83.354545 
L 335.034921 160.585396 
L 336.4453 236.817683 
L 337.429862 267.706541 
L 337.840503 272.478532 
L 338.094411 272.825918 
L 338.327068 271.385079 
L 338.705027 265.522652 
L 339.311899 247.591675 
L 340.017088 215.806126 
L 342.132655 95.959805 
L 342.837844 65.776958 
L 343.559356 47.801091 
L 343.741776 45.665543 
L 343.968213 44.440508 
L 344.18695 44.771037 
L 344.466588 47.351467 
L 344.919654 56.514551 
L 345.624843 81.799837 
L 347.035222 158.501771 
L 348.4456 235.284664 
L 349.150789 260.661001 
L 349.660913 270.623848 
L 349.862959 272.408106 
L 350.085715 272.909392 
L 350.290788 272.006191 
L 350.6243 267.775987 
L 351.162301 254.091503 
L 351.86749 225.074121 
L 354.688247 72.622682 
L 355.540026 48.636085 
L 355.945363 44.602989 
L 356.200549 44.672044 
L 356.466638 46.895026 
L 356.898132 55.041504 
L 357.586203 78.596555 
L 358.291392 113.307517 
L 360.40696 231.959175 
L 361.112149 258.59889 
L 361.675392 270.369694 
L 361.87322 272.255826 
L 362.076605 272.932727 
L 362.260445 272.436941 
L 362.553009 269.493848 
L 363.026584 259.314077 
L 363.731773 233.097894 
L 365.142152 155.587762 
L 366.55253 79.668331 
L 367.531899 49.363278 
L 367.941197 44.772886 
L 368.22107 44.613028 
L 368.477939 46.606095 
L 368.89471 54.09029 
L 369.560661 76.050327 
L 370.26585 110.003155 
L 372.381417 229.141415 
L 373.086606 256.790869 
L 373.693452 270.149495 
L 374.073933 272.904139 
L 374.281583 272.512107 
L 374.565331 269.81865 
L 375.024927 260.337182 
L 375.730116 234.753582 
L 377.140494 157.78792 
L 378.550872 81.273062 
L 379.545432 49.748199 
L 379.956831 44.875329 
L 380.209103 44.469068 
L 380.436359 45.796943 
L 380.805632 51.321397 
L 381.399143 68.389605 
L 382.104332 99.657653 
L 384.925089 250.269762 
L 385.672165 269.361443 
L 385.853378 271.544193 
L 386.073782 272.837092 
L 386.303649 272.576759 
L 386.579156 270.107774 
L 387.025653 261.260032 
L 387.730843 236.276714 
L 388.436032 200.891375 
L 390.551599 82.80004 
L 391.256788 57.124425 
L 391.779359 46.750437 
L 391.980419 44.941824 
L 392.198648 44.395738 
L 392.397212 45.186328 
L 392.720203 49.06586 
L 393.241734 61.810293 
L 393.946923 90.130085 
L 395.357302 169.294854 
L 396.062491 209.53061 
L 396.76768 242.948709 
L 397.650049 268.463331 
L 398.056566 272.666053 
L 398.319334 272.662837 
L 398.582596 270.511505 
L 399.009578 262.570683 
L 399.69089 239.5079 
L 400.396079 205.025419 
L 402.511646 86.212043 
L 403.216835 59.260228 
L 403.793441 47.012711 
L 403.989997 45.103174 
L 404.188322 44.387326 
L 404.379437 44.855512 
L 404.669309 47.721331 
L 405.138618 57.685649 
L 405.843807 83.709718 
L 407.254186 161.056656 
L 408.664564 237.160873 
L 409.646981 267.808708 
L 410.057065 272.505748 
L 410.312192 272.808694 
L 410.548877 271.281172 
L 410.933308 265.160955 
L 411.550103 246.577414 
L 412.255292 214.413876 
L 414.37086 94.627242 
L 415.076049 64.853245 
L 415.778485 47.689545 
L 415.962808 45.580801 
L 416.191543 44.420073 
L 416.402764 44.793211 
L 416.685189 47.450038 
L 417.142683 56.828482 
L 417.847872 82.316256 
L 419.25825 159.197681 
L 420.668628 235.799515 
L 421.666654 267.530342 
L 422.078258 272.430345 
L 422.304065 272.900132 
L 422.513527 271.917934 
L 422.854124 267.443795 
L 423.403185 253.111463 
L 424.108374 223.633137 
L 426.92913 71.473835 
L 427.760246 48.494453 
L 428.164811 44.574085 
L 428.414927 44.684968 
L 428.682905 46.956388 
L 429.11741 55.241524 
L 429.809987 79.126954 
L 430.515176 113.988588 
L 432.630743 232.526079 
L 433.335932 258.956091 
L 433.890252 270.413445 
L 434.088807 272.282943 
L 434.270737 272.925275 
L 434.465403 272.471875 
L 434.75396 269.643465 
L 435.221186 259.783671 
L 435.926375 233.853771 
L 437.336753 156.58752 
L 438.747131 80.393997 
L 439.731042 49.578397 
L 440.141513 44.829184 
L 440.395791 44.49524 
L 440.62967 45.962173 
L 441.009594 51.902341 
L 441.619483 70.030608 
L 442.324672 101.931624 
L 444.440239 221.762304 
L 445.145428 251.821598 
L 445.86115 269.5491 
L 446.044149 271.676609 
L 446.271286 272.882247 
L 446.487736 272.538346 
L 446.768222 269.934771 
L 447.222636 260.706375 
L 447.927825 235.359364 
L 449.338203 158.602504 
L 450.748582 81.874413 
L 451.751683 49.840956 
L 452.163589 44.90114 
L 452.387273 44.409331 
L 452.593682 45.336313 
L 452.929351 49.640123 
L 453.470722 63.520607 
L 454.175911 92.679086 
L 456.996668 245.045398 
L 457.842161 268.72346 
L 458.247261 272.72211 
L 458.500901 272.640108 
L 458.767566 270.402395 
L 459.199979 262.213716 
L 459.889426 238.557985 
L 460.594615 203.800881 
L 462.710182 85.18354 
L 463.415371 58.607709 
L 463.975891 46.932974 
L 464.173959 45.051787 
L 464.356339 44.392613 
L 464.552555 44.839294 
L 464.840538 47.651454 
L 465.306854 57.465793 
L 466.012043 83.354542 
L 467.422421 160.585391 
L 468.8328 236.81768 
L 469.817362 267.70654 
L 470.228003 272.478532 
L 470.481911 272.825919 
L 470.714567 271.38508 
L 471.092526 265.522655 
L 471.699398 247.591685 
L 472.404588 215.80614 
L 474.520155 95.959818 
L 475.225344 65.776967 
L 475.946856 47.801092 
L 476.129276 45.665543 
L 476.355713 44.440509 
L 476.57445 44.771037 
L 476.854088 47.351466 
L 477.307154 56.514548 
L 478.012343 81.799832 
L 479.422722 158.501764 
L 480.8331 235.284659 
L 481.538289 260.660998 
L 482.048413 270.623848 
L 482.250459 272.408106 
L 482.473215 272.909392 
L 482.678288 272.006192 
L 483.0118 267.77599 
L 483.549801 254.091513 
L 484.25499 225.074135 
L 487.075746 72.622694 
L 487.927525 48.636086 
L 488.332863 44.602989 
L 488.588049 44.672044 
L 488.854138 46.895026 
L 489.285632 55.041502 
L 489.973703 78.59655 
L 490.678892 113.307511 
L 492.794459 231.959169 
L 493.499648 258.598887 
L 494.062892 270.369694 
L 494.260719 272.255825 
L 494.464105 272.932727 
L 494.647945 272.436941 
L 494.940509 269.493848 
L 495.414084 259.314079 
L 496.119273 233.097897 
L 497.529651 155.587766 
L 498.94003 79.668334 
L 499.919399 49.363279 
L 500.328697 44.772886 
L 500.60857 44.613028 
L 500.865439 46.606095 
L 501.28221 54.090289 
L 501.948161 76.050324 
L 502.65335 110.003151 
L 504.768917 229.141411 
L 505.474106 256.790867 
L 506.080952 270.149494 
L 506.461433 272.904139 
L 506.669083 272.512107 
L 506.952831 269.818651 
L 507.412427 260.337183 
L 508.117616 234.753584 
L 509.527994 157.787923 
L 510.938372 81.273064 
L 511.932932 49.748199 
L 512.344331 44.875329 
L 512.596603 44.469067 
L 512.823859 45.796942 
L 513.193132 51.321396 
L 513.786643 68.389602 
L 514.491832 99.657649 
L 517.312588 250.26976 
L 518.059665 269.361443 
L 518.240878 271.544193 
L 518.461282 272.837092 
L 518.691149 272.576759 
L 518.966656 270.107775 
L 519.413153 261.260032 
L 520.118343 236.276715 
L 520.823532 200.891376 
L 522.939099 82.800041 
L 523.644288 57.124426 
L 524.166859 46.750437 
L 524.367919 44.941824 
L 524.586148 44.395738 
L 524.784712 45.186328 
L 525.107703 49.06586 
L 525.629234 61.810291 
L 526.334423 90.130083 
L 527.744802 169.29485 
L 528.449991 209.530607 
L 529.15518 242.948707 
L 530.037549 268.463331 
L 530.444066 272.666053 
L 530.706834 272.662837 
L 530.970095 270.511505 
L 531.397078 262.570684 
L 532.07839 239.507901 
L 532.783579 205.02542 
L 534.899146 86.212044 
L 535.604335 59.260229 
L 536.180941 47.012711 
L 536.377497 45.103175 
L 536.575822 44.387326 
L 536.766937 44.855512 
L 537.056809 47.721331 
L 537.526118 57.685648 
L 538.231307 83.709717 
L 539.641686 161.056655 
L 541.052064 237.160872 
L 542.034481 267.808708 
L 542.444565 272.505748 
L 542.699692 272.808694 
L 542.936377 271.281172 
L 543.320808 265.160956 
L 543.937603 246.577416 
L 544.642792 214.413879 
L 546.75836 94.627244 
L 547.463549 64.853246 
L 548.165985 47.689545 
L 548.350308 45.580801 
L 548.579043 44.420073 
L 548.790264 44.793211 
L 549.072689 47.450038 
L 549.530183 56.828482 
L 550.235372 82.316255 
L 551.64575 159.19768 
L 553.056128 235.799514 
L 554.054154 267.530342 
L 554.465758 272.430345 
L 554.691565 272.900132 
L 554.901027 271.917934 
L 555.241624 267.443796 
L 555.790685 253.111464 
L 556.495874 223.63314 
L 559.31663 71.473837 
L 560.147746 48.494454 
L 560.552311 44.574085 
L 560.802427 44.684968 
L 561.070404 46.956388 
L 561.50491 55.241524 
L 562.197487 79.126953 
L 562.902676 113.988586 
L 565.018243 232.526078 
L 565.723432 258.95609 
L 566.277752 270.413445 
L 566.476307 272.282943 
L 566.658237 272.925275 
L 566.852903 272.471875 
L 567.14146 269.643465 
L 567.608686 259.783672 
L 568.313875 233.853772 
L 569.724253 156.587521 
L 571.134631 80.393998 
L 572.118542 49.578397 
L 572.529013 44.829184 
L 572.783291 44.49524 
L 573.01717 45.962173 
L 573.397094 51.902341 
L 574.006983 70.030606 
L 574.712172 101.931621 
L 576.827739 221.762302 
L 577.532928 251.821596 
L 578.24865 269.5491 
L 578.431649 271.676609 
L 578.658786 272.882247 
L 578.875236 272.538346 
L 579.155722 269.934772 
L 579.610136 260.706375 
L 580.315325 235.359365 
L 581.725703 158.602505 
L 583.136082 81.874414 
L 584.139183 49.840956 
L 584.551089 44.90114 
L 584.774773 44.409331 
L 584.981182 45.336313 
L 585.316851 49.640122 
L 585.858222 63.520605 
L 586.563411 92.679084 
L 589.384168 245.045395 
L 590.229661 268.723459 
L 590.634761 272.72211 
L 590.888401 272.640108 
L 591.155066 270.402395 
L 591.587479 262.213716 
L 592.276926 238.557986 
L 592.982115 203.800883 
L 595.097682 85.183541 
L 595.802871 58.60771 
L 596.363391 46.932974 
L 596.561459 45.051787 
L 596.743839 44.392613 
L 596.940055 44.839294 
L 597.228038 47.651454 
L 597.694354 57.465793 
L 598.399543 83.354542 
L 599.809921 160.585391 
L 601.2203 236.81768 
L 602.204862 267.70654 
L 602.615503 272.478532 
L 602.869411 272.825919 
L 603.102067 271.38508 
L 603.480026 265.522655 
L 604.086899 247.591685 
L 604.792088 215.806139 
L 606.907655 95.959818 
L 607.612844 65.776967 
L 608.334356 47.801092 
L 608.516776 45.665543 
L 608.743213 44.440509 
L 608.96195 44.771037 
L 609.241588 47.351466 
L 609.694654 56.514548 
L 610.399843 81.799832 
L 611.810222 158.501764 
L 613.2206 235.284659 
L 613.925789 260.660998 
L 614.435913 270.623848 
L 614.637959 272.408106 
L 614.860715 272.909392 
L 615.065788 272.006192 
L 615.3993 267.77599 
L 615.937301 254.091513 
L 616.64249 225.074135 
L 619.463246 72.622693 
L 620.315025 48.636086 
L 620.720363 44.602989 
L 620.975549 44.672044 
L 621.241638 46.895026 
L 621.673132 55.041502 
L 622.361203 78.59655 
L 623.066392 113.307511 
L 625.181959 231.959169 
L 625.887148 258.598887 
L 626.450392 270.369694 
L 626.648219 272.255825 
L 626.851605 272.932727 
L 627.035445 272.436941 
L 627.328009 269.493848 
L 627.801584 259.314079 
L 628.506773 233.097897 
L 629.917151 155.587766 
L 631.32753 79.668334 
L 632.306899 49.363279 
L 632.716197 44.772886 
L 632.99607 44.613028 
L 633.252939 46.606095 
L 633.66971 54.090289 
L 634.335661 76.050324 
L 635.04085 110.003151 
L 637.156417 229.141411 
L 637.861606 256.790867 
L 638.468452 270.149494 
L 638.848933 272.904139 
L 639.056583 272.512107 
L 639.340331 269.818651 
L 639.799927 260.337183 
L 640.505116 234.753584 
L 641.915494 157.787923 
L 643.325872 81.273064 
L 644.320432 49.748199 
L 644.731831 44.875329 
L 644.984103 44.469067 
L 645.211359 45.796942 
L 645.580632 51.321396 
L 646.174143 68.389602 
L 646.879332 99.657649 
L 649.700088 250.26976 
L 650.447165 269.361443 
L 650.628378 271.544193 
L 650.848782 272.837092 
L 651.078649 272.576759 
L 651.354156 270.107775 
L 651.800653 261.260032 
L 652.505843 236.276715 
L 653.211032 200.891376 
L 655.326599 82.800041 
L 656.031788 57.124426 
L 656.554359 46.750437 
L 656.755419 44.941824 
L 656.973648 44.395738 
L 657.172212 45.186328 
L 657.495203 49.06586 
L 658.016734 61.810291 
L 658.721923 90.130083 
L 660.132302 169.29485 
L 660.837491 209.530607 
L 661.54268 242.948707 
L 662.425049 268.463331 
L 662.831566 272.666053 
L 663.094334 272.662837 
L 663.357595 270.511505 
L 663.784578 262.570684 
L 664.46589 239.507901 
L 665.171079 205.02542 
L 667.286646 86.212044 
L 667.991835 59.260229 
L 668.568441 47.012711 
L 668.764997 45.103175 
L 668.963322 44.387326 
L 669.154437 44.855512 
L 669.444309 47.721331 
L 669.913618 57.685648 
L 670.618807 83.709717 
L 672.029186 161.056655 
L 673.439564 237.160872 
L 674.421981 267.808708 
L 674.832065 272.505748 
L 675.087192 272.808694 
L 675.323877 271.281172 
L 675.708308 265.160956 
L 676.325103 246.577416 
L 677.030292 214.413879 
L 679.14586 94.627244 
L 679.851049 64.853246 
L 680.553485 47.689545 
L 680.737808 45.580801 
L 680.966543 44.420073 
L 681.177764 44.793211 
L 681.460189 47.450038 
L 681.917683 56.828482 
L 682.622872 82.316256 
L 684.03325 159.19768 
L 685.443628 235.799514 
L 686.441654 267.530342 
L 686.853258 272.430345 
L 687.079065 272.900132 
L 687.288527 271.917934 
L 687.629124 267.443796 
L 688.178185 253.111464 
L 688.883374 223.63314 
L 691.70413 71.473837 
L 692.535246 48.494454 
L 692.939811 44.574085 
L 693.189927 44.684968 
L 693.457904 46.956388 
L 693.89241 55.241524 
L 694.584987 79.126953 
L 695.290176 113.988586 
L 697.405743 232.526078 
L 698.110932 258.95609 
L 698.665252 270.413445 
L 698.863807 272.282943 
L 699.045737 272.925275 
L 699.240403 272.471875 
L 699.52896 269.643465 
L 699.996186 259.783672 
L 700.701375 233.853772 
L 702.111753 156.587521 
L 703.522131 80.393998 
L 704.506042 49.578397 
L 704.916513 44.829184 
L 705.170791 44.49524 
L 705.40467 45.962173 
L 705.784594 51.902341 
L 706.394483 70.030606 
L 707.099672 101.931621 
L 709.215239 221.762302 
L 709.920428 251.821596 
L 710.63615 269.5491 
L 710.819149 271.676609 
L 711.046286 272.882247 
L 711.262736 272.538346 
L 711.543222 269.934772 
L 711.997636 260.706375 
L 712.702825 235.359365 
L 714.113203 158.602505 
L 715.523582 81.874414 
L 716.526683 49.840956 
L 716.938589 44.90114 
L 717.162273 44.409331 
L 717.368682 45.336313 
L 717.704351 49.640122 
L 718.245722 63.520605 
L 718.950911 92.679084 
L 721.771668 245.045395 
L 722.617161 268.723459 
L 723.022261 272.72211 
L 723.275901 272.640108 
L 723.542566 270.402395 
L 723.974979 262.213716 
L 724.664426 238.557986 
L 725.369615 203.800883 
L 727.485182 85.183541 
L 728.190371 58.60771 
L 728.750891 46.932974 
L 728.948959 45.051787 
L 729.131339 44.392613 
L 729.327555 44.839294 
L 729.615538 47.651454 
L 730.081854 57.465793 
L 730.787043 83.354542 
L 732.197421 160.585391 
L 733.6078 236.81768 
L 734.592362 267.70654 
L 735.003003 272.478532 
L 735.256911 272.825919 
L 735.489567 271.38508 
L 735.867526 265.522655 
L 736.474399 247.591685 
L 737.179588 215.806139 
L 739.295155 95.959818 
L 740.000344 65.776967 
L 740.721856 47.801092 
L 740.904276 45.665543 
L 741.130713 44.440509 
L 741.34945 44.771037 
L 741.629088 47.351466 
L 742.082154 56.514548 
L 742.787343 81.799832 
L 744.197722 158.501764 
L 745.6081 235.284659 
L 746.313289 260.660998 
L 746.823413 270.623848 
L 747.025459 272.408106 
L 747.248215 272.909392 
L 747.453288 272.006192 
L 747.7868 267.77599 
L 748.324801 254.091513 
L 749.02999 225.074135 
L 751.850746 72.622693 
L 752.702525 48.636086 
L 753.107863 44.602989 
L 753.363049 44.672044 
L 753.629138 46.895026 
L 754.060632 55.041502 
L 754.748703 78.59655 
L 755.453892 113.307511 
L 757.569459 231.959169 
L 758.274648 258.598887 
L 758.837892 270.369694 
L 759.035719 272.255825 
L 759.239105 272.932727 
L 759.422945 272.436941 
L 759.715509 269.493848 
L 760.189084 259.314079 
L 760.894273 233.097897 
L 762.304651 155.587766 
L 763.71503 79.668334 
L 764.694399 49.363279 
L 765.103697 44.772886 
L 765.38357 44.613028 
L 765.640439 46.606095 
L 766.05721 54.090289 
L 766.723161 76.050324 
L 767.42835 110.003151 
L 769.543917 229.141411 
L 770.249106 256.790867 
L 770.855952 270.149494 
L 771.236433 272.904139 
L 771.444083 272.512107 
L 771.727831 269.818651 
L 772.187427 260.337183 
L 772.892616 234.753584 
L 774.302994 157.787923 
L 775.713372 81.273064 
L 776.707932 49.748199 
L 777.119331 44.875329 
L 777.371603 44.469067 
L 777.598859 45.796942 
L 777.968132 51.321396 
L 778.561643 68.389602 
L 779.266832 99.657649 
L 782.087588 250.26976 
L 782.834665 269.361443 
L 783.015878 271.544193 
L 783.236282 272.837092 
L 783.466149 272.576759 
L 783.741656 270.107775 
L 784.188153 261.260032 
L 784.893343 236.276715 
L 785.598532 200.891376 
L 787.714099 82.800041 
L 788.419288 57.124426 
L 788.941859 46.750437 
L 789.142919 44.941824 
L 789.361148 44.395738 
L 789.559712 45.186328 
L 789.882703 49.06586 
L 790.404234 61.810291 
L 791.109423 90.130083 
L 792.519802 169.29485 
L 793.224991 209.530607 
L 793.93018 242.948707 
L 794.812549 268.463331 
L 795.219066 272.666053 
L 795.481834 272.662837 
L 795.745095 270.511505 
L 796.172078 262.570684 
L 796.85339 239.507901 
L 797.558579 205.02542 
L 799.674146 86.212044 
L 800.379335 59.260229 
L 800.955941 47.012711 
L 801.152497 45.103175 
L 801.350822 44.387326 
L 801.541937 44.855512 
L 801.831809 47.721331 
L 802.301118 57.685648 
L 803.006307 83.709717 
L 804.416686 161.056655 
L 805.827064 237.160872 
L 806.809481 267.808708 
L 807.219565 272.505748 
L 807.474692 272.808694 
L 807.711377 271.281172 
L 808.095808 265.160956 
L 808.712603 246.577416 
L 809.417792 214.413879 
L 811.53336 94.627244 
L 812.238549 64.853246 
L 812.940985 47.689545 
L 813.125308 45.580801 
L 813.354043 44.420073 
L 813.565264 44.793211 
L 813.847689 47.450038 
L 814.305183 56.828482 
L 815.010372 82.316256 
L 816.42075 159.19768 
L 817.831128 235.799514 
L 818.829154 267.530342 
L 819.240758 272.430345 
L 819.466565 272.900132 
L 819.676027 271.917934 
L 820.016624 267.443796 
L 820.565685 253.111464 
L 821.270874 223.63314 
L 822.429318 158.658033 
L 822.429318 158.658033 
" style="fill:none;stroke:#2ca02c;stroke-linecap:square;stroke-width:1.5;"/>
   </g>
   <g id="patch_3">
    <path d="M 64.21 284.36 
L 64.21 32.96 
" style="fill:none;stroke:#000000;stroke-linecap:square;stroke-linejoin:miter;stroke-width:0.8;"/>
   </g>
   <g id="patch_4">
    <path d="M 858.535 284.36 
L 858.535 32.96 
" style="fill:none;stroke:#000000;stroke-linecap:square;stroke-linejoin:miter;stroke-width:0.8;"/>
   </g>
   <g id="patch_5">
    <path d="M 64.21 284.36 
L 858.535 284.36 
" style="fill:none;stroke:#000000;stroke-linecap:square;stroke-linejoin:miter;stroke-width:0.8;"/>
   </g>
   <g id="patch_6">
    <path d="M 64.21 32.96 
L 858.535 32.96 
" style="fill:none;stroke:#000000;stroke-linecap:square;stroke-linejoin:miter;stroke-width:0.8;"/>
   </g>
   <g id="text_14">
    <!-- Circuito Corriente Alterna - ($\mathrm{10v}$) - VAC:$\mathrm{120v}$-$\mathrm{60Hz}$ R:$\mathrm{10k\Omega}$ - Tensión VS Intensidad - All data - (LTspice) -->
    <g transform="translate(89.4205 26.96)scale(0.144 -0.144)">
     <defs>
      <path d="M 64.40625 67.28125 
L 64.40625 56.890625 
Q 59.421875 61.53125 53.78125 63.8125 
Q 48.140625 66.109375 41.796875 66.109375 
Q 29.296875 66.109375 22.65625 58.46875 
Q 16.015625 50.828125 16.015625 36.375 
Q 16.015625 21.96875 22.65625 14.328125 
Q 29.296875 6.6875 41.796875 6.6875 
Q 48.140625 6.6875 53.78125 8.984375 
Q 59.421875 11.28125 64.40625 15.921875 
L 64.40625 5.609375 
Q 59.234375 2.09375 53.4375 0.328125 
Q 47.65625 -1.421875 41.21875 -1.421875 
Q 24.65625 -1.421875 15.125 8.703125 
Q 5.609375 18.84375 5.609375 36.375 
Q 5.609375 53.953125 15.125 64.078125 
Q 24.65625 74.21875 41.21875 74.21875 
Q 47.75 74.21875 53.53125 72.484375 
Q 59.328125 70.75 64.40625 67.28125 
z
" id="DejaVuSans-67"/>
      <path d="M 41.109375 46.296875 
Q 39.59375 47.171875 37.8125 47.578125 
Q 36.03125 48 33.890625 48 
Q 26.265625 48 22.1875 43.046875 
Q 18.109375 38.09375 18.109375 28.8125 
L 18.109375 0 
L 9.078125 0 
L 9.078125 54.6875 
L 18.109375 54.6875 
L 18.109375 46.1875 
Q 20.953125 51.171875 25.484375 53.578125 
Q 30.03125 56 36.53125 56 
Q 37.453125 56 38.578125 55.875 
Q 39.703125 55.765625 41.0625 55.515625 
z
" id="DejaVuSans-114"/>
      <path d="M 48.78125 52.59375 
L 48.78125 44.1875 
Q 44.96875 46.296875 41.140625 47.34375 
Q 37.3125 48.390625 33.40625 48.390625 
Q 24.65625 48.390625 19.8125 42.84375 
Q 14.984375 37.3125 14.984375 27.296875 
Q 14.984375 17.28125 19.8125 11.734375 
Q 24.65625 6.203125 33.40625 6.203125 
Q 37.3125 6.203125 41.140625 7.25 
Q 44.96875 8.296875 48.78125 10.40625 
L 48.78125 2.09375 
Q 45.015625 0.34375 40.984375 -0.53125 
Q 36.96875 -1.421875 32.421875 -1.421875 
Q 20.0625 -1.421875 12.78125 6.34375 
Q 5.515625 14.109375 5.515625 27.296875 
Q 5.515625 40.671875 12.859375 48.328125 
Q 20.21875 56 33.015625 56 
Q 37.15625 56 41.109375 55.140625 
Q 45.0625 54.296875 48.78125 52.59375 
z
" id="DejaVuSans-99"/>
      <path d="M 8.5 21.578125 
L 8.5 54.6875 
L 17.484375 54.6875 
L 17.484375 21.921875 
Q 17.484375 14.15625 20.5 10.265625 
Q 23.53125 6.390625 29.59375 6.390625 
Q 36.859375 6.390625 41.078125 11.03125 
Q 45.3125 15.671875 45.3125 23.6875 
L 45.3125 54.6875 
L 54.296875 54.6875 
L 54.296875 0 
L 45.3125 0 
L 45.3125 8.40625 
Q 42.046875 3.421875 37.71875 1 
Q 33.40625 -1.421875 27.6875 -1.421875 
Q 18.265625 -1.421875 13.375 4.4375 
Q 8.5 10.296875 8.5 21.578125 
z
M 31.109375 56 
z
" id="DejaVuSans-117"/>
      <path d="M 54.890625 33.015625 
L 54.890625 0 
L 45.90625 0 
L 45.90625 32.71875 
Q 45.90625 40.484375 42.875 44.328125 
Q 39.84375 48.1875 33.796875 48.1875 
Q 26.515625 48.1875 22.3125 43.546875 
Q 18.109375 38.921875 18.109375 30.90625 
L 18.109375 0 
L 9.078125 0 
L 9.078125 54.6875 
L 18.109375 54.6875 
L 18.109375 46.1875 
Q 21.34375 51.125 25.703125 53.5625 
Q 30.078125 56 35.796875 56 
Q 45.21875 56 50.046875 50.171875 
Q 54.890625 44.34375 54.890625 33.015625 
z
" id="DejaVuSans-110"/>
      <path d="M 34.1875 63.1875 
L 20.796875 26.90625 
L 47.609375 26.90625 
z
M 28.609375 72.90625 
L 39.796875 72.90625 
L 67.578125 0 
L 57.328125 0 
L 50.6875 18.703125 
L 17.828125 18.703125 
L 11.1875 0 
L 0.78125 0 
z
" id="DejaVuSans-65"/>
      <path d="M 4.890625 31.390625 
L 31.203125 31.390625 
L 31.203125 23.390625 
L 4.890625 23.390625 
z
" id="DejaVuSans-45"/>
      <path d="M 2.984375 54.6875 
L 12.5 54.6875 
L 29.59375 8.796875 
L 46.6875 54.6875 
L 56.203125 54.6875 
L 35.6875 0 
L 23.484375 0 
z
" id="DejaVuSans-118"/>
      <path d="M 11.71875 12.40625 
L 22.015625 12.40625 
L 22.015625 0 
L 11.71875 0 
z
M 11.71875 51.703125 
L 22.015625 51.703125 
L 22.015625 39.3125 
L 11.71875 39.3125 
z
" id="DejaVuSans-58"/>
      <path d="M 9.8125 72.90625 
L 19.671875 72.90625 
L 19.671875 43.015625 
L 55.515625 43.015625 
L 55.515625 72.90625 
L 65.375 72.90625 
L 65.375 0 
L 55.515625 0 
L 55.515625 34.71875 
L 19.671875 34.71875 
L 19.671875 0 
L 9.8125 0 
z
" id="DejaVuSans-72"/>
      <path d="M 5.515625 54.6875 
L 48.1875 54.6875 
L 48.1875 46.484375 
L 14.40625 7.171875 
L 48.1875 7.171875 
L 48.1875 0 
L 4.296875 0 
L 4.296875 8.203125 
L 38.09375 47.515625 
L 5.515625 47.515625 
z
" id="DejaVuSans-122"/>
      <path d="M 44.390625 34.1875 
Q 47.5625 33.109375 50.5625 29.59375 
Q 53.5625 26.078125 56.59375 19.921875 
L 66.609375 0 
L 56 0 
L 46.6875 18.703125 
Q 43.0625 26.03125 39.671875 28.421875 
Q 36.28125 30.8125 30.421875 30.8125 
L 19.671875 30.8125 
L 19.671875 0 
L 9.8125 0 
L 9.8125 72.90625 
L 32.078125 72.90625 
Q 44.578125 72.90625 50.734375 67.671875 
Q 56.890625 62.453125 56.890625 51.90625 
Q 56.890625 45.015625 53.6875 40.46875 
Q 50.484375 35.9375 44.390625 34.1875 
z
M 19.671875 64.796875 
L 19.671875 38.921875 
L 32.078125 38.921875 
Q 39.203125 38.921875 42.84375 42.21875 
Q 46.484375 45.515625 46.484375 51.90625 
Q 46.484375 58.296875 42.84375 61.546875 
Q 39.203125 64.796875 32.078125 64.796875 
z
" id="DejaVuSans-82"/>
      <path d="M 9.078125 75.984375 
L 18.109375 75.984375 
L 18.109375 31.109375 
L 44.921875 54.6875 
L 56.390625 54.6875 
L 27.390625 29.109375 
L 57.625 0 
L 45.90625 0 
L 18.109375 26.703125 
L 18.109375 0 
L 9.078125 0 
z
" id="DejaVuSans-107"/>
      <path d="M 72.609375 8.6875 
L 72.609375 0 
L 43.3125 0 
L 43.3125 8.6875 
Q 51.953125 13.421875 56.78125 21.53125 
Q 61.625 29.640625 61.625 39.5 
Q 61.625 51.21875 55.171875 58.296875 
Q 48.734375 65.375 38.1875 65.375 
Q 27.640625 65.375 21.171875 58.265625 
Q 14.703125 51.171875 14.703125 39.5 
Q 14.703125 29.640625 19.53125 21.53125 
Q 24.421875 13.421875 33.109375 8.6875 
L 33.109375 0 
L 3.8125 0 
L 3.8125 8.6875 
L 19.390625 8.6875 
Q 11.671875 15.484375 8.109375 22.75 
Q 4.59375 30.03125 4.59375 39.015625 
Q 4.59375 54.546875 13.96875 64.15625 
Q 23.296875 73.78125 38.1875 73.78125 
Q 52.984375 73.78125 62.40625 64.15625 
Q 71.78125 54.59375 71.78125 39.5 
Q 71.78125 30.03125 68.3125 22.796875 
Q 64.84375 15.578125 56.984375 8.6875 
z
" id="DejaVuSans-937"/>
      <path d="M 30.609375 48.390625 
Q 23.390625 48.390625 19.1875 42.75 
Q 14.984375 37.109375 14.984375 27.296875 
Q 14.984375 17.484375 19.15625 11.84375 
Q 23.34375 6.203125 30.609375 6.203125 
Q 37.796875 6.203125 41.984375 11.859375 
Q 46.1875 17.53125 46.1875 27.296875 
Q 46.1875 37.015625 41.984375 42.703125 
Q 37.796875 48.390625 30.609375 48.390625 
z
M 30.609375 56 
Q 42.328125 56 49.015625 48.375 
Q 55.71875 40.765625 55.71875 27.296875 
Q 55.71875 13.875 49.015625 6.21875 
Q 42.328125 -1.421875 30.609375 -1.421875 
Q 18.84375 -1.421875 12.171875 6.21875 
Q 5.515625 13.875 5.515625 27.296875 
Q 5.515625 40.765625 12.171875 48.375 
Q 18.84375 56 30.609375 56 
z
M 37.40625 79.984375 
L 47.125 79.984375 
L 31.203125 61.625 
L 23.734375 61.625 
z
" id="DejaVuSans-243"/>
      <path d="M 53.515625 70.515625 
L 53.515625 60.890625 
Q 47.90625 63.578125 42.921875 64.890625 
Q 37.9375 66.21875 33.296875 66.21875 
Q 25.25 66.21875 20.875 63.09375 
Q 16.5 59.96875 16.5 54.203125 
Q 16.5 49.359375 19.40625 46.890625 
Q 22.3125 44.4375 30.421875 42.921875 
L 36.375 41.703125 
Q 47.40625 39.59375 52.65625 34.296875 
Q 57.90625 29 57.90625 20.125 
Q 57.90625 9.515625 50.796875 4.046875 
Q 43.703125 -1.421875 29.984375 -1.421875 
Q 24.8125 -1.421875 18.96875 -0.25 
Q 13.140625 0.921875 6.890625 3.21875 
L 6.890625 13.375 
Q 12.890625 10.015625 18.65625 8.296875 
Q 24.421875 6.59375 29.984375 6.59375 
Q 38.421875 6.59375 43.015625 9.90625 
Q 47.609375 13.234375 47.609375 19.390625 
Q 47.609375 24.75 44.3125 27.78125 
Q 41.015625 30.8125 33.5 32.328125 
L 27.484375 33.5 
Q 16.453125 35.6875 11.515625 40.375 
Q 6.59375 45.0625 6.59375 53.421875 
Q 6.59375 63.09375 13.40625 68.65625 
Q 20.21875 74.21875 32.171875 74.21875 
Q 37.3125 74.21875 42.625 73.28125 
Q 47.953125 72.359375 53.515625 70.515625 
z
" id="DejaVuSans-83"/>
      <path d="M 9.8125 72.90625 
L 19.671875 72.90625 
L 19.671875 0 
L 9.8125 0 
z
" id="DejaVuSans-73"/>
      <path d="M 45.40625 46.390625 
L 45.40625 75.984375 
L 54.390625 75.984375 
L 54.390625 0 
L 45.40625 0 
L 45.40625 8.203125 
Q 42.578125 3.328125 38.25 0.953125 
Q 33.9375 -1.421875 27.875 -1.421875 
Q 17.96875 -1.421875 11.734375 6.484375 
Q 5.515625 14.40625 5.515625 27.296875 
Q 5.515625 40.1875 11.734375 48.09375 
Q 17.96875 56 27.875 56 
Q 33.9375 56 38.25 53.625 
Q 42.578125 51.265625 45.40625 46.390625 
z
M 14.796875 27.296875 
Q 14.796875 17.390625 18.875 11.75 
Q 22.953125 6.109375 30.078125 6.109375 
Q 37.203125 6.109375 41.296875 11.75 
Q 45.40625 17.390625 45.40625 27.296875 
Q 45.40625 37.203125 41.296875 42.84375 
Q 37.203125 48.484375 30.078125 48.484375 
Q 22.953125 48.484375 18.875 42.84375 
Q 14.796875 37.203125 14.796875 27.296875 
z
" id="DejaVuSans-100"/>
      <path d="M 9.8125 72.90625 
L 19.671875 72.90625 
L 19.671875 8.296875 
L 55.171875 8.296875 
L 55.171875 0 
L 9.8125 0 
z
" id="DejaVuSans-76"/>
     </defs>
     <use transform="translate(0 0.015625)" xlink:href="#DejaVuSans-67"/>
     <use transform="translate(69.824219 0.015625)" xlink:href="#DejaVuSans-105"/>
     <use transform="translate(97.607422 0.015625)" xlink:href="#DejaVuSans-114"/>
     <use transform="translate(138.720703 0.015625)" xlink:href="#DejaVuSans-99"/>
     <use transform="translate(193.701172 0.015625)" xlink:href="#DejaVuSans-117"/>
     <use transform="translate(257.080078 0.015625)" xlink:href="#DejaVuSans-105"/>
     <use transform="translate(284.863281 0.015625)" xlink:href="#DejaVuSans-116"/>
     <use transform="translate(324.072266 0.015625)" xlink:href="#DejaVuSans-111"/>
     <use transform="translate(385.253906 0.015625)" xlink:href="#DejaVuSans-32"/>
     <use transform="translate(417.041016 0.015625)" xlink:href="#DejaVuSans-67"/>
     <use transform="translate(486.865234 0.015625)" xlink:href="#DejaVuSans-111"/>
     <use transform="translate(548.046875 0.015625)" xlink:href="#DejaVuSans-114"/>
     <use transform="translate(589.160156 0.015625)" xlink:href="#DejaVuSans-114"/>
     <use transform="translate(630.273438 0.015625)" xlink:href="#DejaVuSans-105"/>
     <use transform="translate(658.056641 0.015625)" xlink:href="#DejaVuSans-101"/>
     <use transform="translate(719.580078 0.015625)" xlink:href="#DejaVuSans-110"/>
     <use transform="translate(782.958984 0.015625)" xlink:href="#DejaVuSans-116"/>
     <use transform="translate(822.167969 0.015625)" xlink:href="#DejaVuSans-101"/>
     <use transform="translate(883.691406 0.015625)" xlink:href="#DejaVuSans-32"/>
     <use transform="translate(915.478516 0.015625)" xlink:href="#DejaVuSans-65"/>
     <use transform="translate(983.886719 0.015625)" xlink:href="#DejaVuSans-108"/>
     <use transform="translate(1011.669922 0.015625)" xlink:href="#DejaVuSans-116"/>
     <use transform="translate(1050.878906 0.015625)" xlink:href="#DejaVuSans-101"/>
     <use transform="translate(1112.402344 0.015625)" xlink:href="#DejaVuSans-114"/>
     <use transform="translate(1153.515625 0.015625)" xlink:href="#DejaVuSans-110"/>
     <use transform="translate(1216.894531 0.015625)" xlink:href="#DejaVuSans-97"/>
     <use transform="translate(1278.173828 0.015625)" xlink:href="#DejaVuSans-32"/>
     <use transform="translate(1309.960938 0.015625)" xlink:href="#DejaVuSans-45"/>
     <use transform="translate(1346.044922 0.015625)" xlink:href="#DejaVuSans-32"/>
     <use transform="translate(1377.832031 0.015625)" xlink:href="#DejaVuSans-40"/>
     <use transform="translate(1416.845703 0.015625)" xlink:href="#DejaVuSans-49"/>
     <use transform="translate(1480.46875 0.015625)" xlink:href="#DejaVuSans-48"/>
     <use transform="translate(1544.091797 0.015625)" xlink:href="#DejaVuSans-118"/>
     <use transform="translate(1603.271484 0.015625)" xlink:href="#DejaVuSans-41"/>
     <use transform="translate(1642.285156 0.015625)" xlink:href="#DejaVuSans-32"/>
     <use transform="translate(1674.072266 0.015625)" xlink:href="#DejaVuSans-45"/>
     <use transform="translate(1710.15625 0.015625)" xlink:href="#DejaVuSans-32"/>
     <use transform="translate(1741.943359 0.015625)" xlink:href="#DejaVuSans-86"/>
     <use transform="translate(1810.351562 0.015625)" xlink:href="#DejaVuSans-65"/>
     <use transform="translate(1878.759766 0.015625)" xlink:href="#DejaVuSans-67"/>
     <use transform="translate(1948.583984 0.015625)" xlink:href="#DejaVuSans-58"/>
     <use transform="translate(1982.275391 0.015625)" xlink:href="#DejaVuSans-49"/>
     <use transform="translate(2045.898438 0.015625)" xlink:href="#DejaVuSans-50"/>
     <use transform="translate(2109.521484 0.015625)" xlink:href="#DejaVuSans-48"/>
     <use transform="translate(2173.144531 0.015625)" xlink:href="#DejaVuSans-118"/>
     <use transform="translate(2232.324219 0.015625)" xlink:href="#DejaVuSans-45"/>
     <use transform="translate(2268.408203 0.015625)" xlink:href="#DejaVuSans-54"/>
     <use transform="translate(2332.03125 0.015625)" xlink:href="#DejaVuSans-48"/>
     <use transform="translate(2395.654297 0.015625)" xlink:href="#DejaVuSans-72"/>
     <use transform="translate(2470.849609 0.015625)" xlink:href="#DejaVuSans-122"/>
     <use transform="translate(2523.339844 0.015625)" xlink:href="#DejaVuSans-32"/>
     <use transform="translate(2555.126953 0.015625)" xlink:href="#DejaVuSans-82"/>
     <use transform="translate(2624.609375 0.015625)" xlink:href="#DejaVuSans-58"/>
     <use transform="translate(2658.300781 0.015625)" xlink:href="#DejaVuSans-49"/>
     <use transform="translate(2721.923828 0.015625)" xlink:href="#DejaVuSans-48"/>
     <use transform="translate(2785.546875 0.015625)" xlink:href="#DejaVuSans-107"/>
     <use transform="translate(2843.457031 0.015625)" xlink:href="#DejaVuSans-937"/>
     <use transform="translate(2919.873047 0.015625)" xlink:href="#DejaVuSans-32"/>
     <use transform="translate(2951.660156 0.015625)" xlink:href="#DejaVuSans-45"/>
     <use transform="translate(2987.744141 0.015625)" xlink:href="#DejaVuSans-32"/>
     <use transform="translate(3019.53125 0.015625)" xlink:href="#DejaVuSans-84"/>
     <use transform="translate(3080.615234 0.015625)" xlink:href="#DejaVuSans-101"/>
     <use transform="translate(3142.138672 0.015625)" xlink:href="#DejaVuSans-110"/>
     <use transform="translate(3205.517578 0.015625)" xlink:href="#DejaVuSans-115"/>
     <use transform="translate(3257.617188 0.015625)" xlink:href="#DejaVuSans-105"/>
     <use transform="translate(3285.400391 0.015625)" xlink:href="#DejaVuSans-243"/>
     <use transform="translate(3346.582031 0.015625)" xlink:href="#DejaVuSans-110"/>
     <use transform="translate(3409.960938 0.015625)" xlink:href="#DejaVuSans-32"/>
     <use transform="translate(3441.748047 0.015625)" xlink:href="#DejaVuSans-86"/>
     <use transform="translate(3510.15625 0.015625)" xlink:href="#DejaVuSans-83"/>
     <use transform="translate(3573.632812 0.015625)" xlink:href="#DejaVuSans-32"/>
     <use transform="translate(3605.419922 0.015625)" xlink:href="#DejaVuSans-73"/>
     <use transform="translate(3634.912109 0.015625)" xlink:href="#DejaVuSans-110"/>
     <use transform="translate(3698.291016 0.015625)" xlink:href="#DejaVuSans-116"/>
     <use transform="translate(3737.5 0.015625)" xlink:href="#DejaVuSans-101"/>
     <use transform="translate(3799.023438 0.015625)" xlink:href="#DejaVuSans-110"/>
     <use transform="translate(3862.402344 0.015625)" xlink:href="#DejaVuSans-115"/>
     <use transform="translate(3914.501953 0.015625)" xlink:href="#DejaVuSans-105"/>
     <use transform="translate(3942.285156 0.015625)" xlink:href="#DejaVuSans-100"/>
     <use transform="translate(4005.761719 0.015625)" xlink:href="#DejaVuSans-97"/>
     <use transform="translate(4067.041016 0.015625)" xlink:href="#DejaVuSans-100"/>
     <use transform="translate(4130.517578 0.015625)" xlink:href="#DejaVuSans-32"/>
     <use transform="translate(4162.304688 0.015625)" xlink:href="#DejaVuSans-45"/>
     <use transform="translate(4198.388672 0.015625)" xlink:href="#DejaVuSans-32"/>
     <use transform="translate(4230.175781 0.015625)" xlink:href="#DejaVuSans-65"/>
     <use transform="translate(4298.583984 0.015625)" xlink:href="#DejaVuSans-108"/>
     <use transform="translate(4326.367188 0.015625)" xlink:href="#DejaVuSans-108"/>
     <use transform="translate(4354.150391 0.015625)" xlink:href="#DejaVuSans-32"/>
     <use transform="translate(4385.9375 0.015625)" xlink:href="#DejaVuSans-100"/>
     <use transform="translate(4449.414062 0.015625)" xlink:href="#DejaVuSans-97"/>
     <use transform="translate(4510.693359 0.015625)" xlink:href="#DejaVuSans-116"/>
     <use transform="translate(4549.902344 0.015625)" xlink:href="#DejaVuSans-97"/>
     <use transform="translate(4611.181641 0.015625)" xlink:href="#DejaVuSans-32"/>
     <use transform="translate(4642.96875 0.015625)" xlink:href="#DejaVuSans-45"/>
     <use transform="translate(4679.052734 0.015625)" xlink:href="#DejaVuSans-32"/>
     <use transform="translate(4710.839844 0.015625)" xlink:href="#DejaVuSans-40"/>
     <use transform="translate(4749.853516 0.015625)" xlink:href="#DejaVuSans-76"/>
     <use transform="translate(4805.566406 0.015625)" xlink:href="#DejaVuSans-84"/>
     <use transform="translate(4866.650391 0.015625)" xlink:href="#DejaVuSans-115"/>
     <use transform="translate(4918.75 0.015625)" xlink:href="#DejaVuSans-112"/>
     <use transform="translate(4982.226562 0.015625)" xlink:href="#DejaVuSans-105"/>
     <use transform="translate(5010.009766 0.015625)" xlink:href="#DejaVuSans-99"/>
     <use transform="translate(5064.990234 0.015625)" xlink:href="#DejaVuSans-101"/>
     <use transform="translate(5126.513672 0.015625)" xlink:href="#DejaVuSans-41"/>
    </g>
   </g>
  </g>
  <g id="axes_2">
   <g id="matplotlib.axis_3">
    <g id="ytick_6">
     <g id="line2d_13">
      <path clip-path="url(#pd476e2ba29)" d="M 64.21 253.89124 
L 858.535 253.89124 
" style="fill:none;stroke:#b0b0b0;stroke-linecap:square;stroke-width:0.8;"/>
     </g>
     <g id="line2d_14">
      <defs>
       <path d="M 0 0 
L 3.5 0 
" id="md457be920d" style="stroke:#000000;stroke-width:0.8;"/>
      </defs>
      <g>
       <use style="stroke:#000000;stroke-width:0.8;" x="858.535" xlink:href="#md457be920d" y="253.89124"/>
      </g>
     </g>
     <g id="text_15">
      <!-- −0.010 -->
      <g style="fill:#d62728;" transform="translate(865.535 258.07038)scale(0.11 -0.11)">
       <use xlink:href="#DejaVuSans-8722"/>
       <use x="83.789062" xlink:href="#DejaVuSans-48"/>
       <use x="147.412109" xlink:href="#DejaVuSans-46"/>
       <use x="179.199219" xlink:href="#DejaVuSans-48"/>
       <use x="242.822266" xlink:href="#DejaVuSans-49"/>
       <use x="306.445312" xlink:href="#DejaVuSans-48"/>
      </g>
     </g>
    </g>
    <g id="ytick_7">
     <g id="line2d_15">
      <path clip-path="url(#pd476e2ba29)" d="M 64.21 206.276603 
L 858.535 206.276603 
" style="fill:none;stroke:#b0b0b0;stroke-linecap:square;stroke-width:0.8;"/>
     </g>
     <g id="line2d_16">
      <g>
       <use style="stroke:#000000;stroke-width:0.8;" x="858.535" xlink:href="#md457be920d" y="206.276603"/>
      </g>
     </g>
     <g id="text_16">
      <!-- −0.005 -->
      <g style="fill:#d62728;" transform="translate(865.535 210.455744)scale(0.11 -0.11)">
       <use xlink:href="#DejaVuSans-8722"/>
       <use x="83.789062" xlink:href="#DejaVuSans-48"/>
       <use x="147.412109" xlink:href="#DejaVuSans-46"/>
       <use x="179.199219" xlink:href="#DejaVuSans-48"/>
       <use x="242.822266" xlink:href="#DejaVuSans-48"/>
       <use x="306.445312" xlink:href="#DejaVuSans-53"/>
      </g>
     </g>
    </g>
    <g id="ytick_8">
     <g id="line2d_17">
      <path clip-path="url(#pd476e2ba29)" d="M 64.21 158.661967 
L 858.535 158.661967 
" style="fill:none;stroke:#b0b0b0;stroke-linecap:square;stroke-width:0.8;"/>
     </g>
     <g id="line2d_18">
      <g>
       <use style="stroke:#000000;stroke-width:0.8;" x="858.535" xlink:href="#md457be920d" y="158.661967"/>
      </g>
     </g>
     <g id="text_17">
      <!-- 0.000 -->
      <g style="fill:#d62728;" transform="translate(865.535 162.841108)scale(0.11 -0.11)">
       <use xlink:href="#DejaVuSans-48"/>
       <use x="63.623047" xlink:href="#DejaVuSans-46"/>
       <use x="95.410156" xlink:href="#DejaVuSans-48"/>
       <use x="159.033203" xlink:href="#DejaVuSans-48"/>
       <use x="222.65625" xlink:href="#DejaVuSans-48"/>
      </g>
     </g>
    </g>
    <g id="ytick_9">
     <g id="line2d_19">
      <path clip-path="url(#pd476e2ba29)" d="M 64.21 111.047331 
L 858.535 111.047331 
" style="fill:none;stroke:#b0b0b0;stroke-linecap:square;stroke-width:0.8;"/>
     </g>
     <g id="line2d_20">
      <g>
       <use style="stroke:#000000;stroke-width:0.8;" x="858.535" xlink:href="#md457be920d" y="111.047331"/>
      </g>
     </g>
     <g id="text_18">
      <!-- 0.005 -->
      <g style="fill:#d62728;" transform="translate(865.535 115.226472)scale(0.11 -0.11)">
       <use xlink:href="#DejaVuSans-48"/>
       <use x="63.623047" xlink:href="#DejaVuSans-46"/>
       <use x="95.410156" xlink:href="#DejaVuSans-48"/>
       <use x="159.033203" xlink:href="#DejaVuSans-48"/>
       <use x="222.65625" xlink:href="#DejaVuSans-53"/>
      </g>
     </g>
    </g>
    <g id="ytick_10">
     <g id="line2d_21">
      <path clip-path="url(#pd476e2ba29)" d="M 64.21 63.432695 
L 858.535 63.432695 
" style="fill:none;stroke:#b0b0b0;stroke-linecap:square;stroke-width:0.8;"/>
     </g>
     <g id="line2d_22">
      <g>
       <use style="stroke:#000000;stroke-width:0.8;" x="858.535" xlink:href="#md457be920d" y="63.432695"/>
      </g>
     </g>
     <g id="text_19">
      <!-- 0.010 -->
      <g style="fill:#d62728;" transform="translate(865.535 67.611835)scale(0.11 -0.11)">
       <use xlink:href="#DejaVuSans-48"/>
       <use x="63.623047" xlink:href="#DejaVuSans-46"/>
       <use x="95.410156" xlink:href="#DejaVuSans-48"/>
       <use x="159.033203" xlink:href="#DejaVuSans-49"/>
       <use x="222.65625" xlink:href="#DejaVuSans-48"/>
      </g>
     </g>
    </g>
    <g id="text_20">
     <!-- Corriente (A) -->
     <g style="fill:#d62728;" transform="translate(918.601875 194.031875)rotate(-90)scale(0.11 -0.11)">
      <use xlink:href="#DejaVuSans-67"/>
      <use x="69.824219" xlink:href="#DejaVuSans-111"/>
      <use x="131.005859" xlink:href="#DejaVuSans-114"/>
      <use x="170.369141" xlink:href="#DejaVuSans-114"/>
      <use x="211.482422" xlink:href="#DejaVuSans-105"/>
      <use x="239.265625" xlink:href="#DejaVuSans-101"/>
      <use x="300.789062" xlink:href="#DejaVuSans-110"/>
      <use x="364.167969" xlink:href="#DejaVuSans-116"/>
      <use x="403.376953" xlink:href="#DejaVuSans-101"/>
      <use x="464.900391" xlink:href="#DejaVuSans-32"/>
      <use x="496.6875" xlink:href="#DejaVuSans-40"/>
      <use x="535.701172" xlink:href="#DejaVuSans-65"/>
      <use x="604.109375" xlink:href="#DejaVuSans-41"/>
     </g>
    </g>
   </g>
   <g id="line2d_23">
    <path clip-path="url(#pd476e2ba29)" d="M 100.315682 158.661967 
L 101.072873 202.668016 
L 101.778062 237.674611 
L 102.757287 267.963486 
L 103.166548 272.548843 
L 103.446201 272.706474 
L 103.703152 270.7114 
L 104.120056 263.221394 
L 104.786205 241.247237 
L 105.491394 207.287466 
L 107.606962 88.153033 
L 108.312151 60.512499 
L 108.918606 47.168487 
L 109.299274 44.415404 
L 109.50671 44.808542 
L 109.790537 47.504199 
L 110.250258 56.991854 
L 110.955448 82.581187 
L 112.365826 159.551874 
L 113.776204 236.061502 
L 114.770557 267.574044 
L 115.181943 272.44529 
L 115.434241 272.850612 
L 115.661584 271.520952 
L 116.030997 265.991138 
L 116.624723 248.909184 
L 117.329912 217.632726 
L 120.150668 67.029569 
L 120.897334 47.956054 
L 121.078506 45.774624 
L 121.298937 44.482529 
L 121.528707 44.743513 
L 121.80425 47.213466 
L 122.250805 56.063955 
L 122.955994 81.049931 
L 123.661183 116.437038 
L 125.776751 234.526731 
L 126.48194 260.199729 
L 127.004402 270.570077 
L 127.20547 272.378477 
L 127.423739 272.924181 
L 127.62236 272.132626 
L 127.945444 268.250075 
L 128.46712 255.497503 
L 129.172309 227.171517 
L 130.582687 148.002259 
L 131.287876 107.768806 
L 131.993065 74.355771 
L 132.875166 48.854732 
L 133.281673 44.653513 
L 133.544374 44.657327 
L 133.80766 46.809286 
L 134.234683 54.751913 
L 134.916054 77.819028 
L 135.621243 112.303541 
L 137.73681 231.115537 
L 138.441999 258.064608 
L 139.018488 270.307879 
L 139.215054 272.217211 
L 139.413425 272.932727 
L 139.604475 272.464282 
L 139.894371 269.597784 
L 140.363718 259.63157 
L 141.068907 233.605799 
L 142.479285 156.257406 
L 143.889663 80.154811 
L 144.872054 49.51001 
L 145.282131 44.813914 
L 145.537273 44.511531 
L 145.774009 46.04016 
L 146.158521 52.163659 
L 146.775442 70.755479 
L 147.480631 102.92374 
L 149.596198 222.709472 
L 150.301387 252.478279 
L 151.003583 269.631846 
L 151.18793 271.740246 
L 151.416694 272.900155 
L 151.62782 272.526507 
L 151.91028 269.868713 
L 152.367829 260.487549 
L 153.073018 234.997236 
L 154.483397 158.113575 
L 155.893775 81.514034 
L 156.891709 49.788663 
L 157.303307 44.889379 
L 157.529153 44.419994 
L 157.73867 45.4032 
L 158.079356 49.880443 
L 158.628556 64.220985 
L 159.333745 93.705053 
L 162.154501 245.860458 
L 162.985356 268.827304 
L 163.389912 272.746264 
L 163.639965 272.634868 
L 163.907966 270.362839 
L 164.342509 262.07596 
L 165.035142 238.186388 
L 165.740331 203.322877 
L 167.855899 84.786847 
L 168.561088 58.359466 
L 169.115296 46.90601 
L 169.313859 45.036723 
L 169.495848 44.394647 
L 169.690445 44.848346 
L 169.979028 47.67749 
L 170.446294 57.539333 
L 171.151483 83.471086 
L 172.561861 160.73893 
L 173.972239 236.930703 
L 174.95612 267.743004 
L 175.366584 272.491191 
L 175.620879 272.824528 
L 175.854813 271.356414 
L 176.234826 265.412731 
L 176.84485 247.275556 
L 177.550039 215.369351 
L 179.665606 95.539426 
L 180.370796 65.485713 
L 181.086257 47.769367 
L 181.269282 45.642223 
L 181.49645 44.437462 
L 181.712797 44.781956 
L 181.993321 47.386575 
L 182.447796 56.617916 
L 183.152985 81.967704 
L 184.563363 158.727031 
L 185.973742 235.452648 
L 186.976743 267.480135 
L 187.388643 272.419166 
L 187.612369 272.910546 
L 187.818838 271.982488 
L 188.154604 267.675351 
L 188.696127 253.78602 
L 189.401316 224.621205 
L 192.222072 72.258804 
L 193.067282 48.594591 
L 193.472372 44.597489 
L 193.725942 44.680068 
L 193.992633 46.918445 
L 194.425087 55.109024 
L 195.114596 78.769285 
L 195.819785 113.528459 
L 197.935352 232.144247 
L 198.640542 258.717203 
L 199.200939 270.387628 
L 199.399016 272.268584 
L 199.581333 272.927381 
L 199.777552 272.480719 
L 200.065534 269.668603 
L 200.531848 259.854387 
L 201.237037 233.96575 
L 202.647415 156.734997 
L 204.057793 80.502603 
L 205.042357 49.613544 
L 205.452999 44.841491 
L 205.706906 44.494068 
L 205.939559 45.934836 
L 206.317512 51.79705 
L 206.924376 69.727488 
L 207.629566 101.512719 
L 209.745133 221.35908 
L 210.450322 251.542266 
L 211.17185 269.518815 
L 211.354268 271.654385 
L 211.580703 272.879473 
L 211.799446 272.548981 
L 212.079082 269.968614 
L 212.532145 260.80571 
L 213.237334 235.520593 
L 214.647712 158.81881 
L 216.05809 82.035768 
L 216.763279 56.659261 
L 217.27341 46.696184 
L 217.475456 44.911912 
L 217.698209 44.410601 
L 217.903279 45.313737 
L 218.236784 49.543739 
L 218.774777 63.227687 
L 219.479966 92.244681 
L 222.300722 244.696349 
L 223.152518 268.683795 
L 223.557856 272.716986 
L 223.813047 272.647967 
L 224.079134 270.425025 
L 224.510625 262.278663 
L 225.198693 238.723888 
L 225.903882 204.013053 
L 228.019449 85.361302 
L 228.724638 58.721411 
L 229.287889 46.950342 
L 229.485716 45.064198 
L 229.689099 44.387274 
L 229.872942 44.883046 
L 230.165505 47.826095 
L 230.639078 58.005745 
L 231.344267 84.221821 
L 232.754645 161.731863 
L 234.165023 237.651398 
L 235.144394 267.956642 
L 235.553693 272.547094 
L 235.833568 272.706977 
L 236.090436 270.713934 
L 236.507206 263.229809 
L 237.173154 241.269938 
L 237.878344 207.317192 
L 239.993911 88.178887 
L 240.6991 60.529328 
L 241.30595 47.170529 
L 241.686429 44.415866 
L 241.894082 44.807886 
L 242.177829 47.501316 
L 242.637423 56.982711 
L 243.342612 82.566243 
L 244.75299 159.531846 
L 246.163368 236.046766 
L 247.157931 267.571775 
L 247.56933 272.444663 
L 247.821601 272.850936 
L 248.048856 271.523082 
L 248.418128 265.998692 
L 249.011636 248.930646 
L 249.716825 217.662698 
L 252.537582 67.050482 
L 253.284663 47.958587 
L 253.465877 45.775821 
L 253.68628 44.482913 
L 253.916149 44.743238 
L 254.191655 47.212211 
L 254.638152 56.059921 
L 255.343341 81.043207 
L 256.04853 116.428525 
L 258.164097 234.51988 
L 258.869286 260.195526 
L 259.391859 270.569557 
L 259.592918 272.378172 
L 259.811147 272.924263 
L 260.00971 272.133685 
L 260.3327 268.254188 
L 260.85423 255.509851 
L 261.559419 227.190132 
L 262.969797 148.025417 
L 263.674986 107.789633 
L 264.380175 74.371475 
L 265.262548 48.856692 
L 265.669065 44.653953 
L 265.931834 44.657162 
L 266.195095 46.808486 
L 266.622077 54.749286 
L 267.303388 77.812018 
L 268.008577 112.294475 
L 270.124144 231.107867 
L 270.829333 258.059714 
L 271.405941 270.307282 
L 271.602496 272.216821 
L 271.800821 272.932673 
L 271.991936 272.46449 
L 272.281808 269.59868 
L 272.751117 259.634384 
L 273.456306 233.610335 
L 274.866684 156.263414 
L 276.277063 80.159178 
L 277.259481 49.511307 
L 277.669564 44.814256 
L 277.924691 44.511303 
L 278.161376 46.038812 
L 278.545805 52.15899 
L 279.162599 70.742434 
L 279.867788 102.905915 
L 281.983356 222.69256 
L 282.688545 252.466619 
L 283.390984 269.630439 
L 283.575307 271.739186 
L 283.804041 272.899924 
L 284.015264 272.526792 
L 284.297688 269.869976 
L 284.755181 260.491565 
L 285.46037 235.003821 
L 286.870748 158.122423 
L 288.281127 81.520562 
L 289.279154 49.78967 
L 289.690757 44.889659 
L 289.916564 44.419866 
L 290.126025 45.402053 
L 290.466622 49.876155 
L 291.015681 64.20839 
L 291.72087 93.686647 
L 294.541626 245.845996 
L 295.372744 268.825526 
L 295.77731 272.745911 
L 296.027427 272.635034 
L 296.295404 270.363621 
L 296.729909 262.078505 
L 297.422485 238.193125 
L 298.127674 203.331513 
L 300.243241 84.794005 
L 300.94843 58.363962 
L 301.502752 46.906561 
L 301.701306 45.037061 
L 301.883236 44.394726 
L 302.077903 44.848122 
L 302.36646 47.676524 
L 302.833684 57.536293 
L 303.538874 83.466171 
L 304.949252 160.732403 
L 306.35963 236.925947 
L 307.343541 267.741587 
L 307.754012 272.490812 
L 308.00829 272.824763 
L 308.242169 271.357843 
L 308.622092 265.417717 
L 309.231978 247.289556 
L 309.937168 215.388601 
L 312.052735 95.557912 
L 312.757924 65.498553 
L 313.473649 47.770918 
L 313.656648 45.643405 
L 313.883784 44.437757 
L 314.100236 44.78165 
L 314.380721 47.385213 
L 314.835134 56.613574 
L 315.540323 81.960552 
L 316.950702 158.717383 
L 318.36108 235.445504 
L 319.364182 267.479031 
L 319.776088 272.418856 
L 319.999772 272.910671 
L 320.20618 271.983701 
L 320.541848 267.67993 
L 321.083218 253.799551 
L 321.788407 224.641147 
L 324.609163 72.274789 
L 325.454659 48.596564 
L 325.85976 44.597895 
L 326.1134 44.67989 
L 326.380065 46.917595 
L 326.812477 55.106252 
L 327.501924 78.761929 
L 328.207113 113.519008 
L 330.32268 232.136368 
L 331.027869 258.712233 
L 331.588391 270.387019 
L 331.786458 272.268209 
L 331.968839 272.927387 
L 332.165055 272.480706 
L 332.453038 269.668546 
L 332.919354 259.854205 
L 333.624543 233.965455 
L 335.034921 156.734604 
L 336.4453 80.502317 
L 337.429862 49.613459 
L 337.840503 44.841468 
L 338.094411 44.494082 
L 338.327068 45.934921 
L 338.705027 51.797348 
L 339.311899 69.728325 
L 340.017088 101.513874 
L 342.132655 221.360195 
L 342.837844 251.543042 
L 343.559356 269.518909 
L 343.741776 271.654457 
L 343.968213 272.879492 
L 344.18695 272.548963 
L 344.466588 269.968533 
L 344.919654 260.805449 
L 345.624843 235.520163 
L 347.035222 158.818229 
L 348.4456 82.035336 
L 349.150789 56.658999 
L 349.660913 46.696152 
L 349.862959 44.911894 
L 350.085715 44.410608 
L 350.290788 45.313809 
L 350.6243 49.544013 
L 351.162301 63.228497 
L 351.86749 92.245879 
L 354.688247 244.697318 
L 355.540026 268.683915 
L 355.945363 272.717011 
L 356.200549 272.647956 
L 356.466638 270.424974 
L 356.898132 262.278496 
L 357.586203 238.723445 
L 358.291392 204.012483 
L 360.40696 85.360825 
L 361.112149 58.72111 
L 361.675392 46.950306 
L 361.87322 45.064174 
L 362.076605 44.387273 
L 362.260445 44.883059 
L 362.553009 47.826152 
L 363.026584 58.005923 
L 363.731773 84.222106 
L 365.142152 161.732238 
L 366.55253 237.651669 
L 367.531899 267.956722 
L 367.941197 272.547114 
L 368.22107 272.706972 
L 368.477939 270.713905 
L 368.89471 263.22971 
L 369.560661 241.269673 
L 370.26585 207.316845 
L 372.381417 88.178585 
L 373.086606 60.529131 
L 373.693452 47.170505 
L 374.073933 44.415861 
L 374.281583 44.807893 
L 374.565331 47.50135 
L 375.024927 56.982818 
L 375.730116 82.566418 
L 377.140494 159.53208 
L 378.550872 236.046938 
L 379.545432 267.571801 
L 379.956831 272.444671 
L 380.209103 272.850932 
L 380.436359 271.523057 
L 380.805632 265.998603 
L 381.399143 248.930395 
L 382.104332 217.662347 
L 384.925089 67.050238 
L 385.672165 47.958557 
L 385.853378 45.775807 
L 386.073782 44.482908 
L 386.303649 44.743241 
L 386.579156 47.212226 
L 387.025653 56.059968 
L 387.730843 81.043286 
L 388.436032 116.428625 
L 390.551599 234.51996 
L 391.256788 260.195575 
L 391.779359 270.569563 
L 391.980419 272.378176 
L 392.198648 272.924262 
L 392.397212 272.133672 
L 392.720203 268.25414 
L 393.241734 255.509707 
L 393.946923 227.189915 
L 395.357302 148.025146 
L 396.062491 107.78939 
L 396.76768 74.371291 
L 397.650049 48.856669 
L 398.056566 44.653947 
L 398.319334 44.657163 
L 398.582596 46.808495 
L 399.009578 54.749317 
L 399.69089 77.8121 
L 400.396079 112.294581 
L 402.511646 231.107957 
L 403.216835 258.059772 
L 403.793441 270.307289 
L 403.989997 272.216826 
L 404.188322 272.932674 
L 404.379437 272.464488 
L 404.669309 269.598669 
L 405.138618 259.634351 
L 405.843807 233.610282 
L 407.254186 156.263344 
L 408.664564 80.159127 
L 409.646981 49.511292 
L 410.057065 44.814252 
L 410.312192 44.511306 
L 410.548877 46.038828 
L 410.933308 52.159045 
L 411.550103 70.742586 
L 412.255292 102.906124 
L 414.37086 222.692758 
L 415.076049 252.466755 
L 415.778485 269.630455 
L 415.962808 271.739199 
L 416.191543 272.899927 
L 416.402764 272.526789 
L 416.685189 269.869962 
L 417.142683 260.491518 
L 417.847872 235.003744 
L 419.25825 158.122319 
L 420.668628 81.520485 
L 421.666654 49.789658 
L 422.078258 44.889655 
L 422.304065 44.419868 
L 422.513527 45.402066 
L 422.854124 49.876205 
L 423.403185 64.208537 
L 424.108374 93.686863 
L 426.92913 245.846165 
L 427.760246 268.825547 
L 428.164811 272.745915 
L 428.414927 272.635032 
L 428.682905 270.363612 
L 429.11741 262.078476 
L 429.809987 238.193046 
L 430.515176 203.331412 
L 432.630743 84.793921 
L 433.335932 58.363909 
L 433.890252 46.906555 
L 434.088807 45.037057 
L 434.270737 44.394725 
L 434.465403 44.848125 
L 434.75396 47.676535 
L 435.221186 57.536329 
L 435.926375 83.466229 
L 437.336753 160.73248 
L 438.747131 236.926003 
L 439.731042 267.741603 
L 440.141513 272.490816 
L 440.395791 272.82476 
L 440.62967 271.357827 
L 441.009594 265.417659 
L 441.619483 247.289392 
L 442.324672 215.388376 
L 444.440239 95.557696 
L 445.145428 65.498402 
L 445.86115 47.7709 
L 446.044149 45.643391 
L 446.271286 44.437753 
L 446.487736 44.781654 
L 446.768222 47.385229 
L 447.222636 56.613625 
L 447.927825 81.960636 
L 449.338203 158.717496 
L 450.748582 235.445587 
L 451.751683 267.479044 
L 452.163589 272.41886 
L 452.387273 272.910669 
L 452.593682 271.983687 
L 452.929351 267.679877 
L 453.470722 253.799393 
L 454.175911 224.640914 
L 456.996668 72.274602 
L 457.842161 48.59654 
L 458.247261 44.59789 
L 458.500901 44.679892 
L 458.767566 46.917605 
L 459.199979 55.106284 
L 459.889426 78.762015 
L 460.594615 113.519119 
L 462.710182 232.13646 
L 463.415371 258.712291 
L 463.975891 270.387026 
L 464.173959 272.268213 
L 464.356339 272.927387 
L 464.552555 272.480706 
L 464.840538 269.668546 
L 465.306854 259.854207 
L 466.012043 233.965458 
L 467.422421 156.734609 
L 468.8328 80.50232 
L 469.817362 49.61346 
L 470.228003 44.841468 
L 470.481911 44.494081 
L 470.714567 45.93492 
L 471.092526 51.797345 
L 471.699398 69.728315 
L 472.404588 101.51386 
L 474.520155 221.360182 
L 475.225344 251.543033 
L 475.946856 269.518908 
L 476.129276 271.654457 
L 476.355713 272.879491 
L 476.57445 272.548963 
L 476.854088 269.968534 
L 477.307154 260.805452 
L 478.012343 235.520168 
L 479.422722 158.818236 
L 480.8331 82.035341 
L 481.538289 56.659002 
L 482.048413 46.696152 
L 482.250459 44.911894 
L 482.473215 44.410608 
L 482.678288 45.313808 
L 483.0118 49.54401 
L 483.549801 63.228487 
L 484.25499 92.245865 
L 487.075746 244.697306 
L 487.927525 268.683914 
L 488.332863 272.717011 
L 488.588049 272.647956 
L 488.854138 270.424974 
L 489.285632 262.278498 
L 489.973703 238.72345 
L 490.678892 204.012489 
L 492.794459 85.360831 
L 493.499648 58.721113 
L 494.062892 46.950306 
L 494.260719 45.064175 
L 494.464105 44.387273 
L 494.647945 44.883059 
L 494.940509 47.826152 
L 495.414084 58.005921 
L 496.119273 84.222103 
L 497.529651 161.732234 
L 498.94003 237.651666 
L 499.919399 267.956721 
L 500.328697 272.547114 
L 500.60857 272.706972 
L 500.865439 270.713905 
L 501.28221 263.229711 
L 501.948161 241.269676 
L 502.65335 207.316849 
L 504.768917 88.178589 
L 505.474106 60.529133 
L 506.080952 47.170506 
L 506.461433 44.415861 
L 506.669083 44.807893 
L 506.952831 47.501349 
L 507.412427 56.982817 
L 508.117616 82.566416 
L 509.527994 159.532077 
L 510.938372 236.046936 
L 511.932932 267.571801 
L 512.344331 272.444671 
L 512.596603 272.850933 
L 512.823859 271.523058 
L 513.193132 265.998604 
L 513.786643 248.930398 
L 514.491832 217.662351 
L 517.312588 67.05024 
L 518.059665 47.958557 
L 518.240878 45.775807 
L 518.461282 44.482908 
L 518.691149 44.743241 
L 518.966656 47.212225 
L 519.413153 56.059968 
L 520.118343 81.043285 
L 520.823532 116.428624 
L 522.939099 234.519959 
L 523.644288 260.195574 
L 524.166859 270.569563 
L 524.367919 272.378176 
L 524.586148 272.924262 
L 524.784712 272.133672 
L 525.107703 268.25414 
L 525.629234 255.509709 
L 526.334423 227.189917 
L 527.744802 148.02515 
L 528.449991 107.789393 
L 529.15518 74.371293 
L 530.037549 48.856669 
L 530.444066 44.653947 
L 530.706834 44.657163 
L 530.970095 46.808495 
L 531.397078 54.749316 
L 532.07839 77.812099 
L 532.783579 112.29458 
L 534.899146 231.107956 
L 535.604335 258.059771 
L 536.180941 270.307289 
L 536.377497 272.216825 
L 536.575822 272.932674 
L 536.766937 272.464488 
L 537.056809 269.598669 
L 537.526118 259.634352 
L 538.231307 233.610283 
L 539.641686 156.263345 
L 541.052064 80.159128 
L 542.034481 49.511292 
L 542.444565 44.814252 
L 542.699692 44.511306 
L 542.936377 46.038828 
L 543.320808 52.159044 
L 543.937603 70.742584 
L 544.642792 102.906121 
L 546.75836 222.692756 
L 547.463549 252.466754 
L 548.165985 269.630455 
L 548.350308 271.739199 
L 548.579043 272.899927 
L 548.790264 272.526789 
L 549.072689 269.869962 
L 549.530183 260.491518 
L 550.235372 235.003745 
L 551.64575 158.12232 
L 553.056128 81.520486 
L 554.054154 49.789658 
L 554.465758 44.889655 
L 554.691565 44.419868 
L 554.901027 45.402066 
L 555.241624 49.876204 
L 555.790685 64.208536 
L 556.495874 93.68686 
L 559.31663 245.846163 
L 560.147746 268.825546 
L 560.552311 272.745915 
L 560.802427 272.635032 
L 561.070404 270.363612 
L 561.50491 262.078476 
L 562.197487 238.193047 
L 562.902676 203.331414 
L 565.018243 84.793922 
L 565.723432 58.36391 
L 566.277752 46.906555 
L 566.476307 45.037057 
L 566.658237 44.394725 
L 566.852903 44.848125 
L 567.14146 47.676535 
L 567.608686 57.536328 
L 568.313875 83.466228 
L 569.724253 160.732479 
L 571.134631 236.926002 
L 572.118542 267.741603 
L 572.529013 272.490816 
L 572.783291 272.82476 
L 573.01717 271.357827 
L 573.397094 265.417659 
L 574.006983 247.289394 
L 574.712172 215.388379 
L 576.827739 95.557698 
L 577.532928 65.498404 
L 578.24865 47.7709 
L 578.431649 45.643391 
L 578.658786 44.437753 
L 578.875236 44.781654 
L 579.155722 47.385228 
L 579.610136 56.613625 
L 580.315325 81.960635 
L 581.725703 158.717495 
L 583.136082 235.445586 
L 584.139183 267.479044 
L 584.551089 272.41886 
L 584.774773 272.910669 
L 584.981182 271.983687 
L 585.316851 267.679878 
L 585.858222 253.799395 
L 586.563411 224.640916 
L 589.384168 72.274605 
L 590.229661 48.596541 
L 590.634761 44.59789 
L 590.888401 44.679892 
L 591.155066 46.917605 
L 591.587479 55.106284 
L 592.276926 78.762014 
L 592.982115 113.519117 
L 595.097682 232.136459 
L 595.802871 258.71229 
L 596.363391 270.387026 
L 596.561459 272.268213 
L 596.743839 272.927387 
L 596.940055 272.480706 
L 597.228038 269.668546 
L 597.694354 259.854207 
L 598.399543 233.965458 
L 599.809921 156.734609 
L 601.2203 80.50232 
L 602.204862 49.61346 
L 602.615503 44.841468 
L 602.869411 44.494081 
L 603.102067 45.93492 
L 603.480026 51.797345 
L 604.086899 69.728315 
L 604.792088 101.513861 
L 606.907655 221.360182 
L 607.612844 251.543033 
L 608.334356 269.518908 
L 608.516776 271.654457 
L 608.743213 272.879491 
L 608.96195 272.548963 
L 609.241588 269.968534 
L 609.694654 260.805452 
L 610.399843 235.520168 
L 611.810222 158.818236 
L 613.2206 82.035341 
L 613.925789 56.659002 
L 614.435913 46.696152 
L 614.637959 44.911894 
L 614.860715 44.410608 
L 615.065788 45.313808 
L 615.3993 49.54401 
L 615.937301 63.228487 
L 616.64249 92.245865 
L 619.463246 244.697307 
L 620.315025 268.683914 
L 620.720363 272.717011 
L 620.975549 272.647956 
L 621.241638 270.424974 
L 621.673132 262.278498 
L 622.361203 238.72345 
L 623.066392 204.012489 
L 625.181959 85.360831 
L 625.887148 58.721113 
L 626.450392 46.950306 
L 626.648219 45.064175 
L 626.851605 44.387273 
L 627.035445 44.883059 
L 627.328009 47.826152 
L 627.801584 58.005921 
L 628.506773 84.222103 
L 629.917151 161.732234 
L 631.32753 237.651666 
L 632.306899 267.956721 
L 632.716197 272.547114 
L 632.99607 272.706972 
L 633.252939 270.713905 
L 633.66971 263.229711 
L 634.335661 241.269676 
L 635.04085 207.316849 
L 637.156417 88.178589 
L 637.861606 60.529133 
L 638.468452 47.170506 
L 638.848933 44.415861 
L 639.056583 44.807893 
L 639.340331 47.501349 
L 639.799927 56.982817 
L 640.505116 82.566416 
L 641.915494 159.532077 
L 643.325872 236.046936 
L 644.320432 267.571801 
L 644.731831 272.444671 
L 644.984103 272.850933 
L 645.211359 271.523058 
L 645.580632 265.998604 
L 646.174143 248.930398 
L 646.879332 217.662351 
L 649.700088 67.05024 
L 650.447165 47.958557 
L 650.628378 45.775807 
L 650.848782 44.482908 
L 651.078649 44.743241 
L 651.354156 47.212225 
L 651.800653 56.059968 
L 652.505843 81.043285 
L 653.211032 116.428624 
L 655.326599 234.519959 
L 656.031788 260.195574 
L 656.554359 270.569563 
L 656.755419 272.378176 
L 656.973648 272.924262 
L 657.172212 272.133672 
L 657.495203 268.25414 
L 658.016734 255.509709 
L 658.721923 227.189917 
L 660.132302 148.02515 
L 660.837491 107.789393 
L 661.54268 74.371293 
L 662.425049 48.856669 
L 662.831566 44.653947 
L 663.094334 44.657163 
L 663.357595 46.808495 
L 663.784578 54.749316 
L 664.46589 77.812099 
L 665.171079 112.29458 
L 667.286646 231.107956 
L 667.991835 258.059771 
L 668.568441 270.307289 
L 668.764997 272.216825 
L 668.963322 272.932674 
L 669.154437 272.464488 
L 669.444309 269.598669 
L 669.913618 259.634352 
L 670.618807 233.610283 
L 672.029186 156.263345 
L 673.439564 80.159128 
L 674.421981 49.511292 
L 674.832065 44.814252 
L 675.087192 44.511306 
L 675.323877 46.038828 
L 675.708308 52.159044 
L 676.325103 70.742584 
L 677.030292 102.906121 
L 679.14586 222.692756 
L 679.851049 252.466754 
L 680.553485 269.630455 
L 680.737808 271.739199 
L 680.966543 272.899927 
L 681.177764 272.526789 
L 681.460189 269.869962 
L 681.917683 260.491518 
L 682.622872 235.003744 
L 684.03325 158.12232 
L 685.443628 81.520486 
L 686.441654 49.789658 
L 686.853258 44.889655 
L 687.079065 44.419868 
L 687.288527 45.402066 
L 687.629124 49.876204 
L 688.178185 64.208536 
L 688.883374 93.68686 
L 691.70413 245.846163 
L 692.535246 268.825546 
L 692.939811 272.745915 
L 693.189927 272.635032 
L 693.457904 270.363612 
L 693.89241 262.078476 
L 694.584987 238.193047 
L 695.290176 203.331414 
L 697.405743 84.793922 
L 698.110932 58.36391 
L 698.665252 46.906555 
L 698.863807 45.037057 
L 699.045737 44.394725 
L 699.240403 44.848125 
L 699.52896 47.676535 
L 699.996186 57.536328 
L 700.701375 83.466228 
L 702.111753 160.732479 
L 703.522131 236.926002 
L 704.506042 267.741603 
L 704.916513 272.490816 
L 705.170791 272.82476 
L 705.40467 271.357827 
L 705.784594 265.417659 
L 706.394483 247.289394 
L 707.099672 215.388379 
L 709.215239 95.557698 
L 709.920428 65.498404 
L 710.63615 47.7709 
L 710.819149 45.643391 
L 711.046286 44.437753 
L 711.262736 44.781654 
L 711.543222 47.385228 
L 711.997636 56.613625 
L 712.702825 81.960635 
L 714.113203 158.717495 
L 715.523582 235.445586 
L 716.526683 267.479044 
L 716.938589 272.41886 
L 717.162273 272.910669 
L 717.368682 271.983687 
L 717.704351 267.679878 
L 718.245722 253.799395 
L 718.950911 224.640916 
L 721.771668 72.274605 
L 722.617161 48.596541 
L 723.022261 44.59789 
L 723.275901 44.679892 
L 723.542566 46.917605 
L 723.974979 55.106284 
L 724.664426 78.762014 
L 725.369615 113.519117 
L 727.485182 232.136459 
L 728.190371 258.71229 
L 728.750891 270.387026 
L 728.948959 272.268213 
L 729.131339 272.927387 
L 729.327555 272.480706 
L 729.615538 269.668546 
L 730.081854 259.854207 
L 730.787043 233.965458 
L 732.197421 156.734609 
L 733.6078 80.50232 
L 734.592362 49.61346 
L 735.003003 44.841468 
L 735.256911 44.494081 
L 735.489567 45.93492 
L 735.867526 51.797345 
L 736.474399 69.728315 
L 737.179588 101.513861 
L 739.295155 221.360182 
L 740.000344 251.543033 
L 740.721856 269.518908 
L 740.904276 271.654457 
L 741.130713 272.879491 
L 741.34945 272.548963 
L 741.629088 269.968534 
L 742.082154 260.805452 
L 742.787343 235.520168 
L 744.197722 158.818236 
L 745.6081 82.035341 
L 746.313289 56.659002 
L 746.823413 46.696152 
L 747.025459 44.911894 
L 747.248215 44.410608 
L 747.453288 45.313808 
L 747.7868 49.54401 
L 748.324801 63.228487 
L 749.02999 92.245865 
L 751.850746 244.697307 
L 752.702525 268.683914 
L 753.107863 272.717011 
L 753.363049 272.647956 
L 753.629138 270.424974 
L 754.060632 262.278498 
L 754.748703 238.72345 
L 755.453892 204.012489 
L 757.569459 85.360831 
L 758.274648 58.721113 
L 758.837892 46.950306 
L 759.035719 45.064175 
L 759.239105 44.387273 
L 759.422945 44.883059 
L 759.715509 47.826152 
L 760.189084 58.005921 
L 760.894273 84.222103 
L 762.304651 161.732234 
L 763.71503 237.651666 
L 764.694399 267.956721 
L 765.103697 272.547114 
L 765.38357 272.706972 
L 765.640439 270.713905 
L 766.05721 263.229711 
L 766.723161 241.269676 
L 767.42835 207.316849 
L 769.543917 88.178589 
L 770.249106 60.529133 
L 770.855952 47.170506 
L 771.236433 44.415861 
L 771.444083 44.807893 
L 771.727831 47.501349 
L 772.187427 56.982817 
L 772.892616 82.566416 
L 774.302994 159.532077 
L 775.713372 236.046936 
L 776.707932 267.571801 
L 777.119331 272.444671 
L 777.371603 272.850933 
L 777.598859 271.523058 
L 777.968132 265.998604 
L 778.561643 248.930398 
L 779.266832 217.662351 
L 782.087588 67.05024 
L 782.834665 47.958557 
L 783.015878 45.775807 
L 783.236282 44.482908 
L 783.466149 44.743241 
L 783.741656 47.212225 
L 784.188153 56.059968 
L 784.893343 81.043285 
L 785.598532 116.428624 
L 787.714099 234.519959 
L 788.419288 260.195574 
L 788.941859 270.569563 
L 789.142919 272.378176 
L 789.361148 272.924262 
L 789.559712 272.133672 
L 789.882703 268.25414 
L 790.404234 255.509709 
L 791.109423 227.189917 
L 792.519802 148.02515 
L 793.224991 107.789393 
L 793.93018 74.371293 
L 794.812549 48.856669 
L 795.219066 44.653947 
L 795.481834 44.657163 
L 795.745095 46.808495 
L 796.172078 54.749316 
L 796.85339 77.812099 
L 797.558579 112.29458 
L 799.674146 231.107956 
L 800.379335 258.059771 
L 800.955941 270.307289 
L 801.152497 272.216825 
L 801.350822 272.932674 
L 801.541937 272.464488 
L 801.831809 269.598669 
L 802.301118 259.634352 
L 803.006307 233.610283 
L 804.416686 156.263345 
L 805.827064 80.159128 
L 806.809481 49.511292 
L 807.219565 44.814252 
L 807.474692 44.511306 
L 807.711377 46.038828 
L 808.095808 52.159044 
L 808.712603 70.742584 
L 809.417792 102.906121 
L 811.53336 222.692756 
L 812.238549 252.466754 
L 812.940985 269.630455 
L 813.125308 271.739199 
L 813.354043 272.899927 
L 813.565264 272.526789 
L 813.847689 269.869962 
L 814.305183 260.491518 
L 815.010372 235.003744 
L 816.42075 158.12232 
L 817.831128 81.520486 
L 818.829154 49.789658 
L 819.240758 44.889655 
L 819.466565 44.419868 
L 819.676027 45.402066 
L 820.016624 49.876204 
L 820.565685 64.208536 
L 821.270874 93.68686 
L 822.429318 158.661967 
L 822.429318 158.661967 
" style="fill:none;stroke:#d62728;stroke-linecap:square;stroke-width:1.5;"/>
   </g>
   <g id="patch_7">
    <path d="M 64.21 284.36 
L 64.21 32.96 
" style="fill:none;stroke:#000000;stroke-linecap:square;stroke-linejoin:miter;stroke-width:0.8;"/>
   </g>
   <g id="patch_8">
    <path d="M 858.535 284.36 
L 858.535 32.96 
" style="fill:none;stroke:#000000;stroke-linecap:square;stroke-linejoin:miter;stroke-width:0.8;"/>
   </g>
   <g id="patch_9">
    <path d="M 64.21 284.36 
L 858.535 284.36 
" style="fill:none;stroke:#000000;stroke-linecap:square;stroke-linejoin:miter;stroke-width:0.8;"/>
   </g>
   <g id="patch_10">
    <path d="M 64.21 32.96 
L 858.535 32.96 
" style="fill:none;stroke:#000000;stroke-linecap:square;stroke-linejoin:miter;stroke-width:0.8;"/>
   </g>
  </g>
 </g>
 <defs>
  <clipPath id="pd476e2ba29">
   <rect height="251.4" width="794.325" x="64.21" y="32.96"/>
  </clipPath>
 </defs>
</svg>
