<?xml version="1.0" encoding="utf-8" standalone="no"?>
<!DOCTYPE svg PUBLIC "-//W3C//DTD SVG 1.1//EN"
  "http://www.w3.org/Graphics/SVG/1.1/DTD/svg11.dtd">
<!-- Created with matplotlib (https://matplotlib.org/) -->
<svg height="345.6pt" version="1.1" viewBox="0 0 875.52 345.6" width="875.52pt" xmlns="http://www.w3.org/2000/svg" xmlns:xlink="http://www.w3.org/1999/xlink">
 <metadata>
  <rdf:RDF xmlns:cc="http://creativecommons.org/ns#" xmlns:dc="http://purl.org/dc/elements/1.1/" xmlns:rdf="http://www.w3.org/1999/02/22-rdf-syntax-ns#">
   <cc:Work>
    <dc:type rdf:resource="http://purl.org/dc/dcmitype/StillImage"/>
    <dc:date>2021-01-01T22:25:04.661403</dc:date>
    <dc:format>image/svg+xml</dc:format>
    <dc:creator>
     <cc:Agent>
      <dc:title>Matplotlib v3.3.3, https://matplotlib.org/</dc:title>
     </cc:Agent>
    </dc:creator>
   </cc:Work>
  </rdf:RDF>
 </metadata>
 <defs>
  <style type="text/css">*{stroke-linecap:butt;stroke-linejoin:round;}</style>
 </defs>
 <g id="figure_1">
  <g id="patch_1">
   <path d="M 0 345.6 
L 875.52 345.6 
L 875.52 0 
L 0 0 
z
" style="fill:none;"/>
  </g>
  <g id="axes_1">
   <g id="patch_2">
    <path d="M 64.21 301.64 
L 800.935 301.64 
L 800.935 31.46 
L 64.21 31.46 
z
" style="fill:none;"/>
   </g>
   <g id="matplotlib.axis_1">
    <g id="xtick_1">
     <g id="line2d_1">
      <defs>
       <path d="M 0 0 
L 0 3.5 
" id="m7a30e984aa" style="stroke:#000000;stroke-width:0.8;"/>
      </defs>
      <g>
       <use style="stroke:#000000;stroke-width:0.8;" x="97.630539" xlink:href="#m7a30e984aa" y="301.64"/>
      </g>
     </g>
     <g id="text_1">
      <!-- 0.00 -->
      <g transform="translate(85.384445 316.998281)scale(0.11 -0.11)">
       <defs>
        <path d="M 31.78125 66.40625 
Q 24.171875 66.40625 20.328125 58.90625 
Q 16.5 51.421875 16.5 36.375 
Q 16.5 21.390625 20.328125 13.890625 
Q 24.171875 6.390625 31.78125 6.390625 
Q 39.453125 6.390625 43.28125 13.890625 
Q 47.125 21.390625 47.125 36.375 
Q 47.125 51.421875 43.28125 58.90625 
Q 39.453125 66.40625 31.78125 66.40625 
z
M 31.78125 74.21875 
Q 44.046875 74.21875 50.515625 64.515625 
Q 56.984375 54.828125 56.984375 36.375 
Q 56.984375 17.96875 50.515625 8.265625 
Q 44.046875 -1.421875 31.78125 -1.421875 
Q 19.53125 -1.421875 13.0625 8.265625 
Q 6.59375 17.96875 6.59375 36.375 
Q 6.59375 54.828125 13.0625 64.515625 
Q 19.53125 74.21875 31.78125 74.21875 
z
" id="DejaVuSans-48"/>
        <path d="M 10.6875 12.40625 
L 21 12.40625 
L 21 0 
L 10.6875 0 
z
" id="DejaVuSans-46"/>
       </defs>
       <use xlink:href="#DejaVuSans-48"/>
       <use x="63.623047" xlink:href="#DejaVuSans-46"/>
       <use x="95.410156" xlink:href="#DejaVuSans-48"/>
       <use x="159.033203" xlink:href="#DejaVuSans-48"/>
      </g>
     </g>
    </g>
    <g id="xtick_2">
     <g id="line2d_2">
      <g>
       <use style="stroke:#000000;stroke-width:0.8;" x="231.539877" xlink:href="#m7a30e984aa" y="301.64"/>
      </g>
     </g>
     <g id="text_2">
      <!-- 0.01 -->
      <g transform="translate(219.293783 316.998281)scale(0.11 -0.11)">
       <defs>
        <path d="M 12.40625 8.296875 
L 28.515625 8.296875 
L 28.515625 63.921875 
L 10.984375 60.40625 
L 10.984375 69.390625 
L 28.421875 72.90625 
L 38.28125 72.90625 
L 38.28125 8.296875 
L 54.390625 8.296875 
L 54.390625 0 
L 12.40625 0 
z
" id="DejaVuSans-49"/>
       </defs>
       <use xlink:href="#DejaVuSans-48"/>
       <use x="63.623047" xlink:href="#DejaVuSans-46"/>
       <use x="95.410156" xlink:href="#DejaVuSans-48"/>
       <use x="159.033203" xlink:href="#DejaVuSans-49"/>
      </g>
     </g>
    </g>
    <g id="xtick_3">
     <g id="line2d_3">
      <g>
       <use style="stroke:#000000;stroke-width:0.8;" x="365.449215" xlink:href="#m7a30e984aa" y="301.64"/>
      </g>
     </g>
     <g id="text_3">
      <!-- 0.02 -->
      <g transform="translate(353.203122 316.998281)scale(0.11 -0.11)">
       <defs>
        <path d="M 19.1875 8.296875 
L 53.609375 8.296875 
L 53.609375 0 
L 7.328125 0 
L 7.328125 8.296875 
Q 12.9375 14.109375 22.625 23.890625 
Q 32.328125 33.6875 34.8125 36.53125 
Q 39.546875 41.84375 41.421875 45.53125 
Q 43.3125 49.21875 43.3125 52.78125 
Q 43.3125 58.59375 39.234375 62.25 
Q 35.15625 65.921875 28.609375 65.921875 
Q 23.96875 65.921875 18.8125 64.3125 
Q 13.671875 62.703125 7.8125 59.421875 
L 7.8125 69.390625 
Q 13.765625 71.78125 18.9375 73 
Q 24.125 74.21875 28.421875 74.21875 
Q 39.75 74.21875 46.484375 68.546875 
Q 53.21875 62.890625 53.21875 53.421875 
Q 53.21875 48.921875 51.53125 44.890625 
Q 49.859375 40.875 45.40625 35.40625 
Q 44.1875 33.984375 37.640625 27.21875 
Q 31.109375 20.453125 19.1875 8.296875 
z
" id="DejaVuSans-50"/>
       </defs>
       <use xlink:href="#DejaVuSans-48"/>
       <use x="63.623047" xlink:href="#DejaVuSans-46"/>
       <use x="95.410156" xlink:href="#DejaVuSans-48"/>
       <use x="159.033203" xlink:href="#DejaVuSans-50"/>
      </g>
     </g>
    </g>
    <g id="xtick_4">
     <g id="line2d_4">
      <g>
       <use style="stroke:#000000;stroke-width:0.8;" x="499.358554" xlink:href="#m7a30e984aa" y="301.64"/>
      </g>
     </g>
     <g id="text_4">
      <!-- 0.03 -->
      <g transform="translate(487.11246 316.998281)scale(0.11 -0.11)">
       <defs>
        <path d="M 40.578125 39.3125 
Q 47.65625 37.796875 51.625 33 
Q 55.609375 28.21875 55.609375 21.1875 
Q 55.609375 10.40625 48.1875 4.484375 
Q 40.765625 -1.421875 27.09375 -1.421875 
Q 22.515625 -1.421875 17.65625 -0.515625 
Q 12.796875 0.390625 7.625 2.203125 
L 7.625 11.71875 
Q 11.71875 9.328125 16.59375 8.109375 
Q 21.484375 6.890625 26.8125 6.890625 
Q 36.078125 6.890625 40.9375 10.546875 
Q 45.796875 14.203125 45.796875 21.1875 
Q 45.796875 27.640625 41.28125 31.265625 
Q 36.765625 34.90625 28.71875 34.90625 
L 20.21875 34.90625 
L 20.21875 43.015625 
L 29.109375 43.015625 
Q 36.375 43.015625 40.234375 45.921875 
Q 44.09375 48.828125 44.09375 54.296875 
Q 44.09375 59.90625 40.109375 62.90625 
Q 36.140625 65.921875 28.71875 65.921875 
Q 24.65625 65.921875 20.015625 65.03125 
Q 15.375 64.15625 9.8125 62.3125 
L 9.8125 71.09375 
Q 15.4375 72.65625 20.34375 73.4375 
Q 25.25 74.21875 29.59375 74.21875 
Q 40.828125 74.21875 47.359375 69.109375 
Q 53.90625 64.015625 53.90625 55.328125 
Q 53.90625 49.265625 50.4375 45.09375 
Q 46.96875 40.921875 40.578125 39.3125 
z
" id="DejaVuSans-51"/>
       </defs>
       <use xlink:href="#DejaVuSans-48"/>
       <use x="63.623047" xlink:href="#DejaVuSans-46"/>
       <use x="95.410156" xlink:href="#DejaVuSans-48"/>
       <use x="159.033203" xlink:href="#DejaVuSans-51"/>
      </g>
     </g>
    </g>
    <g id="xtick_5">
     <g id="line2d_5">
      <g>
       <use style="stroke:#000000;stroke-width:0.8;" x="633.267892" xlink:href="#m7a30e984aa" y="301.64"/>
      </g>
     </g>
     <g id="text_5">
      <!-- 0.04 -->
      <g transform="translate(621.021798 316.998281)scale(0.11 -0.11)">
       <defs>
        <path d="M 37.796875 64.3125 
L 12.890625 25.390625 
L 37.796875 25.390625 
z
M 35.203125 72.90625 
L 47.609375 72.90625 
L 47.609375 25.390625 
L 58.015625 25.390625 
L 58.015625 17.1875 
L 47.609375 17.1875 
L 47.609375 0 
L 37.796875 0 
L 37.796875 17.1875 
L 4.890625 17.1875 
L 4.890625 26.703125 
z
" id="DejaVuSans-52"/>
       </defs>
       <use xlink:href="#DejaVuSans-48"/>
       <use x="63.623047" xlink:href="#DejaVuSans-46"/>
       <use x="95.410156" xlink:href="#DejaVuSans-48"/>
       <use x="159.033203" xlink:href="#DejaVuSans-52"/>
      </g>
     </g>
    </g>
    <g id="xtick_6">
     <g id="line2d_6">
      <g>
       <use style="stroke:#000000;stroke-width:0.8;" x="767.17723" xlink:href="#m7a30e984aa" y="301.64"/>
      </g>
     </g>
     <g id="text_6">
      <!-- 0.05 -->
      <g transform="translate(754.931137 316.998281)scale(0.11 -0.11)">
       <defs>
        <path d="M 10.796875 72.90625 
L 49.515625 72.90625 
L 49.515625 64.59375 
L 19.828125 64.59375 
L 19.828125 46.734375 
Q 21.96875 47.46875 24.109375 47.828125 
Q 26.265625 48.1875 28.421875 48.1875 
Q 40.625 48.1875 47.75 41.5 
Q 54.890625 34.8125 54.890625 23.390625 
Q 54.890625 11.625 47.5625 5.09375 
Q 40.234375 -1.421875 26.90625 -1.421875 
Q 22.3125 -1.421875 17.546875 -0.640625 
Q 12.796875 0.140625 7.71875 1.703125 
L 7.71875 11.625 
Q 12.109375 9.234375 16.796875 8.0625 
Q 21.484375 6.890625 26.703125 6.890625 
Q 35.15625 6.890625 40.078125 11.328125 
Q 45.015625 15.765625 45.015625 23.390625 
Q 45.015625 31 40.078125 35.4375 
Q 35.15625 39.890625 26.703125 39.890625 
Q 22.75 39.890625 18.8125 39.015625 
Q 14.890625 38.140625 10.796875 36.28125 
z
" id="DejaVuSans-53"/>
       </defs>
       <use xlink:href="#DejaVuSans-48"/>
       <use x="63.623047" xlink:href="#DejaVuSans-46"/>
       <use x="95.410156" xlink:href="#DejaVuSans-48"/>
       <use x="159.033203" xlink:href="#DejaVuSans-53"/>
      </g>
     </g>
    </g>
    <g id="text_7">
     <!-- Tiempo (s) -->
     <g transform="translate(403.35375 331.644219)scale(0.11 -0.11)">
      <defs>
       <path d="M -0.296875 72.90625 
L 61.375 72.90625 
L 61.375 64.59375 
L 35.5 64.59375 
L 35.5 0 
L 25.59375 0 
L 25.59375 64.59375 
L -0.296875 64.59375 
z
" id="DejaVuSans-84"/>
       <path d="M 9.421875 54.6875 
L 18.40625 54.6875 
L 18.40625 0 
L 9.421875 0 
z
M 9.421875 75.984375 
L 18.40625 75.984375 
L 18.40625 64.59375 
L 9.421875 64.59375 
z
" id="DejaVuSans-105"/>
       <path d="M 56.203125 29.59375 
L 56.203125 25.203125 
L 14.890625 25.203125 
Q 15.484375 15.921875 20.484375 11.0625 
Q 25.484375 6.203125 34.421875 6.203125 
Q 39.59375 6.203125 44.453125 7.46875 
Q 49.3125 8.734375 54.109375 11.28125 
L 54.109375 2.78125 
Q 49.265625 0.734375 44.1875 -0.34375 
Q 39.109375 -1.421875 33.890625 -1.421875 
Q 20.796875 -1.421875 13.15625 6.1875 
Q 5.515625 13.8125 5.515625 26.8125 
Q 5.515625 40.234375 12.765625 48.109375 
Q 20.015625 56 32.328125 56 
Q 43.359375 56 49.78125 48.890625 
Q 56.203125 41.796875 56.203125 29.59375 
z
M 47.21875 32.234375 
Q 47.125 39.59375 43.09375 43.984375 
Q 39.0625 48.390625 32.421875 48.390625 
Q 24.90625 48.390625 20.390625 44.140625 
Q 15.875 39.890625 15.1875 32.171875 
z
" id="DejaVuSans-101"/>
       <path d="M 52 44.1875 
Q 55.375 50.25 60.0625 53.125 
Q 64.75 56 71.09375 56 
Q 79.640625 56 84.28125 50.015625 
Q 88.921875 44.046875 88.921875 33.015625 
L 88.921875 0 
L 79.890625 0 
L 79.890625 32.71875 
Q 79.890625 40.578125 77.09375 44.375 
Q 74.3125 48.1875 68.609375 48.1875 
Q 61.625 48.1875 57.5625 43.546875 
Q 53.515625 38.921875 53.515625 30.90625 
L 53.515625 0 
L 44.484375 0 
L 44.484375 32.71875 
Q 44.484375 40.625 41.703125 44.40625 
Q 38.921875 48.1875 33.109375 48.1875 
Q 26.21875 48.1875 22.15625 43.53125 
Q 18.109375 38.875 18.109375 30.90625 
L 18.109375 0 
L 9.078125 0 
L 9.078125 54.6875 
L 18.109375 54.6875 
L 18.109375 46.1875 
Q 21.1875 51.21875 25.484375 53.609375 
Q 29.78125 56 35.6875 56 
Q 41.65625 56 45.828125 52.96875 
Q 50 49.953125 52 44.1875 
z
" id="DejaVuSans-109"/>
       <path d="M 18.109375 8.203125 
L 18.109375 -20.796875 
L 9.078125 -20.796875 
L 9.078125 54.6875 
L 18.109375 54.6875 
L 18.109375 46.390625 
Q 20.953125 51.265625 25.265625 53.625 
Q 29.59375 56 35.59375 56 
Q 45.5625 56 51.78125 48.09375 
Q 58.015625 40.1875 58.015625 27.296875 
Q 58.015625 14.40625 51.78125 6.484375 
Q 45.5625 -1.421875 35.59375 -1.421875 
Q 29.59375 -1.421875 25.265625 0.953125 
Q 20.953125 3.328125 18.109375 8.203125 
z
M 48.6875 27.296875 
Q 48.6875 37.203125 44.609375 42.84375 
Q 40.53125 48.484375 33.40625 48.484375 
Q 26.265625 48.484375 22.1875 42.84375 
Q 18.109375 37.203125 18.109375 27.296875 
Q 18.109375 17.390625 22.1875 11.75 
Q 26.265625 6.109375 33.40625 6.109375 
Q 40.53125 6.109375 44.609375 11.75 
Q 48.6875 17.390625 48.6875 27.296875 
z
" id="DejaVuSans-112"/>
       <path d="M 30.609375 48.390625 
Q 23.390625 48.390625 19.1875 42.75 
Q 14.984375 37.109375 14.984375 27.296875 
Q 14.984375 17.484375 19.15625 11.84375 
Q 23.34375 6.203125 30.609375 6.203125 
Q 37.796875 6.203125 41.984375 11.859375 
Q 46.1875 17.53125 46.1875 27.296875 
Q 46.1875 37.015625 41.984375 42.703125 
Q 37.796875 48.390625 30.609375 48.390625 
z
M 30.609375 56 
Q 42.328125 56 49.015625 48.375 
Q 55.71875 40.765625 55.71875 27.296875 
Q 55.71875 13.875 49.015625 6.21875 
Q 42.328125 -1.421875 30.609375 -1.421875 
Q 18.84375 -1.421875 12.171875 6.21875 
Q 5.515625 13.875 5.515625 27.296875 
Q 5.515625 40.765625 12.171875 48.375 
Q 18.84375 56 30.609375 56 
z
" id="DejaVuSans-111"/>
       <path id="DejaVuSans-32"/>
       <path d="M 31 75.875 
Q 24.46875 64.65625 21.28125 53.65625 
Q 18.109375 42.671875 18.109375 31.390625 
Q 18.109375 20.125 21.3125 9.0625 
Q 24.515625 -2 31 -13.1875 
L 23.1875 -13.1875 
Q 15.875 -1.703125 12.234375 9.375 
Q 8.59375 20.453125 8.59375 31.390625 
Q 8.59375 42.28125 12.203125 53.3125 
Q 15.828125 64.359375 23.1875 75.875 
z
" id="DejaVuSans-40"/>
       <path d="M 44.28125 53.078125 
L 44.28125 44.578125 
Q 40.484375 46.53125 36.375 47.5 
Q 32.28125 48.484375 27.875 48.484375 
Q 21.1875 48.484375 17.84375 46.4375 
Q 14.5 44.390625 14.5 40.28125 
Q 14.5 37.15625 16.890625 35.375 
Q 19.28125 33.59375 26.515625 31.984375 
L 29.59375 31.296875 
Q 39.15625 29.25 43.1875 25.515625 
Q 47.21875 21.78125 47.21875 15.09375 
Q 47.21875 7.46875 41.1875 3.015625 
Q 35.15625 -1.421875 24.609375 -1.421875 
Q 20.21875 -1.421875 15.453125 -0.5625 
Q 10.6875 0.296875 5.421875 2 
L 5.421875 11.28125 
Q 10.40625 8.6875 15.234375 7.390625 
Q 20.0625 6.109375 24.8125 6.109375 
Q 31.15625 6.109375 34.5625 8.28125 
Q 37.984375 10.453125 37.984375 14.40625 
Q 37.984375 18.0625 35.515625 20.015625 
Q 33.0625 21.96875 24.703125 23.78125 
L 21.578125 24.515625 
Q 13.234375 26.265625 9.515625 29.90625 
Q 5.8125 33.546875 5.8125 39.890625 
Q 5.8125 47.609375 11.28125 51.796875 
Q 16.75 56 26.8125 56 
Q 31.78125 56 36.171875 55.265625 
Q 40.578125 54.546875 44.28125 53.078125 
z
" id="DejaVuSans-115"/>
       <path d="M 8.015625 75.875 
L 15.828125 75.875 
Q 23.140625 64.359375 26.78125 53.3125 
Q 30.421875 42.28125 30.421875 31.390625 
Q 30.421875 20.453125 26.78125 9.375 
Q 23.140625 -1.703125 15.828125 -13.1875 
L 8.015625 -13.1875 
Q 14.5 -2 17.703125 9.0625 
Q 20.90625 20.125 20.90625 31.390625 
Q 20.90625 42.671875 17.703125 53.65625 
Q 14.5 64.65625 8.015625 75.875 
z
" id="DejaVuSans-41"/>
      </defs>
      <use xlink:href="#DejaVuSans-84"/>
      <use x="57.958984" xlink:href="#DejaVuSans-105"/>
      <use x="85.742188" xlink:href="#DejaVuSans-101"/>
      <use x="147.265625" xlink:href="#DejaVuSans-109"/>
      <use x="244.677734" xlink:href="#DejaVuSans-112"/>
      <use x="308.154297" xlink:href="#DejaVuSans-111"/>
      <use x="369.335938" xlink:href="#DejaVuSans-32"/>
      <use x="401.123047" xlink:href="#DejaVuSans-40"/>
      <use x="440.136719" xlink:href="#DejaVuSans-115"/>
      <use x="492.236328" xlink:href="#DejaVuSans-41"/>
     </g>
    </g>
   </g>
   <g id="matplotlib.axis_2">
    <g id="ytick_1">
     <g id="line2d_7">
      <defs>
       <path d="M 0 0 
L -3.5 0 
" id="maad7870a3f" style="stroke:#000000;stroke-width:0.8;"/>
      </defs>
      <g>
       <use style="stroke:#000000;stroke-width:0.8;" x="64.21" xlink:href="#maad7870a3f" y="268.891073"/>
      </g>
     </g>
     <g id="text_8">
      <!-- −100 -->
      <g style="fill:#2ca02c;" transform="translate(26.996094 273.070213)scale(0.11 -0.11)">
       <defs>
        <path d="M 10.59375 35.5 
L 73.1875 35.5 
L 73.1875 27.203125 
L 10.59375 27.203125 
z
" id="DejaVuSans-8722"/>
       </defs>
       <use xlink:href="#DejaVuSans-8722"/>
       <use x="83.789062" xlink:href="#DejaVuSans-49"/>
       <use x="147.412109" xlink:href="#DejaVuSans-48"/>
       <use x="211.035156" xlink:href="#DejaVuSans-48"/>
      </g>
     </g>
    </g>
    <g id="ytick_2">
     <g id="line2d_8">
      <g>
       <use style="stroke:#000000;stroke-width:0.8;" x="64.21" xlink:href="#maad7870a3f" y="217.720575"/>
      </g>
     </g>
     <g id="text_9">
      <!-- −50 -->
      <g style="fill:#2ca02c;" transform="translate(33.994844 221.899716)scale(0.11 -0.11)">
       <use xlink:href="#DejaVuSans-8722"/>
       <use x="83.789062" xlink:href="#DejaVuSans-53"/>
       <use x="147.412109" xlink:href="#DejaVuSans-48"/>
      </g>
     </g>
    </g>
    <g id="ytick_3">
     <g id="line2d_9">
      <g>
       <use style="stroke:#000000;stroke-width:0.8;" x="64.21" xlink:href="#maad7870a3f" y="166.550078"/>
      </g>
     </g>
     <g id="text_10">
      <!-- 0 -->
      <g style="fill:#2ca02c;" transform="translate(50.21125 170.729219)scale(0.11 -0.11)">
       <use xlink:href="#DejaVuSans-48"/>
      </g>
     </g>
    </g>
    <g id="ytick_4">
     <g id="line2d_10">
      <g>
       <use style="stroke:#000000;stroke-width:0.8;" x="64.21" xlink:href="#maad7870a3f" y="115.379581"/>
      </g>
     </g>
     <g id="text_11">
      <!-- 50 -->
      <g style="fill:#2ca02c;" transform="translate(43.2125 119.558722)scale(0.11 -0.11)">
       <use xlink:href="#DejaVuSans-53"/>
       <use x="63.623047" xlink:href="#DejaVuSans-48"/>
      </g>
     </g>
    </g>
    <g id="ytick_5">
     <g id="line2d_11">
      <g>
       <use style="stroke:#000000;stroke-width:0.8;" x="64.21" xlink:href="#maad7870a3f" y="64.209084"/>
      </g>
     </g>
     <g id="text_12">
      <!-- 100 -->
      <g style="fill:#2ca02c;" transform="translate(36.21375 68.388225)scale(0.11 -0.11)">
       <use xlink:href="#DejaVuSans-49"/>
       <use x="63.623047" xlink:href="#DejaVuSans-48"/>
       <use x="127.246094" xlink:href="#DejaVuSans-48"/>
      </g>
     </g>
    </g>
    <g id="text_13">
     <!-- Voltaje (V) -->
     <g style="fill:#2ca02c;" transform="translate(20.708438 195.020234)rotate(-90)scale(0.11 -0.11)">
      <defs>
       <path d="M 28.609375 0 
L 0.78125 72.90625 
L 11.078125 72.90625 
L 34.1875 11.53125 
L 57.328125 72.90625 
L 67.578125 72.90625 
L 39.796875 0 
z
" id="DejaVuSans-86"/>
       <path d="M 9.421875 75.984375 
L 18.40625 75.984375 
L 18.40625 0 
L 9.421875 0 
z
" id="DejaVuSans-108"/>
       <path d="M 18.3125 70.21875 
L 18.3125 54.6875 
L 36.8125 54.6875 
L 36.8125 47.703125 
L 18.3125 47.703125 
L 18.3125 18.015625 
Q 18.3125 11.328125 20.140625 9.421875 
Q 21.96875 7.515625 27.59375 7.515625 
L 36.8125 7.515625 
L 36.8125 0 
L 27.59375 0 
Q 17.1875 0 13.234375 3.875 
Q 9.28125 7.765625 9.28125 18.015625 
L 9.28125 47.703125 
L 2.6875 47.703125 
L 2.6875 54.6875 
L 9.28125 54.6875 
L 9.28125 70.21875 
z
" id="DejaVuSans-116"/>
       <path d="M 34.28125 27.484375 
Q 23.390625 27.484375 19.1875 25 
Q 14.984375 22.515625 14.984375 16.5 
Q 14.984375 11.71875 18.140625 8.90625 
Q 21.296875 6.109375 26.703125 6.109375 
Q 34.1875 6.109375 38.703125 11.40625 
Q 43.21875 16.703125 43.21875 25.484375 
L 43.21875 27.484375 
z
M 52.203125 31.203125 
L 52.203125 0 
L 43.21875 0 
L 43.21875 8.296875 
Q 40.140625 3.328125 35.546875 0.953125 
Q 30.953125 -1.421875 24.3125 -1.421875 
Q 15.921875 -1.421875 10.953125 3.296875 
Q 6 8.015625 6 15.921875 
Q 6 25.140625 12.171875 29.828125 
Q 18.359375 34.515625 30.609375 34.515625 
L 43.21875 34.515625 
L 43.21875 35.40625 
Q 43.21875 41.609375 39.140625 45 
Q 35.0625 48.390625 27.6875 48.390625 
Q 23 48.390625 18.546875 47.265625 
Q 14.109375 46.140625 10.015625 43.890625 
L 10.015625 52.203125 
Q 14.9375 54.109375 19.578125 55.046875 
Q 24.21875 56 28.609375 56 
Q 40.484375 56 46.34375 49.84375 
Q 52.203125 43.703125 52.203125 31.203125 
z
" id="DejaVuSans-97"/>
       <path d="M 9.421875 54.6875 
L 18.40625 54.6875 
L 18.40625 -0.984375 
Q 18.40625 -11.421875 14.421875 -16.109375 
Q 10.453125 -20.796875 1.609375 -20.796875 
L -1.8125 -20.796875 
L -1.8125 -13.1875 
L 0.59375 -13.1875 
Q 5.71875 -13.1875 7.5625 -10.8125 
Q 9.421875 -8.453125 9.421875 -0.984375 
z
M 9.421875 75.984375 
L 18.40625 75.984375 
L 18.40625 64.59375 
L 9.421875 64.59375 
z
" id="DejaVuSans-106"/>
      </defs>
      <use xlink:href="#DejaVuSans-86"/>
      <use x="60.658203" xlink:href="#DejaVuSans-111"/>
      <use x="121.839844" xlink:href="#DejaVuSans-108"/>
      <use x="149.623047" xlink:href="#DejaVuSans-116"/>
      <use x="188.832031" xlink:href="#DejaVuSans-97"/>
      <use x="250.111328" xlink:href="#DejaVuSans-106"/>
      <use x="277.894531" xlink:href="#DejaVuSans-101"/>
      <use x="339.417969" xlink:href="#DejaVuSans-32"/>
      <use x="371.205078" xlink:href="#DejaVuSans-40"/>
      <use x="410.21875" xlink:href="#DejaVuSans-86"/>
      <use x="478.626953" xlink:href="#DejaVuSans-41"/>
     </g>
    </g>
   </g>
   <g id="line2d_12">
    <path clip-path="url(#pa51b0a9327)" d="M 97.6975 166.318565 
L 106.535731 136.082679 
L 111.892104 118.556109 
L 115.909384 106.105124 
L 119.926664 94.426468 
L 122.604851 87.143923 
L 125.283038 80.31258 
L 127.961225 73.971256 
L 130.639412 68.155982 
L 133.317598 62.899804 
L 135.995785 58.232587 
L 138.673972 54.180852 
L 141.352159 50.767621 
L 142.691252 49.306651 
L 144.030345 48.012289 
L 145.369439 46.886377 
L 146.708532 45.930513 
L 148.047626 45.146056 
L 149.386719 44.534121 
L 150.725812 44.095577 
L 152.064906 43.831048 
L 153.403999 43.740909 
L 154.743092 43.825289 
L 156.082186 44.084067 
L 157.421279 44.516877 
L 158.760373 45.123102 
L 160.099466 45.901881 
L 161.438559 46.852109 
L 162.777653 47.972433 
L 164.116746 49.261263 
L 165.455839 50.716767 
L 168.134026 54.119289 
L 170.812213 58.160664 
L 173.4904 62.81793 
L 176.168587 68.064623 
L 178.846773 73.87093 
L 181.52496 80.203858 
L 184.203147 87.027423 
L 186.881334 94.302851 
L 190.898614 105.972161 
L 194.915894 118.415498 
L 200.272267 135.934681 
L 206.967734 158.762578 
L 219.019575 199.997581 
L 224.375948 217.369668 
L 228.393229 229.662456 
L 232.410509 241.148833 
L 235.088695 248.285453 
L 237.766882 254.957637 
L 240.445069 261.127471 
L 243.123256 266.759897 
L 245.801443 271.822912 
L 248.479629 276.287745 
L 251.157816 280.129027 
L 253.836003 283.32493 
L 255.175096 284.675044 
L 256.51419 285.857296 
L 257.853283 286.870006 
L 259.192376 287.711734 
L 260.53147 288.381285 
L 261.870563 288.877708 
L 263.209656 289.200296 
L 264.54875 289.348591 
L 265.887843 289.322383 
L 267.226937 289.121709 
L 268.56603 288.746854 
L 269.905123 288.19835 
L 271.244217 287.476978 
L 272.58331 286.583762 
L 273.922404 285.519971 
L 275.261497 284.287118 
L 276.60059 282.886954 
L 279.278777 279.592888 
L 281.956964 275.656489 
L 284.635151 271.100127 
L 287.313337 265.94969 
L 289.991524 260.234444 
L 292.669711 253.986866 
L 295.347898 247.242454 
L 298.026084 240.039532 
L 302.043365 228.465628 
L 306.060645 216.100607 
L 311.417018 198.657562 
L 318.112485 175.877083 
L 330.247315 134.313149 
L 335.603689 116.876852 
L 339.620969 104.518729 
L 343.638249 92.953204 
L 346.316436 85.756638 
L 348.994623 79.019156 
L 351.672809 72.779042 
L 354.350996 67.071754 
L 357.029183 61.929722 
L 359.70737 57.382163 
L 362.385556 53.454918 
L 365.063743 50.170303 
L 366.402836 48.774959 
L 367.74193 47.54698 
L 369.081023 46.488111 
L 370.420117 45.599857 
L 371.75921 44.88348 
L 373.098303 44.339997 
L 374.437397 43.970182 
L 375.77649 43.77456 
L 377.115584 43.753408 
L 378.454677 43.906757 
L 379.79377 44.234389 
L 381.132864 44.735838 
L 382.471957 45.410392 
L 383.81105 46.257092 
L 385.150144 47.274735 
L 386.489237 48.461874 
L 387.828331 49.816824 
L 390.506517 53.022215 
L 393.184704 56.872693 
L 395.862891 61.346381 
L 398.541078 66.417857 
L 401.219264 72.058304 
L 403.897451 78.235673 
L 406.575638 84.914861 
L 409.253825 92.057917 
L 413.271105 103.552802 
L 417.288385 115.852626 
L 421.305665 128.800232 
L 426.662039 146.784495 
L 444.070253 206.164238 
L 448.087533 219.030105 
L 452.104813 231.225415 
L 456.122093 242.594344 
L 458.80028 249.642302 
L 461.478467 256.218113 
L 464.156654 262.284412 
L 466.83484 267.80673 
L 469.513027 272.753688 
L 472.191214 277.097175 
L 474.869401 280.812512 
L 477.547587 283.878586 
L 478.886681 285.162559 
L 480.225774 286.277977 
L 481.564867 287.223255 
L 482.903961 287.99705 
L 484.243054 288.598262 
L 485.582148 289.026037 
L 486.921241 289.279767 
L 488.260334 289.359091 
L 489.599428 289.263897 
L 490.938521 288.99432 
L 492.277615 288.550743 
L 493.616708 287.933796 
L 494.955801 287.144356 
L 496.294895 286.183546 
L 497.633988 285.052729 
L 498.973081 283.753514 
L 501.651268 280.657509 
L 504.329455 276.913123 
L 507.007642 272.541633 
L 509.685829 267.567877 
L 512.364015 262.020117 
L 515.042202 255.929878 
L 517.720389 249.331765 
L 520.398576 242.263271 
L 524.415856 230.867097 
L 528.433136 218.64912 
L 532.450416 205.765454 
L 537.80679 187.837208 
L 556.554097 124.02719 
L 560.571377 111.296398 
L 564.588657 99.271604 
L 568.605937 88.106452 
L 571.284124 81.211555 
L 573.962311 74.801568 
L 576.640498 68.912914 
L 579.318684 63.579055 
L 581.996871 58.830297 
L 584.675058 54.693625 
L 587.353245 51.192543 
L 590.031432 48.346946 
L 591.370525 47.175155 
L 592.709618 46.173002 
L 594.048712 45.341912 
L 595.387805 44.683065 
L 596.726898 44.197398 
L 598.065992 43.885601 
L 599.405085 43.748117 
L 600.744179 43.785141 
L 602.083272 43.996621 
L 603.422365 44.382255 
L 604.761459 44.941498 
L 606.100552 45.673552 
L 607.439646 46.577379 
L 608.778739 47.651693 
L 610.117832 48.894969 
L 611.456926 50.305439 
L 614.135112 53.619709 
L 616.813299 57.575673 
L 619.491486 62.150851 
L 622.169673 67.319246 
L 624.84786 73.051491 
L 627.526046 79.315013 
L 630.204233 86.074222 
L 632.88242 93.290711 
L 636.8997 104.882491 
L 640.91698 117.262222 
L 646.273354 134.719632 
L 652.968821 157.509199 
L 664.337309 196.501405 
L 669.693683 214.053507 
L 673.710963 226.530988 
L 677.728243 238.24207 
L 681.745523 249.037116 
L 684.42371 255.656254 
L 687.101897 261.769073 
L 689.780084 267.340839 
L 692.458271 272.339891 
L 695.136457 276.737825 
L 697.814644 280.50965 
L 700.492831 283.633934 
L 701.831924 284.947553 
L 703.171018 286.092924 
L 704.510111 287.068417 
L 705.849204 287.872647 
L 707.188298 288.504472 
L 708.527391 288.962992 
L 709.866485 289.247557 
L 711.205578 289.357762 
L 712.544671 289.293451 
L 713.883765 289.054715 
L 715.222858 288.641892 
L 716.561951 288.055571 
L 717.901045 287.296584 
L 719.240138 286.366009 
L 720.579232 285.26517 
L 721.918325 283.995629 
L 723.257418 282.559193 
L 725.935605 279.194029 
L 728.613792 275.188799 
L 731.291979 270.566263 
L 733.970165 265.352686 
L 736.648352 259.577693 
L 739.326539 253.274098 
L 742.004726 246.47772 
L 744.682912 239.227178 
L 748.700193 227.590576 
L 752.717473 215.174037 
L 758.073846 197.68081 
L 764.769313 174.868865 
L 767.4475 165.615654 
L 767.4475 165.615654 
" style="fill:none;stroke:#2ca02c;stroke-linecap:square;stroke-width:1.5;"/>
   </g>
   <g id="patch_3">
    <path d="M 64.21 301.64 
L 64.21 31.46 
" style="fill:none;stroke:#000000;stroke-linecap:square;stroke-linejoin:miter;stroke-width:0.8;"/>
   </g>
   <g id="patch_4">
    <path d="M 800.935 301.64 
L 800.935 31.46 
" style="fill:none;stroke:#000000;stroke-linecap:square;stroke-linejoin:miter;stroke-width:0.8;"/>
   </g>
   <g id="patch_5">
    <path d="M 64.21 301.64 
L 800.935 301.64 
" style="fill:none;stroke:#000000;stroke-linecap:square;stroke-linejoin:miter;stroke-width:0.8;"/>
   </g>
   <g id="patch_6">
    <path d="M 64.21 31.46 
L 800.935 31.46 
" style="fill:none;stroke:#000000;stroke-linecap:square;stroke-linejoin:miter;stroke-width:0.8;"/>
   </g>
   <g id="text_14">
    <!-- Circuito Corriente Alterna - ($\mathrm{10v}$) - VAC:$\mathrm{120v}$-$\mathrm{60Hz}$ R:$\mathrm{10k\Omega}$ - Ahkab -->
    <g transform="translate(192.5245 25.46)scale(0.144 -0.144)">
     <defs>
      <path d="M 64.40625 67.28125 
L 64.40625 56.890625 
Q 59.421875 61.53125 53.78125 63.8125 
Q 48.140625 66.109375 41.796875 66.109375 
Q 29.296875 66.109375 22.65625 58.46875 
Q 16.015625 50.828125 16.015625 36.375 
Q 16.015625 21.96875 22.65625 14.328125 
Q 29.296875 6.6875 41.796875 6.6875 
Q 48.140625 6.6875 53.78125 8.984375 
Q 59.421875 11.28125 64.40625 15.921875 
L 64.40625 5.609375 
Q 59.234375 2.09375 53.4375 0.328125 
Q 47.65625 -1.421875 41.21875 -1.421875 
Q 24.65625 -1.421875 15.125 8.703125 
Q 5.609375 18.84375 5.609375 36.375 
Q 5.609375 53.953125 15.125 64.078125 
Q 24.65625 74.21875 41.21875 74.21875 
Q 47.75 74.21875 53.53125 72.484375 
Q 59.328125 70.75 64.40625 67.28125 
z
" id="DejaVuSans-67"/>
      <path d="M 41.109375 46.296875 
Q 39.59375 47.171875 37.8125 47.578125 
Q 36.03125 48 33.890625 48 
Q 26.265625 48 22.1875 43.046875 
Q 18.109375 38.09375 18.109375 28.8125 
L 18.109375 0 
L 9.078125 0 
L 9.078125 54.6875 
L 18.109375 54.6875 
L 18.109375 46.1875 
Q 20.953125 51.171875 25.484375 53.578125 
Q 30.03125 56 36.53125 56 
Q 37.453125 56 38.578125 55.875 
Q 39.703125 55.765625 41.0625 55.515625 
z
" id="DejaVuSans-114"/>
      <path d="M 48.78125 52.59375 
L 48.78125 44.1875 
Q 44.96875 46.296875 41.140625 47.34375 
Q 37.3125 48.390625 33.40625 48.390625 
Q 24.65625 48.390625 19.8125 42.84375 
Q 14.984375 37.3125 14.984375 27.296875 
Q 14.984375 17.28125 19.8125 11.734375 
Q 24.65625 6.203125 33.40625 6.203125 
Q 37.3125 6.203125 41.140625 7.25 
Q 44.96875 8.296875 48.78125 10.40625 
L 48.78125 2.09375 
Q 45.015625 0.34375 40.984375 -0.53125 
Q 36.96875 -1.421875 32.421875 -1.421875 
Q 20.0625 -1.421875 12.78125 6.34375 
Q 5.515625 14.109375 5.515625 27.296875 
Q 5.515625 40.671875 12.859375 48.328125 
Q 20.21875 56 33.015625 56 
Q 37.15625 56 41.109375 55.140625 
Q 45.0625 54.296875 48.78125 52.59375 
z
" id="DejaVuSans-99"/>
      <path d="M 8.5 21.578125 
L 8.5 54.6875 
L 17.484375 54.6875 
L 17.484375 21.921875 
Q 17.484375 14.15625 20.5 10.265625 
Q 23.53125 6.390625 29.59375 6.390625 
Q 36.859375 6.390625 41.078125 11.03125 
Q 45.3125 15.671875 45.3125 23.6875 
L 45.3125 54.6875 
L 54.296875 54.6875 
L 54.296875 0 
L 45.3125 0 
L 45.3125 8.40625 
Q 42.046875 3.421875 37.71875 1 
Q 33.40625 -1.421875 27.6875 -1.421875 
Q 18.265625 -1.421875 13.375 4.4375 
Q 8.5 10.296875 8.5 21.578125 
z
M 31.109375 56 
z
" id="DejaVuSans-117"/>
      <path d="M 54.890625 33.015625 
L 54.890625 0 
L 45.90625 0 
L 45.90625 32.71875 
Q 45.90625 40.484375 42.875 44.328125 
Q 39.84375 48.1875 33.796875 48.1875 
Q 26.515625 48.1875 22.3125 43.546875 
Q 18.109375 38.921875 18.109375 30.90625 
L 18.109375 0 
L 9.078125 0 
L 9.078125 54.6875 
L 18.109375 54.6875 
L 18.109375 46.1875 
Q 21.34375 51.125 25.703125 53.5625 
Q 30.078125 56 35.796875 56 
Q 45.21875 56 50.046875 50.171875 
Q 54.890625 44.34375 54.890625 33.015625 
z
" id="DejaVuSans-110"/>
      <path d="M 34.1875 63.1875 
L 20.796875 26.90625 
L 47.609375 26.90625 
z
M 28.609375 72.90625 
L 39.796875 72.90625 
L 67.578125 0 
L 57.328125 0 
L 50.6875 18.703125 
L 17.828125 18.703125 
L 11.1875 0 
L 0.78125 0 
z
" id="DejaVuSans-65"/>
      <path d="M 4.890625 31.390625 
L 31.203125 31.390625 
L 31.203125 23.390625 
L 4.890625 23.390625 
z
" id="DejaVuSans-45"/>
      <path d="M 2.984375 54.6875 
L 12.5 54.6875 
L 29.59375 8.796875 
L 46.6875 54.6875 
L 56.203125 54.6875 
L 35.6875 0 
L 23.484375 0 
z
" id="DejaVuSans-118"/>
      <path d="M 11.71875 12.40625 
L 22.015625 12.40625 
L 22.015625 0 
L 11.71875 0 
z
M 11.71875 51.703125 
L 22.015625 51.703125 
L 22.015625 39.3125 
L 11.71875 39.3125 
z
" id="DejaVuSans-58"/>
      <path d="M 33.015625 40.375 
Q 26.375 40.375 22.484375 35.828125 
Q 18.609375 31.296875 18.609375 23.390625 
Q 18.609375 15.53125 22.484375 10.953125 
Q 26.375 6.390625 33.015625 6.390625 
Q 39.65625 6.390625 43.53125 10.953125 
Q 47.40625 15.53125 47.40625 23.390625 
Q 47.40625 31.296875 43.53125 35.828125 
Q 39.65625 40.375 33.015625 40.375 
z
M 52.59375 71.296875 
L 52.59375 62.3125 
Q 48.875 64.0625 45.09375 64.984375 
Q 41.3125 65.921875 37.59375 65.921875 
Q 27.828125 65.921875 22.671875 59.328125 
Q 17.53125 52.734375 16.796875 39.40625 
Q 19.671875 43.65625 24.015625 45.921875 
Q 28.375 48.1875 33.59375 48.1875 
Q 44.578125 48.1875 50.953125 41.515625 
Q 57.328125 34.859375 57.328125 23.390625 
Q 57.328125 12.15625 50.6875 5.359375 
Q 44.046875 -1.421875 33.015625 -1.421875 
Q 20.359375 -1.421875 13.671875 8.265625 
Q 6.984375 17.96875 6.984375 36.375 
Q 6.984375 53.65625 15.1875 63.9375 
Q 23.390625 74.21875 37.203125 74.21875 
Q 40.921875 74.21875 44.703125 73.484375 
Q 48.484375 72.75 52.59375 71.296875 
z
" id="DejaVuSans-54"/>
      <path d="M 9.8125 72.90625 
L 19.671875 72.90625 
L 19.671875 43.015625 
L 55.515625 43.015625 
L 55.515625 72.90625 
L 65.375 72.90625 
L 65.375 0 
L 55.515625 0 
L 55.515625 34.71875 
L 19.671875 34.71875 
L 19.671875 0 
L 9.8125 0 
z
" id="DejaVuSans-72"/>
      <path d="M 5.515625 54.6875 
L 48.1875 54.6875 
L 48.1875 46.484375 
L 14.40625 7.171875 
L 48.1875 7.171875 
L 48.1875 0 
L 4.296875 0 
L 4.296875 8.203125 
L 38.09375 47.515625 
L 5.515625 47.515625 
z
" id="DejaVuSans-122"/>
      <path d="M 44.390625 34.1875 
Q 47.5625 33.109375 50.5625 29.59375 
Q 53.5625 26.078125 56.59375 19.921875 
L 66.609375 0 
L 56 0 
L 46.6875 18.703125 
Q 43.0625 26.03125 39.671875 28.421875 
Q 36.28125 30.8125 30.421875 30.8125 
L 19.671875 30.8125 
L 19.671875 0 
L 9.8125 0 
L 9.8125 72.90625 
L 32.078125 72.90625 
Q 44.578125 72.90625 50.734375 67.671875 
Q 56.890625 62.453125 56.890625 51.90625 
Q 56.890625 45.015625 53.6875 40.46875 
Q 50.484375 35.9375 44.390625 34.1875 
z
M 19.671875 64.796875 
L 19.671875 38.921875 
L 32.078125 38.921875 
Q 39.203125 38.921875 42.84375 42.21875 
Q 46.484375 45.515625 46.484375 51.90625 
Q 46.484375 58.296875 42.84375 61.546875 
Q 39.203125 64.796875 32.078125 64.796875 
z
" id="DejaVuSans-82"/>
      <path d="M 9.078125 75.984375 
L 18.109375 75.984375 
L 18.109375 31.109375 
L 44.921875 54.6875 
L 56.390625 54.6875 
L 27.390625 29.109375 
L 57.625 0 
L 45.90625 0 
L 18.109375 26.703125 
L 18.109375 0 
L 9.078125 0 
z
" id="DejaVuSans-107"/>
      <path d="M 72.609375 8.6875 
L 72.609375 0 
L 43.3125 0 
L 43.3125 8.6875 
Q 51.953125 13.421875 56.78125 21.53125 
Q 61.625 29.640625 61.625 39.5 
Q 61.625 51.21875 55.171875 58.296875 
Q 48.734375 65.375 38.1875 65.375 
Q 27.640625 65.375 21.171875 58.265625 
Q 14.703125 51.171875 14.703125 39.5 
Q 14.703125 29.640625 19.53125 21.53125 
Q 24.421875 13.421875 33.109375 8.6875 
L 33.109375 0 
L 3.8125 0 
L 3.8125 8.6875 
L 19.390625 8.6875 
Q 11.671875 15.484375 8.109375 22.75 
Q 4.59375 30.03125 4.59375 39.015625 
Q 4.59375 54.546875 13.96875 64.15625 
Q 23.296875 73.78125 38.1875 73.78125 
Q 52.984375 73.78125 62.40625 64.15625 
Q 71.78125 54.59375 71.78125 39.5 
Q 71.78125 30.03125 68.3125 22.796875 
Q 64.84375 15.578125 56.984375 8.6875 
z
" id="DejaVuSans-937"/>
      <path d="M 54.890625 33.015625 
L 54.890625 0 
L 45.90625 0 
L 45.90625 32.71875 
Q 45.90625 40.484375 42.875 44.328125 
Q 39.84375 48.1875 33.796875 48.1875 
Q 26.515625 48.1875 22.3125 43.546875 
Q 18.109375 38.921875 18.109375 30.90625 
L 18.109375 0 
L 9.078125 0 
L 9.078125 75.984375 
L 18.109375 75.984375 
L 18.109375 46.1875 
Q 21.34375 51.125 25.703125 53.5625 
Q 30.078125 56 35.796875 56 
Q 45.21875 56 50.046875 50.171875 
Q 54.890625 44.34375 54.890625 33.015625 
z
" id="DejaVuSans-104"/>
      <path d="M 48.6875 27.296875 
Q 48.6875 37.203125 44.609375 42.84375 
Q 40.53125 48.484375 33.40625 48.484375 
Q 26.265625 48.484375 22.1875 42.84375 
Q 18.109375 37.203125 18.109375 27.296875 
Q 18.109375 17.390625 22.1875 11.75 
Q 26.265625 6.109375 33.40625 6.109375 
Q 40.53125 6.109375 44.609375 11.75 
Q 48.6875 17.390625 48.6875 27.296875 
z
M 18.109375 46.390625 
Q 20.953125 51.265625 25.265625 53.625 
Q 29.59375 56 35.59375 56 
Q 45.5625 56 51.78125 48.09375 
Q 58.015625 40.1875 58.015625 27.296875 
Q 58.015625 14.40625 51.78125 6.484375 
Q 45.5625 -1.421875 35.59375 -1.421875 
Q 29.59375 -1.421875 25.265625 0.953125 
Q 20.953125 3.328125 18.109375 8.203125 
L 18.109375 0 
L 9.078125 0 
L 9.078125 75.984375 
L 18.109375 75.984375 
z
" id="DejaVuSans-98"/>
     </defs>
     <use transform="translate(0 0.015625)" xlink:href="#DejaVuSans-67"/>
     <use transform="translate(69.824219 0.015625)" xlink:href="#DejaVuSans-105"/>
     <use transform="translate(97.607422 0.015625)" xlink:href="#DejaVuSans-114"/>
     <use transform="translate(138.720703 0.015625)" xlink:href="#DejaVuSans-99"/>
     <use transform="translate(193.701172 0.015625)" xlink:href="#DejaVuSans-117"/>
     <use transform="translate(257.080078 0.015625)" xlink:href="#DejaVuSans-105"/>
     <use transform="translate(284.863281 0.015625)" xlink:href="#DejaVuSans-116"/>
     <use transform="translate(324.072266 0.015625)" xlink:href="#DejaVuSans-111"/>
     <use transform="translate(385.253906 0.015625)" xlink:href="#DejaVuSans-32"/>
     <use transform="translate(417.041016 0.015625)" xlink:href="#DejaVuSans-67"/>
     <use transform="translate(486.865234 0.015625)" xlink:href="#DejaVuSans-111"/>
     <use transform="translate(548.046875 0.015625)" xlink:href="#DejaVuSans-114"/>
     <use transform="translate(589.160156 0.015625)" xlink:href="#DejaVuSans-114"/>
     <use transform="translate(630.273438 0.015625)" xlink:href="#DejaVuSans-105"/>
     <use transform="translate(658.056641 0.015625)" xlink:href="#DejaVuSans-101"/>
     <use transform="translate(719.580078 0.015625)" xlink:href="#DejaVuSans-110"/>
     <use transform="translate(782.958984 0.015625)" xlink:href="#DejaVuSans-116"/>
     <use transform="translate(822.167969 0.015625)" xlink:href="#DejaVuSans-101"/>
     <use transform="translate(883.691406 0.015625)" xlink:href="#DejaVuSans-32"/>
     <use transform="translate(915.478516 0.015625)" xlink:href="#DejaVuSans-65"/>
     <use transform="translate(983.886719 0.015625)" xlink:href="#DejaVuSans-108"/>
     <use transform="translate(1011.669922 0.015625)" xlink:href="#DejaVuSans-116"/>
     <use transform="translate(1050.878906 0.015625)" xlink:href="#DejaVuSans-101"/>
     <use transform="translate(1112.402344 0.015625)" xlink:href="#DejaVuSans-114"/>
     <use transform="translate(1153.515625 0.015625)" xlink:href="#DejaVuSans-110"/>
     <use transform="translate(1216.894531 0.015625)" xlink:href="#DejaVuSans-97"/>
     <use transform="translate(1278.173828 0.015625)" xlink:href="#DejaVuSans-32"/>
     <use transform="translate(1309.960938 0.015625)" xlink:href="#DejaVuSans-45"/>
     <use transform="translate(1346.044922 0.015625)" xlink:href="#DejaVuSans-32"/>
     <use transform="translate(1377.832031 0.015625)" xlink:href="#DejaVuSans-40"/>
     <use transform="translate(1416.845703 0.015625)" xlink:href="#DejaVuSans-49"/>
     <use transform="translate(1480.46875 0.015625)" xlink:href="#DejaVuSans-48"/>
     <use transform="translate(1544.091797 0.015625)" xlink:href="#DejaVuSans-118"/>
     <use transform="translate(1603.271484 0.015625)" xlink:href="#DejaVuSans-41"/>
     <use transform="translate(1642.285156 0.015625)" xlink:href="#DejaVuSans-32"/>
     <use transform="translate(1674.072266 0.015625)" xlink:href="#DejaVuSans-45"/>
     <use transform="translate(1710.15625 0.015625)" xlink:href="#DejaVuSans-32"/>
     <use transform="translate(1741.943359 0.015625)" xlink:href="#DejaVuSans-86"/>
     <use transform="translate(1810.351562 0.015625)" xlink:href="#DejaVuSans-65"/>
     <use transform="translate(1878.759766 0.015625)" xlink:href="#DejaVuSans-67"/>
     <use transform="translate(1948.583984 0.015625)" xlink:href="#DejaVuSans-58"/>
     <use transform="translate(1982.275391 0.015625)" xlink:href="#DejaVuSans-49"/>
     <use transform="translate(2045.898438 0.015625)" xlink:href="#DejaVuSans-50"/>
     <use transform="translate(2109.521484 0.015625)" xlink:href="#DejaVuSans-48"/>
     <use transform="translate(2173.144531 0.015625)" xlink:href="#DejaVuSans-118"/>
     <use transform="translate(2232.324219 0.015625)" xlink:href="#DejaVuSans-45"/>
     <use transform="translate(2268.408203 0.015625)" xlink:href="#DejaVuSans-54"/>
     <use transform="translate(2332.03125 0.015625)" xlink:href="#DejaVuSans-48"/>
     <use transform="translate(2395.654297 0.015625)" xlink:href="#DejaVuSans-72"/>
     <use transform="translate(2470.849609 0.015625)" xlink:href="#DejaVuSans-122"/>
     <use transform="translate(2523.339844 0.015625)" xlink:href="#DejaVuSans-32"/>
     <use transform="translate(2555.126953 0.015625)" xlink:href="#DejaVuSans-82"/>
     <use transform="translate(2624.609375 0.015625)" xlink:href="#DejaVuSans-58"/>
     <use transform="translate(2658.300781 0.015625)" xlink:href="#DejaVuSans-49"/>
     <use transform="translate(2721.923828 0.015625)" xlink:href="#DejaVuSans-48"/>
     <use transform="translate(2785.546875 0.015625)" xlink:href="#DejaVuSans-107"/>
     <use transform="translate(2843.457031 0.015625)" xlink:href="#DejaVuSans-937"/>
     <use transform="translate(2919.873047 0.015625)" xlink:href="#DejaVuSans-32"/>
     <use transform="translate(2951.660156 0.015625)" xlink:href="#DejaVuSans-45"/>
     <use transform="translate(2987.744141 0.015625)" xlink:href="#DejaVuSans-32"/>
     <use transform="translate(3019.53125 0.015625)" xlink:href="#DejaVuSans-65"/>
     <use transform="translate(3087.939453 0.015625)" xlink:href="#DejaVuSans-104"/>
     <use transform="translate(3151.318359 0.015625)" xlink:href="#DejaVuSans-107"/>
     <use transform="translate(3209.228516 0.015625)" xlink:href="#DejaVuSans-97"/>
     <use transform="translate(3270.507812 0.015625)" xlink:href="#DejaVuSans-98"/>
    </g>
   </g>
  </g>
  <g id="axes_2">
   <g id="matplotlib.axis_3">
    <g id="ytick_6">
     <g id="line2d_13">
      <path clip-path="url(#pa51b0a9327)" d="M 64.21 268.890915 
L 800.935 268.890915 
" style="fill:none;stroke:#b0b0b0;stroke-linecap:square;stroke-width:0.8;"/>
     </g>
     <g id="line2d_14">
      <defs>
       <path d="M 0 0 
L 3.5 0 
" id="m618853a031" style="stroke:#000000;stroke-width:0.8;"/>
      </defs>
      <g>
       <use style="stroke:#000000;stroke-width:0.8;" x="800.935" xlink:href="#m618853a031" y="268.890915"/>
      </g>
     </g>
     <g id="text_15">
      <!-- −0.010 -->
      <g style="fill:#d62728;" transform="translate(807.935 273.070055)scale(0.11 -0.11)">
       <use xlink:href="#DejaVuSans-8722"/>
       <use x="83.789062" xlink:href="#DejaVuSans-48"/>
       <use x="147.412109" xlink:href="#DejaVuSans-46"/>
       <use x="179.199219" xlink:href="#DejaVuSans-48"/>
       <use x="242.822266" xlink:href="#DejaVuSans-49"/>
       <use x="306.445312" xlink:href="#DejaVuSans-48"/>
      </g>
     </g>
    </g>
    <g id="ytick_7">
     <g id="line2d_15">
      <path clip-path="url(#pa51b0a9327)" d="M 64.21 217.720418 
L 800.935 217.720418 
" style="fill:none;stroke:#b0b0b0;stroke-linecap:square;stroke-width:0.8;"/>
     </g>
     <g id="line2d_16">
      <g>
       <use style="stroke:#000000;stroke-width:0.8;" x="800.935" xlink:href="#m618853a031" y="217.720418"/>
      </g>
     </g>
     <g id="text_16">
      <!-- −0.005 -->
      <g style="fill:#d62728;" transform="translate(807.935 221.899559)scale(0.11 -0.11)">
       <use xlink:href="#DejaVuSans-8722"/>
       <use x="83.789062" xlink:href="#DejaVuSans-48"/>
       <use x="147.412109" xlink:href="#DejaVuSans-46"/>
       <use x="179.199219" xlink:href="#DejaVuSans-48"/>
       <use x="242.822266" xlink:href="#DejaVuSans-48"/>
       <use x="306.445312" xlink:href="#DejaVuSans-53"/>
      </g>
     </g>
    </g>
    <g id="ytick_8">
     <g id="line2d_17">
      <path clip-path="url(#pa51b0a9327)" d="M 64.21 166.549922 
L 800.935 166.549922 
" style="fill:none;stroke:#b0b0b0;stroke-linecap:square;stroke-width:0.8;"/>
     </g>
     <g id="line2d_18">
      <g>
       <use style="stroke:#000000;stroke-width:0.8;" x="800.935" xlink:href="#m618853a031" y="166.549922"/>
      </g>
     </g>
     <g id="text_17">
      <!-- 0.000 -->
      <g style="fill:#d62728;" transform="translate(807.935 170.729062)scale(0.11 -0.11)">
       <use xlink:href="#DejaVuSans-48"/>
       <use x="63.623047" xlink:href="#DejaVuSans-46"/>
       <use x="95.410156" xlink:href="#DejaVuSans-48"/>
       <use x="159.033203" xlink:href="#DejaVuSans-48"/>
       <use x="222.65625" xlink:href="#DejaVuSans-48"/>
      </g>
     </g>
    </g>
    <g id="ytick_9">
     <g id="line2d_19">
      <path clip-path="url(#pa51b0a9327)" d="M 64.21 115.379425 
L 800.935 115.379425 
" style="fill:none;stroke:#b0b0b0;stroke-linecap:square;stroke-width:0.8;"/>
     </g>
     <g id="line2d_20">
      <g>
       <use style="stroke:#000000;stroke-width:0.8;" x="800.935" xlink:href="#m618853a031" y="115.379425"/>
      </g>
     </g>
     <g id="text_18">
      <!-- 0.005 -->
      <g style="fill:#d62728;" transform="translate(807.935 119.558566)scale(0.11 -0.11)">
       <use xlink:href="#DejaVuSans-48"/>
       <use x="63.623047" xlink:href="#DejaVuSans-46"/>
       <use x="95.410156" xlink:href="#DejaVuSans-48"/>
       <use x="159.033203" xlink:href="#DejaVuSans-48"/>
       <use x="222.65625" xlink:href="#DejaVuSans-53"/>
      </g>
     </g>
    </g>
    <g id="ytick_10">
     <g id="line2d_21">
      <path clip-path="url(#pa51b0a9327)" d="M 64.21 64.208928 
L 800.935 64.208928 
" style="fill:none;stroke:#b0b0b0;stroke-linecap:square;stroke-width:0.8;"/>
     </g>
     <g id="line2d_22">
      <g>
       <use style="stroke:#000000;stroke-width:0.8;" x="800.935" xlink:href="#m618853a031" y="64.208928"/>
      </g>
     </g>
     <g id="text_19">
      <!-- 0.010 -->
      <g style="fill:#d62728;" transform="translate(807.935 68.388069)scale(0.11 -0.11)">
       <use xlink:href="#DejaVuSans-48"/>
       <use x="63.623047" xlink:href="#DejaVuSans-46"/>
       <use x="95.410156" xlink:href="#DejaVuSans-48"/>
       <use x="159.033203" xlink:href="#DejaVuSans-49"/>
       <use x="222.65625" xlink:href="#DejaVuSans-48"/>
      </g>
     </g>
    </g>
    <g id="text_20">
     <!-- Corriente (A) -->
     <g style="fill:#d62728;" transform="translate(861.001875 201.921875)rotate(-90)scale(0.11 -0.11)">
      <use xlink:href="#DejaVuSans-67"/>
      <use x="69.824219" xlink:href="#DejaVuSans-111"/>
      <use x="131.005859" xlink:href="#DejaVuSans-114"/>
      <use x="170.369141" xlink:href="#DejaVuSans-114"/>
      <use x="211.482422" xlink:href="#DejaVuSans-105"/>
      <use x="239.265625" xlink:href="#DejaVuSans-101"/>
      <use x="300.789062" xlink:href="#DejaVuSans-110"/>
      <use x="364.167969" xlink:href="#DejaVuSans-116"/>
      <use x="403.376953" xlink:href="#DejaVuSans-101"/>
      <use x="464.900391" xlink:href="#DejaVuSans-32"/>
      <use x="496.6875" xlink:href="#DejaVuSans-40"/>
      <use x="535.701172" xlink:href="#DejaVuSans-65"/>
      <use x="604.109375" xlink:href="#DejaVuSans-41"/>
     </g>
    </g>
   </g>
   <g id="line2d_23">
    <path clip-path="url(#pa51b0a9327)" d="M 97.6975 166.781435 
L 106.535731 197.017321 
L 111.892104 214.543891 
L 115.909384 226.994876 
L 119.926664 238.673532 
L 122.604851 245.956077 
L 125.283038 252.78742 
L 127.961225 259.128744 
L 130.639412 264.944018 
L 133.317598 270.200196 
L 135.995785 274.867413 
L 138.673972 278.919148 
L 141.352159 282.332379 
L 142.691252 283.793349 
L 144.030345 285.087711 
L 145.369439 286.213623 
L 146.708532 287.169487 
L 148.047626 287.953944 
L 149.386719 288.565879 
L 150.725812 289.004423 
L 152.064906 289.268952 
L 153.403999 289.359091 
L 154.743092 289.274711 
L 156.082186 289.015933 
L 157.421279 288.583123 
L 158.760373 287.976898 
L 160.099466 287.198119 
L 161.438559 286.247891 
L 162.777653 285.127567 
L 164.116746 283.838737 
L 165.455839 282.383233 
L 168.134026 278.980711 
L 170.812213 274.939336 
L 173.4904 270.28207 
L 176.168587 265.035377 
L 178.846773 259.22907 
L 181.52496 252.896142 
L 184.203147 246.072577 
L 186.881334 238.797149 
L 190.898614 227.127839 
L 194.915894 214.684502 
L 200.272267 197.165319 
L 206.967734 174.337422 
L 219.019575 133.102419 
L 224.375948 115.730332 
L 228.393229 103.437544 
L 232.410509 91.951167 
L 235.088695 84.814547 
L 237.766882 78.142363 
L 240.445069 71.972529 
L 243.123256 66.340103 
L 245.801443 61.277088 
L 248.479629 56.812255 
L 251.157816 52.970973 
L 253.836003 49.77507 
L 255.175096 48.424956 
L 256.51419 47.242704 
L 257.853283 46.229994 
L 259.192376 45.388266 
L 260.53147 44.718715 
L 261.870563 44.222292 
L 263.209656 43.899704 
L 264.54875 43.751409 
L 265.887843 43.777617 
L 267.226937 43.978291 
L 268.56603 44.353146 
L 269.905123 44.90165 
L 271.244217 45.623022 
L 272.58331 46.516238 
L 273.922404 47.580029 
L 275.261497 48.812882 
L 276.60059 50.213046 
L 279.278777 53.507112 
L 281.956964 57.443511 
L 284.635151 61.999873 
L 287.313337 67.15031 
L 289.991524 72.865556 
L 292.669711 79.113134 
L 295.347898 85.857546 
L 298.026084 93.060468 
L 302.043365 104.634372 
L 306.060645 116.999393 
L 311.417018 134.442438 
L 318.112485 157.222917 
L 330.247315 198.786851 
L 335.603689 216.223148 
L 339.620969 228.581271 
L 343.638249 240.146796 
L 346.316436 247.343362 
L 348.994623 254.080844 
L 351.672809 260.320958 
L 354.350996 266.028246 
L 357.029183 271.170278 
L 359.70737 275.717837 
L 362.385556 279.645082 
L 365.063743 282.929697 
L 366.402836 284.325041 
L 367.74193 285.55302 
L 369.081023 286.611889 
L 370.420117 287.500143 
L 371.75921 288.21652 
L 373.098303 288.760003 
L 374.437397 289.129818 
L 375.77649 289.32544 
L 377.115584 289.346592 
L 378.454677 289.193243 
L 379.79377 288.865611 
L 381.132864 288.364162 
L 382.471957 287.689608 
L 383.81105 286.842908 
L 385.150144 285.825265 
L 386.489237 284.638126 
L 387.828331 283.283176 
L 390.506517 280.077785 
L 393.184704 276.227307 
L 395.862891 271.753619 
L 398.541078 266.682143 
L 401.219264 261.041696 
L 403.897451 254.864327 
L 406.575638 248.185139 
L 409.253825 241.042083 
L 413.271105 229.547198 
L 417.288385 217.247374 
L 421.305665 204.299768 
L 426.662039 186.315505 
L 444.070253 126.935762 
L 448.087533 114.069895 
L 452.104813 101.874585 
L 456.122093 90.505656 
L 458.80028 83.457698 
L 461.478467 76.881887 
L 464.156654 70.815588 
L 466.83484 65.29327 
L 469.513027 60.346312 
L 472.191214 56.002825 
L 474.869401 52.287488 
L 477.547587 49.221414 
L 478.886681 47.937441 
L 480.225774 46.822023 
L 481.564867 45.876745 
L 482.903961 45.10295 
L 484.243054 44.501738 
L 485.582148 44.073963 
L 486.921241 43.820233 
L 488.260334 43.740909 
L 489.599428 43.836103 
L 490.938521 44.10568 
L 492.277615 44.549257 
L 493.616708 45.166204 
L 494.955801 45.955644 
L 496.294895 46.916454 
L 497.633988 48.047271 
L 498.973081 49.346486 
L 501.651268 52.442491 
L 504.329455 56.186877 
L 507.007642 60.558367 
L 509.685829 65.532123 
L 512.364015 71.079883 
L 515.042202 77.170122 
L 517.720389 83.768235 
L 520.398576 90.836729 
L 524.415856 102.232903 
L 528.433136 114.45088 
L 532.450416 127.334546 
L 537.80679 145.262792 
L 556.554097 209.07281 
L 560.571377 221.803602 
L 564.588657 233.828396 
L 568.605937 244.993548 
L 571.284124 251.888445 
L 573.962311 258.298432 
L 576.640498 264.187086 
L 579.318684 269.520945 
L 581.996871 274.269703 
L 584.675058 278.406375 
L 587.353245 281.907457 
L 590.031432 284.753054 
L 591.370525 285.924845 
L 592.709618 286.926998 
L 594.048712 287.758088 
L 595.387805 288.416935 
L 596.726898 288.902602 
L 598.065992 289.214399 
L 599.405085 289.351883 
L 600.744179 289.314859 
L 602.083272 289.103379 
L 603.422365 288.717745 
L 604.761459 288.158502 
L 606.100552 287.426448 
L 607.439646 286.522621 
L 608.778739 285.448307 
L 610.117832 284.205031 
L 611.456926 282.794561 
L 614.135112 279.480291 
L 616.813299 275.524327 
L 619.491486 270.949149 
L 622.169673 265.780754 
L 624.84786 260.048509 
L 627.526046 253.784987 
L 630.204233 247.025778 
L 632.88242 239.809289 
L 636.8997 228.217509 
L 640.91698 215.837778 
L 646.273354 198.380368 
L 652.968821 175.590801 
L 664.337309 136.598595 
L 669.693683 119.046493 
L 673.710963 106.569012 
L 677.728243 94.85793 
L 681.745523 84.062884 
L 684.42371 77.443746 
L 687.101897 71.330927 
L 689.780084 65.759161 
L 692.458271 60.760109 
L 695.136457 56.362175 
L 697.814644 52.59035 
L 700.492831 49.466066 
L 701.831924 48.152447 
L 703.171018 47.007076 
L 704.510111 46.031583 
L 705.849204 45.227353 
L 707.188298 44.595528 
L 708.527391 44.137008 
L 709.866485 43.852443 
L 711.205578 43.742238 
L 712.544671 43.806549 
L 713.883765 44.045285 
L 715.222858 44.458108 
L 716.561951 45.044429 
L 717.901045 45.803416 
L 719.240138 46.733991 
L 720.579232 47.83483 
L 721.918325 49.104371 
L 723.257418 50.540807 
L 725.935605 53.905971 
L 728.613792 57.911201 
L 731.291979 62.533737 
L 733.970165 67.747314 
L 736.648352 73.522307 
L 739.326539 79.825902 
L 742.004726 86.62228 
L 744.682912 93.872822 
L 748.700193 105.509424 
L 752.717473 117.925963 
L 758.073846 135.41919 
L 764.769313 158.231135 
L 767.4475 167.484346 
L 767.4475 167.484346 
" style="fill:none;stroke:#d62728;stroke-linecap:square;stroke-width:1.5;"/>
   </g>
   <g id="patch_7">
    <path d="M 64.21 301.64 
L 64.21 31.46 
" style="fill:none;stroke:#000000;stroke-linecap:square;stroke-linejoin:miter;stroke-width:0.8;"/>
   </g>
   <g id="patch_8">
    <path d="M 800.935 301.64 
L 800.935 31.46 
" style="fill:none;stroke:#000000;stroke-linecap:square;stroke-linejoin:miter;stroke-width:0.8;"/>
   </g>
   <g id="patch_9">
    <path d="M 64.21 301.64 
L 800.935 301.64 
" style="fill:none;stroke:#000000;stroke-linecap:square;stroke-linejoin:miter;stroke-width:0.8;"/>
   </g>
   <g id="patch_10">
    <path d="M 64.21 31.46 
L 800.935 31.46 
" style="fill:none;stroke:#000000;stroke-linecap:square;stroke-linejoin:miter;stroke-width:0.8;"/>
   </g>
  </g>
 </g>
 <defs>
  <clipPath id="pa51b0a9327">
   <rect height="270.18" width="736.725" x="64.21" y="31.46"/>
  </clipPath>
 </defs>
</svg>
