<?xml version="1.0" encoding="utf-8" standalone="no"?>
<!DOCTYPE svg PUBLIC "-//W3C//DTD SVG 1.1//EN"
  "http://www.w3.org/Graphics/SVG/1.1/DTD/svg11.dtd">
<!-- Created with matplotlib (https://matplotlib.org/) -->
<svg height="328.32pt" version="1.1" viewBox="0 0 933.12 328.32" width="933.12pt" xmlns="http://www.w3.org/2000/svg" xmlns:xlink="http://www.w3.org/1999/xlink">
 <metadata>
  <rdf:RDF xmlns:cc="http://creativecommons.org/ns#" xmlns:dc="http://purl.org/dc/elements/1.1/" xmlns:rdf="http://www.w3.org/1999/02/22-rdf-syntax-ns#">
   <cc:Work>
    <dc:type rdf:resource="http://purl.org/dc/dcmitype/StillImage"/>
    <dc:date>2021-01-02T19:51:36.450765</dc:date>
    <dc:format>image/svg+xml</dc:format>
    <dc:creator>
     <cc:Agent>
      <dc:title>Matplotlib v3.3.3, https://matplotlib.org/</dc:title>
     </cc:Agent>
    </dc:creator>
   </cc:Work>
  </rdf:RDF>
 </metadata>
 <defs>
  <style type="text/css">*{stroke-linecap:butt;stroke-linejoin:round;}</style>
 </defs>
 <g id="figure_1">
  <g id="patch_1">
   <path d="M 0 328.32 
L 933.12 328.32 
L 933.12 0 
L 0 0 
z
" style="fill:none;"/>
  </g>
  <g id="axes_1">
   <g id="patch_2">
    <path d="M 64.21 284.36 
L 858.535 284.36 
L 858.535 31.96 
L 64.21 31.96 
z
" style="fill:none;"/>
   </g>
   <g id="matplotlib.axis_1">
    <g id="xtick_1">
     <g id="line2d_1">
      <defs>
       <path d="M 0 0 
L 0 3.5 
" id="m500fa04ecc" style="stroke:#000000;stroke-width:0.8;"/>
      </defs>
      <g>
       <use style="stroke:#000000;stroke-width:0.8;" x="100.315682" xlink:href="#m500fa04ecc" y="284.36"/>
      </g>
     </g>
     <g id="text_1">
      <!-- 0.0 -->
      <g transform="translate(91.568963 299.718281)scale(0.11 -0.11)">
       <defs>
        <path d="M 31.78125 66.40625 
Q 24.171875 66.40625 20.328125 58.90625 
Q 16.5 51.421875 16.5 36.375 
Q 16.5 21.390625 20.328125 13.890625 
Q 24.171875 6.390625 31.78125 6.390625 
Q 39.453125 6.390625 43.28125 13.890625 
Q 47.125 21.390625 47.125 36.375 
Q 47.125 51.421875 43.28125 58.90625 
Q 39.453125 66.40625 31.78125 66.40625 
z
M 31.78125 74.21875 
Q 44.046875 74.21875 50.515625 64.515625 
Q 56.984375 54.828125 56.984375 36.375 
Q 56.984375 17.96875 50.515625 8.265625 
Q 44.046875 -1.421875 31.78125 -1.421875 
Q 19.53125 -1.421875 13.0625 8.265625 
Q 6.59375 17.96875 6.59375 36.375 
Q 6.59375 54.828125 13.0625 64.515625 
Q 19.53125 74.21875 31.78125 74.21875 
z
" id="DejaVuSans-48"/>
        <path d="M 10.6875 12.40625 
L 21 12.40625 
L 21 0 
L 10.6875 0 
z
" id="DejaVuSans-46"/>
       </defs>
       <use xlink:href="#DejaVuSans-48"/>
       <use x="63.623047" xlink:href="#DejaVuSans-46"/>
       <use x="95.410156" xlink:href="#DejaVuSans-48"/>
      </g>
     </g>
    </g>
    <g id="xtick_2">
     <g id="line2d_2">
      <g>
       <use style="stroke:#000000;stroke-width:0.8;" x="244.738409" xlink:href="#m500fa04ecc" y="284.36"/>
      </g>
     </g>
     <g id="text_2">
      <!-- 0.2 -->
      <g transform="translate(235.99169 299.718281)scale(0.11 -0.11)">
       <defs>
        <path d="M 19.1875 8.296875 
L 53.609375 8.296875 
L 53.609375 0 
L 7.328125 0 
L 7.328125 8.296875 
Q 12.9375 14.109375 22.625 23.890625 
Q 32.328125 33.6875 34.8125 36.53125 
Q 39.546875 41.84375 41.421875 45.53125 
Q 43.3125 49.21875 43.3125 52.78125 
Q 43.3125 58.59375 39.234375 62.25 
Q 35.15625 65.921875 28.609375 65.921875 
Q 23.96875 65.921875 18.8125 64.3125 
Q 13.671875 62.703125 7.8125 59.421875 
L 7.8125 69.390625 
Q 13.765625 71.78125 18.9375 73 
Q 24.125 74.21875 28.421875 74.21875 
Q 39.75 74.21875 46.484375 68.546875 
Q 53.21875 62.890625 53.21875 53.421875 
Q 53.21875 48.921875 51.53125 44.890625 
Q 49.859375 40.875 45.40625 35.40625 
Q 44.1875 33.984375 37.640625 27.21875 
Q 31.109375 20.453125 19.1875 8.296875 
z
" id="DejaVuSans-50"/>
       </defs>
       <use xlink:href="#DejaVuSans-48"/>
       <use x="63.623047" xlink:href="#DejaVuSans-46"/>
       <use x="95.410156" xlink:href="#DejaVuSans-50"/>
      </g>
     </g>
    </g>
    <g id="xtick_3">
     <g id="line2d_3">
      <g>
       <use style="stroke:#000000;stroke-width:0.8;" x="389.161136" xlink:href="#m500fa04ecc" y="284.36"/>
      </g>
     </g>
     <g id="text_3">
      <!-- 0.4 -->
      <g transform="translate(380.414418 299.718281)scale(0.11 -0.11)">
       <defs>
        <path d="M 37.796875 64.3125 
L 12.890625 25.390625 
L 37.796875 25.390625 
z
M 35.203125 72.90625 
L 47.609375 72.90625 
L 47.609375 25.390625 
L 58.015625 25.390625 
L 58.015625 17.1875 
L 47.609375 17.1875 
L 47.609375 0 
L 37.796875 0 
L 37.796875 17.1875 
L 4.890625 17.1875 
L 4.890625 26.703125 
z
" id="DejaVuSans-52"/>
       </defs>
       <use xlink:href="#DejaVuSans-48"/>
       <use x="63.623047" xlink:href="#DejaVuSans-46"/>
       <use x="95.410156" xlink:href="#DejaVuSans-52"/>
      </g>
     </g>
    </g>
    <g id="xtick_4">
     <g id="line2d_4">
      <g>
       <use style="stroke:#000000;stroke-width:0.8;" x="533.583864" xlink:href="#m500fa04ecc" y="284.36"/>
      </g>
     </g>
     <g id="text_4">
      <!-- 0.6 -->
      <g transform="translate(524.837145 299.718281)scale(0.11 -0.11)">
       <defs>
        <path d="M 33.015625 40.375 
Q 26.375 40.375 22.484375 35.828125 
Q 18.609375 31.296875 18.609375 23.390625 
Q 18.609375 15.53125 22.484375 10.953125 
Q 26.375 6.390625 33.015625 6.390625 
Q 39.65625 6.390625 43.53125 10.953125 
Q 47.40625 15.53125 47.40625 23.390625 
Q 47.40625 31.296875 43.53125 35.828125 
Q 39.65625 40.375 33.015625 40.375 
z
M 52.59375 71.296875 
L 52.59375 62.3125 
Q 48.875 64.0625 45.09375 64.984375 
Q 41.3125 65.921875 37.59375 65.921875 
Q 27.828125 65.921875 22.671875 59.328125 
Q 17.53125 52.734375 16.796875 39.40625 
Q 19.671875 43.65625 24.015625 45.921875 
Q 28.375 48.1875 33.59375 48.1875 
Q 44.578125 48.1875 50.953125 41.515625 
Q 57.328125 34.859375 57.328125 23.390625 
Q 57.328125 12.15625 50.6875 5.359375 
Q 44.046875 -1.421875 33.015625 -1.421875 
Q 20.359375 -1.421875 13.671875 8.265625 
Q 6.984375 17.96875 6.984375 36.375 
Q 6.984375 53.65625 15.1875 63.9375 
Q 23.390625 74.21875 37.203125 74.21875 
Q 40.921875 74.21875 44.703125 73.484375 
Q 48.484375 72.75 52.59375 71.296875 
z
" id="DejaVuSans-54"/>
       </defs>
       <use xlink:href="#DejaVuSans-48"/>
       <use x="63.623047" xlink:href="#DejaVuSans-46"/>
       <use x="95.410156" xlink:href="#DejaVuSans-54"/>
      </g>
     </g>
    </g>
    <g id="xtick_5">
     <g id="line2d_5">
      <g>
       <use style="stroke:#000000;stroke-width:0.8;" x="678.006591" xlink:href="#m500fa04ecc" y="284.36"/>
      </g>
     </g>
     <g id="text_5">
      <!-- 0.8 -->
      <g transform="translate(669.259872 299.718281)scale(0.11 -0.11)">
       <defs>
        <path d="M 31.78125 34.625 
Q 24.75 34.625 20.71875 30.859375 
Q 16.703125 27.09375 16.703125 20.515625 
Q 16.703125 13.921875 20.71875 10.15625 
Q 24.75 6.390625 31.78125 6.390625 
Q 38.8125 6.390625 42.859375 10.171875 
Q 46.921875 13.96875 46.921875 20.515625 
Q 46.921875 27.09375 42.890625 30.859375 
Q 38.875 34.625 31.78125 34.625 
z
M 21.921875 38.8125 
Q 15.578125 40.375 12.03125 44.71875 
Q 8.5 49.078125 8.5 55.328125 
Q 8.5 64.0625 14.71875 69.140625 
Q 20.953125 74.21875 31.78125 74.21875 
Q 42.671875 74.21875 48.875 69.140625 
Q 55.078125 64.0625 55.078125 55.328125 
Q 55.078125 49.078125 51.53125 44.71875 
Q 48 40.375 41.703125 38.8125 
Q 48.828125 37.15625 52.796875 32.3125 
Q 56.78125 27.484375 56.78125 20.515625 
Q 56.78125 9.90625 50.3125 4.234375 
Q 43.84375 -1.421875 31.78125 -1.421875 
Q 19.734375 -1.421875 13.25 4.234375 
Q 6.78125 9.90625 6.78125 20.515625 
Q 6.78125 27.484375 10.78125 32.3125 
Q 14.796875 37.15625 21.921875 38.8125 
z
M 18.3125 54.390625 
Q 18.3125 48.734375 21.84375 45.5625 
Q 25.390625 42.390625 31.78125 42.390625 
Q 38.140625 42.390625 41.71875 45.5625 
Q 45.3125 48.734375 45.3125 54.390625 
Q 45.3125 60.0625 41.71875 63.234375 
Q 38.140625 66.40625 31.78125 66.40625 
Q 25.390625 66.40625 21.84375 63.234375 
Q 18.3125 60.0625 18.3125 54.390625 
z
" id="DejaVuSans-56"/>
       </defs>
       <use xlink:href="#DejaVuSans-48"/>
       <use x="63.623047" xlink:href="#DejaVuSans-46"/>
       <use x="95.410156" xlink:href="#DejaVuSans-56"/>
      </g>
     </g>
    </g>
    <g id="xtick_6">
     <g id="line2d_6">
      <g>
       <use style="stroke:#000000;stroke-width:0.8;" x="822.429318" xlink:href="#m500fa04ecc" y="284.36"/>
      </g>
     </g>
     <g id="text_6">
      <!-- 1.0 -->
      <g transform="translate(813.682599 299.718281)scale(0.11 -0.11)">
       <defs>
        <path d="M 12.40625 8.296875 
L 28.515625 8.296875 
L 28.515625 63.921875 
L 10.984375 60.40625 
L 10.984375 69.390625 
L 28.421875 72.90625 
L 38.28125 72.90625 
L 38.28125 8.296875 
L 54.390625 8.296875 
L 54.390625 0 
L 12.40625 0 
z
" id="DejaVuSans-49"/>
       </defs>
       <use xlink:href="#DejaVuSans-49"/>
       <use x="63.623047" xlink:href="#DejaVuSans-46"/>
       <use x="95.410156" xlink:href="#DejaVuSans-48"/>
      </g>
     </g>
    </g>
    <g id="text_7">
     <!-- Tiempo (s) -->
     <g transform="translate(432.15375 314.364219)scale(0.11 -0.11)">
      <defs>
       <path d="M -0.296875 72.90625 
L 61.375 72.90625 
L 61.375 64.59375 
L 35.5 64.59375 
L 35.5 0 
L 25.59375 0 
L 25.59375 64.59375 
L -0.296875 64.59375 
z
" id="DejaVuSans-84"/>
       <path d="M 9.421875 54.6875 
L 18.40625 54.6875 
L 18.40625 0 
L 9.421875 0 
z
M 9.421875 75.984375 
L 18.40625 75.984375 
L 18.40625 64.59375 
L 9.421875 64.59375 
z
" id="DejaVuSans-105"/>
       <path d="M 56.203125 29.59375 
L 56.203125 25.203125 
L 14.890625 25.203125 
Q 15.484375 15.921875 20.484375 11.0625 
Q 25.484375 6.203125 34.421875 6.203125 
Q 39.59375 6.203125 44.453125 7.46875 
Q 49.3125 8.734375 54.109375 11.28125 
L 54.109375 2.78125 
Q 49.265625 0.734375 44.1875 -0.34375 
Q 39.109375 -1.421875 33.890625 -1.421875 
Q 20.796875 -1.421875 13.15625 6.1875 
Q 5.515625 13.8125 5.515625 26.8125 
Q 5.515625 40.234375 12.765625 48.109375 
Q 20.015625 56 32.328125 56 
Q 43.359375 56 49.78125 48.890625 
Q 56.203125 41.796875 56.203125 29.59375 
z
M 47.21875 32.234375 
Q 47.125 39.59375 43.09375 43.984375 
Q 39.0625 48.390625 32.421875 48.390625 
Q 24.90625 48.390625 20.390625 44.140625 
Q 15.875 39.890625 15.1875 32.171875 
z
" id="DejaVuSans-101"/>
       <path d="M 52 44.1875 
Q 55.375 50.25 60.0625 53.125 
Q 64.75 56 71.09375 56 
Q 79.640625 56 84.28125 50.015625 
Q 88.921875 44.046875 88.921875 33.015625 
L 88.921875 0 
L 79.890625 0 
L 79.890625 32.71875 
Q 79.890625 40.578125 77.09375 44.375 
Q 74.3125 48.1875 68.609375 48.1875 
Q 61.625 48.1875 57.5625 43.546875 
Q 53.515625 38.921875 53.515625 30.90625 
L 53.515625 0 
L 44.484375 0 
L 44.484375 32.71875 
Q 44.484375 40.625 41.703125 44.40625 
Q 38.921875 48.1875 33.109375 48.1875 
Q 26.21875 48.1875 22.15625 43.53125 
Q 18.109375 38.875 18.109375 30.90625 
L 18.109375 0 
L 9.078125 0 
L 9.078125 54.6875 
L 18.109375 54.6875 
L 18.109375 46.1875 
Q 21.1875 51.21875 25.484375 53.609375 
Q 29.78125 56 35.6875 56 
Q 41.65625 56 45.828125 52.96875 
Q 50 49.953125 52 44.1875 
z
" id="DejaVuSans-109"/>
       <path d="M 18.109375 8.203125 
L 18.109375 -20.796875 
L 9.078125 -20.796875 
L 9.078125 54.6875 
L 18.109375 54.6875 
L 18.109375 46.390625 
Q 20.953125 51.265625 25.265625 53.625 
Q 29.59375 56 35.59375 56 
Q 45.5625 56 51.78125 48.09375 
Q 58.015625 40.1875 58.015625 27.296875 
Q 58.015625 14.40625 51.78125 6.484375 
Q 45.5625 -1.421875 35.59375 -1.421875 
Q 29.59375 -1.421875 25.265625 0.953125 
Q 20.953125 3.328125 18.109375 8.203125 
z
M 48.6875 27.296875 
Q 48.6875 37.203125 44.609375 42.84375 
Q 40.53125 48.484375 33.40625 48.484375 
Q 26.265625 48.484375 22.1875 42.84375 
Q 18.109375 37.203125 18.109375 27.296875 
Q 18.109375 17.390625 22.1875 11.75 
Q 26.265625 6.109375 33.40625 6.109375 
Q 40.53125 6.109375 44.609375 11.75 
Q 48.6875 17.390625 48.6875 27.296875 
z
" id="DejaVuSans-112"/>
       <path d="M 30.609375 48.390625 
Q 23.390625 48.390625 19.1875 42.75 
Q 14.984375 37.109375 14.984375 27.296875 
Q 14.984375 17.484375 19.15625 11.84375 
Q 23.34375 6.203125 30.609375 6.203125 
Q 37.796875 6.203125 41.984375 11.859375 
Q 46.1875 17.53125 46.1875 27.296875 
Q 46.1875 37.015625 41.984375 42.703125 
Q 37.796875 48.390625 30.609375 48.390625 
z
M 30.609375 56 
Q 42.328125 56 49.015625 48.375 
Q 55.71875 40.765625 55.71875 27.296875 
Q 55.71875 13.875 49.015625 6.21875 
Q 42.328125 -1.421875 30.609375 -1.421875 
Q 18.84375 -1.421875 12.171875 6.21875 
Q 5.515625 13.875 5.515625 27.296875 
Q 5.515625 40.765625 12.171875 48.375 
Q 18.84375 56 30.609375 56 
z
" id="DejaVuSans-111"/>
       <path id="DejaVuSans-32"/>
       <path d="M 31 75.875 
Q 24.46875 64.65625 21.28125 53.65625 
Q 18.109375 42.671875 18.109375 31.390625 
Q 18.109375 20.125 21.3125 9.0625 
Q 24.515625 -2 31 -13.1875 
L 23.1875 -13.1875 
Q 15.875 -1.703125 12.234375 9.375 
Q 8.59375 20.453125 8.59375 31.390625 
Q 8.59375 42.28125 12.203125 53.3125 
Q 15.828125 64.359375 23.1875 75.875 
z
" id="DejaVuSans-40"/>
       <path d="M 44.28125 53.078125 
L 44.28125 44.578125 
Q 40.484375 46.53125 36.375 47.5 
Q 32.28125 48.484375 27.875 48.484375 
Q 21.1875 48.484375 17.84375 46.4375 
Q 14.5 44.390625 14.5 40.28125 
Q 14.5 37.15625 16.890625 35.375 
Q 19.28125 33.59375 26.515625 31.984375 
L 29.59375 31.296875 
Q 39.15625 29.25 43.1875 25.515625 
Q 47.21875 21.78125 47.21875 15.09375 
Q 47.21875 7.46875 41.1875 3.015625 
Q 35.15625 -1.421875 24.609375 -1.421875 
Q 20.21875 -1.421875 15.453125 -0.5625 
Q 10.6875 0.296875 5.421875 2 
L 5.421875 11.28125 
Q 10.40625 8.6875 15.234375 7.390625 
Q 20.0625 6.109375 24.8125 6.109375 
Q 31.15625 6.109375 34.5625 8.28125 
Q 37.984375 10.453125 37.984375 14.40625 
Q 37.984375 18.0625 35.515625 20.015625 
Q 33.0625 21.96875 24.703125 23.78125 
L 21.578125 24.515625 
Q 13.234375 26.265625 9.515625 29.90625 
Q 5.8125 33.546875 5.8125 39.890625 
Q 5.8125 47.609375 11.28125 51.796875 
Q 16.75 56 26.8125 56 
Q 31.78125 56 36.171875 55.265625 
Q 40.578125 54.546875 44.28125 53.078125 
z
" id="DejaVuSans-115"/>
       <path d="M 8.015625 75.875 
L 15.828125 75.875 
Q 23.140625 64.359375 26.78125 53.3125 
Q 30.421875 42.28125 30.421875 31.390625 
Q 30.421875 20.453125 26.78125 9.375 
Q 23.140625 -1.703125 15.828125 -13.1875 
L 8.015625 -13.1875 
Q 14.5 -2 17.703125 9.0625 
Q 20.90625 20.125 20.90625 31.390625 
Q 20.90625 42.671875 17.703125 53.65625 
Q 14.5 64.65625 8.015625 75.875 
z
" id="DejaVuSans-41"/>
      </defs>
      <use xlink:href="#DejaVuSans-84"/>
      <use x="57.958984" xlink:href="#DejaVuSans-105"/>
      <use x="85.742188" xlink:href="#DejaVuSans-101"/>
      <use x="147.265625" xlink:href="#DejaVuSans-109"/>
      <use x="244.677734" xlink:href="#DejaVuSans-112"/>
      <use x="308.154297" xlink:href="#DejaVuSans-111"/>
      <use x="369.335938" xlink:href="#DejaVuSans-32"/>
      <use x="401.123047" xlink:href="#DejaVuSans-40"/>
      <use x="440.136719" xlink:href="#DejaVuSans-115"/>
      <use x="492.236328" xlink:href="#DejaVuSans-41"/>
     </g>
    </g>
   </g>
   <g id="matplotlib.axis_2">
    <g id="ytick_1">
     <g id="line2d_7">
      <defs>
       <path d="M 0 0 
L -3.5 0 
" id="m93476b0d9f" style="stroke:#000000;stroke-width:0.8;"/>
      </defs>
      <g>
       <use style="stroke:#000000;stroke-width:0.8;" x="64.21" xlink:href="#m93476b0d9f" y="253.766093"/>
      </g>
     </g>
     <g id="text_8">
      <!-- −100 -->
      <g style="fill:#2ca02c;" transform="translate(26.996094 257.945234)scale(0.11 -0.11)">
       <defs>
        <path d="M 10.59375 35.5 
L 73.1875 35.5 
L 73.1875 27.203125 
L 10.59375 27.203125 
z
" id="DejaVuSans-8722"/>
       </defs>
       <use xlink:href="#DejaVuSans-8722"/>
       <use x="83.789062" xlink:href="#DejaVuSans-49"/>
       <use x="147.412109" xlink:href="#DejaVuSans-48"/>
       <use x="211.035156" xlink:href="#DejaVuSans-48"/>
      </g>
     </g>
    </g>
    <g id="ytick_2">
     <g id="line2d_8">
      <g>
       <use style="stroke:#000000;stroke-width:0.8;" x="64.21" xlink:href="#m93476b0d9f" y="205.962059"/>
      </g>
     </g>
     <g id="text_9">
      <!-- −50 -->
      <g style="fill:#2ca02c;" transform="translate(33.994844 210.1412)scale(0.11 -0.11)">
       <defs>
        <path d="M 10.796875 72.90625 
L 49.515625 72.90625 
L 49.515625 64.59375 
L 19.828125 64.59375 
L 19.828125 46.734375 
Q 21.96875 47.46875 24.109375 47.828125 
Q 26.265625 48.1875 28.421875 48.1875 
Q 40.625 48.1875 47.75 41.5 
Q 54.890625 34.8125 54.890625 23.390625 
Q 54.890625 11.625 47.5625 5.09375 
Q 40.234375 -1.421875 26.90625 -1.421875 
Q 22.3125 -1.421875 17.546875 -0.640625 
Q 12.796875 0.140625 7.71875 1.703125 
L 7.71875 11.625 
Q 12.109375 9.234375 16.796875 8.0625 
Q 21.484375 6.890625 26.703125 6.890625 
Q 35.15625 6.890625 40.078125 11.328125 
Q 45.015625 15.765625 45.015625 23.390625 
Q 45.015625 31 40.078125 35.4375 
Q 35.15625 39.890625 26.703125 39.890625 
Q 22.75 39.890625 18.8125 39.015625 
Q 14.890625 38.140625 10.796875 36.28125 
z
" id="DejaVuSans-53"/>
       </defs>
       <use xlink:href="#DejaVuSans-8722"/>
       <use x="83.789062" xlink:href="#DejaVuSans-53"/>
       <use x="147.412109" xlink:href="#DejaVuSans-48"/>
      </g>
     </g>
    </g>
    <g id="ytick_3">
     <g id="line2d_9">
      <g>
       <use style="stroke:#000000;stroke-width:0.8;" x="64.21" xlink:href="#m93476b0d9f" y="158.158025"/>
      </g>
     </g>
     <g id="text_10">
      <!-- 0 -->
      <g style="fill:#2ca02c;" transform="translate(50.21125 162.337166)scale(0.11 -0.11)">
       <use xlink:href="#DejaVuSans-48"/>
      </g>
     </g>
    </g>
    <g id="ytick_4">
     <g id="line2d_10">
      <g>
       <use style="stroke:#000000;stroke-width:0.8;" x="64.21" xlink:href="#m93476b0d9f" y="110.353991"/>
      </g>
     </g>
     <g id="text_11">
      <!-- 50 -->
      <g style="fill:#2ca02c;" transform="translate(43.2125 114.533131)scale(0.11 -0.11)">
       <use xlink:href="#DejaVuSans-53"/>
       <use x="63.623047" xlink:href="#DejaVuSans-48"/>
      </g>
     </g>
    </g>
    <g id="ytick_5">
     <g id="line2d_11">
      <g>
       <use style="stroke:#000000;stroke-width:0.8;" x="64.21" xlink:href="#m93476b0d9f" y="62.549957"/>
      </g>
     </g>
     <g id="text_12">
      <!-- 100 -->
      <g style="fill:#2ca02c;" transform="translate(36.21375 66.729097)scale(0.11 -0.11)">
       <use xlink:href="#DejaVuSans-49"/>
       <use x="63.623047" xlink:href="#DejaVuSans-48"/>
       <use x="127.246094" xlink:href="#DejaVuSans-48"/>
      </g>
     </g>
    </g>
    <g id="text_13">
     <!-- Voltaje (V) -->
     <g style="fill:#2ca02c;" transform="translate(20.708438 186.630234)rotate(-90)scale(0.11 -0.11)">
      <defs>
       <path d="M 28.609375 0 
L 0.78125 72.90625 
L 11.078125 72.90625 
L 34.1875 11.53125 
L 57.328125 72.90625 
L 67.578125 72.90625 
L 39.796875 0 
z
" id="DejaVuSans-86"/>
       <path d="M 9.421875 75.984375 
L 18.40625 75.984375 
L 18.40625 0 
L 9.421875 0 
z
" id="DejaVuSans-108"/>
       <path d="M 18.3125 70.21875 
L 18.3125 54.6875 
L 36.8125 54.6875 
L 36.8125 47.703125 
L 18.3125 47.703125 
L 18.3125 18.015625 
Q 18.3125 11.328125 20.140625 9.421875 
Q 21.96875 7.515625 27.59375 7.515625 
L 36.8125 7.515625 
L 36.8125 0 
L 27.59375 0 
Q 17.1875 0 13.234375 3.875 
Q 9.28125 7.765625 9.28125 18.015625 
L 9.28125 47.703125 
L 2.6875 47.703125 
L 2.6875 54.6875 
L 9.28125 54.6875 
L 9.28125 70.21875 
z
" id="DejaVuSans-116"/>
       <path d="M 34.28125 27.484375 
Q 23.390625 27.484375 19.1875 25 
Q 14.984375 22.515625 14.984375 16.5 
Q 14.984375 11.71875 18.140625 8.90625 
Q 21.296875 6.109375 26.703125 6.109375 
Q 34.1875 6.109375 38.703125 11.40625 
Q 43.21875 16.703125 43.21875 25.484375 
L 43.21875 27.484375 
z
M 52.203125 31.203125 
L 52.203125 0 
L 43.21875 0 
L 43.21875 8.296875 
Q 40.140625 3.328125 35.546875 0.953125 
Q 30.953125 -1.421875 24.3125 -1.421875 
Q 15.921875 -1.421875 10.953125 3.296875 
Q 6 8.015625 6 15.921875 
Q 6 25.140625 12.171875 29.828125 
Q 18.359375 34.515625 30.609375 34.515625 
L 43.21875 34.515625 
L 43.21875 35.40625 
Q 43.21875 41.609375 39.140625 45 
Q 35.0625 48.390625 27.6875 48.390625 
Q 23 48.390625 18.546875 47.265625 
Q 14.109375 46.140625 10.015625 43.890625 
L 10.015625 52.203125 
Q 14.9375 54.109375 19.578125 55.046875 
Q 24.21875 56 28.609375 56 
Q 40.484375 56 46.34375 49.84375 
Q 52.203125 43.703125 52.203125 31.203125 
z
" id="DejaVuSans-97"/>
       <path d="M 9.421875 54.6875 
L 18.40625 54.6875 
L 18.40625 -0.984375 
Q 18.40625 -11.421875 14.421875 -16.109375 
Q 10.453125 -20.796875 1.609375 -20.796875 
L -1.8125 -20.796875 
L -1.8125 -13.1875 
L 0.59375 -13.1875 
Q 5.71875 -13.1875 7.5625 -10.8125 
Q 9.421875 -8.453125 9.421875 -0.984375 
z
M 9.421875 75.984375 
L 18.40625 75.984375 
L 18.40625 64.59375 
L 9.421875 64.59375 
z
" id="DejaVuSans-106"/>
      </defs>
      <use xlink:href="#DejaVuSans-86"/>
      <use x="60.658203" xlink:href="#DejaVuSans-111"/>
      <use x="121.839844" xlink:href="#DejaVuSans-108"/>
      <use x="149.623047" xlink:href="#DejaVuSans-116"/>
      <use x="188.832031" xlink:href="#DejaVuSans-97"/>
      <use x="250.111328" xlink:href="#DejaVuSans-106"/>
      <use x="277.894531" xlink:href="#DejaVuSans-101"/>
      <use x="339.417969" xlink:href="#DejaVuSans-32"/>
      <use x="371.205078" xlink:href="#DejaVuSans-40"/>
      <use x="410.21875" xlink:href="#DejaVuSans-86"/>
      <use x="478.626953" xlink:href="#DejaVuSans-41"/>
     </g>
    </g>
   </g>
   <g id="line2d_12">
    <path clip-path="url(#p7fb17029f4)" d="M 100.315682 158.158025 
L 101.072873 113.976932 
L 101.778062 78.831091 
L 102.757287 48.421735 
L 103.166548 43.818138 
L 103.446201 43.659881 
L 103.703152 45.66289 
L 104.120056 53.182689 
L 104.786205 75.244254 
L 105.491394 109.339107 
L 107.606962 228.947424 
L 108.312151 256.697905 
L 108.918606 270.094995 
L 109.299274 272.859029 
L 109.50671 272.464328 
L 109.790537 269.757948 
L 110.250258 260.232554 
L 110.955448 234.541434 
L 112.365826 157.264579 
L 113.776204 80.450616 
L 114.770557 48.812726 
L 115.181943 43.922104 
L 115.434241 43.515169 
L 115.661584 44.850118 
L 116.030997 50.401928 
L 116.624723 67.55183 
L 117.329912 98.952696 
L 120.150668 250.154912 
L 120.897334 269.304296 
L 121.078506 271.494403 
L 121.298937 272.791638 
L 121.528707 272.529615 
L 121.80425 270.049837 
L 122.250805 261.164144 
L 122.955994 236.07878 
L 123.661183 200.550914 
L 125.776751 81.991492 
L 126.48194 56.216374 
L 127.004402 45.804776 
L 127.20547 43.989182 
L 127.423739 43.441308 
L 127.62236 44.236011 
L 127.945444 48.134006 
L 128.46712 60.937304 
L 129.172309 89.375963 
L 130.582687 168.860135 
L 131.287876 209.253625 
L 131.993065 242.799568 
L 132.875166 268.402043 
L 133.281673 272.619974 
L 133.544374 272.616145 
L 133.80766 270.455625 
L 134.234683 262.481405 
L 134.916054 239.322536 
L 135.621243 204.700853 
L 137.73681 85.416254 
L 138.441999 58.359988 
L 139.018488 46.068016 
L 139.215054 44.15109 
L 139.413425 43.432727 
L 139.604475 43.903036 
L 139.894371 46.780936 
L 140.363718 56.786793 
L 141.068907 82.916088 
L 142.479285 160.572151 
L 143.889663 236.977461 
L 144.872054 267.744159 
L 145.282131 272.458934 
L 145.537273 272.76252 
L 145.774009 271.227811 
L 146.158521 265.079954 
L 146.775442 246.414181 
L 147.480631 214.117964 
L 149.596198 93.855757 
L 150.301387 63.968538 
L 151.003583 46.746738 
L 151.18793 44.629952 
L 151.416694 43.465429 
L 151.62782 43.840564 
L 151.91028 46.50893 
L 152.367829 55.927409 
L 153.073018 81.519115 
L 154.483397 158.708599 
L 155.893775 235.612832 
L 156.891709 267.464397 
L 157.303307 272.383169 
L 157.529153 272.854421 
L 157.73867 271.867304 
L 158.079356 267.372253 
L 158.628556 252.974667 
L 159.333745 223.373319 
L 162.154501 70.612683 
L 162.985356 47.554481 
L 163.389912 43.619932 
L 163.639965 43.731771 
L 163.907966 46.012838 
L 164.342509 54.332679 
L 165.035142 78.317278 
L 165.740331 113.319466 
L 167.855899 232.327 
L 168.561088 258.859502 
L 169.115296 270.358517 
L 169.313859 272.235239 
L 169.495848 272.879869 
L 169.690445 272.424366 
L 169.979028 269.583968 
L 170.446294 259.682897 
L 171.151483 233.647994 
L 172.561861 156.072801 
L 173.972239 79.577957 
L 174.95612 48.643094 
L 175.366584 43.87602 
L 175.620879 43.541357 
L 175.854813 45.015311 
L 176.234826 50.982636 
L 176.84485 69.191955 
L 177.550039 101.225075 
L 179.665606 221.53165 
L 180.370796 251.704909 
L 181.086257 269.491725 
L 181.269282 271.627331 
L 181.49645 272.836884 
L 181.712797 272.491019 
L 181.993321 269.87604 
L 182.447796 260.607979 
L 183.152985 235.157357 
L 184.563363 158.092703 
L 185.973742 81.061892 
L 186.976743 48.907009 
L 187.388643 43.948332 
L 187.612369 43.454996 
L 187.818838 44.386746 
L 188.154604 48.711016 
L 188.696127 62.655595 
L 189.401316 91.936419 
L 192.222072 244.904876 
L 193.067282 268.663219 
L 193.472372 272.676221 
L 193.725942 272.593313 
L 193.992633 270.346032 
L 194.425087 262.122873 
L 195.114596 238.368499 
L 195.819785 203.471062 
L 197.935352 84.383452 
L 198.640542 57.704797 
L 199.200939 45.98795 
L 199.399016 44.099512 
L 199.581333 43.438094 
L 199.777552 43.886534 
L 200.065534 46.709835 
L 200.531848 56.56309 
L 201.237037 82.554705 
L 202.647415 160.09266 
L 204.057793 236.628286 
L 205.042357 267.640213 
L 205.452999 272.431248 
L 205.706906 272.780053 
L 205.939559 271.333554 
L 206.317512 265.448021 
L 206.924376 247.446261 
L 207.629566 215.534597 
L 209.745133 95.21152 
L 210.450322 64.908274 
L 211.17185 46.860219 
L 211.354268 44.716154 
L 211.580703 43.486194 
L 211.799446 43.818 
L 212.079082 46.408631 
L 212.532145 55.607983 
L 213.237334 80.993677 
L 214.647712 158.000558 
L 216.05809 235.089023 
L 216.763279 260.56647 
L 217.27341 270.569177 
L 217.475456 272.360546 
L 217.698209 272.863852 
L 217.903279 271.957124 
L 218.236784 267.710295 
L 218.774777 253.971916 
L 219.479966 224.839501 
L 222.300722 71.781422 
L 223.152518 47.69856 
L 223.557856 43.649327 
L 223.813047 43.71862 
L 224.079134 45.950405 
L 224.510625 54.129171 
L 225.198693 77.777639 
L 225.903882 112.626545 
L 228.019449 231.75026 
L 228.724638 258.496117 
L 229.287889 270.314008 
L 229.485716 272.207655 
L 229.689099 272.887272 
L 229.872942 272.389527 
L 230.165505 269.434771 
L 230.639078 259.21463 
L 231.344267 232.894273 
L 232.754645 155.075918 
L 234.165023 78.854396 
L 235.144394 48.428606 
L 235.553693 43.819895 
L 235.833568 43.659375 
L 236.090436 45.660346 
L 236.507206 53.174241 
L 237.173154 75.221462 
L 237.878344 109.309263 
L 239.993911 228.921467 
L 240.6991 256.681009 
L 241.30595 270.092945 
L 241.686429 272.858566 
L 241.894082 272.464987 
L 242.177829 269.760843 
L 242.637423 260.241733 
L 243.342612 234.556437 
L 244.75299 157.284686 
L 246.163368 80.465411 
L 247.157931 48.815004 
L 247.56933 43.922733 
L 247.821601 43.514844 
L 248.048856 44.847979 
L 248.418128 50.394345 
L 249.011636 67.530282 
L 249.716825 98.922606 
L 252.537582 250.133915 
L 253.284663 269.301753 
L 253.465877 271.493201 
L 253.68628 272.791252 
L 253.916149 272.529892 
L 254.191655 270.051098 
L 254.638152 261.168194 
L 255.343341 236.085531 
L 256.04853 200.55946 
L 258.164097 81.998371 
L 258.869286 56.220594 
L 259.391859 45.805298 
L 259.592918 43.989488 
L 259.811147 43.441225 
L 260.00971 44.234948 
L 260.3327 48.129876 
L 260.85423 60.924906 
L 261.559419 89.357274 
L 262.969797 168.836884 
L 263.674986 209.232715 
L 264.380175 242.783802 
L 265.262548 268.400076 
L 265.669065 272.619532 
L 265.931834 272.61631 
L 266.195095 270.456429 
L 266.622077 262.484042 
L 267.303388 239.329573 
L 268.008577 204.709954 
L 270.124144 85.423955 
L 270.829333 58.364901 
L 271.405941 46.068616 
L 271.602496 44.151481 
L 271.800821 43.432782 
L 271.991936 43.902827 
L 272.281808 46.780037 
L 272.751117 56.783967 
L 273.456306 82.911533 
L 274.866684 160.566119 
L 276.277063 236.973077 
L 277.259481 267.742857 
L 277.669564 272.458591 
L 277.924691 272.762749 
L 278.161376 271.229164 
L 278.545805 265.084642 
L 279.162599 246.427278 
L 279.867788 214.135859 
L 281.983356 93.872736 
L 282.688545 63.980244 
L 283.390984 46.748151 
L 283.575307 44.631016 
L 283.804041 43.465661 
L 284.015264 43.840277 
L 284.297688 46.507661 
L 284.755181 55.923377 
L 285.46037 81.512505 
L 286.870748 158.699716 
L 288.281127 235.606278 
L 289.279154 267.463387 
L 289.690757 272.382889 
L 289.916564 272.85455 
L 290.126025 271.868456 
L 290.466622 267.376557 
L 291.015681 252.987312 
L 291.72087 223.391799 
L 294.541626 70.627202 
L 295.372744 47.556266 
L 295.77731 43.620286 
L 296.027427 43.731605 
L 296.295404 46.012052 
L 296.729909 54.330124 
L 297.422485 78.310514 
L 298.127674 113.310796 
L 300.243241 232.319814 
L 300.94843 258.854988 
L 301.502752 270.357963 
L 301.701306 272.2349 
L 301.883236 272.87979 
L 302.077903 272.42459 
L 302.36646 269.584938 
L 302.833684 259.685949 
L 303.538874 233.652929 
L 304.949252 156.079353 
L 306.35963 79.582732 
L 307.343541 48.644517 
L 307.754012 43.876401 
L 308.00829 43.541121 
L 308.242169 45.013876 
L 308.622092 50.97763 
L 309.231978 69.1779 
L 309.937168 101.205748 
L 312.052735 221.513091 
L 312.757924 251.692018 
L 313.473649 269.490168 
L 313.656648 271.626144 
L 313.883784 272.836588 
L 314.100236 272.491326 
L 314.380721 269.877408 
L 314.835134 260.612338 
L 315.540323 235.164537 
L 316.950702 158.102389 
L 318.36108 81.069065 
L 319.364182 48.908117 
L 319.776088 43.948642 
L 319.999772 43.454872 
L 320.20618 44.385529 
L 320.541848 48.706418 
L 321.083218 62.64201 
L 321.788407 91.916398 
L 324.609163 244.888827 
L 325.454659 268.661238 
L 325.85976 272.675813 
L 326.1134 272.593492 
L 326.380065 270.346885 
L 326.812477 262.125657 
L 327.501924 238.375883 
L 328.207113 203.48055 
L 330.32268 84.391363 
L 331.027869 57.709787 
L 331.588391 45.988561 
L 331.786458 44.099889 
L 331.968839 43.438089 
L 332.165055 43.886547 
L 332.453038 46.709893 
L 332.919354 56.563273 
L 333.624543 82.555001 
L 335.034921 160.093054 
L 336.4453 236.628573 
L 337.429862 267.640298 
L 337.840503 272.431271 
L 338.094411 272.780039 
L 338.327068 271.333469 
L 338.705027 265.447722 
L 339.311899 247.445421 
L 340.017088 215.533438 
L 342.132655 95.210401 
L 342.837844 64.907494 
L 343.559356 46.860125 
L 343.741776 44.716082 
L 343.968213 43.486175 
L 344.18695 43.818019 
L 344.466588 46.408712 
L 344.919654 55.608244 
L 345.624843 80.994109 
L 347.035222 158.001142 
L 348.4456 235.089455 
L 349.150789 260.566733 
L 349.660913 270.569209 
L 349.862959 272.360565 
L 350.085715 272.863845 
L 350.290788 271.957051 
L 350.6243 267.710021 
L 351.162301 253.971103 
L 351.86749 224.838298 
L 354.688247 71.780449 
L 355.540026 47.69844 
L 355.945363 43.649301 
L 356.200549 43.718631 
L 356.466638 45.950456 
L 356.898132 54.129338 
L 357.586203 77.778085 
L 358.291392 112.627117 
L 360.40696 231.750739 
L 361.112149 258.49642 
L 361.675392 270.314045 
L 361.87322 272.207679 
L 362.076605 272.887273 
L 362.260445 272.389514 
L 362.553009 269.434714 
L 363.026584 259.214451 
L 363.731773 232.893987 
L 365.142152 155.075542 
L 366.55253 78.854124 
L 367.531899 48.428526 
L 367.941197 43.819874 
L 368.22107 43.659381 
L 368.477939 45.660376 
L 368.89471 53.17434 
L 369.560661 75.221729 
L 370.26585 109.309612 
L 372.381417 228.921771 
L 373.086606 256.681207 
L 373.693452 270.092969 
L 374.073933 272.858571 
L 374.281583 272.464979 
L 374.565331 269.760809 
L 375.024927 260.241626 
L 375.730116 234.556261 
L 377.140494 157.284451 
L 378.550872 80.465238 
L 379.545432 48.814978 
L 379.956831 43.922725 
L 380.209103 43.514847 
L 380.436359 44.848004 
L 380.805632 50.394433 
L 381.399143 67.530534 
L 382.104332 98.922958 
L 384.925089 250.134161 
L 385.672165 269.301783 
L 385.853378 271.493215 
L 386.073782 272.791257 
L 386.303649 272.529888 
L 386.579156 270.051083 
L 387.025653 261.168146 
L 387.730843 236.085452 
L 388.436032 200.55936 
L 390.551599 81.99829 
L 391.256788 56.220544 
L 391.779359 45.805292 
L 391.980419 43.989485 
L 392.198648 43.441226 
L 392.397212 44.234961 
L 392.720203 48.129925 
L 393.241734 60.925051 
L 393.946923 89.357492 
L 395.357302 168.837156 
L 396.062491 209.23296 
L 396.76768 242.783986 
L 397.650049 268.400099 
L 398.056566 272.619537 
L 398.319334 272.616308 
L 398.582596 270.456419 
L 399.009578 262.484011 
L 399.69089 239.329491 
L 400.396079 204.709848 
L 402.511646 85.423865 
L 403.216835 58.364843 
L 403.793441 46.068609 
L 403.989997 44.151477 
L 404.188322 43.432781 
L 404.379437 43.902829 
L 404.669309 46.780047 
L 405.138618 56.784 
L 405.843807 82.911586 
L 407.254186 160.566189 
L 408.664564 236.973128 
L 409.646981 267.742872 
L 410.057065 272.458595 
L 410.312192 272.762746 
L 410.548877 271.229148 
L 410.933308 265.084587 
L 411.550103 246.427125 
L 412.255292 214.13565 
L 414.37086 93.872537 
L 415.076049 63.980107 
L 415.778485 46.748135 
L 415.962808 44.631003 
L 416.191543 43.465658 
L 416.402764 43.84028 
L 416.685189 46.507676 
L 417.142683 55.923425 
L 417.847872 81.512582 
L 419.25825 158.699819 
L 420.668628 235.606354 
L 421.666654 267.463398 
L 422.078258 272.382892 
L 422.304065 272.854548 
L 422.513527 271.868443 
L 422.854124 267.376507 
L 423.403185 252.987165 
L 424.108374 223.391583 
L 426.92913 70.627032 
L 427.760246 47.556245 
L 428.164811 43.620282 
L 428.414927 43.731607 
L 428.682905 46.012062 
L 429.11741 54.330154 
L 429.809987 78.310593 
L 430.515176 113.310897 
L 432.630743 232.319898 
L 433.335932 258.855041 
L 433.890252 270.35797 
L 434.088807 272.234904 
L 434.270737 272.879791 
L 434.465403 272.424588 
L 434.75396 269.584927 
L 435.221186 259.685914 
L 435.926375 233.652871 
L 437.336753 156.079277 
L 438.747131 79.582677 
L 439.731042 48.6445 
L 440.141513 43.876396 
L 440.395791 43.541124 
L 440.62967 45.013892 
L 441.009594 50.977689 
L 441.619483 69.178064 
L 442.324672 101.205974 
L 444.440239 221.513308 
L 445.145428 251.692169 
L 445.86115 269.490186 
L 446.044149 271.626158 
L 446.271286 272.836591 
L 446.487736 272.491323 
L 446.768222 269.877392 
L 447.222636 260.612287 
L 447.927825 235.164453 
L 449.338203 158.102275 
L 450.748582 81.068981 
L 451.751683 48.908104 
L 452.163589 43.948639 
L 452.387273 43.454873 
L 452.593682 44.385543 
L 452.929351 48.706472 
L 453.470722 62.642169 
L 454.175911 91.916633 
L 456.996668 244.889015 
L 457.842161 268.661262 
L 458.247261 272.675817 
L 458.500901 272.59349 
L 458.767566 270.346875 
L 459.199979 262.125624 
L 459.889426 238.375797 
L 460.594615 203.480439 
L 462.710182 84.39127 
L 463.415371 57.709728 
L 463.975891 45.988554 
L 464.173959 44.099885 
L 464.356339 43.438089 
L 464.552555 43.886547 
L 464.840538 46.709892 
L 465.306854 56.563271 
L 466.012043 82.554998 
L 467.422421 160.09305 
L 468.8328 236.62857 
L 469.817362 267.640297 
L 470.228003 272.431271 
L 470.481911 272.780039 
L 470.714567 271.33347 
L 471.092526 265.447726 
L 471.699398 247.445431 
L 472.404588 215.533451 
L 474.520155 95.210414 
L 475.225344 64.907504 
L 475.946856 46.860126 
L 476.129276 44.716083 
L 476.355713 43.486175 
L 476.57445 43.818018 
L 476.854088 46.408712 
L 477.307154 55.608241 
L 478.012343 80.994104 
L 479.422722 158.001135 
L 480.8331 235.08945 
L 481.538289 260.56673 
L 482.048413 270.569209 
L 482.250459 272.360565 
L 482.473215 272.863845 
L 482.678288 271.957052 
L 483.0118 267.710024 
L 483.549801 253.971113 
L 484.25499 224.838312 
L 487.075746 71.780461 
L 487.927525 47.698441 
L 488.332863 43.649302 
L 488.588049 43.718631 
L 488.854138 45.950456 
L 489.285632 54.129336 
L 489.973703 77.778079 
L 490.678892 112.627111 
L 492.794459 231.750733 
L 493.499648 258.496416 
L 494.062892 270.314044 
L 494.260719 272.207678 
L 494.464105 272.887273 
L 494.647945 272.389514 
L 494.940509 269.434715 
L 495.414084 259.214453 
L 496.119273 232.89399 
L 497.529651 155.075546 
L 498.94003 78.854127 
L 499.919399 48.428527 
L 500.328697 43.819875 
L 500.60857 43.659381 
L 500.865439 45.660375 
L 501.28221 53.174339 
L 501.948161 75.221725 
L 502.65335 109.309608 
L 504.768917 228.921767 
L 505.474106 256.681204 
L 506.080952 270.092969 
L 506.461433 272.858571 
L 506.669083 272.464979 
L 506.952831 269.760809 
L 507.412427 260.241627 
L 508.117616 234.556263 
L 509.527994 157.284454 
L 510.938372 80.46524 
L 511.932932 48.814978 
L 512.344331 43.922725 
L 512.596603 43.514847 
L 512.823859 44.848004 
L 513.193132 50.394432 
L 513.786643 67.530531 
L 514.491832 98.922953 
L 517.312588 250.134158 
L 518.059665 269.301782 
L 518.240878 271.493215 
L 518.461282 272.791257 
L 518.691149 272.529889 
L 518.966656 270.051083 
L 519.413153 261.168147 
L 520.118343 236.085453 
L 520.823532 200.559361 
L 522.939099 81.998291 
L 523.644288 56.220545 
L 524.166859 45.805292 
L 524.367919 43.989485 
L 524.586148 43.441226 
L 524.784712 44.234961 
L 525.107703 48.129924 
L 525.629234 60.92505 
L 526.334423 89.35749 
L 527.744802 168.837153 
L 528.449991 209.232957 
L 529.15518 242.783984 
L 530.037549 268.400099 
L 530.444066 272.619537 
L 530.706834 272.616308 
L 530.970095 270.45642 
L 531.397078 262.484012 
L 532.07839 239.329492 
L 532.783579 204.709849 
L 534.899146 85.423866 
L 535.604335 58.364844 
L 536.180941 46.068609 
L 536.377497 44.151477 
L 536.575822 43.432781 
L 536.766937 43.902829 
L 537.056809 46.780047 
L 537.526118 56.784 
L 538.231307 82.911586 
L 539.641686 160.566189 
L 541.052064 236.973127 
L 542.034481 267.742872 
L 542.444565 272.458595 
L 542.699692 272.762746 
L 542.936377 271.229148 
L 543.320808 265.084587 
L 543.937603 246.427127 
L 544.642792 214.135652 
L 546.75836 93.87254 
L 547.463549 63.980109 
L 548.165985 46.748135 
L 548.350308 44.631004 
L 548.579043 43.465658 
L 548.790264 43.84028 
L 549.072689 46.507676 
L 549.530183 55.923424 
L 550.235372 81.512581 
L 551.64575 158.699818 
L 553.056128 235.606354 
L 554.054154 267.463398 
L 554.465758 272.382892 
L 554.691565 272.854548 
L 554.901027 271.868443 
L 555.241624 267.376508 
L 555.790685 252.987166 
L 556.495874 223.391585 
L 559.31663 70.627034 
L 560.147746 47.556245 
L 560.552311 43.620282 
L 560.802427 43.731607 
L 561.070404 46.012061 
L 561.50491 54.330154 
L 562.197487 78.310592 
L 562.902676 113.310896 
L 565.018243 232.319897 
L 565.723432 258.85504 
L 566.277752 270.35797 
L 566.476307 272.234904 
L 566.658237 272.879791 
L 566.852903 272.424588 
L 567.14146 269.584927 
L 567.608686 259.685914 
L 568.313875 233.652872 
L 569.724253 156.079277 
L 571.134631 79.582677 
L 572.118542 48.6445 
L 572.529013 43.876396 
L 572.783291 43.541124 
L 573.01717 45.013892 
L 573.397094 50.977688 
L 574.006983 69.178062 
L 574.712172 101.205971 
L 576.827739 221.513305 
L 577.532928 251.692167 
L 578.24865 269.490186 
L 578.431649 271.626158 
L 578.658786 272.836591 
L 578.875236 272.491323 
L 579.155722 269.877392 
L 579.610136 260.612288 
L 580.315325 235.164454 
L 581.725703 158.102277 
L 583.136082 81.068982 
L 584.139183 48.908104 
L 584.551089 43.948639 
L 584.774773 43.454873 
L 584.981182 44.385543 
L 585.316851 48.706471 
L 585.858222 62.642167 
L 586.563411 91.91663 
L 589.384168 244.889013 
L 590.229661 268.661261 
L 590.634761 272.675817 
L 590.888401 272.59349 
L 591.155066 270.346875 
L 591.587479 262.125624 
L 592.276926 238.375798 
L 592.982115 203.480441 
L 595.097682 84.391271 
L 595.802871 57.709729 
L 596.363391 45.988554 
L 596.561459 44.099885 
L 596.743839 43.438089 
L 596.940055 43.886547 
L 597.228038 46.709892 
L 597.694354 56.563271 
L 598.399543 82.554998 
L 599.809921 160.09305 
L 601.2203 236.62857 
L 602.204862 267.640297 
L 602.615503 272.431271 
L 602.869411 272.780039 
L 603.102067 271.33347 
L 603.480026 265.447726 
L 604.086899 247.44543 
L 604.792088 215.533451 
L 606.907655 95.210414 
L 607.612844 64.907503 
L 608.334356 46.860126 
L 608.516776 44.716083 
L 608.743213 43.486175 
L 608.96195 43.818018 
L 609.241588 46.408712 
L 609.694654 55.608241 
L 610.399843 80.994104 
L 611.810222 158.001135 
L 613.2206 235.08945 
L 613.925789 260.56673 
L 614.435913 270.569209 
L 614.637959 272.360565 
L 614.860715 272.863845 
L 615.065788 271.957052 
L 615.3993 267.710024 
L 615.937301 253.971113 
L 616.64249 224.838312 
L 619.463246 71.780461 
L 620.315025 47.698441 
L 620.720363 43.649302 
L 620.975549 43.718631 
L 621.241638 45.950456 
L 621.673132 54.129336 
L 622.361203 77.778079 
L 623.066392 112.627111 
L 625.181959 231.750733 
L 625.887148 258.496416 
L 626.450392 270.314044 
L 626.648219 272.207678 
L 626.851605 272.887273 
L 627.035445 272.389514 
L 627.328009 269.434715 
L 627.801584 259.214453 
L 628.506773 232.89399 
L 629.917151 155.075546 
L 631.32753 78.854127 
L 632.306899 48.428527 
L 632.716197 43.819875 
L 632.99607 43.659381 
L 633.252939 45.660375 
L 633.66971 53.174339 
L 634.335661 75.221725 
L 635.04085 109.309608 
L 637.156417 228.921767 
L 637.861606 256.681205 
L 638.468452 270.092969 
L 638.848933 272.858571 
L 639.056583 272.464979 
L 639.340331 269.760809 
L 639.799927 260.241627 
L 640.505116 234.556263 
L 641.915494 157.284454 
L 643.325872 80.46524 
L 644.320432 48.814978 
L 644.731831 43.922725 
L 644.984103 43.514847 
L 645.211359 44.848004 
L 645.580632 50.394432 
L 646.174143 67.530531 
L 646.879332 98.922954 
L 649.700088 250.134158 
L 650.447165 269.301782 
L 650.628378 271.493215 
L 650.848782 272.791257 
L 651.078649 272.529889 
L 651.354156 270.051083 
L 651.800653 261.168147 
L 652.505843 236.085453 
L 653.211032 200.559361 
L 655.326599 81.998291 
L 656.031788 56.220545 
L 656.554359 45.805292 
L 656.755419 43.989485 
L 656.973648 43.441226 
L 657.172212 44.234961 
L 657.495203 48.129924 
L 658.016734 60.92505 
L 658.721923 89.35749 
L 660.132302 168.837153 
L 660.837491 209.232957 
L 661.54268 242.783984 
L 662.425049 268.400099 
L 662.831566 272.619537 
L 663.094334 272.616308 
L 663.357595 270.45642 
L 663.784578 262.484012 
L 664.46589 239.329492 
L 665.171079 204.709849 
L 667.286646 85.423866 
L 667.991835 58.364844 
L 668.568441 46.068609 
L 668.764997 44.151477 
L 668.963322 43.432781 
L 669.154437 43.902829 
L 669.444309 46.780047 
L 669.913618 56.784 
L 670.618807 82.911586 
L 672.029186 160.566189 
L 673.439564 236.973127 
L 674.421981 267.742872 
L 674.832065 272.458595 
L 675.087192 272.762746 
L 675.323877 271.229148 
L 675.708308 265.084587 
L 676.325103 246.427127 
L 677.030292 214.135652 
L 679.14586 93.87254 
L 679.851049 63.980109 
L 680.553485 46.748135 
L 680.737808 44.631004 
L 680.966543 43.465658 
L 681.177764 43.84028 
L 681.460189 46.507676 
L 681.917683 55.923424 
L 682.622872 81.512581 
L 684.03325 158.699818 
L 685.443628 235.606354 
L 686.441654 267.463398 
L 686.853258 272.382892 
L 687.079065 272.854548 
L 687.288527 271.868443 
L 687.629124 267.376508 
L 688.178185 252.987166 
L 688.883374 223.391585 
L 691.70413 70.627034 
L 692.535246 47.556245 
L 692.939811 43.620282 
L 693.189927 43.731607 
L 693.457904 46.012061 
L 693.89241 54.330154 
L 694.584987 78.310592 
L 695.290176 113.310896 
L 697.405743 232.319897 
L 698.110932 258.85504 
L 698.665252 270.35797 
L 698.863807 272.234904 
L 699.045737 272.879791 
L 699.240403 272.424588 
L 699.52896 269.584927 
L 699.996186 259.685914 
L 700.701375 233.652872 
L 702.111753 156.079277 
L 703.522131 79.582677 
L 704.506042 48.6445 
L 704.916513 43.876396 
L 705.170791 43.541124 
L 705.40467 45.013892 
L 705.784594 50.977688 
L 706.394483 69.178062 
L 707.099672 101.205971 
L 709.215239 221.513305 
L 709.920428 251.692167 
L 710.63615 269.490186 
L 710.819149 271.626158 
L 711.046286 272.836591 
L 711.262736 272.491323 
L 711.543222 269.877392 
L 711.997636 260.612288 
L 712.702825 235.164454 
L 714.113203 158.102277 
L 715.523582 81.068982 
L 716.526683 48.908104 
L 716.938589 43.948639 
L 717.162273 43.454873 
L 717.368682 44.385543 
L 717.704351 48.706471 
L 718.245722 62.642167 
L 718.950911 91.91663 
L 721.771668 244.889013 
L 722.617161 268.661261 
L 723.022261 272.675817 
L 723.275901 272.59349 
L 723.542566 270.346875 
L 723.974979 262.125624 
L 724.664426 238.375798 
L 725.369615 203.480441 
L 727.485182 84.391271 
L 728.190371 57.709729 
L 728.750891 45.988554 
L 728.948959 44.099885 
L 729.131339 43.438089 
L 729.327555 43.886547 
L 729.615538 46.709892 
L 730.081854 56.563271 
L 730.787043 82.554998 
L 732.197421 160.09305 
L 733.6078 236.62857 
L 734.592362 267.640297 
L 735.003003 272.431271 
L 735.256911 272.780039 
L 735.489567 271.33347 
L 735.867526 265.447726 
L 736.474399 247.44543 
L 737.179588 215.533451 
L 739.295155 95.210414 
L 740.000344 64.907503 
L 740.721856 46.860126 
L 740.904276 44.716083 
L 741.130713 43.486175 
L 741.34945 43.818018 
L 741.629088 46.408712 
L 742.082154 55.608241 
L 742.787343 80.994104 
L 744.197722 158.001135 
L 745.6081 235.08945 
L 746.313289 260.56673 
L 746.823413 270.569209 
L 747.025459 272.360565 
L 747.248215 272.863845 
L 747.453288 271.957052 
L 747.7868 267.710024 
L 748.324801 253.971113 
L 749.02999 224.838312 
L 751.850746 71.780461 
L 752.702525 47.698441 
L 753.107863 43.649302 
L 753.363049 43.718631 
L 753.629138 45.950456 
L 754.060632 54.129336 
L 754.748703 77.778079 
L 755.453892 112.627111 
L 757.569459 231.750733 
L 758.274648 258.496416 
L 758.837892 270.314044 
L 759.035719 272.207678 
L 759.239105 272.887273 
L 759.422945 272.389514 
L 759.715509 269.434715 
L 760.189084 259.214453 
L 760.894273 232.89399 
L 762.304651 155.075546 
L 763.71503 78.854127 
L 764.694399 48.428527 
L 765.103697 43.819875 
L 765.38357 43.659381 
L 765.640439 45.660375 
L 766.05721 53.174339 
L 766.723161 75.221725 
L 767.42835 109.309608 
L 769.543917 228.921767 
L 770.249106 256.681205 
L 770.855952 270.092969 
L 771.236433 272.858571 
L 771.444083 272.464979 
L 771.727831 269.760809 
L 772.187427 260.241627 
L 772.892616 234.556263 
L 774.302994 157.284454 
L 775.713372 80.46524 
L 776.707932 48.814978 
L 777.119331 43.922725 
L 777.371603 43.514847 
L 777.598859 44.848004 
L 777.968132 50.394432 
L 778.561643 67.530531 
L 779.266832 98.922954 
L 782.087588 250.134158 
L 782.834665 269.301782 
L 783.015878 271.493215 
L 783.236282 272.791257 
L 783.466149 272.529889 
L 783.741656 270.051083 
L 784.188153 261.168147 
L 784.893343 236.085453 
L 785.598532 200.559361 
L 787.714099 81.998291 
L 788.419288 56.220545 
L 788.941859 45.805292 
L 789.142919 43.989485 
L 789.361148 43.441226 
L 789.559712 44.234961 
L 789.882703 48.129924 
L 790.404234 60.92505 
L 791.109423 89.35749 
L 792.519802 168.837153 
L 793.224991 209.232957 
L 793.93018 242.783984 
L 794.812549 268.400099 
L 795.219066 272.619537 
L 795.481834 272.616308 
L 795.745095 270.45642 
L 796.172078 262.484012 
L 796.85339 239.329492 
L 797.558579 204.709849 
L 799.674146 85.423866 
L 800.379335 58.364844 
L 800.955941 46.068609 
L 801.152497 44.151477 
L 801.350822 43.432781 
L 801.541937 43.902829 
L 801.831809 46.780047 
L 802.301118 56.784 
L 803.006307 82.911586 
L 804.416686 160.566189 
L 805.827064 236.973127 
L 806.809481 267.742872 
L 807.219565 272.458595 
L 807.474692 272.762746 
L 807.711377 271.229148 
L 808.095808 265.084587 
L 808.712603 246.427127 
L 809.417792 214.135652 
L 811.53336 93.87254 
L 812.238549 63.980109 
L 812.940985 46.748135 
L 813.125308 44.631004 
L 813.354043 43.465658 
L 813.565264 43.84028 
L 813.847689 46.507676 
L 814.305183 55.923424 
L 815.010372 81.512581 
L 816.42075 158.699818 
L 817.831128 235.606354 
L 818.829154 267.463398 
L 819.240758 272.382892 
L 819.466565 272.854548 
L 819.676027 271.868443 
L 820.016624 267.376508 
L 820.565685 252.987166 
L 821.270874 223.391585 
L 822.429318 158.158025 
L 822.429318 158.158025 
" style="fill:none;stroke:#2ca02c;stroke-linecap:square;stroke-width:1.5;"/>
   </g>
   <g id="patch_3">
    <path d="M 64.21 284.36 
L 64.21 31.96 
" style="fill:none;stroke:#000000;stroke-linecap:square;stroke-linejoin:miter;stroke-width:0.8;"/>
   </g>
   <g id="patch_4">
    <path d="M 858.535 284.36 
L 858.535 31.96 
" style="fill:none;stroke:#000000;stroke-linecap:square;stroke-linejoin:miter;stroke-width:0.8;"/>
   </g>
   <g id="patch_5">
    <path d="M 64.21 284.36 
L 858.535 284.36 
" style="fill:none;stroke:#000000;stroke-linecap:square;stroke-linejoin:miter;stroke-width:0.8;"/>
   </g>
   <g id="patch_6">
    <path d="M 64.21 31.96 
L 858.535 31.96 
" style="fill:none;stroke:#000000;stroke-linecap:square;stroke-linejoin:miter;stroke-width:0.8;"/>
   </g>
   <g id="text_14">
    <!-- Circuito Corriente Alterna - ($\mathrm{10v}$) - VAC:$\mathrm{120v}$-$\mathrm{60Hz}$ R:$\mathrm{10k\Omega}$ - LTspice -->
    <g transform="translate(216.7885 25.96)scale(0.144 -0.144)">
     <defs>
      <path d="M 64.40625 67.28125 
L 64.40625 56.890625 
Q 59.421875 61.53125 53.78125 63.8125 
Q 48.140625 66.109375 41.796875 66.109375 
Q 29.296875 66.109375 22.65625 58.46875 
Q 16.015625 50.828125 16.015625 36.375 
Q 16.015625 21.96875 22.65625 14.328125 
Q 29.296875 6.6875 41.796875 6.6875 
Q 48.140625 6.6875 53.78125 8.984375 
Q 59.421875 11.28125 64.40625 15.921875 
L 64.40625 5.609375 
Q 59.234375 2.09375 53.4375 0.328125 
Q 47.65625 -1.421875 41.21875 -1.421875 
Q 24.65625 -1.421875 15.125 8.703125 
Q 5.609375 18.84375 5.609375 36.375 
Q 5.609375 53.953125 15.125 64.078125 
Q 24.65625 74.21875 41.21875 74.21875 
Q 47.75 74.21875 53.53125 72.484375 
Q 59.328125 70.75 64.40625 67.28125 
z
" id="DejaVuSans-67"/>
      <path d="M 41.109375 46.296875 
Q 39.59375 47.171875 37.8125 47.578125 
Q 36.03125 48 33.890625 48 
Q 26.265625 48 22.1875 43.046875 
Q 18.109375 38.09375 18.109375 28.8125 
L 18.109375 0 
L 9.078125 0 
L 9.078125 54.6875 
L 18.109375 54.6875 
L 18.109375 46.1875 
Q 20.953125 51.171875 25.484375 53.578125 
Q 30.03125 56 36.53125 56 
Q 37.453125 56 38.578125 55.875 
Q 39.703125 55.765625 41.0625 55.515625 
z
" id="DejaVuSans-114"/>
      <path d="M 48.78125 52.59375 
L 48.78125 44.1875 
Q 44.96875 46.296875 41.140625 47.34375 
Q 37.3125 48.390625 33.40625 48.390625 
Q 24.65625 48.390625 19.8125 42.84375 
Q 14.984375 37.3125 14.984375 27.296875 
Q 14.984375 17.28125 19.8125 11.734375 
Q 24.65625 6.203125 33.40625 6.203125 
Q 37.3125 6.203125 41.140625 7.25 
Q 44.96875 8.296875 48.78125 10.40625 
L 48.78125 2.09375 
Q 45.015625 0.34375 40.984375 -0.53125 
Q 36.96875 -1.421875 32.421875 -1.421875 
Q 20.0625 -1.421875 12.78125 6.34375 
Q 5.515625 14.109375 5.515625 27.296875 
Q 5.515625 40.671875 12.859375 48.328125 
Q 20.21875 56 33.015625 56 
Q 37.15625 56 41.109375 55.140625 
Q 45.0625 54.296875 48.78125 52.59375 
z
" id="DejaVuSans-99"/>
      <path d="M 8.5 21.578125 
L 8.5 54.6875 
L 17.484375 54.6875 
L 17.484375 21.921875 
Q 17.484375 14.15625 20.5 10.265625 
Q 23.53125 6.390625 29.59375 6.390625 
Q 36.859375 6.390625 41.078125 11.03125 
Q 45.3125 15.671875 45.3125 23.6875 
L 45.3125 54.6875 
L 54.296875 54.6875 
L 54.296875 0 
L 45.3125 0 
L 45.3125 8.40625 
Q 42.046875 3.421875 37.71875 1 
Q 33.40625 -1.421875 27.6875 -1.421875 
Q 18.265625 -1.421875 13.375 4.4375 
Q 8.5 10.296875 8.5 21.578125 
z
M 31.109375 56 
z
" id="DejaVuSans-117"/>
      <path d="M 54.890625 33.015625 
L 54.890625 0 
L 45.90625 0 
L 45.90625 32.71875 
Q 45.90625 40.484375 42.875 44.328125 
Q 39.84375 48.1875 33.796875 48.1875 
Q 26.515625 48.1875 22.3125 43.546875 
Q 18.109375 38.921875 18.109375 30.90625 
L 18.109375 0 
L 9.078125 0 
L 9.078125 54.6875 
L 18.109375 54.6875 
L 18.109375 46.1875 
Q 21.34375 51.125 25.703125 53.5625 
Q 30.078125 56 35.796875 56 
Q 45.21875 56 50.046875 50.171875 
Q 54.890625 44.34375 54.890625 33.015625 
z
" id="DejaVuSans-110"/>
      <path d="M 34.1875 63.1875 
L 20.796875 26.90625 
L 47.609375 26.90625 
z
M 28.609375 72.90625 
L 39.796875 72.90625 
L 67.578125 0 
L 57.328125 0 
L 50.6875 18.703125 
L 17.828125 18.703125 
L 11.1875 0 
L 0.78125 0 
z
" id="DejaVuSans-65"/>
      <path d="M 4.890625 31.390625 
L 31.203125 31.390625 
L 31.203125 23.390625 
L 4.890625 23.390625 
z
" id="DejaVuSans-45"/>
      <path d="M 2.984375 54.6875 
L 12.5 54.6875 
L 29.59375 8.796875 
L 46.6875 54.6875 
L 56.203125 54.6875 
L 35.6875 0 
L 23.484375 0 
z
" id="DejaVuSans-118"/>
      <path d="M 11.71875 12.40625 
L 22.015625 12.40625 
L 22.015625 0 
L 11.71875 0 
z
M 11.71875 51.703125 
L 22.015625 51.703125 
L 22.015625 39.3125 
L 11.71875 39.3125 
z
" id="DejaVuSans-58"/>
      <path d="M 9.8125 72.90625 
L 19.671875 72.90625 
L 19.671875 43.015625 
L 55.515625 43.015625 
L 55.515625 72.90625 
L 65.375 72.90625 
L 65.375 0 
L 55.515625 0 
L 55.515625 34.71875 
L 19.671875 34.71875 
L 19.671875 0 
L 9.8125 0 
z
" id="DejaVuSans-72"/>
      <path d="M 5.515625 54.6875 
L 48.1875 54.6875 
L 48.1875 46.484375 
L 14.40625 7.171875 
L 48.1875 7.171875 
L 48.1875 0 
L 4.296875 0 
L 4.296875 8.203125 
L 38.09375 47.515625 
L 5.515625 47.515625 
z
" id="DejaVuSans-122"/>
      <path d="M 44.390625 34.1875 
Q 47.5625 33.109375 50.5625 29.59375 
Q 53.5625 26.078125 56.59375 19.921875 
L 66.609375 0 
L 56 0 
L 46.6875 18.703125 
Q 43.0625 26.03125 39.671875 28.421875 
Q 36.28125 30.8125 30.421875 30.8125 
L 19.671875 30.8125 
L 19.671875 0 
L 9.8125 0 
L 9.8125 72.90625 
L 32.078125 72.90625 
Q 44.578125 72.90625 50.734375 67.671875 
Q 56.890625 62.453125 56.890625 51.90625 
Q 56.890625 45.015625 53.6875 40.46875 
Q 50.484375 35.9375 44.390625 34.1875 
z
M 19.671875 64.796875 
L 19.671875 38.921875 
L 32.078125 38.921875 
Q 39.203125 38.921875 42.84375 42.21875 
Q 46.484375 45.515625 46.484375 51.90625 
Q 46.484375 58.296875 42.84375 61.546875 
Q 39.203125 64.796875 32.078125 64.796875 
z
" id="DejaVuSans-82"/>
      <path d="M 9.078125 75.984375 
L 18.109375 75.984375 
L 18.109375 31.109375 
L 44.921875 54.6875 
L 56.390625 54.6875 
L 27.390625 29.109375 
L 57.625 0 
L 45.90625 0 
L 18.109375 26.703125 
L 18.109375 0 
L 9.078125 0 
z
" id="DejaVuSans-107"/>
      <path d="M 72.609375 8.6875 
L 72.609375 0 
L 43.3125 0 
L 43.3125 8.6875 
Q 51.953125 13.421875 56.78125 21.53125 
Q 61.625 29.640625 61.625 39.5 
Q 61.625 51.21875 55.171875 58.296875 
Q 48.734375 65.375 38.1875 65.375 
Q 27.640625 65.375 21.171875 58.265625 
Q 14.703125 51.171875 14.703125 39.5 
Q 14.703125 29.640625 19.53125 21.53125 
Q 24.421875 13.421875 33.109375 8.6875 
L 33.109375 0 
L 3.8125 0 
L 3.8125 8.6875 
L 19.390625 8.6875 
Q 11.671875 15.484375 8.109375 22.75 
Q 4.59375 30.03125 4.59375 39.015625 
Q 4.59375 54.546875 13.96875 64.15625 
Q 23.296875 73.78125 38.1875 73.78125 
Q 52.984375 73.78125 62.40625 64.15625 
Q 71.78125 54.59375 71.78125 39.5 
Q 71.78125 30.03125 68.3125 22.796875 
Q 64.84375 15.578125 56.984375 8.6875 
z
" id="DejaVuSans-937"/>
      <path d="M 9.8125 72.90625 
L 19.671875 72.90625 
L 19.671875 8.296875 
L 55.171875 8.296875 
L 55.171875 0 
L 9.8125 0 
z
" id="DejaVuSans-76"/>
     </defs>
     <use transform="translate(0 0.015625)" xlink:href="#DejaVuSans-67"/>
     <use transform="translate(69.824219 0.015625)" xlink:href="#DejaVuSans-105"/>
     <use transform="translate(97.607422 0.015625)" xlink:href="#DejaVuSans-114"/>
     <use transform="translate(138.720703 0.015625)" xlink:href="#DejaVuSans-99"/>
     <use transform="translate(193.701172 0.015625)" xlink:href="#DejaVuSans-117"/>
     <use transform="translate(257.080078 0.015625)" xlink:href="#DejaVuSans-105"/>
     <use transform="translate(284.863281 0.015625)" xlink:href="#DejaVuSans-116"/>
     <use transform="translate(324.072266 0.015625)" xlink:href="#DejaVuSans-111"/>
     <use transform="translate(385.253906 0.015625)" xlink:href="#DejaVuSans-32"/>
     <use transform="translate(417.041016 0.015625)" xlink:href="#DejaVuSans-67"/>
     <use transform="translate(486.865234 0.015625)" xlink:href="#DejaVuSans-111"/>
     <use transform="translate(548.046875 0.015625)" xlink:href="#DejaVuSans-114"/>
     <use transform="translate(589.160156 0.015625)" xlink:href="#DejaVuSans-114"/>
     <use transform="translate(630.273438 0.015625)" xlink:href="#DejaVuSans-105"/>
     <use transform="translate(658.056641 0.015625)" xlink:href="#DejaVuSans-101"/>
     <use transform="translate(719.580078 0.015625)" xlink:href="#DejaVuSans-110"/>
     <use transform="translate(782.958984 0.015625)" xlink:href="#DejaVuSans-116"/>
     <use transform="translate(822.167969 0.015625)" xlink:href="#DejaVuSans-101"/>
     <use transform="translate(883.691406 0.015625)" xlink:href="#DejaVuSans-32"/>
     <use transform="translate(915.478516 0.015625)" xlink:href="#DejaVuSans-65"/>
     <use transform="translate(983.886719 0.015625)" xlink:href="#DejaVuSans-108"/>
     <use transform="translate(1011.669922 0.015625)" xlink:href="#DejaVuSans-116"/>
     <use transform="translate(1050.878906 0.015625)" xlink:href="#DejaVuSans-101"/>
     <use transform="translate(1112.402344 0.015625)" xlink:href="#DejaVuSans-114"/>
     <use transform="translate(1153.515625 0.015625)" xlink:href="#DejaVuSans-110"/>
     <use transform="translate(1216.894531 0.015625)" xlink:href="#DejaVuSans-97"/>
     <use transform="translate(1278.173828 0.015625)" xlink:href="#DejaVuSans-32"/>
     <use transform="translate(1309.960938 0.015625)" xlink:href="#DejaVuSans-45"/>
     <use transform="translate(1346.044922 0.015625)" xlink:href="#DejaVuSans-32"/>
     <use transform="translate(1377.832031 0.015625)" xlink:href="#DejaVuSans-40"/>
     <use transform="translate(1416.845703 0.015625)" xlink:href="#DejaVuSans-49"/>
     <use transform="translate(1480.46875 0.015625)" xlink:href="#DejaVuSans-48"/>
     <use transform="translate(1544.091797 0.015625)" xlink:href="#DejaVuSans-118"/>
     <use transform="translate(1603.271484 0.015625)" xlink:href="#DejaVuSans-41"/>
     <use transform="translate(1642.285156 0.015625)" xlink:href="#DejaVuSans-32"/>
     <use transform="translate(1674.072266 0.015625)" xlink:href="#DejaVuSans-45"/>
     <use transform="translate(1710.15625 0.015625)" xlink:href="#DejaVuSans-32"/>
     <use transform="translate(1741.943359 0.015625)" xlink:href="#DejaVuSans-86"/>
     <use transform="translate(1810.351562 0.015625)" xlink:href="#DejaVuSans-65"/>
     <use transform="translate(1878.759766 0.015625)" xlink:href="#DejaVuSans-67"/>
     <use transform="translate(1948.583984 0.015625)" xlink:href="#DejaVuSans-58"/>
     <use transform="translate(1982.275391 0.015625)" xlink:href="#DejaVuSans-49"/>
     <use transform="translate(2045.898438 0.015625)" xlink:href="#DejaVuSans-50"/>
     <use transform="translate(2109.521484 0.015625)" xlink:href="#DejaVuSans-48"/>
     <use transform="translate(2173.144531 0.015625)" xlink:href="#DejaVuSans-118"/>
     <use transform="translate(2232.324219 0.015625)" xlink:href="#DejaVuSans-45"/>
     <use transform="translate(2268.408203 0.015625)" xlink:href="#DejaVuSans-54"/>
     <use transform="translate(2332.03125 0.015625)" xlink:href="#DejaVuSans-48"/>
     <use transform="translate(2395.654297 0.015625)" xlink:href="#DejaVuSans-72"/>
     <use transform="translate(2470.849609 0.015625)" xlink:href="#DejaVuSans-122"/>
     <use transform="translate(2523.339844 0.015625)" xlink:href="#DejaVuSans-32"/>
     <use transform="translate(2555.126953 0.015625)" xlink:href="#DejaVuSans-82"/>
     <use transform="translate(2624.609375 0.015625)" xlink:href="#DejaVuSans-58"/>
     <use transform="translate(2658.300781 0.015625)" xlink:href="#DejaVuSans-49"/>
     <use transform="translate(2721.923828 0.015625)" xlink:href="#DejaVuSans-48"/>
     <use transform="translate(2785.546875 0.015625)" xlink:href="#DejaVuSans-107"/>
     <use transform="translate(2843.457031 0.015625)" xlink:href="#DejaVuSans-937"/>
     <use transform="translate(2919.873047 0.015625)" xlink:href="#DejaVuSans-32"/>
     <use transform="translate(2951.660156 0.015625)" xlink:href="#DejaVuSans-45"/>
     <use transform="translate(2987.744141 0.015625)" xlink:href="#DejaVuSans-32"/>
     <use transform="translate(3019.53125 0.015625)" xlink:href="#DejaVuSans-76"/>
     <use transform="translate(3075.244141 0.015625)" xlink:href="#DejaVuSans-84"/>
     <use transform="translate(3136.328125 0.015625)" xlink:href="#DejaVuSans-115"/>
     <use transform="translate(3188.427734 0.015625)" xlink:href="#DejaVuSans-112"/>
     <use transform="translate(3251.904297 0.015625)" xlink:href="#DejaVuSans-105"/>
     <use transform="translate(3279.6875 0.015625)" xlink:href="#DejaVuSans-99"/>
     <use transform="translate(3334.667969 0.015625)" xlink:href="#DejaVuSans-101"/>
    </g>
   </g>
  </g>
  <g id="axes_2">
   <g id="matplotlib.axis_3">
    <g id="ytick_6">
     <g id="line2d_13">
      <path clip-path="url(#p7fb17029f4)" d="M 64.21 253.770043 
L 858.535 253.770043 
" style="fill:none;stroke:#b0b0b0;stroke-linecap:square;stroke-width:0.8;"/>
     </g>
     <g id="line2d_14">
      <defs>
       <path d="M 0 0 
L 3.5 0 
" id="m2575e0a2d4" style="stroke:#000000;stroke-width:0.8;"/>
      </defs>
      <g>
       <use style="stroke:#000000;stroke-width:0.8;" x="858.535" xlink:href="#m2575e0a2d4" y="253.770043"/>
      </g>
     </g>
     <g id="text_15">
      <!-- −0.010 -->
      <g style="fill:#d62728;" transform="translate(865.535 257.949184)scale(0.11 -0.11)">
       <use xlink:href="#DejaVuSans-8722"/>
       <use x="83.789062" xlink:href="#DejaVuSans-48"/>
       <use x="147.412109" xlink:href="#DejaVuSans-46"/>
       <use x="179.199219" xlink:href="#DejaVuSans-48"/>
       <use x="242.822266" xlink:href="#DejaVuSans-49"/>
       <use x="306.445312" xlink:href="#DejaVuSans-48"/>
      </g>
     </g>
    </g>
    <g id="ytick_7">
     <g id="line2d_15">
      <path clip-path="url(#p7fb17029f4)" d="M 64.21 205.966009 
L 858.535 205.966009 
" style="fill:none;stroke:#b0b0b0;stroke-linecap:square;stroke-width:0.8;"/>
     </g>
     <g id="line2d_16">
      <g>
       <use style="stroke:#000000;stroke-width:0.8;" x="858.535" xlink:href="#m2575e0a2d4" y="205.966009"/>
      </g>
     </g>
     <g id="text_16">
      <!-- −0.005 -->
      <g style="fill:#d62728;" transform="translate(865.535 210.14515)scale(0.11 -0.11)">
       <use xlink:href="#DejaVuSans-8722"/>
       <use x="83.789062" xlink:href="#DejaVuSans-48"/>
       <use x="147.412109" xlink:href="#DejaVuSans-46"/>
       <use x="179.199219" xlink:href="#DejaVuSans-48"/>
       <use x="242.822266" xlink:href="#DejaVuSans-48"/>
       <use x="306.445312" xlink:href="#DejaVuSans-53"/>
      </g>
     </g>
    </g>
    <g id="ytick_8">
     <g id="line2d_17">
      <path clip-path="url(#p7fb17029f4)" d="M 64.21 158.161975 
L 858.535 158.161975 
" style="fill:none;stroke:#b0b0b0;stroke-linecap:square;stroke-width:0.8;"/>
     </g>
     <g id="line2d_18">
      <g>
       <use style="stroke:#000000;stroke-width:0.8;" x="858.535" xlink:href="#m2575e0a2d4" y="158.161975"/>
      </g>
     </g>
     <g id="text_17">
      <!-- 0.000 -->
      <g style="fill:#d62728;" transform="translate(865.535 162.341116)scale(0.11 -0.11)">
       <use xlink:href="#DejaVuSans-48"/>
       <use x="63.623047" xlink:href="#DejaVuSans-46"/>
       <use x="95.410156" xlink:href="#DejaVuSans-48"/>
       <use x="159.033203" xlink:href="#DejaVuSans-48"/>
       <use x="222.65625" xlink:href="#DejaVuSans-48"/>
      </g>
     </g>
    </g>
    <g id="ytick_9">
     <g id="line2d_19">
      <path clip-path="url(#p7fb17029f4)" d="M 64.21 110.357941 
L 858.535 110.357941 
" style="fill:none;stroke:#b0b0b0;stroke-linecap:square;stroke-width:0.8;"/>
     </g>
     <g id="line2d_20">
      <g>
       <use style="stroke:#000000;stroke-width:0.8;" x="858.535" xlink:href="#m2575e0a2d4" y="110.357941"/>
      </g>
     </g>
     <g id="text_18">
      <!-- 0.005 -->
      <g style="fill:#d62728;" transform="translate(865.535 114.537082)scale(0.11 -0.11)">
       <use xlink:href="#DejaVuSans-48"/>
       <use x="63.623047" xlink:href="#DejaVuSans-46"/>
       <use x="95.410156" xlink:href="#DejaVuSans-48"/>
       <use x="159.033203" xlink:href="#DejaVuSans-48"/>
       <use x="222.65625" xlink:href="#DejaVuSans-53"/>
      </g>
     </g>
    </g>
    <g id="ytick_10">
     <g id="line2d_21">
      <path clip-path="url(#p7fb17029f4)" d="M 64.21 62.553907 
L 858.535 62.553907 
" style="fill:none;stroke:#b0b0b0;stroke-linecap:square;stroke-width:0.8;"/>
     </g>
     <g id="line2d_22">
      <g>
       <use style="stroke:#000000;stroke-width:0.8;" x="858.535" xlink:href="#m2575e0a2d4" y="62.553907"/>
      </g>
     </g>
     <g id="text_19">
      <!-- 0.010 -->
      <g style="fill:#d62728;" transform="translate(865.535 66.733047)scale(0.11 -0.11)">
       <use xlink:href="#DejaVuSans-48"/>
       <use x="63.623047" xlink:href="#DejaVuSans-46"/>
       <use x="95.410156" xlink:href="#DejaVuSans-48"/>
       <use x="159.033203" xlink:href="#DejaVuSans-49"/>
       <use x="222.65625" xlink:href="#DejaVuSans-48"/>
      </g>
     </g>
    </g>
    <g id="text_20">
     <!-- Corriente (A) -->
     <g style="fill:#d62728;" transform="translate(918.601875 193.531875)rotate(-90)scale(0.11 -0.11)">
      <use xlink:href="#DejaVuSans-67"/>
      <use x="69.824219" xlink:href="#DejaVuSans-111"/>
      <use x="131.005859" xlink:href="#DejaVuSans-114"/>
      <use x="170.369141" xlink:href="#DejaVuSans-114"/>
      <use x="211.482422" xlink:href="#DejaVuSans-105"/>
      <use x="239.265625" xlink:href="#DejaVuSans-101"/>
      <use x="300.789062" xlink:href="#DejaVuSans-110"/>
      <use x="364.167969" xlink:href="#DejaVuSans-116"/>
      <use x="403.376953" xlink:href="#DejaVuSans-101"/>
      <use x="464.900391" xlink:href="#DejaVuSans-32"/>
      <use x="496.6875" xlink:href="#DejaVuSans-40"/>
      <use x="535.701172" xlink:href="#DejaVuSans-65"/>
      <use x="604.109375" xlink:href="#DejaVuSans-41"/>
     </g>
    </g>
   </g>
   <g id="line2d_23">
    <path clip-path="url(#p7fb17029f4)" d="M 100.315682 158.161975 
L 101.072873 202.343068 
L 101.778062 237.488909 
L 102.757287 267.898265 
L 103.166548 272.501862 
L 103.446201 272.660119 
L 103.703152 270.65711 
L 104.120056 263.137311 
L 104.786205 241.075746 
L 105.491394 206.980893 
L 107.606962 87.372576 
L 108.312151 59.622095 
L 108.918606 46.225005 
L 109.299274 43.460971 
L 109.50671 43.855672 
L 109.790537 46.562052 
L 110.250258 56.087446 
L 110.955448 81.778566 
L 112.365826 159.055421 
L 113.776204 235.869384 
L 114.770557 267.507274 
L 115.181943 272.397896 
L 115.434241 272.804831 
L 115.661584 271.469882 
L 116.030997 265.918072 
L 116.624723 248.76817 
L 117.329912 217.367304 
L 120.150668 66.165088 
L 120.897334 47.015704 
L 121.078506 44.825597 
L 121.298937 43.528362 
L 121.528707 43.790385 
L 121.80425 46.270163 
L 122.250805 55.155856 
L 122.955994 80.24122 
L 123.661183 115.769086 
L 125.776751 234.328508 
L 126.48194 260.103626 
L 127.004402 270.515224 
L 127.20547 272.330818 
L 127.423739 272.878692 
L 127.62236 272.083989 
L 127.945444 268.185994 
L 128.46712 255.382696 
L 129.172309 226.944037 
L 130.582687 147.459865 
L 131.287876 107.066375 
L 131.993065 73.520432 
L 132.875166 47.917957 
L 133.281673 43.700026 
L 133.544374 43.703855 
L 133.80766 45.864375 
L 134.234683 53.838595 
L 134.916054 76.997464 
L 135.621243 111.619147 
L 137.73681 230.903746 
L 138.441999 257.960012 
L 139.018488 270.251984 
L 139.215054 272.16891 
L 139.413425 272.887273 
L 139.604475 272.416964 
L 139.894371 269.539064 
L 140.363718 259.533207 
L 141.068907 233.403912 
L 142.479285 155.747849 
L 143.889663 79.342539 
L 144.872054 48.575841 
L 145.282131 43.861066 
L 145.537273 43.55748 
L 145.774009 45.092189 
L 146.158521 51.240046 
L 146.775442 69.905819 
L 147.480631 102.202036 
L 149.596198 222.464243 
L 150.301387 252.351462 
L 151.003583 269.573262 
L 151.18793 271.690048 
L 151.416694 272.854571 
L 151.62782 272.479436 
L 151.91028 269.81107 
L 152.367829 260.392591 
L 153.073018 234.800885 
L 154.483397 157.611401 
L 155.893775 80.707168 
L 156.891709 48.855603 
L 157.303307 43.936831 
L 157.529153 43.465579 
L 157.73867 44.452696 
L 158.079356 48.947747 
L 158.628556 63.345333 
L 159.333745 92.946681 
L 162.154501 245.707317 
L 162.985356 268.765519 
L 163.389912 272.700068 
L 163.639965 272.588229 
L 163.907966 270.307162 
L 164.342509 261.987321 
L 165.035142 238.002722 
L 165.740331 203.000534 
L 167.855899 83.993 
L 168.561088 57.460498 
L 169.115296 45.961483 
L 169.313859 44.084761 
L 169.495848 43.440131 
L 169.690445 43.895634 
L 169.979028 46.736032 
L 170.446294 56.637103 
L 171.151483 82.672006 
L 172.561861 160.247199 
L 173.972239 236.742043 
L 174.95612 267.676906 
L 175.366584 272.44398 
L 175.620879 272.778643 
L 175.854813 271.304689 
L 176.234826 265.337364 
L 176.84485 247.128045 
L 177.550039 215.094925 
L 179.665606 94.78835 
L 180.370796 64.615091 
L 181.086257 46.828275 
L 181.269282 44.692669 
L 181.49645 43.483116 
L 181.712797 43.828981 
L 181.993321 46.44396 
L 182.447796 55.712021 
L 183.152985 81.162643 
L 184.563363 158.227297 
L 185.973742 235.258108 
L 186.976743 267.412991 
L 187.388643 272.371668 
L 187.612369 272.865004 
L 187.818838 271.933254 
L 188.154604 267.608984 
L 188.696127 253.664405 
L 189.401316 224.383581 
L 192.222072 71.415124 
L 193.067282 47.656781 
L 193.472372 43.643779 
L 193.725942 43.726687 
L 193.992633 45.973968 
L 194.425087 54.197127 
L 195.114596 77.951501 
L 195.819785 112.848938 
L 197.935352 231.936548 
L 198.640542 258.615203 
L 199.200939 270.33205 
L 199.399016 272.220488 
L 199.581333 272.881906 
L 199.777552 272.433466 
L 200.065534 269.610165 
L 200.531848 259.75691 
L 201.237037 233.765295 
L 202.647415 156.22734 
L 204.057793 79.691714 
L 205.042357 48.679787 
L 205.452999 43.888752 
L 205.706906 43.539947 
L 205.939559 44.986446 
L 206.317512 50.871979 
L 206.924376 68.873739 
L 207.629566 100.785403 
L 209.745133 221.10848 
L 210.450322 251.411726 
L 211.17185 269.459781 
L 211.354268 271.603846 
L 211.580703 272.833806 
L 211.799446 272.502 
L 212.079082 269.911369 
L 212.532145 260.712017 
L 213.237334 235.326323 
L 214.647712 158.319442 
L 216.05809 81.230977 
L 216.763279 55.75353 
L 217.27341 45.750823 
L 217.475456 43.959454 
L 217.698209 43.456148 
L 217.903279 44.362876 
L 218.236784 48.609705 
L 218.774777 62.348084 
L 219.479966 91.480499 
L 222.300722 244.538578 
L 223.152518 268.62144 
L 223.557856 272.670673 
L 223.813047 272.60138 
L 224.079134 270.369595 
L 224.510625 262.190829 
L 225.198693 238.542361 
L 225.903882 203.693455 
L 228.019449 84.56974 
L 228.724638 57.823883 
L 229.287889 46.005992 
L 229.485716 44.112345 
L 229.689099 43.432728 
L 229.872942 43.930473 
L 230.165505 46.885229 
L 230.639078 57.10537 
L 231.344267 83.425727 
L 232.754645 161.244082 
L 234.165023 237.465604 
L 235.144394 267.891394 
L 235.553693 272.500105 
L 235.833568 272.660625 
L 236.090436 270.659654 
L 236.507206 263.145759 
L 237.173154 241.098538 
L 237.878344 207.010737 
L 239.993911 87.398533 
L 240.6991 59.638991 
L 241.30595 46.227055 
L 241.686429 43.461434 
L 241.894082 43.855013 
L 242.177829 46.559157 
L 242.637423 56.078267 
L 243.342612 81.763563 
L 244.75299 159.035314 
L 246.163368 235.854589 
L 247.157931 267.504996 
L 247.56933 272.397267 
L 247.821601 272.805156 
L 248.048856 271.472021 
L 248.418128 265.925655 
L 249.011636 248.789718 
L 249.716825 217.397394 
L 252.537582 66.186085 
L 253.284663 47.018247 
L 253.465877 44.826799 
L 253.68628 43.528748 
L 253.916149 43.790108 
L 254.191655 46.268902 
L 254.638152 55.151806 
L 255.343341 80.234469 
L 256.04853 115.76054 
L 258.164097 234.321629 
L 258.869286 260.099406 
L 259.391859 270.514702 
L 259.592918 272.330512 
L 259.811147 272.878775 
L 260.00971 272.085052 
L 260.3327 268.190124 
L 260.85423 255.395094 
L 261.559419 226.962726 
L 262.969797 147.483116 
L 263.674986 107.087285 
L 264.380175 73.536198 
L 265.262548 47.919924 
L 265.669065 43.700468 
L 265.931834 43.70369 
L 266.195095 45.863571 
L 266.622077 53.835958 
L 267.303388 76.990427 
L 268.008577 111.610046 
L 270.124144 230.896045 
L 270.829333 257.955099 
L 271.405941 270.251384 
L 271.602496 272.168519 
L 271.800821 272.887218 
L 271.991936 272.417173 
L 272.281808 269.539963 
L 272.751117 259.536033 
L 273.456306 233.408467 
L 274.866684 155.753881 
L 276.277063 79.346923 
L 277.259481 48.577143 
L 277.669564 43.861409 
L 277.924691 43.557251 
L 278.161376 45.090836 
L 278.545805 51.235358 
L 279.162599 69.892722 
L 279.867788 102.184141 
L 281.983356 222.447264 
L 282.688545 252.339756 
L 283.390984 269.571849 
L 283.575307 271.688984 
L 283.804041 272.854339 
L 284.015264 272.479723 
L 284.297688 269.812339 
L 284.755181 260.396623 
L 285.46037 234.807495 
L 286.870748 157.620284 
L 288.281127 80.713722 
L 289.279154 48.856613 
L 289.690757 43.937111 
L 289.916564 43.46545 
L 290.126025 44.451544 
L 290.466622 48.943443 
L 291.015681 63.332688 
L 291.72087 92.928201 
L 294.541626 245.692798 
L 295.372744 268.763734 
L 295.77731 272.699714 
L 296.027427 272.588395 
L 296.295404 270.307948 
L 296.729909 261.989876 
L 297.422485 238.009486 
L 298.127674 203.009204 
L 300.243241 84.000186 
L 300.94843 57.465012 
L 301.502752 45.962037 
L 301.701306 44.0851 
L 301.883236 43.44021 
L 302.077903 43.89541 
L 302.36646 46.735062 
L 302.833684 56.634051 
L 303.538874 82.667071 
L 304.949252 160.240647 
L 306.35963 236.737268 
L 307.343541 267.675483 
L 307.754012 272.443599 
L 308.00829 272.778879 
L 308.242169 271.306124 
L 308.622092 265.34237 
L 309.231978 247.1421 
L 309.937168 215.114252 
L 312.052735 94.806909 
L 312.757924 64.627982 
L 313.473649 46.829832 
L 313.656648 44.693856 
L 313.883784 43.483412 
L 314.100236 43.828674 
L 314.380721 46.442592 
L 314.835134 55.707662 
L 315.540323 81.155463 
L 316.950702 158.217611 
L 318.36108 235.250935 
L 319.364182 267.411883 
L 319.776088 272.371358 
L 319.999772 272.865128 
L 320.20618 271.934471 
L 320.541848 267.613582 
L 321.083218 253.67799 
L 321.788407 224.403602 
L 324.609163 71.431173 
L 325.454659 47.658762 
L 325.85976 43.644187 
L 326.1134 43.726508 
L 326.380065 45.973115 
L 326.812477 54.194343 
L 327.501924 77.944117 
L 328.207113 112.83945 
L 330.32268 231.928637 
L 331.027869 258.610213 
L 331.588391 270.331439 
L 331.786458 272.220111 
L 331.968839 272.881911 
L 332.165055 272.433453 
L 332.453038 269.610107 
L 332.919354 259.756727 
L 333.624543 233.764999 
L 335.034921 156.226946 
L 336.4453 79.691427 
L 337.429862 48.679702 
L 337.840503 43.888729 
L 338.094411 43.539961 
L 338.327068 44.986531 
L 338.705027 50.872278 
L 339.311899 68.874579 
L 340.017088 100.786562 
L 342.132655 221.109599 
L 342.837844 251.412506 
L 343.559356 269.459875 
L 343.741776 271.603918 
L 343.968213 272.833825 
L 344.18695 272.501981 
L 344.466588 269.911288 
L 344.919654 260.711756 
L 345.624843 235.325891 
L 347.035222 158.318858 
L 348.4456 81.230545 
L 349.150789 55.753267 
L 349.660913 45.750791 
L 349.862959 43.959435 
L 350.085715 43.456155 
L 350.290788 44.362949 
L 350.6243 48.609979 
L 351.162301 62.348897 
L 351.86749 91.481702 
L 354.688247 244.539551 
L 355.540026 268.62156 
L 355.945363 272.670699 
L 356.200549 272.601369 
L 356.466638 270.369544 
L 356.898132 262.190662 
L 357.586203 238.541915 
L 358.291392 203.692883 
L 360.40696 84.569261 
L 361.112149 57.82358 
L 361.675392 46.005955 
L 361.87322 44.112321 
L 362.076605 43.432727 
L 362.260445 43.930486 
L 362.553009 46.885286 
L 363.026584 57.105549 
L 363.731773 83.426013 
L 365.142152 161.244458 
L 366.55253 237.465876 
L 367.531899 267.891474 
L 367.941197 272.500126 
L 368.22107 272.660619 
L 368.477939 270.659624 
L 368.89471 263.14566 
L 369.560661 241.098271 
L 370.26585 207.010388 
L 372.381417 87.398229 
L 373.086606 59.638793 
L 373.693452 46.227031 
L 374.073933 43.461429 
L 374.281583 43.855021 
L 374.565331 46.559191 
L 375.024927 56.078374 
L 375.730116 81.763739 
L 377.140494 159.035549 
L 378.550872 235.854762 
L 379.545432 267.505022 
L 379.956831 272.397275 
L 380.209103 272.805153 
L 380.436359 271.471996 
L 380.805632 265.925567 
L 381.399143 248.789466 
L 382.104332 217.397042 
L 384.925089 66.185839 
L 385.672165 47.018217 
L 385.853378 44.826785 
L 386.073782 43.528743 
L 386.303649 43.790112 
L 386.579156 46.268917 
L 387.025653 55.151854 
L 387.730843 80.234548 
L 388.436032 115.76064 
L 390.551599 234.32171 
L 391.256788 260.099456 
L 391.779359 270.514708 
L 391.980419 272.330515 
L 392.198648 272.878774 
L 392.397212 272.085039 
L 392.720203 268.190075 
L 393.241734 255.394949 
L 393.946923 226.962508 
L 395.357302 147.482844 
L 396.062491 107.08704 
L 396.76768 73.536014 
L 397.650049 47.919901 
L 398.056566 43.700463 
L 398.319334 43.703692 
L 398.582596 45.863581 
L 399.009578 53.835989 
L 399.69089 76.990509 
L 400.396079 111.610152 
L 402.511646 230.896135 
L 403.216835 257.955157 
L 403.793441 270.251391 
L 403.989997 272.168523 
L 404.188322 272.887219 
L 404.379437 272.417171 
L 404.669309 269.539953 
L 405.138618 259.536 
L 405.843807 233.408414 
L 407.254186 155.753811 
L 408.664564 79.346872 
L 409.646981 48.577128 
L 410.057065 43.861405 
L 410.312192 43.557254 
L 410.548877 45.090852 
L 410.933308 51.235413 
L 411.550103 69.892875 
L 412.255292 102.18435 
L 414.37086 222.447463 
L 415.076049 252.339893 
L 415.778485 269.571865 
L 415.962808 271.688997 
L 416.191543 272.854342 
L 416.402764 272.47972 
L 416.685189 269.812324 
L 417.142683 260.396575 
L 417.847872 234.807418 
L 419.25825 157.620181 
L 420.668628 80.713646 
L 421.666654 48.856602 
L 422.078258 43.937108 
L 422.304065 43.465452 
L 422.513527 44.451557 
L 422.854124 48.943493 
L 423.403185 63.332835 
L 424.108374 92.928417 
L 426.92913 245.692968 
L 427.760246 268.763755 
L 428.164811 272.699718 
L 428.414927 272.588393 
L 428.682905 270.307938 
L 429.11741 261.989846 
L 429.809987 238.009407 
L 430.515176 203.009103 
L 432.630743 84.000102 
L 433.335932 57.464959 
L 433.890252 45.96203 
L 434.088807 44.085096 
L 434.270737 43.440209 
L 434.465403 43.895412 
L 434.75396 46.735073 
L 435.221186 56.634086 
L 435.926375 82.667129 
L 437.336753 160.240723 
L 438.747131 236.737323 
L 439.731042 267.6755 
L 440.141513 272.443604 
L 440.395791 272.778876 
L 440.62967 271.306108 
L 441.009594 265.342311 
L 441.619483 247.141936 
L 442.324672 215.114026 
L 444.440239 94.806692 
L 445.145428 64.627831 
L 445.86115 46.829814 
L 446.044149 44.693842 
L 446.271286 43.483409 
L 446.487736 43.828677 
L 446.768222 46.442608 
L 447.222636 55.707713 
L 447.927825 81.155547 
L 449.338203 158.217725 
L 450.748582 235.251019 
L 451.751683 267.411896 
L 452.163589 272.371361 
L 452.387273 272.865127 
L 452.593682 271.934457 
L 452.929351 267.613528 
L 453.470722 253.677831 
L 454.175911 224.403367 
L 456.996668 71.430985 
L 457.842161 47.658738 
L 458.247261 43.644183 
L 458.500901 43.72651 
L 458.767566 45.973125 
L 459.199979 54.194376 
L 459.889426 77.944203 
L 460.594615 112.839561 
L 462.710182 231.92873 
L 463.415371 258.610272 
L 463.975891 270.331446 
L 464.173959 272.220115 
L 464.356339 272.881911 
L 464.552555 272.433453 
L 464.840538 269.610108 
L 465.306854 259.756729 
L 466.012043 233.765002 
L 467.422421 156.22695 
L 468.8328 79.69143 
L 469.817362 48.679703 
L 470.228003 43.888729 
L 470.481911 43.539961 
L 470.714567 44.98653 
L 471.092526 50.872274 
L 471.699398 68.874569 
L 472.404588 100.786549 
L 474.520155 221.109586 
L 475.225344 251.412496 
L 475.946856 269.459874 
L 476.129276 271.603917 
L 476.355713 272.833825 
L 476.57445 272.501982 
L 476.854088 269.911288 
L 477.307154 260.711759 
L 478.012343 235.325896 
L 479.422722 158.318865 
L 480.8331 81.23055 
L 481.538289 55.75327 
L 482.048413 45.750791 
L 482.250459 43.959435 
L 482.473215 43.456155 
L 482.678288 44.362948 
L 483.0118 48.609976 
L 483.549801 62.348887 
L 484.25499 91.481688 
L 487.075746 244.539539 
L 487.927525 268.621559 
L 488.332863 272.670698 
L 488.588049 272.601369 
L 488.854138 270.369544 
L 489.285632 262.190664 
L 489.973703 238.541921 
L 490.678892 203.692889 
L 492.794459 84.569267 
L 493.499648 57.823584 
L 494.062892 46.005956 
L 494.260719 44.112322 
L 494.464105 43.432727 
L 494.647945 43.930486 
L 494.940509 46.885285 
L 495.414084 57.105547 
L 496.119273 83.42601 
L 497.529651 161.244454 
L 498.94003 237.465873 
L 499.919399 267.891473 
L 500.328697 272.500125 
L 500.60857 272.660619 
L 500.865439 270.659625 
L 501.28221 263.145661 
L 501.948161 241.098275 
L 502.65335 207.010392 
L 504.768917 87.398233 
L 505.474106 59.638796 
L 506.080952 46.227031 
L 506.461433 43.461429 
L 506.669083 43.855021 
L 506.952831 46.559191 
L 507.412427 56.078373 
L 508.117616 81.763737 
L 509.527994 159.035546 
L 510.938372 235.85476 
L 511.932932 267.505022 
L 512.344331 272.397275 
L 512.596603 272.805153 
L 512.823859 271.471996 
L 513.193132 265.925568 
L 513.786643 248.789469 
L 514.491832 217.397047 
L 517.312588 66.185842 
L 518.059665 47.018218 
L 518.240878 44.826785 
L 518.461282 43.528743 
L 518.691149 43.790111 
L 518.966656 46.268917 
L 519.413153 55.151853 
L 520.118343 80.234547 
L 520.823532 115.760639 
L 522.939099 234.321709 
L 523.644288 260.099455 
L 524.166859 270.514708 
L 524.367919 272.330515 
L 524.586148 272.878774 
L 524.784712 272.085039 
L 525.107703 268.190076 
L 525.629234 255.39495 
L 526.334423 226.96251 
L 527.744802 147.482847 
L 528.449991 107.087043 
L 529.15518 73.536016 
L 530.037549 47.919901 
L 530.444066 43.700463 
L 530.706834 43.703692 
L 530.970095 45.86358 
L 531.397078 53.835988 
L 532.07839 76.990508 
L 532.783579 111.610151 
L 534.899146 230.896134 
L 535.604335 257.955156 
L 536.180941 270.251391 
L 536.377497 272.168523 
L 536.575822 272.887219 
L 536.766937 272.417171 
L 537.056809 269.539953 
L 537.526118 259.536 
L 538.231307 233.408414 
L 539.641686 155.753811 
L 541.052064 79.346873 
L 542.034481 48.577128 
L 542.444565 43.861405 
L 542.699692 43.557254 
L 542.936377 45.090852 
L 543.320808 51.235413 
L 543.937603 69.892873 
L 544.642792 102.184348 
L 546.75836 222.44746 
L 547.463549 252.339891 
L 548.165985 269.571865 
L 548.350308 271.688996 
L 548.579043 272.854342 
L 548.790264 272.47972 
L 549.072689 269.812324 
L 549.530183 260.396576 
L 550.235372 234.807419 
L 551.64575 157.620182 
L 553.056128 80.713646 
L 554.054154 48.856602 
L 554.465758 43.937108 
L 554.691565 43.465452 
L 554.901027 44.451557 
L 555.241624 48.943492 
L 555.790685 63.332834 
L 556.495874 92.928415 
L 559.31663 245.692966 
L 560.147746 268.763755 
L 560.552311 272.699718 
L 560.802427 272.588393 
L 561.070404 270.307939 
L 561.50491 261.989846 
L 562.197487 238.009408 
L 562.902676 203.009104 
L 565.018243 84.000103 
L 565.723432 57.46496 
L 566.277752 45.96203 
L 566.476307 44.085096 
L 566.658237 43.440209 
L 566.852903 43.895412 
L 567.14146 46.735073 
L 567.608686 56.634086 
L 568.313875 82.667128 
L 569.724253 160.240723 
L 571.134631 236.737323 
L 572.118542 267.6755 
L 572.529013 272.443604 
L 572.783291 272.778876 
L 573.01717 271.306108 
L 573.397094 265.342312 
L 574.006983 247.141938 
L 574.712172 215.114029 
L 576.827739 94.806695 
L 577.532928 64.627833 
L 578.24865 46.829814 
L 578.431649 44.693842 
L 578.658786 43.483409 
L 578.875236 43.828677 
L 579.155722 46.442608 
L 579.610136 55.707712 
L 580.315325 81.155546 
L 581.725703 158.217723 
L 583.136082 235.251018 
L 584.139183 267.411896 
L 584.551089 272.371361 
L 584.774773 272.865127 
L 584.981182 271.934457 
L 585.316851 267.613529 
L 585.858222 253.677833 
L 586.563411 224.40337 
L 589.384168 71.430987 
L 590.229661 47.658739 
L 590.634761 43.644183 
L 590.888401 43.72651 
L 591.155066 45.973125 
L 591.587479 54.194376 
L 592.276926 77.944202 
L 592.982115 112.839559 
L 595.097682 231.928729 
L 595.802871 258.610271 
L 596.363391 270.331446 
L 596.561459 272.220115 
L 596.743839 272.881911 
L 596.940055 272.433453 
L 597.228038 269.610108 
L 597.694354 259.756729 
L 598.399543 233.765002 
L 599.809921 156.22695 
L 601.2203 79.69143 
L 602.204862 48.679703 
L 602.615503 43.888729 
L 602.869411 43.539961 
L 603.102067 44.98653 
L 603.480026 50.872274 
L 604.086899 68.87457 
L 604.792088 100.786549 
L 606.907655 221.109586 
L 607.612844 251.412497 
L 608.334356 269.459874 
L 608.516776 271.603917 
L 608.743213 272.833825 
L 608.96195 272.501982 
L 609.241588 269.911288 
L 609.694654 260.711759 
L 610.399843 235.325896 
L 611.810222 158.318865 
L 613.2206 81.23055 
L 613.925789 55.75327 
L 614.435913 45.750791 
L 614.637959 43.959435 
L 614.860715 43.456155 
L 615.065788 44.362948 
L 615.3993 48.609976 
L 615.937301 62.348887 
L 616.64249 91.481688 
L 619.463246 244.539539 
L 620.315025 268.621559 
L 620.720363 272.670698 
L 620.975549 272.601369 
L 621.241638 270.369544 
L 621.673132 262.190664 
L 622.361203 238.541921 
L 623.066392 203.692889 
L 625.181959 84.569267 
L 625.887148 57.823584 
L 626.450392 46.005956 
L 626.648219 44.112322 
L 626.851605 43.432727 
L 627.035445 43.930486 
L 627.328009 46.885285 
L 627.801584 57.105547 
L 628.506773 83.42601 
L 629.917151 161.244454 
L 631.32753 237.465873 
L 632.306899 267.891473 
L 632.716197 272.500125 
L 632.99607 272.660619 
L 633.252939 270.659625 
L 633.66971 263.145661 
L 634.335661 241.098275 
L 635.04085 207.010392 
L 637.156417 87.398233 
L 637.861606 59.638795 
L 638.468452 46.227031 
L 638.848933 43.461429 
L 639.056583 43.855021 
L 639.340331 46.559191 
L 639.799927 56.078373 
L 640.505116 81.763737 
L 641.915494 159.035546 
L 643.325872 235.85476 
L 644.320432 267.505022 
L 644.731831 272.397275 
L 644.984103 272.805153 
L 645.211359 271.471996 
L 645.580632 265.925568 
L 646.174143 248.789469 
L 646.879332 217.397046 
L 649.700088 66.185842 
L 650.447165 47.018218 
L 650.628378 44.826785 
L 650.848782 43.528743 
L 651.078649 43.790111 
L 651.354156 46.268917 
L 651.800653 55.151853 
L 652.505843 80.234547 
L 653.211032 115.760639 
L 655.326599 234.321709 
L 656.031788 260.099455 
L 656.554359 270.514708 
L 656.755419 272.330515 
L 656.973648 272.878774 
L 657.172212 272.085039 
L 657.495203 268.190076 
L 658.016734 255.39495 
L 658.721923 226.96251 
L 660.132302 147.482847 
L 660.837491 107.087043 
L 661.54268 73.536016 
L 662.425049 47.919901 
L 662.831566 43.700463 
L 663.094334 43.703692 
L 663.357595 45.86358 
L 663.784578 53.835988 
L 664.46589 76.990508 
L 665.171079 111.610151 
L 667.286646 230.896134 
L 667.991835 257.955156 
L 668.568441 270.251391 
L 668.764997 272.168523 
L 668.963322 272.887219 
L 669.154437 272.417171 
L 669.444309 269.539953 
L 669.913618 259.536 
L 670.618807 233.408414 
L 672.029186 155.753811 
L 673.439564 79.346873 
L 674.421981 48.577128 
L 674.832065 43.861405 
L 675.087192 43.557254 
L 675.323877 45.090852 
L 675.708308 51.235413 
L 676.325103 69.892873 
L 677.030292 102.184348 
L 679.14586 222.44746 
L 679.851049 252.339891 
L 680.553485 269.571865 
L 680.737808 271.688996 
L 680.966543 272.854342 
L 681.177764 272.47972 
L 681.460189 269.812324 
L 681.917683 260.396576 
L 682.622872 234.807419 
L 684.03325 157.620182 
L 685.443628 80.713646 
L 686.441654 48.856602 
L 686.853258 43.937108 
L 687.079065 43.465452 
L 687.288527 44.451557 
L 687.629124 48.943492 
L 688.178185 63.332834 
L 688.883374 92.928415 
L 691.70413 245.692966 
L 692.535246 268.763755 
L 692.939811 272.699718 
L 693.189927 272.588393 
L 693.457904 270.307939 
L 693.89241 261.989846 
L 694.584987 238.009408 
L 695.290176 203.009104 
L 697.405743 84.000103 
L 698.110932 57.46496 
L 698.665252 45.96203 
L 698.863807 44.085096 
L 699.045737 43.440209 
L 699.240403 43.895412 
L 699.52896 46.735073 
L 699.996186 56.634086 
L 700.701375 82.667128 
L 702.111753 160.240723 
L 703.522131 236.737323 
L 704.506042 267.6755 
L 704.916513 272.443604 
L 705.170791 272.778876 
L 705.40467 271.306108 
L 705.784594 265.342312 
L 706.394483 247.141938 
L 707.099672 215.114029 
L 709.215239 94.806695 
L 709.920428 64.627833 
L 710.63615 46.829814 
L 710.819149 44.693842 
L 711.046286 43.483409 
L 711.262736 43.828677 
L 711.543222 46.442608 
L 711.997636 55.707712 
L 712.702825 81.155546 
L 714.113203 158.217723 
L 715.523582 235.251018 
L 716.526683 267.411896 
L 716.938589 272.371361 
L 717.162273 272.865127 
L 717.368682 271.934457 
L 717.704351 267.613529 
L 718.245722 253.677833 
L 718.950911 224.40337 
L 721.771668 71.430987 
L 722.617161 47.658739 
L 723.022261 43.644183 
L 723.275901 43.72651 
L 723.542566 45.973125 
L 723.974979 54.194376 
L 724.664426 77.944202 
L 725.369615 112.839559 
L 727.485182 231.928729 
L 728.190371 258.610271 
L 728.750891 270.331446 
L 728.948959 272.220115 
L 729.131339 272.881911 
L 729.327555 272.433453 
L 729.615538 269.610108 
L 730.081854 259.756729 
L 730.787043 233.765002 
L 732.197421 156.22695 
L 733.6078 79.69143 
L 734.592362 48.679703 
L 735.003003 43.888729 
L 735.256911 43.539961 
L 735.489567 44.98653 
L 735.867526 50.872274 
L 736.474399 68.87457 
L 737.179588 100.786549 
L 739.295155 221.109586 
L 740.000344 251.412497 
L 740.721856 269.459874 
L 740.904276 271.603917 
L 741.130713 272.833825 
L 741.34945 272.501982 
L 741.629088 269.911288 
L 742.082154 260.711759 
L 742.787343 235.325896 
L 744.197722 158.318865 
L 745.6081 81.23055 
L 746.313289 55.75327 
L 746.823413 45.750791 
L 747.025459 43.959435 
L 747.248215 43.456155 
L 747.453288 44.362948 
L 747.7868 48.609976 
L 748.324801 62.348887 
L 749.02999 91.481688 
L 751.850746 244.539539 
L 752.702525 268.621559 
L 753.107863 272.670698 
L 753.363049 272.601369 
L 753.629138 270.369544 
L 754.060632 262.190664 
L 754.748703 238.541921 
L 755.453892 203.692889 
L 757.569459 84.569267 
L 758.274648 57.823584 
L 758.837892 46.005956 
L 759.035719 44.112322 
L 759.239105 43.432727 
L 759.422945 43.930486 
L 759.715509 46.885285 
L 760.189084 57.105547 
L 760.894273 83.42601 
L 762.304651 161.244454 
L 763.71503 237.465873 
L 764.694399 267.891473 
L 765.103697 272.500125 
L 765.38357 272.660619 
L 765.640439 270.659625 
L 766.05721 263.145661 
L 766.723161 241.098275 
L 767.42835 207.010392 
L 769.543917 87.398233 
L 770.249106 59.638795 
L 770.855952 46.227031 
L 771.236433 43.461429 
L 771.444083 43.855021 
L 771.727831 46.559191 
L 772.187427 56.078373 
L 772.892616 81.763737 
L 774.302994 159.035546 
L 775.713372 235.85476 
L 776.707932 267.505022 
L 777.119331 272.397275 
L 777.371603 272.805153 
L 777.598859 271.471996 
L 777.968132 265.925568 
L 778.561643 248.789469 
L 779.266832 217.397046 
L 782.087588 66.185842 
L 782.834665 47.018218 
L 783.015878 44.826785 
L 783.236282 43.528743 
L 783.466149 43.790111 
L 783.741656 46.268917 
L 784.188153 55.151853 
L 784.893343 80.234547 
L 785.598532 115.760639 
L 787.714099 234.321709 
L 788.419288 260.099455 
L 788.941859 270.514708 
L 789.142919 272.330515 
L 789.361148 272.878774 
L 789.559712 272.085039 
L 789.882703 268.190076 
L 790.404234 255.39495 
L 791.109423 226.96251 
L 792.519802 147.482847 
L 793.224991 107.087043 
L 793.93018 73.536016 
L 794.812549 47.919901 
L 795.219066 43.700463 
L 795.481834 43.703692 
L 795.745095 45.86358 
L 796.172078 53.835988 
L 796.85339 76.990508 
L 797.558579 111.610151 
L 799.674146 230.896134 
L 800.379335 257.955156 
L 800.955941 270.251391 
L 801.152497 272.168523 
L 801.350822 272.887219 
L 801.541937 272.417171 
L 801.831809 269.539953 
L 802.301118 259.536 
L 803.006307 233.408414 
L 804.416686 155.753811 
L 805.827064 79.346873 
L 806.809481 48.577128 
L 807.219565 43.861405 
L 807.474692 43.557254 
L 807.711377 45.090852 
L 808.095808 51.235413 
L 808.712603 69.892873 
L 809.417792 102.184348 
L 811.53336 222.44746 
L 812.238549 252.339891 
L 812.940985 269.571865 
L 813.125308 271.688996 
L 813.354043 272.854342 
L 813.565264 272.47972 
L 813.847689 269.812324 
L 814.305183 260.396576 
L 815.010372 234.807419 
L 816.42075 157.620182 
L 817.831128 80.713646 
L 818.829154 48.856602 
L 819.240758 43.937108 
L 819.466565 43.465452 
L 819.676027 44.451557 
L 820.016624 48.943492 
L 820.565685 63.332834 
L 821.270874 92.928415 
L 822.429318 158.161975 
L 822.429318 158.161975 
" style="fill:none;stroke:#d62728;stroke-linecap:square;stroke-width:1.5;"/>
   </g>
   <g id="patch_7">
    <path d="M 64.21 284.36 
L 64.21 31.96 
" style="fill:none;stroke:#000000;stroke-linecap:square;stroke-linejoin:miter;stroke-width:0.8;"/>
   </g>
   <g id="patch_8">
    <path d="M 858.535 284.36 
L 858.535 31.96 
" style="fill:none;stroke:#000000;stroke-linecap:square;stroke-linejoin:miter;stroke-width:0.8;"/>
   </g>
   <g id="patch_9">
    <path d="M 64.21 284.36 
L 858.535 284.36 
" style="fill:none;stroke:#000000;stroke-linecap:square;stroke-linejoin:miter;stroke-width:0.8;"/>
   </g>
   <g id="patch_10">
    <path d="M 64.21 31.96 
L 858.535 31.96 
" style="fill:none;stroke:#000000;stroke-linecap:square;stroke-linejoin:miter;stroke-width:0.8;"/>
   </g>
  </g>
 </g>
 <defs>
  <clipPath id="p7fb17029f4">
   <rect height="252.4" width="794.325" x="64.21" y="31.96"/>
  </clipPath>
 </defs>
</svg>
