<svg xmlns="http://www.w3.org/2000/svg" xmlns:xlink="http://www.w3.org/1999/xlink" xmlns:lucid="lucid" width="944.27" height="563.33">
    <g transform="translate(-80 -58.33333333333333)" lucid:page-tab-id="0_0">
        <g fill="none">
            <path d="M400 540V380h80v160z" />
            <path d="M440 540v-36l-12-8 24-12-24-12 24-12-24-12 24-12-24-12 24-12-12-8v-24" stroke="#5e5e5e" stroke-width="3" />
        </g>
        <use xlink:href="#a" transform="matrix(1,0,0,1,490,348) translate(0.8333333333333339 57.77777777777778)" />
        <use xlink:href="#b" transform="matrix(1,0,0,1,490,348) translate(-2.901234567901234 84.44444444444446)" />
        <use xlink:href="#c" transform="matrix(1,0,0,1,490,348) translate(6.697530864197532 111.11111111111111)" />
        <path d="M100 260v140h160V260z" fill="none" />
        <path d="M180 260v56m32 0h-64m48 14h-32m48 14h-64m48 14h-32m16 0v42" stroke="#5e5e5e" stroke-width="3" fill="#fff" />
        <use xlink:href="#d" transform="matrix(1,0,0,1,236,288) translate(3.2716049382716044 61.111111111111114)" />
        <use xlink:href="#e" transform="matrix(1,0,0,1,236,288) translate(9.444444444444445 87.77777777777777)" />
        <g fill="none">
            <path d="M880 530V370h80v160z" />
            <path d="M920 530v-36l-12-8 24-12-24-12 24-12-24-12 24-12-24-12 24-12-12-8v-24" stroke="#5e5e5e" stroke-width="3" />
        </g>
        <use xlink:href="#f" transform="matrix(1,0,0,1,970,338) translate(0.8333333333333339 57.77777777777778)" />
        <use xlink:href="#g" transform="matrix(1,0,0,1,970,338) translate(3.2716049382716044 84.44444444444446)" />
        <use xlink:href="#c" transform="matrix(1,0,0,1,970,338) translate(6.697530864197532 111.11111111111111)" />
        <g fill="none">
            <path d="M640 540V380h80v160z" />
            <path d="M680 540v-36l-12-8 24-12-24-12 24-12-24-12 24-12-24-12 24-12-12-8v-24" stroke="#5e5e5e" stroke-width="3" />
        </g>
        <use xlink:href="#h" transform="matrix(1,0,0,1,730,348) translate(0.8333333333333339 57.77777777777778)" />
        <use xlink:href="#i" transform="matrix(1,0,0,1,730,348) translate(3.2716049382716044 84.44444444444446)" />
        <use xlink:href="#c" transform="matrix(1,0,0,1,730,348) translate(6.697530864197532 111.11111111111111)" />
        <path d="M680 541v58" stroke="#5e5e5e" stroke-width="2" fill="none" />
        <path d="M681 541.03h-2V540h2z" fill="#5e5e5e" />
        <path d="M680 598.97V600" stroke="#5e5e5e" stroke-width="2" fill="none" />
        <path d="M181 593.87l.7 2.64 1.8 1.8 2.63.7h388.93v2h-389.2l-3.4-.92-2.54-2.53-.92-3.42V401h2zm740 .26l-.92 3.42-2.53 2.53-3.42.92h-329.2v-2h328.94l2.64-.7 1.8-1.8.7-2.63V531h2z" fill="#5e5e5e" />
        <path d="M181 401.03h-2V400h2zM921 531.03h-2V530h2z" fill="#5e5e5e" />
        <use xlink:href="#j" transform="matrix(1,0,0,1,575.0617283950618,589.3333333333334) translate(0.004999999999999893 14.222222222222223)" />
        <path d="M360 120v140h160V120z" fill="none" />
        <path d="M440 120v56m32 0h-64m48 14h-32m48 14h-64m48 14h-32m16 0v42" stroke="#5e5e5e" stroke-width="3" fill="#fff" />
        <use xlink:href="#k" transform="matrix(1,0,0,1,496,148) translate(3.2716049382716044 61.111111111111114)" />
        <use xlink:href="#l" transform="matrix(1,0,0,1,496,148) translate(3.2716049382716044 87.77777777777777)" />
        <path d="M600 120v140h160V120z" fill="none" />
        <path d="M680 120v56m32 0h-64m48 14h-32m48 14h-64m48 14h-32m16 0v42" stroke="#5e5e5e" stroke-width="3" fill="#fff" />
        <use xlink:href="#k" transform="matrix(1,0,0,1,736,148) translate(3.2716049382716044 61.111111111111114)" />
        <use xlink:href="#m" transform="matrix(1,0,0,1,736,148) translate(3.2716049382716044 87.77777777777777)" />
        <path d="M840 120v140h160V120z" fill="none" />
        <path d="M920 120v56m32 0h-64m48 14h-32m48 14h-64m48 14h-32m16 0v42" stroke="#5e5e5e" stroke-width="3" fill="#fff" />
        <use xlink:href="#k" transform="matrix(1,0,0,1,976.0000000000001,148) translate(3.2716049382716044 61.111111111111114)" />
        <use xlink:href="#n" transform="matrix(1,0,0,1,976.0000000000001,148) translate(3.2716049382716044 87.77777777777777)" />
        <path d="M440 541v58" stroke="#5e5e5e" stroke-width="2" fill="none" />
        <path d="M441 541.03h-2V540h2z" fill="#5e5e5e" />
        <path d="M440 598.97V600" stroke="#5e5e5e" stroke-width="2" fill="none" />
        <path d="M441 379h-2v-48.33h2zm0-69.67h-2V261h2z" fill="#5e5e5e" />
        <path d="M441 380h-2v-1.03h2zM441 261.03h-2V260h2z" fill="#5e5e5e" />
        <use xlink:href="#o" transform="matrix(1,0,0,1,435.0617283950617,309.3333333333333) translate(0.004999999999999893 14.222222222222223)" />
        <path d="M681 379h-2v-48.33h2zm0-69.67h-2V261h2z" fill="#5e5e5e" />
        <path d="M681 380h-2v-1.03h2zM681 261.03h-2V260h2z" fill="#5e5e5e" />
        <use xlink:href="#p" transform="matrix(1,0,0,1,675.0617283950618,309.3333333333333) translate(0.004999999999999893 14.222222222222223)" />
        <path d="M921 369h-2v-43.33h2zm0-64.67h-2V261h2z" fill="#5e5e5e" />
        <path d="M921 370h-2v-1.03h2zM921 261.03h-2V260h2z" fill="#5e5e5e" />
        <g>
            <use xlink:href="#q" transform="matrix(1,0,0,1,915.0617283950618,304.3333333333333) translate(0.004999999999999893 14.222222222222223)" />
        </g>
        <path d="M548.4 81H186.13l-2.64.7-1.8 1.8-.7 2.63V259h-2V85.87l.92-3.42 2.53-2.53 3.42-.92H548.4zm369.15-1.08l2.53 2.53.92 3.42V119h-2V86.13l-.7-2.64-1.8-1.8-2.63-.7h-355.6v-2h355.86z" fill="#5e5e5e" />
        <path d="M181 260h-2v-1.03h2zM921 120h-2v-1.03h2z" fill="#5e5e5e" />
        <g>
            <use xlink:href="#r" transform="matrix(1,0,0,1,548.3950617283951,69.33333333333333) translate(0.004999999999999893 14.222222222222223)" />
        </g>
        <path d="M680 119V81" stroke="#5e5e5e" stroke-width="2" fill="none" />
        <path d="M681 120h-2v-1.03h2z" fill="#5e5e5e" />
        <path d="M680 81.03V80M440 119V81" stroke="#5e5e5e" stroke-width="2" fill="none" />
        <path d="M441 120h-2v-1.03h2z" fill="#5e5e5e" />
        <path d="M440 81.03V80" stroke="#5e5e5e" stroke-width="2" fill="none" />
        <defs>
            <path fill="#333" d="M233-177c-1 41-23 64-60 70L243 0h-38l-65-103H63V0H30v-248c88 3 205-21 203 71zM63-129c60-2 137 13 137-47 0-61-80-42-137-45v92" id="s" />
            <path fill="#333" d="M27 0v-27h64v-190l-56 39v-29l58-41h29v221h61V0H27" id="t" />
            <g id="a">
                <use transform="matrix(0.06172839506172839,0,0,0.06172839506172839,0,0)" xlink:href="#s" />
                <use transform="matrix(0.06172839506172839,0,0,0.06172839506172839,15.987654320987653,0)" xlink:href="#t" />
            </g>
            <path fill="#333" d="M101-251c68 0 85 55 85 127S166 4 100 4C33 4 14-52 14-124c0-73 17-127 87-127zm-1 229c47 0 54-49 54-102s-4-102-53-102c-51 0-55 48-55 102 0 53 5 102 54 102" id="u" />
            <path fill="#333" d="M143 0L79-87 56-68V0H24v-261h32v163l83-92h37l-77 82L181 0h-38" id="v" />
            <g id="b">
                <use transform="matrix(0.06172839506172839,0,0,0.06172839506172839,0,0)" xlink:href="#t" />
                <use transform="matrix(0.06172839506172839,0,0,0.06172839506172839,12.345679012345679,0)" xlink:href="#u" />
                <use transform="matrix(0.06172839506172839,0,0,0.06172839506172839,24.691358024691358,0)" xlink:href="#v" />
            </g>
            <path fill="#333" d="M20-141c0-71 41-110 114-110s115 39 115 110c0 61-35 92-75 116l80-2V0H150v-39c35-20 64-46 64-100s-27-85-79-85c-54 0-81 31-81 85 0 52 29 80 65 100V0H15v-27l80 2C55-49 20-80 20-141" id="w" />
            <use transform="matrix(0.06172839506172839,0,0,0.06172839506172839,0,0)" xlink:href="#w" id="c" />
            <path fill="#333" d="M99-251c64 0 84 50 84 122C183-37 130 33 47-8c-14-7-20-23-25-40l30-5c6 39 69 39 84 7 9-19 16-44 16-74-10 22-31 35-62 35-49 0-73-33-73-83 0-54 28-83 82-83zm-1 141c31-1 51-18 51-49 0-36-14-67-51-67-34 0-49 23-49 58 0 34 15 58 49 58" id="x" />
            <path fill="#333" d="M108 0H70L1-190h34L89-25l56-165h34" id="y" />
            <g id="d">
                <use transform="matrix(0.06172839506172839,0,0,0.06172839506172839,0,0)" xlink:href="#x" />
                <use transform="matrix(0.06172839506172839,0,0,0.06172839506172839,12.345679012345679,0)" xlink:href="#y" />
            </g>
            <use transform="matrix(0.06172839506172839,0,0,0.06172839506172839,0,0)" xlink:href="#y" id="e" />
            <path fill="#333" d="M126-127c33 6 58 20 58 59 0 88-139 92-164 29-3-8-5-16-6-25l32-3c6 27 21 44 54 44 32 0 52-15 52-46 0-38-36-46-79-43v-28c39 1 72-4 72-42 0-27-17-43-46-43-28 0-47 15-49 41l-32-3c6-42 35-63 81-64 48-1 79 21 79 65 0 36-21 52-52 59" id="z" />
            <g id="f">
                <use transform="matrix(0.06172839506172839,0,0,0.06172839506172839,0,0)" xlink:href="#s" />
                <use transform="matrix(0.06172839506172839,0,0,0.06172839506172839,15.987654320987653,0)" xlink:href="#z" />
            </g>
            <g id="g">
                <use transform="matrix(0.06172839506172839,0,0,0.06172839506172839,0,0)" xlink:href="#t" />
                <use transform="matrix(0.06172839506172839,0,0,0.06172839506172839,12.345679012345679,0)" xlink:href="#v" />
            </g>
            <path fill="#333" d="M101-251c82-7 93 87 43 132L82-64C71-53 59-42 53-27h129V0H18c2-99 128-94 128-182 0-28-16-43-45-43s-46 15-49 41l-32-3c6-41 34-60 81-64" id="A" />
            <g id="h">
                <use transform="matrix(0.06172839506172839,0,0,0.06172839506172839,0,0)" xlink:href="#s" />
                <use transform="matrix(0.06172839506172839,0,0,0.06172839506172839,15.987654320987653,0)" xlink:href="#A" />
            </g>
            <g id="i">
                <use transform="matrix(0.06172839506172839,0,0,0.06172839506172839,0,0)" xlink:href="#A" />
                <use transform="matrix(0.06172839506172839,0,0,0.06172839506172839,12.345679012345679,0)" xlink:href="#v" />
            </g>
            <path fill="#333" d="M101-251c68 0 84 54 84 127C185-50 166 4 99 4S15-52 14-124c-1-75 17-127 87-127zm-1 216c37-5 36-46 36-89s4-89-36-89c-39 0-36 45-36 89 0 43-3 85 36 89" id="B" />
            <use transform="matrix(0.04938271604938272,0,0,0.04938271604938272,0,0)" xlink:href="#B" id="j" />
            <g id="k">
                <use transform="matrix(0.06172839506172839,0,0,0.06172839506172839,0,0)" xlink:href="#u" />
                <use transform="matrix(0.06172839506172839,0,0,0.06172839506172839,12.345679012345679,0)" xlink:href="#y" />
            </g>
            <g id="l">
                <use transform="matrix(0.06172839506172839,0,0,0.06172839506172839,0,0)" xlink:href="#y" />
                <use transform="matrix(0.06172839506172839,0,0,0.06172839506172839,11.11111111111111,0)" xlink:href="#t" />
            </g>
            <g id="m">
                <use transform="matrix(0.06172839506172839,0,0,0.06172839506172839,0,0)" xlink:href="#y" />
                <use transform="matrix(0.06172839506172839,0,0,0.06172839506172839,11.11111111111111,0)" xlink:href="#A" />
            </g>
            <g id="n">
                <use transform="matrix(0.06172839506172839,0,0,0.06172839506172839,0,0)" xlink:href="#y" />
                <use transform="matrix(0.06172839506172839,0,0,0.06172839506172839,11.11111111111111,0)" xlink:href="#z" />
            </g>
            <path fill="#333" d="M182-182c0 78-84 86-111 141h115V0H12c-6-101 99-100 120-180 1-22-12-31-33-32-23 0-32 14-35 34l-49-3c5-45 32-70 84-70 51 0 83 22 83 69" id="C" />
            <use transform="matrix(0.04938271604938272,0,0,0.04938271604938272,0,0)" xlink:href="#C" id="o" />
            <path fill="#333" d="M128-127c34 4 56 21 59 58 7 91-148 94-172 28-4-9-6-17-7-26l51-5c1 24 16 35 40 36 23 0 39-12 38-36-1-31-31-36-65-34v-40c32 2 59-3 59-33 0-20-13-33-34-33s-33 13-35 32l-50-3c6-44 37-68 86-68 50 0 83 20 83 66 0 35-22 52-53 58" id="D" />
            <use transform="matrix(0.04938271604938272,0,0,0.04938271604938272,0,0)" xlink:href="#D" id="p" />
            <path fill="#333" d="M165-50V0h-47v-50H5v-38l105-160h55v161h33v37h-33zm-47-37l2-116L46-87h72" id="E" />
            <use transform="matrix(0.04938271604938272,0,0,0.04938271604938272,0,0)" xlink:href="#E" id="q" />
            <path fill="#333" d="M23 0v-37h61v-169l-59 37v-38l62-41h46v211h57V0H23" id="F" />
            <use transform="matrix(0.04938271604938272,0,0,0.04938271604938272,0,0)" xlink:href="#F" id="r" />
        </defs>
    </g>
</svg>