<svg xmlns="http://www.w3.org/2000/svg" xmlns:xlink="http://www.w3.org/1999/xlink" xmlns:lucid="lucid" width="945.48" height="671.67"><g transform="translate(-240 -240)" lucid:page-tab-id="0_0"><path d="M440 260h160v80H440z" fill="none"/><path d="M440 300h36l8-12 12 24 12-24 12 24 12-24 12 24 12-24 12 24 8-12h24" stroke="#5e5e5e" stroke-width="3" fill="none"/><use xlink:href="#a" transform="matrix(1,0,0,1,440,328) translate(39.01234567901235 19.444444444444443)"/><use xlink:href="#b" transform="matrix(1,0,0,1,440,328) translate(73.51851851851852 19.444444444444443)"/><use xlink:href="#c" transform="matrix(1,0,0,1,440,328) translate(104.38271604938271 19.444444444444443)"/><path d="M260 520v140h160V520z" fill="none"/><path d="M340 520v56m32 0h-64m48 14h-32m48 14h-64m48 14h-32m16 0v42" stroke="#5e5e5e" stroke-width="3" fill="#fff"/><use xlink:href="#d" transform="matrix(1,0,0,1,396,548) translate(3.2716049382716044 61.111111111111114)"/><use xlink:href="#e" transform="matrix(1,0,0,1,396,548) translate(3.2716049382716044 87.77777777777777)"/><path d="M820 260h160v80H820z" fill="none"/><path d="M820 300h36l8-12 12 24 12-24 12 24 12-24 12 24 12-24 12 24 8-12h24" stroke="#5e5e5e" stroke-width="3" fill="none"/><use xlink:href="#f" transform="matrix(1,0,0,1,820,328) translate(32.839506172839506 19.444444444444443)"/><use xlink:href="#g" transform="matrix(1,0,0,1,820,328) translate(67.34567901234567 19.444444444444443)"/><use xlink:href="#c" transform="matrix(1,0,0,1,820,328) translate(110.55555555555556 19.444444444444443)"/><g fill="none"><path d="M680 600V440h80v160z"/><path d="M720 600v-36l-12-8 24-12-24-12 24-12-24-12 24-12-24-12 24-12-12-8v-24" stroke="#5e5e5e" stroke-width="3"/></g><use xlink:href="#h" transform="matrix(1,0,0,1,770,408) translate(0.8333333333333339 57.77777777777778)"/><use xlink:href="#i" transform="matrix(1,0,0,1,770,408) translate(-3.518518518518519 84.44444444444446)"/><use xlink:href="#c" transform="matrix(1,0,0,1,770,408) translate(6.697530864197532 111.11111111111111)"/><g fill="none"><path d="M1040 600V440h80v160z"/><path d="M1080 600v-36l-12-8 24-12-24-12 24-12-24-12 24-12-24-12 24-12-12-8v-24" stroke="#5e5e5e" stroke-width="3"/></g><use xlink:href="#j" transform="matrix(1,0,0,1,1130,408) translate(0.8333333333333339 57.77777777777778)"/><use xlink:href="#k" transform="matrix(1,0,0,1,1130,408) translate(8.827160493827162 84.44444444444446)"/><use xlink:href="#l" transform="matrix(1,0,0,1,1130,408) translate(1.1419753086419764 111.11111111111111)"/><g fill="none"><path d="M1040 850V690h80v160z"/><path d="M1080 850v-36l-12-8 24-12-24-12 24-12-24-12 24-12-24-12 24-12-12-8v-24" stroke="#5e5e5e" stroke-width="3"/></g><use xlink:href="#m" transform="matrix(1,0,0,1,1129.9999999999998,658) translate(0.8333333333333339 57.77777777777778)"/><use xlink:href="#n" transform="matrix(1,0,0,1,1129.9999999999998,658) translate(-3.518518518518519 84.44444444444446)"/><use xlink:href="#c" transform="matrix(1,0,0,1,1129.9999999999998,658) translate(6.697530864197532 111.11111111111111)"/><path d="M692.4 301H601v-2h91.4zm126.6 0H702.27v-2H819z" fill="#5e5e5e"/><path d="M601.03 301H600v-2h1.03zM820 301h-1.03v-2H820z" fill="#5e5e5e"/><use xlink:href="#o" transform="matrix(1,0,0,1,692.3950617283951,289.3333333333333) translate(0.004999999999999893 14.222222222222223)"/><path d="M1077.55 299.92l2.53 2.53.92 3.42V439h-2V306.13l-.7-2.64-1.8-1.8-2.63-.7h-8.93v-2h9.2zM981 301v-2h74.06v2z" fill="#5e5e5e"/><path d="M981.03 301H980v-2h1.03zM1081 440h-2v-1.03h2z" fill="#5e5e5e"/><use xlink:href="#p" transform="matrix(1,0,0,1,1055.0617283950617,289.3333333333333) translate(0.004999999999999893 14.222222222222223)"/><path d="M1081 689h-2v-42.33h2zm0-63.67h-2V601h2z" fill="#5e5e5e"/><path d="M1081 601.03h-2V600h2zM1081 690h-2v-1.03h2z" fill="#5e5e5e"/><use xlink:href="#q" transform="matrix(1,0,0,1,1075.0617283950617,625.3333333333334) translate(0.004999999999999893 14.222222222222223)"/><path d="M720 439V301" stroke="#5e5e5e" stroke-width="2" fill="none"/><path d="M721 440h-2v-1.03h2z" fill="#5e5e5e"/><path d="M720 301.03V300" stroke="#5e5e5e" stroke-width="2" fill="none"/><path d="M721 679h-2v-33.67h2zm0-55h-2v-23h2z" fill="#5e5e5e"/><path d="M721 601.03h-2V600h2zM721 680h-2v-1.03h2z" fill="#5e5e5e"/><use xlink:href="#r" transform="matrix(1,0,0,1,715.0617283950618,624) translate(0.004999999999999893 14.222222222222223)"/><path d="M640 680v140h160V680z" fill="none"/><path d="M720 680v56m32 0h-64m48 14h-32m48 14h-64m48 14h-32m16 0v42" stroke="#5e5e5e" stroke-width="3" fill="#fff"/><g><use xlink:href="#s" transform="matrix(1,0,0,1,776,708) translate(-5.987654320987652 61.111111111111114)"/><use xlink:href="#t" transform="matrix(1,0,0,1,776,708) translate(1.4197530864197532 87.77777777777777)"/></g><path d="M341 883.87l.7 2.64 1.8 1.8 2.63.7h331.6v2H345.87l-3.42-.92-2.53-2.53-.92-3.42V661h2zm740 .26l-.92 3.42-2.53 2.53-3.42.92H687.6v-2h386.27l2.64-.7 1.8-1.8.7-2.63V851h2z" fill="#5e5e5e"/><path d="M341 661.03h-2V660h2zM1081 851.03h-2V850h2z" fill="#5e5e5e"/><g><use xlink:href="#u" transform="matrix(1,0,0,1,677.7283950617285,879.3333333333334) translate(0.004999999999999893 14.222222222222223)"/></g><path d="M720 821v68" stroke="#5e5e5e" stroke-width="2" fill="none"/><path d="M721 821.03h-2V820h2z" fill="#5e5e5e"/><path d="M720 888.97V890" stroke="#5e5e5e" stroke-width="2" fill="none"/><path d="M341 519h-2V370.67h2zm98-218h-92.87l-2.64.7-1.8 1.8-.7 2.63v43.2h-2v-43.46l.92-3.42 2.53-2.53 3.42-.92H439z" fill="#5e5e5e"/><path d="M341 520h-2v-1.03h2zM440 301h-1.03v-2H440z" fill="#5e5e5e"/><g><use xlink:href="#v" transform="matrix(1,0,0,1,335.0617283950617,349.3333333333333) translate(0.004999999999999893 14.222222222222223)"/></g><defs><path fill="#333" d="M233-177c-1 41-23 64-60 70L243 0h-38l-65-103H63V0H30v-248c88 3 205-21 203 71zM63-129c60-2 137 13 137-47 0-61-80-42-137-45v92" id="w"/><path fill="#333" d="M27 0v-27h64v-190l-56 39v-29l58-41h29v221h61V0H27" id="x"/><g id="a"><use transform="matrix(0.06172839506172839,0,0,0.06172839506172839,0,0)" xlink:href="#w"/><use transform="matrix(0.06172839506172839,0,0,0.06172839506172839,15.987654320987653,0)" xlink:href="#x"/></g><path fill="#333" d="M155-56V0h-30v-56H8v-25l114-167h33v167h35v25h-35zm-30-156c-27 46-58 90-88 131h88v-131" id="y"/><path fill="#333" d="M64 0c3-98 48-159 88-221H18v-27h164v26C143-157 98-101 97 0H64" id="z"/><g id="b"><use transform="matrix(0.06172839506172839,0,0,0.06172839506172839,0,0)" xlink:href="#y"/><use transform="matrix(0.06172839506172839,0,0,0.06172839506172839,12.345679012345679,0)" xlink:href="#z"/></g><path fill="#333" d="M20-141c0-71 41-110 114-110s115 39 115 110c0 61-35 92-75 116l80-2V0H150v-39c35-20 64-46 64-100s-27-85-79-85c-54 0-81 31-81 85 0 52 29 80 65 100V0H15v-27l80 2C55-49 20-80 20-141" id="A"/><use transform="matrix(0.06172839506172839,0,0,0.06172839506172839,0,0)" xlink:href="#A" id="c"/><path fill="#333" d="M99-251c64 0 84 50 84 122C183-37 130 33 47-8c-14-7-20-23-25-40l30-5c6 39 69 39 84 7 9-19 16-44 16-74-10 22-31 35-62 35-49 0-73-33-73-83 0-54 28-83 82-83zm-1 141c31-1 51-18 51-49 0-36-14-67-51-67-34 0-49 23-49 58 0 34 15 58 49 58" id="B"/><path fill="#333" d="M108 0H70L1-190h34L89-25l56-165h34" id="C"/><g id="d"><use transform="matrix(0.06172839506172839,0,0,0.06172839506172839,0,0)" xlink:href="#B"/><use transform="matrix(0.06172839506172839,0,0,0.06172839506172839,12.345679012345679,0)" xlink:href="#C"/></g><g id="e"><use transform="matrix(0.06172839506172839,0,0,0.06172839506172839,0,0)" xlink:href="#C"/><use transform="matrix(0.06172839506172839,0,0,0.06172839506172839,11.11111111111111,0)" xlink:href="#x"/></g><path fill="#333" d="M101-251c82-7 93 87 43 132L82-64C71-53 59-42 53-27h129V0H18c2-99 128-94 128-182 0-28-16-43-45-43s-46 15-49 41l-32-3c6-41 34-60 81-64" id="D"/><g id="f"><use transform="matrix(0.06172839506172839,0,0,0.06172839506172839,0,0)" xlink:href="#w"/><use transform="matrix(0.06172839506172839,0,0,0.06172839506172839,15.987654320987653,0)" xlink:href="#D"/></g><path fill="#333" d="M101-251c68 0 85 55 85 127S166 4 100 4C33 4 14-52 14-124c0-73 17-127 87-127zm-1 229c47 0 54-49 54-102s-4-102-53-102c-51 0-55 48-55 102 0 53 5 102 54 102" id="E"/><g id="g"><use transform="matrix(0.06172839506172839,0,0,0.06172839506172839,0,0)" xlink:href="#D"/><use transform="matrix(0.06172839506172839,0,0,0.06172839506172839,12.345679012345679,0)" xlink:href="#D"/><use transform="matrix(0.06172839506172839,0,0,0.06172839506172839,24.691358024691358,0)" xlink:href="#E"/></g><path fill="#333" d="M126-127c33 6 58 20 58 59 0 88-139 92-164 29-3-8-5-16-6-25l32-3c6 27 21 44 54 44 32 0 52-15 52-46 0-38-36-46-79-43v-28c39 1 72-4 72-42 0-27-17-43-46-43-28 0-47 15-49 41l-32-3c6-42 35-63 81-64 48-1 79 21 79 65 0 36-21 52-52 59" id="F"/><g id="h"><use transform="matrix(0.06172839506172839,0,0,0.06172839506172839,0,0)" xlink:href="#w"/><use transform="matrix(0.06172839506172839,0,0,0.06172839506172839,15.987654320987653,0)" xlink:href="#F"/></g><path fill="#333" d="M134-131c28 9 52 24 51 62-1 50-34 73-85 73S17-19 16-69c0-36 21-54 49-61-75-25-45-126 34-121 46 3 78 18 79 63 0 33-17 51-44 57zm-34-11c31 1 46-15 46-44 0-28-17-43-47-42-29 0-46 13-45 42 1 28 16 44 46 44zm1 122c35 0 51-18 51-52 0-30-18-46-53-46-33 0-51 17-51 47 0 34 19 51 53 51" id="G"/><g id="i"><use transform="matrix(0.06172839506172839,0,0,0.06172839506172839,0,0)" xlink:href="#x"/><use transform="matrix(0.06172839506172839,0,0,0.06172839506172839,12.345679012345679,0)" xlink:href="#G"/><use transform="matrix(0.06172839506172839,0,0,0.06172839506172839,24.691358024691358,0)" xlink:href="#E"/></g><g id="j"><use transform="matrix(0.06172839506172839,0,0,0.06172839506172839,0,0)" xlink:href="#w"/><use transform="matrix(0.06172839506172839,0,0,0.06172839506172839,15.987654320987653,0)" xlink:href="#y"/></g><use transform="matrix(0.06172839506172839,0,0,0.06172839506172839,0,0)" xlink:href="#x" id="k"/><path fill="#333" d="M143 0L79-87 56-68V0H24v-261h32v163l83-92h37l-77 82L181 0h-38" id="H"/><g id="l"><use transform="matrix(0.06172839506172839,0,0,0.06172839506172839,0,0)" xlink:href="#H"/><use transform="matrix(0.06172839506172839,0,0,0.06172839506172839,11.11111111111111,0)" xlink:href="#A"/></g><path fill="#333" d="M54-142c48-35 137-8 131 61C196 18 31 33 14-55l32-4c7 23 22 37 52 37 35-1 51-22 54-58 4-55-73-65-99-34H22l8-134h141v27H59" id="I"/><g id="m"><use transform="matrix(0.06172839506172839,0,0,0.06172839506172839,0,0)" xlink:href="#w"/><use transform="matrix(0.06172839506172839,0,0,0.06172839506172839,15.987654320987653,0)" xlink:href="#I"/></g><path fill="#333" d="M110-160c48 1 74 30 74 79 0 53-28 85-80 85-65 0-83-55-86-122-5-90 50-162 133-122 14 7 22 21 27 39l-31 6c-5-40-67-38-82-6-9 19-15 44-15 74 11-20 30-34 60-33zm-7 138c34 0 49-23 49-58s-16-56-50-56c-29 0-50 16-49 49 1 36 15 65 50 65" id="J"/><g id="n"><use transform="matrix(0.06172839506172839,0,0,0.06172839506172839,0,0)" xlink:href="#I"/><use transform="matrix(0.06172839506172839,0,0,0.06172839506172839,12.345679012345679,0)" xlink:href="#J"/><use transform="matrix(0.06172839506172839,0,0,0.06172839506172839,24.691358024691358,0)" xlink:href="#E"/></g><path fill="#333" d="M182-182c0 78-84 86-111 141h115V0H12c-6-101 99-100 120-180 1-22-12-31-33-32-23 0-32 14-35 34l-49-3c5-45 32-70 84-70 51 0 83 22 83 69" id="K"/><use transform="matrix(0.04938271604938272,0,0,0.04938271604938272,0,0)" xlink:href="#K" id="o"/><path fill="#333" d="M128-127c34 4 56 21 59 58 7 91-148 94-172 28-4-9-6-17-7-26l51-5c1 24 16 35 40 36 23 0 39-12 38-36-1-31-31-36-65-34v-40c32 2 59-3 59-33 0-20-13-33-34-33s-33 13-35 32l-50-3c6-44 37-68 86-68 50 0 83 20 83 66 0 35-22 52-53 58" id="L"/><use transform="matrix(0.04938271604938272,0,0,0.04938271604938272,0,0)" xlink:href="#L" id="p"/><path fill="#333" d="M139-81c0-46-55-55-73-27H18l9-140h149v37H72l-4 63c44-38 133-4 122 66C201 21 21 35 11-62l49-4c5 18 15 30 39 30 26 0 40-18 40-45" id="M"/><use transform="matrix(0.04938271604938272,0,0,0.04938271604938272,0,0)" xlink:href="#M" id="q"/><path fill="#333" d="M165-50V0h-47v-50H5v-38l105-160h55v161h33v37h-33zm-47-37l2-116L46-87h72" id="N"/><use transform="matrix(0.04938271604938272,0,0,0.04938271604938272,0,0)" xlink:href="#N" id="r"/><path fill="#333" d="M33 0v-38h34V0H33" id="O"/><g id="s"><use transform="matrix(0.06172839506172839,0,0,0.06172839506172839,0,0)" xlink:href="#x"/><use transform="matrix(0.06172839506172839,0,0,0.06172839506172839,12.345679012345679,0)" xlink:href="#O"/><use transform="matrix(0.06172839506172839,0,0,0.06172839506172839,18.51851851851852,0)" xlink:href="#I"/><use transform="matrix(0.06172839506172839,0,0,0.06172839506172839,30.864197530864196,0)" xlink:href="#C"/></g><path fill="#333" d="M137 0h-34L2-248h35l83 218 83-218h36" id="P"/><g id="t"><use transform="matrix(0.06172839506172839,0,0,0.06172839506172839,0,0)" xlink:href="#P"/><use transform="matrix(0.06172839506172839,0,0,0.06172839506172839,14.814814814814813,0)" xlink:href="#D"/></g><path fill="#333" d="M101-251c68 0 84 54 84 127C185-50 166 4 99 4S15-52 14-124c-1-75 17-127 87-127zm-1 216c37-5 36-46 36-89s4-89-36-89c-39 0-36 45-36 89 0 43-3 85 36 89" id="Q"/><use transform="matrix(0.04938271604938272,0,0,0.04938271604938272,0,0)" xlink:href="#Q" id="u"/><path fill="#333" d="M23 0v-37h61v-169l-59 37v-38l62-41h46v211h57V0H23" id="R"/><use transform="matrix(0.04938271604938272,0,0,0.04938271604938272,0,0)" xlink:href="#R" id="v"/></defs></g></svg>