<svg xmlns="http://www.w3.org/2000/svg" xmlns:xlink="http://www.w3.org/1999/xlink" xmlns:lucid="lucid" width="942.57" height="371"><g transform="translate(-240 -240)" lucid:page-tab-id="0_0"><path d="M440 260h160v80H440z" fill="none"/><path d="M440 300h36l8-12 12 24 12-24 12 24 12-24 12 24 12-24 12 24 8-12h24" stroke="#5e5e5e" stroke-width="3" fill="none"/><use xlink:href="#a" transform="matrix(1,0,0,1,440,328) translate(39.62962962962963 19.444444444444443)"/><use xlink:href="#b" transform="matrix(1,0,0,1,440,328) translate(74.1358024691358 19.444444444444443)"/><use xlink:href="#c" transform="matrix(1,0,0,1,440,328) translate(103.76543209876543 19.444444444444443)"/><path d="M260 380v140h160V380z" fill="none"/><path d="M340 380v56m32 0h-64m48 14h-32m48 14h-64m48 14h-32m16 0v42" stroke="#5e5e5e" stroke-width="3" fill="#fff"/><use xlink:href="#d" transform="matrix(1,0,0,1,396,408) translate(-2.901234567901234 61.111111111111114)"/><use xlink:href="#e" transform="matrix(1,0,0,1,396,408) translate(3.2716049382716044 87.77777777777777)"/><path d="M820 260h160v80H820z" fill="none"/><path d="M820 300h36l8-12 12 24 12-24 12 24 12-24 12 24 12-24 12 24 8-12h24" stroke="#5e5e5e" stroke-width="3" fill="none"/><use xlink:href="#f" transform="matrix(1,0,0,1,820,328) translate(32.839506172839506 19.444444444444443)"/><use xlink:href="#g" transform="matrix(1,0,0,1,820,328) translate(67.34567901234567 19.444444444444443)"/><use xlink:href="#c" transform="matrix(1,0,0,1,820,328) translate(110.55555555555556 19.444444444444443)"/><g fill="none"><path d="M680 540V380h80v160z"/><path d="M720 540v-36l-12-8 24-12-24-12 24-12-24-12 24-12-24-12 24-12-12-8v-24" stroke="#5e5e5e" stroke-width="3"/></g><use xlink:href="#h" transform="matrix(1,0,0,1,770,348) translate(0.8333333333333339 57.77777777777778)"/><use xlink:href="#i" transform="matrix(1,0,0,1,770,348) translate(-3.518518518518519 84.44444444444446)"/><use xlink:href="#c" transform="matrix(1,0,0,1,770,348) translate(6.697530864197532 111.11111111111111)"/><g fill="none"><path d="M1040 540V380h80v160z"/><path d="M1080 540v-36l-12-8 24-12-24-12 24-12-24-12 24-12-24-12 24-12-12-8v-24" stroke="#5e5e5e" stroke-width="3"/></g><use xlink:href="#j" transform="matrix(1,0,0,1,1130,348) translate(0.8333333333333339 57.77777777777778)"/><use xlink:href="#k" transform="matrix(1,0,0,1,1130,348) translate(-0.432098765432098 84.44444444444446)"/><use xlink:href="#l" transform="matrix(1,0,0,1,1130,348) translate(1.1419753086419764 111.11111111111111)"/><path d="M601 300h218" stroke="#5e5e5e" stroke-width="2" fill="none"/><path d="M601.03 301H600v-2h1.03zM820 301h-1.03v-2H820z" fill="#5e5e5e"/><path d="M981 300h93c3.3 0 6 2.7 6 6v73" stroke="#5e5e5e" stroke-width="2" fill="none"/><path d="M981.03 301H980v-2h1.03zM1081 380h-2v-1.03h2z" fill="#5e5e5e"/><path d="M720 379v-78" stroke="#5e5e5e" stroke-width="2" fill="none"/><path d="M721 380h-2v-1.03h2z" fill="#5e5e5e"/><path d="M720 301.03V300M720 541v58" stroke="#5e5e5e" stroke-width="2" fill="none"/><path d="M721 541.03h-2V540h2z" fill="#5e5e5e"/><path d="M720 598.97V600M340 521v73c0 3.3 2.7 6 6 6h728c3.3 0 6-2.7 6-6v-53" stroke="#5e5e5e" stroke-width="2" fill="none"/><path d="M341 521.03h-2V520h2zM1081 541.03h-2V540h2z" fill="#5e5e5e"/><path d="M340 379v-73c0-3.3 2.7-6 6-6h93" stroke="#5e5e5e" stroke-width="2" fill="none"/><path d="M341 380h-2v-1.03h2zM440 301h-1.03v-2H440z" fill="#5e5e5e"/><defs><path fill="#333" d="M233-177c-1 41-23 64-60 70L243 0h-38l-65-103H63V0H30v-248c88 3 205-21 203 71zM63-129c60-2 137 13 137-47 0-61-80-42-137-45v92" id="m"/><path fill="#333" d="M27 0v-27h64v-190l-56 39v-29l58-41h29v221h61V0H27" id="n"/><g id="a"><use transform="matrix(0.06172839506172839,0,0,0.06172839506172839,0,0)" xlink:href="#m"/><use transform="matrix(0.06172839506172839,0,0,0.06172839506172839,15.987654320987653,0)" xlink:href="#n"/></g><path fill="#333" d="M143 0L79-87 56-68V0H24v-261h32v163l83-92h37l-77 82L181 0h-38" id="o"/><g id="b"><use transform="matrix(0.06172839506172839,0,0,0.06172839506172839,0,0)" xlink:href="#n"/><use transform="matrix(0.06172839506172839,0,0,0.06172839506172839,12.345679012345679,0)" xlink:href="#o"/></g><path fill="#333" d="M20-141c0-71 41-110 114-110s115 39 115 110c0 61-35 92-75 116l80-2V0H150v-39c35-20 64-46 64-100s-27-85-79-85c-54 0-81 31-81 85 0 52 29 80 65 100V0H15v-27l80 2C55-49 20-80 20-141" id="p"/><use transform="matrix(0.06172839506172839,0,0,0.06172839506172839,0,0)" xlink:href="#p" id="c"/><path fill="#333" d="M101-251c82-7 93 87 43 132L82-64C71-53 59-42 53-27h129V0H18c2-99 128-94 128-182 0-28-16-43-45-43s-46 15-49 41l-32-3c6-41 34-60 81-64" id="q"/><path fill="#333" d="M108 0H70L1-190h34L89-25l56-165h34" id="r"/><g id="d"><use transform="matrix(0.06172839506172839,0,0,0.06172839506172839,0,0)" xlink:href="#n"/><use transform="matrix(0.06172839506172839,0,0,0.06172839506172839,12.345679012345679,0)" xlink:href="#q"/><use transform="matrix(0.06172839506172839,0,0,0.06172839506172839,24.691358024691358,0)" xlink:href="#r"/></g><g id="e"><use transform="matrix(0.06172839506172839,0,0,0.06172839506172839,0,0)" xlink:href="#r"/><use transform="matrix(0.06172839506172839,0,0,0.06172839506172839,11.11111111111111,0)" xlink:href="#n"/></g><path fill="#333" d="M126-127c33 6 58 20 58 59 0 88-139 92-164 29-3-8-5-16-6-25l32-3c6 27 21 44 54 44 32 0 52-15 52-46 0-38-36-46-79-43v-28c39 1 72-4 72-42 0-27-17-43-46-43-28 0-47 15-49 41l-32-3c6-42 35-63 81-64 48-1 79 21 79 65 0 36-21 52-52 59" id="s"/><g id="f"><use transform="matrix(0.06172839506172839,0,0,0.06172839506172839,0,0)" xlink:href="#m"/><use transform="matrix(0.06172839506172839,0,0,0.06172839506172839,15.987654320987653,0)" xlink:href="#s"/></g><path fill="#333" d="M101-251c68 0 85 55 85 127S166 4 100 4C33 4 14-52 14-124c0-73 17-127 87-127zm-1 229c47 0 54-49 54-102s-4-102-53-102c-51 0-55 48-55 102 0 53 5 102 54 102" id="t"/><g id="g"><use transform="matrix(0.06172839506172839,0,0,0.06172839506172839,0,0)" xlink:href="#q"/><use transform="matrix(0.06172839506172839,0,0,0.06172839506172839,12.345679012345679,0)" xlink:href="#q"/><use transform="matrix(0.06172839506172839,0,0,0.06172839506172839,24.691358024691358,0)" xlink:href="#t"/></g><g id="h"><use transform="matrix(0.06172839506172839,0,0,0.06172839506172839,0,0)" xlink:href="#m"/><use transform="matrix(0.06172839506172839,0,0,0.06172839506172839,15.987654320987653,0)" xlink:href="#q"/></g><path fill="#333" d="M155-56V0h-30v-56H8v-25l114-167h33v167h35v25h-35zm-30-156c-27 46-58 90-88 131h88v-131" id="u"/><path fill="#333" d="M64 0c3-98 48-159 88-221H18v-27h164v26C143-157 98-101 97 0H64" id="v"/><g id="i"><use transform="matrix(0.06172839506172839,0,0,0.06172839506172839,0,0)" xlink:href="#u"/><use transform="matrix(0.06172839506172839,0,0,0.06172839506172839,12.345679012345679,0)" xlink:href="#v"/><use transform="matrix(0.06172839506172839,0,0,0.06172839506172839,24.691358024691358,0)" xlink:href="#t"/></g><g id="j"><use transform="matrix(0.06172839506172839,0,0,0.06172839506172839,0,0)" xlink:href="#m"/><use transform="matrix(0.06172839506172839,0,0,0.06172839506172839,15.987654320987653,0)" xlink:href="#u"/></g><path fill="#333" d="M33 0v-38h34V0H33" id="w"/><path fill="#333" d="M54-142c48-35 137-8 131 61C196 18 31 33 14-55l32-4c7 23 22 37 52 37 35-1 51-22 54-58 4-55-73-65-99-34H22l8-134h141v27H59" id="x"/><g id="k"><use transform="matrix(0.06172839506172839,0,0,0.06172839506172839,0,0)" xlink:href="#n"/><use transform="matrix(0.06172839506172839,0,0,0.06172839506172839,12.345679012345679,0)" xlink:href="#w"/><use transform="matrix(0.06172839506172839,0,0,0.06172839506172839,18.51851851851852,0)" xlink:href="#x"/></g><g id="l"><use transform="matrix(0.06172839506172839,0,0,0.06172839506172839,0,0)" xlink:href="#o"/><use transform="matrix(0.06172839506172839,0,0,0.06172839506172839,11.11111111111111,0)" xlink:href="#p"/></g></defs></g></svg>