<svg xmlns="http://www.w3.org/2000/svg" xmlns:xlink="http://www.w3.org/1999/xlink" xmlns:lucid="lucid" width="500.83" height="283.33"><g transform="translate(-320 -378.3333333333333)" lucid:page-tab-id="0_0"><g fill="none"><path d="M680 600V440h80v160z"/><path d="M720 600v-36l-12-8 24-12-24-12 24-12-24-12 24-12-24-12 24-12-12-8v-24" stroke="#5e5e5e" stroke-width="3"/></g><use xlink:href="#a" transform="matrix(1,0,0,1,770,408) translate(0.8333333333333339 57.77777777777778)"/><use xlink:href="#b" transform="matrix(1,0,0,1,770,408) translate(2.6543209876543212 84.44444444444446)"/><use xlink:href="#c" transform="matrix(1,0,0,1,770,408) translate(1.1419753086419764 111.11111111111111)"/><path d="M401 633.87l.7 2.64 1.8 1.8 2.63.7H573.2v2H405.87l-3.42-.92-2.53-2.53-.92-3.42V581h2zm320 .26l-.92 3.42-2.53 2.53-3.42.92H583.08v-2h130.8l2.63-.7 1.8-1.8.7-2.63V601h2z" fill="#5e5e5e"/><path d="M401 581.03h-2V580h2zM721 601.03h-2V600h2z" fill="#5e5e5e"/><use xlink:href="#d" transform="matrix(1,0,0,1,573.2003422564479,629.3333333333334) translate(0.004999999999999893 14.222222222222223)"/><path d="M545.06 401H406.13l-2.64.7-1.8 1.8-.7 2.63V459h-2v-53.13l.92-3.42 2.53-2.53 3.42-.92h139.2zm172.5-1.08l2.52 2.53.92 3.42V439h-2v-32.87l-.7-2.64-1.8-1.8-2.63-.7H554.94v-2h159.2z" fill="#5e5e5e"/><path d="M401 460h-2v-1.03h2zM721 440h-2v-1.03h2z" fill="#5e5e5e"/><use xlink:href="#e" transform="matrix(1,0,0,1,545.0617283950618,389.3333333333333) translate(0.004999999999999893 14.222222222222223)"/><path d="M448 520c0 26.5-21.5 48-48 48s-48-21.5-48-48 21.5-48 48-48 48 21.5 48 48zm-48-48v-12m0 108v12" stroke="#5e5e5e" stroke-width="3" fill="#fff"/><path d="M400 520c0-9.94-8.06-18-18-18s-18 8.06-18 18m72 0c0 9.94-8.06 18-18 18s-18-8.06-18-18" stroke="#5e5e5e" stroke-width="3" fill="none"/><g><use xlink:href="#f" transform="matrix(1,0,0,1,442,472) translate(5.925925925925924 17.77777777777778)"/><use xlink:href="#g" transform="matrix(1,0,0,1,442,472) translate(11.697530864197532 44.44444444444444)"/></g><defs><path fill="#333" d="M233-177c-1 41-23 64-60 70L243 0h-38l-65-103H63V0H30v-248c88 3 205-21 203 71zM63-129c60-2 137 13 137-47 0-61-80-42-137-45v92" id="h"/><path fill="#333" d="M27 0v-27h64v-190l-56 39v-29l58-41h29v221h61V0H27" id="i"/><g id="a"><use transform="matrix(0.06172839506172839,0,0,0.06172839506172839,0,0)" xlink:href="#h"/><use transform="matrix(0.06172839506172839,0,0,0.06172839506172839,15.987654320987653,0)" xlink:href="#i"/></g><path fill="#333" d="M101-251c68 0 85 55 85 127S166 4 100 4C33 4 14-52 14-124c0-73 17-127 87-127zm-1 229c47 0 54-49 54-102s-4-102-53-102c-51 0-55 48-55 102 0 53 5 102 54 102" id="j"/><g id="b"><use transform="matrix(0.06172839506172839,0,0,0.06172839506172839,0,0)" xlink:href="#i"/><use transform="matrix(0.06172839506172839,0,0,0.06172839506172839,12.345679012345679,0)" xlink:href="#j"/></g><path fill="#333" d="M143 0L79-87 56-68V0H24v-261h32v163l83-92h37l-77 82L181 0h-38" id="k"/><path fill="#333" d="M20-141c0-71 41-110 114-110s115 39 115 110c0 61-35 92-75 116l80-2V0H150v-39c35-20 64-46 64-100s-27-85-79-85c-54 0-81 31-81 85 0 52 29 80 65 100V0H15v-27l80 2C55-49 20-80 20-141" id="l"/><g id="c"><use transform="matrix(0.06172839506172839,0,0,0.06172839506172839,0,0)" xlink:href="#k"/><use transform="matrix(0.06172839506172839,0,0,0.06172839506172839,11.11111111111111,0)" xlink:href="#l"/></g><path fill="#333" d="M101-251c68 0 84 54 84 127C185-50 166 4 99 4S15-52 14-124c-1-75 17-127 87-127zm-1 216c37-5 36-46 36-89s4-89-36-89c-39 0-36 45-36 89 0 43-3 85 36 89" id="m"/><use transform="matrix(0.04938271604938272,0,0,0.04938271604938272,0,0)" xlink:href="#m" id="d"/><path fill="#333" d="M23 0v-37h61v-169l-59 37v-38l62-41h46v211h57V0H23" id="n"/><use transform="matrix(0.04938271604938272,0,0,0.04938271604938272,0,0)" xlink:href="#n" id="e"/><path fill="#333" d="M101-251c82-7 93 87 43 132L82-64C71-53 59-42 53-27h129V0H18c2-99 128-94 128-182 0-28-16-43-45-43s-46 15-49 41l-32-3c6-41 34-60 81-64" id="o"/><path fill="#333" d="M155-56V0h-30v-56H8v-25l114-167h33v167h35v25h-35zm-30-156c-27 46-58 90-88 131h88v-131" id="p"/><path fill="#333" d="M108 0H70L1-190h34L89-25l56-165h34" id="q"/><g id="f"><use transform="matrix(0.06172839506172839,0,0,0.06172839506172839,0,0)" xlink:href="#o"/><use transform="matrix(0.06172839506172839,0,0,0.06172839506172839,12.345679012345679,0)" xlink:href="#p"/><use transform="matrix(0.06172839506172839,0,0,0.06172839506172839,24.691358024691358,0)" xlink:href="#j"/><use transform="matrix(0.06172839506172839,0,0,0.06172839506172839,37.03703703703704,0)" xlink:href="#q"/></g><path fill="#333" d="M137 0h-34L2-248h35l83 218 83-218h36" id="r"/><path fill="#333" d="M141-36C126-15 110 5 73 4 37 3 15-17 15-53c-1-64 63-63 125-63 3-35-9-54-41-54-24 1-41 7-42 31l-33-3c5-37 33-52 76-52 45 0 72 20 72 64v82c-1 20 7 32 28 27v20c-31 9-61-2-59-35zM48-53c0 20 12 33 32 33 41-3 63-29 60-74-43 2-92-5-92 41" id="s"/><path fill="#333" d="M96-169c-40 0-48 33-48 73s9 75 48 75c24 0 41-14 43-38l32 2c-6 37-31 61-74 61-59 0-76-41-82-99-10-93 101-131 147-64 4 7 5 14 7 22l-32 3c-4-21-16-35-41-35" id="t"/><g id="g"><use transform="matrix(0.06172839506172839,0,0,0.06172839506172839,0,0)" xlink:href="#r"/><use transform="matrix(0.06172839506172839,0,0,0.06172839506172839,13.148148148148147,0)" xlink:href="#s"/><use transform="matrix(0.06172839506172839,0,0,0.06172839506172839,25.493827160493826,0)" xlink:href="#t"/></g></defs></g></svg>