<?xml version="1.0" encoding="utf-8" standalone="no"?>
<!DOCTYPE svg PUBLIC "-//W3C//DTD SVG 1.1//EN"
  "http://www.w3.org/Graphics/SVG/1.1/DTD/svg11.dtd">
<!-- Created with matplotlib (https://matplotlib.org/) -->
<svg height="328.32pt" version="1.1" viewBox="0 0 933.12 328.32" width="933.12pt" xmlns="http://www.w3.org/2000/svg" xmlns:xlink="http://www.w3.org/1999/xlink">
 <metadata>
  <rdf:RDF xmlns:cc="http://creativecommons.org/ns#" xmlns:dc="http://purl.org/dc/elements/1.1/" xmlns:rdf="http://www.w3.org/1999/02/22-rdf-syntax-ns#">
   <cc:Work>
    <dc:type rdf:resource="http://purl.org/dc/dcmitype/StillImage"/>
    <dc:date>2021-01-05T11:59:13.143042</dc:date>
    <dc:format>image/svg+xml</dc:format>
    <dc:creator>
     <cc:Agent>
      <dc:title>Matplotlib v3.3.3, https://matplotlib.org/</dc:title>
     </cc:Agent>
    </dc:creator>
   </cc:Work>
  </rdf:RDF>
 </metadata>
 <defs>
  <style type="text/css">*{stroke-linecap:butt;stroke-linejoin:round;}</style>
 </defs>
 <g id="figure_1">
  <g id="patch_1">
   <path d="M 0 328.32 
L 933.12 328.32 
L 933.12 0 
L 0 0 
z
" style="fill:none;"/>
  </g>
  <g id="axes_1">
   <g id="patch_2">
    <path d="M 64.21 284.36 
L 858.535 284.36 
L 858.535 32.46 
L 64.21 32.46 
z
" style="fill:none;"/>
   </g>
   <g id="matplotlib.axis_1">
    <g id="xtick_1">
     <g id="line2d_1">
      <defs>
       <path d="M 0 0 
L 0 3.5 
" id="m6be8cb4241" style="stroke:#000000;stroke-width:0.8;"/>
      </defs>
      <g>
       <use style="stroke:#000000;stroke-width:0.8;" x="100.243485" xlink:href="#m6be8cb4241" y="284.36"/>
      </g>
     </g>
     <g id="text_1">
      <!-- 0.00 -->
      <g transform="translate(87.997391 299.718281)scale(0.11 -0.11)">
       <defs>
        <path d="M 31.78125 66.40625 
Q 24.171875 66.40625 20.328125 58.90625 
Q 16.5 51.421875 16.5 36.375 
Q 16.5 21.390625 20.328125 13.890625 
Q 24.171875 6.390625 31.78125 6.390625 
Q 39.453125 6.390625 43.28125 13.890625 
Q 47.125 21.390625 47.125 36.375 
Q 47.125 51.421875 43.28125 58.90625 
Q 39.453125 66.40625 31.78125 66.40625 
z
M 31.78125 74.21875 
Q 44.046875 74.21875 50.515625 64.515625 
Q 56.984375 54.828125 56.984375 36.375 
Q 56.984375 17.96875 50.515625 8.265625 
Q 44.046875 -1.421875 31.78125 -1.421875 
Q 19.53125 -1.421875 13.0625 8.265625 
Q 6.59375 17.96875 6.59375 36.375 
Q 6.59375 54.828125 13.0625 64.515625 
Q 19.53125 74.21875 31.78125 74.21875 
z
" id="DejaVuSans-48"/>
        <path d="M 10.6875 12.40625 
L 21 12.40625 
L 21 0 
L 10.6875 0 
z
" id="DejaVuSans-46"/>
       </defs>
       <use xlink:href="#DejaVuSans-48"/>
       <use x="63.623047" xlink:href="#DejaVuSans-46"/>
       <use x="95.410156" xlink:href="#DejaVuSans-48"/>
       <use x="159.033203" xlink:href="#DejaVuSans-48"/>
      </g>
     </g>
    </g>
    <g id="xtick_2">
     <g id="line2d_2">
      <g>
       <use style="stroke:#000000;stroke-width:0.8;" x="244.622372" xlink:href="#m6be8cb4241" y="284.36"/>
      </g>
     </g>
     <g id="text_2">
      <!-- 0.01 -->
      <g transform="translate(232.376278 299.718281)scale(0.11 -0.11)">
       <defs>
        <path d="M 12.40625 8.296875 
L 28.515625 8.296875 
L 28.515625 63.921875 
L 10.984375 60.40625 
L 10.984375 69.390625 
L 28.421875 72.90625 
L 38.28125 72.90625 
L 38.28125 8.296875 
L 54.390625 8.296875 
L 54.390625 0 
L 12.40625 0 
z
" id="DejaVuSans-49"/>
       </defs>
       <use xlink:href="#DejaVuSans-48"/>
       <use x="63.623047" xlink:href="#DejaVuSans-46"/>
       <use x="95.410156" xlink:href="#DejaVuSans-48"/>
       <use x="159.033203" xlink:href="#DejaVuSans-49"/>
      </g>
     </g>
    </g>
    <g id="xtick_3">
     <g id="line2d_3">
      <g>
       <use style="stroke:#000000;stroke-width:0.8;" x="389.001258" xlink:href="#m6be8cb4241" y="284.36"/>
      </g>
     </g>
     <g id="text_3">
      <!-- 0.02 -->
      <g transform="translate(376.755165 299.718281)scale(0.11 -0.11)">
       <defs>
        <path d="M 19.1875 8.296875 
L 53.609375 8.296875 
L 53.609375 0 
L 7.328125 0 
L 7.328125 8.296875 
Q 12.9375 14.109375 22.625 23.890625 
Q 32.328125 33.6875 34.8125 36.53125 
Q 39.546875 41.84375 41.421875 45.53125 
Q 43.3125 49.21875 43.3125 52.78125 
Q 43.3125 58.59375 39.234375 62.25 
Q 35.15625 65.921875 28.609375 65.921875 
Q 23.96875 65.921875 18.8125 64.3125 
Q 13.671875 62.703125 7.8125 59.421875 
L 7.8125 69.390625 
Q 13.765625 71.78125 18.9375 73 
Q 24.125 74.21875 28.421875 74.21875 
Q 39.75 74.21875 46.484375 68.546875 
Q 53.21875 62.890625 53.21875 53.421875 
Q 53.21875 48.921875 51.53125 44.890625 
Q 49.859375 40.875 45.40625 35.40625 
Q 44.1875 33.984375 37.640625 27.21875 
Q 31.109375 20.453125 19.1875 8.296875 
z
" id="DejaVuSans-50"/>
       </defs>
       <use xlink:href="#DejaVuSans-48"/>
       <use x="63.623047" xlink:href="#DejaVuSans-46"/>
       <use x="95.410156" xlink:href="#DejaVuSans-48"/>
       <use x="159.033203" xlink:href="#DejaVuSans-50"/>
      </g>
     </g>
    </g>
    <g id="xtick_4">
     <g id="line2d_4">
      <g>
       <use style="stroke:#000000;stroke-width:0.8;" x="533.380145" xlink:href="#m6be8cb4241" y="284.36"/>
      </g>
     </g>
     <g id="text_4">
      <!-- 0.03 -->
      <g transform="translate(521.134051 299.718281)scale(0.11 -0.11)">
       <defs>
        <path d="M 40.578125 39.3125 
Q 47.65625 37.796875 51.625 33 
Q 55.609375 28.21875 55.609375 21.1875 
Q 55.609375 10.40625 48.1875 4.484375 
Q 40.765625 -1.421875 27.09375 -1.421875 
Q 22.515625 -1.421875 17.65625 -0.515625 
Q 12.796875 0.390625 7.625 2.203125 
L 7.625 11.71875 
Q 11.71875 9.328125 16.59375 8.109375 
Q 21.484375 6.890625 26.8125 6.890625 
Q 36.078125 6.890625 40.9375 10.546875 
Q 45.796875 14.203125 45.796875 21.1875 
Q 45.796875 27.640625 41.28125 31.265625 
Q 36.765625 34.90625 28.71875 34.90625 
L 20.21875 34.90625 
L 20.21875 43.015625 
L 29.109375 43.015625 
Q 36.375 43.015625 40.234375 45.921875 
Q 44.09375 48.828125 44.09375 54.296875 
Q 44.09375 59.90625 40.109375 62.90625 
Q 36.140625 65.921875 28.71875 65.921875 
Q 24.65625 65.921875 20.015625 65.03125 
Q 15.375 64.15625 9.8125 62.3125 
L 9.8125 71.09375 
Q 15.4375 72.65625 20.34375 73.4375 
Q 25.25 74.21875 29.59375 74.21875 
Q 40.828125 74.21875 47.359375 69.109375 
Q 53.90625 64.015625 53.90625 55.328125 
Q 53.90625 49.265625 50.4375 45.09375 
Q 46.96875 40.921875 40.578125 39.3125 
z
" id="DejaVuSans-51"/>
       </defs>
       <use xlink:href="#DejaVuSans-48"/>
       <use x="63.623047" xlink:href="#DejaVuSans-46"/>
       <use x="95.410156" xlink:href="#DejaVuSans-48"/>
       <use x="159.033203" xlink:href="#DejaVuSans-51"/>
      </g>
     </g>
    </g>
    <g id="xtick_5">
     <g id="line2d_5">
      <g>
       <use style="stroke:#000000;stroke-width:0.8;" x="677.759031" xlink:href="#m6be8cb4241" y="284.36"/>
      </g>
     </g>
     <g id="text_5">
      <!-- 0.04 -->
      <g transform="translate(665.512938 299.718281)scale(0.11 -0.11)">
       <defs>
        <path d="M 37.796875 64.3125 
L 12.890625 25.390625 
L 37.796875 25.390625 
z
M 35.203125 72.90625 
L 47.609375 72.90625 
L 47.609375 25.390625 
L 58.015625 25.390625 
L 58.015625 17.1875 
L 47.609375 17.1875 
L 47.609375 0 
L 37.796875 0 
L 37.796875 17.1875 
L 4.890625 17.1875 
L 4.890625 26.703125 
z
" id="DejaVuSans-52"/>
       </defs>
       <use xlink:href="#DejaVuSans-48"/>
       <use x="63.623047" xlink:href="#DejaVuSans-46"/>
       <use x="95.410156" xlink:href="#DejaVuSans-48"/>
       <use x="159.033203" xlink:href="#DejaVuSans-52"/>
      </g>
     </g>
    </g>
    <g id="xtick_6">
     <g id="line2d_6">
      <g>
       <use style="stroke:#000000;stroke-width:0.8;" x="822.137918" xlink:href="#m6be8cb4241" y="284.36"/>
      </g>
     </g>
     <g id="text_6">
      <!-- 0.05 -->
      <g transform="translate(809.891824 299.718281)scale(0.11 -0.11)">
       <defs>
        <path d="M 10.796875 72.90625 
L 49.515625 72.90625 
L 49.515625 64.59375 
L 19.828125 64.59375 
L 19.828125 46.734375 
Q 21.96875 47.46875 24.109375 47.828125 
Q 26.265625 48.1875 28.421875 48.1875 
Q 40.625 48.1875 47.75 41.5 
Q 54.890625 34.8125 54.890625 23.390625 
Q 54.890625 11.625 47.5625 5.09375 
Q 40.234375 -1.421875 26.90625 -1.421875 
Q 22.3125 -1.421875 17.546875 -0.640625 
Q 12.796875 0.140625 7.71875 1.703125 
L 7.71875 11.625 
Q 12.109375 9.234375 16.796875 8.0625 
Q 21.484375 6.890625 26.703125 6.890625 
Q 35.15625 6.890625 40.078125 11.328125 
Q 45.015625 15.765625 45.015625 23.390625 
Q 45.015625 31 40.078125 35.4375 
Q 35.15625 39.890625 26.703125 39.890625 
Q 22.75 39.890625 18.8125 39.015625 
Q 14.890625 38.140625 10.796875 36.28125 
z
" id="DejaVuSans-53"/>
       </defs>
       <use xlink:href="#DejaVuSans-48"/>
       <use x="63.623047" xlink:href="#DejaVuSans-46"/>
       <use x="95.410156" xlink:href="#DejaVuSans-48"/>
       <use x="159.033203" xlink:href="#DejaVuSans-53"/>
      </g>
     </g>
    </g>
    <g id="text_7">
     <!-- Tiempo (s) -->
     <g transform="translate(432.15375 314.364219)scale(0.11 -0.11)">
      <defs>
       <path d="M -0.296875 72.90625 
L 61.375 72.90625 
L 61.375 64.59375 
L 35.5 64.59375 
L 35.5 0 
L 25.59375 0 
L 25.59375 64.59375 
L -0.296875 64.59375 
z
" id="DejaVuSans-84"/>
       <path d="M 9.421875 54.6875 
L 18.40625 54.6875 
L 18.40625 0 
L 9.421875 0 
z
M 9.421875 75.984375 
L 18.40625 75.984375 
L 18.40625 64.59375 
L 9.421875 64.59375 
z
" id="DejaVuSans-105"/>
       <path d="M 56.203125 29.59375 
L 56.203125 25.203125 
L 14.890625 25.203125 
Q 15.484375 15.921875 20.484375 11.0625 
Q 25.484375 6.203125 34.421875 6.203125 
Q 39.59375 6.203125 44.453125 7.46875 
Q 49.3125 8.734375 54.109375 11.28125 
L 54.109375 2.78125 
Q 49.265625 0.734375 44.1875 -0.34375 
Q 39.109375 -1.421875 33.890625 -1.421875 
Q 20.796875 -1.421875 13.15625 6.1875 
Q 5.515625 13.8125 5.515625 26.8125 
Q 5.515625 40.234375 12.765625 48.109375 
Q 20.015625 56 32.328125 56 
Q 43.359375 56 49.78125 48.890625 
Q 56.203125 41.796875 56.203125 29.59375 
z
M 47.21875 32.234375 
Q 47.125 39.59375 43.09375 43.984375 
Q 39.0625 48.390625 32.421875 48.390625 
Q 24.90625 48.390625 20.390625 44.140625 
Q 15.875 39.890625 15.1875 32.171875 
z
" id="DejaVuSans-101"/>
       <path d="M 52 44.1875 
Q 55.375 50.25 60.0625 53.125 
Q 64.75 56 71.09375 56 
Q 79.640625 56 84.28125 50.015625 
Q 88.921875 44.046875 88.921875 33.015625 
L 88.921875 0 
L 79.890625 0 
L 79.890625 32.71875 
Q 79.890625 40.578125 77.09375 44.375 
Q 74.3125 48.1875 68.609375 48.1875 
Q 61.625 48.1875 57.5625 43.546875 
Q 53.515625 38.921875 53.515625 30.90625 
L 53.515625 0 
L 44.484375 0 
L 44.484375 32.71875 
Q 44.484375 40.625 41.703125 44.40625 
Q 38.921875 48.1875 33.109375 48.1875 
Q 26.21875 48.1875 22.15625 43.53125 
Q 18.109375 38.875 18.109375 30.90625 
L 18.109375 0 
L 9.078125 0 
L 9.078125 54.6875 
L 18.109375 54.6875 
L 18.109375 46.1875 
Q 21.1875 51.21875 25.484375 53.609375 
Q 29.78125 56 35.6875 56 
Q 41.65625 56 45.828125 52.96875 
Q 50 49.953125 52 44.1875 
z
" id="DejaVuSans-109"/>
       <path d="M 18.109375 8.203125 
L 18.109375 -20.796875 
L 9.078125 -20.796875 
L 9.078125 54.6875 
L 18.109375 54.6875 
L 18.109375 46.390625 
Q 20.953125 51.265625 25.265625 53.625 
Q 29.59375 56 35.59375 56 
Q 45.5625 56 51.78125 48.09375 
Q 58.015625 40.1875 58.015625 27.296875 
Q 58.015625 14.40625 51.78125 6.484375 
Q 45.5625 -1.421875 35.59375 -1.421875 
Q 29.59375 -1.421875 25.265625 0.953125 
Q 20.953125 3.328125 18.109375 8.203125 
z
M 48.6875 27.296875 
Q 48.6875 37.203125 44.609375 42.84375 
Q 40.53125 48.484375 33.40625 48.484375 
Q 26.265625 48.484375 22.1875 42.84375 
Q 18.109375 37.203125 18.109375 27.296875 
Q 18.109375 17.390625 22.1875 11.75 
Q 26.265625 6.109375 33.40625 6.109375 
Q 40.53125 6.109375 44.609375 11.75 
Q 48.6875 17.390625 48.6875 27.296875 
z
" id="DejaVuSans-112"/>
       <path d="M 30.609375 48.390625 
Q 23.390625 48.390625 19.1875 42.75 
Q 14.984375 37.109375 14.984375 27.296875 
Q 14.984375 17.484375 19.15625 11.84375 
Q 23.34375 6.203125 30.609375 6.203125 
Q 37.796875 6.203125 41.984375 11.859375 
Q 46.1875 17.53125 46.1875 27.296875 
Q 46.1875 37.015625 41.984375 42.703125 
Q 37.796875 48.390625 30.609375 48.390625 
z
M 30.609375 56 
Q 42.328125 56 49.015625 48.375 
Q 55.71875 40.765625 55.71875 27.296875 
Q 55.71875 13.875 49.015625 6.21875 
Q 42.328125 -1.421875 30.609375 -1.421875 
Q 18.84375 -1.421875 12.171875 6.21875 
Q 5.515625 13.875 5.515625 27.296875 
Q 5.515625 40.765625 12.171875 48.375 
Q 18.84375 56 30.609375 56 
z
" id="DejaVuSans-111"/>
       <path id="DejaVuSans-32"/>
       <path d="M 31 75.875 
Q 24.46875 64.65625 21.28125 53.65625 
Q 18.109375 42.671875 18.109375 31.390625 
Q 18.109375 20.125 21.3125 9.0625 
Q 24.515625 -2 31 -13.1875 
L 23.1875 -13.1875 
Q 15.875 -1.703125 12.234375 9.375 
Q 8.59375 20.453125 8.59375 31.390625 
Q 8.59375 42.28125 12.203125 53.3125 
Q 15.828125 64.359375 23.1875 75.875 
z
" id="DejaVuSans-40"/>
       <path d="M 44.28125 53.078125 
L 44.28125 44.578125 
Q 40.484375 46.53125 36.375 47.5 
Q 32.28125 48.484375 27.875 48.484375 
Q 21.1875 48.484375 17.84375 46.4375 
Q 14.5 44.390625 14.5 40.28125 
Q 14.5 37.15625 16.890625 35.375 
Q 19.28125 33.59375 26.515625 31.984375 
L 29.59375 31.296875 
Q 39.15625 29.25 43.1875 25.515625 
Q 47.21875 21.78125 47.21875 15.09375 
Q 47.21875 7.46875 41.1875 3.015625 
Q 35.15625 -1.421875 24.609375 -1.421875 
Q 20.21875 -1.421875 15.453125 -0.5625 
Q 10.6875 0.296875 5.421875 2 
L 5.421875 11.28125 
Q 10.40625 8.6875 15.234375 7.390625 
Q 20.0625 6.109375 24.8125 6.109375 
Q 31.15625 6.109375 34.5625 8.28125 
Q 37.984375 10.453125 37.984375 14.40625 
Q 37.984375 18.0625 35.515625 20.015625 
Q 33.0625 21.96875 24.703125 23.78125 
L 21.578125 24.515625 
Q 13.234375 26.265625 9.515625 29.90625 
Q 5.8125 33.546875 5.8125 39.890625 
Q 5.8125 47.609375 11.28125 51.796875 
Q 16.75 56 26.8125 56 
Q 31.78125 56 36.171875 55.265625 
Q 40.578125 54.546875 44.28125 53.078125 
z
" id="DejaVuSans-115"/>
       <path d="M 8.015625 75.875 
L 15.828125 75.875 
Q 23.140625 64.359375 26.78125 53.3125 
Q 30.421875 42.28125 30.421875 31.390625 
Q 30.421875 20.453125 26.78125 9.375 
Q 23.140625 -1.703125 15.828125 -13.1875 
L 8.015625 -13.1875 
Q 14.5 -2 17.703125 9.0625 
Q 20.90625 20.125 20.90625 31.390625 
Q 20.90625 42.671875 17.703125 53.65625 
Q 14.5 64.65625 8.015625 75.875 
z
" id="DejaVuSans-41"/>
      </defs>
      <use xlink:href="#DejaVuSans-84"/>
      <use x="57.958984" xlink:href="#DejaVuSans-105"/>
      <use x="85.742188" xlink:href="#DejaVuSans-101"/>
      <use x="147.265625" xlink:href="#DejaVuSans-109"/>
      <use x="244.677734" xlink:href="#DejaVuSans-112"/>
      <use x="308.154297" xlink:href="#DejaVuSans-111"/>
      <use x="369.335938" xlink:href="#DejaVuSans-32"/>
      <use x="401.123047" xlink:href="#DejaVuSans-40"/>
      <use x="440.136719" xlink:href="#DejaVuSans-115"/>
      <use x="492.236328" xlink:href="#DejaVuSans-41"/>
     </g>
    </g>
   </g>
   <g id="matplotlib.axis_2">
    <g id="ytick_1">
     <g id="line2d_7">
      <defs>
       <path d="M 0 0 
L -3.5 0 
" id="m7a5c4b9847" style="stroke:#000000;stroke-width:0.8;"/>
      </defs>
      <g>
       <use style="stroke:#000000;stroke-width:0.8;" x="64.21" xlink:href="#m7a5c4b9847" y="253.826819"/>
      </g>
     </g>
     <g id="text_8">
      <!-- −100 -->
      <g style="fill:#2ca02c;" transform="translate(26.996094 258.00596)scale(0.11 -0.11)">
       <defs>
        <path d="M 10.59375 35.5 
L 73.1875 35.5 
L 73.1875 27.203125 
L 10.59375 27.203125 
z
" id="DejaVuSans-8722"/>
       </defs>
       <use xlink:href="#DejaVuSans-8722"/>
       <use x="83.789062" xlink:href="#DejaVuSans-49"/>
       <use x="147.412109" xlink:href="#DejaVuSans-48"/>
       <use x="211.035156" xlink:href="#DejaVuSans-48"/>
      </g>
     </g>
    </g>
    <g id="ytick_2">
     <g id="line2d_8">
      <g>
       <use style="stroke:#000000;stroke-width:0.8;" x="64.21" xlink:href="#m7a5c4b9847" y="206.118446"/>
      </g>
     </g>
     <g id="text_9">
      <!-- −50 -->
      <g style="fill:#2ca02c;" transform="translate(33.994844 210.297587)scale(0.11 -0.11)">
       <use xlink:href="#DejaVuSans-8722"/>
       <use x="83.789062" xlink:href="#DejaVuSans-53"/>
       <use x="147.412109" xlink:href="#DejaVuSans-48"/>
      </g>
     </g>
    </g>
    <g id="ytick_3">
     <g id="line2d_9">
      <g>
       <use style="stroke:#000000;stroke-width:0.8;" x="64.21" xlink:href="#m7a5c4b9847" y="158.410073"/>
      </g>
     </g>
     <g id="text_10">
      <!-- 0 -->
      <g style="fill:#2ca02c;" transform="translate(50.21125 162.589214)scale(0.11 -0.11)">
       <use xlink:href="#DejaVuSans-48"/>
      </g>
     </g>
    </g>
    <g id="ytick_4">
     <g id="line2d_10">
      <g>
       <use style="stroke:#000000;stroke-width:0.8;" x="64.21" xlink:href="#m7a5c4b9847" y="110.7017"/>
      </g>
     </g>
     <g id="text_11">
      <!-- 50 -->
      <g style="fill:#2ca02c;" transform="translate(43.2125 114.880841)scale(0.11 -0.11)">
       <use xlink:href="#DejaVuSans-53"/>
       <use x="63.623047" xlink:href="#DejaVuSans-48"/>
      </g>
     </g>
    </g>
    <g id="ytick_5">
     <g id="line2d_11">
      <g>
       <use style="stroke:#000000;stroke-width:0.8;" x="64.21" xlink:href="#m7a5c4b9847" y="62.993327"/>
      </g>
     </g>
     <g id="text_12">
      <!-- 100 -->
      <g style="fill:#2ca02c;" transform="translate(36.21375 67.172468)scale(0.11 -0.11)">
       <use xlink:href="#DejaVuSans-49"/>
       <use x="63.623047" xlink:href="#DejaVuSans-48"/>
       <use x="127.246094" xlink:href="#DejaVuSans-48"/>
      </g>
     </g>
    </g>
    <g id="text_13">
     <!-- Voltaje (V) -->
     <g style="fill:#2ca02c;" transform="translate(20.708438 186.880234)rotate(-90)scale(0.11 -0.11)">
      <defs>
       <path d="M 28.609375 0 
L 0.78125 72.90625 
L 11.078125 72.90625 
L 34.1875 11.53125 
L 57.328125 72.90625 
L 67.578125 72.90625 
L 39.796875 0 
z
" id="DejaVuSans-86"/>
       <path d="M 9.421875 75.984375 
L 18.40625 75.984375 
L 18.40625 0 
L 9.421875 0 
z
" id="DejaVuSans-108"/>
       <path d="M 18.3125 70.21875 
L 18.3125 54.6875 
L 36.8125 54.6875 
L 36.8125 47.703125 
L 18.3125 47.703125 
L 18.3125 18.015625 
Q 18.3125 11.328125 20.140625 9.421875 
Q 21.96875 7.515625 27.59375 7.515625 
L 36.8125 7.515625 
L 36.8125 0 
L 27.59375 0 
Q 17.1875 0 13.234375 3.875 
Q 9.28125 7.765625 9.28125 18.015625 
L 9.28125 47.703125 
L 2.6875 47.703125 
L 2.6875 54.6875 
L 9.28125 54.6875 
L 9.28125 70.21875 
z
" id="DejaVuSans-116"/>
       <path d="M 34.28125 27.484375 
Q 23.390625 27.484375 19.1875 25 
Q 14.984375 22.515625 14.984375 16.5 
Q 14.984375 11.71875 18.140625 8.90625 
Q 21.296875 6.109375 26.703125 6.109375 
Q 34.1875 6.109375 38.703125 11.40625 
Q 43.21875 16.703125 43.21875 25.484375 
L 43.21875 27.484375 
z
M 52.203125 31.203125 
L 52.203125 0 
L 43.21875 0 
L 43.21875 8.296875 
Q 40.140625 3.328125 35.546875 0.953125 
Q 30.953125 -1.421875 24.3125 -1.421875 
Q 15.921875 -1.421875 10.953125 3.296875 
Q 6 8.015625 6 15.921875 
Q 6 25.140625 12.171875 29.828125 
Q 18.359375 34.515625 30.609375 34.515625 
L 43.21875 34.515625 
L 43.21875 35.40625 
Q 43.21875 41.609375 39.140625 45 
Q 35.0625 48.390625 27.6875 48.390625 
Q 23 48.390625 18.546875 47.265625 
Q 14.109375 46.140625 10.015625 43.890625 
L 10.015625 52.203125 
Q 14.9375 54.109375 19.578125 55.046875 
Q 24.21875 56 28.609375 56 
Q 40.484375 56 46.34375 49.84375 
Q 52.203125 43.703125 52.203125 31.203125 
z
" id="DejaVuSans-97"/>
       <path d="M 9.421875 54.6875 
L 18.40625 54.6875 
L 18.40625 -0.984375 
Q 18.40625 -11.421875 14.421875 -16.109375 
Q 10.453125 -20.796875 1.609375 -20.796875 
L -1.8125 -20.796875 
L -1.8125 -13.1875 
L 0.59375 -13.1875 
Q 5.71875 -13.1875 7.5625 -10.8125 
Q 9.421875 -8.453125 9.421875 -0.984375 
z
M 9.421875 75.984375 
L 18.40625 75.984375 
L 18.40625 64.59375 
L 9.421875 64.59375 
z
" id="DejaVuSans-106"/>
      </defs>
      <use xlink:href="#DejaVuSans-86"/>
      <use x="60.658203" xlink:href="#DejaVuSans-111"/>
      <use x="121.839844" xlink:href="#DejaVuSans-108"/>
      <use x="149.623047" xlink:href="#DejaVuSans-116"/>
      <use x="188.832031" xlink:href="#DejaVuSans-97"/>
      <use x="250.111328" xlink:href="#DejaVuSans-106"/>
      <use x="277.894531" xlink:href="#DejaVuSans-101"/>
      <use x="339.417969" xlink:href="#DejaVuSans-32"/>
      <use x="371.205078" xlink:href="#DejaVuSans-40"/>
      <use x="410.21875" xlink:href="#DejaVuSans-86"/>
      <use x="478.626953" xlink:href="#DejaVuSans-41"/>
     </g>
    </g>
   </g>
   <g id="line2d_12">
    <path clip-path="url(#p8499e86aa3)" d="M 100.315682 158.194224 
L 109.844919 130.004055 
L 115.620075 113.663308 
L 119.951441 102.05474 
L 124.282808 91.166245 
L 127.170386 84.376427 
L 130.057963 78.007283 
L 132.945541 72.095004 
L 135.833119 66.673184 
L 138.720697 61.772631 
L 141.608274 57.421192 
L 144.495852 53.643591 
L 147.38343 50.461295 
L 148.827219 49.099171 
L 150.271008 47.892385 
L 151.714796 46.84265 
L 153.158585 45.951458 
L 154.602374 45.220077 
L 156.046163 44.649544 
L 157.489952 44.240672 
L 158.933741 43.99404 
L 160.37753 43.91 
L 161.821319 43.988671 
L 163.265107 44.229941 
L 164.708896 44.633467 
L 166.152685 45.198675 
L 167.596474 45.924764 
L 169.040263 46.8107 
L 170.484052 47.855225 
L 171.927841 49.056855 
L 173.371629 50.413881 
L 176.259207 53.586193 
L 179.146785 57.354135 
L 182.034363 61.696297 
L 184.92194 66.588006 
L 187.809518 72.001466 
L 190.697096 77.905917 
L 193.584674 84.267809 
L 196.472251 91.050992 
L 200.803618 101.930773 
L 205.134984 113.532211 
L 210.91014 129.86607 
L 218.129084 151.149464 
L 229.679395 185.420016 
L 235.454551 201.828914 
L 239.785917 213.508484 
L 244.117284 224.484042 
L 247.004862 231.340283 
L 249.892439 237.782119 
L 252.780017 243.772949 
L 255.667595 249.278729 
L 258.555173 254.268175 
L 261.44275 258.712936 
L 264.330328 262.587757 
L 267.217906 265.870619 
L 270.105483 268.542869 
L 271.549272 269.645132 
L 272.993061 270.589323 
L 274.43685 271.374101 
L 275.880639 271.998351 
L 277.324428 272.461186 
L 278.768217 272.761949 
L 280.212005 272.900211 
L 281.655794 272.875776 
L 283.099583 272.688679 
L 284.543372 272.339186 
L 285.987161 271.827793 
L 287.43095 271.155228 
L 288.874739 270.322446 
L 290.318528 269.33063 
L 291.762316 268.18119 
L 293.206105 266.875759 
L 296.093683 263.804564 
L 298.981261 260.134497 
L 301.868838 255.886412 
L 304.756416 251.084446 
L 307.643994 245.755886 
L 310.531572 239.93101 
L 313.419149 233.642916 
L 316.306727 226.927333 
L 320.638094 216.136504 
L 324.96946 204.608082 
L 329.300827 192.489371 
L 335.075982 175.681336 
L 353.934716 120.117164 
L 358.266082 108.18381 
L 362.597449 96.892215 
L 366.928815 86.386657 
L 369.816393 79.886394 
L 372.703971 73.832317 
L 375.591549 68.258828 
L 378.479126 63.197597 
L 381.366704 58.677382 
L 384.254282 54.723867 
L 387.141859 51.359519 
L 390.029437 48.603453 
L 391.473226 47.458558 
L 392.917015 46.47133 
L 394.360804 45.643174 
L 395.804593 44.975266 
L 397.248382 44.468555 
L 398.69217 44.123761 
L 400.135959 43.941374 
L 401.579748 43.921653 
L 403.023537 44.064627 
L 404.467326 44.370091 
L 405.911115 44.837613 
L 407.354904 45.466528 
L 408.798692 46.255941 
L 410.242481 47.204732 
L 411.68627 48.311551 
L 413.130059 49.574827 
L 416.017637 52.563345 
L 418.905214 56.153306 
L 421.792792 60.32431 
L 424.68037 65.052657 
L 427.567948 70.31148 
L 430.455525 76.070896 
L 433.343103 82.29818 
L 436.230681 88.957947 
L 440.562047 99.675104 
L 444.893414 111.14274 
L 449.224781 123.214328 
L 454.999936 139.981801 
L 473.769191 195.343994 
L 478.100558 207.339375 
L 482.431925 218.709567 
L 486.763291 229.30929 
L 489.650869 235.880393 
L 492.538447 242.011294 
L 495.426024 247.667156 
L 498.313602 252.815842 
L 501.20118 257.428095 
L 504.088758 261.477708 
L 506.976335 264.94167 
L 509.863913 267.800299 
L 511.307702 268.9974 
L 512.751491 270.03735 
L 514.19528 270.918672 
L 515.639068 271.640113 
L 517.082857 272.200648 
L 518.526646 272.59948 
L 519.970435 272.836043 
L 521.414224 272.91 
L 522.858013 272.821247 
L 524.301802 272.569909 
L 525.745591 272.156343 
L 527.189379 271.581139 
L 528.633168 270.845111 
L 530.076957 269.949308 
L 531.520746 268.895001 
L 532.964535 267.683689 
L 534.408324 266.317093 
L 537.295901 263.126036 
L 540.183479 259.339962 
L 543.071057 254.980384 
L 545.958635 250.072074 
L 548.846212 244.642923 
L 551.73379 238.723779 
L 554.621368 232.348277 
L 557.508946 225.552643 
L 561.840312 214.656513 
L 566.171679 203.041701 
L 571.946834 186.694928 
L 579.165779 165.403685 
L 590.716089 131.140238 
L 596.491245 114.743815 
L 600.822612 103.077306 
L 605.153978 92.117805 
L 608.041556 85.273832 
L 610.929134 78.845434 
L 613.816711 72.869138 
L 616.704289 67.378903 
L 619.591867 62.405924 
L 622.479445 57.978461 
L 625.367022 54.12167 
L 628.2546 50.857467 
L 631.142178 48.204398 
L 632.585967 47.111889 
L 634.029755 46.177541 
L 635.473544 45.402681 
L 636.917333 44.788411 
L 638.361122 44.335604 
L 639.804911 44.044902 
L 641.2487 43.91672 
L 642.692489 43.951239 
L 644.136278 44.14841 
L 645.580066 44.507954 
L 647.023855 45.029358 
L 648.467644 45.711883 
L 649.911433 46.554558 
L 651.355222 47.556186 
L 652.799011 48.715343 
L 654.2428 50.030383 
L 657.130377 53.120415 
L 660.017955 56.808723 
L 662.905533 61.074351 
L 665.79311 65.89306 
L 668.680688 71.237469 
L 671.568266 77.07721 
L 674.455844 83.3791 
L 677.343421 90.107332 
L 681.674788 100.914829 
L 686.006155 112.456964 
L 690.337521 124.586259 
L 696.112677 141.403312 
L 714.145153 194.620087 
L 718.47652 206.64763 
L 722.807886 218.058823 
L 727.139253 228.707861 
L 730.026831 235.316153 
L 732.914409 241.48745 
L 735.801986 247.186684 
L 738.689564 252.381472 
L 741.577142 257.042296 
L 744.464719 261.142671 
L 747.352297 264.6593 
L 750.239875 267.572199 
L 751.683664 268.796941 
L 753.127453 269.864817 
L 754.571242 270.77431 
L 756.01503 271.524127 
L 757.458819 272.113203 
L 758.902608 272.540701 
L 760.346397 272.806012 
L 761.790186 272.908761 
L 763.233975 272.848801 
L 764.677764 272.626217 
L 766.121552 272.241326 
L 767.565341 271.694675 
L 769.00913 270.987039 
L 770.452919 270.119426 
L 771.896708 269.093068 
L 773.340497 267.909423 
L 774.784286 266.570173 
L 777.671863 263.432691 
L 780.559441 259.69845 
L 783.447019 255.388668 
L 786.334597 250.527835 
L 789.222174 245.143569 
L 792.109752 239.266467 
L 794.99733 232.929923 
L 797.884907 226.169942 
L 802.216274 215.320656 
L 806.547641 203.744203 
L 810.879007 191.588498 
L 816.654163 174.749104 
L 822.429318 157.538871 
L 822.429318 157.538871 
" style="fill:none;stroke:#2ca02c;stroke-linecap:square;stroke-width:1.5;"/>
   </g>
   <g id="patch_3">
    <path d="M 64.21 284.36 
L 64.21 32.46 
" style="fill:none;stroke:#000000;stroke-linecap:square;stroke-linejoin:miter;stroke-width:0.8;"/>
   </g>
   <g id="patch_4">
    <path d="M 858.535 284.36 
L 858.535 32.46 
" style="fill:none;stroke:#000000;stroke-linecap:square;stroke-linejoin:miter;stroke-width:0.8;"/>
   </g>
   <g id="patch_5">
    <path d="M 64.21 284.36 
L 858.535 284.36 
" style="fill:none;stroke:#000000;stroke-linecap:square;stroke-linejoin:miter;stroke-width:0.8;"/>
   </g>
   <g id="patch_6">
    <path d="M 64.21 32.46 
L 858.535 32.46 
" style="fill:none;stroke:#000000;stroke-linecap:square;stroke-linejoin:miter;stroke-width:0.8;"/>
   </g>
   <g id="text_14">
    <!-- Circuito Corriente Alterna - ($\mathrm{10v}$) - VAC:$\mathrm{120v}$-$\mathrm{60Hz}$ R:$\mathrm{10k\Omega}$ - Tensión VS Intensidad - (Ahkab) -->
    <g transform="translate(128.5165 26.46)scale(0.144 -0.144)">
     <defs>
      <path d="M 64.40625 67.28125 
L 64.40625 56.890625 
Q 59.421875 61.53125 53.78125 63.8125 
Q 48.140625 66.109375 41.796875 66.109375 
Q 29.296875 66.109375 22.65625 58.46875 
Q 16.015625 50.828125 16.015625 36.375 
Q 16.015625 21.96875 22.65625 14.328125 
Q 29.296875 6.6875 41.796875 6.6875 
Q 48.140625 6.6875 53.78125 8.984375 
Q 59.421875 11.28125 64.40625 15.921875 
L 64.40625 5.609375 
Q 59.234375 2.09375 53.4375 0.328125 
Q 47.65625 -1.421875 41.21875 -1.421875 
Q 24.65625 -1.421875 15.125 8.703125 
Q 5.609375 18.84375 5.609375 36.375 
Q 5.609375 53.953125 15.125 64.078125 
Q 24.65625 74.21875 41.21875 74.21875 
Q 47.75 74.21875 53.53125 72.484375 
Q 59.328125 70.75 64.40625 67.28125 
z
" id="DejaVuSans-67"/>
      <path d="M 41.109375 46.296875 
Q 39.59375 47.171875 37.8125 47.578125 
Q 36.03125 48 33.890625 48 
Q 26.265625 48 22.1875 43.046875 
Q 18.109375 38.09375 18.109375 28.8125 
L 18.109375 0 
L 9.078125 0 
L 9.078125 54.6875 
L 18.109375 54.6875 
L 18.109375 46.1875 
Q 20.953125 51.171875 25.484375 53.578125 
Q 30.03125 56 36.53125 56 
Q 37.453125 56 38.578125 55.875 
Q 39.703125 55.765625 41.0625 55.515625 
z
" id="DejaVuSans-114"/>
      <path d="M 48.78125 52.59375 
L 48.78125 44.1875 
Q 44.96875 46.296875 41.140625 47.34375 
Q 37.3125 48.390625 33.40625 48.390625 
Q 24.65625 48.390625 19.8125 42.84375 
Q 14.984375 37.3125 14.984375 27.296875 
Q 14.984375 17.28125 19.8125 11.734375 
Q 24.65625 6.203125 33.40625 6.203125 
Q 37.3125 6.203125 41.140625 7.25 
Q 44.96875 8.296875 48.78125 10.40625 
L 48.78125 2.09375 
Q 45.015625 0.34375 40.984375 -0.53125 
Q 36.96875 -1.421875 32.421875 -1.421875 
Q 20.0625 -1.421875 12.78125 6.34375 
Q 5.515625 14.109375 5.515625 27.296875 
Q 5.515625 40.671875 12.859375 48.328125 
Q 20.21875 56 33.015625 56 
Q 37.15625 56 41.109375 55.140625 
Q 45.0625 54.296875 48.78125 52.59375 
z
" id="DejaVuSans-99"/>
      <path d="M 8.5 21.578125 
L 8.5 54.6875 
L 17.484375 54.6875 
L 17.484375 21.921875 
Q 17.484375 14.15625 20.5 10.265625 
Q 23.53125 6.390625 29.59375 6.390625 
Q 36.859375 6.390625 41.078125 11.03125 
Q 45.3125 15.671875 45.3125 23.6875 
L 45.3125 54.6875 
L 54.296875 54.6875 
L 54.296875 0 
L 45.3125 0 
L 45.3125 8.40625 
Q 42.046875 3.421875 37.71875 1 
Q 33.40625 -1.421875 27.6875 -1.421875 
Q 18.265625 -1.421875 13.375 4.4375 
Q 8.5 10.296875 8.5 21.578125 
z
M 31.109375 56 
z
" id="DejaVuSans-117"/>
      <path d="M 54.890625 33.015625 
L 54.890625 0 
L 45.90625 0 
L 45.90625 32.71875 
Q 45.90625 40.484375 42.875 44.328125 
Q 39.84375 48.1875 33.796875 48.1875 
Q 26.515625 48.1875 22.3125 43.546875 
Q 18.109375 38.921875 18.109375 30.90625 
L 18.109375 0 
L 9.078125 0 
L 9.078125 54.6875 
L 18.109375 54.6875 
L 18.109375 46.1875 
Q 21.34375 51.125 25.703125 53.5625 
Q 30.078125 56 35.796875 56 
Q 45.21875 56 50.046875 50.171875 
Q 54.890625 44.34375 54.890625 33.015625 
z
" id="DejaVuSans-110"/>
      <path d="M 34.1875 63.1875 
L 20.796875 26.90625 
L 47.609375 26.90625 
z
M 28.609375 72.90625 
L 39.796875 72.90625 
L 67.578125 0 
L 57.328125 0 
L 50.6875 18.703125 
L 17.828125 18.703125 
L 11.1875 0 
L 0.78125 0 
z
" id="DejaVuSans-65"/>
      <path d="M 4.890625 31.390625 
L 31.203125 31.390625 
L 31.203125 23.390625 
L 4.890625 23.390625 
z
" id="DejaVuSans-45"/>
      <path d="M 2.984375 54.6875 
L 12.5 54.6875 
L 29.59375 8.796875 
L 46.6875 54.6875 
L 56.203125 54.6875 
L 35.6875 0 
L 23.484375 0 
z
" id="DejaVuSans-118"/>
      <path d="M 11.71875 12.40625 
L 22.015625 12.40625 
L 22.015625 0 
L 11.71875 0 
z
M 11.71875 51.703125 
L 22.015625 51.703125 
L 22.015625 39.3125 
L 11.71875 39.3125 
z
" id="DejaVuSans-58"/>
      <path d="M 33.015625 40.375 
Q 26.375 40.375 22.484375 35.828125 
Q 18.609375 31.296875 18.609375 23.390625 
Q 18.609375 15.53125 22.484375 10.953125 
Q 26.375 6.390625 33.015625 6.390625 
Q 39.65625 6.390625 43.53125 10.953125 
Q 47.40625 15.53125 47.40625 23.390625 
Q 47.40625 31.296875 43.53125 35.828125 
Q 39.65625 40.375 33.015625 40.375 
z
M 52.59375 71.296875 
L 52.59375 62.3125 
Q 48.875 64.0625 45.09375 64.984375 
Q 41.3125 65.921875 37.59375 65.921875 
Q 27.828125 65.921875 22.671875 59.328125 
Q 17.53125 52.734375 16.796875 39.40625 
Q 19.671875 43.65625 24.015625 45.921875 
Q 28.375 48.1875 33.59375 48.1875 
Q 44.578125 48.1875 50.953125 41.515625 
Q 57.328125 34.859375 57.328125 23.390625 
Q 57.328125 12.15625 50.6875 5.359375 
Q 44.046875 -1.421875 33.015625 -1.421875 
Q 20.359375 -1.421875 13.671875 8.265625 
Q 6.984375 17.96875 6.984375 36.375 
Q 6.984375 53.65625 15.1875 63.9375 
Q 23.390625 74.21875 37.203125 74.21875 
Q 40.921875 74.21875 44.703125 73.484375 
Q 48.484375 72.75 52.59375 71.296875 
z
" id="DejaVuSans-54"/>
      <path d="M 9.8125 72.90625 
L 19.671875 72.90625 
L 19.671875 43.015625 
L 55.515625 43.015625 
L 55.515625 72.90625 
L 65.375 72.90625 
L 65.375 0 
L 55.515625 0 
L 55.515625 34.71875 
L 19.671875 34.71875 
L 19.671875 0 
L 9.8125 0 
z
" id="DejaVuSans-72"/>
      <path d="M 5.515625 54.6875 
L 48.1875 54.6875 
L 48.1875 46.484375 
L 14.40625 7.171875 
L 48.1875 7.171875 
L 48.1875 0 
L 4.296875 0 
L 4.296875 8.203125 
L 38.09375 47.515625 
L 5.515625 47.515625 
z
" id="DejaVuSans-122"/>
      <path d="M 44.390625 34.1875 
Q 47.5625 33.109375 50.5625 29.59375 
Q 53.5625 26.078125 56.59375 19.921875 
L 66.609375 0 
L 56 0 
L 46.6875 18.703125 
Q 43.0625 26.03125 39.671875 28.421875 
Q 36.28125 30.8125 30.421875 30.8125 
L 19.671875 30.8125 
L 19.671875 0 
L 9.8125 0 
L 9.8125 72.90625 
L 32.078125 72.90625 
Q 44.578125 72.90625 50.734375 67.671875 
Q 56.890625 62.453125 56.890625 51.90625 
Q 56.890625 45.015625 53.6875 40.46875 
Q 50.484375 35.9375 44.390625 34.1875 
z
M 19.671875 64.796875 
L 19.671875 38.921875 
L 32.078125 38.921875 
Q 39.203125 38.921875 42.84375 42.21875 
Q 46.484375 45.515625 46.484375 51.90625 
Q 46.484375 58.296875 42.84375 61.546875 
Q 39.203125 64.796875 32.078125 64.796875 
z
" id="DejaVuSans-82"/>
      <path d="M 9.078125 75.984375 
L 18.109375 75.984375 
L 18.109375 31.109375 
L 44.921875 54.6875 
L 56.390625 54.6875 
L 27.390625 29.109375 
L 57.625 0 
L 45.90625 0 
L 18.109375 26.703125 
L 18.109375 0 
L 9.078125 0 
z
" id="DejaVuSans-107"/>
      <path d="M 72.609375 8.6875 
L 72.609375 0 
L 43.3125 0 
L 43.3125 8.6875 
Q 51.953125 13.421875 56.78125 21.53125 
Q 61.625 29.640625 61.625 39.5 
Q 61.625 51.21875 55.171875 58.296875 
Q 48.734375 65.375 38.1875 65.375 
Q 27.640625 65.375 21.171875 58.265625 
Q 14.703125 51.171875 14.703125 39.5 
Q 14.703125 29.640625 19.53125 21.53125 
Q 24.421875 13.421875 33.109375 8.6875 
L 33.109375 0 
L 3.8125 0 
L 3.8125 8.6875 
L 19.390625 8.6875 
Q 11.671875 15.484375 8.109375 22.75 
Q 4.59375 30.03125 4.59375 39.015625 
Q 4.59375 54.546875 13.96875 64.15625 
Q 23.296875 73.78125 38.1875 73.78125 
Q 52.984375 73.78125 62.40625 64.15625 
Q 71.78125 54.59375 71.78125 39.5 
Q 71.78125 30.03125 68.3125 22.796875 
Q 64.84375 15.578125 56.984375 8.6875 
z
" id="DejaVuSans-937"/>
      <path d="M 30.609375 48.390625 
Q 23.390625 48.390625 19.1875 42.75 
Q 14.984375 37.109375 14.984375 27.296875 
Q 14.984375 17.484375 19.15625 11.84375 
Q 23.34375 6.203125 30.609375 6.203125 
Q 37.796875 6.203125 41.984375 11.859375 
Q 46.1875 17.53125 46.1875 27.296875 
Q 46.1875 37.015625 41.984375 42.703125 
Q 37.796875 48.390625 30.609375 48.390625 
z
M 30.609375 56 
Q 42.328125 56 49.015625 48.375 
Q 55.71875 40.765625 55.71875 27.296875 
Q 55.71875 13.875 49.015625 6.21875 
Q 42.328125 -1.421875 30.609375 -1.421875 
Q 18.84375 -1.421875 12.171875 6.21875 
Q 5.515625 13.875 5.515625 27.296875 
Q 5.515625 40.765625 12.171875 48.375 
Q 18.84375 56 30.609375 56 
z
M 37.40625 79.984375 
L 47.125 79.984375 
L 31.203125 61.625 
L 23.734375 61.625 
z
" id="DejaVuSans-243"/>
      <path d="M 53.515625 70.515625 
L 53.515625 60.890625 
Q 47.90625 63.578125 42.921875 64.890625 
Q 37.9375 66.21875 33.296875 66.21875 
Q 25.25 66.21875 20.875 63.09375 
Q 16.5 59.96875 16.5 54.203125 
Q 16.5 49.359375 19.40625 46.890625 
Q 22.3125 44.4375 30.421875 42.921875 
L 36.375 41.703125 
Q 47.40625 39.59375 52.65625 34.296875 
Q 57.90625 29 57.90625 20.125 
Q 57.90625 9.515625 50.796875 4.046875 
Q 43.703125 -1.421875 29.984375 -1.421875 
Q 24.8125 -1.421875 18.96875 -0.25 
Q 13.140625 0.921875 6.890625 3.21875 
L 6.890625 13.375 
Q 12.890625 10.015625 18.65625 8.296875 
Q 24.421875 6.59375 29.984375 6.59375 
Q 38.421875 6.59375 43.015625 9.90625 
Q 47.609375 13.234375 47.609375 19.390625 
Q 47.609375 24.75 44.3125 27.78125 
Q 41.015625 30.8125 33.5 32.328125 
L 27.484375 33.5 
Q 16.453125 35.6875 11.515625 40.375 
Q 6.59375 45.0625 6.59375 53.421875 
Q 6.59375 63.09375 13.40625 68.65625 
Q 20.21875 74.21875 32.171875 74.21875 
Q 37.3125 74.21875 42.625 73.28125 
Q 47.953125 72.359375 53.515625 70.515625 
z
" id="DejaVuSans-83"/>
      <path d="M 9.8125 72.90625 
L 19.671875 72.90625 
L 19.671875 0 
L 9.8125 0 
z
" id="DejaVuSans-73"/>
      <path d="M 45.40625 46.390625 
L 45.40625 75.984375 
L 54.390625 75.984375 
L 54.390625 0 
L 45.40625 0 
L 45.40625 8.203125 
Q 42.578125 3.328125 38.25 0.953125 
Q 33.9375 -1.421875 27.875 -1.421875 
Q 17.96875 -1.421875 11.734375 6.484375 
Q 5.515625 14.40625 5.515625 27.296875 
Q 5.515625 40.1875 11.734375 48.09375 
Q 17.96875 56 27.875 56 
Q 33.9375 56 38.25 53.625 
Q 42.578125 51.265625 45.40625 46.390625 
z
M 14.796875 27.296875 
Q 14.796875 17.390625 18.875 11.75 
Q 22.953125 6.109375 30.078125 6.109375 
Q 37.203125 6.109375 41.296875 11.75 
Q 45.40625 17.390625 45.40625 27.296875 
Q 45.40625 37.203125 41.296875 42.84375 
Q 37.203125 48.484375 30.078125 48.484375 
Q 22.953125 48.484375 18.875 42.84375 
Q 14.796875 37.203125 14.796875 27.296875 
z
" id="DejaVuSans-100"/>
      <path d="M 54.890625 33.015625 
L 54.890625 0 
L 45.90625 0 
L 45.90625 32.71875 
Q 45.90625 40.484375 42.875 44.328125 
Q 39.84375 48.1875 33.796875 48.1875 
Q 26.515625 48.1875 22.3125 43.546875 
Q 18.109375 38.921875 18.109375 30.90625 
L 18.109375 0 
L 9.078125 0 
L 9.078125 75.984375 
L 18.109375 75.984375 
L 18.109375 46.1875 
Q 21.34375 51.125 25.703125 53.5625 
Q 30.078125 56 35.796875 56 
Q 45.21875 56 50.046875 50.171875 
Q 54.890625 44.34375 54.890625 33.015625 
z
" id="DejaVuSans-104"/>
      <path d="M 48.6875 27.296875 
Q 48.6875 37.203125 44.609375 42.84375 
Q 40.53125 48.484375 33.40625 48.484375 
Q 26.265625 48.484375 22.1875 42.84375 
Q 18.109375 37.203125 18.109375 27.296875 
Q 18.109375 17.390625 22.1875 11.75 
Q 26.265625 6.109375 33.40625 6.109375 
Q 40.53125 6.109375 44.609375 11.75 
Q 48.6875 17.390625 48.6875 27.296875 
z
M 18.109375 46.390625 
Q 20.953125 51.265625 25.265625 53.625 
Q 29.59375 56 35.59375 56 
Q 45.5625 56 51.78125 48.09375 
Q 58.015625 40.1875 58.015625 27.296875 
Q 58.015625 14.40625 51.78125 6.484375 
Q 45.5625 -1.421875 35.59375 -1.421875 
Q 29.59375 -1.421875 25.265625 0.953125 
Q 20.953125 3.328125 18.109375 8.203125 
L 18.109375 0 
L 9.078125 0 
L 9.078125 75.984375 
L 18.109375 75.984375 
z
" id="DejaVuSans-98"/>
     </defs>
     <use transform="translate(0 0.015625)" xlink:href="#DejaVuSans-67"/>
     <use transform="translate(69.824219 0.015625)" xlink:href="#DejaVuSans-105"/>
     <use transform="translate(97.607422 0.015625)" xlink:href="#DejaVuSans-114"/>
     <use transform="translate(138.720703 0.015625)" xlink:href="#DejaVuSans-99"/>
     <use transform="translate(193.701172 0.015625)" xlink:href="#DejaVuSans-117"/>
     <use transform="translate(257.080078 0.015625)" xlink:href="#DejaVuSans-105"/>
     <use transform="translate(284.863281 0.015625)" xlink:href="#DejaVuSans-116"/>
     <use transform="translate(324.072266 0.015625)" xlink:href="#DejaVuSans-111"/>
     <use transform="translate(385.253906 0.015625)" xlink:href="#DejaVuSans-32"/>
     <use transform="translate(417.041016 0.015625)" xlink:href="#DejaVuSans-67"/>
     <use transform="translate(486.865234 0.015625)" xlink:href="#DejaVuSans-111"/>
     <use transform="translate(548.046875 0.015625)" xlink:href="#DejaVuSans-114"/>
     <use transform="translate(589.160156 0.015625)" xlink:href="#DejaVuSans-114"/>
     <use transform="translate(630.273438 0.015625)" xlink:href="#DejaVuSans-105"/>
     <use transform="translate(658.056641 0.015625)" xlink:href="#DejaVuSans-101"/>
     <use transform="translate(719.580078 0.015625)" xlink:href="#DejaVuSans-110"/>
     <use transform="translate(782.958984 0.015625)" xlink:href="#DejaVuSans-116"/>
     <use transform="translate(822.167969 0.015625)" xlink:href="#DejaVuSans-101"/>
     <use transform="translate(883.691406 0.015625)" xlink:href="#DejaVuSans-32"/>
     <use transform="translate(915.478516 0.015625)" xlink:href="#DejaVuSans-65"/>
     <use transform="translate(983.886719 0.015625)" xlink:href="#DejaVuSans-108"/>
     <use transform="translate(1011.669922 0.015625)" xlink:href="#DejaVuSans-116"/>
     <use transform="translate(1050.878906 0.015625)" xlink:href="#DejaVuSans-101"/>
     <use transform="translate(1112.402344 0.015625)" xlink:href="#DejaVuSans-114"/>
     <use transform="translate(1153.515625 0.015625)" xlink:href="#DejaVuSans-110"/>
     <use transform="translate(1216.894531 0.015625)" xlink:href="#DejaVuSans-97"/>
     <use transform="translate(1278.173828 0.015625)" xlink:href="#DejaVuSans-32"/>
     <use transform="translate(1309.960938 0.015625)" xlink:href="#DejaVuSans-45"/>
     <use transform="translate(1346.044922 0.015625)" xlink:href="#DejaVuSans-32"/>
     <use transform="translate(1377.832031 0.015625)" xlink:href="#DejaVuSans-40"/>
     <use transform="translate(1416.845703 0.015625)" xlink:href="#DejaVuSans-49"/>
     <use transform="translate(1480.46875 0.015625)" xlink:href="#DejaVuSans-48"/>
     <use transform="translate(1544.091797 0.015625)" xlink:href="#DejaVuSans-118"/>
     <use transform="translate(1603.271484 0.015625)" xlink:href="#DejaVuSans-41"/>
     <use transform="translate(1642.285156 0.015625)" xlink:href="#DejaVuSans-32"/>
     <use transform="translate(1674.072266 0.015625)" xlink:href="#DejaVuSans-45"/>
     <use transform="translate(1710.15625 0.015625)" xlink:href="#DejaVuSans-32"/>
     <use transform="translate(1741.943359 0.015625)" xlink:href="#DejaVuSans-86"/>
     <use transform="translate(1810.351562 0.015625)" xlink:href="#DejaVuSans-65"/>
     <use transform="translate(1878.759766 0.015625)" xlink:href="#DejaVuSans-67"/>
     <use transform="translate(1948.583984 0.015625)" xlink:href="#DejaVuSans-58"/>
     <use transform="translate(1982.275391 0.015625)" xlink:href="#DejaVuSans-49"/>
     <use transform="translate(2045.898438 0.015625)" xlink:href="#DejaVuSans-50"/>
     <use transform="translate(2109.521484 0.015625)" xlink:href="#DejaVuSans-48"/>
     <use transform="translate(2173.144531 0.015625)" xlink:href="#DejaVuSans-118"/>
     <use transform="translate(2232.324219 0.015625)" xlink:href="#DejaVuSans-45"/>
     <use transform="translate(2268.408203 0.015625)" xlink:href="#DejaVuSans-54"/>
     <use transform="translate(2332.03125 0.015625)" xlink:href="#DejaVuSans-48"/>
     <use transform="translate(2395.654297 0.015625)" xlink:href="#DejaVuSans-72"/>
     <use transform="translate(2470.849609 0.015625)" xlink:href="#DejaVuSans-122"/>
     <use transform="translate(2523.339844 0.015625)" xlink:href="#DejaVuSans-32"/>
     <use transform="translate(2555.126953 0.015625)" xlink:href="#DejaVuSans-82"/>
     <use transform="translate(2624.609375 0.015625)" xlink:href="#DejaVuSans-58"/>
     <use transform="translate(2658.300781 0.015625)" xlink:href="#DejaVuSans-49"/>
     <use transform="translate(2721.923828 0.015625)" xlink:href="#DejaVuSans-48"/>
     <use transform="translate(2785.546875 0.015625)" xlink:href="#DejaVuSans-107"/>
     <use transform="translate(2843.457031 0.015625)" xlink:href="#DejaVuSans-937"/>
     <use transform="translate(2919.873047 0.015625)" xlink:href="#DejaVuSans-32"/>
     <use transform="translate(2951.660156 0.015625)" xlink:href="#DejaVuSans-45"/>
     <use transform="translate(2987.744141 0.015625)" xlink:href="#DejaVuSans-32"/>
     <use transform="translate(3019.53125 0.015625)" xlink:href="#DejaVuSans-84"/>
     <use transform="translate(3080.615234 0.015625)" xlink:href="#DejaVuSans-101"/>
     <use transform="translate(3142.138672 0.015625)" xlink:href="#DejaVuSans-110"/>
     <use transform="translate(3205.517578 0.015625)" xlink:href="#DejaVuSans-115"/>
     <use transform="translate(3257.617188 0.015625)" xlink:href="#DejaVuSans-105"/>
     <use transform="translate(3285.400391 0.015625)" xlink:href="#DejaVuSans-243"/>
     <use transform="translate(3346.582031 0.015625)" xlink:href="#DejaVuSans-110"/>
     <use transform="translate(3409.960938 0.015625)" xlink:href="#DejaVuSans-32"/>
     <use transform="translate(3441.748047 0.015625)" xlink:href="#DejaVuSans-86"/>
     <use transform="translate(3510.15625 0.015625)" xlink:href="#DejaVuSans-83"/>
     <use transform="translate(3573.632812 0.015625)" xlink:href="#DejaVuSans-32"/>
     <use transform="translate(3605.419922 0.015625)" xlink:href="#DejaVuSans-73"/>
     <use transform="translate(3634.912109 0.015625)" xlink:href="#DejaVuSans-110"/>
     <use transform="translate(3698.291016 0.015625)" xlink:href="#DejaVuSans-116"/>
     <use transform="translate(3737.5 0.015625)" xlink:href="#DejaVuSans-101"/>
     <use transform="translate(3799.023438 0.015625)" xlink:href="#DejaVuSans-110"/>
     <use transform="translate(3862.402344 0.015625)" xlink:href="#DejaVuSans-115"/>
     <use transform="translate(3914.501953 0.015625)" xlink:href="#DejaVuSans-105"/>
     <use transform="translate(3942.285156 0.015625)" xlink:href="#DejaVuSans-100"/>
     <use transform="translate(4005.761719 0.015625)" xlink:href="#DejaVuSans-97"/>
     <use transform="translate(4067.041016 0.015625)" xlink:href="#DejaVuSans-100"/>
     <use transform="translate(4130.517578 0.015625)" xlink:href="#DejaVuSans-32"/>
     <use transform="translate(4162.304688 0.015625)" xlink:href="#DejaVuSans-45"/>
     <use transform="translate(4198.388672 0.015625)" xlink:href="#DejaVuSans-32"/>
     <use transform="translate(4230.175781 0.015625)" xlink:href="#DejaVuSans-40"/>
     <use transform="translate(4269.189453 0.015625)" xlink:href="#DejaVuSans-65"/>
     <use transform="translate(4337.597656 0.015625)" xlink:href="#DejaVuSans-104"/>
     <use transform="translate(4400.976562 0.015625)" xlink:href="#DejaVuSans-107"/>
     <use transform="translate(4458.886719 0.015625)" xlink:href="#DejaVuSans-97"/>
     <use transform="translate(4520.166016 0.015625)" xlink:href="#DejaVuSans-98"/>
     <use transform="translate(4583.642578 0.015625)" xlink:href="#DejaVuSans-41"/>
    </g>
   </g>
  </g>
  <g id="axes_2">
   <g id="matplotlib.axis_3">
    <g id="ytick_6">
     <g id="line2d_13">
      <path clip-path="url(#p8499e86aa3)" d="M 64.21 253.826672 
L 858.535 253.826672 
" style="fill:none;stroke:#b0b0b0;stroke-linecap:square;stroke-width:0.8;"/>
     </g>
     <g id="line2d_14">
      <defs>
       <path d="M 0 0 
L 3.5 0 
" id="m1108645b22" style="stroke:#000000;stroke-width:0.8;"/>
      </defs>
      <g>
       <use style="stroke:#000000;stroke-width:0.8;" x="858.535" xlink:href="#m1108645b22" y="253.826672"/>
      </g>
     </g>
     <g id="text_15">
      <!-- −0.010 -->
      <g style="fill:#d62728;" transform="translate(865.535 258.005813)scale(0.11 -0.11)">
       <use xlink:href="#DejaVuSans-8722"/>
       <use x="83.789062" xlink:href="#DejaVuSans-48"/>
       <use x="147.412109" xlink:href="#DejaVuSans-46"/>
       <use x="179.199219" xlink:href="#DejaVuSans-48"/>
       <use x="242.822266" xlink:href="#DejaVuSans-49"/>
       <use x="306.445312" xlink:href="#DejaVuSans-48"/>
      </g>
     </g>
    </g>
    <g id="ytick_7">
     <g id="line2d_15">
      <path clip-path="url(#p8499e86aa3)" d="M 64.21 206.118299 
L 858.535 206.118299 
" style="fill:none;stroke:#b0b0b0;stroke-linecap:square;stroke-width:0.8;"/>
     </g>
     <g id="line2d_16">
      <g>
       <use style="stroke:#000000;stroke-width:0.8;" x="858.535" xlink:href="#m1108645b22" y="206.118299"/>
      </g>
     </g>
     <g id="text_16">
      <!-- −0.005 -->
      <g style="fill:#d62728;" transform="translate(865.535 210.29744)scale(0.11 -0.11)">
       <use xlink:href="#DejaVuSans-8722"/>
       <use x="83.789062" xlink:href="#DejaVuSans-48"/>
       <use x="147.412109" xlink:href="#DejaVuSans-46"/>
       <use x="179.199219" xlink:href="#DejaVuSans-48"/>
       <use x="242.822266" xlink:href="#DejaVuSans-48"/>
       <use x="306.445312" xlink:href="#DejaVuSans-53"/>
      </g>
     </g>
    </g>
    <g id="ytick_8">
     <g id="line2d_17">
      <path clip-path="url(#p8499e86aa3)" d="M 64.21 158.409927 
L 858.535 158.409927 
" style="fill:none;stroke:#b0b0b0;stroke-linecap:square;stroke-width:0.8;"/>
     </g>
     <g id="line2d_18">
      <g>
       <use style="stroke:#000000;stroke-width:0.8;" x="858.535" xlink:href="#m1108645b22" y="158.409927"/>
      </g>
     </g>
     <g id="text_17">
      <!-- 0.000 -->
      <g style="fill:#d62728;" transform="translate(865.535 162.589068)scale(0.11 -0.11)">
       <use xlink:href="#DejaVuSans-48"/>
       <use x="63.623047" xlink:href="#DejaVuSans-46"/>
       <use x="95.410156" xlink:href="#DejaVuSans-48"/>
       <use x="159.033203" xlink:href="#DejaVuSans-48"/>
       <use x="222.65625" xlink:href="#DejaVuSans-48"/>
      </g>
     </g>
    </g>
    <g id="ytick_9">
     <g id="line2d_19">
      <path clip-path="url(#p8499e86aa3)" d="M 64.21 110.701554 
L 858.535 110.701554 
" style="fill:none;stroke:#b0b0b0;stroke-linecap:square;stroke-width:0.8;"/>
     </g>
     <g id="line2d_20">
      <g>
       <use style="stroke:#000000;stroke-width:0.8;" x="858.535" xlink:href="#m1108645b22" y="110.701554"/>
      </g>
     </g>
     <g id="text_18">
      <!-- 0.005 -->
      <g style="fill:#d62728;" transform="translate(865.535 114.880695)scale(0.11 -0.11)">
       <use xlink:href="#DejaVuSans-48"/>
       <use x="63.623047" xlink:href="#DejaVuSans-46"/>
       <use x="95.410156" xlink:href="#DejaVuSans-48"/>
       <use x="159.033203" xlink:href="#DejaVuSans-48"/>
       <use x="222.65625" xlink:href="#DejaVuSans-53"/>
      </g>
     </g>
    </g>
    <g id="ytick_10">
     <g id="line2d_21">
      <path clip-path="url(#p8499e86aa3)" d="M 64.21 62.993182 
L 858.535 62.993182 
" style="fill:none;stroke:#b0b0b0;stroke-linecap:square;stroke-width:0.8;"/>
     </g>
     <g id="line2d_22">
      <g>
       <use style="stroke:#000000;stroke-width:0.8;" x="858.535" xlink:href="#m1108645b22" y="62.993182"/>
      </g>
     </g>
     <g id="text_19">
      <!-- 0.010 -->
      <g style="fill:#d62728;" transform="translate(865.535 67.172323)scale(0.11 -0.11)">
       <use xlink:href="#DejaVuSans-48"/>
       <use x="63.623047" xlink:href="#DejaVuSans-46"/>
       <use x="95.410156" xlink:href="#DejaVuSans-48"/>
       <use x="159.033203" xlink:href="#DejaVuSans-49"/>
       <use x="222.65625" xlink:href="#DejaVuSans-48"/>
      </g>
     </g>
    </g>
    <g id="text_20">
     <!-- Corriente (A) -->
     <g style="fill:#d62728;" transform="translate(918.601875 193.781875)rotate(-90)scale(0.11 -0.11)">
      <use xlink:href="#DejaVuSans-67"/>
      <use x="69.824219" xlink:href="#DejaVuSans-111"/>
      <use x="131.005859" xlink:href="#DejaVuSans-114"/>
      <use x="170.369141" xlink:href="#DejaVuSans-114"/>
      <use x="211.482422" xlink:href="#DejaVuSans-105"/>
      <use x="239.265625" xlink:href="#DejaVuSans-101"/>
      <use x="300.789062" xlink:href="#DejaVuSans-110"/>
      <use x="364.167969" xlink:href="#DejaVuSans-116"/>
      <use x="403.376953" xlink:href="#DejaVuSans-101"/>
      <use x="464.900391" xlink:href="#DejaVuSans-32"/>
      <use x="496.6875" xlink:href="#DejaVuSans-40"/>
      <use x="535.701172" xlink:href="#DejaVuSans-65"/>
      <use x="604.109375" xlink:href="#DejaVuSans-41"/>
     </g>
    </g>
   </g>
   <g id="line2d_23">
    <path clip-path="url(#p8499e86aa3)" d="M 100.315682 158.625776 
L 109.844919 186.815945 
L 115.620075 203.156692 
L 119.951441 214.76526 
L 124.282808 225.653755 
L 127.170386 232.443573 
L 130.057963 238.812717 
L 132.945541 244.724996 
L 135.833119 250.146816 
L 138.720697 255.047369 
L 141.608274 259.398808 
L 144.495852 263.176409 
L 147.38343 266.358705 
L 148.827219 267.720829 
L 150.271008 268.927615 
L 151.714796 269.97735 
L 153.158585 270.868542 
L 154.602374 271.599923 
L 156.046163 272.170456 
L 157.489952 272.579328 
L 158.933741 272.82596 
L 160.37753 272.91 
L 161.821319 272.831329 
L 163.265107 272.590059 
L 164.708896 272.186533 
L 166.152685 271.621325 
L 167.596474 270.895236 
L 169.040263 270.0093 
L 170.484052 268.964775 
L 171.927841 267.763145 
L 173.371629 266.406119 
L 176.259207 263.233807 
L 179.146785 259.465865 
L 182.034363 255.123703 
L 184.92194 250.231994 
L 187.809518 244.818534 
L 190.697096 238.914083 
L 193.584674 232.552191 
L 196.472251 225.769008 
L 200.803618 214.889227 
L 205.134984 203.287789 
L 210.91014 186.95393 
L 218.129084 165.670536 
L 229.679395 131.399984 
L 235.454551 114.991086 
L 239.785917 103.311516 
L 244.117284 92.335958 
L 247.004862 85.479717 
L 249.892439 79.037881 
L 252.780017 73.047051 
L 255.667595 67.541271 
L 258.555173 62.551825 
L 261.44275 58.107064 
L 264.330328 54.232243 
L 267.217906 50.949381 
L 270.105483 48.277131 
L 271.549272 47.174868 
L 272.993061 46.230677 
L 274.43685 45.445899 
L 275.880639 44.821649 
L 277.324428 44.358814 
L 278.768217 44.058051 
L 280.212005 43.919789 
L 281.655794 43.944224 
L 283.099583 44.131321 
L 284.543372 44.480814 
L 285.987161 44.992207 
L 287.43095 45.664772 
L 288.874739 46.497554 
L 290.318528 47.48937 
L 291.762316 48.63881 
L 293.206105 49.944241 
L 296.093683 53.015436 
L 298.981261 56.685503 
L 301.868838 60.933588 
L 304.756416 65.735554 
L 307.643994 71.064114 
L 310.531572 76.88899 
L 313.419149 83.177084 
L 316.306727 89.892667 
L 320.638094 100.683496 
L 324.96946 112.211918 
L 329.300827 124.330629 
L 335.075982 141.138664 
L 353.934716 196.702836 
L 358.266082 208.63619 
L 362.597449 219.927785 
L 366.928815 230.433343 
L 369.816393 236.933606 
L 372.703971 242.987683 
L 375.591549 248.561172 
L 378.479126 253.622403 
L 381.366704 258.142618 
L 384.254282 262.096133 
L 387.141859 265.460481 
L 390.029437 268.216547 
L 391.473226 269.361442 
L 392.917015 270.34867 
L 394.360804 271.176826 
L 395.804593 271.844734 
L 397.248382 272.351445 
L 398.69217 272.696239 
L 400.135959 272.878626 
L 401.579748 272.898347 
L 403.023537 272.755373 
L 404.467326 272.449909 
L 405.911115 271.982387 
L 407.354904 271.353472 
L 408.798692 270.564059 
L 410.242481 269.615268 
L 411.68627 268.508449 
L 413.130059 267.245173 
L 416.017637 264.256655 
L 418.905214 260.666694 
L 421.792792 256.49569 
L 424.68037 251.767343 
L 427.567948 246.50852 
L 430.455525 240.749104 
L 433.343103 234.52182 
L 436.230681 227.862053 
L 440.562047 217.144896 
L 444.893414 205.67726 
L 449.224781 193.605672 
L 454.999936 176.838199 
L 473.769191 121.476006 
L 478.100558 109.480625 
L 482.431925 98.110433 
L 486.763291 87.51071 
L 489.650869 80.939607 
L 492.538447 74.808706 
L 495.426024 69.152844 
L 498.313602 64.004158 
L 501.20118 59.391905 
L 504.088758 55.342292 
L 506.976335 51.87833 
L 509.863913 49.019701 
L 511.307702 47.8226 
L 512.751491 46.78265 
L 514.19528 45.901328 
L 515.639068 45.179887 
L 517.082857 44.619352 
L 518.526646 44.22052 
L 519.970435 43.983957 
L 521.414224 43.91 
L 522.858013 43.998753 
L 524.301802 44.250091 
L 525.745591 44.663657 
L 527.189379 45.238861 
L 528.633168 45.974889 
L 530.076957 46.870692 
L 531.520746 47.924999 
L 532.964535 49.136311 
L 534.408324 50.502907 
L 537.295901 53.693964 
L 540.183479 57.480038 
L 543.071057 61.839616 
L 545.958635 66.747926 
L 548.846212 72.177077 
L 551.73379 78.096221 
L 554.621368 84.471723 
L 557.508946 91.267357 
L 561.840312 102.163487 
L 566.171679 113.778299 
L 571.946834 130.125072 
L 579.165779 151.416315 
L 590.716089 185.679762 
L 596.491245 202.076185 
L 600.822612 213.742694 
L 605.153978 224.702195 
L 608.041556 231.546168 
L 610.929134 237.974566 
L 613.816711 243.950862 
L 616.704289 249.441097 
L 619.591867 254.414076 
L 622.479445 258.841539 
L 625.367022 262.69833 
L 628.2546 265.962533 
L 631.142178 268.615602 
L 632.585967 269.708111 
L 634.029755 270.642459 
L 635.473544 271.417319 
L 636.917333 272.031589 
L 638.361122 272.484396 
L 639.804911 272.775098 
L 641.2487 272.90328 
L 642.692489 272.868761 
L 644.136278 272.67159 
L 645.580066 272.312046 
L 647.023855 271.790642 
L 648.467644 271.108117 
L 649.911433 270.265442 
L 651.355222 269.263814 
L 652.799011 268.104657 
L 654.2428 266.789617 
L 657.130377 263.699585 
L 660.017955 260.011277 
L 662.905533 255.745649 
L 665.79311 250.92694 
L 668.680688 245.582531 
L 671.568266 239.74279 
L 674.455844 233.4409 
L 677.343421 226.712668 
L 681.674788 215.905171 
L 686.006155 204.363036 
L 690.337521 192.233741 
L 696.112677 175.416688 
L 714.145153 122.199913 
L 718.47652 110.17237 
L 722.807886 98.761177 
L 727.139253 88.112139 
L 730.026831 81.503847 
L 732.914409 75.33255 
L 735.801986 69.633316 
L 738.689564 64.438528 
L 741.577142 59.777704 
L 744.464719 55.677329 
L 747.352297 52.1607 
L 750.239875 49.247801 
L 751.683664 48.023059 
L 753.127453 46.955183 
L 754.571242 46.04569 
L 756.01503 45.295873 
L 757.458819 44.706797 
L 758.902608 44.279299 
L 760.346397 44.013988 
L 761.790186 43.911239 
L 763.233975 43.971199 
L 764.677764 44.193783 
L 766.121552 44.578674 
L 767.565341 45.125325 
L 769.00913 45.832961 
L 770.452919 46.700574 
L 771.896708 47.726932 
L 773.340497 48.910577 
L 774.784286 50.249827 
L 777.671863 53.387309 
L 780.559441 57.12155 
L 783.447019 61.431332 
L 786.334597 66.292165 
L 789.222174 71.676431 
L 792.109752 77.553533 
L 794.99733 83.890077 
L 797.884907 90.650058 
L 802.216274 101.499344 
L 806.547641 113.075797 
L 810.879007 125.231502 
L 816.654163 142.070896 
L 822.429318 159.281129 
L 822.429318 159.281129 
" style="fill:none;stroke:#d62728;stroke-linecap:square;stroke-width:1.5;"/>
   </g>
   <g id="patch_7">
    <path d="M 64.21 284.36 
L 64.21 32.46 
" style="fill:none;stroke:#000000;stroke-linecap:square;stroke-linejoin:miter;stroke-width:0.8;"/>
   </g>
   <g id="patch_8">
    <path d="M 858.535 284.36 
L 858.535 32.46 
" style="fill:none;stroke:#000000;stroke-linecap:square;stroke-linejoin:miter;stroke-width:0.8;"/>
   </g>
   <g id="patch_9">
    <path d="M 64.21 284.36 
L 858.535 284.36 
" style="fill:none;stroke:#000000;stroke-linecap:square;stroke-linejoin:miter;stroke-width:0.8;"/>
   </g>
   <g id="patch_10">
    <path d="M 64.21 32.46 
L 858.535 32.46 
" style="fill:none;stroke:#000000;stroke-linecap:square;stroke-linejoin:miter;stroke-width:0.8;"/>
   </g>
  </g>
 </g>
 <defs>
  <clipPath id="p8499e86aa3">
   <rect height="251.9" width="794.325" x="64.21" y="32.46"/>
  </clipPath>
 </defs>
</svg>
